<?xml version="1.0" encoding="utf-8"?>
<!-- Generator: Adobe Illustrator 23.0.1, SVG Export Plug-In . SVG Version: 6.00 Build 0)  -->
<svg version="1.1" id="Layer_1" xmlns="http://www.w3.org/2000/svg" xmlns:xlink="http://www.w3.org/1999/xlink" x="0px" y="0px"
	 viewBox="0 0 1156.7 1240.1" style="enable-background:new 0 0 1156.7 1240.1;" xml:space="preserve">
<style type="text/css">
	.st0{opacity:0.26;}
	.st1{fill:#010101;}
</style>
<g class="st0">
	<g>
		<g>
			<path class="st1" d="M576.7,720.7c-111.4,0-202-89.5-202-199.5s90.6-199.5,202-199.5c111.4,0,202,89.5,202,199.5
				S688.1,720.7,576.7,720.7z M576.7,334c-104.5,0-189.6,84-189.6,187.2s85,187.2,189.6,187.2s189.6-84,189.6-187.2
				C766.2,418,681.2,334,576.7,334z"/>
			<path class="st1" d="M576.7,951.4c-240.2,0-435.6-193-435.6-430.1S336.5,91.1,576.7,91.1c240.2,0,435.6,193,435.6,430.1
				S816.8,951.4,576.7,951.4z M576.7,103.4c-233.3,0-423.1,187.4-423.1,417.8S343.4,939,576.7,939c233.3,0,423.1-187.4,423.1-417.8
				C999.8,290.9,810,103.4,576.7,103.4z"/>
			<path class="st1" d="M576.7,1037c-288,0-522.3-231.3-522.3-515.7C54.4,236.9,288.7,5.5,576.7,5.5S1099,236.9,1099,521.2
				C1098.9,805.6,864.7,1037,576.7,1037z M576.7,17.8c-281.1,0-509.8,225.8-509.8,503.4c0,277.6,228.7,503.4,509.8,503.4
				s509.8-225.8,509.8-503.4C1086.5,243.6,857.8,17.8,576.7,17.8z"/>
			<path class="st1" d="M569.2,934.8l-48.1-221.3L367.3,881.4l-10.6-6L427.2,660L209,729.4l-6.1-10.4l170-151.8l-224.1-47.5v-12
				L373,460.2l-170-151.8l6.1-10.4l218.2,69.5L356.8,152l10.6-6l153.7,167.9l48.1-221.3h12.2l48.1,221.3L783.2,146l10.6,6
				l-70.4,215.4l218.2-69.5l6.1,10.4L777.6,460.2l224.1,47.5v12l-224.1,47.5l170,151.8l-6.1,10.4L723.4,660l70.4,215.4l-10.6,6
				L629.5,713.5l-48.1,221.3H569.2z M520,696.3l10.7,2.9l44.6,205l44.6-205l10.7-2.9L773,851.9l-65.2-199.6l7.9-7.8l202.1,64.4
				L760.2,568.3l2.9-10.6l207.6-44l-207.6-44l-2.9-10.6l157.5-140.6l-202.1,64.4l-7.9-7.8L773,175.5L630.6,331.1l-10.7-2.8
				l-44.6-205l-44.6,205l-10.7,2.8L377.6,175.5l65.2,199.6l-7.9,7.8l-202.1-64.4l157.5,140.6l-2.9,10.6l-207.6,44l207.6,44l2.9,10.6
				L232.8,708.9l202.1-64.4l7.9,7.8l-65.2,199.6L520,696.3z"/>
			<rect x="572.2" y="6" class="st1" width="6.2" height="508.2"/>
			<polygon class="st1" points="572.3,515 439.1,24.1 445.1,22.6 578.3,513.4 			"/>
			<polygon class="st1" points="572.6,515.8 315.2,75.7 320.6,72.6 578,512.7 			"/>
			<polygon class="st1" points="573.1,516.4 209.1,157.1 213.5,152.7 577.5,512.1 			"/>
			<polygon class="st1" points="573.7,516.9 128,262.8 131.1,257.5 576.8,511.6 			"/>
			<polygon class="st1" points="574.5,517.2 77.3,385.7 79,379.8 576.1,511.3 			"/>
			<rect x="60.6" y="511.2" class="st1" width="514.7" height="6.2"/>
			<polygon class="st1" points="79,648.8 77.3,642.8 574.5,511.3 576.1,517.2 			"/>
			<polygon class="st1" points="131.1,771.1 128,765.7 573.7,511.6 576.8,516.9 			"/>
			<polygon class="st1" points="213.5,875.8 209.1,871.5 573.1,512.1 577.5,516.4 			"/>
			<polygon class="st1" points="320.6,956 315.2,952.9 572.6,512.7 578,515.8 			"/>
			<polygon class="st1" points="445.1,1006 439.1,1004.4 572.3,513.4 578.3,515 			"/>
			<rect x="572.2" y="514.2" class="st1" width="6.2" height="508.2"/>
			<polygon class="st1" points="705.5,1006 572.3,515 578.3,513.4 711.5,1004.4 			"/>
			<polygon class="st1" points="829.9,956 572.6,515.8 578,512.7 835.3,952.9 			"/>
			<polygon class="st1" points="937,875.8 573.1,516.4 577.5,512.1 941.4,871.5 			"/>
			<polygon class="st1" points="1019.4,771.1 573.7,516.9 576.8,511.6 1022.5,765.7 			"/>
			<polygon class="st1" points="1071.6,648.8 574.5,517.2 576.1,511.3 1073.2,642.8 			"/>
			<rect x="575.3" y="511.2" class="st1" width="514.7" height="6.2"/>
			<polygon class="st1" points="576.1,517.2 574.5,511.3 1071.6,379.8 1073.2,385.7 			"/>
			<polygon class="st1" points="576.8,516.9 573.7,511.6 1019.4,257.5 1022.5,262.8 			"/>
			<polygon class="st1" points="577.5,516.4 573.1,512.1 937,152.7 941.4,157.1 			"/>
			<polygon class="st1" points="578,515.8 572.6,512.7 829.9,72.6 835.3,75.7 			"/>
			<polygon class="st1" points="578.3,515 572.3,513.4 705.5,22.6 711.5,24.1 			"/>
			<g>
				<g>
					<path class="st1" d="M580.7,153.2l-37.1-0.3l-0.7-4.7c-0.1-0.4-0.8-4-3.6-4.2c-7.9-0.7-10.5-3.7-11.9-7.8
						c-5.9-6.9-10-13.8-11-16.1c-1.7-4.2-1.7-24.9,4.2-28.4c1.5-0.9,3.1-1.1,7.9-1.1c9.8,0,29.8,1.1,30.7,1.2l5.6-1.7l-1.8,24.6h5.1
						l11.6-4.5L580.7,153.2z M552.6,141.9l16.7-1.9l-0.3-14.3h-17.9l1.8-25.3c-7.1-0.4-19.3,0.2-25.4,0.2c-0.8,4.3-1.2,12.9-0.6,15
						c0.4,1,3.7,7,8.7,12.4c1.5,1.7,2.1,3.5,2.5,4.6c-0.4-0.2,0.1,0.2,2.4,0.4C547,133.5,550.7,137.9,552.6,141.9z"/>
					<path class="st1" d="M571.3,153.2l1-43.1l11.6,4.5h5.1l-1.8-24.6l5.6,0.7c0.8-0.1,20.8-0.7,30.7-0.7c4.7,0,6.3,0.5,7.8,1.4
						c5.9,3.5,5.9,24.4,4.2,28.6c-0.9,2.3-5.1,9.3-10.8,15.6c-1.6,4.8-4.2,7.7-12.1,8.5c-2.9,0.3-3.6,4.2-3.6,4.3l-0.7,4.7
						L571.3,153.2z M583.1,125.6l-0.3,14.3l16.7,0.9c1.9-4,5.6-7.8,12.1-8.4c2.1-0.2,2.8-0.3,2.8-0.3c-0.1-0.9,0.5-2.5,2-4.1
						c4.9-5.4,8.2-11.1,8.7-12.2c0.6-2,0.1-10-0.7-14.3c-6,0-18.2-1.6-25.4-1.2l1.8,25.3C600.9,125.6,583.1,125.6,583.1,125.6z"/>
				</g>
				<path class="st1" d="M550.4,92.5h-11.2V37.2h11.2V92.5z M539.2,92.5h11.2V37.2h-11.2V92.5z"/>
				<path class="st1" d="M630.4,37.2H518.5v-11c0-14.1,25.2-25.3,56.1-25.3c29.6,0,55.7,10.2,55.7,23.5L630.4,37.2L630.4,37.2z"/>
				<rect x="539.2" y="37.2" class="st1" width="0" height="55.2"/>
				<polygon class="st1" points="572.2,146 557.3,145.4 529.3,137.7 523.3,109.8 525.6,95.3 552.2,95.3 566.1,122.9 573.5,124.7 
									"/>
				<polygon class="st1" points="580,146.6 594.9,146 622.8,138.3 628.9,109.7 626.6,94.5 600,94.5 587.3,121 584.5,122.4 
					576.3,129.8 				"/>
				<rect x="539.2" y="37.2" class="st1" width="11.2" height="55.2"/>
				<rect x="600.8" y="36.8" class="st1" width="11.2" height="55.2"/>
			</g>
			<g>
				<g>
					<path class="st1" d="M847.9,229.2l-37.1-0.3l-0.7-4.7c-0.1-0.4-0.8-4-3.5-4.2c-7.9-0.7-10.5-3.7-11.9-7.8
						c-5.9-6.9-10.1-13.8-11-16.1c-1.7-4.2-1.7-24.9,4.2-28.4c1.5-0.9,3.1-1.1,7.9-1.1c9.8,0,29.8,1.1,30.7,1.2l5.6-1.7l-1.8,24.6
						h5.1l11.6-4.5L847.9,229.2z M819.7,217.9l16.7-1.9l-0.3-14.3h-17.9l1.8-25.3c-7.1-0.4-19.3,0.2-25.4,0.1
						c-0.8,4.3-1.2,12.9-0.6,15c0.4,1,3.7,7,8.6,12.4c1.5,1.7,2.1,3.5,2.5,4.6c-0.4-0.2,0.1,0.2,2.4,0.4
						C814.1,209.5,817.8,213.8,819.7,217.9z"/>
					<path class="st1" d="M838.4,229.2l1-43.1l11.6,4.5h5.1l-1.8-24.6l5.6,0.7c0.8-0.1,20.8-0.7,30.7-0.7c4.7,0,6.3,0.5,7.8,1.4
						c5.9,3.5,5.9,24.4,4.2,28.6c-0.9,2.3-5.1,9.3-10.8,15.6c-1.7,4.8-4.2,7.7-12.1,8.5c-2.9,0.3-3.5,4.2-3.5,4.3l-0.7,4.7
						L838.4,229.2z M850.2,201.6l-0.3,14.3l16.7,0.9c1.9-4,5.6-7.8,12.1-8.4c2.2-0.2,2.8-0.3,2.8-0.3c-0.1-0.9,0.5-2.5,2-4.1
						c4.9-5.4,8.2-11.1,8.7-12.2c0.6-2,0.1-10-0.7-14.3c-6,0-18.2-1.6-25.4-1.2l1.8,25.3C868,201.6,850.2,201.6,850.2,201.6z"/>
				</g>
				<path class="st1" d="M817.5,168.4h-11.2v-55.2h11.2V168.4z M806.3,168.4h11.2v-55.2h-11.2V168.4z"/>
				<path class="st1" d="M897.5,113.2H785.6v-11c0-14.1,25.2-25.3,56.1-25.3c29.6,0,55.7,10.2,55.7,23.5
					C897.5,100.4,897.5,113.2,897.5,113.2z"/>
				<rect x="806.3" y="113.2" class="st1" width="0" height="55.2"/>
				<polygon class="st1" points="839.4,222 824.4,221.4 796.5,213.7 790.4,185.8 792.7,171.2 819.3,171.2 833.2,198.8 840.6,200.7 
									"/>
				<polygon class="st1" points="847.1,222.6 862,222 890,214.3 896,185.7 893.7,170.4 867.1,170.4 854.4,197 851.6,198.4 
					843.4,205.7 				"/>
				<rect x="806.3" y="113.2" class="st1" width="11.2" height="55.2"/>
				<rect x="868" y="112.7" class="st1" width="11.2" height="55.2"/>
			</g>
			<g>
				<g>
					<path class="st1" d="M1022.7,414.2l-37.1-0.3l-0.7-4.7c-0.1-0.4-0.8-4-3.5-4.2c-7.9-0.7-10.5-3.7-11.9-7.8
						c-5.9-6.9-10-13.8-11-16.1c-1.7-4.2-1.7-24.9,4.2-28.4c1.5-0.9,3.2-1.1,7.9-1.1c9.9,0,29.8,1.1,30.7,1.2l5.6-1.7l-1.8,24.6h5.1
						l11.6-4.5L1022.7,414.2z M994.5,402.9l16.7-1.9l-0.3-14.3h-17.9l1.8-25.3c-7.1-0.4-19.3,0.2-25.4,0.2c-0.8,4.3-1.3,12.9-0.6,15
						c0.4,1,3.7,7,8.7,12.4c1.5,1.7,2.1,3.5,2.5,4.6c-0.3-0.2,0.1,0.2,2.4,0.4C988.9,394.5,992.6,398.9,994.5,402.9z"/>
					<path class="st1" d="M1013.2,414.2l1-43.1l11.6,4.5h5.1l-1.8-24.6l5.6,0.7c0.8-0.1,20.8-0.7,30.7-0.7c4.7,0,6.3,0.5,7.8,1.3
						c5.9,3.5,5.9,24.4,4.2,28.6c-0.9,2.3-5.1,9.3-10.8,15.6c-1.6,4.8-4.2,7.7-12.1,8.5c-2.9,0.3-3.5,4.2-3.5,4.3l-0.7,4.7
						L1013.2,414.2z M1025,386.6l-0.3,14.3l16.7,0.9c1.9-4,5.6-7.8,12.1-8.4c2.2-0.2,2.8-0.3,2.8-0.3c-0.1-0.9,0.5-2.5,2-4.1
						c4.9-5.4,8.2-11.1,8.7-12.2c0.6-2,0.1-10-0.7-14.3c-6,0-18.2-1.6-25.4-1.2l1.8,25.3H1025z"/>
				</g>
				<path class="st1" d="M992.3,353.5h-11.2v-55.2h11.2V353.5z M981.1,353.5h11.2v-55.2h-11.2V353.5z"/>
				<path class="st1" d="M1072.3,298.3H960.4v-11c0-14.1,25.2-25.3,56.1-25.3c29.6,0,55.7,10.2,55.7,23.5
					C1072.3,285.5,1072.3,298.3,1072.3,298.3z"/>
				<rect x="981.1" y="298.3" class="st1" width="0" height="55.2"/>
				<polygon class="st1" points="1014.2,407 999.2,406.4 971.3,398.7 965.2,370.8 967.5,356.3 994.1,356.3 1008,383.9 1015.4,385.7 
									"/>
				<polygon class="st1" points="1021.9,407.6 1036.8,407 1064.8,399.3 1070.8,370.7 1068.5,355.5 1041.9,355.5 1029.2,382 
					1026.4,383.4 1018.3,390.8 				"/>
				<rect x="981.1" y="298.3" class="st1" width="11.2" height="55.2"/>
				<rect x="1042.8" y="297.8" class="st1" width="11.2" height="55.2"/>
			</g>
			<g>
				<g>
					<path class="st1" d="M1099.9,666.9l-37.1-0.3l-0.7-4.7c-0.1-0.4-0.8-4-3.5-4.2c-7.9-0.7-10.5-3.6-11.9-7.8
						c-5.9-6.9-10.1-13.8-11-16.1c-1.7-4.2-1.7-24.9,4.2-28.4c1.5-0.9,3.1-1.1,7.9-1.1c9.9,0,29.8,1.2,30.7,1.2l5.6-1.7l-1.8,24.6
						h5.1l11.6-4.5L1099.9,666.9z M1071.8,655.6l16.7-1.9l-0.3-14.4h-17.9l1.8-25.3c-7.1-0.4-19.3,0.2-25.4,0.1
						c-0.8,4.3-1.2,12.9-0.6,15c0.4,1,3.7,7,8.7,12.4c1.5,1.7,2.1,3.5,2.5,4.6c-0.4-0.2,0.1,0.2,2.4,0.4
						C1066.1,647.2,1069.9,651.6,1071.8,655.6z"/>
					<path class="st1" d="M1090.5,666.9l1-43.1l11.6,4.5h5.1l-1.8-24.6l5.6,0.7c0.8-0.1,20.8-0.7,30.7-0.7c4.7,0,6.3,0.5,7.8,1.4
						c5.9,3.5,5.9,24.4,4.2,28.6c-0.9,2.3-5.1,9.3-10.8,15.6c-1.7,4.8-4.2,7.7-12.1,8.5c-2.9,0.3-3.5,4.2-3.5,4.3l-0.7,4.7
						L1090.5,666.9z M1102.2,639.4l-0.3,14.4l16.7,0.9c1.9-4,5.6-7.8,12.1-8.4c2.2-0.2,2.8-0.3,2.8-0.3c-0.1-0.9,0.5-2.5,2-4.1
						c4.9-5.4,8.2-11.1,8.7-12.2c0.6-2,0.1-10-0.7-14.3c-6,0-18.2-1.6-25.4-1.2l1.8,25.3C1120.1,639.4,1102.2,639.4,1102.2,639.4z"
						/>
				</g>
				<path class="st1" d="M1069.6,606.2h-11.2V551h11.2V606.2z M1058.4,606.2h11.2V551h-11.2V606.2z"/>
				<path class="st1" d="M1149.6,551h-111.9v-11c0-14.1,25.2-25.3,56.1-25.3c29.6,0,55.7,10.2,55.7,23.5
					C1149.6,538.2,1149.6,551,1149.6,551z"/>
				<rect x="1058.4" y="551" class="st1" width="0" height="55.2"/>
				<polygon class="st1" points="1091.4,659.8 1076.4,659.2 1048.5,651.5 1042.4,623.6 1044.8,609 1071.3,609 1085.2,636.6 
					1092.7,638.5 				"/>
				<polygon class="st1" points="1099.1,660.4 1114.1,659.8 1142,652.1 1148.1,623.5 1145.7,608.2 1119.2,608.2 1106.5,634.8 
					1103.7,636.2 1095.5,643.5 				"/>
				<rect x="1058.4" y="551" class="st1" width="11.2" height="55.2"/>
				<rect x="1120" y="550.5" class="st1" width="11.2" height="55.2"/>
			</g>
			<g>
				<g>
					<path class="st1" d="M1035.6,921l-37.1-0.3l-0.7-4.7c-0.1-0.4-0.8-4-3.5-4.3c-7.9-0.7-10.5-3.6-11.9-7.8
						c-5.9-6.9-10-13.8-11-16.2c-1.7-4.2-1.7-24.9,4.2-28.4c1.5-0.9,3.1-1.1,7.9-1.1c9.9,0,29.8,1.1,30.7,1.2l5.6-1.7l-1.8,24.6h5.1
						l11.6-4.5L1035.6,921z M1007.4,909.8l16.7-1.9l-0.3-14.4H1006l1.8-25.3c-7.1-0.4-19.3,0.2-25.3,0.2c-0.8,4.3-1.3,12.9-0.6,15
						c0.4,1,3.7,7,8.7,12.4c1.5,1.7,2.1,3.5,2.5,4.6c-0.3-0.2,0.1,0.2,2.4,0.4C1001.8,901.3,1005.5,905.7,1007.4,909.8z"/>
					<path class="st1" d="M1026.1,921l1-43.1l11.6,4.5h5.1l-1.8-24.6l5.6,0.7c0.8-0.1,20.8-0.7,30.7-0.7c4.7,0,6.3,0.5,7.8,1.4
						c5.9,3.5,5.9,24.4,4.2,28.5c-0.9,2.3-5.1,9.3-10.8,15.6c-1.7,4.8-4.2,7.8-12.1,8.5c-2.9,0.3-3.5,4.2-3.5,4.3l-0.7,4.7
						L1026.1,921z M1037.9,893.5l-0.3,14.4l16.7,0.9c1.9-4,5.6-7.8,12.1-8.4c2.2-0.2,2.8-0.3,2.8-0.3c-0.1-0.9,0.5-2.5,2-4.1
						c4.9-5.4,8.2-11.1,8.7-12.2c0.6-2,0.1-10-0.7-14.4c-6,0.1-18.2-1.5-25.4-1.2l1.8,25.3H1037.9z"/>
				</g>
				<path class="st1" d="M1005.2,860.3h-11.2v-55.2h11.2V860.3z M994,860.3h11.2v-55.2H994V860.3z"/>
				<path class="st1" d="M1085.2,805.1H973.4v-11c0-14.1,25.2-25.3,56.1-25.3c29.6,0,55.7,10.2,55.7,23.5
					C1085.2,792.3,1085.2,805.1,1085.2,805.1z"/>
				<rect x="994" y="805.1" class="st1" width="0" height="55.2"/>
				<polygon class="st1" points="1027.1,913.8 1012.1,913.3 984.2,905.6 978.1,877.7 980.4,863.1 1007,863.1 1020.9,890.7 
					1028.4,892.5 				"/>
				<polygon class="st1" points="1034.8,914.5 1049.7,913.9 1077.7,906.2 1083.7,877.6 1081.4,862.3 1054.8,862.3 1042.1,888.9 
					1039.3,890.3 1031.1,897.6 				"/>
				<rect x="994" y="805.1" class="st1" width="11.2" height="55.2"/>
				<rect x="1055.7" y="804.6" class="st1" width="11.2" height="55.2"/>
			</g>
			<g>
				<g>
					<path class="st1" d="M835.3,1107.5l-37.1-0.3l-0.7-4.7c-0.1-0.4-0.8-4-3.6-4.2c-7.9-0.7-10.5-3.6-11.9-7.8
						c-5.9-6.9-10.1-13.8-11-16.1c-1.7-4.2-1.7-24.9,4.1-28.4c1.5-0.9,3.1-1.1,7.9-1.1c9.9,0,29.8,1.1,30.6,1.2l5.6-1.8l-1.8,24.6
						h5.1l11.6-4.5L835.3,1107.5z M807.2,1096.2l16.7-1.9l-0.3-14.4h-17.9l1.8-25.3c-7.1-0.4-19.3,0.2-25.4,0.2
						c-0.8,4.3-1.2,12.9-0.6,15c0.4,1,3.7,7,8.7,12.4c1.5,1.7,2.1,3.5,2.5,4.6c-0.4-0.2,0.1,0.2,2.4,0.4
						C801.6,1087.8,805.3,1092.2,807.2,1096.2z"/>
					<path class="st1" d="M825.9,1107.5l1-43.1l11.6,4.5h5.1l-1.8-24.6l5.6,0.7c0.8-0.1,20.8-0.7,30.6-0.7c4.7,0,6.3,0.5,7.8,1.4
						c5.9,3.5,5.9,24.4,4.2,28.6c-0.9,2.3-5,9.3-10.8,15.6c-1.6,4.8-4.2,7.7-12.1,8.5c-2.9,0.3-3.6,4.2-3.6,4.3l-0.7,4.7
						L825.9,1107.5z M837.7,1079.9l-0.3,14.4l16.7,0.9c1.9-4,5.6-7.8,12.1-8.4c2.2-0.2,2.8-0.3,2.8-0.3c-0.1-0.9,0.5-2.5,2-4.1
						c4.9-5.4,8.2-11.1,8.7-12.2c0.6-2,0.1-10-0.7-14.3c-6,0-18.2-1.6-25.4-1.2l1.8,25.3H837.7z"/>
				</g>
				<path class="st1" d="M805,1046.8h-11.2v-55.2H805V1046.8z M793.8,1046.8H805v-55.2h-11.2V1046.8z"/>
				<path class="st1" d="M885,991.5H773.1v-11c0-14.1,25.2-25.3,56.1-25.3c29.6,0,55.7,10.2,55.7,23.5
					C885,978.7,885,991.5,885,991.5z"/>
				<rect x="793.8" y="991.5" class="st1" width="0" height="55.2"/>
				<polygon class="st1" points="826.8,1100.3 811.9,1099.7 784,1092 777.9,1064.1 780.2,1049.5 806.8,1049.5 820.7,1077.1 
					828.1,1079 				"/>
				<polygon class="st1" points="834.6,1100.9 849.5,1100.3 877.4,1092.6 883.5,1064 881.2,1048.8 854.6,1048.8 841.9,1075.3 
					839.1,1076.7 830.9,1084.1 				"/>
				<rect x="793.8" y="991.5" class="st1" width="11.2" height="55.2"/>
				<rect x="855.4" y="991.1" class="st1" width="11.2" height="55.2"/>
			</g>
			<g>
				<g>
					<path class="st1" d="M583.6,1172.4l-37.1-0.3l-0.7-4.7c-0.1-0.4-0.8-4-3.6-4.2c-7.9-0.7-10.5-3.6-11.9-7.8
						c-5.9-6.9-10.1-13.8-11-16.1c-1.7-4.2-1.7-24.9,4.2-28.4c1.5-0.9,3.1-1.1,7.9-1.1c9.9,0,29.8,1.1,30.7,1.2l5.6-1.8l-1.8,24.6
						h5.1l11.6-4.5L583.6,1172.4z M555.5,1161.1l16.7-1.9l-0.3-14.4H554l1.8-25.3c-7.1-0.4-19.3,0.2-25.4,0.2
						c-0.8,4.3-1.2,12.9-0.6,15c0.4,0.9,3.7,7,8.7,12.4c1.5,1.7,2.1,3.5,2.5,4.6c-0.3-0.2,0.1,0.2,2.4,0.4
						C549.9,1152.7,553.6,1157.1,555.5,1161.1z"/>
					<path class="st1" d="M574.2,1172.4l1-43.1l11.6,4.5h5.1l-1.8-24.6l5.6,0.7c0.8-0.1,20.8-0.7,30.7-0.7c4.7,0,6.3,0.5,7.8,1.4
						c5.9,3.5,5.9,24.4,4.2,28.6c-0.9,2.3-5,9.3-10.8,15.6c-1.6,4.8-4.2,7.7-12.1,8.5c-2.9,0.3-3.6,4.2-3.6,4.3l-0.7,4.7
						L574.2,1172.4z M585.9,1144.8l-0.3,14.4l16.7,0.9c1.9-4,5.6-7.8,12.1-8.4c2.2-0.2,2.8-0.3,2.8-0.3c-0.1-0.9,0.5-2.5,2-4.1
						c4.9-5.4,8.2-11.1,8.7-12.2c0.6-2,0.1-10-0.7-14.3c-6,0-18.2-1.6-25.4-1.2l1.8,25.3H585.9z"/>
				</g>
				<path class="st1" d="M553.3,1111.7h-11.2v-55.2h11.2V1111.7z M542.1,1111.7h11.2v-55.2h-11.2V1111.7z"/>
				<path class="st1" d="M633.3,1056.4H521.4v-11c0-14.1,25.2-25.3,56.1-25.3c29.6,0,55.7,10.2,55.7,23.5
					C633.3,1043.6,633.3,1056.4,633.3,1056.4z"/>
				<rect x="542.1" y="1056.4" class="st1" width="0" height="55.2"/>
				<polygon class="st1" points="575.1,1165.2 560.1,1164.6 532.2,1156.9 526.2,1129 528.5,1114.4 555,1114.4 568.9,1142.1 
					576.4,1143.9 				"/>
				<polygon class="st1" points="582.8,1165.8 597.8,1165.2 625.7,1157.5 631.8,1128.9 629.4,1113.7 602.9,1113.7 590.2,1140.2 
					587.4,1141.6 579.2,1149 				"/>
				<rect x="542.1" y="1056.4" class="st1" width="11.2" height="55.2"/>
				<rect x="603.7" y="1056" class="st1" width="11.2" height="55.2"/>
			</g>
			<g>
				<g>
					<path class="st1" d="M324.9,1107.5l-37.1-0.3l-0.7-4.7c-0.1-0.4-0.8-4-3.5-4.2c-7.9-0.7-10.5-3.6-11.9-7.8
						c-5.9-6.9-10.1-13.8-11-16.1c-1.7-4.2-1.7-24.9,4.2-28.4c1.5-0.9,3.1-1.1,7.9-1.1c9.8,0,29.8,1.1,30.7,1.2l5.6-1.8l-1.8,24.6
						h5.1l11.6-4.5L324.9,1107.5z M296.7,1096.2l16.7-1.9l-0.3-14.4h-17.9l1.8-25.3c-7.1-0.4-19.3,0.2-25.4,0.2
						c-0.8,4.3-1.2,12.9-0.6,15c0.4,1,3.7,7,8.7,12.4c1.5,1.7,2.1,3.5,2.5,4.6c-0.3-0.2,0.1,0.2,2.4,0.4
						C291.1,1087.8,294.9,1092.2,296.7,1096.2z"/>
					<path class="st1" d="M315.5,1107.5l1-43.1l11.6,4.5h5.1l-1.8-24.6l5.6,0.7c0.8-0.1,20.8-0.7,30.7-0.7c4.7,0,6.3,0.5,7.8,1.4
						c5.9,3.5,5.9,24.4,4.2,28.6c-0.9,2.3-5.1,9.3-10.8,15.6c-1.6,4.8-4.2,7.7-12.1,8.5c-2.9,0.3-3.6,4.2-3.6,4.3l-0.7,4.7
						L315.5,1107.5z M327.2,1079.9l-0.3,14.4l16.7,0.9c1.9-4,5.6-7.8,12.1-8.4c2.2-0.2,2.8-0.3,2.8-0.3c-0.1-0.9,0.5-2.5,2-4.1
						c4.9-5.4,8.2-11.1,8.7-12.2c0.6-2,0.1-10-0.7-14.3c-6,0-18.2-1.6-25.4-1.2l1.8,25.3H327.2z"/>
				</g>
				<path class="st1" d="M294.6,1046.8h-11.2v-55.2h11.2V1046.8z M283.4,1046.8h11.2v-55.2h-11.2V1046.8z"/>
				<path class="st1" d="M374.5,991.5H262.7v-11c0-14.1,25.2-25.3,56.1-25.3c29.6,0,55.7,10.2,55.7,23.5V991.5z"/>
				<rect x="283.4" y="991.5" class="st1" width="0" height="55.2"/>
				<polygon class="st1" points="316.4,1100.3 301.4,1099.7 273.5,1092 267.4,1064.1 269.8,1049.5 296.3,1049.5 310.2,1077.1 
					317.7,1079 				"/>
				<polygon class="st1" points="324.1,1100.9 339.1,1100.3 367,1092.6 373.1,1064 370.7,1048.8 344.2,1048.8 331.4,1075.3 
					328.6,1076.7 320.5,1084.1 				"/>
				<rect x="283.4" y="991.5" class="st1" width="11.2" height="55.2"/>
				<rect x="345" y="991.1" class="st1" width="11.2" height="55.2"/>
			</g>
			<g>
				<g>
					<path class="st1" d="M136.1,921L99,920.7l-0.7-4.7c-0.1-0.4-0.8-4-3.6-4.3c-7.9-0.7-10.5-3.6-11.9-7.8
						c-5.9-6.9-10.1-13.8-11-16.2c-1.7-4.2-1.7-24.9,4.2-28.4c1.5-0.9,3.1-1.1,7.9-1.1c9.8,0,29.8,1.1,30.7,1.2l5.6-1.7l-1.8,24.6
						h5.1l11.6-4.5L136.1,921z M108,909.8l16.7-1.9l-0.3-14.4h-17.9l1.8-25.3c-7.1-0.4-19.3,0.2-25.4,0.2c-0.8,4.3-1.2,12.9-0.6,15
						c0.4,1,3.7,7,8.7,12.4c1.5,1.7,2.1,3.5,2.5,4.6c-0.4-0.2,0.1,0.2,2.4,0.4C102.3,901.3,106.1,905.7,108,909.8z"/>
					<path class="st1" d="M126.7,921l1-43.1l11.6,4.5h5.1l-1.8-24.6l5.6,0.7c0.8-0.1,20.8-0.7,30.7-0.7c4.7,0,6.3,0.5,7.8,1.4
						c5.9,3.5,5.9,24.4,4.2,28.5c-0.9,2.3-5.1,9.3-10.8,15.6c-1.6,4.8-4.2,7.8-12.1,8.5c-2.9,0.3-3.6,4.2-3.6,4.3l-0.7,4.7
						L126.7,921z M138.4,893.5l-0.3,14.4l16.7,0.9c1.9-4,5.6-7.8,12.1-8.4c2.2-0.2,2.8-0.3,2.8-0.3c-0.1-0.9,0.5-2.5,2-4.1
						c4.9-5.4,8.2-11.1,8.7-12.2c0.6-2,0.1-10-0.7-14.4c-6,0.1-18.2-1.5-25.4-1.2l1.8,25.3H138.4z"/>
				</g>
				<path class="st1" d="M105.8,860.3H94.6v-55.2h11.2V860.3z M94.6,860.3h11.2v-55.2H94.6V860.3z"/>
				<path class="st1" d="M185.8,805.1H73.9v-11c0-14.1,25.2-25.3,56.1-25.3c29.6,0,55.7,10.2,55.7,23.5V805.1z"/>
				<rect x="94.6" y="805.1" class="st1" width="0" height="55.2"/>
				<polygon class="st1" points="127.6,913.8 112.6,913.3 84.7,905.6 78.6,877.7 81,863.1 107.5,863.1 121.4,890.7 128.9,892.5 				
					"/>
				<polygon class="st1" points="135.3,914.5 150.3,913.9 178.2,906.2 184.3,877.6 181.9,862.3 155.4,862.3 142.6,888.9 
					139.8,890.3 131.7,897.6 				"/>
				<rect x="94.6" y="805.1" class="st1" width="11.2" height="55.2"/>
				<rect x="156.2" y="804.6" class="st1" width="11.2" height="55.2"/>
			</g>
			<g>
				<g>
					<path class="st1" d="M66.2,662.8l-37.1-0.3l-0.7-4.7c-0.1-0.4-0.8-4-3.6-4.3c-7.9-0.7-10.5-3.6-11.9-7.8
						c-5.9-6.9-10-13.8-11-16.2c-1.7-4.2-1.7-24.9,4.1-28.4c1.5-0.9,3.1-1.1,7.9-1.1c9.8,0,29.8,1.2,30.6,1.2l5.6-1.7l-1.8,24.6h5.1
						l11.6-4.5L66.2,662.8z M38,651.5l16.7-1.9l-0.3-14.3H36.6l1.8-25.3c-7.1-0.4-19.3,0.2-25.4,0.2c-0.8,4.3-1.2,12.9-0.6,15
						c0.4,1,3.7,7,8.7,12.4c1.5,1.7,2.1,3.5,2.5,4.6c-0.4-0.2,0.1,0.2,2.4,0.4C32.4,643.1,36.1,647.5,38,651.5z"/>
					<path class="st1" d="M56.8,662.8l1-43.1l11.6,4.5h5.1l-1.8-24.6l5.6,0.7c0.8-0.1,20.8-0.7,30.7-0.7c4.7,0,6.3,0.5,7.8,1.4
						c5.9,3.5,5.9,24.4,4.2,28.5c-0.9,2.3-5.1,9.3-10.8,15.6c-1.6,4.8-4.2,7.7-12.1,8.5c-2.9,0.3-3.6,4.2-3.6,4.3l-0.7,4.7
						L56.8,662.8z M68.5,635.2l-0.3,14.3l16.7,0.9c1.9-4,5.6-7.8,12.1-8.4c2.2-0.2,2.8-0.3,2.8-0.3c-0.1-0.9,0.5-2.5,2-4.1
						c4.9-5.4,8.2-11.1,8.7-12.2c0.6-2,0.1-10-0.7-14.3c-6,0-18.2-1.5-25.4-1.2l1.8,25.3L68.5,635.2L68.5,635.2z"/>
				</g>
				<path class="st1" d="M35.8,602.1H24.7v-55.2h11.2V602.1z M24.7,602.1h11.2v-55.2H24.7V602.1z"/>
				<path class="st1" d="M115.8,546.8H3.9v-11c0-14.1,25.2-25.3,56.1-25.3c29.6,0,55.7,10.2,55.7,23.5
					C115.8,534.1,115.8,546.8,115.8,546.8z"/>
				<rect x="24.7" y="546.8" class="st1" width="0" height="55.2"/>
				<polygon class="st1" points="57.7,655.6 42.7,655 14.8,647.3 8.7,619.4 11,604.9 37.6,604.9 51.5,632.5 59,634.3 				"/>
				<polygon class="st1" points="65.4,656.2 80.3,655.6 108.3,647.9 114.3,619.3 112,604.1 85.4,604.1 72.7,630.6 69.9,632 
					61.7,639.4 				"/>
				<rect x="24.7" y="546.8" class="st1" width="11.2" height="55.2"/>
				<rect x="86.3" y="546.4" class="st1" width="11.2" height="55.2"/>
			</g>
			<g>
				<g>
					<path class="st1" d="M140,412.8l-37.1-0.3l-0.7-4.7c-0.1-0.4-0.8-4-3.6-4.2c-7.9-0.7-10.5-3.7-11.9-7.8
						c-5.9-6.9-10-13.8-11-16.1c-1.7-4.2-1.7-24.9,4.1-28.4c1.5-0.9,3.1-1.1,7.9-1.1c9.8,0,29.8,1.1,30.6,1.2l5.6-1.7l-1.8,24.6h5.1
						l11.6-4.5L140,412.8z M111.8,401.5l16.7-1.9l-0.3-14.3h-17.9l1.8-25.3c-7.1-0.4-19.3,0.2-25.4,0.1c-0.8,4.3-1.2,12.9-0.6,15
						c0.4,1,3.7,7,8.7,12.4c1.5,1.7,2.1,3.5,2.5,4.6c-0.4-0.2,0.1,0.2,2.4,0.4C106.2,393.1,110,397.5,111.8,401.5z"/>
					<path class="st1" d="M130.6,412.8l1-43.1l11.6,4.5h5.1l-1.8-24.6l5.6,0.7c0.8-0.1,20.8-0.7,30.6-0.7c4.7,0,6.3,0.5,7.8,1.3
						c5.9,3.5,5.9,24.4,4.2,28.6c-0.9,2.3-5.1,9.3-10.8,15.6c-1.6,4.8-4.2,7.7-12.1,8.5c-2.9,0.3-3.6,4.2-3.6,4.3l-0.7,4.7
						L130.6,412.8z M142.3,385.3l-0.3,14.3l16.7,0.9c1.9-4,5.6-7.8,12.1-8.4c2.2-0.2,2.8-0.3,2.8-0.3c-0.1-0.9,0.5-2.5,2-4.1
						c4.9-5.4,8.2-11.1,8.7-12.2c0.6-2,0.1-10-0.7-14.3c-6,0-18.2-1.6-25.4-1.2l1.8,25.3L142.3,385.3L142.3,385.3z"/>
				</g>
				<path class="st1" d="M109.7,352.1H98.5v-55.2h11.2V352.1z M98.5,352.1h11.2v-55.2H98.5V352.1z"/>
				<path class="st1" d="M189.6,296.9H77.8v-11c0-14.1,25.2-25.3,56.1-25.3c29.6,0,55.7,10.2,55.7,23.5V296.9z"/>
				<rect x="98.5" y="296.9" class="st1" width="0" height="55.2"/>
				<polygon class="st1" points="131.5,405.6 116.5,405.1 88.6,397.4 82.5,369.5 84.9,354.9 111.4,354.9 125.3,382.5 132.8,384.3 
									"/>
				<polygon class="st1" points="139.2,406.3 154.2,405.7 182.1,398 188.1,369.4 185.8,354.1 159.2,354.1 146.5,380.7 143.7,382 
					135.6,389.4 				"/>
				<rect x="98.5" y="296.9" class="st1" width="11.2" height="55.2"/>
				<rect x="160.1" y="296.4" class="st1" width="11.2" height="55.2"/>
			</g>
			<g>
				<g>
					<path class="st1" d="M326.6,223.9l-37.1-0.3l-0.7-4.7c-0.1-0.4-0.8-4-3.6-4.2c-7.9-0.7-10.5-3.7-11.9-7.8
						c-5.9-6.9-10-13.8-11-16.1c-1.7-4.2-1.7-24.9,4.2-28.4c1.5-0.9,3.1-1.1,7.9-1.1c9.9,0,29.8,1.1,30.7,1.2l5.6-1.7l-1.8,24.6h5.1
						l11.6-4.5L326.6,223.9z M298.4,212.6l16.7-1.9l-0.3-14.3H297l1.8-25.3c-7.1-0.4-19.3,0.2-25.4,0.1c-0.8,4.3-1.2,12.9-0.6,15
						c0.4,1,3.7,7,8.7,12.4c1.5,1.7,2.1,3.5,2.5,4.6c-0.4-0.2,0.1,0.2,2.4,0.4C292.8,204.2,296.6,208.6,298.4,212.6z"/>
					<path class="st1" d="M317.2,223.9l1-43.1l11.6,4.5h5.1l-1.8-24.6l5.6,0.7c0.8-0.1,20.8-0.7,30.7-0.7c4.7,0,6.3,0.5,7.8,1.4
						c5.9,3.5,5.9,24.4,4.2,28.5c-0.9,2.3-5.1,9.3-10.8,15.6c-1.6,4.8-4.2,7.7-12.1,8.5c-2.9,0.3-3.6,4.2-3.6,4.3l-0.7,4.7
						L317.2,223.9z M328.9,196.3l-0.3,14.3l16.7,0.9c1.9-4,5.6-7.8,12.1-8.4c2.2-0.2,2.8-0.3,2.8-0.3c-0.1-0.9,0.5-2.5,2-4.1
						c4.9-5.4,8.2-11.1,8.7-12.2c0.6-2,0.1-10-0.7-14.3c-6,0-18.2-1.5-25.4-1.2l1.8,25.3L328.9,196.3L328.9,196.3z"/>
				</g>
				<path class="st1" d="M296.2,163.2h-11.2V108h11.2V163.2z M285.1,163.2h11.2V108h-11.2V163.2z"/>
				<path class="st1" d="M376.2,108H264.4V97c0-14.1,25.2-25.3,56.1-25.3c29.6,0,55.8,10.2,55.8,23.5V108z"/>
				<rect x="285.1" y="108" class="st1" width="0" height="55.2"/>
				<polygon class="st1" points="318.1,216.7 303.1,216.2 275.2,208.4 269.1,180.5 271.4,166 298,166 311.9,193.6 319.4,195.4 				
					"/>
				<polygon class="st1" points="325.8,217.3 340.7,216.8 368.7,209 374.7,180.4 372.4,165.2 345.8,165.2 333.1,191.7 330.3,193.1 
					322.2,200.5 				"/>
				<rect x="285.1" y="108" class="st1" width="11.2" height="55.2"/>
				<rect x="346.7" y="107.5" class="st1" width="11.2" height="55.2"/>
			</g>
		</g>
		
			<rect x="110.2" y="852.4" transform="matrix(0.3065 -0.9519 0.9519 0.3065 -496.251 1036.7363)" class="st1" width="706.4" height="13"/>
		
			<rect x="677" y="505.1" transform="matrix(0.9517 -0.307 0.307 0.9517 -230.4847 251.2832)" class="st1" width="13" height="706.4"/>
		<polygon class="st1" points="216.2,1239.1 216.2,1239.1 241.2,1191.8 914.1,1191.8 940.4,1239.1 940.4,1239.1 		"/>
	</g>
</g>
</svg>
