<?xml version="1.0" encoding="utf-8"?>
<!-- Generator: Adobe Illustrator 23.0.1, SVG Export Plug-In . SVG Version: 6.00 Build 0)  -->
<svg version="1.1" id="Layer_1" xmlns="http://www.w3.org/2000/svg" xmlns:xlink="http://www.w3.org/1999/xlink" x="0px" y="0px"
	 viewBox="0 0 1007.2 638.2" style="enable-background:new 0 0 1007.2 638.2;" xml:space="preserve">
<style type="text/css">
	.st0{fill:#FFFFFF;}
</style>
<polygon class="st0" points="970.4,219.2 969.4,221.2 967.1,221.5 968.7,223.2 968.4,225.4 970.4,224.4 972.4,225.4 972.1,223.2 
	973.7,221.5 971.4,221.2 "/>
<polygon class="st0" points="714.5,469.1 713.4,471.1 711.2,471.5 712.8,473.1 712.5,475.3 714.5,474.3 716.5,475.3 716.2,473.1 
	717.8,471.5 715.5,471.1 "/>
<polygon class="st0" points="1002.9,507.5 1001.8,509.5 999.6,509.8 1001.2,511.5 1000.8,513.7 1002.9,512.7 1004.9,513.7 
	1004.5,511.5 1006.2,509.8 1003.9,509.5 "/>
<polygon class="st0" points="821.4,53.6 820.3,55.6 818.1,56 819.7,57.6 819.3,59.8 821.4,58.8 823.4,59.8 823,57.6 824.6,56 
	822.4,55.6 "/>
<polygon class="st0" points="980.6,17.3 979.9,18.6 978.4,18.8 979.4,19.9 979.2,21.4 980.6,20.7 981.9,21.4 981.7,19.9 982.7,18.8 
	981.2,18.6 "/>
<polygon class="st0" points="625.9,1 625.2,2.3 623.7,2.6 624.8,3.7 624.6,5.2 625.9,4.5 627.3,5.2 627,3.7 628.1,2.6 626.6,2.3 "/>
<polygon class="st0" points="912.6,443.6 911.9,445 910.4,445.2 911.5,446.3 911.3,447.8 912.6,447.1 914,447.8 913.7,446.3 
	914.8,445.2 913.3,445 "/>
<polygon class="st0" points="353.5,87.9 352.9,89.2 351.4,89.4 352.4,90.5 352.2,92 353.5,91.3 354.9,92 354.7,90.5 355.7,89.4 
	354.2,89.2 "/>
<polygon class="st0" points="830,633 829.4,634.3 827.9,634.6 828.9,635.7 828.7,637.1 830,636.5 831.4,637.1 831.2,635.7 
	832.2,634.6 830.7,634.3 "/>
<polygon class="st0" points="822.2,298.7 821.5,300.1 820,300.3 821.1,301.4 820.9,302.9 822.2,302.2 823.6,302.9 823.3,301.4 
	824.4,300.3 822.9,300.1 "/>
<polygon class="st0" points="3.2,3.6 2.5,4.9 1,5.2 2.1,6.2 1.8,7.7 3.2,7 4.5,7.7 4.3,6.2 5.4,5.2 3.9,4.9 "/>
<polygon class="st0" points="218,11 216.9,13 214.7,13.4 216.3,15 215.9,17.3 218,16.2 220,17.3 219.7,15 221.3,13.4 219,13 "/>
<polygon class="st0" points="24.5,384 23.5,386 21.2,386.4 22.9,388 22.5,390.2 24.5,389.2 26.6,390.2 26.2,388 27.8,386.4 
	25.6,386 "/>
<polygon class="st0" points="523,65.4 522,67.4 519.7,67.8 521.3,69.4 521,71.6 523,70.6 525,71.6 524.7,69.4 526.3,67.8 524,67.4 
	"/>
</svg>
