<svg enable-background="new 0 0 2250.5 2904.3" viewBox="0 0 2250.5 2904.3" xmlns="http://www.w3.org/2000/svg"><path d="m1891.5 876.3c-1.7-7.2-5.8-16.6-11.9-23.1-3.8-4-6.4-.5-7.3 2.7-6.4 20.6-17.5 39.2-25.4 59.1-.9 2.3-2.8 5-.9 7.3 2.1 2.5 4.8.5 7.2-.2 3.6-1 7-2.3 10.6-3.4 18.3-6.1 32.1-24.1 27.7-42.4m-482.6 761.7c-2.5 1.4-3.1 4.1-3 6.8.6 14.7 5 28.4 10.3 41.9 1.8 4.5 4.3 4.5 7 .3 16.4-25.3 29.7-52.1 39.6-80.6.3-.9.1-2.1.2-4.8-18.1 13.6-35.3 26.2-54.1 36.4m441.8-641.2c4.3 1.7 10.2 3.3 9.4 9.4-.7 5.3-6.5 5.4-10.5 6.8-7.9 2.8-15.9 3.6-23.7-.7-2.6-1.4-5.5-3.2-8 0-1.9 2.5-2.8 5.5-1 8.3 1.8 2.7 3.7 5.8 7.8 5 1.8-.3 3.5-1.1 5.4-1.4 2.3-.4 4.5-.1 5.8 2.2 1.1 2 .1 3.8-1.4 4.9-8.4 6.2-3.6 11.4 1.2 16.4 4.3 4.4 6.9 12.7 13.6 11.7 6.2-1 6-9.4 8.1-14.8 8-20.1 12.6-41 15.8-62.4.6-4.1.5-6.3-4.7-6-12.5.7-25-.5-39-4.4 5.2 11.8 10.3 20.6 21.2 25m-132.4 1778.1c-9.6 7.4-15.5 17.5-17.9 28.7-4.6 21.3-6 42.9-.4 64.5 1.8 6.8 3.4 8.8 10.3 4.5 9.2-5.7 18.9-9 26.1-18.9 9.6-13.3 13.6-27.1 12.7-42.5-.5-9.2 2.8-18.5-.8-26.9-5-15-17.9-18.7-30-9.4m-63.4-1442.9c53.4-57.4 101.9-118.8 147.8-182.3 11.1-15.3 20.2-32 30.4-47.9 3.7-5.9 4.2-10.9.5-17.4-6.4-11.2-13.6-22.2-16.2-35.3-1.1-5.4-2.7-3.7-7.4-2.3-16.5 5.2-17.1 20.5-23.4 32.4-15.3 28.4-30.9 56.6-46.8 84.8-25.7 45.5-53.3 90-81.7 133.9-21.4 33-45.2 64.3-67.9 96.5-1.5 2.2-4.4 3.9-4 7.8 24.2-22.7 46.5-46.4 68.7-70.2m-1156.7-45.9c1.4 6.6 5.8 2.7 7.8-.4 5.2-8.1 10.3-16.3 14.9-24.8 12.6-23.6 27.9-45.5 39.1-69.8 13-28.3 26.6-56.3 35.3-86.3 2-6.9 2.3-14.5-2.7-19.8-21.7-23.1-38-50.3-58.2-74.5-3.3-4-6.6-6.8-12.1-6.3-67.6 6.6-131.9-9.1-196.6-28.7 11.4 5.5 11.3 14.2 8.2 23.9-2.5 7.5-8.4 3.2-13.9 4.2 19.3 5 15.7 23.3 20.8 35.5 16.3 39.5 35.4 77.5 53.7 116 12.6 26.5 26.5 52.2 41 77.6 11.6 20.3 29.3 36 42.8 55.3-3-12.6 2.8-26.6-8.7-37.5-5.7-5.4 6.7-7 4.6-12.6-1.6-4.2-11.1.8-9.1-7.7.5-2.2.3-5.3 1.7-6.3 8.1-6.1 16.5-11.9 25-17.5 1.8-1.2 4.4-.5 5.9 1.6 1.3 1.9.3 3.7-.9 5.1-5.6 6.2-4.5 10 3.6 12.3 1.5.4 3 2.4 3.7 3.9 2.3 5 5.8 10.4.3 15.2-5.3 4.6-8.5-1.2-14.3-5.9.6 18.2 5 32.8 8.1 47.5m593.5 285.7c-38.1-27-75-55.6-110.3-86.3-49.3-42.8-98.4-85.8-144-132.7-54.5-56.1-112.2-109.2-161.1-170.7-8.7-11-19.1-20.7-28.4-31.3-5.3-6.1-7.8-3.4-9.8 2.4-11.4 31.9-26.6 62.2-43.4 91.4-18.4 32-35.4 65.3-61.4 92.4-2.1 2.2-6.3 5.3-.1 7.1 27.5 8.2 44.7 31.1 67.2 46.5 37.6 25.8 71.8 56.5 111 80.1 1.3.8 2.5 2 3.9 2.2 33.6 5.2 54.5 33.2 83.8 46.4 55.1 24.7 108.8 52.5 167.7 68.3 34.4 9.2 67.8 22.1 102.4 30.6 34.8 8.5 69.7 17.7 105.9 18.5 1.8 0 3.5-.3 8.2-.7-32.2-22.5-62-43.3-91.6-64.2m96.7-874.1c1.9 2.5 2 7.4 6.5 6.4 4.7-1 7.4-4.7 8.8-9.2 2.1-6.7 4.1-13.5 6.4-20.2 1.6-4.5 4-8.3 8-1.9 3.5 5.6 5.5 2.3 8.3-.5 4.2-4.2 8.7-12.7 14.7-7.9 5 4-.7 11.5-3.7 16.9-2.1 3.7-5.9 6.5-3 11.9 1.9 3.6-1.9 5.1-4.6 6.2-3.8 1.5-7.7 2.7-11.6 3.9-6.7 2-9.2 4.2-2 9.7 7.8 6.1 8.3 14.5 2.2 19.8-3.5 3-7.1 4.4-7.1-2.3.1-8.8-5-10-11.7-8.8-7.7 1.4-9.4 5.9-6 13 1.6 3.4.6 7.3-1.1 10.8-1 2.1-2.4 4-5 3.5-2.1-.4-2.3-2.5-2.9-4.2-4.5-11.9-5.9-12.4-17.5-6.2-19.8 10.7-19.8 10.7-14.3 32.8 10.4 41.8 22.3 83.2 30.6 125.3 9.3 46.9 21.2 93.2 29.1 140.4 7.1 42.7 18.8 84.7 28.3 127 8.4 37.6 21.8 73.9 27.9 112.1.3 1.8.4 4.4 1.5 5.2 14.3 10.7 9.9 27 13 41.2 5.4 24.6 12.8 48.7 19.7 72.9 9.7 34.3 19.3 68.6 30.5 102.4 3.5 10.5 6.9 21.1 11.3 34.5 5.4-17.3 4.9-32.4 7.2-47.1 9.7-63 8.6-126.5 10.2-189.9.5-20.8-1-41.5-1.2-62.3-.4-57.1-.9-114.2-.8-171.3.1-51.6-2.9-103.1-5-154.6-.7-18 .4-36.5-9.9-52.9-2.1-3.4-3.3-8.1-1.8-11.9 8.3-20.9-.9-40.8-3.1-61.1-.9-8.1-3.4-16.1-3.6-24.2-.6-20.5-11.4-37-22.6-52.1-21.2-28.5-46.7-53.8-65.6-84.2-3.5-5.7-7.2-11.2-11-16.7-3.8-5.4-6.9-11.1-15.1-11.7-5.4-.3-5.8-7.2-9.4-10.3-2.5-2.1-4.7-7.3-8.7-2.4-2.9 3.5-5 8.1.8 11.2 9.4 5 11.6 14 13.2 23.2.6 3.3 1.5 7.2-2.8 8.5-3.7 1-4.7-2.8-6.2-5.2-.2-.3-.4-.7-.5-1-2-5.7-5.3-10.4-12-8.9-4.1.9-5.1 15.4-1.8 19.9 9.8 13.4 10.6 19.7 3.7 30-2.2 3.3-4.8 8.1-9.3 6.6-5.6-1.9-.8-6.2-.6-9.4.2-2.9 1.6-6.9-1.8-7.9-4-1.2-4.5 3.6-5 5.9-3.6 16.1-16.2 28.4-18.5 44.9-4.3 9.4-8.5 18.7-13.3 29.2 10.2-2 19.3-6.6 27-12.7 4.9-3.9 3.1-9.8-4-11.2-4-.8-8.3-.3-9.8-5.4 10.3-8.9 18-8.9 25 .3m974.6 156.2c-.5-1.9-1.5-4.6.8-6.2 3.8-2.7 4.2-3.3 1.3-6.4-1.8-1.9-3.9-3.3-6-4.9-3.4-2.5-6.3-6.9-11.6-3.2-4.4 3.1-4.6 7.1-3.8 11.8.7 4.5.7 9.1 7.1 9.4 2.2.1 6.3-.9 5.4 3.4-.7 3.7-4.3 5.3-7.8 4.8-5.7-.8-10.8-3.8-14.2-8.1-5.3-6.8-9.4-4.9-16-1.4-17.1 9.2-32.3 21-48.4 31.5-41.2 26.9-86.7 45.5-131.1 65.9-7.8 3.6-11.8 8.1-12.8 16.2-3.3 25.4-9 50.4-16.3 74.9-1.7 5.6-3.4 9.5 5.6 11 6.5 1.1 9.6 8.6 11 15.5 4.1 19.4.9 22.5-18.6 19.8-5.9-.8-11.7 2.7-15.6 7.3-4.4 5.2 1.8 7.6 4.2 10.8 4.8 6.7 10.7 12.2 16.8 17.7 7.8 6.8 13.7 8 19-2.5 1.5-2.8 3.3-7.9 8-5.8 4 1.8 3 6.5 2.5 10.1-1 5.8-.9 10.4 6.9 10.7 2.5.1 6.6 2.6 4.8 4.4-4.4 4.2-10 13.1-11.5 12.8-7.9-1.4-7.3 4-9.2 8.1-1.7 3.7-4.3 7-7.9 9.2-2.8 1.7-6.5 4.1-9.3 1.8-3.7-3.2.7-5.8 2.2-8.5 6.9-12.6 4.4-19.9-8.8-25.3-7.2-3-14.6-5.6-21.4-9.4-7.3-4.1-10.8-2.5-14.6 4.9-18.5 36.1-41.8 69.2-67.2 100.6-22.2 27.3-44 54.9-67.5 81.2-32.3 36.2-63 74-95.6 110-29.7 32.8-62.5 62.4-93.6 93.7-4.4 4.5-9.1 8.6-10.9 15.1-7.7 29-15.2 58.1-25.8 86.3-16.3 43.5-33.8 86.5-63.9 122.7-6.3 7.5-8.1 14.5-4.7 23.3 5.8 14.9 8.2 31.1 10 46.4 2.9 24.8 8.9 48.7 14.2 72.9 3.8 17.5 10.1 34.1 15.8 50.9 9 26.7 19.1 52.9 33.2 77.4 3.8 6.5 7.5 6.5 13.4 2.6 19.5-13.1 36.8-28.9 54.3-44.3 69.4-61.1 126.8-133.3 186.2-203.5 33.8-40 64.3-82.5 93.2-126.1 32-48.3 62.1-97.7 86.7-150.3 5.2-11 9.7-22.5 18.8-31.3 12.1-11.6 9.4-27.7-5.8-35.1-3.4-1.7-7.6-2.7-6.1-7.6 1.4-4.7 5.8-5.4 10-5.4 4.3 0 7.7 2.3 11 4.8 1.9 1.5 4.3 4.8 6.5 2.4 11.3-12.5 10-.1 11.5 5.8 1.3 5.1 3.5 5 6.9 2.1 5-4.2 2.8-7.5-1.2-10.8-1.9-1.6-4.3-3.8-2.2-6.6 2.2-2.9 5.3-2.1 8.1-.9 4.5 1.9 6.3 7.7 11.4 8.6 7.4 1.3 7.9 5.2 5.4 11.2-2.2 5.1.9 11.3-2.8 16.1-.4.6-2.5.7-2.9.3-10-10.6-11.4 2.2-15.8 6-1.8 1.5-3.5 4.5-1.7 7 1.9 2.6 4.9 1 7.2 0 24-9.8 49.3-13.2 74.9-15.8 18.1-1.9 21.3-6.7 19.4-24.7-.2-2.2-1.2-4.7 1-6.2 2.7-1.8 4.9.1 7 1.7 2.9 2.2 4 5.4 3.7 8.9-.5 6.7.3 12.2 7.6 15.5 4.1 1.9 4.3 7.2.4 9.1-9.7 4.8-11.6 13.5-14.1 22.5-1.7 6.1-7 12-13 8.7-5.8-3.3 1.1-8 3.1-11.8 1.6-3 3.7-5.9 1.4-9.2-2-3-5.2-2-8.2-1.7-27.2 3.1-53 11.1-77.3 23.6-4.6 2.4-9.1 4.9-10.8 10.6-9.5 32.2-24.7 61.9-41.9 90.6-13.7 22.8-26.9 45.9-41 68.5-9.2 14.8-20.3 28.4-29.4 43.2-27.4 44.6-56.6 88-89.2 128.9-25.9 32.5-52.8 64.2-79.8 95.7-20.8 24.2-41.6 48.5-63.9 71.3-32.8 33.4-68 64.2-107.9 89-5 3.1-6 6.6-4.4 12.1 11.7 41.4 28.1 81.3 41 122.3 6.4 20.5 15.3 40.2 23.3 60.2 20.4 51 35.2 103.9 53 155.8 1.4 4.2 2.1 8.6 3.2 13 6.5 25.5 12.2 51.1 20.8 76.1 7.8 22.5 19 43.7 24.2 66.9 9.3 41.3 24.9 80.7 35.7 121.6 5.7 21.5 13 42.4 14.1 65 2.2 41.7-3.3 80.2-39.5 107.6-2.6 2-4.8 4.7-6.6 7.5-3.8 6.1-8.5 6.1-14.3 3.2-9.5-4.6-13.5-13.1-17.1-22.4-12-30.9-17.8-63.6-27.4-95.2-7.5-24.8-12.3-50.4-19-75.5-3.7-13.9-6.3-28.5-14.3-40.8-11.4-17.5-17.1-36-13-57 1.5-7.8.4-15.8-2.1-23.1-11.1-32.3-21.4-64.9-30-98-1.8-6.9-4.8-13.4-11.2-17.4-11.7-7.3-22.4-15.9-32.5-25.2-37.7-34.5-78.3-65.7-109.5-107.1-27.9-37-58.7-71.9-80.5-113.1-17.3-32.8-39.4-62.9-54.2-97.2-3.7-8.6-4.8-17.1-2.2-26 3.4-11.7 11.3-15 22.2-9.8 7 3.3 12 8.7 15.7 15.3 14.1 24.9 30.7 48.2 46.5 72 17 25.6 34.1 51.3 52 76.3 26.3 36.5 58.6 68 86.8 103 8.6 10.7 19.2 20.2 35.6 26.3-6.2-14.3-12.1-25.8-16.4-37.8-23.5-66.1-46.9-132.2-69.5-198.6-7.9-23.1-15.8-45.5-35.6-61.7-7.9-6.4-10.5-15.9-9.8-26.1 1.2-16.8.5-17.5-15.9-21.9-22.6-5.9-45.1-11.9-67.5-18.6-58.2-17.5-115.6-36.4-171.5-60.8-32-14-63.3-28.8-94.3-44.8-77.8-40.4-150.5-88.1-216.9-145.2-16.5-14.2-34.3-27.2-47.5-45.1-7.7-10.3-1.3-18.2 3.5-26.4 4.4-7.5 11-4.2 16.9-2.2 12 4.2 22.7 11 33.1 18.2 57.8 39.6 114.1 81.4 174.5 117.2 44.4 26.3 89.8 50.6 137.4 70.8 33.5 14.3 68.1 25.2 102.8 36.2 35.7 11.4 70.9 24.2 107.9 31.4 14.2 2.8 14.4 2.2 11.1-12.3-6.8-30-18.8-58.7-21.9-89.6-2-19.6-6.3-38.8-12.1-57.7-10.6-34.9-23.2-68.9-38-102.2-2.7-6.1-6.2-6.3-11.4-4.9-13 3.5-26.4 4.5-39.7 5.1-50.7 2.2-100.7-3.8-150.5-13.2-18.2-3.4-36.3-7.7-55-2.1-8.6 2.6-16.3.2-20.5-8.8-2.1-4.5-5.6-6.5-10.4-7.2-44.7-6-85.6-24.4-126.8-40.8-63.6-25.3-123-59-182.8-92.1-78-43.2-153-90.8-220.5-149.4-4.5-3.9-8.6-5.1-14-2.2-23.8 12.8-50.1 18.2-75.6 25.7-9.9 2.9-20.3 4.5-30.6 5.5-48.7 5.1-97.1 3.2-145-7.2-4.9-1.1-9.8 2.5-13.9-.6-11-8-24.5-10.3-36.5-15.7-13.5-6.1-27.9-10.5-38.5-21.6-9.8-10.2-13.2-21.2-9-28.9 3.8-7 17-10.5 29.6-6.4 41.5 13.6 83.9 21.7 127.4 24.3 40.6 2.4 80.8 0 120.4-9.6 4.1-1 8.3-3.9 3.5-7.3-7.8-5.4-5.8-15-11-21.2-1.4-1.7-2-4.2-.2-6.1 1.8-2 4.3-1.5 6.2-.4 8.9 5 22.8-1.1 26.5 14.4 2.6-3.8 1.3-4.9.4-6-10.1-12.8-21-25.1-30.2-38.5-29-42.6-57.7-85.6-79.3-132.6-16.3-35.4-31.9-71.1-46.5-107.1-4-10-9.5-16.9-18.4-21.7-10.4-5.6-13.4-17.3-6.4-26.8 1.6-2.2 2.3-4.2 2.8-6.9 1.9-12.3 7.9-17.3 20.4-17.6 4.5-.1 8.6-2 9.8-6 1.2-4.2-3.8-4.9-6.5-6.2-10-4.9-20.4-9-30.2-14.2-42.5-22.8-85.8-44.2-122.8-76-28.7-24.6-60.2-46.3-77.1-82-2.7-5.7-7.1-6.9-13-4.8-3.6 1.2-8.5 4.7-10.9-.2-2.3-4.7.6-10.7 5.2-12.1 10.3-3.2 8.2-8.6 5-15.8-1.3-3-2.7-5.9-4.5-8.7-4.3-6.8.9-10.2 5.6-13.4 5.4-3.7 8.6-1.4 11.4 3.9 4.5 8.5 8.2 17.3 11.8 26.5.6-6.3 2.1-12.3 3.9-18.1 1-3.1 1.9-7 5.9-7.2 4.3-.1 6.6 3.4 7.8 6.9 1.6 4.7-.2 9.5-.9 14.3-.4 3.1-2.8 7.1 1.3 9 18.7 8.8 30.5 25.6 45.6 38.6 30.9 26.7 64.8 49.6 98.8 72 57.8 38.1 121.6 61.6 190.4 70.8 20.6 2.8 41.2 5.4 62.1 4 6.8-.5 9.1-2.9 4.8-8.9-6.8-9.5-10.8-20.3-13.9-31.4-1.5-5.7-4.7-9-10.5-10.1-32.1-5.9-61.2-19.9-90.6-33.2-3.1-1.4-6.4-4-10.6-1.9.5 4.5 1.1 8.9 1.6 13.3.3 3.6 1.9 8.3-2.6 9.8-5.2 1.7-5.4-3.8-6.9-6.9-13-26.8-36.7-40.2-62.9-50.5-2.6-1-5.4-1.1-7.3.9-2.5 2.7.5 4.6 1.8 6.7 3.4 5.3 6.9 10.5 10.2 15.9 1.2 1.9 1.6 4.3-.2 6.2-1.9 2-4.3 1.6-5.8-.3-6.6-8.4-16.8-12.1-24.6-19-7.1-6.4-10.6-14-4.2-22.5 3.6-4.8 2.1-6.4-1.8-9.3-13.3-10.2-28.8-17-41.5-27.9-4.5-3.8-9.2-3.3-14.2.4-8.8 6.5-19 5.2-28.9 3.9-2.2-.3-4.6-1.3-5.2-3.7-.6-2.8 2.1-3.5 4-4.6 7.4-4.4 14.8-8.8 22.9-13.7-7.3-4.8-13.6-8.7-19.6-13-2.7-1.9-5.8-4.4-3.9-8.2 1.6-3.4 5.2-2.4 8-2 7 1.2 13.9 2.8 22 4.5-3.7-9.7-6.9-18-10.1-26.3-.8-2-2.4-4.4.2-5.8 1.2-.6 3.6.2 5.1 1.1 14.4 8.3 23.5 19.8 24.1 37.3.7 18.6 4.9 23.4 23.9 29.4-.7-4.3-.7-8.3.7-12.2s2.7-8.3 7.6-8.5 5.4 4.4 6.5 7.8c1.5 4.6 3.3 9.2 3.7 14 .7 8.8 5.3 14.2 12.8 18 14.9 7.5 30 14.3 45.7 20.2 43.2 16.1 87.9 27 131.9 40.6 12.3 3.8 16.6.8 15.4-10.5-3-28.4-8.5-56.5-7.3-85.3.2-6.3-2.5-12.9-11.2-12.1-4 .4-7.6.6-8.9-4.2-1.2-4.2.6-7.9 3.9-9.6 7-3.6 10.3-9.2 11.5-16.6.3-2.2 1.2-4.5 4.1-4.5 2.2 0 3.5 1.7 3.9 3.5 1.8 7.5 6.7 9.6 13.9 9.6 3.8 0 6.6 3.4 6.9 7.6.2 3.1-1.7 5-4.6 5.3-5.7.5-7.9 3.7-7.2 9 .9 5.8.8 13 7.5 14.9s12 5.2 16.6 10.8c3.2-6.8 3.9-13 4.6-19.2 4.3-42.8 9.3-85.6 12.5-128.5 4.3-57 4.1-114.1 3.6-171.3-.3-39.7-11-79.7 2.4-119.3 3.2-9.6-6.7-18.8-16.3-17-7.4 1.4-11.9-.9-11.5-8.9.2-4.5.1-8.2-4.7-10-2.5-.9-5.6-2.3-3.7-5.4 2.8-4.6 3.5-10.9 9.7-12.9 3.5-1.1 5.8.6 7.2 3.6 2.4 5.2 6.5 6.6 11.8 6.1 3.4-.4 7.3.3 8.9 3.3 2.5 4.6 4.3 4.1 8 1.1 4-3.2 9.3-3.7 13.1.7 3.2 3.9 9.1 7.7 3 14.1-2.6 2.8-2.1 7.2 1.2 8.7 4.4 2 7.2-1.7 7.4-5.6.3-6.4 4.2-9 9.3-11 6.2-2.4 10.4-6.9 12.8-13.1 1.5-3.9 3.9-6.3 8.6-4.4 10.1 4 12.8 15.5 5.2 23-3.9 3.9-8.8 7.1-9.8 13.1-1 5.6-4.4 7.8-9.9 8.6-8.5 1.2-12.3 6.2-10 15 7.3 28.2 8.8 57.1 10.2 86.1.1 3.3-.4 7.7 1.4 9.7 9.5 10.4 4.6 21.7 2.7 32.8-1.2 6.9-4.5 13.5-4.2 20.7 2 42.2 1.1 84.5.5 126.8-.6 44.9-3 89.7-7.7 134.4-4 38.2-11.1 75.8-30.2 109.8-4.6 8.2-4.7 15-1.1 23 20.5 45.6 53.4 82.7 83.9 121.5 3.7 4.7 6.5 4.5 8.6-1.2 2.5-7 5-14 7.3-21 5.5-16.6 11.3-33.1 22.1-47.1 5.4-7 13.2-10.1 21.7-8.9s11.3 8.7 13.8 15.9c1.7 5 1.9 10.1 1.4 15.4-3.4 32-13.6 62.3-23.8 92.6-4 11.8-2 20.6 6.2 29.2 11.5 12.1 23.1 24.2 33.5 37.2 28.9 35.8 58.5 70.7 91.2 103.3 56.3 56.1 116.5 107.9 173.3 163.4 43.1 42.1 88.7 81.2 138.5 115.3 37 25.4 73.3 51.8 112.9 73.1 6.3 3.4 12.5 7 18.7 10.6.5-.9.9-1.8 1.4-2.7-7.2-6.8-14.4-13.6-21.7-20.4-43.2-40.6-80.1-86.2-113.9-134.9-24.7-35.6-43.3-76.6-81-102.1-2.8-1.9-5.6-5.5-3-8.5 6.1-7.2 1.2-12.2-2.5-17.6-22.4-32.4-42.3-66.4-59.3-101.9-32.2-67.3-71.4-131-104.2-198-2.3-4.8-5.8-7-11-8.1-19-4.1-29.1-16.9-28.4-36.4.2-5.7-1.8-6.9-6.5-7.8-23.3-5-45.8-12.2-67.9-21-16.2-6.4-32.3-13.1-48.4-20.1 4.7 6.2 9.9 11.4 15.1 16.6 1.7 1.8 4.9 3.4 2.8 6.3-1.7 2.5-4.7 1.3-7.2.6-19.6-5.1-33.4-18.1-39.2-36.3-3.5-10.9-11.7-13.3-18.3-19-1.4-1.2-3.3-2.2-4.9-.4-1.4 1.5-1.2 3.6-.3 5.2 1 1.9 2.1 4.2 3.7 5.4 10.9 8.2 15.8 20.2 21.6 31.8 2.6 5.3.1 7.7-2.9 10.3-4.1 3.5-5.5-.7-7.7-3.1-6.4-7.2-12.8-14.5-19.6-21.3-11.3-11.3-13.3-18.8-6.7-33.6 4.2-9.4-4.8-11-8.6-15.7-3.4-4.2-7.5-4.6-11.3-.1-1.9 2.2-3.5 5.7-7 3.3-3.6-2.5-3.8-6.9-1.9-10.1 5.1-8.7 5.3-16.6-1.3-24.5-1.4-1.6-2-4.2 0-6.1 1.5-1.5 3.8-1.3 5.1-.1 7.4 6.4 12.7 5 19.1-2.4 4.4-5.1 11.2-2.2 15.9 2.2 4.2 4.1.4 6.5-2.4 8.9-2.7 2.3-7.2 3.6-6.3 8.3 1.1 5.4 6.2 4.6 10 5 18.5 2.3 33 9.7 41.1 27.9 3.4 7.7 6.8 15.7 17 18.9 31.8 10.2 63.3 21.3 96.4 27.1 9 1.6 18.1 2.5 30 4.2-12.6-17.8-23.3-33.2-34.3-48.5-1.6-2.3-3.2-6-6.5-5.3-3.8.8-3.7 5.1-4.7 8.2-.5 1.7-.2 3.7-.4 5.5-.3 3.6.7 8.3-4.6 8.5-4.3.2-6-3.8-7.2-7.4-3.4-10.3-4.5-20.3 3.1-29.5 4.9-6-.4-9.5-3.8-13.1-2.8-3-5.1-3.9-9.1 0-6.4 6.3-8.1 0-8.1-4.9-.1-8.9.2-17.7-6.5-24.9-1.7-1.8-2.2-5.1.3-7.1 3-2.5 5.5-.5 7.9 1.5s4.3 5.9 8 1.7c2.2-2.5 4.2-6 8.1-4 4.4 2.2 1.1 5.8 1 8.9-.2 8.4 6.3 16.7 11.4 14.7 14.3-5.6 23.2-2 29.2 11.8 1.2 2.8 2.5 5.9-.4 8.1-2.6 2-4.7-.3-6.9-1.9-3-2.2-5.1-6.7-11.7-4.4 15.1 22.6 31.1 43.6 49.7 62.7 4.4 4.5 5.6 0 6.9-2.8 12.8-28.7 21.2-58.6 24.5-89.9 1-9-2.6-11.2-11.3-8-2.4.9-4.6 2.9-6.9.2-1.9-2.2-1.6-5-.6-7.4 3.2-7.4 8.4-12.4 16.9-12 7.1.3 8-3.8 7.7-9.2-.3-5.1-2.5-9.3-6.7-12.3-2.7-2-4.8-5.9-1.2-6.9 8.5-2.4 6.6-8.7 6.6-14.2.1-9.4 12.3-1.1 13.3-9.5.3-2.3 2.3-6.2 6.2-5 3.4 1 3.7 4.6 3.4 7.5-.6 6.3.9 10.4 7.9 12.4 5.6 1.5 4.5 5.8 1.7 9.7-3.8 5.3-9.5 8.2-14.3 12.2-3.1 2.5-4.6 6.2-3.4 10 1.3 4.1 5 1.8 7.7 1.8 10.3.3 16.4 6 19.3 15.5.9 2.8 2.3 6.4-.6 8.3-3.5 2.3-4.9-1.9-6.8-3.8-8.3-8.7-17.1-7-21 4-2.4 6.9.6 12.1 4.7 17.3 10 12.6 11.5 26.9 7.5 42-.9 3.3-1 9.2-5.4 8.4-4.8-.8-2-6.1-2-9.5 0-8.6 1.3-17.4-5.7-26.4-6.2 22.7-7.5 44.6-14.3 65.4-1.9 5.7 3 4.8 6.1 3.5 7.2-2.9 14.3-6.2 21.5-9.1 5.9-2.3 12.3-3.8 16.7-8.6 4.9-5.3 2.4-12.3 2.2-18.8 6.5.1 9.5 3.7 11.9 8.1 2.8 5.2 5.2 4.2 7.9-.1 3.3-5.3 6.6-10.8 10.3-15.8 2.8-3.9 6.7-5.9 8.9.5 2.5 7.4 6.4 4.4 10.1 1.8 2.4-1.7 4.2-4.2 6.4-6.2 2.5-2.4 5.5-4.7 8.7-1.7 2.7 2.5.9 5.6-.5 8.2-1.7 2.9-3.7 5.5-5.7 8.2-2.2 3-2.9 5.8 0 8.9 2.2 2.5 7.4 4.5 3.5 8.8-3.1 3.5-6.9.8-10.3-.7-17.4-7.7-17.3-7.7-15.5 11.2.5 4.6.3 9.7-4.8 11.3-5.7 1.8-4.7-4.2-6.3-7.1-1.6-3.1-3.6-6.3-7.5-5-3.8 1.3-2 4.9-1.8 7.8.4 4.1 1.1 8.1.9 12.2-.3 6-3.4 12-9.4 12.2-7.6.4-3.2-6.9-3.7-10.4-1.3-8.9-4.6-10.1-11.4-4.9-5.3 4.1-10.4 8.5-16 12-10.1 6.1-9.5 13.5-4.2 22.4 7.6 12.7 16.4 24.7 23.2 38 18.3 35.7 37.2 71 55.4 106.7 25.1 49.6 50.6 99 78.4 147.4 28 48.7 59.9 94.7 91.8 140.7 16.3 23.4 34.6 45.5 52 68.1 21.2 27.5 44.5 52.7 73.7 72.1 2.2 1.5 4.2 4.5 9.1 1.4-6.5-19.8-13.7-39.7-19.4-60-17.1-60.7-34.2-121.4-50.2-182.4-10.9-41.2-20.3-82.8-29.9-124.4-6.6-28.5-10.9-57.6-17.9-86.1-8.1-33.1-16.3-66.3-22.5-99.9-8.3-44.9-23.4-88.2-32.8-132.9-.8-3.8-1.5-8.5-6-10.1-9.7-3.4-15.5-11.6-21.1-19.1-10.3-13.8-16.9-29.1-7.3-46.4 2.8-5 .8-7.5-3.7-9.5-11.9-5.4-22.8-12.5-33.6-19.7-2.1-1.4-4.3-4-6.8-1.9-2.9 2.4-1.1 5.6.3 8.1 1.3 2.2 3.2 3.9 5.1 5.7 1.5 1.4 4.8 1.6 3.1 4.7-1.2 2.2-3.7 2.4-5.9 2-9.7-1.7-16.3-8.3-16-17.4.6-16.4-10.3-23-21.4-30.3-3.1-2-6.4-4.1-8.8-6.8-6.5-7.3-11.3-5.6-15.1 2.3-3.4 7-6.1 4.8-9-.2-1.9-3.2-4.6-6.8-2.8-10.3 5.7-11.1-.7-17.2-8.4-23.3-4.1-3.2-7.6-7.2-12.2-11.7.7 2.7 1.1 4.1 1.4 5.5.6 2.8 2.9 6.3-.3 8.2-3.5 2-4.9-2.1-6.6-4.3-3.7-4.8-7.5-9-13.7-10.8-3.5-1-6.7-4-1.8-6.9 8.1-4.9 10.2-13.6 14.4-22.5 4.7 6.7 8.9 12.3 12.6 18.2 3.6 5.7 5.8 13.3 12.6 2 2.7-4.5 8.5-4.3 12.7-.2 3.7 3.7 7.6 9 5.9 13.6-1.8 4.9-6.1-1-9.5-.9-.6 0-1.1.7-2.9 1.9 10.7 8.9 20.6 18.2 32.2 25.4 2.8 1.7 4.2 1.4 5.8-2 5.3-10.8 11.5-12.4 23.1-6.6 2.8 1.4 7.1 2 6.8 6.3-.3 3.7-4.3 3.5-6.8 4.8-12.4 6.5-12.2 10-1.2 18.3 20.9 15.9 45.2 25.5 67.6 38.6 3.4 2 6.8 6 10.2.4 3-4.8 7.6-8.9 1.1-15.4-13.6-13.8-24.9-29.5-35.6-45.6-6.9-10.4-13.7-20.7-20.6-31.1.6 6.5 3.4 11.9 6.1 17.4 3 6 5.7 12.2 5.5 19.1-.1 3.7-1.9 8-5.8 4.1-6-5.9-14.8-9.6-18-17.9-7.5-19-14.2-38.2-21.2-57.5-.7-2-1-4.5-.6-6.6 3.2-14-2.2-24.5-12.4-33.5-3-2.6-8.3-6.4-3.9-11 4-4.1 9.2-1.2 13.2 1.6 5.9 4.1 10 9.9 13.8 15.8 3.2 5 6.3 10.1 9.6 15 1.3 1.9 1.9 4.6 5.9 2.6 8.8-4.3 19 1 21.6 10.6 1 3.6.5 5.9-4.1 5.2-3-.5-6.5-4.6-8.8-.3-1.9 3.7 1.7 6.9 3.7 9.9 3.5 5.2 7.1 10.4 10.8 15.6 1.7 2.4 3.2 5.7 6.7 5.2 12.2-1.8 18 6.7 24 14.8 2.8 3.8 7.9 7.3 4.8 12.5-3 5.1-7.9-.4-13.4.5 9.3 10.7 18.1 20.7 26.7 30.8 5.5 6.5 10.1 6.6 14.7-.9 9.5-15.9 4.6-32.7 4.8-50.4-10.3 8.1-11.1 7.8-12.9-2.9-.2-1.4-.4-3.1-1.1-4.3-7.8-12.7-6.7-22.4 7.3-30.6 5.6-3.3 1.9-10.9.8-16.6-.3-1.8-2.1-4.3-3.7-3.3-5 3-.7 8-1.9 12-.7 2.1-.9 4.5-2.1 6.1-1.8 2.5-4.1 2.7-6.4-.1-5.4-6.6-7.1-23.4-1.2-29.5 6.5-6.6 7.9-12.1 3.3-20.4-3.2-5.7-.6-8.9 6.1-5.5 2.7 1.4 5 2.2 5.8-1.8.6-2.8.3-6.9 4.3-6.5 4.5.5 5.3 4.9 5.6 8.6.5 7.5.4 15.1.5 23.8 2.5-1.6 3.7-2.3 4.9-3.2 2.5-1.8 4.2-6.4 8.1-3.9 3.6 2.4.8 6.1.5 9.2-.3 4-3.9 9.7-.7 11.6 11.4 6.7 12.7 18.3 15.5 29.5 10.7-9 12.1-15.7 4.5-18.9-2.9-1.3-7.7-.6-6.7-5.4 1-4.9 5-6.9 10.1-7.1 3.2-.1 6.4 2.5 9.7.2 8.6-6.2 10-31.3 2.3-38.9-5.8-5.7-13.3-8.9-21.6-13.7 9.3-3.5 16.6-6 24.4-.3 2.8 2 6.6 7.1 10.3 2.5 2.9-3.7-1.1-7.6-3.4-10.8-8.5-11.7-17.7-23-25.5-35.2-32.6-51-64.4-102.4-97.2-153.3-30.9-48-64.1-94.7-85.9-147.9-1.3-3.2-3.5-6.1-6.7-7.1-9.2-2.9-12.3-6.5-3-13.7 4.3-3.4 2.4-5.7-2.5-5.8-3.7-.1-9.1-1.5-10.8.4-12.8 14.5-21.8-2.9-32.6-3.8-4.7-.4-2.1-6.9-1.9-10.8.1-2.3.8-5 3.4-5.1 5.1-.2 3.7 3.9 4.5 7 .9 3.6 4.2 3.2 7 1.4-4.7-6.9 3.9-6.8 5.5-10.4 2.9-6.2 2.9-15.2-1.3-17.2-12.6-6.2-4.5-8 .9-11.9 8.1-5.9 13.9-5.7 17.6 4.7.6 1.8 2.2 4 5.9 3.2-3.2-12.6 1.8-18.9 15-18.4 3 .1 3.8-3.3 5.9-4.7 6.2-4.1 15.7-1.4 15.8 5.3.1 10.8 7.4 20.9 1.9 32.4-1.8 3.7-3.4 10.9.9 13.4s6.3-4.7 10-6.8c2.8-1.5 5.2-6.3 8.3-4 4.1 3-.2 6.8-1.8 9.6-4.7 8.6-7.6 16.8-1.7 26.1 8.4 13.1 16.7 26.2 24.5 39.7 16.7 28.9 32.7 58.2 51 86.1 15.9 24.2 31.9 48.3 48 72.4 21.3 31.7 42.6 63.4 64.1 95 16.7 24.6 34.5 48.4 50.2 73.6 27.1 43.3 57.9 83.5 92.4 121.1 2.2 2.4 4.2 5.6 8.2 4.7 2-.5 2.1-2.8 2.1-4.7-.1-4.1-1.6-7.4-6-8.2-11.2-2.1-5.7-6.5-1.4-10.5 1.6-1.5 4.1-2.1 5.5-3.7 4-4.8 2.6-10.4-.9-14.2-4.7-5.2-6.7.2-8.6 3.7-1.8 3.2-4.2 4.3-7.3 2.3s-4.5-5.3-3-8.7c2.9-6.7 7.3-12.6 14.6-14.2 6.6-1.4 8-5 8.2-10.9.2-8.4 3.3-16 8-22.8 3.2-4.6 7.4-9.8 13.6-6 5.5 3.4 2.1 8.6.1 12.9-7.2 15.9-7.2 15.9 6.7 25.9 4.2 3 7.5 7.2 5.2 12.3-2.3 4.9-6.4 1.1-9.7.2-10.3-3-15.7.9-13.9 11.4 2.4 14 7.6 27.3 8.8 43.3 7.9-8.5 11.3-16.9 16.4-24.1 41.5-58.5 79-119.4 111.3-183.4 27.3-54 53.2-108.7 72-166.4 13.9-42.7 29.5-84.8 42.5-127.8 9.2-30.5 14.2-62.3 30.8-90.2 2.7-4.5.7-9.3-.1-14.1-1.7-10.4-3.8-20.9-4.1-31.4-.2-5.1-.3-9.3-3.5-13.4-2.4-3-4.3-6.3-1.7-10.1 2.7-3.9 7-2.1 10.3-2 6.1.2 5.1 5.4 4.7 9.3-.4 4.4 1.1 8.2 5.3 8.2 4.7 0 4-4.9 3.1-7.8-3.7-11.7 4.4-9.4 10.4-8.7 3.2.4 9.2.6 7.8 5.4-1.5 5-5.4-1-8.4-.3-.6.2-1.2.7-2.3 1.4 1.3 4 1.8 8.4 4.8 11.8 4.2.7 5.6-8.4 10.1-3.4 5 5.6 6.3 2.3 8.4-2 1.3-2.7 2.8-5.2 4.6-7.6 1.8-2.5 2.8-7.3 7.1-5.4 3.5 1.5 1.2 5.3.7 8-1 5.1-2.5 10.1-3.4 15.2-.7 3.8-3.8 8.9.5 11.2 3.9 2.1 9.3 2.2 13.9 0 1.6-.7 2.7-2.6 4.3-3.2 1.7-.7 5 .1 4.6 1.6-2 6.9 4 14.4-3.6 21.3-7.4 6.8-14.4 12.2-28.4 11.1 9.7 4.9 11.6 8.4 3 11.8-6 2.3-6.5 8.2-7.8 13.8-7.3 31.8-12.8 64.2-22.9 95.1-12.6 38.7-25.1 77.5-40.4 115.4-11.4 28.2-18.5 58.2-31.3 85.6-20.6 44-39.3 88.9-63.6 131.2-16 28-30.1 57.1-47.9 84.1-26.1 39.7-50.6 80.6-87.3 112-4.7 4-4.8 8.6-4.3 14 3 33.6 6.1 67.3 8.8 100.9 2.2 28.9 3.9 57.7 5.8 86.6 1.6 24.4 3.7 48.8 4.3 73.4 1 37.4-1 74.9 1.7 112.3 1.6 22.5 0 45.2.2 67.8.3 28.6-4.2 57-3.7 85.6 1.4 69.1-1.1 138-6.1 206.9-1.1 14.9-5.6 29.7-3.3 44.6 3.4.8 4.5-.9 5.7-2.2 21.9-24.2 44.1-48.2 65.5-72.8 13-14.9 22.4-31.2 24.9-52 8.3-68.6 13.1-137.3 14-206.4.2-16.2-.8-32.9 3.9-48.6 2.9-9.6-.2-13.3-8.9-14.5-4.3-.6-8.1-1.5-9.2-6.5-1-4.9-1.2-9.6 3.4-13.1 8.6-6.7 11.7-21.5 27.1-18.1.7.1 1.8-1.2 2.5-2 5.8-5.8 11.6-5.4 19.2-2.5 7.8 3 15 5.5 18.4 14 1.3 3.2 4.5 4.7 8.1 5.2 9.4 1.2 7.2 9.2 7.8 14.9.7 6.4-4.4 7.2-9.5 8.2-7.9 1.6-16 4.8-13.8 15 8.4 41.1 2.2 82.2.9 123.3-.7 20.3-1.5 40.5-2.3 62.5 9.1-7.4 14.3-15.4 19.5-23.4 15.8-24.2 31.1-48.8 47.3-72.9 40.4-60.1 78.3-121.6 109.5-187.1 7.9-16.6 14.5-33.6 24.9-49.2 9.4-14.2 12.7-32.3 19.8-48.3 3.6-8.1 3.9-15.2.7-23.4-20.4-52.2-26-107.6-29.9-162.6-5.2-72.1 4.7-143.7 15.2-215 .6-3.8 3.2-7.8-.5-11.6-7.6-7.8-1.6-13.7 3.5-18.9 7.6-7.6 7.6-9.4-3-13.9-4.6-1.9-5.7-5.4-4.2-8.8 2.6-5.7 3.5-11.7 4-20.1 8.2 10.3 14 4.5 20.7.5 6.1-3.6 7.2-10.1 10.8-15.1 2.2-3 2.1-9 8-7.2 4.7 1.5 7.8 5 8.2 10.6 1.4 21 8.9 25.3 26.5 14.7 5.1-3.1 8.7-1.5 11.8 1.7 3.7 3.9 2.9 7.9-1.3 11.5-4.6 4-8.5 9.1-9.1 14.9-1 9.6-3.4 14.1-13.5 8.8-2.6-1.4-5 .6-6.7 2.7-1 1.2-1.7 3.6-.4 3.9 18 3.5 7.5 8.9 1.3 14.6-1 .9.1 4.2.4 6.4.4 2.9 1.7 5.8-1 8.8-3.5-1.2-8.4-8.5-9.8 2.2-5.1 37.9-10.8 75.6-10.9 114-.1 33.4 1.1 66.7 2.6 100 1.3 27.5 4.2 54.8 11.5 81.4 3.7 13.3 7.6 26.5 10.6 42.1 10.3-16.2 19.1-29.8 27.7-43.6 5.6-9 3.2-18.4-5.6-24-2.8-1.8-9.3-1.1-7.5-6 1.8-4.8 7.7-3.1 12-2.4 2.9.4 5.6 1.7 8.5 2.7-1.1-13.9 7-4 10.5-3.9 2.7-4.6-8.5-7.7-1.2-10.9 5.1-2.2 10.7 1.5 13.1 7.5.3.7.4 1.4.5 2.2.5 6-2.9 13.3 6.7 16.1 2.9.8.5 4.7-1.2 6.5-5.3 5.8-1.9 8.9 4 12.8 14-83.4 19-167 31.7-250.3-4.2.7-9.3 5-13.2 1.5-6-5.4-11.2-11.8-16.1-18.2-2.1-2.8-.2-6.6 1.5-9.4 2.1-3.5 5.3-1.9 7.8-.4 4.3 2.6 9.2 2.7 13.9 3.4 3.3.5 7.1.9 9-2.6s-1.5-5.2-3.5-7.3c-2.9-3.1-6.1-7.7-3.1-10.8 6.7-7.1 7.2-16.7 12-24.5 4-6.5 8.1-3.1 12.3-1.3 5.4 2.3 3.6 6.2 2.3 10.3-.9 3-5.8 2.3-5.3 6.2 8.1 6.8 20.1 12 7.5 25.2-2.9 3 .8 6.9 2.5 10.1.7 1.5 2.4 2.3 3.7 1 2.5-2.4 3.9-5.6 3.3-9-2.6-14.4 7.3-21.8 16.6-29.6 4.3-3.6 6.7.5 9.4 2.5 3.3 2.4 5.7 5.2 2.2 9.2-3.4 3.9-6.2 8.3-3.1 13 3.8 5.9 7.7-.9 11.6-1.3 8.8-.9 17.2 4.6 15.5 11.2-1.5 5.5-18.2 18-24.6 19.7-7.4 2-15.3 4.4-15.9 14.3-1 18.2-1.8 36.3-2.7 54.5-2.2 46.7-6.9 93-14 139.3-3 19.5-9.1 38.3-11.4 57.9-.7 5.4-4.8 12.7-.5 15.8 5.3 3.9 11.6-1.8 17.1-4.5 41.8-20.3 82.3-42.9 122.8-65.4 27-15 27.3-14.5 13.3-42.5-2.3-4.6-4.6-9.2 1.5-12.3 5.6-2.9 10.4-.6 12.9 4.8s4.4 11.1 5.9 16.8c1.9 7.2 4.4 10.9 13.2 7.6 8.3-3.1 9.4-6.7 4.7-13.6-1.6-2.4-2.1-5.5-3-8.3-1.2-3.7-5.4-8.7-1.3-11 5.3-2.9 4.2 5.5 7.6 7.1.5.2 1.3-.1 3.5-.4-4-6 0-14.4-7.8-18.7-5.3-2.9-10.3-7.4-9.7-13.1.6-6.6 14.4-23.2 24.6 10.1 1.3 4.4 4.3 7.5 9.2 5 2.9-1.5 8.8-2.6 3.2-8.4-2.7-2.9.3-4.8 3.4-4.5 5.5.5 11.2-.1 16.2 3.1 2.4 1.5 5.9 2.4 6 6 .1 4.7-4.1 3.1-6.6 4.1-2.5.9-5 1.9-5.7 4.8-1.1 4.3 3.3 4.1 5.1 6 6.7 7.2 16.6 5.6 24.7 10.9.3-6.1-9.3-12-.4-15.1 14.8-5.1 9.1 11.8 15.6 16.5 3.6 2.6 2.3 6.7-2.1 8.8-.3.2-.7.3-1.1.3-6.2.6-11.1 3.1-11 10.1.2 6.5 6.4 8.3 11 9.4 6.5 1.7 6.3 4.5 4.5 9.6-2.6 7.4-4.2 15.4-14.8 8.2-2-1.4-4.2.3-6.3 1.2-6.2 2.9-10.8 1-13.7-5.1-4.1-8.5-7.2-3.3-9.7.9-3.2 5.4-.7 10.9 1 16.1 10.9 36.1-17 30.9-17 30.9" fill="#00a0a6"/></svg>