<?xml version="1.0" encoding="utf-8"?>
<!-- Generator: Adobe Illustrator 23.0.1, SVG Export Plug-In . SVG Version: 6.00 Build 0)  -->
<svg version="1.1" id="Layer_1" xmlns="http://www.w3.org/2000/svg" xmlns:xlink="http://www.w3.org/1999/xlink" x="0px" y="0px"
	 viewBox="0 0 92.9 33.4" style="enable-background:new 0 0 92.9 33.4;" xml:space="preserve">
<style type="text/css">
	.st0{fill:#383739;}
</style>
<path class="st0" d="M46.5,1C21.3,1,1,8,1,16.7c0,8.7,20.3,15.7,45.5,15.7s45.5-7,45.5-15.7C91.9,8,71.6,1,46.5,1z M22.2,14.6h-1.7
	v-1.7c0-0.5,0-0.9-0.7-0.9h-0.1c-0.7,0-0.7,0.4-0.7,0.9v8.4c0,0.4,0.1,0.7,0.6,0.7h0.4c0.5,0,0.6-0.3,0.6-0.7v-3.1h-0.9v-1.6h0.9
	h1.7v4.8c0,1.7-0.4,2.3-1.8,2.3H19c-1.4,0-1.8-0.6-1.8-2.3v-8.8c0-1,0.1-2.1,1.8-2.1v0h1.4v0c1.7,0.1,1.8,1.1,1.8,2.1V14.6z
	 M26.7,21.8v-1.9c0-0.5,0-1.6-0.2-2c-0.2-0.4-0.2-0.4-0.7-0.4v-1.5h0.1c0.9,0,0.9-0.4,0.9-2.6c0-1.5-0.1-1.5-0.8-1.5H25l0,0v11.6h0
	v0l-1.7,0V10.4h2.8c2.1,0,2.4,0.6,2.4,3.2c0,2.3-0.1,3.2-1.4,3.3c-0.1,0-0.1,0.1,0,0.1c1.2,0.2,1.3,0.9,1.3,2.6V21
	c0,1.6,0,1.8,0.3,2.6C28.7,23.7,26.7,24,26.7,21.8z M33.8,23.7l-1.4-9.5l-0.8,5.6h0.8v1.7h-1.1l-0.3,2.1l-1.7,0l2-13.3h2.1l2,13.3
	H33.8z M41.7,23.7l-1.9,0c0,0-1.4-6.3-1.9-8.6v8.6l-0.4,0v0h-1.3V10.4h1.9c0,0,2,8.7,2,8.8v-8.8v0h1.6V23.7z M48.2,21.4
	c0,1.8-0.4,2.3-1.9,2.3h-0.9V22h0.4c0.5,0,0.6-0.3,0.6-0.7v-8.4c0-0.5,0-0.9-0.7-0.9l-1,0v11.7l-1.7,0V10.4l3.2,0c1.9,0,2,1.1,2,2.1
	V21.4z M53.9,17.6l-0.4,0v-1.5l0.2,0c0.7,0,0.9-0.4,0.9-1.9v-0.7c0-1.5-0.1-1.5-0.8-1.5h-0.9h0v11.6l0,0v0l-1.7,0V10.4h2.8
	c2.1,0,2.4,0.6,2.4,3.2v0.7C56.3,16.8,56,17.6,53.9,17.6z M60.5,23.7l-1.4-9.5l-0.8,5.6h0.8v1.7h-1.1l-0.3,2.1l-1.7,0l2-13.3h2.1
	l2,13.3H60.5z M66.2,21.8v-1.9c0-0.5,0-1.6-0.2-2c-0.2-0.4-0.2-0.4-0.7-0.4v-1.5h0.1c0.9,0,0.9-0.4,0.9-2.6c0-1.5-0.1-1.5-0.8-1.5
	l-0.9,0h0v11.7h0v0h-1.7V10.4h2.8c2.1,0,2.4,0.6,2.4,3.2c0,2.3-0.1,3.2-1.4,3.3c-0.1,0-0.1,0.1,0,0.1c1.2,0.2,1.3,0.9,1.3,2.6V21
	c0,1.6,0,1.8,0.3,2.6C68.3,23.7,66.2,24,66.2,21.8z M71,23.7l-1.7,0V10.4H71V23.7z M73.7,23.7l-2.4-6.8l2.3-6.5h1.9L73,16.7l2.7,7
	H73.7z"/>
</svg>
