<?xml version="1.0" encoding="utf-8"?>
<!-- Generator: Adobe Illustrator 23.0.1, SVG Export Plug-In . SVG Version: 6.00 Build 0)  -->
<svg version="1.1" id="Layer_1" xmlns="http://www.w3.org/2000/svg" xmlns:xlink="http://www.w3.org/1999/xlink" x="0px" y="0px"
	 viewBox="0 0 275.9 209.3" style="enable-background:new 0 0 275.9 209.3;" xml:space="preserve">
<style type="text/css">
	.st0{fill:#383739;}
</style>
<path class="st0" d="M34.2,66.8c8.6-7,22.9-15.6,29.8-15.6c2.4,0,3.2,1.9,3.8,1.9c0.5,0,2-0.9,2.8-0.9c1.2,0-0.6,5.1-5.6,10.8
	c-2.1,2.3-5.1,4.5-6.8,4.5c-3.1,0,2.6-7.6-1.6-7.6c-1.3,0-3.7,0.9-6.3,3.3c-5.6,5.3,1.8,3.9,2.4,9c0.4,2.7-1,6.1-5.5,11.1
	c-6.9,7.8-20.6,16.7-35.3,16.7c-4.1,0-9.8-1.1-10.8-3.2c-0.8-1.8,6.6-8.9,10.8-12.3c2.2-1.8,5-3.6,6.6-3.6c3.7,0-9.5,10.6,1.2,10.6
	c1.3,0,5.2-0.7,7.8-3.3c5-4.8-3.9-3.6-2.7-9.6C25.3,75.7,28.4,71.6,34.2,66.8"/>
<path class="st0" d="M93.1,63.7c4.1-7.2-1-4.4,1.4-8.3c2.6-4.1,6.8-4,8.3-4c1.4,0,5.5,0,3.7,3.9c-1.7,3.7-3.7,1.5-6.7,7.6
	c-3,6-6,12-9,18.1c-1.5,3-9,19.1-30.9,19.1c-24.9,0-4.2-20.3-3.7-21.1c4.4-5.1,8.8-10.3,13.1-15.4c3.7-4.2,0.9-4.2,3.7-7.3
	c0.8-0.9,3.8-4.7,11.4-4.7c6,0,5.9,2,4.1,4.6c-3.3,4.8-3.1,0.3-9.2,8.5c-3,4.1-5.9,8.2-8.9,12.3c-5.8,8-7,13-0.9,13
	c9.1,0,13.6-8.8,14-9.5C86.8,74.8,89.9,69.2,93.1,63.7"/>
<path class="st0" d="M128.1,68.2c0.4,0.7,1.7,2.6,2.5,2.6c1.2,0,1.5-2.7,1.7-3.9c0.2-1.7,0.5-4.5,0.3-6.1c-0.3-2.8-2.6-1.8-2-5.4
	c0.7-4.3,4.4-4.1,6-4.1c1.6,0,5.7-0.3,5.7,4.3c0,3.8-2.1,2.4-3,5.5c-0.6,2.4-0.8,6.6-0.9,9.1c-0.3,5.8-0.5,11.5-0.8,17.3
	c-0.1,3-0.1,12.2-4.3,12.2c-1.2,0-2.2-0.8-3-1.7c-5.7-6.2-10.3-12.3-14.1-18.5c-0.5-0.9-1.4-2.5-2.4-2.5c-1.5,0-2.9,4.3-3.4,5.8
	c-0.6,1.9-1.3,4.3-1.5,6.1c-0.4,4.3,3.1,2.7,2.2,6c-1.1,4.5-7.7,4.9-10.6,4.9c-2.8,0-9.1-0.4-7.2-4.7c1.5-3.5,4.3-2.1,6.5-6.4
	c1.5-2.9,3.2-7.1,4.3-10.1c1.8-4.8,3.6-9.7,5-14.5c1.9-6.7-2.1-4.1-0.4-8.1c2.1-4.7,6.9-4.5,8.6-4.5c2.3,0,2.6,0.3,3.6,2.9
	C122.9,59,125.2,63.6,128.1,68.2"/>
<path class="st0" d="M150.1,63.1c-0.5-6.9-3.3-3.5-3.6-7.9c-0.1-3.1,2-3.5,3.3-3.5H162c10,0,18.7,11.5,24.4,23.5
	c5.9,12.4,4.7,24.1-11.4,24.1c-2.6,0-4.9-0.1-6.8-0.2c-1.9-0.1-3.6-0.1-5.3-0.1c-1.7,0-3.5,0.1-5.2,0.1c-1.7,0.1-3.4,0.2-5.2,0.2
	c-2.1,0-4.8-1.1-4.9-3.8c-0.3-4.8,4.8,0.5,4.1-9.2C151.2,78.6,150.7,70.8,150.1,63.1 M165.7,87.6c0.7,3.4,1.5,4.8,4.6,4.8
	c7.4,0,5.9-8.6,3.7-15.3c-5.1-15.6-9.4-18.1-12.5-18.1c-1.7,0-1.6,1.1-1.1,3.7C162.1,70.9,163.9,79.2,165.7,87.6"/>
<path class="st0" d="M194,74.9c-0.9-4.6-2.4-10.5-5.4-15.8c-2.6-4.6-3.4-8.1-0.1-8.1c3.2,0,9.3,6,14.2,10.4
	c1.6,1.9,24.5,22.4,31.6,27.9c6.1,5.1,6.7,2,10,5.8c4.3,4.9-4.7,4.7-7.8,4.7c-8.8,0-14.2-0.1-16.9-4.2c-2.1-3.2,2.3-2,0.7-4.3
	c-2.1-3-3.6-3.3-12.6-3.3c-2.9,0-4.5,0.1-2.8,3.4c1.4,2.6,4.2,0.9,6.2,4.3c2.4,4-4.3,4.1-6.8,4.1c-8.9,0-10.4-1.8-11.3-3.9
	c-1.3-3.1,2.2-2.2,2.8-4.6c0.4-1.8,0-5-0.2-7.2C195.1,81,194.6,77.9,194,74.9 M207.4,79.7c0.5,0,2.2,0.1,1.5-0.9
	c-0.7-1-4.4-4.5-5.3-5.4c-1.1-1.1-3.5-3.5-4.5-3.5c-1.1,0,0.5,4,0.7,4.7c0.2,0.7,0.9,3.3,1.4,4.1c0.7,1.1,1.8,0.9,2.4,0.9H207.4z"/>
<path class="st0" d="M243.7,69.8c2,3.7,3.9,5.7,8.9,10.4c6.6,6.2,9.8,8.8,11.6,10.1c2.9,1.9,5.5,1.5,9,4.7c5.4,4.8-4.4,4.8-7.4,4.8
	c-12.2,0-16.4-3-18-4.8c-3.2-3.6,1.3-2.3-0.2-5c-0.9-1.5-3.4-4.6-9.6-11.1c-3.6-3.8-5.3-5.1-9.7-8.1c-4.5-2.9-8.8-5.8-12.9-8.8
	c-5.4-3.8-7.1-2.7-9.7-6c-1.2-1.5-3.9-4.5,4.8-4.5c7.7,0,10.4,2.6,11.9,4.1c1.8,1.7,1.3,2.4,2.8,3.8c1.5,1.5,7.5,5.7,8.6,5.7
	c1.2,0-0.8-3.5-2.5-5.1c-2-1.9-3.3-2-6-4.5c-4.2-3.9,0.1-3.9,1.5-3.9c4.6,0,7.1,1,10.7,3.9c5.2,4.3-0.7,1.8,1.5,5.4
	C240.7,63.8,242.3,66.8,243.7,69.8"/>
<path class="st0" d="M16.8,123.9c-8.1-7-12.9-15.6-2.8-15.6c3.3,0,8.8,1.9,9.5,1.9c0.7,0,0.5-0.9,1.6-0.9c1.8,0,10.2,5.1,15.2,10.8
	c2,2.3,3.1,4.5,1.4,4.5c-2.9,0-11.9-7.6-16.9-7.6c-1.5,0-2.1,0.9,0.4,3.3c5.4,5.3,10.2,3.9,20,9c5.2,2.7,9.3,6.1,13.8,11.1
	c6.8,7.8,11.5,16.7,4.6,16.7c-2,0-6.7-1.1-10.8-3.2c-3.5-1.8-12.5-8.9-16.4-12.3c-2.1-1.8-3.7-3.6-2.5-3.6
	c2.8,0,14.2,10.6,20.4,10.6c0.7,0,1.9-0.7-0.6-3.3c-4.9-4.8-8.5-3.6-19.4-9.6C28.6,132.8,22.3,128.7,16.8,123.9"/>
<path class="st0" d="M54,109.2c6.8,0,6.9-1.3,7.7-1.3c3,0,8.1,6.6,9.8,9.5c1.3,2.2,2.3,4.8,0.5,4.8c-3.6,0-4.6-6.4-13.8-6.4
	c-5.3,0-3.8,1.3,1.9,9c2.9,3.9,3.1,4,5.7,4c3.2,0-4.4-7.4-1.2-7.4c2.7,0,7.8,7.6,9.5,10.2c1.8,2.7,6.7,10.8,4.6,10.8
	c-2.3,0-4.8-7-8.8-7c-1.7,0,0.3,2.5,1.8,4.7c7.2,9.8,7.2,9.3,10.8,9.3c6.9,0-0.9-9.4,2.1-9.4c1.2,0,3.2,2.4,4.3,4.3
	c2.6,4.5,5.6,12.7,4.4,12.7c-0.2,0-0.8-0.2-1.6-0.4c-0.8-0.1-1.8-0.3-2.8-0.3H76.1c-2,0-3.8-2-4.6-2.9c-3.2-3.7,1.6-0.7-4.1-7.8
	c-9.8-12.2-8.6-11-19.2-23.1c-8.9-10.2-8.1-4.9-12.2-9.7c-3.6-4.1,1.3-3.4,3.4-3.4H54z"/>
<path class="st0" d="M79.3,123.9c-4-7-3.8-15.6,6.3-15.6c3.3,0,7.7,1.9,8.4,1.9c0.7,0,1.1-0.9,2.1-0.9c1.8,0,7.2,5.1,8.9,10.8
	c0.7,2.3,0.4,4.5-1.2,4.5c-2.9,0-7.5-7.6-12.5-7.6c-1.5,0-2.6,0.9-1.5,3.3c2.3,5.3,8,3.9,14.7,9c3.6,2.7,5.8,6.1,7.3,11.1
	c2.2,7.8,1.8,16.7-5.1,16.7c-2,0-6-1.1-9-3.2c-2.5-1.8-7.3-8.9-9.2-12.3c-1-1.8-1.6-3.6-0.4-3.6c2.8,0,8,10.6,14.1,10.6
	c0.7,0,2.3-0.7,1.3-3.3c-2-4.8-6.4-3.6-13.8-9.6C86,132.8,82,128.7,79.3,123.9"/>
<path class="st0" d="M109.5,123.9c-2.1-7,0.6-15.6,10.7-15.6c3.3,0,7.1,1.9,7.9,1.9c0.7,0,1.3-0.9,2.4-0.9c1.8,0,5.8,5.1,5.8,10.8
	c0,2.3-0.9,4.5-2.5,4.5c-2.9,0-5.3-7.6-10.3-7.6c-1.5,0-2.9,0.9-2.5,3.3c0.8,5.3,6.9,3.9,12.2,9c2.8,2.7,4,6.1,4.1,11.1
	c0,7.8-2.9,16.7-9.8,16.7c-2,0-5.7-1.1-8.1-3.2c-2-1.8-4.8-8.9-5.8-12.3c-0.5-1.8-0.6-3.6,0.6-3.6c2.8,0,5,10.6,11.1,10.6
	c0.7,0,2.5-0.7,2.2-3.3c-0.7-4.8-5.4-3.6-11.1-9.6C113.6,132.8,110.8,128.7,109.5,123.9"/>
<path class="st0" d="M142,129.4c0.3-8.5-0.1-10.4-0.6-11.4c-1-1.9-2.9-2.1-2.9-4.7c-0.1-4.8,10.4-4.8,11.4-4.8
	c3.1,0,9.3,0.1,8.5,4.7c-0.4,2.4-2.2,2.3-3.6,4c-1.1,1.5-1.9,7.5-2.6,12.2c-0.3,2.2-0.6,4.4-0.9,6.6c-1.6,11.9-1.1,11.6-0.6,12.4
	c0.7,1,1.5,1.3,1.1,3.4c-0.3,2-1.2,5-7.9,5c-1.3,0-5.1-0.1-5.2-4.3c0-2.1,1.1-2.5,1.7-3.7c0.4-0.9,0.8-3.4,1.2-12.8
	C141.9,133.8,142,131.6,142,129.4"/>
<path class="st0" d="M156.8,132.5c2.2-14.2,12.7-24.2,24.2-24.2c14.6,0,11.6,16.3,7,24.9c-7.7,14.4-18.2,23.9-24.1,23.9
	C157.7,157.1,154.6,146.8,156.8,132.5 M175.3,118.3c-2.7,0-5.1,3.9-6,7.2c-1.5,5.7-3.9,21.7-0.4,21.7c2.1,0,4.4-3.5,5.9-7.2
	C177.3,133.8,181.1,118.3,175.3,118.3"/>
<path class="st0" d="M217.1,125.4c0,0.7,0,2.6,0.7,2.6c1.1,0,3.2-2.7,4.1-3.9c1.3-1.7,3.5-4.5,4.3-6.1c1.5-2.8-1.8-1.8,0.9-5.4
	c3.2-4.3,8.2-4.1,10.4-4.1c2.2,0,8.1-0.3,4.1,4.3c-3.3,3.8-4.7,2.4-8.1,5.5c-2.6,2.4-6.1,6.6-8.2,9.1l-14.5,17.3
	c-2.5,3-10,12.2-12.1,12.2c-0.6,0-0.5-0.8-0.3-1.7c1.6-6.2,2.5-12.3,2.5-18.5c0-0.9,0-2.5-0.8-2.5c-1.3,0-4,4.3-4.9,5.8
	c-1.2,1.9-2.7,4.3-3.5,6.1c-2.2,4.3,0.7,2.7-1.5,6c-3,4.5-6.4,4.9-7.8,4.9c-1.4,0-4.3-0.4-2.1-4.7c1.9-3.5,3.1-2.1,5.8-6.4
	c1.8-2.9,4.3-7.1,6-10.1c2.7-4.8,5.4-9.7,7.6-14.5c3-6.7-1.9-4.1,0.2-8.1c2.4-4.7,9.2-4.5,11.5-4.5c3.2,0,3.6,0.3,4.1,2.9
	C216.5,116.1,217,120.7,217.1,125.4"/>
<path class="st0" d="M234.4,123.9c6.1-7,18.8-15.6,28.9-15.6c3.3,0,5,1.9,5.7,1.9c0.7,0,2.4-0.9,3.5-0.9c1.8,0-0.2,5.1-6.8,10.8
	c-2.6,2.3-6.2,4.5-7.8,4.5c-2.9,0,3.6-7.6-1.4-7.6c-1.5,0-4,0.9-6.4,3.3c-5.3,5.3,2.3,3.9,1.6,9c-0.4,2.7-3.1,6.1-8.8,11.1
	c-9.2,7.8-22.4,16.7-29.3,16.7c-2,0-4.4-1.1-4.3-3.2c0.1-1.8,5.6-8.9,8.6-12.3c1.6-1.8,3.7-3.6,4.8-3.6c2.8,0-7.5,10.6-1.3,10.6
	c0.7,0,3.4-0.7,6-3.3c5-4.8-1.2-3.6,0.1-9.6C228.1,132.8,230.1,128.7,234.4,123.9"/>
<path class="st0" d="M41.6,183.3c-0.5,0.1-1,0.2-1.5,0.4c0.2-0.5,0.4-1.1,0.6-1.6c0.5-0.1,1-0.2,1.5-0.4c0.3-0.7,0.6-1.4,0.9-2.1
	c1-0.2,2-0.5,3.1-0.7c-0.3,0.7-0.6,1.4-0.9,2.1c0.1,0,0.1,0,0.2,0c0.3-0.7,0.6-1.4,0.9-2.1c1-0.2,2-0.4,3.1-0.6
	c-0.3,0.7-0.6,1.4-0.9,2.1c0.5-0.1,1-0.2,1.5-0.3c-0.2,0.5-0.4,1.1-0.6,1.6c-0.5,0.1-1,0.2-1.5,0.3c-0.1,0.3-0.2,0.6-0.3,0.8
	c0.5-0.1,1-0.2,1.5-0.3c-0.2,0.5-0.4,1.1-0.6,1.6c-0.5,0.1-1,0.2-1.5,0.3c-0.3,0.8-0.6,1.5-0.9,2.3c-1,0.2-2.1,0.4-3.1,0.6
	c0.3-0.8,0.6-1.5,1-2.3c-0.1,0-0.1,0-0.2,0c-0.3,0.8-0.6,1.5-0.9,2.3c-1,0.2-2,0.4-3,0.7c0.3-0.8,0.6-1.5,0.9-2.3
	c-0.5,0.1-1,0.2-1.5,0.4c0.2-0.5,0.4-1.1,0.6-1.6c0.5-0.1,1-0.2,1.5-0.4C41.4,183.9,41.5,183.6,41.6,183.3 M47.8,183
	c-0.5,0.1-1,0.2-1.5,0.3c0.2-0.4,0.3-0.8,0.5-1.2c0.5-0.1,1-0.2,1.5-0.3c0.2-0.4,0.3-0.8,0.5-1.2c-0.5,0.1-1,0.2-1.5,0.3
	c0.3-0.7,0.6-1.4,0.9-2.1c-0.6,0.1-1.1,0.2-1.7,0.3c-0.3,0.7-0.6,1.4-0.9,2.1c-0.5,0.1-1,0.2-1.6,0.3c0.3-0.7,0.6-1.4,0.9-2.1
	c-0.6,0.1-1.1,0.2-1.7,0.4c-0.3,0.7-0.6,1.4-0.9,2.1c-0.5,0.1-1,0.2-1.5,0.4c-0.2,0.4-0.3,0.8-0.5,1.2c0.5-0.1,1-0.2,1.5-0.4
	c-0.2,0.4-0.3,0.8-0.5,1.2c-0.5,0.1-1,0.2-1.5,0.4c-0.2,0.4-0.3,0.8-0.5,1.2c0.5-0.1,1-0.2,1.5-0.4c-0.3,0.8-0.6,1.5-0.9,2.3
	c0.6-0.1,1.1-0.2,1.7-0.4c0.3-0.8,0.6-1.5,0.9-2.3c0.5-0.1,1-0.2,1.5-0.3c-0.3,0.8-0.6,1.5-1,2.3c0.6-0.1,1.2-0.2,1.8-0.4
	c0.3-0.8,0.6-1.5,0.9-2.3c0.5-0.1,1-0.2,1.5-0.3C47.5,183.8,47.7,183.4,47.8,183 M45.1,182.4c-0.2,0.4-0.3,0.8-0.5,1.2
	c-0.5,0.1-1,0.2-1.5,0.3c0.2-0.4,0.3-0.8,0.5-1.2C44.1,182.6,44.6,182.5,45.1,182.4 M44.3,183.5c0.1,0,0.1,0,0.2,0
	c0.1-0.3,0.2-0.6,0.3-0.8c-0.1,0-0.1,0-0.2,0C44.5,182.9,44.4,183.2,44.3,183.5"/>
<path class="st0" d="M53.2,182.6l0,0.1c0,0.2,0,0.3,0,0.3c0,0.3,0.2,0.6,0.5,0.7c0.2,0.1,0.5,0.1,0.8,0.1c0.3-0.1,0.5-0.2,0.7-0.3
	c0.3-0.2,0.5-0.5,0.5-0.8c0-0.2-0.1-0.3-0.2-0.4c-0.1-0.1-0.5-0.2-1-0.3c-0.1,0-0.5-0.1-1-0.1c-0.7-0.1-1.2-0.2-1.5-0.3
	c-0.7-0.3-1.1-0.7-1.1-1.4c0-0.5,0.2-1,0.6-1.5c0.7-0.9,1.9-1.5,3.6-1.8c0.3,0,0.6-0.1,0.9-0.1c1.1-0.2,2-0.1,2.7,0.1
	c0.4,0.2,0.7,0.4,0.9,0.7c0.2,0.3,0.2,0.5,0.2,0.8c0,0.1,0,0.3,0,0.4v0.1c-1.1,0.1-2.2,0.3-3.3,0.4v-0.1c0-0.2,0-0.3,0-0.4
	c0-0.2-0.2-0.3-0.4-0.4c-0.2-0.1-0.4-0.2-0.7-0.1c-0.2,0.1-0.3,0.1-0.5,0.2c-0.4,0.2-0.6,0.5-0.6,0.8c0,0.2,0.1,0.3,0.2,0.4
	c0.2,0.1,0.5,0.1,1,0.2c0.9,0.1,1.5,0.2,1.9,0.3c0.5,0.1,0.9,0.2,1.1,0.4c0.5,0.3,0.7,0.7,0.7,1.3c0,0.6-0.2,1.2-0.7,1.7
	c-0.8,0.9-2.1,1.5-3.9,1.7c-0.3,0-0.6,0.1-0.9,0.1c-1.1,0.2-2.1,0.1-2.8-0.2c-0.4-0.2-0.7-0.4-0.9-0.8c-0.2-0.3-0.2-0.6-0.2-0.9
	c0-0.2,0-0.3,0.1-0.6l0-0.1C51,182.9,52.1,182.7,53.2,182.6 M58.6,179.2c0-0.1,0-0.2,0-0.3c0-0.5-0.2-0.9-0.5-1.2
	c-0.6-0.5-1.6-0.7-3.1-0.4c-1.3,0.2-2.2,0.6-2.9,1.1c-0.3,0.3-0.6,0.6-0.8,0.9c-0.2,0.3-0.3,0.7-0.3,1c0,0.6,0.3,1,1,1.3
	c0.3,0.1,1,0.2,2.1,0.4c0.5,0.1,0.8,0.1,0.9,0.1c0.3,0.1,0.6,0.2,0.7,0.3c0.1,0.1,0.2,0.3,0.2,0.4c0,0.3-0.1,0.5-0.4,0.7
	c-0.4,0.3-0.8,0.5-1.5,0.6c-0.4,0.1-0.8,0.1-1.1,0c-0.2-0.1-0.4-0.1-0.6-0.3c-0.2-0.2-0.3-0.4-0.3-0.7c0-0.1,0-0.2,0-0.3
	c-0.7,0.1-1.3,0.2-2,0.3c0,0.2-0.1,0.3-0.1,0.5c0,0.8,0.4,1.3,1.1,1.6c0.7,0.3,1.5,0.3,2.7,0.2c1.2-0.2,2.2-0.5,3-1
	c0.4-0.3,0.8-0.7,1-1.1c0.2-0.4,0.3-0.8,0.3-1.1c0-0.6-0.3-1-0.9-1.3c-0.3-0.1-1.2-0.3-2.7-0.5c-0.6-0.1-1-0.2-1.1-0.3
	c-0.2-0.1-0.2-0.3-0.2-0.4c0-0.3,0.2-0.6,0.5-0.8c0.3-0.2,0.7-0.4,1.2-0.4c0.5-0.1,0.9,0,1.2,0.1c0.4,0.1,0.6,0.4,0.6,0.8
	c0,0,0,0.1,0,0.1C57.3,179.3,57.9,179.3,58.6,179.2"/>
<path class="st0" d="M65.5,176c-0.4,1.7-0.9,3.4-1.3,5.1c-0.1,0.3-0.1,0.5-0.1,0.7c0,0.4,0.3,0.7,0.8,0.9c0.1,0,0.2,0.1,0.4,0.1
	c0.3-0.1,0.5-0.2,0.8-0.3c0.3-0.2,0.5-0.4,0.6-0.6c0.2-0.3,0.3-0.6,0.4-1c0.4-1.7,0.9-3.4,1.3-5.1c1.1-0.1,2.2-0.2,3.3-0.3
	c-0.5,1.8-0.9,3.6-1.4,5.5c-0.1,0.5-0.2,0.8-0.3,1.1c-0.1,0.3-0.2,0.5-0.4,0.7c-0.4,0.6-1.1,1-1.9,1.3c-0.6,0.2-1.3,0.3-2,0.4
	c-0.3,0-0.6,0-0.9,0.1c-1.1,0.1-2.1,0-2.8-0.4c-0.4-0.2-0.7-0.4-0.9-0.8c-0.2-0.3-0.3-0.7-0.3-1.1c0-0.3,0.1-0.6,0.2-1
	c0.4-1.6,0.8-3.2,1.3-4.9C63.2,176.2,64.3,176.1,65.5,176 M68.5,175.9c-0.4,1.7-0.9,3.3-1.3,5c-0.2,0.7-0.4,1.2-0.8,1.5
	c-0.4,0.4-1,0.6-1.6,0.7c-0.5,0-0.9,0-1.2-0.2c-0.4-0.2-0.6-0.5-0.6-0.9c0-0.2,0-0.4,0.1-0.7c0.4-1.6,0.9-3.3,1.3-4.9
	c-0.7,0.1-1.3,0.1-2,0.2c-0.4,1.6-0.8,3.2-1.2,4.7c-0.1,0.4-0.2,0.7-0.2,1c0,0.5,0.2,1,0.6,1.3c0.4,0.3,0.9,0.6,1.6,0.7
	c0.5,0.1,1,0.1,1.7,0.1c1.3-0.1,2.3-0.4,3-1c0.4-0.3,0.7-0.7,1-1.1c0.1-0.3,0.3-0.7,0.4-1.3c0.4-1.7,0.9-3.5,1.3-5.2
	C69.8,175.7,69.2,175.8,68.5,175.9"/>
<path class="st0" d="M78.9,179.3c0.4-1.4,0.7-2.9,1.1-4.3c1.1,0,2.1-0.1,3.2-0.1c-0.7,2.9-1.5,5.8-2.2,8.6c-1.1,0-2.2,0-3.3,0
	c-0.6-1.4-1.2-2.8-1.9-4.2c-0.4,1.4-0.7,2.8-1.1,4.3c-1.1,0-2.1,0.1-3.2,0.1c0.7-2.8,1.5-5.6,2.2-8.5c1.1-0.1,2.2-0.1,3.2-0.2
	C77.6,176.5,78.2,177.9,78.9,179.3 M79.9,183.3c0.7-2.7,1.4-5.5,2.1-8.2c-0.6,0-1.2,0-1.9,0.1c-0.5,2-1,4.1-1.6,6.1
	c-0.9-2-1.8-4-2.7-5.9c-0.7,0-1.3,0.1-2,0.1c-0.7,2.7-1.4,5.4-2.1,8.1c0.6,0,1.2-0.1,1.9-0.1c0.5-2,1-4,1.5-6c0.9,2,1.8,3.9,2.6,5.9
	C78.6,183.4,79.2,183.3,79.9,183.3"/>
<path class="st0" d="M83.2,183.5c0.7-2.9,1.5-5.8,2.2-8.7c1.5,0,3,0,4.5,0c0.9,0,1.6,0.1,2,0.2c0.9,0.3,1.5,0.8,2,1.6
	c0.3,0.5,0.5,1.2,0.5,1.9c0,1-0.3,1.9-0.8,2.7c-0.6,1-1.6,1.7-2.8,2c-0.7,0.2-1.5,0.3-2.5,0.3C86.6,183.5,84.9,183.5,83.2,183.5
	 M83.5,183.3c1.3,0,2.7,0,4,0c1.7,0,3.1-0.4,4.1-1.2c0.6-0.5,1-1,1.3-1.7c0.3-0.6,0.4-1.3,0.4-2c0-1.2-0.4-2.1-1.3-2.8
	c-0.4-0.3-0.9-0.5-1.5-0.6c-0.3-0.1-0.8-0.1-1.4-0.1c-1.2,0-2.3,0-3.5,0C84.9,177.8,84.2,180.6,83.5,183.3 M85.8,181.9
	c0.5-1.8,0.9-3.7,1.4-5.5c0.5,0,1,0,1.5,0c0.5,0,0.9,0,1.2,0.1c0.5,0.2,0.8,0.5,1,0.9c0.2,0.3,0.2,0.7,0.2,1.1
	c0,0.7-0.2,1.3-0.5,1.9c-0.4,0.7-0.9,1.1-1.6,1.4c-0.4,0.1-0.9,0.2-1.6,0.2C87,181.9,86.4,181.9,85.8,181.9 M87,181.7
	c0.2,0,0.4,0,0.5,0c0.6,0,1.1-0.1,1.5-0.2c0.6-0.2,1.1-0.6,1.5-1.3c0.3-0.5,0.5-1.1,0.5-1.8c0-1-0.4-1.6-1.3-1.8
	c-0.3-0.1-0.6-0.1-1-0.1c-0.2,0-0.3,0-0.5,0C87.8,178.3,87.4,180,87,181.7"/>
<path class="st0" d="M102.6,175.1c0.6,3.1,1.3,6.1,1.9,9.2c-1.1-0.1-2.2-0.1-3.3-0.2c-0.1-0.7-0.2-1.3-0.3-2c-0.9,0-1.8-0.1-2.7-0.1
	c-0.4,0.6-0.8,1.3-1.2,1.9c-1.1-0.1-2.2-0.1-3.4-0.1c2-2.9,4-5.8,5.9-8.7C100.5,175,101.6,175,102.6,175.1 M101,181.9
	c0.1,0.7,0.2,1.3,0.3,2c0.7,0,1.3,0.1,2,0.1c-0.6-2.9-1.2-5.9-1.8-8.8c-0.7,0-1.3,0-2-0.1c-1.9,2.8-3.8,5.6-5.7,8.4
	c0.7,0,1.3,0.1,2,0.1c0.4-0.6,0.8-1.3,1.2-1.9C98.4,181.8,99.7,181.8,101,181.9 M100.8,180.7c-1,0-2-0.1-2.9-0.1
	c0.8-1.2,1.5-2.4,2.3-3.6C100.4,178.2,100.6,179.5,100.8,180.7 M99.2,180.4c0.5,0,0.9,0,1.4,0.1c-0.1-0.6-0.2-1.2-0.3-1.8
	C99.9,179.3,99.5,179.8,99.2,180.4"/>
<path class="st0" d="M110.1,178.3c0.7-0.9,1.4-1.8,2.1-2.8c1.3,0.1,2.5,0.1,3.8,0.2c-1.6,1.9-3.1,3.8-4.7,5.6
	c-0.3,1.1-0.5,2.2-0.8,3.3c-1.1-0.1-2.3-0.2-3.4-0.3c0.3-1.1,0.5-2.3,0.8-3.4c-0.9-2-1.7-3.9-2.6-5.9c1.2,0.1,2.4,0.1,3.5,0.2
	C109.3,176.3,109.7,177.3,110.1,178.3 M112.4,175.8c-1,1.2-1.9,2.5-2.9,3.7c-0.5-1.3-1.1-2.6-1.6-3.9c-0.7,0-1.4-0.1-2.2-0.1
	c0.8,1.9,1.7,3.8,2.5,5.7c-0.3,1.1-0.5,2.1-0.8,3.2c0.7,0,1.4,0.1,2,0.2c0.3-1.1,0.5-2.1,0.8-3.2c1.5-1.8,3-3.6,4.5-5.4
	C113.9,175.8,113.1,175.8,112.4,175.8"/>
<path class="st0" d="M118.4,181.9l0,0.2c0,0.2,0,0.3,0,0.4c0,0.4,0.2,0.7,0.5,1c0.2,0.2,0.5,0.3,0.8,0.4c0.3,0,0.5-0.1,0.7-0.2
	c0.3-0.2,0.5-0.4,0.5-0.8c0-0.2-0.1-0.4-0.2-0.5c-0.1-0.2-0.5-0.4-1-0.6c-0.1-0.1-0.5-0.2-1-0.4c-0.7-0.3-1.2-0.5-1.5-0.7
	c-0.7-0.5-1.1-1.2-1.1-2c0-0.6,0.2-1.1,0.6-1.6c0.7-0.9,1.9-1.3,3.6-1.2c0.3,0,0.6,0,0.9,0.1c1.1,0.1,2,0.3,2.7,0.8
	c0.4,0.3,0.7,0.6,0.9,1.1c0.2,0.3,0.2,0.7,0.2,1.1c0,0.2,0,0.3,0,0.5v0.1c-1.1-0.1-2.2-0.2-3.3-0.3v-0.2c0-0.2,0-0.3,0-0.4
	c0-0.2-0.2-0.4-0.4-0.6c-0.2-0.2-0.4-0.3-0.7-0.4c-0.2,0-0.3,0-0.5,0.1c-0.4,0.2-0.6,0.4-0.6,0.8c0,0.2,0.1,0.4,0.2,0.5
	c0.2,0.1,0.5,0.3,1,0.5c0.9,0.3,1.5,0.6,1.9,0.8c0.5,0.2,0.9,0.5,1.1,0.7c0.5,0.5,0.7,1,0.7,1.7c0,0.7-0.2,1.3-0.7,1.9
	c-0.8,0.9-2.1,1.3-3.9,1.1c-0.3,0-0.6-0.1-0.9-0.1c-1.1-0.1-2.1-0.4-2.8-0.9c-0.4-0.3-0.7-0.7-0.9-1.2c-0.2-0.4-0.2-0.8-0.2-1.2
	c0-0.2,0-0.4,0.1-0.6c0,0,0-0.1,0-0.1C116.2,181.7,117.3,181.8,118.4,181.9 M123.8,179.2c0-0.1,0-0.3,0-0.4c0-0.6-0.2-1.1-0.5-1.5
	c-0.6-0.8-1.6-1.2-3.1-1.3c-1.3-0.1-2.2,0.1-2.9,0.6c-0.3,0.2-0.6,0.5-0.8,0.9c-0.2,0.4-0.3,0.7-0.3,1.1c0,0.7,0.3,1.3,1,1.8
	c0.3,0.2,1,0.5,2.1,1c0.5,0.2,0.8,0.3,0.9,0.4c0.3,0.2,0.6,0.4,0.7,0.6c0.1,0.2,0.2,0.4,0.2,0.5c0,0.3-0.1,0.6-0.4,0.8
	c-0.4,0.3-0.8,0.4-1.5,0.4c-0.4,0-0.8-0.1-1.1-0.3c-0.2-0.1-0.4-0.3-0.6-0.5c-0.2-0.3-0.3-0.6-0.3-0.9c0-0.1,0-0.2,0-0.4
	c-0.7-0.1-1.3-0.1-2-0.2c0,0.2-0.1,0.4-0.1,0.5c0,0.9,0.4,1.7,1.1,2.2c0.7,0.5,1.5,0.8,2.7,0.9c1.2,0.1,2.2,0,3-0.5
	c0.4-0.3,0.8-0.6,1-1.1c0.2-0.4,0.3-0.8,0.3-1.3c0-0.7-0.3-1.3-0.9-1.7c-0.3-0.3-1.2-0.7-2.7-1.3c-0.6-0.2-1-0.4-1.1-0.6
	c-0.2-0.2-0.2-0.4-0.2-0.6c0-0.4,0.2-0.7,0.5-0.8c0.3-0.2,0.7-0.3,1.2-0.2c0.5,0,0.9,0.2,1.2,0.4c0.4,0.3,0.6,0.6,0.6,1.1
	c0,0,0,0.1,0,0.2C122.5,179.1,123.1,179.1,123.8,179.2"/>
<path class="st0" d="M135.8,177.3c-0.1,0.7-0.3,1.3-0.4,2c-1.7-0.1-3.3-0.3-5-0.4c-0.1,0.6-0.3,1.2-0.4,1.8c1.6,0.1,3.1,0.3,4.7,0.4
	c-0.1,0.6-0.3,1.2-0.4,1.8c-1.6-0.1-3.1-0.3-4.7-0.4c-0.2,0.7-0.3,1.4-0.5,2c1.8,0.2,3.6,0.4,5.4,0.5c-0.2,0.7-0.3,1.3-0.5,2
	c-2.9-0.3-5.8-0.6-8.8-0.9c0.7-3.1,1.5-6.3,2.2-9.5C130.2,176.8,133,177,135.8,177.3 M129.3,178.5c1.7,0.1,3.3,0.3,5,0.4
	c0.1-0.5,0.2-1,0.3-1.5c-2.3-0.2-4.6-0.4-7-0.6c-0.7,3-1.4,6-2.1,9c2.5,0.2,4.9,0.5,7.4,0.8c0.1-0.5,0.2-1,0.4-1.5
	c-1.8-0.2-3.6-0.4-5.4-0.5c0.2-0.8,0.4-1.6,0.6-2.5c1.6,0.1,3.1,0.3,4.7,0.4c0.1-0.5,0.2-0.9,0.3-1.4c-1.6-0.1-3.1-0.3-4.7-0.4
	C128.9,180,129.1,179.2,129.3,178.5"/>
<path class="st0" d="M139.3,183.8l0,0.2c0,0.2,0,0.4,0,0.4c0,0.4,0.2,0.8,0.5,1.1c0.2,0.2,0.5,0.3,0.8,0.4c0.3,0,0.5-0.1,0.7-0.2
	c0.3-0.2,0.5-0.5,0.5-0.8c0-0.2-0.1-0.4-0.2-0.6c-0.1-0.2-0.5-0.4-1-0.6c-0.1-0.1-0.5-0.2-1-0.5c-0.7-0.3-1.2-0.6-1.5-0.8
	c-0.7-0.5-1.1-1.2-1.1-2.1c0-0.6,0.2-1.2,0.6-1.7c0.7-0.9,1.9-1.3,3.6-1.2c0.3,0,0.6,0,0.9,0.1c1.1,0.1,2,0.4,2.7,0.9
	c0.4,0.3,0.7,0.7,0.9,1.2c0.2,0.4,0.2,0.7,0.2,1.1c0,0.2,0,0.3,0,0.5v0.2c-1.1-0.1-2.2-0.2-3.3-0.3v-0.2c0-0.2,0-0.3,0-0.5
	c0-0.3-0.2-0.5-0.3-0.7c-0.2-0.2-0.4-0.3-0.7-0.4c-0.2,0-0.3,0-0.5,0.1c-0.4,0.2-0.6,0.4-0.6,0.8c0,0.2,0.1,0.4,0.2,0.5
	c0.2,0.1,0.5,0.3,1,0.5c0.9,0.4,1.5,0.7,1.9,0.9c0.5,0.3,0.9,0.5,1.1,0.8c0.5,0.5,0.7,1.1,0.7,1.8c0,0.7-0.2,1.4-0.7,2
	c-0.8,1-2.1,1.4-3.9,1.2c-0.3,0-0.6-0.1-0.9-0.1c-1.1-0.1-2.1-0.5-2.8-1c-0.4-0.3-0.7-0.8-0.9-1.3c-0.2-0.4-0.2-0.8-0.2-1.3
	c0-0.2,0-0.4,0.1-0.7c0,0,0-0.1,0-0.1C137.1,183.6,138.2,183.7,139.3,183.8 M144.7,181c0-0.1,0-0.3,0-0.4c0-0.6-0.2-1.1-0.5-1.6
	c-0.6-0.8-1.6-1.3-3.1-1.4c-1.3-0.1-2.2,0.1-2.9,0.6c-0.3,0.2-0.6,0.6-0.8,0.9c-0.2,0.4-0.3,0.8-0.3,1.2c0,0.8,0.3,1.4,1,1.9
	c0.3,0.2,1,0.5,2.1,1.1c0.5,0.2,0.8,0.3,0.9,0.4c0.3,0.2,0.6,0.4,0.7,0.6c0.1,0.2,0.2,0.4,0.2,0.6c0,0.3-0.1,0.6-0.4,0.8
	c-0.4,0.3-0.9,0.4-1.5,0.4c-0.4,0-0.8-0.2-1.1-0.4c-0.2-0.1-0.4-0.3-0.6-0.5c-0.2-0.3-0.3-0.6-0.3-0.9c0-0.1,0-0.2,0-0.4
	c-0.7-0.1-1.3-0.1-2-0.2c0,0.2-0.1,0.4-0.1,0.6c0,1,0.4,1.8,1.1,2.3c0.7,0.5,1.5,0.9,2.7,1c1.2,0.1,2.2,0,3-0.5
	c0.4-0.3,0.8-0.6,1-1.1c0.2-0.4,0.3-0.9,0.3-1.3c0-0.7-0.3-1.3-0.9-1.8c-0.3-0.3-1.2-0.7-2.7-1.4c-0.6-0.3-1-0.5-1.1-0.7
	c-0.2-0.2-0.2-0.4-0.2-0.6c0-0.4,0.2-0.7,0.5-0.9c0.3-0.2,0.7-0.3,1.2-0.2c0.5,0,0.9,0.2,1.2,0.4c0.4,0.3,0.6,0.7,0.6,1.2
	c0,0,0,0.1,0,0.2C143.4,180.9,144,180.9,144.7,181"/>
<path class="st0" d="M149.8,184.8c0,0.1,0,0.1,0,0.2c0,0.2,0,0.4,0,0.4c0,0.4,0.2,0.8,0.5,1.1c0.2,0.2,0.5,0.3,0.8,0.4
	c0.3,0,0.5-0.1,0.7-0.2c0.3-0.2,0.5-0.5,0.5-0.8c0-0.2-0.1-0.4-0.2-0.6c-0.1-0.2-0.5-0.4-1-0.6c-0.1-0.1-0.5-0.2-1.1-0.5
	c-0.7-0.3-1.2-0.6-1.5-0.8c-0.7-0.5-1.1-1.3-1.1-2.2c0-0.6,0.2-1.2,0.6-1.8c0.7-1,1.9-1.4,3.6-1.2c0.3,0,0.6,0,0.9,0.1
	c1.1,0.1,2,0.4,2.7,0.9c0.4,0.3,0.7,0.7,0.9,1.2c0.2,0.4,0.2,0.8,0.2,1.2c0,0.2,0,0.4,0,0.5v0.2c-1.1-0.1-2.2-0.2-3.3-0.3v-0.2
	c0-0.2,0-0.4,0-0.5c0-0.3-0.2-0.5-0.3-0.7c-0.2-0.2-0.4-0.3-0.7-0.4c-0.2,0-0.3,0.1-0.5,0.1c-0.4,0.2-0.6,0.4-0.6,0.8
	c0,0.2,0.1,0.4,0.2,0.5c0.2,0.1,0.5,0.3,1,0.5c0.9,0.4,1.5,0.7,1.9,0.9c0.5,0.3,0.9,0.5,1.1,0.8c0.5,0.5,0.7,1.1,0.7,1.8
	c0,0.8-0.2,1.4-0.7,2c-0.8,1-2.1,1.4-3.9,1.2c-0.3,0-0.6-0.1-0.9-0.1c-1.1-0.1-2.1-0.5-2.8-1c-0.4-0.3-0.7-0.8-0.9-1.3
	c-0.2-0.4-0.2-0.8-0.2-1.3c0-0.2,0-0.4,0.1-0.7c0,0,0-0.1,0-0.1C147.5,184.6,148.6,184.7,149.8,184.8 M155.1,181.9
	c0-0.2,0-0.3,0-0.4c0-0.6-0.2-1.1-0.5-1.6c-0.6-0.8-1.6-1.3-3.1-1.4c-1.3-0.1-2.2,0.1-2.9,0.6c-0.3,0.2-0.6,0.6-0.8,1
	c-0.2,0.4-0.3,0.8-0.3,1.2c0,0.8,0.3,1.5,1,2c0.3,0.2,1,0.6,2.1,1.1c0.5,0.2,0.8,0.3,0.9,0.4c0.3,0.2,0.6,0.4,0.7,0.6
	c0.1,0.2,0.2,0.4,0.2,0.6c0,0.3-0.1,0.6-0.4,0.9c-0.4,0.3-0.9,0.5-1.5,0.4c-0.4,0-0.8-0.2-1.1-0.4c-0.2-0.1-0.4-0.3-0.6-0.5
	c-0.2-0.3-0.3-0.6-0.3-0.9c0-0.1,0-0.2,0-0.4c-0.7-0.1-1.3-0.1-2-0.2c0,0.2-0.1,0.4-0.1,0.6c0,1,0.4,1.8,1.1,2.4
	c0.7,0.5,1.5,0.9,2.7,1c1.2,0.1,2.2-0.1,3-0.5c0.4-0.3,0.8-0.7,1-1.1c0.2-0.4,0.3-0.9,0.3-1.4c0-0.7-0.3-1.4-0.9-1.9
	c-0.3-0.3-1.2-0.7-2.7-1.4c-0.6-0.3-1-0.5-1.1-0.7c-0.2-0.2-0.2-0.4-0.2-0.6c0-0.4,0.2-0.7,0.5-0.9c0.3-0.2,0.7-0.3,1.2-0.2
	c0.5,0,0.9,0.2,1.2,0.4c0.4,0.3,0.6,0.7,0.6,1.2c0,0,0,0.1,0,0.2C153.8,181.8,154.5,181.8,155.1,181.9"/>
<path class="st0" d="M162.2,179.2c-0.7,3.5-1.5,6.9-2.2,10.3c-1.1-0.1-2.2-0.2-3.3-0.3c0.7-3.4,1.5-6.8,2.2-10.2
	C159.9,179.1,161,179.2,162.2,179.2 M159,179.3c-0.7,3.3-1.4,6.5-2.1,9.8c0.7,0.1,1.3,0.1,2,0.2c0.7-3.3,1.4-6.5,2.1-9.8
	C160.3,179.4,159.7,179.3,159,179.3"/>
<path class="st0" d="M168.2,190.5c-0.3,0-0.6,0-0.9-0.1c-1.2-0.1-2.3-0.5-3.1-1.4c-1-0.9-1.5-2.2-1.5-3.8c0-1.2,0.3-2.3,0.8-3.3
	c0.6-1.1,1.4-1.8,2.4-2.3c0.8-0.4,1.6-0.5,2.5-0.5c0.3,0,0.6,0,0.9,0c1.1,0.1,2.1,0.4,2.9,1.1c0.5,0.4,0.9,1,1.2,1.7
	c0.3,0.7,0.4,1.5,0.4,2.3c0,1.3-0.3,2.5-0.9,3.6c-0.6,1.1-1.5,1.8-2.5,2.2C169.6,190.5,168.9,190.6,168.2,190.5 M168.3,179.5
	c-0.7,0-1.4,0.1-2.1,0.3c-0.6,0.3-1.2,0.7-1.7,1.2c-0.5,0.5-0.9,1.2-1.2,2c-0.3,0.7-0.4,1.5-0.4,2.3c0,1.5,0.5,2.7,1.4,3.6
	c0.8,0.8,1.8,1.2,3,1.3c1.3,0.1,2.5-0.3,3.5-1.2c0.7-0.6,1.2-1.3,1.5-2.2c0.3-0.8,0.4-1.6,0.4-2.4c0-0.6-0.1-1.1-0.2-1.6
	c-0.1-0.5-0.3-1-0.6-1.3c-0.4-0.7-1.1-1.2-1.9-1.5C169.5,179.7,169,179.6,168.3,179.5 M168.4,181.1c0.6,0,1.2,0.3,1.6,0.7
	c0.5,0.5,0.7,1.3,0.7,2.2c0,0.6-0.1,1.2-0.3,1.8c-0.2,0.6-0.5,1.1-0.8,1.5c-0.4,0.5-0.8,0.8-1.3,1c-0.3,0.1-0.7,0.2-1,0.1
	c-0.3,0-0.7-0.1-1-0.3c-0.3-0.2-0.6-0.4-0.8-0.6c-0.4-0.5-0.6-1.2-0.6-2c0-0.9,0.2-1.7,0.6-2.5c0.4-0.8,0.9-1.3,1.5-1.7
	C167.4,181.2,167.9,181.1,168.4,181.1 M168.8,181.4c-0.3,0-0.5,0.1-0.7,0.2c-0.7,0.3-1.2,0.9-1.6,1.7c-0.4,0.7-0.5,1.5-0.5,2.4
	c0,1.1,0.3,1.8,1,2.3c0.2,0.2,0.5,0.3,0.7,0.3c0.2,0,0.3-0.1,0.5-0.1c0.8-0.3,1.4-0.9,1.8-1.8c0.3-0.7,0.5-1.5,0.5-2.3
	c0-1.1-0.4-1.9-1.1-2.4C169.2,181.6,169,181.5,168.8,181.4"/>
<path class="st0" d="M181.6,185.6c0.4-1.8,0.7-3.7,1.1-5.5c1.1,0,2.1,0,3.2,0c-0.7,3.7-1.5,7.4-2.2,11c-1.1,0-2.2-0.1-3.3-0.1
	c-0.6-1.9-1.2-3.7-1.9-5.6c-0.4,1.8-0.7,3.6-1.1,5.4c-1.1-0.1-2.1-0.1-3.2-0.2c0.7-3.6,1.5-7.1,2.2-10.7c1.1,0,2.2,0.1,3.2,0.1
	C180.4,181.9,181,183.7,181.6,185.6 M182.7,190.8c0.7-3.5,1.4-7,2.1-10.5c-0.6,0-1.2,0-1.9,0c-0.5,2.6-1,5.2-1.6,7.8
	c-0.9-2.6-1.8-5.2-2.7-7.9c-0.7,0-1.3,0-2-0.1c-0.7,3.4-1.4,6.9-2.1,10.3c0.6,0,1.2,0.1,1.9,0.1c0.5-2.5,1-5.1,1.5-7.7
	c0.9,2.6,1.8,5.2,2.6,7.9C181.3,190.8,182,190.8,182.7,190.8"/>
<path class="st0" d="M189.5,187.1c0,0.1,0,0.1,0,0.2c0,0.3,0,0.4,0,0.5c0,0.5,0.2,0.8,0.5,1.2c0.2,0.2,0.5,0.3,0.8,0.4
	c0.3-0.1,0.5-0.2,0.7-0.3c0.3-0.3,0.5-0.6,0.5-1c0-0.2-0.1-0.4-0.2-0.6c-0.1-0.2-0.5-0.4-1-0.6c-0.1,0-0.5-0.2-1.1-0.4
	c-0.7-0.3-1.2-0.5-1.5-0.7c-0.7-0.5-1.1-1.3-1.1-2.3c0-0.7,0.2-1.4,0.6-2c0.7-1.1,1.9-1.7,3.6-1.7c0.3,0,0.6,0,0.9,0
	c1.1,0,2,0.2,2.7,0.7c0.4,0.3,0.7,0.7,0.9,1.2c0.2,0.4,0.2,0.8,0.2,1.2c0,0.2,0,0.4,0,0.6v0.2c-1.1,0-2.2,0.1-3.3,0.1v-0.2
	c0-0.2,0-0.4,0-0.5c0-0.3-0.2-0.5-0.3-0.7c-0.2-0.2-0.4-0.3-0.7-0.4c-0.2,0-0.3,0.1-0.5,0.2c-0.4,0.2-0.6,0.5-0.6,1
	c0,0.2,0.1,0.4,0.2,0.6c0.2,0.1,0.5,0.3,1,0.5c0.9,0.3,1.5,0.6,1.9,0.8c0.5,0.2,0.9,0.5,1.1,0.7c0.5,0.5,0.7,1.1,0.7,1.9
	c0,0.8-0.2,1.6-0.7,2.3c-0.8,1.2-2.1,1.8-3.9,1.7c-0.3,0-0.6,0-0.9,0c-1.1,0-2.1-0.3-2.8-0.9c-0.4-0.3-0.7-0.8-0.9-1.3
	c-0.2-0.4-0.2-0.9-0.2-1.4c0-0.2,0-0.5,0.1-0.8c0,0,0-0.1,0-0.1C187.3,187.1,188.4,187.1,189.5,187.1 M194.9,183.3
	c0-0.2,0-0.3,0-0.4c0-0.7-0.2-1.2-0.5-1.7c-0.6-0.8-1.6-1.2-3.1-1.2c-1.3,0-2.2,0.3-2.9,0.9c-0.3,0.3-0.6,0.7-0.8,1.1
	c-0.2,0.4-0.3,0.9-0.3,1.3c0,0.9,0.3,1.6,1,2c0.3,0.2,1,0.5,2.1,1c0.5,0.2,0.8,0.3,0.9,0.4c0.3,0.2,0.6,0.4,0.7,0.6
	c0.1,0.2,0.2,0.4,0.2,0.6c0,0.4-0.1,0.7-0.4,1c-0.4,0.4-0.9,0.6-1.5,0.6c-0.4,0-0.8-0.1-1.1-0.3c-0.2-0.1-0.4-0.3-0.6-0.5
	c-0.2-0.3-0.3-0.6-0.3-1c0-0.1,0-0.2,0-0.4c-0.7,0-1.3,0-2,0c0,0.2-0.1,0.4-0.1,0.6c0,1.1,0.4,2,1.1,2.5c0.7,0.5,1.5,0.8,2.7,0.8
	c1.2,0,2.2-0.3,3-0.9c0.4-0.3,0.8-0.8,1-1.4c0.2-0.5,0.3-1,0.3-1.5c0-0.8-0.3-1.5-0.9-1.9c-0.3-0.3-1.2-0.7-2.7-1.2
	c-0.6-0.2-1-0.4-1.1-0.6c-0.2-0.2-0.2-0.4-0.2-0.7c0-0.4,0.2-0.8,0.5-1.1c0.3-0.2,0.7-0.4,1.2-0.4c0.5,0,0.9,0.1,1.2,0.3
	c0.4,0.3,0.6,0.7,0.6,1.2c0,0.1,0,0.1,0,0.2C193.6,183.4,194.2,183.4,194.9,183.3"/>
<path class="st0" d="M196.4,191.3c0.7-3.8,1.5-7.6,2.2-11.4c1.5-0.1,3-0.1,4.5-0.2c0.9-0.1,1.6,0,2,0.1c0.9,0.3,1.5,0.9,2,1.9
	c0.3,0.7,0.5,1.5,0.5,2.4c0,1.3-0.3,2.5-0.8,3.7c-0.6,1.4-1.6,2.3-2.8,2.9c-0.7,0.3-1.5,0.5-2.5,0.6
	C199.8,191.2,198.1,191.2,196.4,191.3 M196.6,191c1.3,0,2.7,0,4-0.1c1.7-0.1,3.1-0.7,4.1-1.8c0.6-0.6,1-1.4,1.3-2.3
	c0.3-0.9,0.4-1.8,0.4-2.7c0-1.6-0.4-2.8-1.3-3.5c-0.4-0.4-0.9-0.6-1.5-0.7c-0.4-0.1-0.8-0.1-1.4,0c-1.2,0.1-2.3,0.1-3.5,0.2
	C198,183.7,197.3,187.4,196.6,191 M199,189.1c0.5-2.4,0.9-4.9,1.4-7.3c0.5,0,1-0.1,1.5-0.1c0.5,0,0.9,0,1.2,0.1
	c0.5,0.2,0.8,0.5,1,1.1c0.2,0.4,0.2,0.9,0.2,1.4c0,0.9-0.2,1.7-0.5,2.5c-0.4,0.9-0.9,1.6-1.6,1.9c-0.4,0.2-0.9,0.3-1.6,0.3
	C200.1,189.1,199.6,189.1,199,189.1 M200.2,188.8c0.2,0,0.4,0,0.5,0c0.6,0,1.1-0.1,1.5-0.3c0.6-0.3,1.1-0.9,1.5-1.8
	c0.3-0.7,0.5-1.5,0.5-2.4c0-1.3-0.4-2.1-1.3-2.3c-0.3-0.1-0.6-0.1-1-0.1c-0.2,0-0.3,0-0.5,0C201,184.3,200.6,186.5,200.2,188.8"/>
<path class="st0" d="M218.3,178.1c-0.2,0.8-0.3,1.7-0.5,2.5c-0.9,0.1-1.9,0.2-2.8,0.3c-0.6,3.2-1.2,6.4-1.7,9.5
	c-1.1,0.1-2.2,0.2-3.4,0.3c0.6-3.1,1.2-6.3,1.7-9.5c-1,0.1-2.1,0.2-3.1,0.3c0.1-0.8,0.3-1.6,0.4-2.4
	C212.1,178.8,215.2,178.5,218.3,178.1 M214,180.7c0.9-0.1,1.9-0.2,2.8-0.3c0.1-0.6,0.2-1.3,0.4-1.9c-2.6,0.3-5.3,0.6-7.9,0.9
	c-0.1,0.6-0.2,1.3-0.4,1.9c1-0.1,2.1-0.2,3.1-0.3c-0.6,3.2-1.2,6.3-1.7,9.5c0.7-0.1,1.3-0.1,2-0.2
	C212.8,187.1,213.4,183.9,214,180.7"/>
<path class="st0" d="M221.3,187.1c1.6-0.2,3.2-0.5,4.8-0.7c-0.2,0.9-0.3,1.7-0.5,2.6c-2.7,0.4-5.5,0.8-8.2,1.1
	c0.7-4,1.5-8.1,2.2-12.2c1.1-0.2,2.2-0.3,3.3-0.5C222.5,180.6,221.9,183.9,221.3,187.1 M220.2,187.5c0.6-3.2,1.2-6.5,1.7-9.7
	c-0.7,0.1-1.3,0.2-2,0.3c-0.7,3.9-1.4,7.8-2.1,11.6c2.3-0.3,4.6-0.6,6.8-0.9c0.1-0.7,0.2-1.3,0.4-2
	C223.4,187.1,221.8,187.3,220.2,187.5"/>
<path class="st0" d="M235.5,174.8c0.6,3.9,1.3,7.9,1.9,11.9c-1.1,0.3-2.2,0.5-3.3,0.7c-0.1-0.9-0.2-1.7-0.3-2.6
	c-0.9,0.2-1.8,0.4-2.7,0.6c-0.4,1-0.8,1.9-1.2,2.9c-1.1,0.2-2.2,0.4-3.4,0.6c2-4.3,4-8.8,5.9-13.3
	C233.4,175.3,234.5,175,235.5,174.8 M233.9,184.5c0.1,0.9,0.2,1.7,0.3,2.6c0.7-0.1,1.3-0.3,2-0.4c-0.6-3.8-1.2-7.6-1.8-11.3
	c-0.7,0.2-1.3,0.3-2,0.4c-1.9,4.3-3.8,8.5-5.7,12.7c0.7-0.1,1.3-0.2,2-0.3c0.4-1,0.8-1.9,1.2-2.9C231.3,185,232.6,184.7,233.9,184.5
	 M233.7,182.9c-1,0.2-2,0.4-2.9,0.6c0.8-1.8,1.5-3.6,2.3-5.4C233.3,179.7,233.5,181.3,233.7,182.9 M232.1,183
	c0.5-0.1,0.9-0.2,1.4-0.3c-0.1-0.8-0.2-1.5-0.3-2.3C232.8,181.3,232.4,182.1,232.1,183"/>
<path class="st0" d="M87.8,193.5c-0.4,0.2-0.9,0.3-1.3,0.3c-0.3,0-0.6,0-0.9,0c-0.7,0-1.3-0.3-1.7-0.8c0.5,0.9,1.5,1.5,2.8,1.6
	c0.9,0,1.6-0.1,2.3-0.3c0.1,0,0.1,0,0.2,0c0.3,0,0.6,0,0.9,0c0.1,0.4,0.2,0.8,0.2,1.3c0,0-0.1,0-0.1,0c-0.4,0.1-0.7,0.1-1,0.2
	c-0.7,0.1-1.5,0.1-2.2,0.1c-0.3,0-0.6,0-0.9,0c-1.6-0.1-2.8-0.5-3.7-1.3c-0.5-0.4-0.8-0.9-1.1-1.5c-0.2-0.4-0.2-0.9-0.2-1.3
	c0-0.6,0.1-1.2,0.4-1.7c0.5-1,1.2-1.8,2.2-2.3c1-0.6,2.1-0.8,3.2-0.8c0.3,0,0.6,0,0.9,0c0.7,0,1.3,0.1,1.9,0.3
	c0.6,0.2,1.1,0.5,1.5,0.8c0.5,0.4,0.8,0.9,1,1.5c0.1,0.4,0.2,0.8,0.2,1.2c0,0.6-0.1,1.1-0.4,1.6c-0.4,0.7-0.8,1.2-1.5,1.5
	c-0.4,0.2-0.7,0.3-1.1,0.2c-0.3,0-0.6,0-0.9,0C88.3,193.7,88,193.6,87.8,193.5 M88.2,189.3c-0.1,0.2-0.1,0.4-0.2,0.6
	c-0.1-0.2-0.2-0.3-0.3-0.4c-0.3-0.3-0.7-0.4-1.2-0.4c-0.7,0-1.3,0.2-1.8,0.6c-0.3,0.3-0.6,0.6-0.8,0.9c-0.2,0.4-0.3,0.7-0.3,1.1
	c0,0.4,0.2,0.8,0.5,1.2c0.3,0.4,0.8,0.6,1.4,0.6c0.6,0,1.1-0.1,1.6-0.4c0.1-0.1,0.2-0.2,0.4-0.4c0,0,0,0.1,0,0.1
	c0,0.2,0.1,0.3,0.2,0.4c0.2,0.2,0.5,0.3,0.8,0.3c0.7,0,1.3-0.2,1.8-0.8c0.3-0.3,0.5-0.7,0.7-1.1c0.1-0.4,0.2-0.8,0.2-1.2
	c0-0.5-0.1-0.9-0.3-1.4c-0.2-0.4-0.5-0.8-0.9-1.1c-0.4-0.3-0.9-0.6-1.4-0.8c-0.5-0.2-1.1-0.3-1.7-0.3c-1.2,0-2.2,0.2-3.2,0.8
	c-1,0.5-1.7,1.3-2.2,2.2c-0.3,0.6-0.4,1.1-0.4,1.7c0,0.5,0.1,1,0.3,1.5c0.2,0.5,0.5,0.9,0.9,1.3c0.9,0.8,2.1,1.2,3.6,1.3
	c1.1,0.1,2.2,0,3.1-0.2c-0.1-0.3-0.1-0.6-0.2-0.9c-0.9,0.2-1.8,0.3-2.8,0.3c-0.7,0-1.2-0.1-1.7-0.3s-0.9-0.4-1.2-0.7
	c-0.6-0.6-0.9-1.3-0.9-2.2c0-0.9,0.4-1.7,1.1-2.4c0.4-0.4,0.9-0.8,1.5-1c0.6-0.2,1.3-0.4,2-0.3c0.5,0,1,0.1,1.4,0.2
	c0.4,0.1,0.8,0.3,1.1,0.6c0.6,0.5,0.9,1.1,0.9,1.9c0,0.6-0.2,1.2-0.6,1.7c-0.3,0.4-0.7,0.6-1,0.6c-0.1,0-0.2,0-0.3-0.1
	c-0.1-0.1-0.1-0.2-0.1-0.3c0-0.1,0.1-0.3,0.2-0.7c0.3-0.8,0.5-1.6,0.8-2.4C89,189.3,88.6,189.3,88.2,189.3 M83.5,191.3
	c0.1-0.5,0.3-0.9,0.7-1.3c0.7-0.7,1.4-1.1,2.3-1.1c0.3,0,0.6,0,0.9,0c0.3,0,0.6,0.1,0.8,0.2c0.5,0,1,0,1.5,0.1
	c-0.3-0.5-0.8-0.8-1.5-1c-0.3-0.1-0.5-0.1-0.8-0.2c-0.9,0.1-1.8,0.3-2.5,0.9c-0.7,0.5-1.1,1.1-1.3,1.9
	C83.6,190.9,83.6,191.1,83.5,191.3 M86.6,190.1c0.3,0,0.6,0.1,0.8,0.4c0.1,0.2,0.2,0.3,0.2,0.6c0,0.2,0,0.4-0.1,0.6
	c-0.1,0.2-0.2,0.4-0.4,0.5c-0.3,0.3-0.7,0.5-1.1,0.4c-0.3,0-0.6-0.1-0.8-0.3c-0.2-0.2-0.2-0.4-0.2-0.6c0-0.4,0.2-0.8,0.5-1.1
	C85.8,190.3,86.2,190.1,86.6,190.1 M87,190.4c-0.1,0-0.2,0.1-0.3,0.2c-0.2,0.1-0.3,0.3-0.4,0.5c-0.1,0.2-0.2,0.4-0.2,0.6
	c0,0.3,0.1,0.5,0.3,0.6c0.1,0,0.2-0.1,0.3-0.2c0.2-0.1,0.3-0.3,0.4-0.6c0.1-0.2,0.1-0.4,0.1-0.5C87.4,190.8,87.3,190.6,87,190.4
	 M90.1,190.3c-0.2,0.6-0.4,1.2-0.6,1.8C89.9,191.6,90.1,191,90.1,190.3"/>
<path class="st0" d="M96,196.3v0.1c0,0.4,0.3,0.6,0.7,0.8c0,0,0,0,0.1,0c0.5-0.1,0.9-0.4,1.1-1.1c-0.3,0-0.6,0-0.9,0
	c-0.3,0-0.6,0-0.9-0.1c-0.8-0.1-1.4-0.3-1.9-0.7c-0.7-0.5-1-1.2-1-2.2c0-1.1,0.4-2,1.1-2.7c0.7-0.7,1.7-1.1,2.9-1
	c0.3,0,0.6,0,0.9,0.1c0.6,0,1.1,0.2,1.5,0.4c0,0,0,0,0-0.1c1,0.1,2,0.1,3,0.2c-0.5,2.1-1,4.2-1.6,6.3c-0.2,0.6-0.4,1-0.6,1.3
	c-0.7,0.8-1.8,1.1-3.5,0.9c-0.3,0-0.6-0.1-0.9-0.1c-0.9-0.1-1.6-0.2-2.1-0.5c-0.3-0.2-0.6-0.4-0.8-0.7c-0.2-0.3-0.3-0.6-0.3-0.9
	c0-0.1,0-0.2,0-0.2v-0.1C93.9,196.1,94.9,196.2,96,196.3 M93,196.3c0,1.2,1,1.9,3,2.1c1.2,0.1,2.1,0,2.8-0.4
	c0.3-0.2,0.5-0.4,0.7-0.7c0.2-0.3,0.3-0.6,0.4-1c0.5-2,1-4,1.5-6.1c-0.6,0-1.1-0.1-1.7-0.1c-0.1,0.3-0.2,0.6-0.2,0.9
	c-0.2-0.3-0.4-0.5-0.5-0.6c-0.4-0.4-1-0.6-1.8-0.7c-1.1-0.1-2,0.2-2.7,0.9c-0.7,0.7-1.1,1.6-1.1,2.6c0,0.9,0.3,1.6,0.9,2.1
	c0.5,0.4,1.1,0.6,1.9,0.6c0.6,0,1.1,0,1.6-0.3c0.1-0.1,0.4-0.2,0.6-0.4c-0.2,0.6-0.3,1-0.4,1.2c-0.2,0.4-0.5,0.7-0.9,0.8
	c-0.3,0.1-0.6,0.2-0.9,0.1c-0.5,0-0.9-0.2-1.1-0.5c-0.1-0.1-0.2-0.3-0.2-0.5C94.3,196.4,93.6,196.3,93,196.3 M97.5,190.7
	c0.4,0,0.8,0.2,1,0.4c0.3,0.3,0.4,0.6,0.4,1.1c0,0.6-0.2,1.2-0.5,1.7c-0.4,0.7-1,1-1.9,1c-0.5,0-0.9-0.2-1.2-0.6
	c-0.2-0.3-0.3-0.7-0.3-1.1c0-0.7,0.2-1.3,0.7-1.8c0.2-0.2,0.5-0.4,0.7-0.5S97.2,190.7,97.5,190.7 M98,191c-0.3,0.1-0.5,0.2-0.8,0.3
	c-0.3,0.2-0.5,0.5-0.7,0.9c-0.1,0.3-0.2,0.7-0.2,1.1c0,0.5,0.2,0.9,0.5,1.2c0.1,0.1,0.2,0.1,0.3,0.2c0.2,0,0.4-0.1,0.6-0.2
	c0.3-0.2,0.5-0.4,0.7-0.9c0.2-0.4,0.3-0.9,0.3-1.4c0-0.5-0.2-0.8-0.6-1.1C98.1,191.1,98,191,98,191"/>
<path class="st0" d="M109.8,190.5c-0.1,0.6-0.3,1.2-0.4,1.8c-0.3,0-0.6-0.1-0.9-0.1c-0.1,0-0.1,0-0.2-0.1c-0.4,0.1-0.7,0.2-0.9,0.5
	c-0.2,0.3-0.4,0.7-0.5,1.2c-0.3,1.1-0.5,2.1-0.8,3.2c-1.1-0.1-2.1-0.2-3.2-0.3c0.5-2.2,1.1-4.4,1.6-6.6c0.9,0.1,1.8,0.1,2.7,0.2
	c0.3-0.1,0.6-0.2,1-0.1c0.3,0,0.6,0.1,0.9,0.1c0.2,0,0.4,0.1,0.6,0.1C109.7,190.5,109.7,190.5,109.8,190.5 M104.7,190.4
	c-0.5,2.1-1,4.1-1.5,6.2c0.6,0.1,1.2,0.1,1.8,0.2c0.2-1,0.5-2,0.7-3c0.1-0.3,0.2-0.6,0.3-0.8c0.1-0.2,0.3-0.4,0.4-0.6
	c0.4-0.3,0.8-0.5,1.3-0.4c0.1,0,0.3,0,0.5,0.1c0.1-0.5,0.2-1,0.3-1.4c-0.2,0-0.3-0.1-0.5-0.1c-0.6-0.1-1.1,0.1-1.5,0.6
	c-0.1,0.1-0.3,0.3-0.5,0.6c0.1-0.4,0.1-0.8,0.2-1.2C105.7,190.5,105.2,190.5,104.7,190.4"/>
<path class="st0" d="M113.4,193.3c-1-0.1-2.1-0.2-3.1-0.3c0-0.1,0-0.1,0.1-0.2c0.2-0.6,0.5-1.1,1-1.5c0.6-0.4,1.6-0.6,2.8-0.5
	c0.3,0,0.6,0.1,0.9,0.1c0.9,0.1,1.6,0.3,2.2,0.6c0.4,0.2,0.6,0.5,0.8,0.8c0.1,0.2,0.2,0.5,0.2,0.8c0,0.2-0.1,0.6-0.2,1
	c-0.2,0.9-0.4,1.7-0.6,2.6c-0.1,0.3-0.1,0.5-0.1,0.6c0,0.1,0,0.4,0.1,0.7l0,0.2c-1.1-0.1-2.1-0.3-3.2-0.4c-0.4,0.1-0.8,0.1-1.3,0.1
	c-0.3,0-0.6-0.1-0.9-0.1c-0.7-0.1-1.2-0.3-1.7-0.7c-0.3-0.2-0.5-0.5-0.6-0.8c-0.1-0.3-0.2-0.6-0.2-0.9c0-0.5,0.2-1,0.6-1.3
	c0.4-0.4,0.9-0.6,1.7-0.6c0.4,0,1.2,0,2.4,0c0.4,0,0.6,0,0.7-0.1c0.1,0,0.1-0.1,0.2-0.2c0.1-0.1,0.1-0.2,0.1-0.3
	c0-0.3-0.2-0.5-0.6-0.7c-0.2,0-0.3,0.1-0.5,0.1C113.8,192.6,113.6,192.9,113.4,193.3C113.4,193.2,113.4,193.3,113.4,193.3
	 M112.4,193c0.1-0.3,0.2-0.5,0.4-0.6c0.3-0.3,0.7-0.4,1.3-0.3c0.3,0,0.6,0.1,0.8,0.3c0.3,0.2,0.4,0.4,0.4,0.7c0,0.1,0,0.3-0.1,0.4
	c-0.1,0.1-0.2,0.2-0.3,0.3c-0.1,0.1-0.4,0.1-0.8,0.1c-1.2,0-1.9,0-2.4,0c-0.7,0-1.2,0.2-1.5,0.6c-0.3,0.3-0.5,0.7-0.5,1.2
	c0,0.6,0.3,1.1,0.8,1.5c0.4,0.3,1,0.5,1.6,0.6c0.7,0.1,1.3,0,1.8-0.3c0.1-0.1,0.3-0.2,0.5-0.3l0,0.7c0.6,0.1,1.3,0.1,1.9,0.2
	c-0.1-0.3-0.1-0.5-0.1-0.7c0-0.2,0-0.4,0.1-0.7c0.2-0.9,0.4-1.7,0.6-2.6c0.1-0.5,0.2-0.8,0.2-1c0-0.6-0.3-1.1-0.9-1.4
	c-0.5-0.3-1.2-0.5-2.1-0.6c-1.3-0.1-2.2,0-2.8,0.5c-0.4,0.3-0.6,0.7-0.7,1.2C111.1,192.9,111.8,192.9,112.4,193 M114.9,194.6
	c-0.1,0.5-0.2,0.9-0.3,1.1c-0.2,0.4-0.5,0.7-1,0.9c-0.3,0.1-0.7,0.2-1,0.1c-0.3,0-0.6-0.1-0.8-0.3c-0.2-0.2-0.4-0.4-0.4-0.7
	c0-0.3,0.1-0.5,0.3-0.6c0.2-0.2,0.6-0.3,1-0.3c0.1,0,0.4,0,1,0C114.1,194.7,114.5,194.7,114.9,194.6 M114.6,195c-0.2,0-0.3,0-0.5,0
	c-0.5,0-0.8,0.1-1.1,0.2c-0.3,0.1-0.4,0.3-0.4,0.6c0,0.3,0.2,0.6,0.5,0.7c0.4-0.1,0.7-0.2,1-0.5C114.3,195.8,114.5,195.5,114.6,195"
	/>
<path class="st0" d="M124.9,192c0.3,0,0.6,0.1,0.9,0.1c0.5,0.1,1,0.2,1.4,0.5c0.3,0.2,0.5,0.4,0.7,0.7c0.2,0.3,0.2,0.6,0.2,0.9
	c0,0.3-0.1,0.7-0.2,1.2c-0.3,1.4-0.6,2.8-1,4.2c-1.1-0.1-2.1-0.3-3.2-0.4c0.3-1.4,0.7-2.8,1-4.2c0.1-0.2,0.1-0.4,0.1-0.6
	c0-0.3-0.1-0.5-0.3-0.6c0,0-0.1,0-0.1-0.1c-0.8,0.1-1.4,0.8-1.6,1.9c-0.3,1.1-0.5,2.2-0.8,3.2c-1.1-0.1-2.1-0.3-3.2-0.4
	c0.5-2.3,1.1-4.5,1.6-6.8c1.1,0.1,2.1,0.2,3.1,0.4C124.1,192,124.5,192,124.9,192 M122.5,192.2c-0.6-0.1-1.2-0.1-1.8-0.2
	c-0.5,2.1-1,4.3-1.5,6.4c0.6,0.1,1.2,0.2,1.8,0.2c0.2-1,0.5-2,0.7-3.1c0.2-0.7,0.4-1.3,0.8-1.6c0.2-0.2,0.4-0.3,0.7-0.4
	c0.3-0.1,0.5-0.1,0.8-0.1c0.3,0,0.5,0.1,0.7,0.2c0.3,0.2,0.4,0.5,0.4,0.8c0,0.2,0,0.4-0.1,0.6c-0.3,1.3-0.6,2.6-0.9,3.9
	c0.6,0.1,1.2,0.2,1.8,0.2c0.3-1.3,0.6-2.7,0.9-4c0.1-0.5,0.2-0.9,0.2-1.2c0-0.6-0.3-1.1-0.8-1.4c-0.4-0.2-0.8-0.4-1.3-0.4
	c-0.8-0.1-1.5,0.1-2.1,0.5c-0.1,0.1-0.3,0.3-0.6,0.5C122.3,192.9,122.4,192.6,122.5,192.2"/>
<path class="st0" d="M135.6,193.6c0.2-0.9,0.4-1.8,0.6-2.7c1.1,0.1,2.1,0.2,3.2,0.4c-0.7,3.2-1.5,6.5-2.2,9.7c-1-0.1-2-0.3-3-0.4
	c-0.4,0.1-0.8,0.1-1.2,0c-0.3,0-0.6-0.1-0.9-0.1c-0.8-0.1-1.5-0.5-2-1.1s-0.8-1.4-0.8-2.3c0-0.9,0.2-1.7,0.6-2.5
	c0.4-0.7,1-1.2,1.7-1.4c0.5-0.2,1.1-0.2,1.7-0.2c0.3,0,0.6,0.1,0.9,0.1C134.7,193.2,135.2,193.3,135.6,193.6 M136.4,191.2
	c-0.3,1.2-0.5,2.4-0.8,3.6c-0.2-0.3-0.4-0.5-0.5-0.7c-0.5-0.5-1.1-0.8-1.8-0.9c-0.6-0.1-1.2,0-1.8,0.3c-0.6,0.3-1.1,0.8-1.5,1.6
	c-0.3,0.6-0.4,1.3-0.4,2.1c0,0.9,0.2,1.6,0.7,2.2c0.5,0.6,1.1,0.9,1.9,1c0.7,0.1,1.4,0,1.8-0.4c0.1-0.1,0.3-0.3,0.6-0.6
	c-0.1,0.4-0.2,0.7-0.2,1.1c0.6,0.1,1.2,0.2,1.7,0.2c0.7-3.1,1.4-6.1,2.1-9.2C137.6,191.3,137,191.3,136.4,191.2 M133.7,194.5
	c0.5,0.1,0.8,0.3,1.1,0.6c0.2,0.3,0.4,0.7,0.4,1.1c0,0.6-0.1,1.2-0.4,1.7c-0.5,0.9-1.1,1.3-1.9,1.2c-0.5-0.1-0.9-0.3-1.1-0.7
	c-0.2-0.3-0.4-0.7-0.4-1.2c0-0.8,0.2-1.4,0.6-2C132.4,194.7,133,194.4,133.7,194.5 M134.1,194.8c-0.3,0.1-0.5,0.2-0.8,0.4
	c-0.3,0.3-0.5,0.6-0.6,1c-0.1,0.4-0.2,0.8-0.2,1.2c0,0.3,0.1,0.6,0.2,0.8c0.1,0.3,0.3,0.5,0.6,0.7c0.2,0,0.4-0.1,0.6-0.3
	c0.3-0.2,0.5-0.5,0.7-1c0.2-0.5,0.3-0.9,0.3-1.4c0-0.2,0-0.5-0.1-0.7c-0.1-0.2-0.2-0.4-0.4-0.5C134.3,194.9,134.2,194.9,134.1,194.8
	"/>
<path class="st0" d="M142.3,201.6c-0.2,0.8-0.4,1.6-0.5,2.5c-1.1-0.2-2.1-0.3-3.2-0.5c0.7-3.1,1.4-6.3,2.1-9.5
	c0.9,0.1,1.9,0.2,2.8,0.3c0.4-0.1,0.8-0.2,1.2-0.1c0.3,0,0.6,0.1,0.9,0.1c0.7,0.1,1.4,0.4,1.9,0.8c0.3,0.3,0.6,0.7,0.8,1.1
	c0.2,0.4,0.2,0.9,0.2,1.4c0,1.1-0.2,2-0.7,2.9c-0.5,0.8-1,1.3-1.7,1.5c-0.4,0.2-0.9,0.2-1.5,0.1c-0.3,0-0.6-0.1-0.9-0.1
	C143.2,202.1,142.7,201.9,142.3,201.6 M140.9,194.4c-0.7,3-1.4,6.1-2,9.1l1.8,0.3c0.2-1.1,0.5-2.2,0.7-3.3c0.2,0.3,0.4,0.6,0.6,0.7
	c0.5,0.4,1.1,0.7,1.8,0.8c0.9,0.1,1.6-0.1,2.2-0.6c0.5-0.4,0.8-1,1.1-1.6c0.2-0.6,0.4-1.3,0.4-2c0-0.5-0.1-0.9-0.2-1.3
	c-0.1-0.4-0.4-0.7-0.7-1c-0.5-0.4-1.1-0.7-1.7-0.8c-0.7-0.1-1.3,0-1.7,0.4c-0.1,0.1-0.3,0.2-0.4,0.4c0,0-0.1,0.1-0.2,0.3
	c0.1-0.4,0.2-0.7,0.2-1.1C142.1,194.5,141.5,194.4,140.9,194.4 M144.2,195.8c0.5,0.1,0.8,0.3,1.1,0.7c0.2,0.3,0.3,0.7,0.3,1.2
	c0,0.4-0.1,0.9-0.2,1.3c-0.2,0.4-0.4,0.8-0.6,1.1c-0.4,0.4-0.8,0.6-1.3,0.5c-0.5-0.1-0.9-0.3-1.1-0.6c-0.1-0.1-0.2-0.3-0.2-0.5
	c-0.1-0.2-0.1-0.4-0.1-0.6c0-0.4,0.1-0.8,0.2-1.2c0.1-0.4,0.3-0.8,0.5-1.1C143,195.9,143.5,195.7,144.2,195.8 M144.6,196.1
	c-0.3,0.1-0.5,0.2-0.7,0.4c-0.3,0.2-0.5,0.6-0.7,1.1c-0.2,0.5-0.3,0.9-0.3,1.4c0,0.3,0,0.5,0.1,0.7c0.1,0.2,0.2,0.4,0.4,0.5
	c0.1,0.1,0.2,0.1,0.3,0.2c0.2,0,0.3-0.1,0.5-0.2c0.3-0.2,0.5-0.6,0.8-1.1c0.2-0.5,0.3-0.9,0.3-1.4c0-0.3,0-0.5-0.1-0.8
	c-0.1-0.2-0.2-0.4-0.4-0.6C144.8,196.2,144.7,196.2,144.6,196.1"/>
<path class="st0" d="M153.2,198.1c-1-0.1-2.1-0.3-3.1-0.4c0-0.1,0-0.1,0.1-0.2c0.2-0.7,0.5-1.2,1-1.6c0.6-0.5,1.6-0.6,2.8-0.5
	l0.9,0.1c0.9,0.1,1.6,0.3,2.2,0.7c0.4,0.2,0.6,0.5,0.8,0.9c0.1,0.3,0.2,0.6,0.2,0.9c0,0.2-0.1,0.6-0.2,1.1c-0.2,1-0.4,1.9-0.6,2.9
	c-0.1,0.3-0.1,0.5-0.1,0.7c0,0.1,0,0.4,0.1,0.8c0,0.1,0,0.1,0,0.2c-1.1-0.1-2.1-0.3-3.2-0.4c-0.4,0.1-0.8,0.1-1.3,0.1
	c-0.3,0-0.6-0.1-0.9-0.1c-0.6-0.1-1.2-0.3-1.7-0.7c-0.3-0.2-0.5-0.5-0.6-0.8c-0.1-0.3-0.2-0.7-0.2-1c0-0.6,0.2-1.1,0.6-1.4
	c0.4-0.4,0.9-0.6,1.7-0.7c0.4,0,1.2,0,2.4,0c0.4,0,0.6,0,0.7-0.1c0.1,0,0.1-0.1,0.2-0.2c0.1-0.1,0.1-0.2,0.1-0.3
	c0-0.4-0.2-0.6-0.6-0.8c-0.2,0-0.3,0.1-0.5,0.1c-0.2,0.1-0.4,0.4-0.6,0.8C153.3,198.1,153.2,198.1,153.2,198.1 M152.2,197.8
	c0.1-0.3,0.2-0.5,0.4-0.7c0.3-0.3,0.7-0.4,1.3-0.3c0.3,0,0.6,0.1,0.8,0.3c0.3,0.2,0.4,0.5,0.4,0.8c0,0.2,0,0.3-0.1,0.4
	c-0.1,0.1-0.2,0.2-0.3,0.3c-0.1,0.1-0.4,0.1-0.8,0.1c-1.2,0-1.9,0-2.4,0c-0.7,0-1.2,0.3-1.5,0.6c-0.3,0.3-0.5,0.8-0.5,1.3
	c0,0.7,0.3,1.2,0.8,1.7c0.4,0.4,1,0.6,1.6,0.7c0.7,0.1,1.3,0,1.8-0.4c0.1-0.1,0.3-0.2,0.5-0.4c0,0.3,0,0.5,0,0.8
	c0.6,0.1,1.3,0.2,1.9,0.2c-0.1-0.3-0.1-0.6-0.1-0.7c0-0.2,0-0.5,0.1-0.8c0.2-0.9,0.4-1.9,0.6-2.8c0.1-0.5,0.2-0.9,0.2-1.1
	c0-0.7-0.3-1.2-0.9-1.6c-0.5-0.3-1.2-0.6-2.1-0.6c-1.3-0.1-2.2,0-2.8,0.6c-0.4,0.3-0.6,0.8-0.7,1.3
	C151,197.6,151.6,197.7,152.2,197.8 M154.7,199.6c-0.1,0.6-0.2,1-0.3,1.2c-0.2,0.5-0.5,0.8-1,1c-0.3,0.1-0.7,0.2-1,0.1
	c-0.3,0-0.6-0.2-0.8-0.4c-0.2-0.2-0.4-0.5-0.4-0.8c0-0.3,0.1-0.5,0.3-0.7c0.2-0.2,0.6-0.3,1-0.3c0.1,0,0.4,0,1,0
	C154,199.7,154.3,199.7,154.7,199.6 M154.4,200c-0.2,0-0.3,0-0.5,0c-0.5,0-0.8,0.1-1.1,0.2c-0.3,0.1-0.4,0.4-0.4,0.7
	c0,0.4,0.2,0.6,0.5,0.8c0.4-0.1,0.7-0.2,1-0.5C154.1,200.9,154.3,200.6,154.4,200"/>
<path class="st0" d="M165.6,196.8c-0.1,0.7-0.3,1.4-0.4,2.1l-0.9-0.1c-0.1,0-0.1-0.1-0.2-0.1c-0.4,0.1-0.6,0.3-0.9,0.6
	c-0.2,0.3-0.4,0.7-0.5,1.3c-0.3,1.2-0.5,2.4-0.8,3.7c-1.1-0.1-2.1-0.3-3.2-0.4c0.5-2.5,1.1-5,1.6-7.5c0.9,0.1,1.8,0.2,2.7,0.3
	c0.3-0.1,0.6-0.2,1-0.2c0.3,0,0.6,0.1,0.9,0.1c0.2,0,0.4,0.1,0.6,0.1C165.5,196.7,165.6,196.7,165.6,196.8 M160.5,196.6
	c-0.5,2.4-1,4.7-1.5,7c0.6,0.1,1.2,0.1,1.8,0.2c0.2-1.2,0.5-2.3,0.7-3.5c0.1-0.4,0.2-0.7,0.3-1c0.1-0.2,0.3-0.5,0.4-0.6
	c0.4-0.4,0.8-0.5,1.3-0.5c0.1,0,0.3,0.1,0.5,0.1c0.1-0.6,0.2-1.1,0.3-1.7c-0.2-0.1-0.3-0.1-0.5-0.1c-0.6-0.1-1.1,0.2-1.5,0.7
	c-0.1,0.1-0.3,0.4-0.5,0.7c0.1-0.4,0.1-0.9,0.2-1.3C161.6,196.8,161.1,196.7,160.5,196.6"/>
<path class="st0" d="M169.6,198.7c0.5-0.4,1-0.8,1.5-1.2c1.3,0.1,2.5,0.2,3.8,0.3c-1.1,0.9-2.2,1.8-3.4,2.7c0.7,1.7,1.4,3.4,2.1,5.1
	c-1.1-0.1-2.2-0.2-3.4-0.3c-0.4-1-0.8-1.9-1.1-2.9c-0.1,0.1-0.2,0.2-0.3,0.2c-0.2,0.8-0.3,1.6-0.5,2.4c-1-0.1-2.1-0.2-3.1-0.3
	c0.7-3.4,1.5-6.9,2.2-10.4c1,0.1,2.1,0.2,3.1,0.3C170.2,195.9,169.9,197.3,169.6,198.7 M168.1,200.2c0.4-1.8,0.8-3.7,1.2-5.5
	c-0.6,0-1.2-0.1-1.8-0.2c-0.7,3.3-1.4,6.6-2.1,9.9c0.6,0.1,1.2,0.1,1.8,0.2c0.2-0.8,0.3-1.5,0.5-2.3c0.4-0.3,0.8-0.7,1.3-1
	c0.5,1.2,1,2.4,1.4,3.6c0.7,0.1,1.3,0.1,2,0.2c-0.7-1.6-1.3-3.3-2-4.9c1-0.8,2-1.6,3-2.4c-0.7-0.1-1.5-0.1-2.2-0.2
	C170.2,198.5,169.2,199.3,168.1,200.2"/>
<path class="st0" d="M182.1,207.5v0.8c-2.5-0.2-5-0.4-7.5-0.7v-0.8C177.1,207.1,179.6,207.3,182.1,207.5"/>
<path class="st0" d="M187.6,195.5c-0.7,3.7-1.5,7.4-2.2,11c-1.1-0.1-2.1-0.1-3.2-0.2c0.7-3.6,1.5-7.3,2.2-10.9
	C185.5,195.4,186.5,195.4,187.6,195.5 M184.6,195.6c-0.7,3.5-1.4,7-2.1,10.4c0.6,0,1.2,0.1,1.8,0.1c0.7-3.5,1.4-7,2.1-10.5
	C185.8,195.7,185.2,195.6,184.6,195.6"/>
<path class="st0" d="M191.4,201.3c-1,0-2.1-0.1-3.1-0.1c0-0.1,0-0.1,0.1-0.2c0.2-0.8,0.5-1.4,1-1.9c0.6-0.6,1.6-0.8,2.8-0.8
	c0.3,0,0.6,0,0.9,0c0.9,0,1.6,0.2,2.2,0.5c0.4,0.2,0.6,0.5,0.8,0.9c0.1,0.3,0.2,0.6,0.2,0.9c0,0.3-0.1,0.7-0.2,1.3
	c-0.2,1.1-0.4,2.1-0.6,3.2c-0.1,0.3-0.1,0.6-0.1,0.8c0,0.1,0,0.4,0.1,0.8c0,0.1,0,0.1,0,0.2c-1.1,0-2.1-0.1-3.2-0.1
	c-0.4,0.2-0.8,0.2-1.3,0.2c-0.3,0-0.6,0-0.9,0c-0.6,0-1.2-0.2-1.7-0.6c-0.3-0.2-0.5-0.5-0.6-0.9c-0.1-0.3-0.2-0.7-0.2-1.1
	c0-0.6,0.2-1.2,0.6-1.6c0.4-0.5,0.9-0.8,1.7-0.9c0.4-0.1,1.2-0.2,2.4-0.3c0.4,0,0.6-0.1,0.7-0.2c0.1-0.1,0.1-0.1,0.2-0.3
	c0.1-0.1,0.1-0.2,0.1-0.4c0-0.4-0.2-0.6-0.6-0.8c-0.2,0-0.3,0.1-0.5,0.2c-0.2,0.2-0.4,0.5-0.6,0.9
	C191.4,201.2,191.4,201.2,191.4,201.3 M190.4,201c0.1-0.3,0.2-0.6,0.4-0.8c0.3-0.3,0.7-0.5,1.3-0.5c0.3,0,0.6,0.1,0.8,0.2
	c0.3,0.2,0.4,0.5,0.4,0.9c0,0.2,0,0.3-0.1,0.5c-0.1,0.2-0.2,0.3-0.3,0.3c-0.1,0.1-0.4,0.2-0.8,0.2c-1.2,0.1-1.9,0.2-2.4,0.3
	c-0.7,0.1-1.2,0.4-1.5,0.8c-0.3,0.4-0.5,0.9-0.5,1.5c0,0.7,0.3,1.3,0.8,1.8c0.4,0.4,1,0.6,1.6,0.6c0.7,0,1.3-0.2,1.8-0.6
	c0.1-0.1,0.3-0.2,0.5-0.5c0,0.3,0,0.6,0,0.9c0.6,0,1.3,0,1.9,0.1c-0.1-0.4-0.1-0.6-0.1-0.8c0-0.2,0-0.5,0.1-0.8
	c0.2-1.1,0.4-2.1,0.6-3.2c0.1-0.6,0.2-1,0.2-1.2c0-0.7-0.3-1.3-0.9-1.6c-0.5-0.3-1.2-0.5-2.1-0.5c-1.3,0-2.2,0.3-2.8,0.9
	c-0.4,0.4-0.6,0.9-0.7,1.5C189.1,201,189.7,201,190.4,201 M192.9,202.7c-0.1,0.6-0.2,1.1-0.3,1.4c-0.2,0.5-0.5,0.9-1,1.1
	c-0.3,0.2-0.7,0.3-1,0.3c-0.3,0-0.6-0.1-0.8-0.3c-0.2-0.2-0.4-0.5-0.4-0.9c0-0.3,0.1-0.6,0.3-0.8c0.2-0.2,0.6-0.4,1-0.5
	c0.1,0,0.4-0.1,1-0.1C192.1,202.9,192.5,202.8,192.9,202.7 M192.6,203.2c-0.2,0-0.3,0-0.5,0.1c-0.5,0.1-0.8,0.2-1.1,0.3
	c-0.3,0.2-0.4,0.4-0.4,0.8c0,0.4,0.2,0.7,0.5,0.8c0.4-0.1,0.7-0.3,1-0.6C192.3,204.3,192.5,203.8,192.6,203.2"/>
<path class="st0" d="M138.6,1c-25.1,0-45.5,7-45.5,15.7c0,8.7,20.3,15.7,45.5,15.7s45.5-7,45.5-15.7C184.1,8,163.7,1,138.6,1z
	 M114.4,14.6h-1.7v-1.7c0-0.5,0-0.9-0.7-0.9h-0.1c-0.7,0-0.7,0.4-0.7,0.9v8.4c0,0.4,0.1,0.7,0.6,0.7h0.4c0.5,0,0.6-0.3,0.6-0.7v-3.1
	h-0.9v-1.6h0.9h1.7v4.8c0,1.7-0.4,2.3-1.8,2.3h-1.4c-1.4,0-1.8-0.6-1.8-2.3v-8.8c0-1,0.1-2.1,1.8-2.1v0h1.4v0
	c1.7,0.1,1.8,1.1,1.8,2.1V14.6z M118.8,21.8v-1.9c0-0.5,0-1.6-0.2-2c-0.2-0.4-0.2-0.4-0.7-0.4v-1.5h0.1c0.9,0,0.9-0.4,0.9-2.6
	c0-1.5-0.1-1.5-0.8-1.5h-0.9l0,0v11.6h0v0l-1.7,0V10.4h2.8c2.1,0,2.4,0.6,2.4,3.2c0,2.3-0.1,3.2-1.4,3.3c-0.1,0-0.1,0.1,0,0.1
	c1.2,0.2,1.3,0.9,1.3,2.6V21c0,1.6,0,1.8,0.3,2.6C120.9,23.7,118.8,24,118.8,21.8z M126,23.7l-1.4-9.5l-0.8,5.6h0.8v1.7h-1.1
	l-0.3,2.1l-1.7,0l2-13.3h2.1l2,13.3H126z M133.9,23.7l-1.9,0c0,0-1.4-6.3-1.9-8.6v8.6l-0.4,0v0h-1.3V10.4h1.9c0,0,2,8.7,2,8.8v-8.8
	v0h1.6V23.7z M140.4,21.4c0,1.8-0.4,2.3-1.9,2.3h-0.9V22h0.4c0.5,0,0.6-0.3,0.6-0.7v-8.4c0-0.5,0-0.9-0.7-0.9l-1,0v11.7l-1.7,0V10.4
	l3.2,0c1.9,0,2,1.1,2,2.1V21.4z M146.1,17.6l-0.4,0v-1.5l0.2,0c0.7,0,0.9-0.4,0.9-1.9v-0.7c0-1.5-0.1-1.5-0.8-1.5H145h0v11.6l0,0v0
	l-1.7,0V10.4h2.8c2.1,0,2.4,0.6,2.4,3.2v0.7C148.4,16.8,148.1,17.6,146.1,17.6z M152.7,23.7l-1.4-9.5l-0.8,5.6h0.8v1.7h-1.1
	l-0.3,2.1l-1.7,0l2-13.3h2.1l2,13.3H152.7z M158.4,21.8v-1.9c0-0.5,0-1.6-0.2-2c-0.2-0.4-0.2-0.4-0.7-0.4v-1.5h0.1
	c0.9,0,0.9-0.4,0.9-2.6c0-1.5-0.1-1.5-0.8-1.5l-0.9,0h0v11.7h0v0H155V10.4h2.8c2.1,0,2.4,0.6,2.4,3.2c0,2.3-0.1,3.2-1.4,3.3
	c-0.1,0-0.1,0.1,0,0.1c1.2,0.2,1.3,0.9,1.3,2.6V21c0,1.6,0,1.8,0.3,2.6C160.5,23.7,158.4,24,158.4,21.8z M163.1,23.7l-1.7,0V10.4
	h1.7V23.7z M165.9,23.7l-2.4-6.8l2.3-6.5h1.9l-2.5,6.3l2.7,7H165.9z"/>
</svg>
