<?xml version="1.0" encoding="utf-8"?>
<!-- Generator: Adobe Illustrator 23.0.1, SVG Export Plug-In . SVG Version: 6.00 Build 0)  -->
<svg version="1.1" id="Layer_1" xmlns="http://www.w3.org/2000/svg" xmlns:xlink="http://www.w3.org/1999/xlink" x="0px" y="0px"
	 viewBox="0 0 45.7 45.7" style="enable-background:new 0 0 45.7 45.7;" xml:space="preserve">
<style type="text/css">
	.st0{fill:#383638;}
</style>
<g>
	<g>
		<g>
			<path class="st0" d="M22.8,44.7c-2.9,0-5.7-0.6-8.5-1.7C9,40.7,4.8,36.5,2.6,31.1c-4.6-11.1,0.8-23.9,12-28.5
				c11.1-4.5,23.9,0.8,28.5,12c4.6,11.1-0.8,23.9-12,28.5C28.4,44.1,25.6,44.7,22.8,44.7z M22.8,3.3c-2.5,0-5,0.5-7.4,1.5
				C5.5,8.8,0.7,20.2,4.7,30.2c2,4.8,5.7,8.6,10.5,10.6c4.8,2,10.1,2,15,0.1c10-4.1,14.8-15.5,10.7-25.5C37.8,7.9,30.5,3.3,22.8,3.3
				z"/>
		</g>
		<g>
			<path class="st0" d="M22.9,37.9c-2,0-3.9-0.4-5.8-1.2c-3.7-1.5-6.5-4.4-8-8.1l2.1-0.9c1.3,3.1,3.7,5.5,6.8,6.8
				c3.1,1.3,6.5,1.3,9.6,0c6.4-2.6,9.5-10,6.9-16.4l2.1-0.9c3.1,7.6-0.6,16.3-8.1,19.4C26.7,37.5,24.8,37.9,22.9,37.9z"/>
		</g>
		<g>
			<g>
				<circle class="st0" cx="13.8" cy="21.3" r="1.8"/>
			</g>
			<g>
				<circle class="st0" cx="28.2" cy="15.4" r="1.8"/>
			</g>
		</g>
	</g>
</g>
</svg>
