<svg xmlns="http://www.w3.org/2000/svg" xmlns:xlink="http://www.w3.org/1999/xlink" viewBox="0 0 128 160" version="1.1" x="0px" y="0px"><title>050 girl avatar profile woman suit student officer</title><desc>Created with Sketch.</desc><g stroke="none" stroke-width="1" fill="none" fill-rule="evenodd"><g transform="translate(-64.000000, -64.000000)"><g transform="translate(64.000000, 64.000000)" fill="#000000" fill-rule="nonzero"><path d="M64,128 C28.653776,128 0,99.346224 0,64 C0,28.653776 28.653776,0 64,0 C99.346224,0 128,28.653776 128,64 C128,99.346224 99.346224,128 64,128 Z M64,126 C98.2416545,126 126,98.2416545 126,64 C126,29.7583455 98.2416545,2 64,2 C29.7583455,2 2,29.7583455 2,64 C2,98.2416545 29.7583455,126 64,126 Z"/><g transform="translate(24.000000, 18.000000)"><path d="M0.209997821,96.0000116 C4.73654738,75.7596948 7,54.7601313 7,33 C7,14.7746033 21.7746033,0 40,0 C58.2253967,0 73,14.7746033 73,33 C73,54.7601313 75.2634526,75.7596948 79.7900022,96.0000116 L77.7409677,96 C73.2468732,75.7495955 71,54.7491645 71,33 C71,15.8791728 57.1208272,2 40,2 C22.8791728,2 9,15.8791728 9,33 C9,54.7491645 6.75312679,75.7495955 2.25903228,96 L0.210000425,96 Z"/><path d="M42.7951407,82.6060807 L44.6334307,83.3939193 L42.919145,87.3939193 C42.7615662,87.7616031 42.4000281,88 42,88 L38,88 C37.5999719,88 37.2384338,87.7616031 37.080855,87.3939193 L35.3665693,83.3939193 L37.2048593,82.6060807 L38.6593962,86 L41.3406038,86 L42.7951407,82.6060807 Z"/><path d="M38.8728911,88 L37.0817393,101.135113 L35.1000789,100.864887 L37.0091698,86.8648868 C37.076736,86.3694017 37.4999293,86 38,86 L42,86 C42.5000707,86 42.923264,86.3694017 42.9908302,86.8648868 L44.8999211,100.864887 L42.9182607,101.135113 L41.1271089,88 L38.8728911,88 Z"/><path d="M41.6007811,80 L47.624695,84.8191312 L46.375305,86.3808688 L39.375305,80.7808688 C38.8748983,80.3805435 38.8748983,79.6194565 39.375305,79.2191312 L49.375305,71.2191312 L50.624695,72.7808688 L41.6007811,80 Z"/><path d="M50.6331622,73.8293434 L43.1057655,109.208108 L41.1495536,108.791892 L49.0218941,71.7918924 C49.178554,71.0555907 50.0618804,70.7498587 50.6401844,71.2317787 L56.6401844,76.2317787 C56.868177,76.4217725 57,76.7032202 57,77 L57,86 C57,86.5522847 56.5522847,87 56,87 L52.9431893,87 L56.8137335,92.4187618 C57.0475128,92.7460528 57.0624551,93.1815527 56.8516583,93.5240974 L47.0055045,109.524097 L45.3021878,108.475903 L54.8004935,93.0411559 L50.1862665,86.5812382 C49.7135033,85.9193697 50.1866274,85 51,85 L55,85 L55,77.4683749 L50.6331622,73.8293434 Z"/><path d="M31.976086,80 L38,84.8191312 L36.7506099,86.3808688 L29.7506099,80.7808688 C29.2502033,80.3805435 29.2502033,79.6194565 29.7506099,79.2191312 L39.7506099,71.2191312 L41,72.7808688 L31.976086,80 Z" transform="translate(35.187652, 78.800000) scale(-1, 1) translate(-35.187652, -78.800000) "/><path d="M32.4836074,73.8293434 L24.9562107,109.208108 L22.9999989,108.791892 L30.8723393,71.7918924 C31.0289992,71.0555907 31.9123256,70.7498587 32.4906296,71.2317787 L38.4906296,76.2317787 C38.7186222,76.4217725 38.8504452,76.7032202 38.8504452,77 L38.8504452,86 C38.8504452,86.5522847 38.40273,87 37.8504452,87 L34.7936346,87 L38.6641787,92.4187618 C38.897958,92.7460528 38.9129003,93.1815527 38.7021036,93.5240974 L28.8559497,109.524097 L27.1526331,108.475903 L36.6509387,93.0411559 L32.0367118,86.5812382 C31.5639486,85.9193697 32.0370727,85 32.8504452,85 L36.8504452,85 L36.8504452,77.4683749 L32.4836074,73.8293434 Z" transform="translate(30.925223, 90.261634) scale(-1, 1) translate(-30.925223, -90.261634) "/><path d="M72.3367995,101 L70.3298671,101 L69.4998591,91.0399036 C69.2247199,87.7382337 67.1578401,84.8547075 64.1194823,83.5336824 L55.6012739,79.8301135 L56.3987261,77.9959734 L64.9169345,81.6995423 C68.6304829,83.3141286 71.1566694,86.8384383 71.4929506,90.8738126 L72.3367995,101 Z M9.67013288,101 L7.66320045,101 L8.5070494,90.8738126 C8.84333059,86.8384383 11.3695171,83.3141286 15.0830655,81.6995423 L23.6012739,77.9959734 L24.3987261,79.8301135 L15.8805177,83.5336824 C12.8421599,84.8547075 10.7752801,87.7382337 10.5001409,91.0399036 L9.67013288,101 Z M48.2612863,73.1441849 L46.3921735,73.8558151 C46.1338143,73.1772289 46,72.4553377 46,71.7217669 L46,66 L48,66 L48,71.7217669 C48,72.2111916 48.0891262,72.6920026 48.2612863,73.1441849 Z M31.7387137,73.1441849 C31.9108738,72.6920026 32,72.2111916 32,71.7217669 L32,66 L34,66 L34,71.7217669 C34,72.4553377 33.8661857,73.1772289 33.6078265,73.8558151 L31.7387137,73.1441849 Z"/><path d="M63.4302448,40.3689981 C62.9658506,40.6679235 62.3470577,40.5337845 62.0481322,40.0693903 C61.7492068,39.604996 61.8833458,38.9862031 62.34774,38.6872777 C63.0372406,38.2434539 63.7722806,38 64.5,38 C67.3466123,38 69,40.4522178 69,44.5 C69,48.7391277 65.6283559,54 62.5,54 C61.5391088,54 60.7472671,53.5884002 60.187218,52.8393338 C59.8565091,52.3970103 59.9469907,51.7703438 60.3893142,51.4396349 C60.8316377,51.108926 61.4583042,51.1994075 61.7890131,51.641731 C61.9779129,51.8943848 62.181097,52 62.5,52 C64.2897778,52 67,47.7711632 67,44.5 C67,41.4282815 66.036993,40 64.5,40 C64.1821485,40 63.8141409,40.1218884 63.4302448,40.3689981 Z M18.2109869,51.641731 C18.5416958,51.1994075 19.1683623,51.108926 19.6106858,51.4396349 C20.0530093,51.7703438 20.1434909,52.3970103 19.812782,52.8393338 C19.2527329,53.5884002 18.4608912,54 17.5,54 C14.3716441,54 11,48.7391277 11,44.5 C11,40.4522178 12.6533877,38 15.5,38 C16.2277194,38 16.9627594,38.2434539 17.65226,38.6872777 C18.1166542,38.9862031 18.2507932,39.604996 17.9518678,40.0693903 C17.6529423,40.5337845 17.0341494,40.6679235 16.5697552,40.3689981 C16.1858591,40.1218884 15.8178515,40 15.5,40 C13.963007,40 13,41.4282815 13,44.5 C13,47.7711632 15.7102222,52 17.5,52 C17.818903,52 18.0220871,51.8943848 18.2109869,51.641731 Z"/><path d="M16.9753931,38.5126759 C33.5480053,36.2055279 43.5407689,30.8662816 47.080855,22.6060807 C47.4271868,21.7979731 48.5728132,21.7979731 48.919145,22.6060807 C52.1431865,30.1288442 56.8906324,35.1556768 63.17817,37.7436512 C63.5122553,37.881162 63.7461933,38.1881806 63.7901262,38.546778 C63.9296007,39.6852259 64,40.8379929 64,42 C64,56.3416449 53.2743133,68 40,68 C26.7256867,68 16,56.3416449 16,42 C16,41.1316646 16.0393122,40.2683927 16.1174133,39.4122745 C16.159633,38.9494757 16.5151114,38.5767538 16.9753931,38.5126759 Z M18,42 C18,55.2725926 27.8692148,66 40,66 C52.1307852,66 62,55.2725926 62,42 C62,41.1130185 61.9559171,40.2321918 61.8684626,39.3600785 C55.8976504,36.7428001 51.2586976,32.0492214 47.963381,25.3196199 C43.5372369,33.1130162 33.5337933,38.1048929 18.0493457,40.3794091 C18.0165003,40.9169557 18,41.457345 18,42 Z"/></g></g><g transform="translate(113.000000, 126.000000)" fill="#000000" fill-rule="nonzero"><g><path d="M9.5547002,16.8320503 C9.09517151,17.1384028 8.47430216,17.0142289 8.16794971,16.5547002 C7.86159725,16.0951715 7.98577112,15.4743022 8.4452998,15.1679497 C10.6023438,13.7299204 12.792105,13 15,13 C17.207895,13 19.3976562,13.7299204 21.5547002,15.1679497 C22.0142289,15.4743022 22.1384028,16.0951715 21.8320503,16.5547002 C21.5256978,17.0142289 20.9048285,17.1384028 20.4452998,16.8320503 C18.6023438,15.6034129 16.792105,15 15,15 C13.207895,15 11.3976562,15.6034129 9.5547002,16.8320503 Z" transform="translate(15.000000, 15.000053) scale(1, -1) translate(-15.000000, -15.000053) "/><path d="M8,4 C8,4.55228475 7.55228475,5 7,5 C6.44771525,5 6,4.55228475 6,4 C6,2.8954305 5.1045695,2 4,2 C2.8954305,2 2,2.8954305 2,4 C2,4.55228475 1.55228475,5 1,5 C0.44771525,5 0,4.55228475 0,4 C0,1.790861 1.790861,0 4,0 C6.209139,0 8,1.790861 8,4 Z"/><path d="M30,4 C30,4.55228475 29.5522847,5 29,5 C28.4477153,5 28,4.55228475 28,4 C28,2.8954305 27.1045695,2 26,2 C24.8954305,2 24,2.8954305 24,4 C24,4.55228475 23.5522847,5 23,5 C22.4477153,5 22,4.55228475 22,4 C22,1.790861 23.790861,0 26,0 C28.209139,0 30,1.790861 30,4 Z"/></g></g></g></g>


<!--
girl by Xinh Studio from the Noun Project
https://thenounproject.com/xinhstudio/collection/circle-avatar/?i=2106810

<text x="0" y="143" fill="#000000" font-size="5px" font-weight="bold" font-family="'Helvetica Neue', Helvetica, Arial-Unicode, Arial, Sans-serif">Created by Xinh Studio</text><text x="0" y="148" fill="#000000" font-size="5px" font-weight="bold" font-family="'Helvetica Neue', Helvetica, Arial-Unicode, Arial, Sans-serif">from the Noun Project</text>
-->

</svg>