<svg enable-background="new 0 0 81.5800018 112" viewBox="0 0 81.5800018 112" xmlns="http://www.w3.org/2000/svg"><g fill="#fff"><g transform="translate(24 18)"><path d="m-23.0000019 79.0000153c4.5265503-20.2403183 6.7900028-41.2398835 6.7900028-63.0000153 0-18.2253971 14.7746029-33 33-33s33 14.7746029 33 33c0 21.7601318 2.2634506 42.759697 6.7900009 63.0000153l-2.0490341-.0000153c-4.4940948-20.2504044-6.7409668-41.2508354-6.7409668-63 0-17.1208267-13.8791733-31-31-31s-31 13.8791723-31 31c0 21.7491646-2.2468739 42.7495956-6.7409687 63h-2.0490303z"/><path d="m19.5851402 65.6060791 1.8382912.7878418-1.7142868 4c-.1575775.3676834-.5191155.6060791-.9191437.6060791h-4c-.4000282 0-.7615662-.2383957-.9191437-.6060791l-1.7142868-4 1.8382912-.7878418 1.4545364 3.3939209h2.6812057z"/><path d="m15.6628914 71-1.791153 13.1351166-1.9816589-.2702332 1.9090919-14c.067566-.4954834.490757-.8648834.9908295-.8648834h4c.5000725 0 .9232635.3694.9908295.8648834l1.9090919 14-1.9816589.2702332-1.791153-13.1351166z"/><path d="m18.3907814 63 6.0239143 4.8191299-1.2493896 1.5617371-7-5.5999985c-.5004082-.400322-.5004082-1.1614151 0-1.5617371l10-8 1.2493896 1.5617371z"/><path d="m27.4231644 56.8293457-7.5273972 35.3787613-1.9562111-.416214 7.8723373-37c.156662-.7363052 1.0399895-1.042038 1.6182899-.560112l6 5c.227993.1899948.3598175.4714355.3598175.768219v9c0 .5522842-.4477158 1-1 1h-3.0568123l3.8705444 5.4187622c.2337799.3272934.2487221.7627869.0379257 1.1053314l-9.8461533 16-1.7033157-1.0481873 9.4983063-15.4347534-4.6142273-6.4599152c-.4727629-.6618651.0003587-1.5812377.8137323-1.5812377h4v-7.5316238z"/><path d="m15.1892204 63-6.0239143 4.8191299 1.2493896 1.5617371 7-5.5999985c.5004063-.400322.5004063-1.1614151 0-1.5617371l-10-8-1.2493896 1.5617371z"/><path d="m6.156837 56.8293457 7.5273976 35.3787613 1.956213-.416214-7.8723416-37c-.1566601-.7363052-1.0399857-1.042038-1.6182919-.560112l-6 5c-.227989.1899948-.3598135.4714356-.3598135.768219v9c0 .5522842.4477158 1 1 1h3.0568085l-3.8705406 5.4187622c-.2337799.3272934-.2487221.7627869-.0379257 1.1053314l9.8461533 16 1.7033157-1.0481873-9.4983063-15.4347533 4.6142273-6.4599152c.4727648-.6618652-.0003588-1.5812378-.8137324-1.5812378h-3.9999997v-7.5316238z"/><path d="m49.1268005 84h-2.0069351l-.8300018-9.9600983c-.2751465-3.3016663-2.3420258-6.1851959-5.3803787-7.506218l-8.5182114-3.7035675.7974548-1.8341446 8.5182037 3.7035675c3.7135544 1.6145859 6.2397385 5.1389008 6.5760193 9.1742706zm-62.6666669 0h-2.0069323l.8438492-10.1261902c.3362808-4.0353699 2.8624678-7.5596848 6.5760155-9.1742706l8.5182095-3.7035675.797451 1.8341446-8.5182076 3.7035675c-3.0383573 1.321022-5.1052375 4.2045517-5.3803763 7.506218zm38.591155-27.8558121-1.8691139.7116241c-.258358-.6785812-.3921738-1.4004745-.3921738-2.1340485v-5.7217635h2v5.7217636c0 .4894257.0891266.9702377.2612877 1.4224243zm-16.5225735 0c.1721592-.4521866.2612858-.9329987.2612858-1.4224243v-5.7217636h2v5.7217636c0 .7335739-.1338158 1.4554672-.3921738 2.1340485z"/><path d="m40.2202454 23.3689995c-.4643936.2989235-1.0831871.1647835-1.3821106-.2996101-.2989273-.4643936-.1647873-1.0831871.2996063-1.3821106.6894989-.4438248 1.4245415-.6872788 2.1522598-.6872788 2.846611 0 4.5 2.4522171 4.5 6.5 0 4.2391281-3.3716431 9.5-6.5 9.5-.9608917 0-1.7527313-.4115982-2.3127823-1.1606674-.3307076-.4423218-.2402267-1.0689888.202095-1.3996964.4423256-.3307114 1.0689926-.2402306 1.3997002.202095.1889.2526551.3920822.3582688.7109871.3582688 1.7897797 0 4.5-4.2288361 4.5-7.5 0-3.0717201-.9630051-4.5-2.5-4.5-.3178482 0-.6858597.1218872-1.0697555.3689995zm-45.2192579 11.2727318c.3307095-.4423256.9573746-.5328064 1.3996985-.202095.4423237.3307076.5328064.9573746.2020969 1.3996964-.560049.7490691-1.3518907 1.1606673-2.3127825 1.1606673-3.1283555 0-6.4999995-5.2608719-6.4999995-9.5 0-4.0477829 1.653388-6.5 4.4999995-6.5.7277203 0 1.462759.243454 2.1522598.6872787.4643936.2989235.5985336.917717.2996082 1.3821106s-.9177189.5985336-1.3821125.2996101c-.3838958-.2471122-.7519044-.3689994-1.0697555-.3689994-1.5369925 0-2.4999995 1.4282799-2.4999995 4.5 0 3.2711639 2.7102218 7.5 4.4999995 7.5.318903 0 .5220871-.1056137.7109871-.3582687z"/><path d="m-6.2346063 21.5126762c16.5726109-2.307148 26.5653744-7.6463947 30.105463-15.9065952.3463287-.8081074 1.4919586-.8081074 1.8382874 0 3.224041 7.5227623 7.971489 12.5495968 14.2590256 15.1375713.3340874.1375084.5680237.4445267.6119576.8031273.139473 1.1384468.2098732 2.291214.2098732 3.4532204 0 14.3416443-10.7256851 26-24 26s-24-11.6583557-24-26c0-.8683357.0393124-1.7316055.1174126-2.5877266.042221-.4627991.3976993-.8355179.8579806-.8995972zm1.0246067 3.4873238c0 13.2725945 9.869215 24 22 24s22-10.7274055 22-24c0-.886982-.0440826-1.767807-.1315384-2.6399231-5.9708099-2.6172752-10.6097641-7.3108559-13.9050789-14.0404568-4.4261469 7.7933979-14.4295878 12.7852726-29.9140376 15.0597897-.0328446.5375442-.0493451 1.0779343-.0493451 1.6205902z"/></g><g transform="translate(49 62)"><path d="m-13.6552992-3.8319435c-.459528-.3063526-1.0803976-.1821785-1.3867502.2773495-.3063526.4595299-.1821785 1.0803986.2773504 1.3867512 2.1570435 1.4380293 4.3468046 2.1679497 6.5546999 2.1679497s4.3976555-.7299204 6.5547009-2.1679497c.459528-.3063526.5837021-.9272213.2773495-1.3867512-.3063526-.459528-.9272213-.5837021-1.3867512-.2773495-1.8429551 1.2286377-3.6531949 1.8320503-5.4452992 1.8320503s-3.6023435-.6034126-5.4453001-1.8320503z"/><path d="m-15.2099991-13c0 .5522842-.4477158 1-1 1s-1-.4477158-1-1c0-1.1045694-.8954315-2-2-2-1.1045704 0-2 .8954306-2 2 0 .5522842-.4477158 1-1 1s-1-.4477158-1-1c0-2.2091389 1.7908611-4 4-4s4 1.7908611 4 4z"/><path d="m6.7900004-13c0 .5522842-.4477158 1-1 1s-1-.4477158-1-1c0-1.1045694-.8954294-2-1.9999998-2s-2 .8954306-2 2c0 .5522842-.4477157 1-1 1s-.9999999-.4477158-.9999999-1c0-2.2091389 1.7908611-4 4-4s3.9999997 1.7908611 3.9999997 4z"/></g></g></svg>