<svg xmlns="http://www.w3.org/2000/svg" xmlns:xlink="http://www.w3.org/1999/xlink" version="1.1" x="0px" y="0px" viewBox="0 0 100 125" style="enable-background:new 0 0 100 100;" xml:space="preserve"><path d="M54.37,40.478c-0.503-0.228-1.096,0.002-1.32,0.506c-0.226,0.505,0.001,1.096,0.506,1.32  c4.765,2.125,7.896,6.876,7.977,12.105c0.04,2.575-0.65,5.082-1.995,7.249c-0.291,0.47-0.146,1.086,0.322,1.377  c0.164,0.102,0.347,0.15,0.526,0.15c0.334,0,0.661-0.168,0.851-0.473c1.548-2.493,2.341-5.375,2.296-8.335  C63.439,48.374,59.843,42.918,54.37,40.478z"/><path d="M49.904,35.167c-0.067,0-0.135,0-0.201,0.001c-5.191,0.053-10.047,2.129-13.671,5.848c-3.653,3.747-5.62,8.706-5.539,13.966  c0.153,9.924,7.217,17.956,16.645,19.201l-0.193,0.544c-0.338,0.646-0.325,1.399,0.039,2.037c0.45,0.786,1.353,1.274,2.354,1.274  h0.189c0.263,0.812,0.964,1.925,2.769,2.95c2.688,1.524,1.828,3.407,1.634,3.761c-0.277,0.478-0.113,1.09,0.364,1.366  c0.157,0.092,0.33,0.135,0.5,0.135c0.345,0,0.681-0.179,0.866-0.499c0.09-0.154,0.858-1.556,0.39-3.285  c-0.351-1.292-1.281-2.374-2.766-3.217c-0.819-0.466-1.275-0.908-1.542-1.27c0.799-0.132,1.493-0.561,1.868-1.216  c0.364-0.635,0.377-1.387,0.041-2.032l-0.212-0.61c9.396-1.423,16.221-9.607,16.067-19.546  C69.342,43.831,60.567,35.167,49.904,35.167z M52.002,72.277c-0.308,0.025-0.587,0.192-0.755,0.451  c-0.168,0.26-0.207,0.582-0.105,0.873l0.648,1.864c0.021,0.062,0.049,0.122,0.082,0.178c0.03,0.052,0.031,0.077,0.003,0.126  c-0.074,0.129-0.3,0.269-0.62,0.269h-1.917c-0.319,0-0.545-0.14-0.619-0.269c-0.028-0.049-0.027-0.074,0.003-0.126  c0.032-0.054,0.059-0.111,0.08-0.171l0.649-1.825c0.104-0.295,0.065-0.623-0.107-0.885c-0.173-0.263-0.458-0.428-0.771-0.448  c-9.022-0.575-15.936-8.04-16.079-17.364c-0.073-4.723,1.692-9.176,4.971-12.539c3.25-3.334,7.604-5.196,12.259-5.243  c0.062-0.001,0.121-0.001,0.182-0.001c9.574,0,17.454,7.785,17.603,17.438C67.65,63.921,60.985,71.519,52.002,72.277z"/><path d="M89.125,17.555h-9.741v-6.617c0-0.553-0.447-1-1-1h-5.622c-0.553,0-1,0.447-1,1v6.617H28.659v-6.617c0-0.553-0.447-1-1-1  h-5.622c-0.553,0-1,0.447-1,1v6.617H11.18c-0.553,0-1,0.447-1,1V89c0,0.553,0.447,1,1,1h77.945c0.553,0,1-0.447,1-1V18.555  C90.125,18.002,89.678,17.555,89.125,17.555z M73.762,11.938h3.622v10.794h-3.622V11.938z M23.037,11.938h3.622v10.794h-3.622  V11.938z M21.037,19.555v4.177c0,0.553,0.447,1,1,1h5.622c0.553,0,1-0.447,1-1v-4.177h43.103v4.177c0,0.553,0.447,1,1,1h5.622  c0.553,0,1-0.447,1-1v-4.177h8.741v10.204H12.18V19.555H21.037z M12.18,88V31.759h75.945V88H12.18z"/>

<!--

Calendar by Made by Made from the Noun Project
https://thenounproject.com/term/calendar/1287744/

<text x="0" y="115" fill="#000000" font-size="5px" font-weight="bold" font-family="'Helvetica Neue', Helvetica, Arial-Unicode, Arial, Sans-serif">Created by Made by Made</text><text x="0" y="120" fill="#000000" font-size="5px" font-weight="bold" font-family="'Helvetica Neue', Helvetica, Arial-Unicode, Arial, Sans-serif">from the Noun Project</text>

-->

</svg>
