<svg xmlns="http://www.w3.org/2000/svg" xmlns:xlink="http://www.w3.org/1999/xlink" viewBox="0 0 128 160" version="1.1" x="0px" y="0px"><title>025 girl avatar profile woman chef hat</title><desc>Created with Sketch.</desc><g stroke="none" stroke-width="1" fill="none" fill-rule="evenodd"><g transform="translate(-1024.000000, -448.000000)"><g transform="translate(64.000000, 64.000000)" fill="#000000" fill-rule="nonzero"><path d="M1024,512 C988.653776,512 960,483.346224 960,448 C960,412.653776 988.653776,384 1024,384 C1059.34622,384 1088,412.653776 1088,448 C1088,483.346224 1059.34622,512 1024,512 Z M1024,510 C1058.24165,510 1086,482.241654 1086,448 C1086,413.758346 1058.24165,386 1024,386 C989.758346,386 962,413.758346 962,448 C962,482.241654 989.758346,510 1024,510 Z"/><g transform="translate(985.000000, 396.000000)"><path d="M32,73.5949956 C31.6545431,73.7851969 31.2978553,73.9640736 30.9317753,74.1294563 C27.022014,75.8957558 22.3912398,76.0986217 17.4739686,74.3124654 C16.6276414,74.0050444 16.5869373,72.8232836 17.4101064,72.458359 C18.92317,71.7875928 19.939208,70.7553662 20.4741606,69.3133393 C17.9932663,71.2109122 14.8845714,72.0526331 11.1950294,71.8330266 C10.3254895,71.7812704 9.93325376,70.719769 10.5602157,70.11504 C11.8548369,68.8663277 12.8177215,67.4984406 13.4541588,66.0046251 C10.3370038,68.2648705 6.48537647,69.2634758 1.94173744,68.9983013 C1.00764663,68.9437862 0.653365119,67.7508574 1.40628179,67.195327 C7.83641671,62.4509301 10.9690108,58.8464523 12,55.1230548 L12,56 L13.8308008,56 C12.7392225,59.5438268 10.0022875,62.9550888 4.98092279,66.9739105 C8.90360796,66.645851 12.0721422,65.1003279 14.5353123,62.3348828 C15.1880218,61.6020741 16.3957517,62.1498767 16.2743726,63.1236864 C15.9658531,65.598901 15.039593,67.8362785 13.5065564,69.8218202 C16.7124293,69.5679466 19.2371748,68.2516812 21.1415318,65.8659412 C21.7315807,65.12674 22.9230769,65.5439696 22.9230769,66.48979 C22.9230769,69.3349978 22.0119518,71.5515061 20.2160701,73.0593491 C23.8492536,73.9489908 27.21054,73.6159626 30.1083692,72.3068202 C30.7850335,72.0011258 31.4210615,71.6434009 32,71.2565659 L32,73.5949956 Z M46,73.5949956 L46,71.2565659 C46.5789385,71.6434009 47.2149665,72.0011258 47.8916308,72.3068202 C50.78946,73.6159626 54.1507464,73.9489908 57.7839299,73.0593491 C55.9880482,71.5515061 55.0769231,69.3349978 55.0769231,66.48979 C55.0769231,65.5439696 56.2684193,65.12674 56.8584682,65.8659412 C58.7628252,68.2516812 61.2875707,69.5679466 64.4934436,69.8218202 C62.960407,67.8362785 62.0341469,65.598901 61.7256274,63.1236864 C61.6042483,62.1498767 62.8119782,61.6020741 63.4646877,62.3348828 C65.9278578,65.1003279 69.096392,66.645851 73.0190772,66.9739105 C67.9977125,62.9550888 65.2607775,59.5438268 64.1691992,56 L66.2828457,56 C67.5441466,59.4204906 70.6693157,62.8240786 76.5937182,67.195327 C77.3466349,67.7508574 76.9923534,68.9437862 76.0582626,68.9983013 C71.5146235,69.2634758 67.6629962,68.2648705 64.5458412,66.0046251 C65.1822785,67.4984406 66.1451631,68.8663277 67.4397843,70.11504 C68.0667462,70.719769 67.6745105,71.7812704 66.8049706,71.8330266 C63.1154286,72.0526331 60.0067337,71.2109122 57.5258394,69.3133393 C58.060792,70.7553662 59.07683,71.7875928 60.5898936,72.458359 C61.4130627,72.8232836 61.3723586,74.0050444 60.5260314,74.3124654 C55.6087602,76.0986217 50.977986,75.8957558 47.0682247,74.1294563 C46.7021447,73.9640736 46.3454569,73.7851969 46,73.5949956 Z"/><path d="M69.3299362,107 L68.4999282,97.0399036 C68.224789,93.7382337 66.1579091,90.8547075 63.1195513,89.5336824 L48.6077124,83.2241872 C46.4170526,82.2717264 45.0000691,80.1105264 45.0000691,77.7217669 L45.0000691,72 L47.0000691,72 L47.0000691,77.7217669 C47.0000691,79.3142732 47.9447248,80.7550732 49.4051646,81.3900471 L63.9170036,87.6995423 C67.630552,89.3141286 70.1567385,92.8384383 70.4930197,96.8738126 L71.3368686,107 L69.3299362,107 Z M6.66326953,107 L7.50711848,96.8738126 C7.84339967,92.8384383 10.3695862,89.3141286 14.0831346,87.6995423 L28.5949735,81.3900471 C30.0554134,80.7550732 31.0000691,79.3142732 31.0000691,77.7217669 L31.0000691,72 L33.0000691,72 L33.0000691,77.7217669 C33.0000691,80.1105264 31.5830855,82.2717264 29.3924257,83.2241872 L14.8805868,89.5336824 C11.842229,90.8547075 9.77534915,93.7382337 9.50021,97.0399036 L8.67020196,107 L6.66326953,107 Z"/><circle cx="29" cy="93" r="2"/><circle cx="49" cy="93" r="2"/><circle cx="29" cy="101" r="2"/><circle cx="49" cy="101" r="2"/><circle cx="29" cy="110" r="2"/><circle cx="49" cy="110" r="2"/><g transform="translate(28.000000, 77.000000)"><path d="M0.619225738,6.0982542 L1.65870234,4.38960316 C4.45117203,6.08843271 7.65740537,7 11,7 C14.3425946,7 17.548828,6.08843271 20.3412977,4.38960316 L21.3807743,6.0982542 C18.2772428,7.98632158 14.7118565,9 11,9 C7.2881435,9 3.72275717,7.98632158 0.619225738,6.0982542 Z"/><path d="M17.659802,0.0596721592 L18.340198,1.94037983 C14.9287812,3.17455045 12.8229819,4.97644981 11.9363332,7.34092869 C11.6021277,8.23217445 10.3294465,8.19661764 10.0455236,7.28810229 C9.3125324,4.94262844 7.37853706,3.16043984 4.14559018,1.93511619 L4.85440982,0.064935798 C7.7382329,1.15793756 9.82051941,2.70999364 11.0573236,4.71822347 C12.4235082,2.70512674 14.6375234,1.15306172 17.659802,0.0596721592 Z"/></g><path d="M15.443524,43 C15.1524606,44.6183848 15,46.2901215 15,48 C15,62.3416449 25.7256867,74 39,74 C52.2743133,74 63,62.3416449 63,48 C63,46.2901215 62.8475394,44.6183848 62.556476,43 L60.5220519,43 C60.8352127,44.6124004 61,46.2849516 61,48 C61,61.2725926 51.1307852,72 39,72 C26.8692148,72 17,61.2725926 17,48 C17,46.2849516 17.1647873,44.6124004 17.4779481,43 L15.443524,43 Z"/><path d="M62.4302448,46.3689981 C61.9658506,46.6679235 61.3470577,46.5337845 61.0481322,46.0693903 C60.7492068,45.604996 60.8833458,44.9862031 61.34774,44.6872777 C62.0372406,44.2434539 62.7722806,44 63.5,44 C66.3466123,44 68,46.4522178 68,50.5 C68,54.7391277 64.6283559,60 61.5,60 C60.5391088,60 59.7472671,59.5884002 59.187218,58.8393338 C58.8565091,58.3970103 58.9469907,57.7703438 59.3893142,57.4396349 C59.8316377,57.108926 60.4583042,57.1994075 60.7890131,57.641731 C60.9779129,57.8943848 61.181097,58 61.5,58 C63.2897778,58 66,53.7711632 66,50.5 C66,47.4282815 65.036993,46 63.5,46 C63.1821485,46 62.8141409,46.1218884 62.4302448,46.3689981 Z M17.2109869,57.641731 C17.5416958,57.1994075 18.1683623,57.108926 18.6106858,57.4396349 C19.0530093,57.7703438 19.1434909,58.3970103 18.812782,58.8393338 C18.2527329,59.5884002 17.4608912,60 16.5,60 C13.3716441,60 10,54.7391277 10,50.5 C10,46.4522178 11.6533877,44 14.5,44 C15.2277194,44 15.9627594,44.2434539 16.65226,44.6872777 C17.1166542,44.9862031 17.2507932,45.604996 16.9518678,46.0693903 C16.6529423,46.5337845 16.0341494,46.6679235 15.5697552,46.3689981 C15.1858591,46.1218884 14.8178515,46 14.5,46 C12.963007,46 12,47.4282815 12,50.5 C12,53.7711632 14.7102222,58 16.5,58 C16.818903,58 17.0220871,57.8943848 17.2109869,57.641731 Z"/><path d="M63,38.7766099 L63,35.3469344 C63.8380597,33.7518076 64.9345982,32.2108993 66.4609235,30.3431443 C66.7717251,29.9628183 67.8790323,28.6300397 67.8068959,28.7172746 C68.3263322,28.0891173 68.7011112,27.6233418 69.0468832,27.1706749 C71.2576965,24.276392 71.9844169,22.1375569 71.3257444,19.4313756 C71.0376859,18.2478758 70.4110912,17.517686 68.9742629,16.5282447 C68.7810037,16.3951608 67.3352631,15.4441713 66.8689686,15.116357 C65.9533534,14.4726614 65.1766137,13.840098 64.4301896,13.099122 C63.9686499,12.6409511 63.5299689,12.1507026 63.1106975,11.6196921 C62.8460329,11.2844923 61.8360215,9.91575368 61.7508932,9.8029539 C61.1442468,8.999113 60.6107127,8.34908878 60.0276861,7.72571502 C57.5868064,5.11591946 54.6921201,3.48684876 50.7473537,2.99223068 C48.8133385,2.74973244 46.6128356,3.08187747 44.1350472,3.93352521 C41.7721254,4.74569186 39.2978003,5.96430969 36.2758972,7.71400718 C35.1907574,8.3423087 31.6944549,10.451033 31.0860268,10.8050157 C29.2590172,11.8679676 28.0704458,12.447899 27.1151462,12.6766143 C23.3980621,13.5665487 21.5417641,13.8144517 15.4761556,14.4242769 C9.70932522,15.0040634 7.63787921,15.6720182 5.84547082,17.9664375 C2.31756848,22.4824214 2.30001966,26.745368 5.03525551,30.5262335 C7.25540577,33.5951058 11.2586211,36.0795704 14.6008511,36.7766099 L15,36.7766099 L15,38.7766099 L14.5,38.7766099 L14.3046564,38.7573448 C10.4609107,37.9917441 5.95951814,35.2159803 3.41483552,31.6985129 C0.164228384,27.2052593 0.185810765,21.9624831 4.26938651,16.735195 C6.51091942,13.865862 8.99072812,13.0662274 15.2760879,12.4343088 C21.2507035,11.8336319 23.0501658,11.5933191 26.649472,10.7315828 C27.3513846,10.5635328 28.4212115,10.0415396 30.0802648,9.07630443 C30.6698542,8.73328204 34.1685473,6.62311586 35.2737497,5.98319797 C38.3978935,4.17430261 40.9765572,2.90429747 43.4849505,2.04213042 C46.2287598,1.09904784 48.7223522,0.722663732 50.9961772,1.00776932 C55.4363376,1.56450282 58.7454312,3.42679355 61.4883802,6.35956254 C62.125898,7.04119841 62.7016806,7.7426955 63.3472963,8.598173 C63.4499176,8.73415196 64.4396824,10.0754529 64.6803876,10.3803079 C65.0492527,10.8474786 65.434229,11.2777092 65.8392137,11.6797379 C66.4981716,12.3338862 67.1897268,12.8970768 68.0192069,13.4802177 C68.4540023,13.7858875 69.8887464,14.7296436 70.1085828,14.8810293 C71.9118815,16.1228327 72.8429272,17.2078086 73.2690117,18.958393 C74.0959219,22.3557859 73.1780965,25.0570687 70.636251,28.3847219 C70.2718781,28.8617401 69.882634,29.3454927 69.3481883,29.9918011 C69.4155808,29.910303 68.3143243,31.2357988 68.0095847,31.6087069 C65.964343,34.1114566 64.76686,35.9469558 63.9345242,38.1325096 C63.786834,38.5203156 63.414977,38.7766099 63,38.7766099 Z"/><path d="M49.3729332,30.2966166 L42.237281,29.4046601 C39.9003623,27.9688581 37.8783167,26.0219705 36.1781913,23.5697635 C35.8635196,23.115891 35.9763641,22.4928629 36.4302365,22.1781913 C36.884109,21.8635196 37.5071371,21.9763641 37.8218087,22.4302365 C40.5751679,26.4015944 44.2102312,28.8769117 48.76719,29.889075 C49.0234036,29.9459836 49.2346399,30.0964762 49.3729332,30.2966166 Z M56.8116418,31.2264552 C59.1621438,29.7799243 61.1278705,27.7751253 62.7182322,25.2034981 C63.0087188,24.733779 63.6249872,24.5884824 64.0947063,24.878969 C64.5644253,25.1694555 64.7097219,25.785724 64.4192354,26.255443 C63.1069904,28.3773533 61.5515155,30.158264 59.7567476,31.5945935 L56.8116418,31.2264552 Z M38.0755178,29.1155603 L30.5810132,30.0523734 C28.1645005,29.2497913 25.8964992,27.9521554 23.783641,26.162459 C23.3622207,25.8054949 23.3099686,25.1744897 23.6669327,24.7530694 C24.0238968,24.331649 24.654902,24.2793969 25.0763223,24.636361 C28.7637261,27.7597763 32.9155869,29.2099256 37.5792382,29.0081726 C37.7575836,29.0004572 37.927036,29.0399451 38.0755178,29.1155603 Z M15.4181051,31.9477369 C13.5713034,31.1840933 11.810441,30.1182535 10.1386874,28.7515818 C9.71110135,28.4020269 9.64784464,27.7720297 9.99739955,27.3444437 C10.3469545,26.9168576 10.9769517,26.8536009 11.4045377,27.2031558 C14.2638925,29.5407008 17.3774332,30.8963245 20.7664522,31.2791935 L15.4181051,31.9477369 Z"/><path d="M62,34.3700185 C62,33.4350501 61.3522324,32.6248442 60.4401911,32.4190617 C53.2918798,30.8062027 46.1455792,30 39,30 C31.8544208,30 24.7081202,30.8062027 17.5598089,32.4190617 C16.6477658,32.6248442 15.9999972,33.4350512 15.9999972,34.370021 L15.9999972,41.7271889 C23.6648081,39.9092546 31.3319621,39 39,39 C46.6680377,39 54.3351917,39.9092546 62,41.7271889 L62,34.3700185 Z M17.1196185,30.468105 C24.4114981,28.8228529 31.7053884,28 39,28 C46.2946116,28 53.5885019,28.8228529 60.8803819,30.468105 C62.7044649,30.87967 64,32.5000816 64,34.3700185 L64,43 C64,43.6505712 63.3886111,44.1279292 62.7574644,43.9701425 C54.8361865,41.989823 46.9176023,41 39,41 C31.0823977,41 23.1638135,41.989823 15.2425356,43.9701425 C14.611389,44.1279291 14.0000002,43.6505713 14,43.0000003 L13.9999972,34.3700213 C13.9999972,32.5000825 15.2955336,30.8796695 17.1196185,30.468105 Z"/></g></g><g transform="translate(113.000000, 126.000000)" fill="#000000" fill-rule="nonzero"><g transform="translate(960.000000, 384.000000)"><path d="M9.5547002,16.8320503 C9.09517151,17.1384028 8.47430216,17.0142289 8.16794971,16.5547002 C7.86159725,16.0951715 7.98577112,15.4743022 8.4452998,15.1679497 C10.6023438,13.7299204 12.792105,13 15,13 C17.207895,13 19.3976562,13.7299204 21.5547002,15.1679497 C22.0142289,15.4743022 22.1384028,16.0951715 21.8320503,16.5547002 C21.5256978,17.0142289 20.9048285,17.1384028 20.4452998,16.8320503 C18.6023438,15.6034129 16.792105,15 15,15 C13.207895,15 11.3976562,15.6034129 9.5547002,16.8320503 Z" transform="translate(15.000000, 15.000053) scale(1, -1) translate(-15.000000, -15.000053) "/><path d="M8,4 C8,4.55228475 7.55228475,5 7,5 C6.44771525,5 6,4.55228475 6,4 C6,2.8954305 5.1045695,2 4,2 C2.8954305,2 2,2.8954305 2,4 C2,4.55228475 1.55228475,5 1,5 C0.44771525,5 0,4.55228475 0,4 C0,1.790861 1.790861,0 4,0 C6.209139,0 8,1.790861 8,4 Z"/><path d="M30,4 C30,4.55228475 29.5522847,5 29,5 C28.4477153,5 28,4.55228475 28,4 C28,2.8954305 27.1045695,2 26,2 C24.8954305,2 24,2.8954305 24,4 C24,4.55228475 23.5522847,5 23,5 C22.4477153,5 22,4.55228475 22,4 C22,1.790861 23.790861,0 26,0 C28.209139,0 30,1.790861 30,4 Z"/></g></g></g></g>

<!--
girl by Xinh Studio from the Noun Project

https://thenounproject.com/xinhstudio/collection/circle-avatar/?i=2106771


<text x="0" y="143" fill="#000000" font-size="5px" font-weight="bold" font-family="'Helvetica Neue', Helvetica, Arial-Unicode, Arial, Sans-serif">Created by Xinh Studio</text><text x="0" y="148" fill="#000000" font-size="5px" font-weight="bold" font-family="'Helvetica Neue', Helvetica, Arial-Unicode, Arial, Sans-serif">from the Noun Project</text>
-->

</svg>