<svg xmlns="http://www.w3.org/2000/svg" xmlns:xlink="http://www.w3.org/1999/xlink" version="1.1" x="0px" y="0px" viewBox="0 0 100 125" style="enable-background:new 0 0 100 100;" xml:space="preserve"><path d="M18.92383,44.9043c0,10.94763,8.63477,19.88928,19.43945,20.41656V88H35.7998c-0.55273,0-1,0.44775-1,1s0.44727,1,1,1  h7.12695c0.55273,0,1-0.44775,1-1s-0.44727-1-1-1h-2.56348V65.3313c3.97266-0.18964,7.72559-1.50372,10.95007-3.83905  c2.97095,3.46881,7.29944,5.7392,12.16223,6.01788V88h-1.98242c-0.55273,0-1,0.44775-1,1s0.44727,1,1,1h5.96582  c0.55273,0,1-0.44775,1-1s-0.44727-1-1-1h-1.9834V67.51025c9.06934-0.51886,16.29297-7.99481,16.29297-17.13623  c0-9.47656-7.75684-17.18652-17.29199-17.18652c-2.6228,0-5.10156,0.6004-7.33105,1.64343  c-0.69312-1.22382-1.50476-2.38025-2.43848-3.44226c0.56836-1.68213,0.85645-3.41748,0.85645-5.1665  C55.56348,17.27734,48.2959,10,39.36328,10s-16.2002,7.27734-16.2002,16.22217c0,1.74707,0.28809,3.48193,0.85645,5.1665  C20.72949,35.12988,18.92383,39.90527,18.92383,44.9043z M79.76855,50.37402c0,8.03912-6.32739,14.62122-14.29297,15.13623v-5.50385  l4.75195-4.75104c0.39062-0.39014,0.39062-1.02344,0-1.41406s-1.02344-0.39062-1.41406,0l-3.33789,3.33716v-5.7981  c0-0.55225-0.44727-1-1-1s-1,0.44775-1,1v5.79785l-3.33691-3.33691c-0.39062-0.39062-1.02344-0.39062-1.41406,0  s-0.39062,1.02344,0,1.41406l4.75098,4.75098v5.50385c-7.9657-0.51593-14.29199-7.09766-14.29199-15.13617  c0-8.37402,6.86035-15.18652,15.29297-15.18652C72.9082,35.1875,79.76855,42,79.76855,50.37402z M39.36328,12  c7.83008,0,14.2002,6.37988,14.2002,14.22217c0,1.7085-0.31445,3.40381-0.93457,5.03906  c-0.13574,0.35596-0.05664,0.7583,0.20312,1.03662c0.98999,1.06042,1.83984,2.23328,2.55237,3.4845  c-4.9126,3.03491-8.20081,8.43219-8.20081,14.59167c0,3.52356,1.07568,6.80066,2.91333,9.53027  c-2.87122,2.0672-6.20459,3.24005-9.73364,3.42694v-5.10858l4.75195-4.75146c0.39062-0.39062,0.39062-1.02344,0-1.41406  s-1.02344-0.39062-1.41406,0l-3.33789,3.33752v-6.12262l4.75195-4.75104c0.39062-0.39014,0.39062-1.02344,0-1.41406  s-1.02344-0.39062-1.41406,0l-3.33789,3.33716V40.75c0-0.55225-0.44727-1-1-1s-1,0.44775-1,1v5.69385l-3.33691-3.33691  c-0.39062-0.39062-1.02344-0.39062-1.41406,0s-0.39062,1.02344,0,1.41406l4.75098,4.75098v6.12244l-3.33691-3.33728  c-0.39062-0.39062-1.02344-0.39062-1.41406,0s-0.39062,1.02344,0,1.41406l4.75098,4.75146v5.09821  c-9.7019-0.52496-17.43945-8.57153-17.43945-18.41656c0-4.6958,1.76465-9.17285,4.9707-12.60596  c0.25977-0.27881,0.33887-0.68066,0.2041-1.03711c-0.62109-1.6377-0.93555-3.3335-0.93555-5.03906  C25.16309,18.37988,31.5332,12,39.36328,12z"/><path d="M73.91309,22.5625l-1.01172,5.83252c-0.06445,0.37451,0.08789,0.75342,0.39453,0.97803  c0.30762,0.22461,0.7168,0.25439,1.05176,0.08008l5.31152-2.76074l5.3125,2.76074c0.14453,0.07568,0.30273,0.11279,0.46094,0.11279  c0.20801,0,0.41602-0.06494,0.59082-0.19287c0.30664-0.22461,0.45898-0.60352,0.39453-0.97803l-1.01172-5.83252l4.28809-4.13281  c0.27441-0.26514,0.375-0.66406,0.25781-1.02734c-0.11816-0.36328-0.43164-0.62842-0.80957-0.68262l-5.93555-0.85303  l-2.65332-5.31348c-0.33789-0.67773-1.45117-0.67773-1.78906,0l-2.65332,5.31348l-5.93555,0.85303  c-0.37793,0.0542-0.69141,0.31934-0.80957,0.68262c-0.11719,0.36377-0.0166,0.76221,0.25781,1.02734L73.91309,22.5625z   M76.91504,17.77197c0.32422-0.04639,0.60547-0.24951,0.75195-0.54297l1.99219-3.99023l1.99219,3.99023  c0.14648,0.29346,0.42773,0.49658,0.75195,0.54297l4.43066,0.63672l-3.19824,3.08154  c-0.23828,0.23047-0.34766,0.56445-0.29102,0.89111l0.75781,4.36621l-3.98242-2.06934  c-0.14453-0.0752-0.30273-0.11279-0.46094-0.11279s-0.31641,0.0376-0.46094,0.11279l-3.98145,2.06934l0.75781-4.36621  c0.05664-0.32715-0.05273-0.66064-0.29102-0.89111l-3.19824-3.08154L76.91504,17.77197z"/><path d="M28.55859,70.04004c-0.11719-0.36279-0.43066-0.62695-0.80859-0.68164l-5.21875-0.75391l-2.33203-4.70166  c-0.16895-0.34033-0.51562-0.55566-0.89551-0.55566s-0.72656,0.21533-0.89551,0.55566l-2.33301,4.70166l-5.21777,0.75391  c-0.37793,0.05469-0.69141,0.31885-0.80859,0.68164s-0.01855,0.76074,0.25488,1.02588l3.77246,3.65869l-0.88965,5.16357  c-0.06445,0.375,0.08887,0.75391,0.39648,0.97803c0.30664,0.22266,0.71387,0.25342,1.05273,0.07812l4.66797-2.44141l4.66797,2.44141  c0.14648,0.07617,0.30566,0.11377,0.46387,0.11377c0.20801,0,0.41504-0.06494,0.58887-0.19189  c0.30762-0.22412,0.46094-0.60303,0.39648-0.97803l-0.89062-5.16357l3.77344-3.65869  C28.57715,70.80078,28.67578,70.40283,28.55859,70.04004z M22.75879,73.65625c-0.2373,0.22998-0.3457,0.56201-0.28906,0.8877  l0.63672,3.69043l-3.33887-1.74609c-0.29102-0.15137-0.63672-0.15137-0.92773,0l-3.33887,1.74658l0.63574-3.69092  c0.05664-0.32568-0.05176-0.65771-0.28906-0.8877l-2.69043-2.60938l3.72266-0.53809  c0.32617-0.04688,0.60742-0.25098,0.75293-0.54541l1.6709-3.36621l1.66992,3.36621c0.14551,0.29443,0.42676,0.49854,0.75293,0.54541  l3.72363,0.53809L22.75879,73.65625z"/><path d="M59.43164,26.36816h2.22656v2.19775c0,0.55225,0.44727,1,1,1s1-0.44775,1-1v-2.19775h2.22656c0.55273,0,1-0.44775,1-1  s-0.44727-1-1-1H63.6582v-2.19775c0-0.55225-0.44727-1-1-1s-1,0.44775-1,1v2.19775h-2.22656c-0.55273,0-1,0.44775-1,1  S58.87891,26.36816,59.43164,26.36816z"/><path d="M74.04395,72.20264c0,2.83691,2.3252,5.14502,5.18262,5.14502s5.18262-2.30811,5.18262-5.14502  s-2.3252-5.14502-5.18262-5.14502S74.04395,69.36572,74.04395,72.20264z M82.40918,72.20264  c0,1.73438-1.42773,3.14502-3.18262,3.14502s-3.18262-1.41064-3.18262-3.14502s1.42773-3.14502,3.18262-3.14502  S82.40918,70.46826,82.40918,72.20264z"/><path d="M15.18262,23.91455c2.85742,0,5.18262-2.30762,5.18262-5.14453s-2.3252-5.14502-5.18262-5.14502S10,15.93311,10,18.77002  S12.3252,23.91455,15.18262,23.91455z M15.18262,15.625c1.75488,0,3.18262,1.41064,3.18262,3.14502  c0,1.73389-1.42773,3.14453-3.18262,3.14453S12,20.50391,12,18.77002C12,17.03564,13.42773,15.625,15.18262,15.625z"/>

<!--

Enchanted Forest by Made x Made from the Noun Project
https://thenounproject.com/term/enchanted-forest/1728528/

<text x="0" y="115" fill="#000000" font-size="5px" font-weight="bold" font-family="'Helvetica Neue', Helvetica, Arial-Unicode, Arial, Sans-serif">Created by Made x Made</text><text x="0" y="120" fill="#000000" font-size="5px" font-weight="bold" font-family="'Helvetica Neue', Helvetica, Arial-Unicode, Arial, Sans-serif">from the Noun Project</text>

-->

</svg>
