<svg xmlns="http://www.w3.org/2000/svg" xmlns:xlink="http://www.w3.org/1999/xlink" version="1.1" x="0px" y="0px" viewBox="0 0 100 125" style="enable-background:new 0 0 100 100;" xml:space="preserve"><path d="M27.58447,10.06006c-9.79053,0-17.45947,14.24902-17.45947,32.43945c0,17.5545,7.14288,31.43414,16.44141,32.38342v13.11755  h-2.56396c-0.55225,0-1,0.44775-1,1s0.44775,1,1,1h7.12695c0.55225,0,1-0.44775,1-1s-0.44775-1-1-1h-2.56299V74.8714  c6.55927-0.66974,12.31342-7.99921,14.9668-19.13312c2.77655,1.74426,6.00964,2.81012,9.48096,2.98499v29.27722H50.4502  c-0.55225,0-1,0.44775-1,1s0.44775,1,1,1h7.12695c0.55225,0,1-0.44775,1-1s-0.44775-1-1-1h-2.56299V58.72205  c2.10028-0.10596,4.1499-0.54437,6.12036-1.30927c1.78302,5.61627,6.86816,9.76154,12.96362,10.17621v20.4115h-2.56396  c-0.55225,0-1,0.44775-1,1s0.44775,1,1,1h7.12695c0.55225,0,1-0.44775,1-1s-0.44775-1-1-1h-2.56299v-20.4115  c7.61102-0.51776,13.64893-6.85864,13.64893-14.59875c0-8.07764-6.57129-14.64893-14.64893-14.64893  c-0.44952,0-0.89252,0.02759-1.33185,0.06744c-0.31274-10.63629-9.0415-19.19781-19.75214-19.19781  c-4.62952,0-8.88342,1.61041-12.25726,4.28479C38.49878,15.07172,33.24213,10.06006,27.58447,10.06006z M28.56641,72.86688v-6.55048  l4.75146-4.75146c0.39062-0.39062,0.39062-1.02344,0-1.41406s-1.02344-0.39062-1.41406,0l-3.3374,3.3374V57.5498l4.75146-4.75146  c0.39062-0.39062,0.39062-1.02344,0-1.41406s-1.02344-0.39062-1.41406,0l-3.3374,3.3374v-5.65723c0-0.55225-0.44775-1-1-1  s-1,0.44775-1,1v5.65723l-3.3374-3.3374c-0.39062-0.39062-1.02344-0.39062-1.41406,0s-0.39062,1.02344,0,1.41406l4.75146,4.75146  v5.93848l-3.3374-3.3374c-0.39062-0.39062-1.02344-0.39062-1.41406,0s-0.39062,1.02344,0,1.41406l4.75146,4.75146v6.54926  C18.5152,71.8291,12.125,58.60956,12.125,42.49951c0-16.78418,6.93506-30.43945,15.45947-30.43945  c4.94257,0,9.64117,4.79962,12.57245,12.83899c-3.65149,3.59094-5.92401,8.57983-5.92401,14.09363  c0,6.28656,2.95776,11.88544,7.54382,15.51135C39.43365,65.10297,34.31848,72.14178,28.56641,72.86688z M87.74707,52.99023  c0,6.63751-5.14136,12.08588-11.64893,12.59875v-4.94885l6.31299-6.31348c0.39062-0.39062,0.39062-1.02344,0-1.41406  s-1.02344-0.39062-1.41406,0l-4.89893,4.89935V50c0-0.55225-0.44775-1-1-1s-1,0.44775-1,1v7.81195l-4.89893-4.89935  c-0.39062-0.39062-1.02344-0.39062-1.41406,0s-0.39062,1.02344,0,1.41406l6.31299,6.31348v4.94885  c-6.50806-0.51288-11.64941-5.96118-11.64941-12.59875c0-6.97461,5.67432-12.64893,12.64941-12.64893  C82.07275,40.34131,87.74707,46.01562,87.74707,52.99023z M71.78101,38.73444c-6.48267,1.50879-11.33228,7.3205-11.33228,14.2558  c0,0.84021,0.08704,1.65887,0.22351,2.46075c-1.81836,0.7384-3.71436,1.1618-5.65808,1.27106V46.35498l7.30762-7.30762  c0.39062-0.39062,0.39062-1.02344,0-1.41406s-1.02344-0.39062-1.41406,0l-5.89355,5.89355v-9.35107c0-0.55225-0.44775-1-1-1  s-1,0.44775-1,1v9.35107l-5.89355-5.89355c-0.39062-0.39062-1.02344-0.39062-1.41406,0s-0.39062,1.02344,0,1.41406l7.30762,7.30762  v10.36829c-9.33856-0.52325-16.78125-8.26343-16.78125-17.73059c0-9.80469,7.97656-17.78174,17.78125-17.78174  C63.72925,21.21094,71.63855,29.04584,71.78101,38.73444z"/><path d="M86.53271,16.25928l-1.57422-0.85889c-1.40234-0.76562-2.54932-1.91016-3.31641-3.31006l-0.86084-1.5708  c-0.35059-0.64062-1.40332-0.64062-1.75391,0l-0.86084,1.5708c-0.76709,1.3999-1.91406,2.54443-3.31641,3.31006l-1.57422,0.85889  c-0.32129,0.17529-0.521,0.51172-0.521,0.87793c0,0.36572,0.19971,0.70264,0.521,0.87793l1.57422,0.85938  c1.40283,0.76562,2.5498,1.91016,3.31641,3.30957l0.86084,1.5708c0.17529,0.32031,0.51172,0.51953,0.87695,0.51953  s0.70166-0.19922,0.87695-0.51953l0.86084-1.5708c0.7666-1.39941,1.91357-2.54395,3.31641-3.30957l1.57422-0.85938  c0.32129-0.17529,0.521-0.51221,0.521-0.87793C87.05371,16.771,86.854,16.43457,86.53271,16.25928z M79.9043,21.19385  c-0.94434-1.71094-2.34814-3.1123-4.06201-4.05615c1.71387-0.94434,3.11719-2.3457,4.06201-4.05713  c0.94482,1.71143,2.34814,3.11279,4.06201,4.05713C82.25244,18.08154,80.84863,19.48291,79.9043,21.19385z"/><path d="M38.4458,77.96094c1.40234,0.76562,2.54932,1.91016,3.31641,3.30957l0.86084,1.57129  c0.17529,0.32031,0.51172,0.51953,0.87695,0.51953s0.70166-0.19922,0.87695-0.51953l0.86084-1.57129  c0.76709-1.39941,1.91406-2.54395,3.31641-3.30957l1.57422-0.85889c0.32129-0.17529,0.521-0.51172,0.521-0.87793  c0-0.36572-0.19971-0.70264-0.521-0.87793l-1.57422-0.85938c-1.40234-0.76562-2.54932-1.91016-3.31641-3.30957l-0.86084-1.57129  c-0.35059-0.64062-1.40332-0.64062-1.75391,0l-0.86084,1.57129c-0.76709,1.39941-1.91406,2.54395-3.31641,3.30957l-1.57422,0.85938  c-0.32129,0.17529-0.521,0.51221-0.521,0.87793c0,0.36621,0.19971,0.70264,0.521,0.87793L38.4458,77.96094z M43.5,72.16748  c0.94482,1.71094,2.34814,3.1123,4.06201,4.05664c-1.71338,0.94336-3.11719,2.34521-4.06201,4.05615  c-0.94482-1.71094-2.34814-3.1123-4.06201-4.05664C41.15137,75.28027,42.55518,73.87842,43.5,72.16748z"/><path d="M83.21387,36.55859c0.55225,0,1-0.44775,1-1v-1.68262h1.68799c0.55225,0,1-0.44775,1-1s-0.44775-1-1-1h-1.68799v-1.68262  c0-0.55225-0.44775-1-1-1s-1,0.44775-1,1v1.68262h-1.68799c-0.55225,0-1,0.44775-1,1s0.44775,1,1,1h1.68799v1.68262  C82.21387,36.11084,82.66162,36.55859,83.21387,36.55859z"/><path d="M55.64795,10.33301c-0.55225,0-1,0.44775-1,1v1.68262h-1.68799c-0.55225,0-1,0.44775-1,1s0.44775,1,1,1h1.68799v1.68262  c0,0.55225,0.44775,1,1,1s1-0.44775,1-1v-1.68262h1.68799c0.55225,0,1-0.44775,1-1s-0.44775-1-1-1h-1.68799v-1.68262  C56.64795,10.78076,56.2002,10.33301,55.64795,10.33301z"/><path d="M64.40234,69.42188c-0.55225,0-1,0.44775-1,1v1.68311h-1.68799c-0.55225,0-1,0.44775-1,1s0.44775,1,1,1h1.68799v1.68262  c0,0.55225,0.44775,1,1,1s1-0.44775,1-1v-1.68262h1.68799c0.55225,0,1-0.44775,1-1s-0.44775-1-1-1h-1.68799v-1.68311  C65.40234,69.86963,64.95459,69.42188,64.40234,69.42188z"/>

<!--

Enchanted Woods by Made x Made from the Noun Project

https://thenounproject.com/christian933/collection/magic/?i=1759593

<text x="0" y="115" fill="#000000" font-size="5px" font-weight="bold" font-family="'Helvetica Neue', Helvetica, Arial-Unicode, Arial, Sans-serif">Created by Made x Made</text><text x="0" y="120" fill="#000000" font-size="5px" font-weight="bold" font-family="'Helvetica Neue', Helvetica, Arial-Unicode, Arial, Sans-serif">from the Noun Project</text>

-->

</svg>