<svg xmlns="http://www.w3.org/2000/svg" xmlns:xlink="http://www.w3.org/1999/xlink" version="1.1" x="0px" y="0px" viewBox="0 0 100 125" style="enable-background:new 0 0 100 100;" xml:space="preserve"><path d="M83.7,72.4c-0.3-0.2-0.7-0.1-1.1,0.1L80,74.4l-3.1-1.1c-0.4-0.1-0.8,0-1,0.2c-0.3,0.3-0.4,0.7-0.3,1l1,3.2l-2,2.6  c-0.2,0.3-0.3,0.7-0.1,1.1c0.2,0.3,0.5,0.6,0.9,0.6l3.3,0l1.9,2.7c0.2,0.3,0.5,0.4,0.8,0.4c0,0,0.1,0,0.1,0c0.4-0.1,0.7-0.3,0.8-0.7  l1-3.2l3.2-0.9c0.4-0.1,0.6-0.4,0.7-0.8c0.1-0.4-0.1-0.8-0.4-1l-2.7-2l0.1-3.3C84.2,73,84,72.6,83.7,72.4z M82.3,79.6  c-0.3,0.1-0.6,0.3-0.7,0.6L81,81.9l-1-1.5c-0.2-0.3-0.5-0.4-0.8-0.4l-1.8,0l1.1-1.4c0.2-0.3,0.3-0.6,0.2-0.9l-0.6-1.7l1.7,0.6  c0.3,0.1,0.7,0.1,0.9-0.1l1.5-1.1l-0.1,1.8c0,0.3,0.1,0.6,0.4,0.8L84,79L82.3,79.6z"/><path d="M14.6,65.8l-1.1,3.1c-0.1,0.4,0,0.8,0.2,1c0.3,0.3,0.7,0.4,1,0.3l3.2-1l2.6,2c0.2,0.1,0.4,0.2,0.6,0.2c0.1,0,0.3,0,0.4-0.1  c0.3-0.2,0.6-0.5,0.6-0.9l0-3.3l2.8-1.9c0.3-0.2,0.5-0.6,0.4-1c-0.1-0.4-0.3-0.7-0.7-0.8l-3.1-1.1l-0.9-3.2  c-0.1-0.4-0.4-0.6-0.8-0.7c-0.4-0.1-0.8,0.1-1,0.4l-2,2.7l-3.3-0.1c-0.4,0-0.7,0.2-0.9,0.5c-0.2,0.3-0.2,0.7,0.1,1.1L14.6,65.8z   M17.3,63.6c0.3,0,0.6-0.1,0.8-0.4l1.1-1.5l0.5,1.7c0.1,0.3,0.3,0.6,0.6,0.7l1.7,0.6l-1.5,1c-0.3,0.2-0.4,0.5-0.4,0.8l0,1.8  l-1.4-1.1c-0.2-0.1-0.4-0.2-0.6-0.2c-0.1,0-0.2,0-0.3,0l-1.7,0.5l0.6-1.7c0.1-0.3,0.1-0.7-0.1-0.9l-1.1-1.5L17.3,63.6z"/><circle cx="87.8" cy="57.3" r="1.2"/><circle cx="51.7" cy="87.3" r="1.2"/><circle cx="35.2" cy="66.5" r="1.2"/><path d="M21.4,80.1c-2.2,0-3.9,1.8-3.9,3.9s1.8,3.9,3.9,3.9s3.9-1.8,3.9-3.9S23.5,80.1,21.4,80.1z M21.4,85.9  c-1.1,0-1.9-0.9-1.9-1.9s0.9-1.9,1.9-1.9s1.9,0.9,1.9,1.9S22.4,85.9,21.4,85.9z"/><path d="M73.7,59.6c-2.2,0-3.9,1.8-3.9,3.9s1.8,3.9,3.9,3.9s3.9-1.8,3.9-3.9S75.9,59.6,73.7,59.6z M73.7,65.5  c-1.1,0-1.9-0.9-1.9-1.9s0.9-1.9,1.9-1.9s1.9,0.9,1.9,1.9S74.8,65.5,73.7,65.5z"/><path d="M48.5,15c0,2.2,1.8,3.9,3.9,3.9c2.2,0,3.9-1.8,3.9-3.9s-1.8-3.9-3.9-3.9C50.2,11.1,48.5,12.8,48.5,15z M54.3,15  c0,1.1-0.9,1.9-1.9,1.9S50.5,16,50.5,15s0.9-1.9,1.9-1.9S54.3,13.9,54.3,15z"/><path d="M14.2,34.9c0.7,2.2,1.7,4.4,3,6.5c4.2,6.4,10.8,10.4,17.1,10.4c0.3,0,0.6,0,0.8,0l0.3,0.4c0.5,0.8,1.4,1.4,2.4,1.6  c0.3,0.1,0.5,0.1,0.8,0.1c0.7,0,1.4-0.2,2-0.6l1.6-1l7.1,10.9L35.2,85c-0.3,0.5-0.2,1.1,0.3,1.4c0.2,0.1,0.4,0.2,0.5,0.2  c0.3,0,0.7-0.2,0.8-0.5l13.6-21.2l13.7,21c0.2,0.3,0.5,0.5,0.8,0.5c0.2,0,0.4-0.1,0.5-0.2c0.5-0.3,0.6-0.9,0.3-1.4L51.7,63.1l7-10.9  l1.6,1c0.6,0.4,1.3,0.6,2,0.6c0.3,0,0.5,0,0.8-0.1c1-0.2,1.8-0.8,2.4-1.6l0.3-0.4c0.3,0,0.5,0,0.8,0c6.3,0,13-4,17.1-10.4  c2.9-4.5,4.3-9.7,3.8-14.5c-0.4-4.9-2.7-8.9-6.3-11.3c-3.6-2.3-8.2-2.7-12.9-1.1c-2.4,0.9-4.8,2.2-6.8,4c0,0,0,0-0.1,0.1  c-1.8,1.5-3.4,3.3-4.7,5.4c-4.3,6.7-5.1,14.8-2.1,20.6l-0.3,0.4c-0.5,0.8-0.7,1.8-0.5,2.8c0.2,1,0.8,1.8,1.6,2.4l1.6,1l-6.5,10.2  l-6.6-10.2l1.6-1h0c1.7-1.1,2.2-3.4,1.1-5.2l-0.3-0.4c3-5.8,2.2-13.9-2.2-20.6C38,14.5,27,10.8,19.6,15.7C16,18,13.8,22,13.3,26.9  C13.1,29.5,13.4,32.2,14.2,34.9C14.2,34.8,14.2,34.9,14.2,34.9z M64.7,49.6l-7.7-5c-2-3.1-2.6-7.1-1.9-11.2l20.6,13.3  C72.2,49,68.3,50.1,64.7,49.6z M77.8,30.7L67.3,37l1.4-12.2L77.8,30.7z M76.6,44.9l-8.9-5.8L78,32.9L76.6,44.9z M65.2,37.6l-8.9-5.8  l10.4-6.3L65.2,37.6z M81.9,40.2c-0.9,1.5-2,2.8-3.2,4l1.4-12l4.3,2.8C83.8,36.8,83,38.5,81.9,40.2z M68.9,16.3  c4.1-1.4,8-1.1,11.1,0.9c3.1,2,5,5.5,5.4,9.8c0.2,1.9,0,4-0.4,6L63.7,19.2C65.3,18,67.1,17,68.9,16.3z M58.3,25  c1.1-1.7,2.3-3.2,3.7-4.5l4.4,2.8L56,29.7C56.6,28.1,57.4,26.5,58.3,25z M55.8,47.3c-0.1-0.3,0-0.7,0.1-1l7.7,5  c-0.2,0.2-0.5,0.4-0.9,0.5c-0.5,0.1-0.9,0-1.3-0.2l-4.9-3.1C56.1,48.1,55.9,47.8,55.8,47.3z M25.2,46.8l20.6-13.4  c0.7,4.1,0.1,8.1-1.8,11.2l-7.7,5C32.6,50.2,28.7,49.1,25.2,46.8z M45.1,47.3c-0.1,0.5-0.4,0.8-0.8,1.1h0l-4.8,3.2  c-0.4,0.3-0.9,0.3-1.3,0.2c-0.3-0.1-0.6-0.2-0.9-0.5l7.7-5C45.2,46.6,45.2,47,45.1,47.3z M42.4,25c1.3,2,2.3,4.1,2.9,6.3L23.5,45.5  c-1.7-1.4-3.3-3.2-4.6-5.2c-1.1-1.7-1.9-3.4-2.5-5.2l22.3-14.5C40.1,21.8,41.3,23.3,42.4,25z M15.3,27.1c0.4-4.3,2.3-7.8,5.4-9.8  c4.7-3.1,11.1-2.1,16.4,1.9L15.8,33.1C15.3,31.1,15.2,29.1,15.3,27.1z"/><path d="M21.7,35.7c-1.3,0.9-1.7,2.6-0.8,4c0.5,0.8,1.5,1.3,2.4,1.3c0.5,0,1.1-0.1,1.6-0.5c0.6-0.4,1.1-1.1,1.2-1.8  c0.2-0.8,0-1.5-0.4-2.2C24.8,35.3,23,34.9,21.7,35.7z M23.7,38.9c-0.4,0.3-0.9,0.1-1.2-0.3c-0.3-0.4-0.1-0.9,0.3-1.2  c0.1-0.1,0.3-0.1,0.5-0.1c0.3,0,0.6,0.1,0.7,0.4C24.2,38.1,24.1,38.6,23.7,38.9z"/><path d="M33.3,31.6c-0.9-1.3-2.6-1.7-4-0.8c-1.3,0.9-1.7,2.6-0.8,4C29,35.6,30,36,30.9,36c0.5,0,1.1-0.2,1.6-0.5  c0.6-0.4,1.1-1.1,1.2-1.8C33.9,33,33.7,32.2,33.3,31.6C33.3,31.6,33.3,31.6,33.3,31.6z M31.7,33.3c0,0.2-0.2,0.4-0.4,0.5  c-0.4,0.3-0.9,0.1-1.2-0.3c-0.3-0.4-0.1-0.9,0.3-1.2c0.1-0.1,0.3-0.1,0.5-0.1c0.3,0,0.6,0.1,0.7,0.4C31.7,32.9,31.8,33.1,31.7,33.3z  "/><path d="M37,25.7c-0.6,0.4-1.1,1.1-1.2,1.8s0,1.5,0.4,2.2c0.4,0.6,1.1,1.1,1.8,1.2c0.2,0,0.4,0.1,0.6,0.1c0.5,0,1.1-0.2,1.6-0.5  c0.6-0.4,1.1-1.1,1.2-1.8c0.2-0.8,0-1.5-0.4-2.2c-0.4-0.6-1.1-1.1-1.8-1.2C38.4,25.2,37.6,25.3,37,25.7z M39.3,27.7  C39.3,27.7,39.3,27.7,39.3,27.7c0.1,0.2,0.2,0.4,0.1,0.7c0,0.2-0.2,0.4-0.4,0.5c-0.4,0.3-0.9,0.1-1.2-0.3c-0.3-0.4-0.1-0.9,0.3-1.2  c0.1-0.1,0.3-0.1,0.5-0.1c0.1,0,0.1,0,0.2,0C39,27.3,39.2,27.5,39.3,27.7z"/>

<!--
fiesta by Made by Made from the Noun Project
https://thenounproject.com/term/fiesta/879459/

<text x="0" y="115" fill="#000000" font-size="5px" font-weight="bold" font-family="'Helvetica Neue', Helvetica, Arial-Unicode, Arial, Sans-serif">Created by Made by Made</text><text x="0" y="120" fill="#000000" font-size="5px" font-weight="bold" font-family="'Helvetica Neue', Helvetica, Arial-Unicode, Arial, Sans-serif">from the Noun Project</text>

-->

</svg>