<svg xmlns="http://www.w3.org/2000/svg" xmlns:xlink="http://www.w3.org/1999/xlink" viewBox="0 0 128 160" version="1.1" x="0px" y="0px"><title>011 girl avatar profile woman hat flower</title><desc>Created with Sketch.</desc><g stroke="none" stroke-width="1" fill="none" fill-rule="evenodd"><g transform="translate(-1792.000000, -640.000000)"><g transform="translate(64.000000, 64.000000)" fill="#000000" fill-rule="nonzero"><path d="M1792,704 C1756.65378,704 1728,675.346224 1728,640 C1728,604.653776 1756.65378,576 1792,576 C1827.34622,576 1856,604.653776 1856,640 C1856,675.346224 1827.34622,704 1792,704 Z M1792,702 C1826.24165,702 1854,674.241654 1854,640 C1854,605.758346 1826.24165,578 1792,578 C1757.75835,578 1730,605.758346 1730,640 C1730,674.241654 1757.75835,702 1792,702 Z"/><g transform="translate(1746.000000, 594.000000)"><path d="M39,73.1790699 C35.4944678,72.9473087 32.4075839,72.5287083 29.7062014,71.924362 C29.5664187,71.8930902 29.4349853,71.8321539 29.320797,71.7456775 C25.9574717,69.198584 23.916854,65.9220122 23.2100818,61.9607087 C23.1663343,63.7102521 23.5036817,65.8681972 24.2425995,68.4408232 C24.481675,69.2731914 23.6216368,69.9952719 22.8432101,69.6157382 C17.3595459,66.9420951 14.4628737,62.8572956 13.4719338,57.0937279 C12.9267419,53.9227481 12.8782699,51.266813 13.3243517,46 L15.3321984,46 C14.8881748,51.1894738 14.9284388,53.7619379 15.443013,56.754837 C16.1997558,61.156253 18.1405433,64.3767373 21.7413017,66.7072602 C20.6958743,61.8766379 21.1713508,58.3787745 23.2917925,56.2517159 C23.949073,55.5923843 25.0715593,56.1100785 24.9967679,57.0380559 C24.5486196,62.5984744 26.325597,66.8864913 30.3570283,70.0199324 C32.869766,70.5682282 35.7417483,70.9540822 39,71.1746188 L39,73.1790699 Z M53,73.1790772 L53,71.174628 C56.4692633,70.9398153 59.5006112,70.5175757 62.1267086,69.9113538 C66.0599398,66.7881227 67.7918129,62.5352621 67.3487593,57.0380559 C67.2739679,56.1100785 68.3964541,55.5923843 69.0537346,56.2517159 C71.1346866,58.3391615 71.6310719,61.7472632 70.6612844,66.4376699 C74.0498839,64.0990258 75.878565,60.9064283 76.5868154,56.577038 C77.070625,53.6196088 77.1038888,51.0846381 76.6682663,46 L78.6761124,46 C79.1133296,51.1559362 79.0723801,53.7713912 78.5605788,56.8999284 C77.6252393,62.6174679 74.8513153,66.6956063 69.5784018,69.404725 C68.8014653,69.8038996 67.9221156,69.0850483 68.1588304,68.244253 C68.8588891,65.7576909 69.1780402,63.6652506 69.1354499,61.9607236 C68.4397877,65.8597862 66.4518048,69.0957951 63.1814074,71.6257561 C63.0686422,71.7129906 62.9385275,71.7751047 62.7997896,71.8079324 C59.9793439,72.475298 56.7260206,72.9327418 53,73.1790772 Z"/><path d="M76.3299362,101 L75.4999282,91.0399036 C75.224789,87.7382337 73.1579091,84.8547075 70.1195513,83.5336824 L55.6077124,77.2241872 C53.4170526,76.2717264 52.0000691,74.1105264 52.0000691,71.7217669 L52.0000691,66 L54.0000691,66 L54.0000691,71.7217669 C54.0000691,73.3142732 54.9447248,74.7550732 56.4051646,75.3900471 L70.9170036,81.6995423 C74.630552,83.3141286 77.1567385,86.8384383 77.4930197,90.8738126 L78.3368686,101 L76.3299362,101 Z M13.6632695,101 L14.5071185,90.8738126 C14.8433997,86.8384383 17.3695862,83.3141286 21.0831346,81.6995423 L35.5949735,75.3900471 C37.0554134,74.7550732 38.0000691,73.3142732 38.0000691,71.7217669 L38.0000691,66 L40.0000691,66 L40.0000691,71.7217669 C40.0000691,74.1105264 38.5830855,76.2717264 36.3924257,77.2241872 L21.8805868,83.5336824 C18.842229,84.8547075 16.7753492,87.7382337 16.50021,91.0399036 L15.670202,101 L13.6632695,101 Z"/><path d="M22.017435,43 L24.0187393,43 C24.4996363,55.8072756 34.1753943,66 46,66 C57.8246057,66 67.5003637,55.8072756 67.9812607,43 L69.982565,43 C69.4977861,56.8796648 58.9643982,68 46,68 C33.0356018,68 22.5022139,56.8796648 22.017435,43 Z"/><path d="M74.9913377,45 C74.9971013,45.1638274 75,45.3305151 75,45.5 C75,49.7391277 71.6283559,55 68.5,55 C67.5391088,55 66.7472671,54.5884002 66.187218,53.8393338 C65.8565091,53.3970103 65.9469907,52.7703438 66.3893142,52.4396349 C66.8316377,52.108926 67.4583042,52.1994075 67.7890131,52.641731 C67.9779129,52.8943848 68.181097,53 68.5,53 C70.2897778,53 73,48.7711632 73,45.5 C73,45.3282053 72.9969878,45.1615512 72.9910314,45 L74.9913377,45 Z M17.0086623,45 L19.0089686,45 C19.0030122,45.1615512 19,45.3282053 19,45.5 C19,48.7711632 21.7102222,53 23.5,53 C23.818903,53 24.0220871,52.8943848 24.2109869,52.641731 C24.5416958,52.1994075 25.1683623,52.108926 25.6106858,52.4396349 C26.0530093,52.7703438 26.1434909,53.3970103 25.812782,53.8393338 C25.2527329,54.5884002 24.4608912,55 23.5,55 C20.3716441,55 17,49.7391277 17,45.5 C17,45.3305151 17.0028987,45.1638274 17.0086623,45 Z"/><g transform="translate(19.000000, 76.000000)"><path d="M49.1042299,29 L47.1019025,29 C47.5247165,19.742929 49.2393275,11.588024 51.7944391,6.74711364 L53.5631805,7.68068423 C51.1714541,12.2120453 49.5223218,20.0515696 49.1042299,29 Z M4.89577011,29 C4.47767824,20.0515696 2.82854593,12.2120453 0.436819535,7.68068423 L2.20556088,6.74711364 C4.76067248,11.588024 6.47528345,19.742929 6.89809748,29 L4.89577011,29 Z M37.8561653,0.567340687 L39.6011773,1.54454742 L27.872506,22.4886034 C27.4906632,23.1704655 26.5093368,23.1704655 26.127494,22.4886034 L14.3988227,1.54454742 L16.1438347,0.567340687 L27,19.9533502 L37.8561653,0.567340687 Z"/></g><g><path d="M71.9300321,16 L69.6700536,16 C65.0769345,7.65474752 56.1988358,2 46,2 C31.0883118,2 19,14.0883118 19,29 L19,32 L17,32 L17,29 C17,12.9837423 29.9837423,-2.54241073e-14 46,-2.84217094e-14 C57.342217,-3.04658958e-14 67.1636174,6.51138971 71.9300321,16 Z"/><path d="M90.5729937,43.5957514 L91.4270063,45.4042486 C82.8722153,49.444011 76.3976468,48.3607159 66.2643062,43.114242 C65.8751366,42.9127519 64.0319768,41.9426809 63.7135145,41.7745166 C55.6583968,37.5224655 51.5382205,36 46,36 C40.4617795,36 36.3416032,37.5224655 28.2864855,41.7745166 C27.9680232,41.9426809 26.1248634,42.9127519 25.7356938,43.114242 C15.6023532,48.3607159 9.12778466,49.444011 0.572993695,45.4042486 L1.42700631,43.5957514 C9.29556474,47.3114595 15.1809181,46.3267491 24.8161441,41.3381709 C25.2007727,41.1390319 27.0338343,40.1742661 27.3528413,40.0058141 C35.6831899,35.608477 40.036135,34 46,34 C51.963865,34 56.3168101,35.608477 64.6471587,40.0058141 C64.9661657,40.1742661 66.7992273,41.1390319 67.1838559,41.3381709 C76.8190819,46.3267491 82.7044353,47.3114595 90.5729937,43.5957514 Z"/><path d="M62,22.2344144 L62,24.2660608 C57.3563843,23.4232115 52.0226686,23 46,23 C34.1421124,23 24.9549322,24.6405679 18.4472136,27.8944272 L17.5527864,26.1055728 C24.3784012,22.6927654 33.8578876,21 46,21 C51.9784996,21 57.3114846,21.4103861 62,22.2344144 Z"/><path d="M63,27.6073728 L63,29.649801 C57.8272086,28.5501874 52.1613628,28 46,28 C26.3536689,28 11.7454516,33.5939684 2.09550546,44.7572238 C2.41203961,45.2597313 3.51029838,46.1165777 5.3141959,47.0419802 C7.48281491,48.1544853 10.4797836,49.3016952 14,50.3587923 L14,52.4493112 C5.72969987,50.0511867 -1.42108547e-14,47.080015 -1.42108547e-14,44.5 C-1.42108547e-14,44.2638107 0.0836006024,44.0352447 0.235991335,43.854794 C10.2954414,31.9430832 25.5776555,26 46,26 C52.1306143,26 57.7980261,26.5355606 63,27.6073728 Z M74,30.9583933 C81.0832203,33.9245253 87.0074685,38.2224254 91.7640087,43.854794 C91.9163994,44.0352447 92,44.2638107 92,44.5 C92,47.1715012 86.2878978,50.1592186 78,52.5436591 L78,50.4570902 C81.5326481,49.4084187 84.5246376,48.2662352 86.6824583,47.1489902 C88.5180059,46.1986071 89.6150002,45.316224 89.915414,44.7698605 C85.6034193,39.7778437 80.3006586,35.8986915 74,33.1346085 L74,30.9583933 Z"/></g><g transform="translate(61.000000, 15.000000)"><path d="M20.4592921,5.75 C21.5432125,7.62740515 20.3431503,9.83954151 17.4996946,11.5 C20.3431503,13.1604585 21.5432125,15.3725948 20.4592921,17.25 C19.3753718,19.1274052 16.8595744,19.194189 13.9998473,17.5619133 C13.9835759,20.8546475 12.6678407,23 10.5,23 C8.33215926,23 7.01642407,20.8546475 7.0001527,17.5619133 C4.1404256,19.194189 1.62462823,19.1274052 0.540707856,17.25 C-0.543212512,15.3725948 0.656849669,13.1604585 3.5003054,11.5 C0.656849669,9.83954151 -0.543212512,7.62740515 0.540707856,5.75 C1.62462823,3.87259485 4.1404256,3.805811 7.0001527,5.43808665 C7.01642407,2.14535252 8.33215926,0 10.5,0 C12.6678407,0 13.9835759,2.14535252 13.9998473,5.43808665 C16.8595744,3.805811 19.3753718,3.87259485 20.4592921,5.75 Z M13.4790497,8.19408042 C12.7704752,8.74703788 11.7488975,8.15722975 11.8734855,7.26710745 C11.9567324,6.67234736 12,6.07243693 12,5.5 C12,3.1340841 11.3115937,2 10.5,2 C9.68840631,2 9,3.1340841 9,5.5 C9,6.07243693 9.04326762,6.67234736 9.12651453,7.26710745 C9.25110247,8.15722975 8.22952481,8.74703788 7.52095025,8.19408042 C7.04749636,7.82460643 6.5495925,7.48718036 6.05384758,7.20096189 C4.00490431,6.01800394 2.67855551,6.04713925 2.27275866,6.75 C1.86696182,7.45286075 2.50490431,8.61608016 4.55384758,9.79903811 C5.0495925,10.0852566 5.59076398,10.3477409 6.14746478,10.573027 C6.98062728,10.9101919 6.98062728,12.0898081 6.14746478,12.426973 C5.59076398,12.6522591 5.0495925,12.9147434 4.55384758,13.2009619 C2.50490431,14.3839198 1.86696182,15.5471392 2.27275866,16.25 C2.67855551,16.9528608 4.00490431,16.9819961 6.05384758,15.7990381 C6.5495925,15.5128196 7.04749636,15.1753936 7.52095025,14.8059196 C8.22952481,14.2529621 9.25110247,14.8427703 9.12651453,15.7328926 C9.04326762,16.3276526 9,16.9275631 9,17.5 C9,19.8659159 9.68840631,21 10.5,21 C11.3115937,21 12,19.8659159 12,17.5 C12,16.9275631 11.9567324,16.3276526 11.8734855,15.7328926 C11.7488975,14.8427703 12.7704752,14.2529621 13.4790497,14.8059196 C13.9525036,15.1753936 14.4504075,15.5128196 14.9461524,15.7990381 C16.9950957,16.9819961 18.3214445,16.9528608 18.7272413,16.25 C19.1330382,15.5471392 18.4950957,14.3839198 16.4461524,13.2009619 C15.9504075,12.9147434 15.409236,12.6522591 14.8525352,12.426973 C14.0193727,12.0898081 14.0193727,10.9101919 14.8525352,10.573027 C15.409236,10.3477409 15.9504075,10.0852566 16.4461524,9.79903811 C18.4950957,8.61608016 19.1330382,7.45286075 18.7272413,6.75 C18.3214445,6.04713925 16.9950957,6.01800394 14.9461524,7.20096189 C14.4504075,7.48718036 13.9525036,7.82460643 13.4790497,8.19408042 Z"/><path d="M10.5,16 C8.01471863,16 6,13.9852814 6,11.5 C6,9.01471863 8.01471863,7 10.5,7 C12.9852814,7 15,9.01471863 15,11.5 C15,13.9852814 12.9852814,16 10.5,16 Z M10.5,14 C11.8807119,14 13,12.8807119 13,11.5 C13,10.1192881 11.8807119,9 10.5,9 C9.11928813,9 8,10.1192881 8,11.5 C8,12.8807119 9.11928813,14 10.5,14 Z"/></g></g><path d="M1796.23001,689.720744 C1796.40759,689.634546 1797.04659,689.324787 1797.17945,689.260321 C1802.48431,686.686232 1804.88735,685.275999 1806.84032,683.2975 C1809.27316,680.832856 1810.05758,678.011701 1809.03524,674.263117 L1810.96476,673.736883 C1812.17779,678.184628 1811.18971,681.738222 1808.26368,684.7025 C1806.09259,686.90197 1803.56931,688.382773 1798.05255,691.059679 C1797.9192,691.124388 1797.28034,691.434077 1797.10333,691.519997 C1794.97772,692.551725 1793.74576,693.174091 1792.48564,693.874157 C1792.18362,694.041946 1791.81638,694.041948 1791.51436,693.874161 C1790.25427,693.17412 1789.02231,692.551762 1786.89681,691.520097 C1786.71976,691.434157 1786.08076,691.124402 1785.94738,691.05968 C1780.43062,688.382799 1777.90728,686.901976 1775.73617,684.702502 C1772.81014,681.738226 1771.82206,678.184631 1773.03508,673.736883 L1774.96461,674.263117 C1773.94227,678.011703 1774.72669,680.832857 1777.15954,683.297498 C1779.11252,685.276002 1781.51561,686.686254 1786.82047,689.26032 C1786.95336,689.324797 1787.5925,689.634623 1787.77013,689.720841 C1789.65844,690.63738 1790.85751,691.238473 1792,691.859035 C1793.1425,691.23845 1794.34159,690.637344 1796.23001,689.720744 Z"/></g><g transform="translate(113.000000, 126.000000)" fill="#000000" fill-rule="nonzero"><g transform="translate(1728.000000, 576.000000)"><path d="M9.5547002,16.8320503 C9.09517151,17.1384028 8.47430216,17.0142289 8.16794971,16.5547002 C7.86159725,16.0951715 7.98577112,15.4743022 8.4452998,15.1679497 C10.6023438,13.7299204 12.792105,13 15,13 C17.207895,13 19.3976562,13.7299204 21.5547002,15.1679497 C22.0142289,15.4743022 22.1384028,16.0951715 21.8320503,16.5547002 C21.5256978,17.0142289 20.9048285,17.1384028 20.4452998,16.8320503 C18.6023438,15.6034129 16.792105,15 15,15 C13.207895,15 11.3976562,15.6034129 9.5547002,16.8320503 Z" transform="translate(15.000000, 15.000053) scale(1, -1) translate(-15.000000, -15.000053) "/><path d="M8,4 C8,4.55228475 7.55228475,5 7,5 C6.44771525,5 6,4.55228475 6,4 C6,2.8954305 5.1045695,2 4,2 C2.8954305,2 2,2.8954305 2,4 C2,4.55228475 1.55228475,5 1,5 C0.44771525,5 0,4.55228475 0,4 C0,1.790861 1.790861,0 4,0 C6.209139,0 8,1.790861 8,4 Z"/><path d="M30,4 C30,4.55228475 29.5522847,5 29,5 C28.4477153,5 28,4.55228475 28,4 C28,2.8954305 27.1045695,2 26,2 C24.8954305,2 24,2.8954305 24,4 C24,4.55228475 23.5522847,5 23,5 C22.4477153,5 22,4.55228475 22,4 C22,1.790861 23.790861,0 26,0 C28.209139,0 30,1.790861 30,4 Z"/></g></g></g></g>

<!--

girl by Xinh Studio from the Noun Project
https://thenounproject.com/xinhstudio/collection/circle-avatar/?i=2106822

<text x="0" y="143" fill="#000000" font-size="5px" font-weight="bold" font-family="'Helvetica Neue', Helvetica, Arial-Unicode, Arial, Sans-serif">Created by Xinh Studio</text><text x="0" y="148" fill="#000000" font-size="5px" font-weight="bold" font-family="'Helvetica Neue', Helvetica, Arial-Unicode, Arial, Sans-serif">from the Noun Project</text>
-->

</svg>