<svg xmlns="http://www.w3.org/2000/svg" xmlns:xlink="http://www.w3.org/1999/xlink" viewBox="0 0 128 160" version="1.1" x="0px" y="0px"><title>016 girl avatar profile woman hat flower</title><desc>Created with Sketch.</desc><g stroke="none" stroke-width="1" fill="none" fill-rule="evenodd"><g transform="translate(-832.000000, -640.000000)"><g transform="translate(64.000000, 64.000000)" fill="#000000" fill-rule="nonzero"><path d="M832,704 C796.653776,704 768,675.346224 768,640 C768,604.653776 796.653776,576 832,576 C867.346224,576 896,604.653776 896,640 C896,675.346224 867.346224,704 832,704 Z M832,702 C866.241654,702 894,674.241654 894,640 C894,605.758346 866.241654,578 832,578 C797.758346,578 770,605.758346 770,640 C770,674.241654 797.758346,702 832,702 Z"/><g transform="translate(793.000000, 592.000000)"><path d="M55.1491947,61.8508053 L57.0358133,59.9641867 C57.0333269,61.7025576 57.3867296,63.6088011 58.1557758,65.4205605 C60.1347027,70.08262 64.2833986,74.4676433 69.1618186,77.054507 C69.1117144,75.5753312 69.2681207,73.9691916 69.6088725,71.6227552 C69.6325034,71.4600315 69.6556704,71.3017406 69.7025665,70.9817843 C70.4382397,65.9568567 70.4256814,63.6149906 69.201834,60.731787 C67.6436049,57.0608291 65.3680625,54.6941053 63.1298588,53.8701412 L64.646007,52.353993 C67.1421793,53.6047251 69.4709068,56.2470734 71.0428437,59.9503247 C72.4534635,63.2735366 72.4675599,65.9022172 71.6814706,71.2715053 C71.634537,71.59172 71.6115556,71.7487429 71.5881112,71.9101822 C71.132799,75.0454877 71.0291091,76.7317956 71.3098241,78.5741252 C71.4284505,79.3526685 70.6423574,79.956455 69.9207438,79.6410572 C63.9147031,77.0159798 58.70343,71.8293622 56.3147661,66.2020228 C55.7120167,64.7820342 55.3269786,63.30118 55.149194,61.8507999 Z"/><path d="M23.7199053,62.7199053 C23.5110905,63.8883697 23.167991,65.0647183 22.6852339,66.2020228 C20.29657,71.8293622 15.0852969,77.0159798 9.07925622,79.6410572 C8.35764264,79.956455 7.57154951,79.3526685 7.69017586,78.5741252 C7.97089093,76.7317956 7.867201,75.0454877 7.41188879,71.9101822 C7.38844441,71.7487429 7.36546305,71.59172 7.31852936,71.2715053 C6.53244006,65.9022172 6.54653652,63.2735366 7.95715626,59.9503247 C9.39301522,56.567653 11.4603098,54.070156 13.7098808,52.7098808 L15.1751344,54.1751344 C13.1687933,55.1977509 11.1951924,57.440599 9.79816597,60.731787 C8.57431865,63.6149906 8.56176025,65.9568567 9.29743354,70.9817843 C9.34432961,71.3017406 9.36749656,71.4600315 9.39112746,71.6227552 C9.73187931,73.9691916 9.88828562,75.5753312 9.83818144,77.054507 C14.7166014,74.4676433 18.8652973,70.08262 20.8442242,65.4205605 C21.4731196,63.9389758 21.824061,62.3942065 21.9297257,60.9297257 L23.7199053,62.7199053 Z"/><path d="M69.3299362,103 L68.4999282,93.0399036 C68.224789,89.7382337 66.1579091,86.8547075 63.1195513,85.5336824 L48.6077124,79.2241872 C46.4170526,78.2717264 45.0000691,76.1105264 45.0000691,73.7217669 L45.0000691,68 L47.0000691,68 L47.0000691,73.7217669 C47.0000691,75.3142732 47.9447248,76.7550732 49.4051646,77.3900471 L63.9170036,83.6995423 C67.630552,85.3141286 70.1567385,88.8384383 70.4930197,92.8738126 L71.3368686,103 L69.3299362,103 Z M6.66326953,103 L7.50711848,92.8738126 C7.84339967,88.8384383 10.3695862,85.3141286 14.0831346,83.6995423 L28.5949735,77.3900471 C30.0554134,76.7550732 31.0000691,75.3142732 31.0000691,73.7217669 L31.0000691,68 L33.0000691,68 L33.0000691,73.7217669 C33.0000691,76.1105264 31.5830855,78.2717264 29.3924257,79.2241872 L14.8805868,85.5336824 C11.842229,86.8547075 9.77534915,89.7382337 9.50021,93.0399036 L8.67020196,103 L6.66326953,103 Z"/><path d="M15.017435,43 C15.0058464,43.3317946 15,43.665166 15,44 C15,58.3416449 25.7256867,70 39,70 C52.2743133,70 63,58.3416449 63,44 C63,43.665166 62.9941536,43.3317946 62.982565,43 L60.9812607,43 C60.9937128,43.3316242 61,43.6650014 61,44 C61,57.2725926 51.1307852,68 39,68 C26.8692148,68 17,57.2725926 17,44 C17,43.6650014 17.0062872,43.3316242 17.0187393,43 L15.017435,43 Z"/><path d="M67.460143,43 C67.8142728,43.9659335 68,45.1433508 68,46.5 C68,50.7391277 64.6283559,56 61.5,56 C60.5391088,56 59.7472671,55.5884002 59.187218,54.8393338 C58.8565091,54.3970103 58.9469907,53.7703438 59.3893142,53.4396349 C59.8316377,53.108926 60.4583042,53.1994075 60.7890131,53.641731 C60.9779129,53.8943848 61.181097,54 61.5,54 C63.2897778,54 66,49.7711632 66,46.5 C66,44.8947401 65.7369991,43.7383093 65.2665191,43 L67.460143,43 Z M10.539857,43 L12.7334809,43 C12.2630009,43.7383093 12,44.8947401 12,46.5 C12,49.7711632 14.7102222,54 16.5,54 C16.818903,54 17.0220871,53.8943848 17.2109869,53.641731 C17.5416958,53.1994075 18.1683623,53.108926 18.6106858,53.4396349 C19.0530093,53.7703438 19.1434909,54.3970103 18.812782,54.8393338 C18.2527329,55.5884002 17.4608912,56 16.5,56 C13.3716441,56 10,50.7391277 10,46.5 C10,45.1433508 10.1857272,43.9659335 10.539857,43 Z"/><g><path d="M56,30.7241344 L56,32.776039 C51.1351676,31.623179 45.474691,31 39,31 C25.7702373,31 15.9318718,33.649384 9.3152297,38.1250919 C4.6598453,41.2741425 2,45.2477878 2,47.5 C2,48.8968556 4.5661398,50.5025818 9.91066092,51.7285198 C11.1482205,52.012394 12.5117582,52.2714823 14,52.5047435 L14,54.5333279 C4.75933642,53.1206826 1.42108547e-14,50.7236608 1.42108547e-14,47.5 C1.48996313e-14,44.4947946 3.03749609,39.9569621 8.19465493,36.4684953 C15.1639544,31.7542388 25.3916931,29 39,29 C45.4163729,29 51.0790755,29.6015123 56,30.7241344 Z M68,35.250264 C68.623577,35.6106826 69.2243054,35.9850174 69.8022512,36.3728237 C74.9885949,39.8529024 78,44.3806376 78,47.5 C78,50.8366615 73.3223438,53.2246593 64,54.6039843 L64,52.5836391 C71.9695341,51.4104097 76,49.5993719 76,47.5 C76,45.1315915 73.367634,41.1737526 68.6878642,38.0335891 C68.4623873,37.8822923 68.2331014,37.7331143 68,37.5860873 L68,35.250264 Z"/><path d="M65.4402348,18 C63.0113375,7.70462078 52.8792831,2 39,2 C23.014626,2 12,9.567254 12,23 L12,36 L10,36 L10,23 C10,8.2682766 22.0350096,-1.10134124e-13 39,-1.10134124e-13 C53.9382515,-1.10134124e-13 65.0540908,6.41072718 67.4968191,18 L65.4402348,18 Z"/><path d="M77.7649112,46.8558643 L76.2350888,48.1441357 C73.8076084,45.2615028 70.5918298,43.8705286 66.2188851,43.5763149 C62.8162758,43.3473859 60.1451428,43.6180034 52.3569621,44.7474564 C46.2146782,45.6382191 44.085921,45.9999499 39,46 C33.914079,46.0000501 31.7853218,45.6382191 25.6430379,44.7474564 C17.8548572,43.6180034 15.1837242,43.3473859 11.7811149,43.5763149 C7.40817022,43.8705286 4.19239161,45.2615028 1.7649112,48.1441357 L0.235088802,46.8558643 C3.04430044,43.5199254 6.76847581,41.909046 11.6468575,41.5808263 C15.247499,41.3385736 17.9840805,41.6158217 25.930078,42.7681616 C31.9829824,43.6459623 33.9175696,44.0000481 39,44 C44.0824304,43.9999519 46.0170176,43.6459623 52.069922,42.7681616 C60.0159195,41.6158217 62.752501,41.3385736 66.3531425,41.5808263 C71.2315242,41.909046 74.9556996,43.5199254 77.7649112,46.8558643 Z"/><path d="M58,25.8381735 L58,27.8916339 C52.6980835,26.6327223 46.3640513,26 39,26 C27.1421124,26 17.9549322,27.6405679 11.4472136,30.8944272 L10.5527864,29.1055728 C17.3784012,25.6927654 26.8578876,24 39,24 C46.2933831,24 52.626084,24.610754 58,25.8381735 Z"/></g><path d="M55.283862,81.3477537 L57.2693295,81.5884165 L55.9927338,92.1203314 C55.9318767,92.622402 55.5057455,93 55,93 C50.0189982,93 44.9422515,96.1729666 39.7808688,102.624695 C39.3805435,103.125102 38.6194565,103.125102 38.2191312,102.624695 C33.0577485,96.1729666 27.9810018,93 23,93 C22.4942545,93 22.0681233,92.622402 22.0072662,92.1203314 L20.7306705,81.5884165 L22.716138,81.3477537 L23.889567,91.0285425 C29.0008524,91.3567438 34.034959,94.5138612 39,100.422627 C43.965041,94.5138612 48.9991476,91.3567438 54.110433,91.0285425 L55.283862,81.3477537 Z M58.1492961,95.9393178 L60.0508395,83.3891316 L62.0282705,83.6887423 L59.9887155,97.1498054 C59.9089312,97.6763819 59.4304396,98.0480315 58.9004963,97.9950372 C52.6378518,97.3687727 46.269483,101.189794 39.792624,109.609711 C39.3923273,110.130096 38.6076727,110.130096 38.207376,109.609711 C31.730517,101.189794 25.3621482,97.3687727 19.0995037,97.9950372 C18.5695604,98.0480315 18.0910688,97.6763819 18.0112845,97.1498054 L15.9717295,83.6887423 L17.9491605,83.3891316 L19.8507039,95.9393178 C26.3234541,95.6924303 32.707263,99.5454428 39,107.381579 C45.292737,99.5454428 51.6765459,95.6924303 58.1492961,95.9393178 Z"/><g transform="translate(55.000000, 17.000000)"><path d="M20.4592921,5.75 C21.5432125,7.62740515 20.3431503,9.83954151 17.4996946,11.5 C20.3431503,13.1604585 21.5432125,15.3725948 20.4592921,17.25 C19.3753718,19.1274052 16.8595744,19.194189 13.9998473,17.5619133 C13.9835759,20.8546475 12.6678407,23 10.5,23 C8.33215926,23 7.01642407,20.8546475 7.0001527,17.5619133 C4.1404256,19.194189 1.62462823,19.1274052 0.540707856,17.25 C-0.543212512,15.3725948 0.656849669,13.1604585 3.5003054,11.5 C0.656849669,9.83954151 -0.543212512,7.62740515 0.540707856,5.75 C1.62462823,3.87259485 4.1404256,3.805811 7.0001527,5.43808665 C7.01642407,2.14535252 8.33215926,0 10.5,0 C12.6678407,0 13.9835759,2.14535252 13.9998473,5.43808665 C16.8595744,3.805811 19.3753718,3.87259485 20.4592921,5.75 Z M13.4790497,8.19408042 C12.7704752,8.74703788 11.7488975,8.15722975 11.8734855,7.26710745 C11.9567324,6.67234736 12,6.07243693 12,5.5 C12,3.1340841 11.3115937,2 10.5,2 C9.68840631,2 9,3.1340841 9,5.5 C9,6.07243693 9.04326762,6.67234736 9.12651453,7.26710745 C9.25110247,8.15722975 8.22952481,8.74703788 7.52095025,8.19408042 C7.04749636,7.82460643 6.5495925,7.48718036 6.05384758,7.20096189 C4.00490431,6.01800394 2.67855551,6.04713925 2.27275866,6.75 C1.86696182,7.45286075 2.50490431,8.61608016 4.55384758,9.79903811 C5.0495925,10.0852566 5.59076398,10.3477409 6.14746478,10.573027 C6.98062728,10.9101919 6.98062728,12.0898081 6.14746478,12.426973 C5.59076398,12.6522591 5.0495925,12.9147434 4.55384758,13.2009619 C2.50490431,14.3839198 1.86696182,15.5471392 2.27275866,16.25 C2.67855551,16.9528608 4.00490431,16.9819961 6.05384758,15.7990381 C6.5495925,15.5128196 7.04749636,15.1753936 7.52095025,14.8059196 C8.22952481,14.2529621 9.25110247,14.8427703 9.12651453,15.7328926 C9.04326762,16.3276526 9,16.9275631 9,17.5 C9,19.8659159 9.68840631,21 10.5,21 C11.3115937,21 12,19.8659159 12,17.5 C12,16.9275631 11.9567324,16.3276526 11.8734855,15.7328926 C11.7488975,14.8427703 12.7704752,14.2529621 13.4790497,14.8059196 C13.9525036,15.1753936 14.4504075,15.5128196 14.9461524,15.7990381 C16.9950957,16.9819961 18.3214445,16.9528608 18.7272413,16.25 C19.1330382,15.5471392 18.4950957,14.3839198 16.4461524,13.2009619 C15.9504075,12.9147434 15.409236,12.6522591 14.8525352,12.426973 C14.0193727,12.0898081 14.0193727,10.9101919 14.8525352,10.573027 C15.409236,10.3477409 15.9504075,10.0852566 16.4461524,9.79903811 C18.4950957,8.61608016 19.1330382,7.45286075 18.7272413,6.75 C18.3214445,6.04713925 16.9950957,6.01800394 14.9461524,7.20096189 C14.4504075,7.48718036 13.9525036,7.82460643 13.4790497,8.19408042 Z"/><path d="M10.5,16 C8.01471863,16 6,13.9852814 6,11.5 C6,9.01471863 8.01471863,7 10.5,7 C12.9852814,7 15,9.01471863 15,11.5 C15,13.9852814 12.9852814,16 10.5,16 Z M10.5,14 C11.8807119,14 13,12.8807119 13,11.5 C13,10.1192881 11.8807119,9 10.5,9 C9.11928813,9 8,10.1192881 8,11.5 C8,12.8807119 9.11928813,14 10.5,14 Z"/></g></g></g><g transform="translate(113.000000, 126.000000)" fill="#000000" fill-rule="nonzero"><g transform="translate(768.000000, 576.000000)"><path d="M9.5547002,16.8320503 C9.09517151,17.1384028 8.47430216,17.0142289 8.16794971,16.5547002 C7.86159725,16.0951715 7.98577112,15.4743022 8.4452998,15.1679497 C10.6023438,13.7299204 12.792105,13 15,13 C17.207895,13 19.3976562,13.7299204 21.5547002,15.1679497 C22.0142289,15.4743022 22.1384028,16.0951715 21.8320503,16.5547002 C21.5256978,17.0142289 20.9048285,17.1384028 20.4452998,16.8320503 C18.6023438,15.6034129 16.792105,15 15,15 C13.207895,15 11.3976562,15.6034129 9.5547002,16.8320503 Z" transform="translate(15.000000, 15.000053) scale(1, -1) translate(-15.000000, -15.000053) "/><path d="M8,4 C8,4.55228475 7.55228475,5 7,5 C6.44771525,5 6,4.55228475 6,4 C6,2.8954305 5.1045695,2 4,2 C2.8954305,2 2,2.8954305 2,4 C2,4.55228475 1.55228475,5 1,5 C0.44771525,5 0,4.55228475 0,4 C0,1.790861 1.790861,0 4,0 C6.209139,0 8,1.790861 8,4 Z"/><path d="M30,4 C30,4.55228475 29.5522847,5 29,5 C28.4477153,5 28,4.55228475 28,4 C28,2.8954305 27.1045695,2 26,2 C24.8954305,2 24,2.8954305 24,4 C24,4.55228475 23.5522847,5 23,5 C22.4477153,5 22,4.55228475 22,4 C22,1.790861 23.790861,0 26,0 C28.209139,0 30,1.790861 30,4 Z"/></g></g></g></g>

<!--

girl by Xinh Studio from the Noun Project
https://thenounproject.com/term/girl/2106825/

<text x="0" y="143" fill="#000000" font-size="5px" font-weight="bold" font-family="'Helvetica Neue', Helvetica, Arial-Unicode, Arial, Sans-serif">Created by Xinh Studio</text><text x="0" y="148" fill="#000000" font-size="5px" font-weight="bold" font-family="'Helvetica Neue', Helvetica, Arial-Unicode, Arial, Sans-serif">from the Noun Project</text>

-->

</svg>