<svg xmlns="http://www.w3.org/2000/svg" xmlns:xlink="http://www.w3.org/1999/xlink" version="1.1" x="0px" y="0px" viewBox="0 0 64 80" style="enable-background:new 0 0 64 64;" xml:space="preserve"><g><path d="M43,49c-2.757,0-5,2.243-5,5s2.243,5,5,5s5-2.243,5-5S45.757,49,43,49z M43,57c-1.654,0-3-1.346-3-3s1.346-3,3-3   s3,1.346,3,3S44.654,57,43,57z"/><path d="M8,53c-1.654,0-3,1.346-3,3s1.346,3,3,3s3-1.346,3-3S9.654,53,8,53z M8,57c-0.551,0-1-0.449-1-1s0.449-1,1-1s1,0.449,1,1   S8.551,57,8,57z"/><path d="M61,27h-8c-1.654,0-3,1.346-3,3v5h-4v-8H32v8h-4V19h17v-5.551L25,0.817L5,13.449V19h17v16h-4v-6h-4v-2H8v8H6v4v2v8.295   C3.112,50.158,1,52.835,1,56c0,3.86,3.14,7,7,7s7-3.14,7-7c0-0.34-0.033-0.672-0.08-1h19.139c0.5,4.493,4.317,8,8.941,8   c4.962,0,9-4.038,9-9V41h1c1.654,0,3-1.346,3-3v-5h5c1.103,0,2-0.897,2-2v-2C63,27.897,62.103,27,61,27z M44,29v2H34v-2H44z M34,33   h10v2H34V33z M32.574,13l-4.649-7.97L40.544,13H32.574z M30.259,13H19.741L25,3.985L30.259,13z M17.426,13H9.456l12.618-7.97   L17.426,13z M31,15v2H19v-2H31z M33,17v-2h10v2H33z M7,15h10v2H7V15z M24,19h2v16h-2V19z M16,31v4h-2v-4H16z M10,29h2v6h-2V29z    M8,37h24h14h4v2H8V37z M8,61c-2.757,0-5-2.243-5-5s2.243-5,5-5s5,2.243,5,5S10.757,61,8,61z M43,61c-3.86,0-7-3.14-7-7s3.14-7,7-7   s7,3.14,7,7S46.86,61,43,61z M43,45c-4.624,0-8.441,3.507-8.941,8H14.315c-1.126-2.361-3.53-4-6.315-4v-8h42v7.356   C48.349,46.312,45.826,45,43,45z M61,31h-7v7c0,0.551-0.449,1-1,1h-1v-3v-1v-5c0-0.551,0.449-1,1-1h8V31z"/></g>

<!--
kiosk trolley by Eucalyp from the Noun Project

https://thenounproject.com/term/kiosk-trolley/1982737/

<text x="0" y="79" fill="#000000" font-size="5px" font-weight="bold" font-family="'Helvetica Neue', Helvetica, Arial-Unicode, Arial, Sans-serif">Created by Eucalyp</text><text x="0" y="84" fill="#000000" font-size="5px" font-weight="bold" font-family="'Helvetica Neue', Helvetica, Arial-Unicode, Arial, Sans-serif">from the Noun Project</text>

-->

</svg>
