<svg xmlns="http://www.w3.org/2000/svg" xmlns:xlink="http://www.w3.org/1999/xlink" viewBox="0 0 128 160" version="1.1" x="0px" y="0px"><title>023 girl avatar profile woman worker hat</title><desc>Created with Sketch.</desc><g stroke="none" stroke-width="1" fill="none" fill-rule="evenodd"><g transform="translate(-1408.000000, -448.000000)"><g transform="translate(64.000000, 64.000000)" fill="#000000" fill-rule="nonzero"><path d="M1408,512 C1372.65378,512 1344,483.346224 1344,448 C1344,412.653776 1372.65378,384 1408,384 C1443.34622,384 1472,412.653776 1472,448 C1472,483.346224 1443.34622,512 1408,512 Z M1408,510 C1442.24165,510 1470,482.241654 1470,448 C1470,413.758346 1442.24165,386 1408,386 C1373.75835,386 1346,413.758346 1346,448 C1346,482.241654 1373.75835,510 1408,510 Z"/><g transform="translate(1375.000000, 438.000000)"><path d="M55.0628199,70 L53.0614214,70 C53.4028286,60.3320453 55.1477036,51.7616146 57.7944391,46.7471136 L59.5631805,47.6806842 C57.0827587,52.3800873 55.4010294,60.6375647 55.0628199,70 Z M10.9371801,70 C10.5989706,60.6375647 8.91724128,52.3800873 6.43681954,47.6806842 L8.20556088,46.7471136 C10.8522964,51.7616146 12.5971714,60.3320453 12.9385786,70 L10.9371801,70 Z M43.8561653,40.5673407 L45.6011773,41.5445474 L33.872506,62.4886034 C33.4906632,63.1704655 32.5093368,63.1704655 32.127494,62.4886034 L20.3988227,41.5445474 L22.1438347,40.5673407 L33,59.9533502 L43.8561653,40.5673407 Z"/><path d="M63.3299362,65 L62.4999282,55.0399036 C62.224789,51.7382337 60.1579091,48.8547075 57.1195513,47.5336824 L42.6077124,41.2241872 C40.4170526,40.2717264 39.0000691,38.1105264 39.0000691,35.7217669 L39.0000691,30 L41.0000691,30 L41.0000691,35.7217669 C41.0000691,37.3142732 41.9447248,38.7550732 43.4051646,39.3900471 L57.9170036,45.6995423 C61.630552,47.3141286 64.1567385,50.8384383 64.4930197,54.8738126 L65.3368686,65 L63.3299362,65 Z M0.663269533,65 L1.50711848,54.8738126 C1.84339967,50.8384383 4.36958617,47.3141286 8.0831346,45.6995423 L22.5949735,39.3900471 C24.0554134,38.7550732 25.0000691,37.3142732 25.0000691,35.7217669 L25.0000691,30 L27.0000691,30 L27.0000691,35.7217669 C27.0000691,38.1105264 25.5830855,40.2717264 23.3924257,41.2241872 L8.88058682,47.5336824 C5.84222902,48.8547075 3.77534915,51.7382337 3.50021,55.0399036 L2.67020196,65 L0.663269533,65 Z"/><path d="M12.6698866,19.8244771 L14.3276796,18.6971779 C18.217454,25.4885477 25.133171,30 33,30 C39.5722535,30 45.4806708,26.8511965 49.5154163,21.8547997 L50.9628745,23.2443595 C46.5693299,28.6129768 40.1548826,32 33,32 C24.4250197,32 16.913566,27.1350384 12.6698866,19.8244771 Z"/><path d="M17.5004229,5.55012687 C16.0763616,8.56956125 15.3081617,10.8385388 14.8449462,13.4760329 C14.0023207,18.2738427 14.6677244,23.1902557 17.2020281,28.7435688 C17.6362792,29.6951251 16.5027868,30.5904236 15.6776887,29.9475811 C7.78262575,23.7964558 3,13.8355527 3,3 C3,2.39562054 3.00904823,1.79823119 3.02699893,1.20809968 L5.01216576,1.80364973 C5.0040717,2.19883022 5,2.59764353 5,3 C5,11.7221443 8.27673043,19.8278619 13.8368499,25.602898 C12.4382626,21.2285189 12.1704546,17.1422149 12.8750954,13.1300736 C13.3604893,10.3662985 14.1456815,8.01065949 15.5632829,4.96898487 L17.5004229,5.55012687 Z M62.9401708,0.894586944 C62.9797971,1.59090449 63,2.2929434 63,3 C63,14.3009673 57.7949238,24.6350779 49.332371,30.6867568 C48.569366,31.2323914 47.5426661,30.5218616 47.7844891,29.6155419 C50.2919463,20.2179319 49.9248978,14.0566592 47.2051018,10.1651935 C45.9429507,8.35931631 44.322479,7.08320984 41.9426518,6 L45.9328039,6 C47.0676467,6.84719011 48.0129728,7.82986126 48.8444023,9.019465 C51.6514887,13.0358252 52.2555809,18.904749 50.4137655,27.2767592 C57.0151359,21.4705568 61,12.615888 61,3 C61,2.60320394 60.9926446,2.20653169 60.978074,1.81023215 L62.9401708,0.894586944 Z"/></g><path d="M1379,431.781627 L1379,433.897077 C1377.70214,434.571917 1377,435.301683 1377,436.058824 C1377,439.773859 1391.54121,444 1408,444 C1424.45879,444 1439,439.773859 1439,436.058824 C1439,435.301683 1438.29786,434.571917 1437,433.897077 L1437,431.781627 C1439.57616,432.953914 1441,434.385759 1441,436.058824 C1441,441.539391 1425.65204,446 1408,446 C1390.34796,446 1375,441.539391 1375,436.058824 C1375,434.385759 1376.42384,432.953914 1379,431.781627 Z"/><path d="M1379,434 C1378.44772,434 1378,433.552285 1378,433 L1378,430 C1378,413.431458 1391.43146,400 1408,400 C1424.56854,400 1438,413.431458 1438,430 L1438,433 C1438,433.552285 1437.55228,434 1437,434 L1379,434 Z M1436,432 L1436,430 C1436,414.536027 1423.46397,402 1408,402 C1392.53603,402 1380,414.536027 1380,430 L1380,432 L1436,432 Z"/><path d="M1411.44632,401.271871 L1413.44189,401.404909 L1411.99779,423.066519 C1411.96277,423.591817 1411.52646,424 1411,424 L1405,424 C1404.47354,424 1404.03723,423.591817 1404.00221,423.066519 L1402.55811,401.404909 L1404.55368,401.271871 L1405.93555,422 L1410.06445,422 L1411.44632,401.271871 Z M1391.9612,405.55611 L1393.85328,404.907998 C1395.63019,410.095434 1396.34255,416.14351 1395.99876,423.049717 C1395.97227,423.582018 1395.53296,424 1395,424 L1389,424 C1388.44772,424 1388,423.552285 1388,423 C1388,418.068719 1387.53828,413.609259 1386.61721,409.621783 L1388.56589,409.171652 C1389.45954,413.040403 1389.93485,417.316475 1389.99375,422 L1394.04188,422 C1394.26546,415.731841 1393.56948,410.251266 1391.9612,405.55611 Z M1427.50104,409.239945 L1429.45039,409.687195 C1428.53935,413.658017 1428.08266,418.095673 1428.08266,423 C1428.08266,423.552285 1427.63494,424 1427.08266,424 L1421.08266,424 C1420.5497,424 1420.11039,423.582018 1420.08389,423.049717 C1419.74106,416.162621 1420.44854,410.128925 1422.21465,404.951094 L1424.10756,405.59675 C1422.50917,410.282881 1421.81784,415.749922 1422.04078,422 L1426.08891,422 C1426.14746,417.344011 1426.61754,413.090704 1427.50104,409.239945 Z"/></g><g transform="translate(113.000000, 126.000000)" fill="#000000" fill-rule="nonzero"><g transform="translate(1344.000000, 384.000000)"><path d="M9.5547002,16.8320503 C9.09517151,17.1384028 8.47430216,17.0142289 8.16794971,16.5547002 C7.86159725,16.0951715 7.98577112,15.4743022 8.4452998,15.1679497 C10.6023438,13.7299204 12.792105,13 15,13 C17.207895,13 19.3976562,13.7299204 21.5547002,15.1679497 C22.0142289,15.4743022 22.1384028,16.0951715 21.8320503,16.5547002 C21.5256978,17.0142289 20.9048285,17.1384028 20.4452998,16.8320503 C18.6023438,15.6034129 16.792105,15 15,15 C13.207895,15 11.3976562,15.6034129 9.5547002,16.8320503 Z" transform="translate(15.000000, 15.000053) scale(1, -1) translate(-15.000000, -15.000053) "/><path d="M8,4 C8,4.55228475 7.55228475,5 7,5 C6.44771525,5 6,4.55228475 6,4 C6,2.8954305 5.1045695,2 4,2 C2.8954305,2 2,2.8954305 2,4 C2,4.55228475 1.55228475,5 1,5 C0.44771525,5 0,4.55228475 0,4 C0,1.790861 1.790861,0 4,0 C6.209139,0 8,1.790861 8,4 Z"/><path d="M30,4 C30,4.55228475 29.5522847,5 29,5 C28.4477153,5 28,4.55228475 28,4 C28,2.8954305 27.1045695,2 26,2 C24.8954305,2 24,2.8954305 24,4 C24,4.55228475 23.5522847,5 23,5 C22.4477153,5 22,4.55228475 22,4 C22,1.790861 23.790861,0 26,0 C28.209139,0 30,1.790861 30,4 Z"/></g></g></g></g>


<!--

girl by Xinh Studio from the Noun Project
https://thenounproject.com/xinhstudio/collection/circle-avatar/?i=2106826

<text x="0" y="143" fill="#000000" font-size="5px" font-weight="bold" font-family="'Helvetica Neue', Helvetica, Arial-Unicode, Arial, Sans-serif">Created by Xinh Studio</text><text x="0" y="148" fill="#000000" font-size="5px" font-weight="bold" font-family="'Helvetica Neue', Helvetica, Arial-Unicode, Arial, Sans-serif">from the Noun Project</text>

-->

</svg>