<svg xmlns="http://www.w3.org/2000/svg" xmlns:xlink="http://www.w3.org/1999/xlink" xml:space="preserve" version="1.1" style="shape-rendering:geometricPrecision;text-rendering:geometricPrecision;image-rendering:optimizeQuality;" viewBox="0 0 262 262" x="0px" y="0px" fill-rule="evenodd" clip-rule="evenodd"><defs><style type="text/css">
   
    .fil0 {
      fill:hsl(77, 51%, 51%);
      transform-origin: center;
      transform: rotate(-90deg);
    }
   
  </style></defs><g><path class="fil0" d="M38 127c100,52 126,-64 224,-98 -35,-2 -55,-14 -102,7 35,-19 62,-14 97,-10 -105,-47 -184,-35 -219,80 -22,24 -25,41 -37,61 -1,2 -5,17 10,13 8,-26 17,-52 27,-66 18,-16 37,-43 68,-55 -40,19 -58,56 -68,68z"/></g>
  
  <!-- leaf by kareemovic from the Noun Project:
  https://thenounproject.com/search/?q=leaf&creator=3230700&i=1391986
  <text x="0" y="196" fill="#000000" font-size="5px" font-weight="bold" font-family="'Helvetica Neue', Helvetica, Arial-Unicode, Arial, Sans-serif">Created by kareemovic</text><text x="0" y="201" fill="#000000" font-size="5px" font-weight="bold" font-family="'Helvetica Neue', Helvetica, Arial-Unicode, Arial, Sans-serif">from the Noun Project</text>
  -->

</svg>