<svg xmlns="http://www.w3.org/2000/svg" xmlns:xlink="http://www.w3.org/1999/xlink" version="1.1" x="0px" y="0px" viewBox="0 0 100 125" style="enable-background:new 0 0 100 100;" xml:space="preserve"><path d="M19.38965,47.01367c0,9.73682,7.72369,17.69501,17.40771,18.21442v22.77289h-1.70605c-0.55225,0-1,0.44727-1,1  s0.44775,1,1,1h5.41113c0.55225,0,1-0.44727,1-1s-0.44775-1-1-1h-1.70508V65.22797  c4.04639-0.21765,7.75519-1.71509,10.69507-4.12225c2.39685,5.59888,7.75427,9.36346,13.90845,9.73462v17.16064h-1.70557  c-0.55225,0-1,0.44727-1,1s0.44775,1,1,1h5.41113c0.55225,0,1-0.44727,1-1s-0.44775-1-1-1h-1.70557V70.82959  c8.47168-0.51678,15.20947-7.50049,15.20947-16.03564c0-8.87012-7.27148-16.08594-16.20947-16.08594  c-3.23676,0-6.40814,0.97211-9.07324,2.75787c-2.37274-7.36627-9.33197-12.71783-17.53174-12.71783  C27.64648,28.74805,19.38965,36.94238,19.38965,47.01367z M64.40088,40.70801c7.83496,0,14.20947,6.31934,14.20947,14.08594  c0,7.43201-5.84119,13.52338-13.20947,14.03571v-4.5152l5.47803-5.47754c0.39062-0.39062,0.39062-1.02344,0-1.41406  s-1.02344-0.39062-1.41406,0l-4.06396,4.0636v-6.51868c0-0.55273-0.44775-1-1-1s-1,0.44727-1,1v6.51855l-4.06348-4.06348  c-0.39062-0.39062-1.02344-0.39062-1.41406,0s-0.39062,1.02344,0,1.41406l5.47754,5.47754v4.52594  c-5.58966-0.38409-10.40405-3.96497-12.3349-9.20294c3.17285-3.28308,5.13568-7.7265,5.13568-12.62378  c0-1.1842-0.12354-2.33936-0.34149-3.46136C58.31122,41.72162,61.3186,40.70801,64.40088,40.70801z M37.7959,30.74805  c9.04639,0,16.40576,7.29688,16.40576,16.26562c0,8.63361-6.82489,15.69702-15.4043,16.21436v-7.26514l5.47754-5.47754  c0.39062-0.39062,0.39062-1.02344,0-1.41406s-1.02344-0.39062-1.41406,0l-4.06348,4.06348v-6.51855c0-0.55273-0.44775-1-1-1  s-1,0.44727-1,1v6.51868l-4.06396-4.0636c-0.39062-0.39062-1.02344-0.39062-1.41406,0s-0.39062,1.02344,0,1.41406l5.47803,5.47754  v7.26532c-8.58075-0.51593-15.40771-7.57996-15.40771-16.21454C21.38965,38.04492,28.74951,30.74805,37.7959,30.74805z"/><path d="M89.83789,19.80762c-0.11719-0.36328-0.43066-0.62793-0.80811-0.68164l-6.91162-1l-3.08984-6.22754  c-0.33789-0.68164-1.4541-0.68164-1.79199,0l-3.08984,6.22754l-6.91162,1c-0.37744,0.05371-0.69092,0.31836-0.80811,0.68164  c-0.11768,0.3623-0.01855,0.75977,0.25537,1.02539l4.99805,4.8457l-1.17969,6.8418c-0.06494,0.375,0.08887,0.75391,0.39648,0.97754  c0.30713,0.22559,0.71436,0.25391,1.05225,0.07812l6.18311-3.23242l6.18311,3.23242c0.146,0.07715,0.30469,0.11426,0.46338,0.11426  c0.20752,0,0.41455-0.06445,0.58887-0.19238c0.30762-0.22363,0.46143-0.60254,0.39648-0.97754l-1.17969-6.8418l4.99805-4.8457  C89.85645,20.56738,89.95557,20.16992,89.83789,19.80762z M82.81348,24.61035c-0.2373,0.22949-0.3457,0.5625-0.28955,0.8877  l0.92578,5.36914l-4.854-2.53809c-0.14502-0.07617-0.3042-0.11426-0.46338-0.11426s-0.31836,0.03809-0.46338,0.11426l-4.854,2.53809  l0.92578-5.36914c0.05615-0.3252-0.05225-0.6582-0.28955-0.8877l-3.91602-3.79688l5.41699-0.7832  c0.3252-0.04688,0.60645-0.25,0.75293-0.54492l2.42725-4.89258l2.42725,4.89258c0.14648,0.29492,0.42773,0.49805,0.75293,0.54492  l5.41699,0.7832L82.81348,24.61035z"/><path d="M28.46973,16.27148l-5.46631-0.79102l-2.44385-4.9248c-0.33789-0.68164-1.4541-0.68164-1.79199,0l-2.44385,4.9248  l-5.4668,0.79102c-0.37744,0.05371-0.69092,0.31836-0.80811,0.68066c-0.11768,0.36328-0.01855,0.76074,0.25488,1.02637  l3.95264,3.83301l-0.93262,5.41016c-0.06494,0.375,0.08887,0.75391,0.39648,0.97852  c0.30713,0.22363,0.71387,0.25488,1.05225,0.07715l4.89111-2.55664l4.89062,2.55664c0.146,0.07617,0.30469,0.11426,0.46338,0.11426  c0.20752,0,0.41455-0.06445,0.58887-0.19141c0.30762-0.22461,0.46143-0.60352,0.39648-0.97852l-0.93262-5.41016l3.95264-3.83301  c0.27344-0.26562,0.37256-0.66309,0.25488-1.02637C29.16064,16.58984,28.84717,16.3252,28.46973,16.27148z M23.29883,20.74316  c-0.23682,0.22949-0.34521,0.5625-0.28906,0.8877l0.67871,3.9375l-3.56152-1.8623c-0.29004-0.15234-0.63672-0.15234-0.92676,0  l-3.56201,1.8623l0.67871-3.9375c0.05615-0.3252-0.05225-0.6582-0.28906-0.8877l-2.87109-2.78418l3.97266-0.57422  c0.3252-0.04688,0.60645-0.25,0.75293-0.54492L19.66357,13.25l1.78125,3.58984c0.14648,0.29492,0.42773,0.49805,0.75293,0.54492  l3.97217,0.57422L23.29883,20.74316z"/><path d="M56.17285,14.17383c-0.55225,0-1,0.44727-1,1v2.19824h-2.22656c-0.55225,0-1,0.44727-1,1s0.44775,1,1,1h2.22656v2.19727  c0,0.55273,0.44775,1,1,1s1-0.44727,1-1v-2.19727h2.22656c0.55225,0,1-0.44727,1-1s-0.44775-1-1-1h-2.22656v-2.19824  C57.17285,14.62109,56.7251,14.17383,56.17285,14.17383z"/><path d="M60.69531,26.90625c-0.55225,0-1,0.44727-1,1v2.19824h-2.22705c-0.55225,0-1,0.44727-1,1s0.44775,1,1,1h2.22705v2.19727  c0,0.55273,0.44775,1,1,1s1-0.44727,1-1v-2.19727h2.22656c0.55225,0,1-0.44727,1-1s-0.44775-1-1-1h-2.22656v-2.19824  C61.69531,27.35352,61.24756,26.90625,60.69531,26.90625z"/><path d="M82.01807,70.85742c-0.55225,0-1,0.44727-1,1v2.19727h-2.22705c-0.55225,0-1,0.44727-1,1s0.44775,1,1,1h2.22705v2.19824  c0,0.55273,0.44775,1,1,1s1-0.44727,1-1v-2.19824h2.22656c0.55225,0,1-0.44727,1-1s-0.44775-1-1-1h-2.22656v-2.19727  C83.01807,71.30469,82.57031,70.85742,82.01807,70.85742z"/><path d="M45.96777,18.37207c0-2.83691-2.32471-5.14551-5.18262-5.14551c-2.85742,0-5.18213,2.30859-5.18213,5.14551  s2.32471,5.14453,5.18213,5.14453C43.64307,23.5166,45.96777,21.20898,45.96777,18.37207z M37.60303,18.37207  c0-1.73438,1.42773-3.14551,3.18213-3.14551c1.75488,0,3.18262,1.41113,3.18262,3.14551s-1.42773,3.14453-3.18262,3.14453  C39.03076,21.5166,37.60303,20.10645,37.60303,18.37207z"/><path d="M19.47363,63.2207c-2.85791,0-5.18262,2.30762-5.18262,5.14453s2.32471,5.14551,5.18262,5.14551  s5.18262-2.30859,5.18262-5.14551S22.33154,63.2207,19.47363,63.2207z M19.47363,71.51074  c-1.75488,0-3.18262-1.41113-3.18262-3.14551s1.42773-3.14453,3.18262-3.14453s3.18262,1.41016,3.18262,3.14453  S21.22852,71.51074,19.47363,71.51074z"/>

<!--

forest by Made x Made from the Noun Project
https://thenounproject.com/term/enchanted-forest/1771937/

<text x="0" y="115" fill="#000000" font-size="5px" font-weight="bold" font-family="'Helvetica Neue', Helvetica, Arial-Unicode, Arial, Sans-serif">Created by Made x Made</text><text x="0" y="120" fill="#000000" font-size="5px" font-weight="bold" font-family="'Helvetica Neue', Helvetica, Arial-Unicode, Arial, Sans-serif">from the Noun Project</text>

-->

</svg>
