<svg xmlns="http://www.w3.org/2000/svg" xmlns:xlink="http://www.w3.org/1999/xlink" version="1.1" x="0px" y="0px" viewBox="0 0 64 80" style="enable-background:new 0 0 64 64;" xml:space="preserve"><g><rect x="28" y="7" width="2" height="2"/><path d="M41.213,46.834c-0.501,1.503-0.116,3.133,1.004,4.252C42.807,51.676,43.59,52,44.424,52c1.721,0,3.121-1.4,3.121-3.121   v-1.497l-5.584-2.792L41.213,46.834z M43.111,47.467l0.019-0.057l2.416,1.208v0.261c0,0.618-0.503,1.121-1.121,1.121   c-0.3,0-0.581-0.116-0.793-0.328C43.05,49.091,42.851,48.246,43.111,47.467z"/><path d="M56.787,46.834l-0.748-2.244l-5.584,2.792v1.497c0,1.721,1.4,3.121,3.121,3.121c0.834,0,1.618-0.324,2.207-0.914   C56.903,49.967,57.288,48.337,56.787,46.834z M54.369,49.672C54.157,49.884,53.875,50,53.576,50c-0.618,0-1.121-0.503-1.121-1.121   v-0.261l2.416-1.208l0.019,0.057C55.149,48.246,54.95,49.091,54.369,49.672z"/><path d="M56.995,40.051c-2.542-2.274-5.964-3.36-9.38-2.974C45.1,37.36,42.808,38.441,41,40.055V35h9c2.757,0,5-2.243,5-5V17   c0-2.757-2.243-5-5-5s-5,2.243-5,5v8h-4v-4c0-4.385-2.343-8.334-6.149-10.459c-0.008-0.104-0.01-0.207-0.026-0.311   c1.056-1.09,1.45-2.691,0.979-4.177c-0.472-1.488-1.711-2.552-3.194-2.804C31.919,1.881,30.542,1,29,1s-2.919,0.881-3.609,2.25   c-1.483,0.253-2.723,1.315-3.194,2.804c-0.471,1.485-0.077,3.087,0.979,4.177c-0.016,0.104-0.018,0.207-0.026,0.311   C19.343,12.666,17,16.615,17,21v18h-4V29c0-2.757-2.243-5-5-5s-5,2.243-5,5v15c0,2.757,2.243,5,5,5h9v14h39c1.103,0,2-0.897,2-2   v-4.079c1.938-2.198,3-4.995,3-7.921C61,45.588,59.54,42.326,56.995,40.051z M28,29v2.434l-3,1.8V29H28z M25,35.566l4-2.4l4,2.4   v2.668l-4-2.4l-4,2.4V35.566z M30,38.766l3,1.8v4.668l-3-1.8V38.766z M25,40.566l3-1.8v4.668l-3,1.8V40.566z M25,47.566l4-2.4   l4,2.4v2.668l-4-2.4l-4,2.4V47.566z M25,52.566l3-1.8v4.668l-3,1.8V52.566z M30,50.766l3,1.8v4.668l-3-1.8V50.766z M30,31.434V29h3   v4.234L30,31.434z M25,59.566l4-2.4l4,2.4V61h-8V59.566z M34,27H19v-6h20v6H34z M27.663,14.945   c0.458-0.057,0.912-0.167,1.337-0.383c0.428,0.218,0.884,0.346,1.346,0.402c0.618,1.303,1.136,2.653,1.542,4.036h-5.775   C26.52,17.61,27.041,16.254,27.663,14.945z M45,27c1.103,0,2-0.897,2-2v-8c0-1.302,0.839-2.402,2-2.816V22h2v-7.816   c1.161,0.414,2,1.514,2,2.816v13c0,1.654-1.346,3-3,3h-9v-2h8c1.103,0,2-0.897,2-2v-5h-2v5h-8v-2H45z M38.777,19H33.96   c-0.403-1.483-0.92-2.935-1.55-4.338c0.278-0.121,0.55-0.267,0.803-0.456c0.555-0.413,0.974-0.952,1.256-1.554   C36.722,14.121,38.249,16.398,38.777,19z M24.103,6.658c0.278-0.877,1.07-1.466,1.973-1.466c0.002,0,0.004,0,0.006,0l0.737,0.002   l0.22-0.702C27.319,3.6,28.107,3,29,3s1.681,0.6,1.961,1.492l0.22,0.702l0.737-0.002c0.002,0,0.004,0,0.006,0   c0.902,0,1.694,0.589,1.973,1.466v0.001c0.282,0.891-0.029,1.859-0.775,2.412l-0.576,0.427l0.219,0.683   c0.289,0.901-0.011,1.874-0.746,2.422c-0.72,0.534-1.693,0.528-2.419-0.017L29,12.137l-0.6,0.449   c-0.728,0.545-1.7,0.551-2.419,0.017c-0.735-0.548-1.035-1.521-0.746-2.422l0.219-0.683l-0.576-0.427   C24.132,8.519,23.821,7.55,24.103,6.658z M23.531,12.652c0.282,0.602,0.701,1.141,1.256,1.554c0.253,0.188,0.525,0.331,0.804,0.453   c-0.63,1.404-1.148,2.857-1.551,4.341h-4.817C19.751,16.398,21.278,14.121,23.531,12.652z M8,47c-1.654,0-3-1.346-3-3V29   c0-1.302,0.839-2.402,2-2.816V34h2v-7.816c1.161,0.414,2,1.514,2,2.816v10c0,1.103,0.897,2,2,2h6V29h4v32h-4V47H8z M40,61h-5V29h4   v2v11.348c-0.891,1.334-1.522,2.856-1.81,4.494c-0.646,3.672,0.377,7.322,2.81,10.08V61z M56.272,55.849L56,56.138V61h-2v-5h-2v5   h-2v-5h-2v5h-2v-5h-2v5h-2v-4.862l-0.272-0.289c-2.191-2.325-3.127-5.482-2.568-8.661c0.273-1.551,0.917-2.975,1.829-4.188H41   v-0.016c1.612-2.135,4.064-3.607,6.838-3.919c2.896-0.327,5.673,0.555,7.824,2.477C57.783,43.438,59,46.157,59,49   C59,51.549,58.031,53.98,56.272,55.849z"/><path d="M19,43H9v-7H7v7c0,1.103,0.897,2,2,2h10V43z"/><rect x="28" y="23" width="2" height="2"/><rect x="34" y="23" width="2" height="2"/><rect x="22" y="23" width="2" height="2"/></g>

<!--

Cactus by Eucalyp from the Noun Project
https://thenounproject.com/term/cactus/2471902/

<text x="0" y="79" fill="#000000" font-size="5px" font-weight="bold" font-family="'Helvetica Neue', Helvetica, Arial-Unicode, Arial, Sans-serif">Created by Eucalyp</text><text x="0" y="84" fill="#000000" font-size="5px" font-weight="bold" font-family="'Helvetica Neue', Helvetica, Arial-Unicode, Arial, Sans-serif">from the Noun Project</text>

-->

</svg>