<svg xmlns="http://www.w3.org/2000/svg" viewBox="0 0 64 80" x="0px" y="0px"><path d="M57.058,3H56a1,1,0,0,0-1,1V9H17.931A8,8,0,0,0,2,10V53a8.009,8.009,0,0,0,8,8H56.912a5.088,5.088,0,0,0,5.078-4.992c0-.017.01-.031.01-.048V7.942A4.948,4.948,0,0,0,57.058,3ZM57,5h.058A2.946,2.946,0,0,1,60,7.942v44.04A4.934,4.934,0,0,0,57.04,51H57ZM4,10a6,6,0,0,1,12,0V47.726a7.966,7.966,0,0,0-12,0ZM4,53a6,6,0,1,1,6,6A6.006,6.006,0,0,1,4,53Zm52.912,6H15.274A7.976,7.976,0,0,0,18,53V11H55V52a1,1,0,0,0,1,1h1.04A2.963,2.963,0,0,1,60,55.936,3.091,3.091,0,0,1,56.912,59Z"/><path d="M10,49a4,4,0,1,0,4,4A4,4,0,0,0,10,49Zm0,6a2,2,0,1,1,2-2A2,2,0,0,1,10,55Z"/><rect x="30" y="35" width="2" height="6"/><rect x="35" y="35" width="2" height="6"/><rect x="40" y="35" width="2" height="6"/><path d="M43.293,22.293,39,26.586V22a3,3,0,0,0-6,0v4.089A6.055,6.055,0,0,0,32,26a5.959,5.959,0,0,0-2.037.364A6.023,6.023,0,0,0,23.984,21H23a1,1,0,0,0-1,1v.984a6.024,6.024,0,0,0,4.879,5.9A5.958,5.958,0,0,0,26.09,31H25a1,1,0,0,0-.986,1.165l2,12A1,1,0,0,0,27,45H45a1,1,0,0,0,.986-.835l2-12A1,1,0,0,0,47,31H45.414l3.293-3.293a3.828,3.828,0,0,0-5.414-5.414ZM36,21a1,1,0,0,1,1,1v9H35V22A1,1,0,0,1,36,21ZM24,23a4.021,4.021,0,0,1,4,4A4.021,4.021,0,0,1,24,23Zm8,5a4,4,0,0,1,1,.142V31H28.142A4,4,0,0,1,32,28ZM44.153,43H27.847L26.181,33H45.819Zm3.14-16.707L42.586,31H39V29.414l1-1,1.293,1.293,1.414-1.414L41.414,27,43,25.414l1.293,1.293,1.414-1.414L44.414,24l.293-.293a1.829,1.829,0,0,1,2.586,2.586Z"/>

<!--
mat by pongsakorn from the Noun Project
https://thenounproject.com/term/mat/1897254/

<text x="0" y="79" fill="#000000" font-size="5px" font-weight="bold" font-family="'Helvetica Neue', Helvetica, Arial-Unicode, Arial, Sans-serif">Created by pongsakorn</text><text x="0" y="84" fill="#000000" font-size="5px" font-weight="bold" font-family="'Helvetica Neue', Helvetica, Arial-Unicode, Arial, Sans-serif">from the Noun Project</text>

-->

</svg>