<svg xmlns="http://www.w3.org/2000/svg" xmlns:xlink="http://www.w3.org/1999/xlink" viewBox="0 0 128 160" version="1.1" x="0px" y="0px"><title>019 girl avatar profile woman hat cap</title><desc>Created with Sketch.</desc><g stroke="none" stroke-width="1" fill="none" fill-rule="evenodd"><g transform="translate(-256.000000, -640.000000)"><g transform="translate(64.000000, 64.000000)" fill="#000000" fill-rule="nonzero"><path d="M256,704 C220.653776,704 192,675.346224 192,640 C192,604.653776 220.653776,576 256,576 C291.346224,576 320,604.653776 320,640 C320,675.346224 291.346224,704 256,704 Z M256,702 C290.241654,702 318,674.241654 318,640 C318,605.758346 290.241654,578 256,578 C221.758346,578 194,605.758346 194,640 C194,674.241654 221.758346,702 256,702 Z"/><g transform="translate(215.000000, 590.000000)"><path d="M22.0457946,84.8626163 C14.2787649,83.871382 7.15250171,82.2319274 0.667179882,79.9429903 C-0.048766971,79.6903032 -0.2330493,78.7633143 0.331813076,78.2560066 C9.94339491,69.623762 13.2408124,61.9434806 13.0125048,51.6708349 L15.0219086,52.3406362 C15.0894744,62.3720951 11.8209199,70.1935921 2.91403738,78.5976105 C8.94597857,80.594287 15.5381334,82.0381149 22.6906442,82.9280675 L22.0457946,84.8626163 Z M59.9542054,84.8626163 L59.3093558,82.9280675 C66.4618666,82.0381149 73.0540214,80.594287 79.0859626,78.5976105 C70.1790801,70.1935921 66.9105256,62.3720951 66.9780914,52.3406362 L68.9874952,51.6708349 C68.7591876,61.9434806 72.0566051,69.623762 81.6681869,78.2560066 C82.2330493,78.7633143 82.048767,79.6903032 81.3328201,79.9429903 C74.8474983,82.2319274 67.7212351,83.871382 59.9542054,84.8626163 Z"/><path d="M71.3299362,105 L70.4999282,95.0399036 C70.224789,91.7382337 68.1579091,88.8547075 65.1195513,87.5336824 L50.6077124,81.2241872 C48.4170526,80.2717264 47.0000691,78.1105264 47.0000691,75.7217669 L47.0000691,70 L49.0000691,70 L49.0000691,75.7217669 C49.0000691,77.3142732 49.9447248,78.7550732 51.4051646,79.3900471 L65.9170036,85.6995423 C69.630552,87.3141286 72.1567385,90.8384383 72.4930197,94.8738126 L73.3368686,105 L71.3299362,105 Z M8.66326953,105 L9.50711848,94.8738126 C9.84339967,90.8384383 12.3695862,87.3141286 16.0831346,85.6995423 L30.5949735,79.3900471 C32.0554134,78.7550732 33.0000691,77.3142732 33.0000691,75.7217669 L33.0000691,70 L35.0000691,70 L35.0000691,75.7217669 C35.0000691,78.1105264 33.5830855,80.2717264 31.3924257,81.2241872 L16.8805868,87.5336824 C13.842229,88.8547075 11.7753492,91.7382337 11.50021,95.0399036 L10.670202,105 L8.66326953,105 Z"/><path d="M17,46 C17,60.3416449 27.7256867,72 41,72 C54.2743133,72 65,60.3416449 65,46 L63,46 C63,59.2725926 53.1307852,70 41,70 C28.8692148,70 19,59.2725926 19,46 L17,46 Z"/><path d="M66.574233,42.1288348 C68.7582425,42.6825142 70,44.9920921 70,48.5 C70,52.7391277 66.6283559,58 63.5,58 C62.5391088,58 61.7472671,57.5884002 61.187218,56.8393338 C60.8565091,56.3970103 60.9469907,55.7703438 61.3893142,55.4396349 C61.8316377,55.108926 62.4583042,55.1994075 62.7890131,55.641731 C62.9779129,55.8943848 63.181097,56 63.5,56 C65.2897778,56 68,51.7711632 68,48.5 C68,45.9096415 67.3151644,44.4880017 66.1787897,44.1060514 L66.574233,42.1288348 Z M15.425767,42.1288348 L15.8212103,44.1060514 C14.6848356,44.4880017 14,45.9096415 14,48.5 C14,51.7711632 16.7102222,56 18.5,56 C18.818903,56 19.0220871,55.8943848 19.2109869,55.641731 C19.5416958,55.1994075 20.1683623,55.108926 20.6106858,55.4396349 C21.0530093,55.7703438 21.1434909,56.3970103 20.812782,56.8393338 C20.2527329,57.5884002 19.4608912,58 18.5,58 C15.3716441,58 12,52.7391277 12,48.5 C12,44.9920921 13.2417575,42.6825142 15.425767,42.1288348 Z"/><path d="M57.0862691,90.4548642 C61.453401,89.8014893 65.2905023,90.0204499 70.8974326,90.9049029 L70.5858003,92.880475 C65.1633595,92.025124 61.5033851,91.8162709 57.3821992,92.4328494 C51.9492244,93.245687 46.771521,95.5450151 41.6354762,99.7721204 C41.2663033,100.07596 40.7336967,100.07596 40.3645238,99.7721204 C35.228479,95.5450151 30.0507756,93.245687 24.6178008,92.4328494 C20.4966149,91.8162709 16.8366405,92.025124 11.4141997,92.880475 L11.1025674,90.9049029 C16.7094977,90.0204499 20.546599,89.8014893 24.9137309,90.4548642 C30.478243,91.2873813 35.7878838,93.5812618 41,97.7144243 C46.2121162,93.5812618 51.521757,91.2873813 57.0862691,90.4548642 Z M71.545617,93.8413556 L71.4262605,95.8377909 C61.7082102,95.2567991 49.3519178,102.038713 41.8134484,112.581637 C41.4145943,113.139454 40.5854057,113.139454 40.1865516,112.581637 C32.6480822,102.038713 20.2917898,95.2567991 10.5737395,95.8377909 L10.454383,93.8413556 C20.5554259,93.2374666 33.0283363,99.8771714 41,110.317714 C48.9716637,99.8771714 61.4445741,93.2374666 71.545617,93.8413556 Z"/><g transform="translate(10.000000, 0.000000)"><path d="M3.01287881,36 L5.01300489,36 C5.17180834,41.9482203 6.78301569,44.9555687 9.73860547,46.0114108 C12.2173861,46.8969196 14.726168,46.6518165 21.5577318,45.2698535 C22.8412396,45.0102116 23.5970302,44.861814 24.4137547,44.7131708 C27.0160476,44.2395554 29.0712737,44 31,44 C32.9287263,44 34.9839524,44.2395554 37.5862453,44.7131708 C38.4029698,44.861814 39.1587604,45.0102116 40.4422682,45.2698535 C47.273832,46.6518165 49.7826139,46.8969196 52.2613945,46.0114108 C55.2169843,44.9555687 56.8281917,41.9482203 56.9869951,36 L58.9871212,36 C58.8097402,42.7416628 56.799679,46.5139603 52.9342223,47.8948392 C49.959662,48.9574582 47.2999339,48.697608 40.0457188,47.2301465 C38.7742312,46.9729361 38.0285672,46.8265269 37.2281295,46.6808479 C34.7337988,46.2268815 32.7873062,46 31,46 C29.2126938,46 27.2662012,46.2268815 24.7718705,46.6808479 C23.9714328,46.8265269 23.2257688,46.9729361 21.9542812,47.2301465 C14.7000661,48.697608 12.040338,48.9574582 9.06577769,47.8948392 C5.20032101,46.5139603 3.19025983,42.7416628 3.01287881,36 Z"/><path d="M35,4 C35,4.55228475 34.5522847,5 34,5 C33.4477153,5 33,4.55228475 33,4 C33,2.8954305 32.1045695,2 31,2 C29.8954305,2 29,2.8954305 29,4 C29,4.55228475 28.5522847,5 28,5 C27.4477153,5 27,4.55228475 27,4 C27,1.790861 28.790861,0 31,0 C33.209139,0 35,1.790861 35,4 Z"/><path d="M31,33 C25.6097941,33 20.5741799,33.7208599 14.4793635,35.1166246 C13.2293094,35.4028976 9.43436736,36.3216603 8.95204648,36.4340826 C7.03145362,36.881746 5.73820654,37.1290741 4.64706903,37.2325347 C1.68381062,37.5135079 2.13162821e-14,36.5549179 2.13162821e-14,34 C2.30926389e-14,17.2861422 14.7447122,4 31,4 C47.2552878,4 62,17.2861422 62,34 C62,36.5549179 60.3161894,37.5135079 57.352931,37.2325347 C56.2617935,37.1290741 54.9685464,36.881746 53.0479535,36.4340826 C52.5656326,36.3216603 48.7706906,35.4028976 47.5206365,35.1166246 C41.4258201,33.7208599 36.3902059,33 31,33 Z M31,31 C36.564456,31 41.7383244,31.7406513 47.9670958,33.1670928 C49.2322112,33.456815 53.0322585,34.3768137 53.5019559,34.4862937 C55.3409212,34.9149308 56.56316,35.1486789 57.5417222,35.2414652 C59.4792088,35.4251757 60,35.1286903 60,34 C60,18.4398501 46.194487,6 31,6 C15.805513,6 2,18.4398501 2,34 C2,35.1286903 2.52079124,35.4251757 4.45827784,35.2414652 C5.43684005,35.1486789 6.65907884,34.9149308 8.49804406,34.4862937 C8.96774154,34.3768137 12.7677888,33.456815 14.0329042,33.1670928 C20.2616756,31.7406513 25.435544,31 31,31 Z"/></g><path d="M41,25.3168248 C39.7654135,25.3168248 38.5716259,25.8552419 37.0783105,26.9396002 C37.0218394,26.9806061 35.4363094,28.1912844 35.0337031,28.4450218 C34.0713021,29.0515625 33.2332234,29.2037861 32.5147186,28.4852814 C31.7962139,27.7667766 31.9484375,26.9286979 32.5549782,25.9662969 C32.8087156,25.5636906 34.0193939,23.9781606 34.0603998,23.9216895 C35.1447581,22.4283741 35.6831752,21.2345865 35.6831752,20 C35.6831752,18.7654135 35.1447581,17.5716259 34.0603998,16.0783105 C34.0193939,16.0218394 32.8087156,14.4363094 32.5549782,14.0337031 C31.9484375,13.0713021 31.7962139,12.2332234 32.5147186,11.5147186 C33.2332234,10.7962139 34.0713021,10.9484375 35.0337031,11.5549782 C35.4363094,11.8087156 37.0218394,13.0193939 37.0783105,13.0603998 C38.5716259,14.1447581 39.7654135,14.6831752 41,14.6831752 C42.2345865,14.6831752 43.4283741,14.1447581 44.9216895,13.0603998 C44.9781606,13.0193939 46.5636906,11.8087156 46.9662969,11.5549782 C47.9286979,10.9484375 48.7667766,10.7962139 49.4852814,11.5147186 C50.2037861,12.2332234 50.0515625,13.0713021 49.4450218,14.0337031 C49.1912844,14.4363094 47.9806061,16.0218394 47.9396002,16.0783105 C46.8552419,17.5716259 46.3168248,18.7654135 46.3168248,20 C46.3168248,21.2345865 46.8552419,22.4283741 47.9396002,23.9216895 C47.9806061,23.9781606 49.1912844,25.5636906 49.4450218,25.9662969 C50.0515625,26.9286979 50.2037861,27.7667766 49.4852814,28.4852814 C48.7667766,29.2037861 47.9286979,29.0515625 46.9662969,28.4450218 C46.5636906,28.1912844 44.9781606,26.9806061 44.9216895,26.9396002 C43.4283741,25.8552419 42.2345865,25.3168248 41,25.3168248 Z M35.9031648,25.3212576 C37.7076003,24.0109821 39.2466978,23.3168248 41,23.3168248 C42.7533022,23.3168248 44.2923997,24.0109821 46.0968352,25.3212576 C46.1595801,25.3668193 46.5723531,25.6808408 47.0060952,26.0060952 C46.6808408,25.5723531 46.3668193,25.1595801 46.3212576,25.0968352 C45.0109821,23.2923997 44.3168248,21.7533022 44.3168248,20 C44.3168248,18.2466978 45.0109821,16.7076003 46.3212576,14.9031648 C46.3668193,14.8404199 46.6808408,14.4276469 47.0060952,13.9939048 C46.572353,14.3191593 46.1595801,14.6331807 46.0968352,14.6787424 C44.2923997,15.9890179 42.7533022,16.6831752 41,16.6831752 C39.2466978,16.6831752 37.7076003,15.9890179 35.9031648,14.6787424 C35.8404199,14.6331807 35.4276469,14.3191592 34.9939048,13.9939048 C35.3191592,14.4276469 35.6331807,14.8404199 35.6787424,14.9031648 C36.9890179,16.7076003 37.6831752,18.2466978 37.6831752,20 C37.6831752,21.7533022 36.9890179,23.2923997 35.6787424,25.0968352 C35.6331807,25.1595801 35.3191592,25.5723531 34.9939048,26.0060952 C35.4276469,25.6808408 35.8404199,25.3668193 35.9031648,25.3212576 Z"/></g></g><g transform="translate(113.000000, 126.000000)" fill="#000000" fill-rule="nonzero"><g transform="translate(192.000000, 576.000000)"><path d="M9.5547002,16.8320503 C9.09517151,17.1384028 8.47430216,17.0142289 8.16794971,16.5547002 C7.86159725,16.0951715 7.98577112,15.4743022 8.4452998,15.1679497 C10.6023438,13.7299204 12.792105,13 15,13 C17.207895,13 19.3976562,13.7299204 21.5547002,15.1679497 C22.0142289,15.4743022 22.1384028,16.0951715 21.8320503,16.5547002 C21.5256978,17.0142289 20.9048285,17.1384028 20.4452998,16.8320503 C18.6023438,15.6034129 16.792105,15 15,15 C13.207895,15 11.3976562,15.6034129 9.5547002,16.8320503 Z" transform="translate(15.000000, 15.000053) scale(1, -1) translate(-15.000000, -15.000053) "/><path d="M8,4 C8,4.55228475 7.55228475,5 7,5 C6.44771525,5 6,4.55228475 6,4 C6,2.8954305 5.1045695,2 4,2 C2.8954305,2 2,2.8954305 2,4 C2,4.55228475 1.55228475,5 1,5 C0.44771525,5 0,4.55228475 0,4 C0,1.790861 1.790861,0 4,0 C6.209139,0 8,1.790861 8,4 Z"/><path d="M30,4 C30,4.55228475 29.5522847,5 29,5 C28.4477153,5 28,4.55228475 28,4 C28,2.8954305 27.1045695,2 26,2 C24.8954305,2 24,2.8954305 24,4 C24,4.55228475 23.5522847,5 23,5 C22.4477153,5 22,4.55228475 22,4 C22,1.790861 23.790861,0 26,0 C28.209139,0 30,1.790861 30,4 Z"/></g></g></g></g>


<!--
girl by Xinh Studio from the Noun Project
https://thenounproject.com/xinhstudio/collection/circle-avatar/?i=2106811


<text x="0" y="143" fill="#000000" font-size="5px" font-weight="bold" font-family="'Helvetica Neue', Helvetica, Arial-Unicode, Arial, Sans-serif">Created by Xinh Studio</text><text x="0" y="148" fill="#000000" font-size="5px" font-weight="bold" font-family="'Helvetica Neue', Helvetica, Arial-Unicode, Arial, Sans-serif">from the Noun Project</text>

-->


</svg>