<?xml version="1.0" encoding="utf-8"?>
<!-- Generator: Adobe Illustrator 23.0.4, SVG Export Plug-In . SVG Version: 6.00 Build 0)  -->
<svg version="1.1" xmlns="http://www.w3.org/2000/svg" xmlns:xlink="http://www.w3.org/1999/xlink" x="0px" y="0px"
	 viewBox="0 0 100 99.9" style="enable-background:new 0 0 100 99.9;" xml:space="preserve">
<g id="Layer_1">
	<path d="M58.9,19.8C56.5,14.3,51.5,2.5,50,2.5s-6.5,11.8-8.9,17.3c2.8-0.8,5.8-1.3,8.9-1.3S56.1,19,58.9,19.8z"/>
	<path d="M34.9,22.3c-5.6-2.3-17.5-7-18.5-5.9c-1.1,1,3.6,12.9,5.9,18.5C25.2,29.6,29.6,25.3,34.9,22.3z"/>
	<path d="M18.5,50c0-3.1,0.4-6,1.3-8.9C14.2,43.5,2.5,48.5,2.5,50s11.7,6.6,17.3,8.9C18.9,56,18.5,53.1,18.5,50z"/>
	<path d="M22.3,65.1c-2.3,5.6-7,17.4-5.9,18.5c1,1.1,12.9-3.6,18.5-5.9C29.6,74.7,25.2,70.4,22.3,65.1z"/>
	<path d="M41.1,80.2c2.4,5.5,7.4,17.3,8.9,17.3s6.5-11.7,8.9-17.3c-2.8,0.8-5.8,1.3-8.9,1.3S43.9,81,41.1,80.2z"/>
	<path d="M65.1,77.7c5.6,2.3,17.5,7,18.5,5.9c1.1-1-3.6-12.9-5.9-18.5C74.8,70.4,70.4,74.7,65.1,77.7z"/>
	<path d="M80.2,41.1c0.9,2.9,1.3,5.8,1.3,8.9c0,3.1-0.4,6-1.3,8.9c5.6-2.3,17.3-7.4,17.3-8.9S85.8,43.5,80.2,41.1z"/>
	<path d="M77.7,34.9c2.3-5.6,7-17.4,5.9-18.5c-1-1-12.9,3.6-18.5,5.9C70.4,25.3,74.8,29.6,77.7,34.9z"/>
	<circle cx="50" cy="50" r="25"/>
</g>
</svg>
