<svg xmlns="http://www.w3.org/2000/svg" xmlns:xlink="http://www.w3.org/1999/xlink" version="1.1" x="0px" y="0px" viewBox="0 0 100 125" enable-background="new 0 0 100 100" xml:space="preserve"><path d="M44,31V13c0-0.552,0.447-1,1-1s1,0.448,1,1v18c0,0.552-0.447,1-1,1S44,31.552,44,31z M52.169,32.215  c0.143,0.071,0.294,0.104,0.442,0.104c0.368,0,0.723-0.204,0.897-0.556l7.458-15.065c0.245-0.495,0.042-1.095-0.453-1.34  c-0.496-0.247-1.095-0.042-1.34,0.452l-7.458,15.065C51.471,31.371,51.674,31.971,52.169,32.215z M63.483,33  c0.229,0,0.459-0.078,0.646-0.238l10.018-8.515c0.421-0.357,0.472-0.989,0.114-1.409c-0.356-0.421-0.989-0.472-1.409-0.114  l-10.018,8.515c-0.421,0.357-0.472,0.989-0.114,1.409C62.918,32.881,63.199,33,63.483,33z M59.91,33.724l-3.387,2.878  c-0.421,0.358-0.473,0.989-0.114,1.41c0.197,0.233,0.479,0.353,0.763,0.353c0.229,0,0.459-0.078,0.646-0.238l3.387-2.878  c0.421-0.358,0.473-0.989,0.114-1.41C60.962,33.418,60.329,33.368,59.91,33.724z M27.443,20.326  c0.184,0.327,0.523,0.511,0.873,0.511c0.166,0,0.333-0.041,0.488-0.128c0.481-0.27,0.653-0.879,0.383-1.361l-1.53-2.729  c-0.271-0.481-0.879-0.652-1.361-0.383c-0.481,0.27-0.653,0.879-0.383,1.361L27.443,20.326z M33.798,31.661  c0.184,0.327,0.522,0.511,0.873,0.511c0.165,0,0.333-0.041,0.488-0.128c0.481-0.27,0.653-0.879,0.383-1.361l-4.31-7.686  c-0.271-0.48-0.876-0.654-1.361-0.383c-0.481,0.27-0.653,0.879-0.383,1.361L33.798,31.661z M29.505,39.485  c0.172,0.116,0.367,0.171,0.56,0.171c0.321,0,0.636-0.154,0.829-0.44c0.31-0.458,0.189-1.079-0.268-1.389L15.232,27.42  c-0.459-0.309-1.08-0.188-1.389,0.269c-0.31,0.458-0.189,1.079,0.268,1.389L29.505,39.485z M8.878,43.26l7.144,1.115  c0.053,0.008,0.104,0.012,0.155,0.012c0.484,0,0.91-0.353,0.987-0.846c0.085-0.546-0.288-1.057-0.834-1.142l-7.144-1.115  c-0.554-0.086-1.058,0.289-1.143,0.833C7.959,42.664,8.332,43.175,8.878,43.26z M47,66c0.553,0,1-0.447,1-1s-0.447-1-1-1h-3  c-0.553,0-1,0.447-1,1s0.447,1,1,1H47z M95,65c0,0.553-0.447,1-1,1H78c-0.553,0-1-0.447-1-1s0.447-1,1-1h10.926  c0.253-0.697,0.385-1.428,0.385-2.185c0-3.335-2.601-6.149-5.92-6.407c-0.327-0.025-0.648-0.246-0.799-0.534  c-0.135-0.258-0.156-0.612-0.032-0.88c0.363-0.791,0.548-1.636,0.548-2.512c0-3.316-2.697-6.013-6.013-6.013  c-0.29,0-0.587,0.062-0.875,0.018c-0.316-0.049-0.591-0.25-0.732-0.538c-1.261-2.263-3.645-3.669-6.235-3.669  c-3.493,0-6.453,2.495-7.036,5.932c-0.058,0.345-0.342,0.662-0.669,0.773c-0.321,0.108-0.726,0.034-0.982-0.194  c-1.309-1.167-2.995-1.809-4.749-1.809c-3.936,0-7.138,3.202-7.138,7.138c0,0.249,0.016,0.498,0.042,0.745  c3.385,1.17,5.826,4.38,5.826,8.158c0,0.672-0.086,1.332-0.237,1.976H74c0.553,0,1,0.447,1,1s-0.447,1-1,1H51c-0.553,0-1-0.447-1-1  s0.447-1,1-1h1.247c0.198-0.637,0.301-1.299,0.301-1.976c0-3.659-2.978-6.637-6.637-6.637c-1.348,0-2.646,0.402-3.752,1.162  c-0.02,0.014-0.044,0.015-0.064,0.028c-0.333,0.196-0.766,0.182-1.081-0.047c-0.308-0.223-0.474-0.646-0.391-1.02  c0.002-0.01-0.001-0.02,0.001-0.03c0.098-0.385,0.147-0.783,0.147-1.185c0-2.645-2.151-4.796-4.796-4.796  c-1.249,0-2.432,0.478-3.331,1.345c-0.236,0.228-0.617,0.325-0.933,0.246c-0.293-0.073-0.574-0.307-0.688-0.591  c-1.072-2.648-3.612-4.36-6.47-4.36c-3.848,0-6.978,3.13-6.978,6.977c0,1.521,0.481,2.967,1.391,4.182  c0.457,0.611,0.014,1.547-0.737,1.623c-1.809,0.184-3.172,1.695-3.172,3.516c0,0.547,0.128,1.078,0.366,1.562H39  c0.553,0,1,0.447,1,1s-0.447,1-1,1H6c-0.553,0-1-0.447-1-1s0.447-1,1-1h7.285c-0.148-0.503-0.228-1.027-0.228-1.562  c0-2.345,1.457-4.342,3.546-5.145c-0.675-1.279-1.028-2.7-1.028-4.175c0-4.95,4.027-8.977,8.978-8.977  c1.837,0,3.571,0.55,5.019,1.525c1.293-6.961,7.396-12.179,14.664-12.179c6.778,0,12.602,4.475,14.38,10.945  c0.708,0.228,1.387,0.537,2.022,0.931c1.267-3.6,4.674-6.082,8.614-6.082c3.118,0,5.987,1.601,7.664,4.197  c0.06-0.001,0.119-0.009,0.179-0.009c4.418,0,8.013,3.595,8.013,8.013c0,0.732-0.108,1.445-0.3,2.138  c3.732,0.881,6.503,4.257,6.503,8.195c0,0.749-0.107,1.477-0.297,2.185H94C94.553,64,95,64.447,95,65z M55.817,43.983  c0.192,0,0.383,0.014,0.574,0.026c-1.826-5.083-6.623-8.523-12.154-8.523c-6.724,0-12.299,5.154-12.87,11.798  c0.343,0.402,0.659,0.831,0.931,1.296c1.088-0.702,2.357-1.08,3.677-1.08c3.65,0,6.629,2.895,6.781,6.508  c0.999-0.394,2.06-0.62,3.154-0.62c0.264,0,0.524,0.016,0.783,0.04c-0.003-0.102-0.014-0.204-0.014-0.306  C46.68,48.083,50.779,43.983,55.817,43.983z M53,70c0-0.553-0.447-1-1-1H31c-0.553,0-1,0.447-1,1s0.447,1,1,1h21  C52.553,71,53,70.553,53,70z M63,69h-7c-0.553,0-1,0.447-1,1s0.447,1,1,1h7c0.553,0,1-0.447,1-1S63.553,69,63,69z M45,76  c0-0.553-0.447-1-1-1h-5c-0.553,0-1,0.447-1,1s0.447,1,1,1h5C44.553,77,45,76.553,45,76z M57,75h-8c-0.553,0-1,0.447-1,1  s0.447,1,1,1h8c0.553,0,1-0.447,1-1S57.553,75,57,75z M49,83h-4c-0.553,0-1,0.447-1,1s0.447,1,1,1h4c0.553,0,1-0.447,1-1  S49.553,83,49,83z M79.108,51.482c0,0.295-0.062,0.577-0.182,0.84c-0.231,0.501-0.012,1.096,0.49,1.326  c0.135,0.063,0.277,0.092,0.417,0.092c0.379,0,0.741-0.216,0.909-0.582c0.242-0.526,0.365-1.09,0.365-1.676  c0-2.212-1.8-4.013-4.013-4.013c-0.136,0-0.271,0.006-0.403,0.02c-0.55,0.053-0.952,0.542-0.898,1.092  c0.053,0.549,0.53,0.961,1.092,0.898c0.068-0.006,0.139-0.01,0.21-0.01C78.205,49.47,79.108,50.373,79.108,51.482z M24.554,50.142  c0.553,0,1-0.448,1-1s-0.447-1-1-1c-2.744,0-4.978,2.232-4.978,4.977c0,1.086,0.343,2.117,0.992,2.982  c0.196,0.263,0.496,0.4,0.801,0.4c0.209,0,0.419-0.065,0.599-0.2c0.442-0.331,0.532-0.958,0.2-1.399  c-0.387-0.517-0.592-1.133-0.592-1.783C21.576,51.477,22.912,50.142,24.554,50.142z M70.815,37.889  c0.188,0.307,0.517,0.476,0.853,0.476c0.179,0,0.359-0.048,0.523-0.148l5.333-3.281c0.47-0.289,0.617-0.905,0.327-1.375  c-0.289-0.471-0.904-0.618-1.376-0.328l-5.333,3.281C70.673,36.802,70.525,37.418,70.815,37.889z"/>

<!--
sun by Laymik from the Noun Project

https://thenounproject.com/search/?q=sun&i=1071440

<text x="0" y="115" fill="#000000" font-size="5px" font-weight="bold" font-family="'Helvetica Neue', Helvetica, Arial-Unicode, Arial, Sans-serif">Created by Laymik</text><text x="0" y="120" fill="#000000" font-size="5px" font-weight="bold" font-family="'Helvetica Neue', Helvetica, Arial-Unicode, Arial, Sans-serif">from the Noun Project</text>
-->

</svg>