<svg xmlns="http://www.w3.org/2000/svg" xmlns:xlink="http://www.w3.org/1999/xlink" version="1.1" x="0px" y="0px" viewBox="0 0 100 125" enable-background="new 0 0 100 100" xml:space="preserve"><path d="M50,27.669c-12.313,0-22.331,10.018-22.331,22.331c0,12.313,10.018,22.331,22.331,22.331  c12.313,0,22.331-10.019,22.331-22.331C72.331,37.687,62.313,27.669,50,27.669z M50,69.146c-10.558,0-19.147-8.59-19.147-19.146  c0-10.557,8.589-19.147,19.147-19.147c10.559,0,19.146,8.589,19.146,19.147C69.146,60.559,60.559,69.146,50,69.146z"/><path d="M48.408,6.592v6.753v6.752c0,0.879,0.713,1.592,1.592,1.592s1.592-0.713,1.592-1.592v-6.752V6.592  C51.592,5.713,50.879,5,50,5S48.408,5.713,48.408,6.592z"/><path d="M50,78.313c-0.879,0-1.592,0.713-1.592,1.592v6.752v6.753C48.408,94.287,49.121,95,50,95s1.592-0.713,1.592-1.592v-6.753  v-6.753C51.592,79.023,50.879,78.313,50,78.313z"/><path d="M35.363,14.664c-0.813,0.336-1.197,1.267-0.861,2.08l2.584,6.238c0.254,0.612,0.847,0.982,1.472,0.982  c0.202,0,0.408-0.039,0.608-0.122c0.812-0.336,1.197-1.267,0.861-2.08l-2.584-6.237C37.105,14.714,36.179,14.325,35.363,14.664z"/><path d="M62.914,77.018c-0.337-0.81-1.266-1.199-2.08-0.859c-0.813,0.336-1.197,1.267-0.861,2.08l2.584,6.236  c0.256,0.612,0.848,0.982,1.473,0.982c0.203,0,0.408-0.038,0.607-0.121c0.813-0.336,1.197-1.268,0.861-2.08L62.914,77.018z"/><path d="M16.744,34.501c-0.815-0.339-1.743,0.05-2.08,0.861c-0.336,0.812,0.049,1.743,0.861,2.08l6.237,2.585  c0.2,0.082,0.406,0.121,0.609,0.121c0.624,0,1.217-0.37,1.471-0.982c0.337-0.813-0.049-1.744-0.86-2.08L16.744,34.501z"/><path d="M84.475,62.559l-6.236-2.586c-0.816-0.339-1.743,0.053-2.08,0.861c-0.338,0.813,0.049,1.744,0.859,2.08l6.238,2.585  c0.2,0.083,0.406,0.121,0.607,0.121c0.625,0,1.218-0.37,1.473-0.981C85.672,63.826,85.287,62.895,84.475,62.559z"/><path d="M23.843,60.835c-0.335-0.812-1.267-1.201-2.079-0.862l-6.238,2.584c-0.813,0.336-1.198,1.268-0.862,2.078  c0.254,0.613,0.847,0.983,1.472,0.983c0.202,0,0.408-0.038,0.607-0.121l6.239-2.583C23.793,62.578,24.18,61.646,23.843,60.835z"/><path d="M77.628,40.148c0.203,0,0.409-0.039,0.608-0.121l6.238-2.584c0.813-0.337,1.196-1.268,0.86-2.08s-1.267-1.199-2.08-0.861  l-6.237,2.584c-0.813,0.336-1.197,1.267-0.86,2.08C76.411,39.778,77.004,40.148,77.628,40.148z"/><path d="M39.166,76.155c-0.815-0.339-1.744,0.05-2.08,0.86l-2.585,6.239c-0.336,0.813,0.049,1.744,0.861,2.08  c0.199,0.083,0.405,0.121,0.608,0.121c0.624,0,1.217-0.37,1.472-0.981l2.585-6.24C40.363,77.423,39.978,76.491,39.166,76.155z"/><path d="M62.557,15.525l-2.584,6.237c-0.336,0.813,0.051,1.744,0.861,2.08c0.2,0.083,0.406,0.122,0.607,0.122  c0.625,0,1.219-0.37,1.473-0.982l2.584-6.238c0.336-0.813-0.049-1.744-0.861-2.08C63.82,14.325,62.895,14.714,62.557,15.525z"/><path d="M28.854,30.446c0.407,0,0.815-0.155,1.126-0.466c0.622-0.622,0.622-1.63,0-2.252l-9.55-9.549  c-0.621-0.622-1.629-0.622-2.251,0c-0.622,0.622-0.622,1.63,0,2.251l9.549,9.55C28.04,30.291,28.447,30.446,28.854,30.446z"/><path d="M72.271,70.02c-0.623-0.621-1.631-0.621-2.252,0s-0.621,1.629,0,2.252l9.549,9.549c0.312,0.312,0.72,0.467,1.125,0.467  c0.408,0,0.815-0.155,1.127-0.467c0.621-0.621,0.621-1.629,0-2.25L72.271,70.02z"/><path d="M21.688,50c0-0.879-0.713-1.592-1.592-1.592H6.592C5.713,48.408,5,49.121,5,50s0.713,1.592,1.592,1.592h13.505  C20.976,51.592,21.688,50.879,21.688,50z"/><path d="M93.408,48.408H79.902c-0.879,0-1.592,0.713-1.592,1.592s0.713,1.592,1.592,1.592h13.506C94.287,51.592,95,50.879,95,50  S94.287,48.408,93.408,48.408z"/><path d="M27.729,70.02l-9.55,9.551c-0.622,0.621-0.622,1.629,0,2.25c0.311,0.312,0.719,0.467,1.126,0.467  c0.406,0,0.814-0.155,1.125-0.467l9.551-9.549c0.621-0.623,0.621-1.631,0-2.252C29.359,69.396,28.352,69.396,27.729,70.02z"/><path d="M81.82,18.18c-0.622-0.622-1.631-0.622-2.252,0l-9.551,9.549c-0.621,0.622-0.621,1.63,0,2.252  c0.313,0.311,0.719,0.466,1.127,0.466c0.406,0,0.813-0.155,1.125-0.466l9.551-9.55C82.441,19.81,82.441,18.802,81.82,18.18z"/>

<!--
sun by Milinda Courey from the Noun Project
https://thenounproject.com/search/?q=sun&i=426565

<text x="0" y="115" fill="#000000" font-size="5px" font-weight="bold" font-family="'Helvetica Neue', Helvetica, Arial-Unicode, Arial, Sans-serif">Created by Milinda Courey</text><text x="0" y="120" fill="#000000" font-size="5px" font-weight="bold" font-family="'Helvetica Neue', Helvetica, Arial-Unicode, Arial, Sans-serif">from the Noun Project</text>

-->

</svg>