<?xml version="1.0" encoding="utf-8"?>
<!-- Generator: Adobe Illustrator 23.0.4, SVG Export Plug-In . SVG Version: 6.00 Build 0)  -->
<svg version="1.1" id="Layer_1" xmlns="http://www.w3.org/2000/svg" xmlns:xlink="http://www.w3.org/1999/xlink" x="0px" y="0px"
	 viewBox="0 0 74.9499969 76.8600006" style="enable-background:new 0 0 74.9499969 76.8600006;" xml:space="preserve">
<style type="text/css">
	.st0{fill:white;}
</style>
<path class="st0" d="M36.9672546,20.0019283v-18c0-0.5520002,0.4469986-1.0000001,1-1.0000001s1,0.448,1,1.0000001v18
	c0,0.552-0.4469986,1-1,1S36.9672546,20.5539284,36.9672546,20.0019283z"/>
<path class="st0" d="M45.1362534,21.2169285c0.1430016,0.0709991,0.2939987,0.1040001,0.4420013,0.1040001
	c0.368,0,0.7229996-0.2039986,0.8969994-0.5559998l7.4580002-15.0649977
	c0.2449989-0.4950008,0.0419998-1.0950003-0.4529991-1.3400002c-0.4959984-0.2469997-1.0950012-0.0419998-1.3400002,0.4519997
	l-7.4580002,15.0649977C44.4382553,20.3729286,44.6412544,20.972929,45.1362534,21.2169285z"/>
<path class="st0" d="M56.4502563,22.0019283c0.2290001,0,0.4589996-0.0779991,0.6460037-0.237999l10.0179977-8.5149984
	c0.4209976-0.3570004,0.4720001-0.9890003,0.1139984-1.4090004c-0.3560028-0.4209995-0.9889984-0.4720001-1.4089966-0.1140003
	l-10.0179977,8.5150003c-0.4210014,0.3570004-0.4720001,0.9889984-0.1139984,1.4090004
	C55.8852539,21.8829288,56.166256,22.0019283,56.4502563,22.0019283z"/>
<path class="st0" d="M52.8772545,22.7259274l-3.387001,2.8779984c-0.4210014,0.3580017-0.4729996,0.9889984-0.1139984,1.4099998
	c0.1969986,0.2330017,0.4790001,0.3530006,0.7630005,0.3530006c0.2290001,0,0.4589996-0.0779991,0.6459999-0.237999
	l3.387001-2.8779984c0.4210014-0.3580017,0.4729996-0.9889984,0.1139984-1.4099998
	C53.9292564,22.4199276,53.2962532,22.3699284,52.8772545,22.7259274z"/>
<path class="st0" d="M17.5025597,32.7515068l-4.38904-0.7006989c-0.5457582-0.0869236-1.0588617,0.2840004-1.145134,0.8305206
	c-0.0488453,0.3011818,0.0434313,0.5934334,0.2281542,0.8091507c0.1489487,0.1739388,0.3577938,0.297905,0.600955,0.3358727
	l4.38904,0.7007027c0.5457573,0.0869217,1.0588608-0.2840042,1.1451321-0.8305206
	C18.4192429,33.3515358,18.0454941,32.8382111,17.5025597,32.7515068z"/>
<path class="st0" d="M20.4102535,9.3279295c0.184,0.3269997,0.5230007,0.5109997,0.8729992,0.5109997
	c0.1660004,0,0.3330002-0.0410004,0.4880009-0.1280003c0.4810009-0.2700005,0.6529999-0.8789997,0.3829994-1.3610001
	l-1.5300007-2.7290001c-0.2709999-0.4810009-0.8789997-0.6520004-1.3610001-0.3829994
	c-0.4810009,0.2700005-0.6529999,0.8789997-0.3829994,1.3610001L20.4102535,9.3279295z"/>
<path class="st0" d="M26.7652531,20.6629276c0.1839981,0.3269997,0.5219994,0.5110016,0.8730011,0.5110016
	c0.1650009,0,0.3330002-0.0410004,0.487999-0.1279984c0.480999-0.2700005,0.6529999-0.8789997,0.3829994-1.3610001
	l-4.3099995-7.6859999c-0.2709999-0.4799995-0.8759995-0.6539993-1.3610001-0.3829994
	c-0.4810009,0.2700005-0.6529999,0.8789997-0.3829994,1.3610001L26.7652531,20.6629276z"/>
<path class="st0" d="M61.8338394,29.2166996c0.3187408-0.1979637,0.487957-0.5436039,0.4727821-0.8942776
	c-0.0071335-0.1648464-0.0553589-0.3309155-0.1489754-0.482008c-0.2905426-0.4688778-0.9064064-0.6143894-1.3762856-0.3238029
	l-6.2704391,3.8638992c-0.4678345,0.2914982-0.6155167,0.9034557-0.3238029,1.3762836
	c0.2905426,0.4688797,0.9064102,0.6143913,1.3762856,0.3238029L61.8338394,29.2166996z"/>
<path class="st0" d="M22.4722519,28.4869289c0.1720009,0.1160011,0.3670006,0.1710014,0.5599995,0.1710014
	c0.3209991,0,0.6359997-0.1539993,0.8290005-0.4399986c0.3099995-0.4580002,0.1889992-1.0789986-0.2679996-1.3889999
	L8.1992531,16.4219284c-0.4589996-0.309-1.0799999-0.1879997-1.3889999,0.2689991
	c-0.3100004,0.4580002-0.1890001,1.0790005,0.2679996,1.3889999L22.4722519,28.4869289z"/>
<path class="st0" d="M1.845253,32.2619286l7.1439991,1.1150017c0.0529995,0.0079994,0.1040001,0.012001,0.1550007,0.012001
	c0.4839993,0,0.9099998-0.3530006,0.9869995-0.8460007c0.0849991-0.5460033-0.2880001-1.0570011-0.8339996-1.1420002
	l-7.1440001-1.1150017c-0.5539999-0.0859985-1.0579996,0.2890015-1.1429996,0.8330002
	C0.9262528,31.6659298,1.2992525,32.1769295,1.845253,32.2619286z"/>
<path class="st0" d="M63.7822571,26.8909283c0.1880035,0.3069992,0.5169983,0.4760017,0.8529968,0.4760017
	c0.1790009,0,0.3590012-0.0480003,0.5230026-0.1479988l5.3330002-3.2809982
	c0.4700012-0.2890015,0.6169968-0.9049988,0.3270035-1.375c-0.2890015-0.4710007-0.9039993-0.618-1.3759995-0.3279991
	l-5.3330002,3.2809982C63.6402512,25.8039265,63.4922562,26.4199276,63.7822571,26.8909283z"/>
<path class="st0" d="M37.9827461,56.8580704v18c0,0.552002-0.4469986,1-1,1s-1-0.447998-1-1v-18c0-0.5519981,0.4469986-1,1-1
	S37.9827461,56.3060722,37.9827461,56.8580704z"/>
<path class="st0" d="M29.8137493,55.6430702c-0.1430016-0.0709991-0.2939987-0.1040001-0.4420013-0.1040001
	c-0.368,0-0.7229996,0.2039986-0.8969994,0.5559998l-7.4580002,15.0650024
	c-0.2449989,0.4949951-0.0419998,1.0949936,0.4529991,1.3399963c0.4959984,0.2470016,1.0950012,0.0419998,1.3400002-0.4519958
	l7.4580002-15.0650024C30.5117474,56.487072,30.3087482,55.8870697,29.8137493,55.6430702z"/>
<path class="st0" d="M18.4997463,54.8580704c-0.2290001,0-0.4589996,0.0779991-0.6460037,0.237999L7.8357439,63.6110687
	c-0.4209976,0.3570023-0.4720001,0.9889984-0.1139984,1.4090042c0.3560028,0.4209976,0.9889984,0.4720001,1.4089966,0.1139984
	l10.0179987-8.5150032c0.4210014-0.3569984,0.4720001-0.9889984,0.1139984-1.4090004
	C19.0647488,54.9770699,18.7837467,54.8580704,18.4997463,54.8580704z"/>
<path class="st0" d="M22.0727482,54.1340714l3.387001-2.8779984c0.4210014-0.3580017,0.4729996-0.9889984,0.1139984-1.4099998
	c-0.1969986-0.2330017-0.4790001-0.3530006-0.7630005-0.3530006c-0.2290001,0-0.4589996,0.0779991-0.6459999,0.237999
	l-3.387001,2.8779984c-0.4210014,0.3580017-0.4729996,0.9889984-0.1139984,1.4099998
	C21.0207462,54.4400711,21.6537495,54.4900703,22.0727482,54.1340714z"/>
<path class="st0" d="M57.4474411,44.1084938l4.3890381,0.7006989c0.5457611,0.0869217,1.0588646-0.2840004,1.145134-0.8305206
	c0.0488472-0.3011818-0.0434303-0.5934334-0.2281532-0.8091507c-0.1489487-0.1739388-0.3577919-0.297905-0.600956-0.3358765
	l-4.3890381-0.7006989c-0.5457573-0.0869217-1.0588608,0.2840042-1.145134,0.8305206
	C56.5307579,43.508461,56.9045067,44.0217896,57.4474411,44.1084938z"/>
<path class="st0" d="M54.5397453,67.532074c-0.1839981-0.3270035-0.5229988-0.5110016-0.8729973-0.5110016
	c-0.1660004,0-0.3330002,0.0410004-0.4880028,0.1279984c-0.480999,0.2700043-0.6529999,0.8789978-0.3829994,1.3610001
	l1.5300026,2.7290039c0.2709999,0.4809952,0.8789978,0.6520004,1.3610001,0.3829956
	c0.480999-0.2699966,0.6529999-0.8789978,0.3829994-1.3610001L54.5397453,67.532074z"/>
<path class="st0" d="M48.1847458,56.1970711c-0.1839981-0.3269997-0.5219994-0.5110016-0.8730011-0.5110016
	c-0.1650009,0-0.3330002,0.0410004-0.487999,0.1279984c-0.480999,0.2700005-0.6529999,0.8790016-0.3829994,1.3610001
	l4.3100014,7.6860008c0.2709999,0.4800034,0.8759995,0.6539993,1.3610001,0.3830032
	c0.480999-0.2700043,0.6529999-0.8790054,0.3829994-1.3610039L48.1847458,56.1970711z"/>
<path class="st0" d="M13.1161604,47.6432991c-0.3187399,0.1979637-0.487957,0.5436058-0.4727831,0.8942795
	c0.0071335,0.1648445,0.0553589,0.3309135,0.1489763,0.4820061c0.2905426,0.4688797,0.9064083,0.6143913,1.3762856,0.3238029
	l6.2704401-3.8638992c0.4678345-0.2914963,0.6155167-0.9034538,0.323801-1.3762856
	c-0.2905426-0.4688759-0.9064083-0.6143875-1.3762856-0.3237991L13.1161604,47.6432991z"/>
<path class="st0" d="M52.4777489,48.3730698c-0.1720009-0.1160011-0.3670006-0.1710014-0.5600014-0.1710014
	c-0.3209991,0-0.6359978,0.1539993-0.8289986,0.4399986c-0.3100014,0.4580002-0.1889992,1.0789986,0.2679977,1.3889999
	l15.394001,10.4070053c0.4589996,0.3089981,1.0800018,0.1879997,1.3889999-0.269001
	c0.3099976-0.4580002,0.189003-1.0789986-0.2679977-1.3889999L52.4777489,48.3730698z"/>
<path class="st0" d="M73.104744,44.5980721l-7.1439972-1.1150017c-0.0530014-0.0079994-0.1039963-0.012001-0.1549988-0.012001
	c-0.4840012,0-0.9100037,0.3530006-0.9869995,0.8460007c-0.0849991,0.5460014,0.288002,1.0569992,0.8339996,1.1419983
	l7.1439972,1.1150017c0.5540009,0.0859985,1.0579987-0.2890015,1.1430054-0.8330002
	C74.0237503,45.1940689,73.6507492,44.6830711,73.104744,44.5980721z"/>
<path class="st0" d="M11.1677446,49.9690704c-0.1880035-0.3069992-0.5169983-0.4760017-0.8529968-0.4760017
	c-0.1790009,0-0.3590012,0.0480003-0.5230026,0.1479988L4.458745,52.9220657
	c-0.470001,0.2890015-0.6169965,0.9049988-0.3270035,1.375c0.2890015,0.4710007,0.9039993,0.618,1.3759995,0.3279991
	l5.3330002-3.2809982C11.3097506,51.0560722,11.4577456,50.4400711,11.1677446,49.9690704z"/>
<path class="st0" d="M36.9672546,53.4550552c-8.2622089,0-14.9838886-6.7216797-14.9838886-14.984375
	c0-8.2617207,6.7216797-14.9834003,14.9838886-14.9834003c8.2626953,0,14.984375,6.7216797,14.984375,14.9834003
	C51.9516296,46.7333755,45.22995,53.4550552,36.9672546,53.4550552z M36.9672546,25.4872799
	c-7.1591816,0-12.9838886,5.8242188-12.9838886,12.9834003s5.824707,12.984375,12.9838886,12.984375
	s12.984375-5.8251953,12.984375-12.984375S44.1264343,25.4872799,36.9672546,25.4872799z"/>
</svg>
