<svg xmlns="http://www.w3.org/2000/svg" xmlns:xlink="http://www.w3.org/1999/xlink" version="1.1" x="0px" y="0px" viewBox="0 0 100 125" style="enable-background:new 0 0 100 100;" xml:space="preserve"><path d="M23.31653,47.53937c-0.01501,0.06543-0.04248,0.12573-0.04358,0.19598c-0.00244,0.16602-0.3335,16.87891-8.08789,40.95801  c-0.09814,0.3042-0.04492,0.63721,0.14355,0.89551C15.5166,89.84717,15.81689,90,16.13672,90h67.5  c0.31982,0,0.62012-0.15283,0.80811-0.41113c0.18848-0.2583,0.2417-0.59131,0.14355-0.89551  c-6.80115-21.11932-7.97827-37.32806-8.16742-41.11914c3.12585-0.29724,5.57953-2.9353,5.57953-6.1377v-1.51465  c0-0.01013-0.00549-0.01849-0.0058-0.02856c-0.00348-0.12274-0.02521-0.24274-0.07159-0.35455  c-0.00696-0.01685-0.02008-0.02936-0.02795-0.04572c-0.04358-0.09094-0.09863-0.17517-0.16846-0.24994  c-0.02887-0.03088-0.06335-0.05304-0.09589-0.08008c-0.04163-0.03473-0.07654-0.07581-0.12445-0.10394  c-0.72168-0.42285-1.86914-0.8418-3.45801-1.42139c-6.13562-2.2381-17.50116-6.39777-26.94427-18.54749l14.42474-2.45496  c0.99463-0.16895,1.68945-0.9917,1.68994-2.00098c0-1.00928-0.69434-1.83252-1.68945-2.00195l-15.36133-2.61816  c-0.28955-0.04883-0.58789,0.03223-0.81299,0.22168C49.12988,10.42578,49,10.70557,49,11v7.95258  c-9.46509,12.2594-20.89569,16.43835-27.05518,18.68512c-1.58887,0.57959-2.73633,0.99854-3.45801,1.42139  c-0.04791,0.02814-0.08282,0.06921-0.12445,0.10394c-0.03253,0.02704-0.06702,0.04919-0.09589,0.08008  c-0.06982,0.07477-0.12488,0.159-0.16846,0.24994c-0.00787,0.01636-0.021,0.02887-0.02795,0.04572  c-0.04639,0.11182-0.06812,0.23181-0.07159,0.35455c-0.00031,0.01007-0.0058,0.01843-0.0058,0.02856v1.51465  C17.99268,44.55054,20.31433,47.12585,23.31653,47.53937z M25.27295,47.76416c0.00128-0.09149-0.02655-0.17413-0.0484-0.25861  c1.7146-0.30011,3.18652-1.30719,4.1026-2.71295c1.1012,1.68982,3.00433,2.8114,5.16748,2.8114  c0.40497,0,0.80005-0.04181,1.18341-0.1167c-0.16949,5.02881-1.02679,22.828-4.95569,40.5127H17.50439  C24.95459,64.31348,25.27051,47.92969,25.27295,47.76416z M30.32715,40.92188h8.33447v0.51465  c0,2.29785-1.86914,4.16748-4.16699,4.16748s-4.16748-1.86963-4.16748-4.16748V40.92188z M59.26086,38.92188H40.72595  c4.82452-4.52179,7.84753-11.95288,9.26721-16.17236C51.414,26.9682,54.43829,34.39874,59.26086,38.92188z M39.66162,44.7926  c1.1012,1.68982,3.00433,2.8114,5.16748,2.8114c1.62115,0,3.09369-0.63348,4.19562-1.65985  c-0.7691,13.92401-11.15814,31.8468-15.59607,38.91815c3.56012-17.79645,4.18445-34.85059,4.2749-38.16907  C38.48889,46.21191,39.1593,45.56342,39.66162,44.7926z M40.66162,40.92188h8.33496v0.51465  c0,2.29785-1.86963,4.16748-4.16748,4.16748s-4.16748-1.86963-4.16748-4.16748V40.92188z M59.33105,40.92188v0.51465  c0,2.29785-1.86963,4.16748-4.16748,4.16748s-4.16699-1.86963-4.16699-4.16748v-0.51465H59.33105z M50.07825,52.68207  C53.34821,67.52386,63.68231,83.70532,66.55225,88H33.80096C36.63165,83.71265,46.84637,67.52679,50.07825,52.68207z   M51.12799,46.08929c1.08282,0.94061,2.49207,1.51471,4.03558,1.51471c2.16315,0,4.06628-1.12164,5.16748-2.81146  c0.47931,0.73547,1.11078,1.36084,1.84998,1.8349c0.08154,3.07043,0.66882,19.64447,4.07495,37.19769  C61.49225,76.18774,51.93262,59.35315,51.12799,46.08929z M61.33105,41.43652v-0.51465h8.33447v0.51465  c0,2.29785-1.86914,4.16748-4.16699,4.16748S61.33105,43.73438,61.33105,41.43652z M69.16437,88  c-3.93323-17.70465-4.78827-35.53522-4.95667-40.53424c0.41663,0.08911,0.84796,0.13824,1.29083,0.13824  c2.16284,0,4.0658-1.12158,5.16699-2.8114c0.85193,1.30731,2.18475,2.26941,3.74664,2.63965  C74.56671,50.79791,75.62537,66.8576,82.26904,88H69.16437z M80.00049,40.92188v0.51465c0,2.29785-1.86963,4.16748-4.16748,4.16748  s-4.16748-1.86963-4.16748-4.16748v-0.51465H80.00049z M75.74707,38.92188H62.42438  c-4.84668-3.31665-8.13501-10.34033-9.90332-15.07501C60.8335,32.84998,70.13818,36.82361,75.74707,38.92188z M51,12.18945  l14.19336,2.47412L51,17.07959V12.18945z M47.46497,23.85443c-1.76587,4.7334-5.05011,11.74963-9.90149,15.06598  c-0.00061,0.00043-0.00079,0.00104-0.0014,0.00146H24.24609C29.85297,36.82416,39.15399,32.85229,47.46497,23.85443z   M28.32715,40.92188v0.51465c0,2.29785-1.86914,4.16748-4.16699,4.16748s-4.16748-1.86963-4.16748-4.16748v-0.51465H28.32715z"/><path d="M22.81299,21.06055l-0.85547,4.9873c-0.06396,0.375,0.09033,0.75439,0.39795,0.97803  c0.30859,0.22412,0.7168,0.25342,1.05322,0.07617l4.47852-2.35449l4.479,2.35449c0.14648,0.07666,0.30615,0.11475,0.46533,0.11475  c0.20703,0,0.41357-0.06445,0.58789-0.19092c0.30762-0.22363,0.46191-0.60303,0.39795-0.97803l-0.85547-4.9873l3.62354-3.53174  c0.27246-0.26611,0.37061-0.66309,0.25293-1.02539c-0.11768-0.36182-0.43066-0.62598-0.80713-0.68066l-5.00781-0.72754  l-2.23926-4.5376c-0.33691-0.68262-1.45703-0.68262-1.79395,0l-2.23877,4.5376l-5.00781,0.72754  c-0.37695,0.05469-0.68994,0.31885-0.80762,0.68066c-0.11768,0.3623-0.01953,0.75928,0.25293,1.02539L22.81299,21.06055z   M25.55908,16.99902c0.32617-0.04736,0.60742-0.25195,0.75342-0.54736l1.57471-3.19189l1.5752,3.19189  c0.146,0.29541,0.42725,0.5,0.75342,0.54736l3.52246,0.51172l-2.54932,2.48438c-0.23535,0.22998-0.34277,0.56104-0.2876,0.88525  l0.60205,3.5083l-3.15088-1.65625c-0.14551-0.07666-0.30566-0.11475-0.46533-0.11475s-0.31982,0.03809-0.46533,0.11475  l-3.15039,1.65625l0.60156-3.5083c0.05518-0.32422-0.05225-0.65527-0.2876-0.88525l-2.54932-2.48438L25.55908,16.99902z"/><path d="M77.45215,22.62207l-0.73535,4.28711c-0.06396,0.375,0.09033,0.75439,0.39795,0.97803  c0.30908,0.22412,0.71729,0.25293,1.05322,0.07617l3.8501-2.02441l3.84961,2.02441c0.14648,0.07666,0.30615,0.11475,0.46533,0.11475  c0.20703,0,0.41357-0.06445,0.58789-0.19092c0.30762-0.22363,0.46191-0.60303,0.39795-0.97803l-0.73535-4.28711l3.11426-3.03564  c0.27295-0.26611,0.37109-0.66309,0.25342-1.02539c-0.11768-0.36182-0.43066-0.62598-0.80713-0.68066l-4.30469-0.62549  l-1.92432-3.90039c-0.16846-0.34131-0.51611-0.55762-0.89697-0.55762s-0.72852,0.21631-0.89697,0.55762l-1.9248,3.90039  l-4.30469,0.62549c-0.37646,0.05469-0.68945,0.31885-0.80713,0.68066c-0.11768,0.3623-0.01953,0.75928,0.25342,1.02539  L77.45215,22.62207z M80.00439,19.15869c0.32568-0.04736,0.60693-0.25195,0.75293-0.54736l1.26074-2.55469l1.26025,2.55469  c0.146,0.29541,0.42725,0.5,0.75293,0.54736l2.81982,0.40967l-2.04004,1.98828c-0.23584,0.22998-0.34326,0.56104-0.28809,0.88525  L85.00488,25.25l-2.52148-1.32617c-0.29102-0.15332-0.63965-0.15332-0.93066,0L79.03076,25.25l0.48193-2.80811  c0.05518-0.32422-0.05225-0.65527-0.28809-0.88525l-2.04004-1.98828L80.00439,19.15869z"/><path d="M10.88672,32.625h1.68652v1.68701c0,0.55225,0.44775,1,1,1s1-0.44775,1-1V32.625h1.68701c0.55225,0,1-0.44775,1-1  s-0.44775-1-1-1h-1.68701v-1.68701c0-0.55225-0.44775-1-1-1s-1,0.44775-1,1V30.625h-1.68652c-0.55225,0-1,0.44775-1,1  S10.33447,32.625,10.88672,32.625z"/><path d="M66.5,21.7041v1.68701h-1.68701c-0.55225,0-1,0.44775-1,1s0.44775,1,1,1H66.5v1.68701c0,0.55225,0.44775,1,1,1  s1-0.44775,1-1v-1.68701h1.68701c0.55225,0,1-0.44775,1-1s-0.44775-1-1-1H68.5V21.7041c0-0.55225-0.44775-1-1-1  S66.5,21.15186,66.5,21.7041z"/>

<!--

circus by Made x Made from the Noun Project
https://thenounproject.com/term/circus/1728524/

<text x="0" y="115" fill="#000000" font-size="5px" font-weight="bold" font-family="'Helvetica Neue', Helvetica, Arial-Unicode, Arial, Sans-serif">Created by Made x Made</text><text x="0" y="120" fill="#000000" font-size="5px" font-weight="bold" font-family="'Helvetica Neue', Helvetica, Arial-Unicode, Arial, Sans-serif">from the Noun Project</text>

-->

</svg>
