<svg xmlns="http://www.w3.org/2000/svg" viewBox="0 0 64 80" x="0px" y="0px"><path d="M47,14a3.00328,3.00328,0,0,1,3,3,1,1,0,0,0,2,0,3.00328,3.00328,0,0,1,3-3,1,1,0,0,0,0-2,3.00328,3.00328,0,0,1-3-3,1,1,0,0,0-2,0,3.00328,3.00328,0,0,1-3,3,1,1,0,0,0,0,2Zm4-2.03094A5.02336,5.02336,0,0,0,52.03094,13,5.02336,5.02336,0,0,0,51,14.03094,5.02336,5.02336,0,0,0,49.96906,13,5.02336,5.02336,0,0,0,51,11.96906Z"/><path d="M42,55a1,1,0,0,0,2,0,3.00328,3.00328,0,0,1,3-3,1,1,0,0,0,0-2,3.00328,3.00328,0,0,1-3-3,1,1,0,0,0-2,0,3.00328,3.00328,0,0,1-3,3,1,1,0,0,0,0,2A3.00328,3.00328,0,0,1,42,55Zm1-5.03094A5.02336,5.02336,0,0,0,44.03094,51,5.02336,5.02336,0,0,0,43,52.03094,5.02336,5.02336,0,0,0,41.96906,51,5.02336,5.02336,0,0,0,43,49.96906Z"/><path d="M59,17a2.99986,2.99986,0,0,0-2.94635,2.46924l-8.43982,6.56433L29,27.8949V25.858a3.99017,3.99017,0,1,0-4-6.476,3.94711,3.94711,0,0,0-6,0,3.98757,3.98757,0,1,0-4,6.476V28H11.23633L7.92249,26.34308A3.00164,3.00164,0,0,0,5,24H3a.99943.99943,0,0,0-1,1V39a.99943.99943,0,0,0,1,1H5a3.00164,3.00164,0,0,0,2.92249-2.34308L11.23633,36H12v5a5.00588,5.00588,0,0,0,5,5H35a5.00588,5.00588,0,0,0,5-5V37.20508l7.6958.76959,8.37207,4.65112A2.999,2.999,0,0,0,62,42V20A3.00328,3.00328,0,0,0,59,17ZM6,37a1.00067,1.00067,0,0,1-1,1H4V26H5a1.00067,1.00067,0,0,1,1,1Zm4-2.61816-2,1V28.61816l2,1ZM28,20a2,2,0,1,1-2,2A2.0026,2.0026,0,0,1,28,20Zm6,16.6051V40H18V36h9.94922ZM27,25.858V28H23V25.858A3.98162,3.98162,0,0,0,25,24.618,3.98162,3.98162,0,0,0,27,25.858ZM22,20a2,2,0,1,1-2,2A2.0026,2.0026,0,0,1,22,20Zm-1,5.858V28H17V25.858A3.98162,3.98162,0,0,0,19,24.618,3.98162,3.98162,0,0,0,21,25.858ZM14,22a2,2,0,1,1,2,2A2.0026,2.0026,0,0,1,14,22ZM12,34V30H27v4Zm26,7a3.00328,3.00328,0,0,1-3,3H17a3.00328,3.00328,0,0,1-3-3V36h2v4a2.0026,2.0026,0,0,0,2,2H34a2.0026,2.0026,0,0,0,2-2V36.80505l2,.2Zm9-11.91345-10.09082.91736A1.00011,1.00011,0,0,0,36.999,32c.03028,0,.06055-.001.0918-.00391L47,31.09528v4.79925l-18-1.7998V29.90527l18-1.7998Zm9-4.56781-4.625,3.7A1.00129,1.00129,0,0,0,51,29v2a1,1,0,0,0,2,0V29.48047L56,27.081V40.30078l-7-3.88965V27.48926l7-5.44434ZM60,42a1,1,0,0,1-2,0V20a1,1,0,0,1,2,0Z"/>

<!--


Trumpet by Smalllike from the Noun Project
https://thenounproject.com/term/trumpet/1866301/

<text x="0" y="79" fill="#000000" font-size="5px" font-weight="bold" font-family="'Helvetica Neue', Helvetica, Arial-Unicode, Arial, Sans-serif">Created by Smalllike</text><text x="0" y="84" fill="#000000" font-size="5px" font-weight="bold" font-family="'Helvetica Neue', Helvetica, Arial-Unicode, Arial, Sans-serif">from the Noun Project</text>

-->

</svg>