<svg xmlns:dc="http://purl.org/dc/elements/1.1/" xmlns:cc="http://creativecommons.org/ns#" xmlns:rdf="http://www.w3.org/1999/02/22-rdf-syntax-ns#" xmlns:svg="http://www.w3.org/2000/svg" xmlns="http://www.w3.org/2000/svg" xmlns:sodipodi="http://sodipodi.sourceforge.net/DTD/sodipodi-0.dtd" xmlns:inkscape="http://www.inkscape.org/namespaces/inkscape" viewBox="0 0 100 75" version="1.1" x="0px" y="0px"><g transform="translate(0,-952.36216)"><path style="color:hsl(191, 75%, 54%);font-style:normal;font-variant:normal;font-weight:normal;font-stretch:normal;font-size:medium;line-height:normal;font-family:sans-serif;text-indent:0;text-align:start;text-decoration:none;text-decoration-line:none;text-decoration-style:solid;text-decoration-color:hsl(191, 75%, 54%);letter-spacing:normal;word-spacing:normal;text-transform:none;direction:ltr;block-progression:tb;writing-mode:lr-tb;baseline-shift:baseline;text-anchor:start;white-space:normal;clip-rule:nonzero;display:inline;overflow:visible;visibility:visible;opacity:1;isolation:auto;mix-blend-mode:normal;color-interpolation:sRGB;color-interpolation-filters:linearRGB;solid-color:hsl(191, 75%, 54%);solid-opacity:1;fill:hsl(191, 75%, 54%);fill-opacity:1;fill-rule:evenodd;stroke:none;stroke-width:20;stroke-linecap:butt;stroke-linejoin:round;stroke-miterlimit:4;stroke-dasharray:none;stroke-dashoffset:0;stroke-opacity:1;color-rendering:auto;image-rendering:auto;shape-rendering:auto;text-rendering:auto;enable-background:accumulate" d="m 84.627264,992.40056 c -1.664553,-0.01 -3.263974,0.4712 -4.656854,1.2403 -0.008,0 -0.0161,0.01 -0.024,0.013 -5.36588,3.0714 -6.85401,9.38604 -8.22262,11.48844 -2.20476,3.3087 -6.11752,3.9262 -9.6267,3.4568 -1.31795,-0.2078 -2.54677,-0.5937 -3.53507,-1.2199 -0.97414,-0.6171 -1.73964,-1.5194 -2.04808,-2.4661 -0.15393,-0.4723 -0.20244,-0.9722 -0.14043,-1.4242 0.0615,-0.4481 0.23966,-0.8795 0.49118,-1.2048 0.24857,-0.3216 0.6009,-0.5739 0.94818,-0.6892 0.34134,-0.1133 0.74057,-0.1091 1.04204,0 0.26484,0.094 0.52549,0.2927 0.68774,0.5223 0.16217,0.2296 0.26139,0.5413 0.26182,0.8226 0.004,2.03 2.83651,2.5111 3.51108,0.5966 0.85295,-2.4253 0.5346,-5.13614 -0.85677,-7.29804 -1.39147,-2.1614 -3.72743,-3.5737 -6.28819,-3.8019 -1.92029,-0.1709 -3.78202,0.3272 -5.37387,1.2062 -0.008,0.01 -0.0163,0.01 -0.0244,0.014 -5.36488,3.0709 -6.85312,9.38314 -8.22155,11.48674 -1.77603,2.6665 -4.66092,3.5832 -7.5504,3.5943 l -0.14609,0 c -0.64933,0 -1.29801,-0.052 -1.93339,-0.1375 -1.31727,-0.208 -2.54514,-0.5937 -3.53259,-1.2196 -0.97425,-0.6171 -1.73968,-1.5189 -2.04808,-2.4656 -0.15399,-0.4726 -0.20279,-0.9723 -0.1408,-1.4242 0.0615,-0.4482 0.23988,-0.8799 0.49121,-1.2047 0.24858,-0.3216 0.60058,-0.5718 0.94815,-0.6873 0.34093,-0.1131 0.74018,-0.1089 1.04204,0 0.26548,0.095 0.52599,0.2918 0.6881,0.5213 0.16219,0.2296 0.26176,0.5416 0.26219,0.8227 0.003,2.0304 2.83633,2.5126 3.51108,0.5975 0.85294,-2.4253 0.53465,-5.13794 -0.85678,-7.29914 -1.39145,-2.1615 -3.72768,-3.5736 -6.28818,-3.8018 -0.48002,-0.043 -0.95659,-0.044 -1.42596,-0.01 l 0.005,-0.021 c -1.40845,0.1093 -2.75385,0.555 -3.94758,1.2139 -0.008,0.01 -0.0163,0.01 -0.0243,0.014 -5.36651,3.072 -6.85418,9.38754 -8.22296,11.48924 -2.18498,3.4637 -8.2595,3.191 -8.38143,7.201 l 4.05627,0 82.211404,0 3.732326,0 c -1.245488,-5.3932 -7.736543,-2.8443 -9.313001,-7.418 -0.153967,-0.4726 -0.202766,-0.972 -0.140796,-1.4238 0.06148,-0.4483 0.239858,-0.8803 0.491189,-1.2051 0.248584,-0.3216 0.600566,-0.5729 0.948176,-0.6889 0.341088,-0.1133 0.740478,-0.1082 1.042378,0 0.264845,0.095 0.52548,0.2916 0.687758,0.5212 0.162278,0.2298 0.261737,0.5424 0.262171,0.8241 0.0049,2.0296 2.836616,2.5104 3.511077,0.596 0.852945,-2.4253 0.534622,-5.13634 -0.856775,-7.29824 -1.391506,-2.1617 -3.727575,-3.5745 -6.28818,-3.8029 -0.240003,-0.021 -0.479229,-0.032 -0.717027,-0.033 z"/></g>


<!--
waves by Andrew Doane from the Noun Project:
https://thenounproject.com/search/?q=wave&i=1190591
<text x="0" y="115" fill="hsl(191, 75%, 54%)" font-size="5px" font-weight="bold" font-family="'Helvetica Neue', Helvetica, Arial-Unicode, Arial, Sans-serif">Created by Andrew Doane</text><text x="0" y="120" fill="hsl(191, 75%, 54%)" font-size="5px" font-weight="bold" font-family="'Helvetica Neue', Helvetica, Arial-Unicode, Arial, Sans-serif">from the Noun Project</text>
-->

</svg>