<?xml version="1.0" encoding="utf-8"?>
<!-- Generator: Adobe Illustrator 23.0.4, SVG Export Plug-In . SVG Version: 6.00 Build 0)  -->
<svg version="1.1"
	 id="Layer_1" xmlns:cc="http://creativecommons.org/ns#" xmlns:dc="http://purl.org/dc/elements/1.1/" xmlns:inkscape="http://www.inkscape.org/namespaces/inkscape" xmlns:rdf="http://www.w3.org/1999/02/22-rdf-syntax-ns#" xmlns:sodipodi="http://sodipodi.sourceforge.net/DTD/sodipodi-0.dtd" xmlns:svg="http://www.w3.org/2000/svg"
	 xmlns="http://www.w3.org/2000/svg" xmlns:xlink="http://www.w3.org/1999/xlink" x="0px" y="0px" viewBox="0 0 92 22"
	 style="enable-background:new 0 0 92 22;" xml:space="preserve">
<style type="text/css">
	.st0{fill-rule:evenodd;clip-rule:evenodd;fill:hsl(191, 75%, 54%);}
</style>
<g transform="translate(0,-952.36216)">
	<path class="st0" d="M80.6272583,953.4006958c-1.6645508-0.0100098-3.2639771,0.4711914-4.6568527,1.2402954
		c-0.0080032,0-0.016098,0.0100098-0.0240021,0.0130005c-5.3658829,3.0714111-6.8540115,9.3860474-8.2226181,11.4884644
		c-2.2047577,3.3087158-6.1175232,3.9262085-9.6267014,3.4567871c-1.3179512-0.2078247-2.5467682-0.593689-3.5350685-1.2199097
		c-0.9741402-0.6171265-1.7396393-1.5194092-2.0480804-2.4661255c-0.1539307-0.47229-0.2024384-0.972229-0.1404305-1.4241943
		c0.0615005-0.4481201,0.2396584-0.8795166,0.4911804-1.2047729c0.2485695-0.3215942,0.6008987-0.5739136,0.9481812-0.689209
		c0.3413391-0.1132812,0.7405701-0.1090698,1.0420418,0c0.2648392,0.0939941,0.5254898,0.2927246,0.6877403,0.5222778
		c0.1621704,0.2296143,0.2613907,0.5413208,0.2618217,0.8225708c0.0040016,2.0300293,2.8365097,2.5111084,3.5110817,0.5966187
		c0.852951-2.425293,0.5345993-5.1361694-0.8567696-7.2980347c-1.391468-2.161377-3.7274284-3.5736694-6.2881889-3.8018799
		c-1.9202881-0.1708984-3.7820206,0.3272095-5.3738708,1.2061768c-0.0079994,0.0100098-0.0163002,0.0100098-0.0243988,0.0139771
		c-5.3648796,3.0709229-6.8531189,9.3831177-8.22155,11.4867554c-1.7760315,2.6665039-4.6609192,3.5831909-7.5503998,3.5942993
		h-0.1460915c-0.6493301,0-1.2980118-0.052002-1.9333916-0.1375122c-1.3172703-0.2080078-2.5451393-0.593689-3.532589-1.2196045
		c-0.9742508-0.6171265-1.7396793-1.5189209-2.0480804-2.4655762c-0.1539898-0.4725952-0.2027893-0.97229-0.1408005-1.4241943
		c0.0615005-0.4481812,0.2398796-0.8798828,0.4912109-1.2047119c0.2485809-0.3215942,0.6005802-0.5717773,0.9481506-0.6873169
		c0.3409309-0.1130981,0.740181-0.1088867,1.0420399,0c0.26548,0.0949707,0.5259895,0.2918091,0.6881008,0.5213013
		c0.1621895,0.2296143,0.2617607,0.541626,0.2621899,0.8226929c0.0030003,2.0303955,2.8363285,2.5125732,3.5110798,0.5974731
		c0.8529396-2.425293,0.5346489-5.1379395-0.856781-7.2991333c-1.3914509-2.161499-3.7276802-3.5736084-6.2881794-3.8018188
		c-0.4800205-0.0430298-0.9565907-0.0440063-1.4259605-0.0100098l0.0049992-0.0209961
		c-1.4084492,0.109314-2.753849,0.5549927-3.9475803,1.2139282c-0.0079994,0.0100098-0.0163002,0.0100098-0.0242996,0.0139771
		c-5.3665104,3.0720215-6.8541794,9.3875122-8.2229614,11.4892578c-2.184979,3.4636841-8.2594986,3.190979-8.3814297,7.2009888
		h4.0562696h82.2114105H91c-1.245491-5.3931885-7.7365417-2.8442993-9.3130035-7.4180298
		c-0.1539688-0.4725952-0.2027664-0.9719849-0.1407928-1.4238281c0.0614777-0.4483032,0.2398605-0.8803101,0.491188-1.2050781
		c0.2485809-0.3215942,0.600563-0.572876,0.9481735-0.6889038c0.3410873-0.1132812,0.7404785-0.1082153,1.0423813,0
		c0.2648468,0.0949707,0.5254822,0.291626,0.6877594,0.5211792c0.1622772,0.2297974,0.261734,0.5424194,0.2621689,0.8240967
		c0.0048981,2.0296021,2.8366165,2.510376,3.5110779,0.5960083c0.8529434-2.425293,0.5346222-5.1363525-0.8567734-7.2982178
		c-1.3915024-2.1616821-3.7275772-3.5745239-6.2881775-3.8029175c-0.2400055-0.0209961-0.4792328-0.0319824-0.7170258-0.03302
		L80.6272583,953.4006958z"/>
</g>
</svg>
