<svg xmlns="http://www.w3.org/2000/svg" xmlns:xlink="http://www.w3.org/1999/xlink" version="1.1" x="0px" y="0px" viewBox="0 0 100 125" enable-background="new 0 0 100 100" xml:space="preserve"><path d="M75.083,7.325c-0.793,0.769-0.813,2.034-0.045,2.828c18.532,19.136,18.041,49.78-1.094,68.312  c-7.339,7.107-17.029,10.894-27.221,10.769c-10.215-0.164-19.755-4.296-26.862-11.635C8.276,65.637,8.583,46.481,20.544,34.897  c4.559-4.415,10.568-6.81,16.909-6.688c6.345,0.102,12.271,2.668,16.687,7.227c3.458,3.57,5.318,8.273,5.238,13.243  c-0.08,4.969-2.09,9.609-5.66,13.067c-5.739,5.556-14.927,5.409-20.483-0.328c-4.292-4.432-4.178-11.528,0.254-15.82  c3.386-3.279,8.811-3.193,12.091,0.193c2.471,2.551,2.405,6.637-0.146,9.107c-0.912,0.884-2.133,1.368-3.382,1.338  c-1.269-0.021-2.455-0.534-3.337-1.446c-0.769-0.792-2.035-0.813-2.828-0.045c-0.793,0.768-0.814,2.034-0.046,2.828  c1.626,1.68,3.81,2.625,6.147,2.663c2.336,0.014,4.55-0.838,6.229-2.465c2.003-1.94,3.131-4.544,3.176-7.333  c0.045-2.788-0.999-5.427-2.939-7.431c-4.814-4.97-12.775-5.1-17.747-0.283c-2.914,2.822-4.555,6.61-4.62,10.667  c-0.065,4.056,1.454,7.895,4.276,10.81c7.09,7.321,18.816,7.51,26.139,0.418c4.338-4.2,6.78-9.839,6.877-15.877  c0.097-6.037-2.164-11.752-6.365-16.09c-5.158-5.326-12.082-8.324-19.496-8.443c-7.419-0.085-14.43,2.657-19.756,7.815  C4.216,45.143,3.869,66.836,16.987,80.382c7.851,8.106,18.388,12.67,29.671,12.851c0.232,0.004,0.463,0.006,0.694,0.006  c11.026-0.001,21.434-4.211,29.374-11.9c20.719-20.065,21.25-53.247,1.184-73.968C77.143,6.576,75.877,6.558,75.083,7.325z"/><path d="M48.696,18.823l1.611,0.359c1.552,0.347,2.696,1.643,2.847,3.227l0.156,1.644c0.082,0.862,0.71,1.574,1.556,1.763  c0.146,0.032,0.292,0.048,0.436,0.048c0.696,0,1.356-0.364,1.721-0.982l0.84-1.421c0.81-1.371,2.396-2.059,3.949-1.711l1.612,0.359  c0.843,0.188,1.716-0.189,2.157-0.935c0.44-0.746,0.351-1.691-0.223-2.341l-1.093-1.238c-1.052-1.192-1.216-2.914-0.406-4.283  l0.84-1.422c0.44-0.746,0.351-1.691-0.223-2.341c-0.573-0.65-1.501-0.856-2.294-0.512l-1.515,0.656  c-1.46,0.631-3.147,0.256-4.2-0.937l-1.093-1.238c-0.573-0.65-1.499-0.856-2.295-0.512c-0.795,0.345-1.278,1.162-1.196,2.024  l0.156,1.644c0.15,1.583-0.729,3.071-2.189,3.704l-1.515,0.657c-0.795,0.345-1.277,1.162-1.195,2.024  C47.222,17.923,47.85,18.635,48.696,18.823z M55.751,13.173c1.14,0.578,2.405,0.854,3.686,0.822  c-0.198,1.263-0.075,2.557,0.357,3.76c-1.262,0.202-2.455,0.719-3.465,1.502c-0.583-1.139-1.442-2.112-2.5-2.832  C54.732,15.519,55.394,14.4,55.751,13.173z"/><path d="M69.039,39.607l0.947,0.213c0.984,0.219,1.709,1.041,1.805,2.046l0.092,0.965c0.041,0.432,0.355,0.787,0.778,0.882  c0.072,0.016,0.146,0.023,0.217,0.023c0.349,0,0.679-0.183,0.861-0.492l0.492-0.834c0.514-0.868,1.519-1.3,2.504-1.085l0.946,0.211  c0.423,0.096,0.858-0.095,1.079-0.467c0.221-0.373,0.176-0.846-0.111-1.171l-0.641-0.726c-0.667-0.757-0.771-1.849-0.258-2.718  l0.493-0.834c0.22-0.373,0.176-0.845-0.111-1.17c-0.286-0.325-0.749-0.43-1.147-0.257l-0.89,0.385  c-0.927,0.401-1.997,0.164-2.663-0.593l-0.641-0.728c-0.287-0.325-0.75-0.429-1.148-0.257c-0.397,0.173-0.639,0.581-0.598,1.013  l0.092,0.965c0.095,1.004-0.463,1.949-1.388,2.35l-0.889,0.385c-0.397,0.172-0.639,0.581-0.599,1.012  C68.303,39.157,68.617,39.513,69.039,39.607z"/><path d="M47.897,79.012l-0.559,0.242c-0.397,0.172-0.639,0.581-0.598,1.013c0.042,0.431,0.356,0.787,0.779,0.881l0.593,0.131  c0.461,0.104,0.801,0.488,0.846,0.959l0.058,0.606c0.041,0.432,0.355,0.787,0.778,0.881c0.072,0.017,0.146,0.024,0.217,0.024  c0.349,0,0.679-0.183,0.861-0.491l0.309-0.524c0.241-0.406,0.713-0.608,1.172-0.509l0.594,0.133  c0.423,0.096,0.859-0.095,1.079-0.467c0.221-0.373,0.176-0.846-0.111-1.171l-0.402-0.455c-0.313-0.354-0.361-0.866-0.121-1.272  l0.31-0.524c0.22-0.373,0.175-0.846-0.112-1.171c-0.286-0.324-0.75-0.426-1.147-0.256l-0.558,0.242  c-0.434,0.189-0.934,0.076-1.247-0.277l-0.403-0.457c-0.286-0.325-0.749-0.43-1.147-0.257c-0.397,0.173-0.639,0.581-0.598,1.013  l0.058,0.606C48.593,78.381,48.332,78.823,47.897,79.012z"/>

<!--

Winter by Alina Oleynik from the Noun Project
https://thenounproject.com/term/winter/956988/

<text x="0" y="115" fill="#000000" font-size="5px" font-weight="bold" font-family="'Helvetica Neue', Helvetica, Arial-Unicode, Arial, Sans-serif">Created by Alina Oleynik</text><text x="0" y="120" fill="#000000" font-size="5px" font-weight="bold" font-family="'Helvetica Neue', Helvetica, Arial-Unicode, Arial, Sans-serif">from the Noun Project</text>

-->

</svg>