<svg xmlns="http://www.w3.org/2000/svg" xmlns:xlink="http://www.w3.org/1999/xlink" version="1.1" x="0px" y="0px" viewBox="0 0 50 62.5" enable-background="new 0 0 50 50" xml:space="preserve"><g><path d="M48.4100227,14.5582676c-0.1400986-0.0699997-3.2900009-1.4601002-7.1301003-1.5900002   c0.5299988-2.29,0.4900017-4.1100998,0.4799995-4.25c-0.0099983-0.2700005-0.2199974-0.4799995-0.4899979-0.4899998   c-1.3521004,0.0292997-2.5894012,0.1115999-4.2600021,0.4799995c-0.1399002-3.8699999-1.5099983-6.9799995-1.5798988-7.1199999   c-0.2098999-0.4801-0.7700005-0.7101-1.2700005-0.52c-0.1400986,0.0498999-3.3099995,1.2799-6.1401005,3.9100003   c-1.2600002-1.9799001-2.5697994-3.2400002-2.6800003-3.3401003c-0.1898994-0.1799001-0.4898987-0.1799001-0.6798992,0   c-0.1100998,0.1000999-1.419899,1.3602-2.6798992,3.3401003c-2.8401012-2.6201003-6.0100002-3.8601003-6.1502008-3.9100003   c-0.5-0.1901-1.0599995,0.0398999-1.2699995,0.52c-0.0698004,0.14-1.4299002,3.25-1.5698004,7.1199999   c-1.9602003-0.4299994-3.5901003-0.4799995-4.1301003-0.4799995H8.7201233   C8.4501228,8.2382679,8.2401228,8.448267,8.2301226,8.7182674c-0.0099993,0.1399002-0.0401001,1.9700003,0.4800005,4.2600002   c-3.8601003,0.1399002-6.9800005,1.5100002-7.1202002,1.5799999c-0.4799,0.2101002-0.7099,0.7699995-0.52,1.2699995   c0.0501,0.1400003,1.2901,3.3099012,3.9102001,6.1500006c-1.9802003,1.2600002-3.2400002,2.5699997-3.3401003,2.6800003   c-0.1899,0.1898994-0.1899,0.4899998,0,0.6800003c0.1000999,0.1099987,1.3598999,1.4200993,3.3401003,2.6800995   c-2.6201003,2.8199005-3.8601003,6-3.9102001,6.1399002c-0.1899,0.5,0.0401,1.0600014,0.52,1.2700005   c0.1402,0.0700989,3.2701001,1.4398994,7.1202002,1.5800972c-0.5201006,2.2999001-0.4899998,4.1198006-0.4800005,4.2600021   c0.0100002,0.2699013,0.2200003,0.4799995,0.4900007,0.4899979c1.3500996-0.0292969,2.5880995-0.1110992,4.2699995-0.4800987   c0.1399002,3.8699989,1.5,6.9901009,1.5698004,7.1300011c0.1602001,0.3699989,0.5299997,0.5900993,0.9102001,0.5900993   c0.1197996,0,0.2399998-0.0200996,0.3597994-0.0700989c0.1402006-0.0501022,3.3200998-1.2901001,6.1602011-3.9199028   c1.25,1.9900017,2.5597992,3.25,2.669899,3.3498001c0.089901,0.0901031,0.2199993,0.1402016,0.339901,0.1402016   c0.1201,0,0.25-0.0500984,0.3399982-0.1402016c0.1102009-0.0998001,1.4200001-1.3498001,2.6700001-3.339798   c2.8299999,2.6198006,6.0100021,3.8597984,6.1501007,3.9099007c0.1198997,0.0499992,0.2400017,0.0700989,0.3599014,0.0700989   c0.3801003,0,0.75-0.2201004,0.910099-0.5900993c0.0699005-0.1399002,1.4399986-3.2600021,1.5798988-7.1300011   c1.6926003,0.3731003,2.9238014,0.4510002,4.2600021,0.4800987c0.2700005-0.0099983,0.4799995-0.2200966,0.4899979-0.4899979   c0.0100021-0.1402016,0.0499992-1.9601021-0.4799995-4.2600021c3.8600998-0.1401978,6.9900017-1.5099983,7.1301003-1.5800972   c0.4799995-0.2099991,0.7099991-0.7700005,0.5200005-1.2700005c-0.0499992-0.1399002-1.2900009-3.3101006-3.9201012-6.1499004   c1.9900017-1.25,3.25-2.5601006,3.3501015-2.6700993c0.1898994-0.1900005,0.1898994-0.4901009,0-0.6800003   c-0.1001015-0.1100006-1.3600998-1.4200001-3.3501015-2.6700001c2.6301003-2.8400002,3.8701019-6.0200005,3.9201012-6.1600008   C49.1200218,15.3282671,48.8900223,14.7683678,48.4100227,14.5582676z M33.9601212,3.3382676   c0.4099007,1.22,1.0498009,3.4599998,1.0698013,5.9400005c-1.6099014,0.5798998-3.2799988,1.4499998-4.6798992,2.7999992   c-0.0300999-1.9400997-0.5901012-3.75-1.330101-5.2899995C30.7799225,5.0382676,32.8099213,3.8982675,33.9601212,3.3382676z    M16.0299225,3.3481674c1.1501007,0.5501001,3.1902008,1.7000999,4.950201,3.4401002   c-0.7399998,1.5399995-1.3001003,3.3498998-1.330101,5.2999997c-1.3901005-1.3499994-3.0700989-2.2300997-4.6798992-2.8099995   C14.9801226,6.7982674,15.6100225,4.5582676,16.0299225,3.3481674z M3.3500228,16.0282669   c1.2098999-0.4200993,3.4398999-1.0499992,5.9298997-1.0699997c0.5701008,1.6200008,1.4502001,3.2901001,2.8100004,4.6900005   c-1.9498997,0.0299988-3.7600002,0.5900002-5.3000002,1.3299999C5.0499229,19.2182674,3.9000227,17.1782665,3.3500228,16.0282669z    M3.3500228,33.9582672c0.55-1.1500015,1.6999002-3.1898994,3.4398999-4.9398994   c1.54,0.7399998,3.3501005,1.2999001,5.29,1.3297997c-1.3498001,1.3901005-2.2298994,3.0601006-2.8000002,4.6800995   C6.7999229,35.0083656,4.5599227,34.3681679,3.3500228,33.9582672z M16.0299225,46.6482658   c-0.4198999-1.2099991-1.0497999-3.4599991-1.0597992-5.9499969c1.6098003-0.5701027,3.2897987-1.4499016,4.6798992-2.8000031   c0.0300007,1.9499016,0.5901012,3.7700005,1.3401012,5.3100014C19.2201233,44.9482689,17.1800232,46.0882683,16.0299225,46.6482658   z M33.9601212,46.658268c-1.1501999-0.5601006-3.1801987-1.7000008-4.9401989-3.4599991   c0.7399998-1.5400009,1.3000011-3.3501015,1.330101-5.2900009c1.3901005,1.3500977,3.0699978,2.2198982,4.6798992,2.7999992   C35.009922,43.1882668,34.3700218,45.4382668,33.9601212,46.658268z M46.6500244,33.9582672   c-1.2100029,0.419899-3.4499016,1.0500984-5.9399033,1.0699997c-0.5700989-1.6100006-1.4501991-3.2798996-2.8000984-4.6800995   c1.9500008-0.0298996,3.7599983-0.5897999,5.3000984-1.3397999C44.9501228,30.7782669,46.0899239,32.8082657,46.6500244,33.9582672   z M47.2799225,24.9983673c-2.3838005,2.2901993-6.0847015,4.3498001-9.5299988,4.3498001   c-0.3999023,0-0.7998009-0.0298996-1.1800003-0.0699005c-0.219902-0.0298996-0.4299011,0.1099014-0.5200005,0.3199005   c-0.0797997,0.2101002-0.0099983,0.4500999,0.1702003,0.5800991c0.2998009,0.2300014,0.589798,0.4800014,0.8698006,0.75   c2.4460983,2.4459019,3.5639992,6.4040012,3.6599998,9.8300991c-3.8974991-0.1603966-8.3283997-1.4826965-10.5699005-4.5400963   c-0.1301003-0.1800003-0.3701-0.25-0.5799999-0.170002c-0.5008011,0.2145004-0.25,0.5920982-0.25,1.7000999   c0,3.4323006-2.0139999,7.0516014-4.3500996,9.5298996c-2.651701-2.8135986-4.698801-6.7229004-4.2798004-10.7099991   c0.0200005-0.2201004-0.1100998-0.4300995-0.3101006-0.5100021c-0.0599995-0.0299988-0.1301003-0.0398979-0.1898994-0.0398979   c-0.7930012,0-2.7448997,4.4874992-10.9800005,4.7299995c0.0298004-0.7100983,0.1299-2.1301994,0.5198002-3.7601013   c0.7132998-0.1870003,0.9640999-1.1058998,0.4801998-1.6200981c0.5397997-1.5399017,1.3698997-3.1399002,2.6598997-4.4399014   c0.2700005-0.2599983,0.5601006-0.5199986,0.8699007-0.75c0.1700993-0.1399994,0.2399998-0.3799992,0.1601-0.5800991   c-0.0901003-0.2099991-0.3000002-0.3498001-0.5200005-0.3199005c-3.9573002,0.4168015-8.0036001-1.6990986-10.6898994-4.2798996   c2.7915001-2.6819,6.7557998-4.6956005,10.6998997-4.2800999c0.2200003,0.0300999,0.4300003-0.1100998,0.5100002-0.3099995   c0.0899-0.210001,0.0200996-0.4500008-0.1501007-0.5799999c-3.1037998-2.4252014-4.3757-6.6947002-4.5397997-10.5900002   c3.9453001,0.1741991,8.1736002,1.4475994,10.5898008,4.54c0.2973995,0.3889999,0.9352989,0.1371994,0.8901997-0.3600006   c-0.4158001-3.9574995,1.6337986-7.8918996,4.2798004-10.6999998c0.4902,0.52,1.4200993,1.5900002,2.289999,3.02   c3.1571999,5.1858001,1.4834003,7.8747001,2.3101006,8.1900005c0.2098999,0.0801001,0.4498997,0.0100002,0.5799999-0.1698999   c2.2719994-3.0303001,6.6912003-4.3512001,10.5699005-4.5200996c-0.0950012,3.3864994-1.2215004,7.3815994-3.6599998,9.8199997   c-0.2800026,0.2700005-0.5600014,0.5200005-0.889801,0.7800007c-0.1702003,0.1299992-0.2400017,0.3699989-0.1501999,0.5799999   c0.080101,0.2098999,0.2900009,0.3400993,0.5200005,0.3099995C40.4508209,20.2658672,44.5672226,22.3919678,47.2799225,24.9983673z    M43.2101212,20.9882679c-1.5401001-0.75-3.3600998-1.3100014-5.3100967-1.3400002   c1.3598976-1.3999004,2.2399979-3.0799999,2.8100967-4.6900005c2.4900017,0.0200005,4.7299004,0.6599007,5.9499016,1.0699997   C46.0899239,17.1782665,44.9601212,19.2082672,43.2101212,20.9882679z"/><path d="M24.9999237,15.8781672c-5.0298004,0-9.1199007,4.0901003-9.1199007,9.1202002   c0,5.0298996,4.0901003,9.1198006,9.1199007,9.1198006c5.0299988,0,9.1200981-4.089901,9.1200981-9.1198006   C34.1200218,19.9682674,30.0299225,15.8781672,24.9999237,15.8781672z M24.9999237,32.1181679   c-3.9300003,0-7.1199017-3.1998997-7.1199017-7.1198006c0-3.9300995,3.1899014-7.1201992,7.1199017-7.1201992   c3.9200993,0,7.1200981,3.1900997,7.1200981,7.1201992C32.1200218,28.9182682,28.920023,32.1181679,24.9999237,32.1181679z"/></g>


<!--
sun flower by Vectors Point from the Noun Project:
https://thenounproject.com/search/?q=sun&i=2601311
<text x="0" y="65" fill="#000000" font-size="5px" font-weight="bold" font-family="'Helvetica Neue', Helvetica, Arial-Unicode, Arial, Sans-serif">Created by Vectors Point</text><text x="0" y="70" fill="#000000" font-size="5px" font-weight="bold" font-family="'Helvetica Neue', Helvetica, Arial-Unicode, Arial, Sans-serif">from the Noun Project</text>
-->

</svg>