<svg xmlns="http://www.w3.org/2000/svg" xmlns:xlink="http://www.w3.org/1999/xlink" xml:space="preserve" version="1.1" style="shape-rendering:geometricPrecision;text-rendering:geometricPrecision;image-rendering:optimizeQuality;" viewBox="0 0 285 356.25" x="0px" y="0px" fill-rule="evenodd" clip-rule="evenodd"><defs><style type="text/css">
   
    .fil0 {fill:black}
   
  </style></defs><g><path class="fil0" d="M143 74c37,0 68,31 68,69 0,37 -31,68 -68,68 -38,0 -69,-31 -69,-68 0,-38 31,-69 69,-69zm0 8c33,0 60,27 60,61 0,33 -27,60 -60,60 -34,0 -61,-27 -61,-60 0,-34 27,-61 61,-61z"/><path class="fil0" d="M136 66c10,-33 -19,-17 4,-66 -9,44 23,42 12,66 -6,0 -11,0 -16,0z"/><path class="fil0" d="M84 94c-16,-32 -26,1 -44,-50 25,37 46,13 55,38 -4,4 -8,7 -11,12z"/><path class="fil0" d="M66 149c-33,-10 -17,19 -66,-4 44,9 42,-23 66,-12 0,6 0,11 0,16z"/><path class="fil0" d="M94 201c-32,17 1,26 -50,44 37,-25 13,-46 38,-55 4,4 7,8 12,11z"/><path class="fil0" d="M149 219c-10,33 19,17 -4,66 9,-44 -23,-42 -12,-66 6,0 11,0 16,0z"/><path class="fil0" d="M201 192c17,31 26,-2 44,50 -25,-38 -46,-14 -55,-39 4,-3 8,-7 11,-11z"/><path class="fil0" d="M219 136c33,10 17,-19 66,4 -44,-9 -42,23 -66,12 0,-6 0,-11 0,-16z"/><path class="fil0" d="M192 84c31,-16 -2,-26 50,-44 -38,25 -14,46 -39,55 -3,-4 -7,-8 -11,-11z"/></g>
  
  <!--
  sun by kareemovic from the Noun Project:
  https://thenounproject.com/abdulkareemovic/uploads/?i=2229802
  <text x="0" y="300" fill="#000000" font-size="5px" font-weight="bold" font-family="'Helvetica Neue', Helvetica, Arial-Unicode, Arial, Sans-serif">Created by kareemovic</text><text x="0" y="305" fill="#000000" font-size="5px" font-weight="bold" font-family="'Helvetica Neue', Helvetica, Arial-Unicode, Arial, Sans-serif">from the Noun Project</text>
  -->
</svg>