<svg xmlns="http://www.w3.org/2000/svg" xmlns:xlink="http://www.w3.org/1999/xlink" version="1.1" x="0px" y="0px" viewBox="0 0 64 80" style="enable-background:new 0 0 64 64;" xml:space="preserve"><g><path fill="white" d="M27.122,18.535L32,23.414l4.878-4.879C37.602,17.812,38,16.852,38,15.828C38,13.718,36.283,12,34.171,12   c-0.787,0-1.537,0.235-2.171,0.674C31.366,12.236,30.615,12,29.829,12C27.717,12,26,13.718,26,15.828   C26,16.852,26.398,17.812,27.122,18.535z M29.829,14c0.488,0,0.948,0.19,1.292,0.534L32,15.416l0.878-0.881   C33.224,14.19,33.683,14,34.171,14C35.18,14,36,14.82,36,15.828c0,0.481-0.195,0.952-0.536,1.293L32,20.586l-3.465-3.465   C28.195,16.78,28,16.31,28,15.828C28,14.82,28.82,14,29.829,14z"/><path fill="white" d="M16,5c-3.309,0-6,2.691-6,6h2c0-2.206,1.794-4,4-4V5z"/><path fill="white" d="M52,11h2c0-3.309-2.691-6-6-6v2C50.206,7,52,8.794,52,11z"/><path fill="white" d="M61.412,39.191c-0.068,0.05-4.533,3.227-12.565,5.513c-0.225-0.914-0.662-1.527-1.037-2.044   C47.339,42.014,47,41.547,47,40.495c0-1.051,0.339-1.518,0.809-2.164c0.53-0.73,1.191-1.64,1.191-3.341   c0-1.699-0.661-2.607-1.191-3.337C47.339,31.009,47,30.543,47,29.494c0-1.048,0.339-1.514,0.809-2.158   c0.415-0.57,0.905-1.255,1.101-2.336h3.371l-1.129-4.517C55.125,19.159,58,15.412,58,11c0-5.514-4.486-10-10-10   c-4.438,0-8.197,2.848-9.501,6.898C36.749,6.096,34.481,5,32,5s-4.749,1.096-6.499,2.898C24.197,3.848,20.438,1,16,1   C10.486,1,6,5.486,6,11c0,4.412,2.875,8.159,6.848,9.483L11.719,25h3.371c0.196,1.081,0.686,1.766,1.101,2.336   C16.661,27.98,17,28.446,17,29.494c0,1.049-0.339,1.515-0.809,2.159C15.661,32.383,15,33.291,15,34.99   c0,1.701,0.661,2.61,1.191,3.341C16.661,38.978,17,39.444,17,40.495c0,1.052-0.339,1.519-0.809,2.165   c-0.375,0.516-0.81,1.128-1.036,2.038C7.133,42.413,2.656,39.24,2.587,39.19l-1.176,1.618C1.534,40.898,2.418,41.526,4,42.396   v18.371l6-3.601l6,3.601V47.03c0.648,0.166,1.312,0.327,2,0.479v15.258l6-3.601l6,3.601V48.969C30.657,48.988,31.322,49,32,49   s1.343-0.012,2-0.031v13.798l6-3.601l6,3.601V47.509c0.688-0.152,1.352-0.312,2-0.479v13.737l6-3.601l6,3.601V42.396   c1.582-0.869,2.466-1.498,2.588-1.587L61.412,39.191z M46.191,32.831C46.661,33.476,47,33.941,47,34.99   c0,1.052-0.339,1.519-0.809,2.165C45.66,37.886,45,38.794,45,40.495s0.661,2.61,1.191,3.341c0.333,0.458,0.594,0.835,0.721,1.385   c-3.719,0.92-8.097,1.612-13.068,1.752c-0.247-0.782-0.743-1.287-1.137-1.682C32.217,44.8,32,44.56,32,43.996   c0-0.562,0.217-0.804,0.707-1.294C33.253,42.156,34,41.408,34,39.993c0-1.414-0.748-2.161-1.293-2.706   c-0.49-0.49-0.707-0.73-0.707-1.291s0.217-0.801,0.707-1.291c0.399-0.399,0.904-0.909,1.147-1.705h2.427l-1.152-4.61   c3.501-1.388,6.143-5.037,6.735-9.501c0.899,0.703,1.908,1.239,2.984,1.596L43.719,25h3.124c-0.142,0.429-0.367,0.767-0.652,1.158   C45.661,26.888,45,27.795,45,29.494S45.661,32.102,46.191,32.831z M30.804,28.906C31.197,28.962,31.595,29,32,29   s0.803-0.038,1.196-0.094L33.719,31h-3.438L30.804,28.906z M49.719,23h-3.438l0.519-2.075C47.195,20.972,47.595,21,48,21   c0.407,0,0.805-0.032,1.199-0.079L49.719,23z M48,3c4.411,0,8,3.589,8,8s-3.589,8-8,8c-2.331,0-4.508-1.011-6.032-2.769   c-0.124-2.336-0.804-4.488-1.888-6.273C40.595,5.972,43.944,3,48,3z M32,7c4.411,0,8,4.486,8,10s-3.589,10-8,10s-8-4.486-8-10   S27.589,7,32,7z M8,11c0-4.411,3.589-8,8-8c4.056,0,7.405,2.972,7.92,6.958c-1.084,1.785-1.764,3.937-1.888,6.273   C20.508,17.989,18.331,19,16,19C11.589,19,8,15.411,8,11z M14.801,20.921C15.195,20.968,15.593,21,16,21   c0.405,0,0.805-0.028,1.2-0.075L17.719,23h-3.438L14.801,20.921z M17.809,37.155C17.339,36.509,17,36.042,17,34.99   c0-1.049,0.339-1.515,0.809-2.159C18.339,32.102,19,31.193,19,29.494s-0.661-2.606-1.191-3.336   c-0.285-0.391-0.51-0.729-0.652-1.158h3.124l-1.129-4.515c1.076-0.357,2.085-0.894,2.984-1.596   c0.592,4.464,3.234,8.113,6.735,9.501L27.719,33h3.854c-0.082,0.09-0.172,0.183-0.28,0.291C30.748,33.836,30,34.583,30,35.996   s0.747,2.16,1.293,2.705c0.49,0.49,0.707,0.73,0.707,1.292c0,0.563-0.217,0.804-0.708,1.295C30.747,41.834,30,42.582,30,43.996   c0,1.415,0.747,2.163,1.292,2.709c0.107,0.108,0.196,0.2,0.278,0.289c-5.552-0.037-10.411-0.77-14.481-1.778   c0.128-0.547,0.388-0.923,0.72-1.38c0.53-0.73,1.191-1.64,1.191-3.341S18.34,37.886,17.809,37.155z M14,57.233l-4-2.399l-4,2.399   V43.424c2.031,0.98,4.709,2.088,8,3.058V57.233z M28,59.233l-4-2.399l-4,2.399V47.912c2.446,0.455,5.116,0.798,8,0.967V59.233z    M44,59.233l-4-2.399l-4,2.399V48.879c2.884-0.169,5.554-0.512,8-0.967V59.233z M58,57.233l-4-2.399l-4,2.399V46.482   c3.291-0.97,5.969-2.078,8-3.058V57.233z"/><rect x="3" y="22" width="2" height="2"/><rect x="1" y="24" width="2" height="2"/><rect x="3" y="26" width="2" height="2"/><rect x="5" y="24" width="2" height="2"/><rect x="23" y="36" width="2" height="2"/><rect x="21" y="38" width="2" height="2"/><rect x="23" y="40" width="2" height="2"/><rect x="25" y="38" width="2" height="2"/><rect x="59" y="17" width="2" height="2"/><rect x="57" y="19" width="2" height="2"/><rect x="59" y="21" width="2" height="2"/><rect x="61" y="19" width="2" height="2"/><rect x="54" y="33" width="2" height="2"/><rect x="52" y="35" width="2" height="2"/><rect x="54" y="37" width="2" height="2"/><rect x="56" y="35" width="2" height="2"/></g>

<!--

balloons by Eucalyp from the Noun Project
https://thenounproject.com/term/balloons/2643066/

<text x="0" y="79" fill="#000000" font-size="5px" font-weight="bold" font-family="'Helvetica Neue', Helvetica, Arial-Unicode, Arial, Sans-serif">Created by Eucalyp</text><text x="0" y="84" fill="#000000" font-size="5px" font-weight="bold" font-family="'Helvetica Neue', Helvetica, Arial-Unicode, Arial, Sans-serif">from the Noun Project</text>

-->

</svg>