<svg xmlns="http://www.w3.org/2000/svg" xmlns:xlink="http://www.w3.org/1999/xlink" version="1.1" x="0px" y="0px" viewBox="0 0 512 640" enable-background="new 0 0 512 512" xml:space="preserve"><g><path fill="white" d="M490.672,58.66h-64V37.332c0-5.891-4.781-10.672-10.672-10.672s-10.656,4.781-10.656,10.672V58.66H320V37.332   c0-5.891-4.766-10.672-10.656-10.672s-10.672,4.781-10.672,10.672V58.66h-85.328V37.332c0-5.891-4.781-10.672-10.672-10.672   S192,31.441,192,37.332V58.66h-85.328V37.332c0-5.891-4.781-10.672-10.672-10.672s-10.656,4.781-10.656,10.672V58.66h-64   C9.609,58.66,0,68.262,0,79.996v384c0,11.734,9.609,21.344,21.344,21.344h469.328c11.734,0,21.328-9.609,21.328-21.344v-384   C512,68.262,502.406,58.66,490.672,58.66z M21.375,79.996h63.969v21.336c0,5.891,4.766,10.664,10.656,10.664   s10.672-4.773,10.672-10.664V79.996H192v21.336c0,5.891,4.781,10.664,10.672,10.664s10.672-4.773,10.672-10.664V79.996h85.328   v21.336c0,5.891,4.781,10.664,10.672,10.664S320,107.223,320,101.332V79.996h85.344v21.336c0,5.891,4.766,10.664,10.656,10.664   s10.672-4.773,10.672-10.664V79.996h63.969c0,0.008,0.016,0.023,0.031,0.039v42.625H21.344V80.035   C21.344,80.02,21.359,80.004,21.375,79.996z M490.641,463.996H21.375c-0.016,0-0.031-0.031-0.031-0.031V143.996h469.328v319.969   C490.656,463.965,490.641,463.996,490.641,463.996z"/><path fill="white" d="M309.344,186.66c-20.906,0-39.781,8.586-53.344,22.422c-13.547-13.836-32.438-22.422-53.328-22.422   c-41.234,0-74.672,33.43-74.672,74.672c0,85.32,128,160.008,128,160.008s128-74.688,128-160.008   C384,220.09,350.578,186.66,309.344,186.66z M306.141,357.09c-19.125,17.625-38.531,31.344-50.141,39   c-11.609-7.656-31-21.375-50.125-39c-25.797-23.734-56.531-59.625-56.531-95.758c0-29.414,23.922-53.336,53.328-53.336   c14.453,0,27.969,5.688,38.094,16.016L256,239.566l15.25-15.555c10.109-10.328,23.641-16.016,38.094-16.016   c29.406,0,53.328,23.922,53.328,53.336C362.672,297.465,331.922,333.355,306.141,357.09z"/></g>


<!--

Calendar by lastspark from the Noun Project

https://thenounproject.com/term/calendar/320956/

<text x="0" y="527" fill="#000000" font-size="5px" font-weight="bold" font-family="'Helvetica Neue', Helvetica, Arial-Unicode, Arial, Sans-serif">Created by lastspark</text><text x="0" y="532" fill="#000000" font-size="5px" font-weight="bold" font-family="'Helvetica Neue', Helvetica, Arial-Unicode, Arial, Sans-serif">from the Noun Project</text>

-->

</svg>