<svg xmlns="http://www.w3.org/2000/svg" xmlns:xlink="http://www.w3.org/1999/xlink" version="1.1" x="0px" y="0px" viewBox="0 0 512 640" style="enable-background:new 0 0 512 512;" xml:space="preserve"><g><g><g><g><path fill="white" d="M288.424,146.58L288.424,146.58c-2.467,0-4.832-0.984-6.571-2.733c-3.226-3.245-6.489-6.181-9.646-9.02      c-10.717-9.641-20.84-18.748-20.84-33.423c0-12.816,10.39-23.243,23.163-23.243c6.011,0,10.476,1.845,13.895,4.556      c3.42-2.711,7.885-4.556,13.896-4.556c12.78,0,23.178,10.427,23.178,23.243c0,14.672-10.124,23.775-20.843,33.413      c-3.161,2.842-6.43,5.781-9.66,9.03C293.256,145.596,290.891,146.58,288.424,146.58z M274.529,96.694      c-2.553,0-4.63,2.113-4.63,4.71c0,6.121,5.313,11.198,14.702,19.645c1.221,1.098,2.503,2.252,3.823,3.46      c1.325-1.213,2.614-2.371,3.839-3.473c9.39-8.442,14.701-13.517,14.701-19.632c0-2.597-2.084-4.71-4.645-4.71      c-1.96,0-2.943,0-5.599,5.34c-1.565,3.149-4.78,5.141-8.298,5.141c-3.517,0-6.731-1.992-8.297-5.141      C277.472,96.694,276.488,96.694,274.529,96.694z"/></g></g><g><g><path fill="white" d="M158.694,146.58c-2.467,0-4.832-0.984-6.571-2.733c-3.226-3.244-6.489-6.18-9.645-9.019      c-10.718-9.642-20.842-18.748-20.842-33.424c0-12.816,10.39-23.243,23.161-23.243c6.011,0,10.477,1.845,13.896,4.556      c3.42-2.711,7.885-4.556,13.896-4.556c12.78,0,23.178,10.427,23.178,23.243c0,14.672-10.125,23.775-20.843,33.413      c-3.161,2.842-6.43,5.781-9.66,9.03C163.526,145.596,161.161,146.58,158.694,146.58z M144.798,96.694      c-2.552,0-4.628,2.113-4.628,4.71c0,6.122,5.313,11.199,14.704,19.646c1.22,1.098,2.502,2.251,3.821,3.459      c1.326-1.213,2.614-2.372,3.839-3.474c9.39-8.442,14.702-13.517,14.702-19.632c0-2.597-2.083-4.71-4.645-4.71      c-1.959,0-2.943,0-5.598,5.34c-1.566,3.149-4.78,5.141-8.298,5.141c-3.517,0-6.731-1.992-8.297-5.141      C147.742,96.694,146.758,96.694,144.798,96.694z"/></g></g><g><path fill="white" d="M103.104,297.699H56.772c-5.118,0-9.266-4.149-9.266-9.267v-64.865c0-5.118,4.148-9.266,9.266-9.266h46.333     c5.118,0,9.266,4.148,9.266,9.266v64.865C112.371,293.55,108.222,297.699,103.104,297.699z M66.039,279.166h27.799v-46.332     H66.039V279.166z"/></g><g><path fill="white" d="M455.227,325.498c-1.303,0-2.61-0.274-3.833-0.831l-101.931-46.332c-3.309-1.504-5.432-4.801-5.432-8.436v-92.664     c0-3.634,2.123-6.932,5.432-8.436l101.931-46.332c2.869-1.304,6.203-1.06,8.852,0.645c2.648,1.706,4.249,4.641,4.249,7.791     v185.328c0,3.151-1.601,6.086-4.249,7.792C458.726,325.001,456.979,325.498,455.227,325.498z M362.563,263.933l83.397,37.908     V145.294l-83.397,37.908V263.933z"/></g><g><path fill="white" d="M316.231,288.433H140.17c-5.118,0-9.267-4.149-9.267-9.267v-46.332c0-5.118,4.149-9.267,9.267-9.267h176.062     c5.117,0,9.267,4.149,9.267,9.267v46.332C325.498,284.283,321.349,288.433,316.231,288.433z M149.437,269.899h157.528v-27.799     H149.437V269.899z"/></g><g><path fill="white" d="M316.231,362.563H140.17c-5.118,0-9.267-4.148-9.267-9.267v-37.065c0-5.117,4.149-9.267,9.267-9.267h176.062     c5.117,0,9.267,4.149,9.267,9.267v37.065C325.498,358.415,321.349,362.563,316.231,362.563z M149.437,344.031h157.528v-18.533     H149.437V344.031z"/></g><g><path fill="white" d="M140.163,473.763c-1.393,0-2.807-0.315-4.137-0.98c-4.578-2.288-6.433-7.854-4.144-12.432l55.598-111.197     c2.289-4.578,7.854-6.434,12.433-4.145c4.578,2.289,6.433,7.855,4.144,12.433l-55.599,111.196     C146.834,471.886,143.562,473.763,140.163,473.763z"/></g><g><path fill="white" d="M325.505,473.763c-3.399,0-6.672-1.877-8.295-5.125l-55.599-111.196c-2.288-4.577-0.434-10.144,4.145-12.433     c4.574-2.288,10.144-0.434,12.432,4.145l55.599,111.197c2.289,4.577,0.434,10.144-4.145,12.432     C328.313,473.447,326.898,473.763,325.505,473.763z"/></g><g><path fill="white" d="M232.834,473.761c-5.118,0-9.267-4.149-9.267-9.267V353.297c0-5.117,4.149-9.266,9.267-9.266s9.267,4.148,9.267,9.266     v111.197C242.101,469.611,237.952,473.761,232.834,473.761z"/></g><g><path fill="white" d="M226.269,140.17h-5.402c-2.925,0-5.679-1.382-7.428-3.727c-1.749-2.346-2.288-5.379-1.453-8.183     c1.537-5.164,2.316-10.51,2.316-15.89c0-5.118,4.148-9.266,9.266-9.266c5.118,0,9.267,4.148,9.267,9.266     c0,5.38,0.779,10.726,2.316,15.89c0.835,2.804,0.296,5.837-1.453,8.183C231.948,138.788,229.194,140.17,226.269,140.17z"/></g><g><path fill="white" d="M353.297,325.498H103.104c-5.118,0-9.267-4.149-9.267-9.267V145.789c0-4.162,2.775-7.813,6.785-8.928     c4.01-1.113,8.271,0.582,10.419,4.147c10.169,16.883,27.987,26.962,47.661,26.962c24.411,0,46.322-16.33,53.282-39.71     c1.17-3.929,4.782-6.622,8.881-6.622h5.402c4.1,0,7.711,2.693,8.881,6.622c6.961,23.38,28.872,39.71,53.283,39.71     s46.321-16.33,53.282-39.71c1.17-3.929,4.782-6.622,8.881-6.622h2.701c5.118,0,9.267,4.148,9.267,9.266v185.328     C362.563,321.349,358.415,325.498,353.297,325.498z M112.371,306.965h231.661V161.363c-3.277,3.728-6.927,7.134-10.895,10.14     c-12.955,9.813-28.414,15-44.704,15c-16.291,0-31.749-5.187-44.704-15c-8.266-6.261-15.151-14.262-20.161-23.288     c-5.009,9.026-11.895,17.027-20.161,23.288c-12.955,9.813-28.414,15-44.704,15c-17.248,0-33.422-5.807-46.332-16.181V306.965z"/></g><g><path fill="white" d="M158.703,186.502c-26.231,0-49.983-13.433-63.536-35.932c-6.932-11.507-10.595-24.716-10.595-38.199     c0-40.876,33.255-74.131,74.131-74.131c40.876,0,74.131,33.255,74.131,74.131c0,7.171-1.039,14.296-3.086,21.176     c-4.463,14.991-13.817,28.47-26.341,37.956C190.452,181.315,174.993,186.502,158.703,186.502z M158.703,56.772     c-30.657,0-55.598,24.942-55.598,55.599c0,10.113,2.744,20.016,7.938,28.637c10.169,16.883,27.987,26.962,47.661,26.962     c24.411,0,46.322-16.33,53.282-39.71c1.537-5.163,2.316-10.509,2.316-15.889C214.301,81.714,189.36,56.772,158.703,56.772z"/></g><g><path fill="white" d="M288.433,186.502c-16.291,0-31.749-5.187-44.704-15c-12.523-9.485-21.878-22.965-26.341-37.955     c-2.048-6.881-3.086-14.006-3.086-21.177c0-40.876,33.255-74.131,74.131-74.131c40.876,0,74.131,33.255,74.131,74.131     c0,7.171-1.038,14.296-3.087,21.176c-4.462,14.991-13.816,28.47-26.34,37.956C320.182,181.315,304.723,186.502,288.433,186.502z      M288.433,56.772c-30.657,0-55.599,24.942-55.599,55.599c0,5.38,0.779,10.726,2.316,15.89     c6.961,23.379,28.872,39.709,53.283,39.709s46.322-16.33,53.282-39.71c1.537-5.163,2.316-10.509,2.316-15.889     C344.031,81.714,319.09,56.772,288.433,56.772z"/></g><rect x="149.437" y="195.769" width="18.533" height="18.533"/><rect x="177.235" y="195.769" width="18.533" height="18.533"/><rect x="205.035" y="195.769" width="18.533" height="18.533"/><rect x="232.834" y="195.769" width="18.533" height="18.533"/><rect x="260.633" y="195.769" width="18.533" height="18.533"/><rect x="288.433" y="195.769" width="18.532" height="18.533"/><g><path fill="white" d="M408.896,473.761H75.305c-5.118,0-9.267-4.149-9.267-9.267s4.148-9.267,9.267-9.267h333.59     c5.117,0,9.267,4.149,9.267,9.267S414.013,473.761,408.896,473.761z"/></g><g><g><path fill="white" d="M390.021,445.961c-8.702,0-16.891-3.394-23.056-9.559c-15.346-15.346-14.265-35.688-13.015-59.246      c0.381-7.159,0.774-14.563,0.752-22.371c-0.008-2.467,0.97-4.834,2.713-6.579c1.739-1.737,4.096-2.714,6.553-2.714      c0.01,0,0.019,0,0.026,0l0.637,0.001c7.566,0,14.754-0.38,21.703-0.747c6.327-0.335,12.304-0.651,18.043-0.651      c13.617,0,29.161,1.626,41.216,13.679c12.694,12.695,12.737,33.309,0.095,45.952c-6.375,6.375-13.48,9.473-21.722,9.473      c-0.517,0-1.038-0.013-1.568-0.037c0.38,7.801-1.828,15.683-9.462,23.316C406.82,442.594,398.683,445.961,390.021,445.961z       M373.103,363.893c-0.148,4.912-0.399,9.629-0.645,14.247c-1.209,22.771-1.451,36.095,7.612,45.158      c2.664,2.664,6.198,4.131,9.95,4.131c3.712,0,7.195-1.44,9.811-4.056c4.354-4.354,5.566-7.989,1.792-19.227      c-1.12-3.334-0.256-7.015,2.231-9.502c2.487-2.488,6.169-3.353,9.503-2.232c4.577,1.538,7.948,2.254,10.609,2.254      c2.744,0,5.26-0.688,8.616-4.045c5.417-5.417,5.375-14.273-0.094-19.742c-5.938-5.938-13.819-8.251-28.111-8.251      c-5.25,0-10.989,0.303-17.064,0.624C382.71,363.496,378.005,363.744,373.103,363.893z"/></g></g></g></g>


<!--

movie camera by Flatart from the Noun Project
https://thenounproject.com/term/movie-camera/2299082/

<text x="0" y="527" fill="#000000" font-size="5px" font-weight="bold" font-family="'Helvetica Neue', Helvetica, Arial-Unicode, Arial, Sans-serif">Created by Flatart</text><text x="0" y="532" fill="#000000" font-size="5px" font-weight="bold" font-family="'Helvetica Neue', Helvetica, Arial-Unicode, Arial, Sans-serif">from the Noun Project</text>


-->

</svg>