<?xml version="1.0" encoding="utf-8"?>
<!-- Generator: Adobe Illustrator 23.0.4, SVG Export Plug-In . SVG Version: 6.00 Build 0)  -->
<svg version="1.1" id="Layer_1" xmlns="http://www.w3.org/2000/svg" xmlns:xlink="http://www.w3.org/1999/xlink" x="0px" y="0px"
	 viewBox="0 0 78 115.0899963" style="enable-background:new 0 0 78 115.0899963;" xml:space="preserve">
<style type="text/css">
	.st0{fill:white;}
</style>
<title>025 girl avatar profile woman chef hat</title>
<desc>Created with Sketch.</desc>
<g>
	<g transform="translate(-1024.000000, -448.000000)">
		<g transform="translate(64.000000, 64.000000)">
			<path class="st0" d="M999,498.087677"/>
			<g transform="translate(985.000000, 396.000000)">
				<path class="st0" d="M6.9999995,61.6826744c-0.3454571,0.1902008-0.7021446,0.3690796-1.068224,0.534462
					c-3.9097612,1.766304-8.5405369,1.9691734-13.4578075,0.1830063c-0.8463264-0.3074188-0.8870311-1.4891815-0.0638618-1.8541031
					c1.5130634-0.6707687,2.5291004-1.7029953,3.0640545-3.1450195c-2.4808941,1.8975754-5.5895896,2.739296-9.2791309,2.5196838
					c-0.8695402-0.0517502-1.261776-1.1132507-0.6348133-1.7179794c1.2946205-1.2487183,2.2575054-2.6166,2.8939428-4.1104202
					c-3.1171551,2.2602463-6.9687824,3.2588501-11.5124226,2.9936752c-0.9340897-0.054512-1.288372-1.2474442-0.5354538-1.8029709
					C-17.1635838,50.5386124-14.0309896,46.9341316-13,43.2107353v0.8769455h1.830801
					c-1.0915785,3.5438271-3.8285131,6.9550896-8.8498783,10.9739075c3.9226856-0.3280563,7.0912199-1.8735809,9.55439-4.6390228
					c0.652709-0.732811,1.8604393-0.185009,1.7390594,0.7888031c-0.3085194,2.4752121-1.2347794,4.7125931-2.7678156,6.6981354
					c3.2058725-0.2538757,5.730618-1.5701447,7.6349745-3.9558792c0.5900497-0.7392044,1.7815456-0.3219757,1.7815456,0.623848
					c0,2.8452072-0.9111252,5.0617142-2.7070067,6.5695572c3.6331828,0.8896408,6.9944706,0.5566101,9.8922997-0.7525253
					c0.6766644-0.3056946,1.3126907-0.6634216,1.8916302-1.0502548V61.6826744z M21,61.6826744v-2.3384247
					c0.5789375,0.3868332,1.2149658,0.7445602,1.8916321,1.0502548c2.8978271,1.3091354,6.2591133,1.6421661,9.8922997,0.7525253
					c-1.7958832-1.507843-2.7070084-3.72435-2.7070084-6.5695572c0-0.9458237,1.1914978-1.3630524,1.7815437-0.623848
					c1.9043579,2.3857346,4.4291039,3.7020035,7.6349792,3.9558792c-1.5330391-1.9855423-2.459301-4.2229233-2.7678185-6.6981354
					c-0.1213799-0.9738121,1.0863495-1.5216141,1.7390594-0.7888031c2.4631691,2.7654419,5.6317024,4.3109665,9.5543861,4.6390228
					c-5.0213623-4.0188179-7.7582932-7.4300804-8.8498764-10.9739075h2.1136475
					c1.2612991,3.4204903,4.3864746,6.8240776,10.3108749,11.1953278c0.7529144,0.5555267,0.3986359,1.7484589-0.5354538,1.8029709
					c-4.5436401,0.2651749-8.3952713-0.733429-11.5124283-2.9936752c0.6364441,1.4938202,1.5993271,2.861702,2.8939438,4.1104202
					c0.6269684,0.6047287,0.234726,1.6662292-0.6348114,1.7179794c-3.6895409,0.2196121-6.7982368-0.6221085-9.279129-2.5196838
					c0.5349503,1.4420242,1.5509911,2.4742508,3.0640526,3.1450195c0.8231697,0.3649216,0.7824669,1.5466843-0.0638618,1.8541031
					c-4.9172707,1.7861671-9.5480461,1.5832977-13.4578056-0.1830063C21.7021446,62.051754,21.3454552,61.8728752,21,61.6826744z"/>
				<path class="st0" d="M44.3299332,95.0876846l-0.8300018-9.9600983c-0.2751389-3.3016663-2.3420258-6.1851959-5.3803787-7.506218
					l-14.5118408-6.309494c-2.1906586-0.9524612-3.6076431-3.1136627-3.6076431-5.5024261v-5.7217674h2v5.7217674
					c0,1.5925064,0.9446564,3.0333099,2.4050941,3.6682816l14.5118408,6.309494
					c3.7135506,1.6145859,6.2397346,5.1389008,6.5760155,9.1742706l0.8438492,10.1261902H44.3299332z M-18.336731,95.0876846
					l0.8438492-10.1261902c0.3362808-4.0353699,2.8624678-7.5596848,6.5760164-9.1742706l14.511838-6.309494
					c1.4604414-0.6349716,2.4050958-2.0757751,2.4050958-3.6682816v-5.7217674h2.0000005v5.7217674
					c0,2.3887634-1.4169831,4.5499649-3.6076436,5.5024261l-14.5118389,6.309494
					c-3.0383577,1.321022-5.105237,4.2045517-5.3803768,7.506218l-0.8300076,9.9600983H-18.336731z"/>
				<circle class="st0" cx="3.9999998" cy="81.0876846" r="2"/>
				<circle class="st0" cx="24" cy="81.0876846" r="2"/>
				<circle class="st0" cx="3.9999998" cy="89.0876846" r="2"/>
				<circle class="st0" cx="24" cy="89.0876846" r="2"/>
				<circle class="st0" cx="3.9999998" cy="98.0876846" r="2"/>
				<circle class="st0" cx="24" cy="98.0876846" r="2"/>
				<g transform="translate(28.000000, 77.000000)">
					<path class="st0" d="M-24.3807755-5.814064l1.0394783-1.7086511C-20.5488281-5.8238854-17.3425941-4.9123182-14-4.9123182
						s6.5488276-0.9115672,9.3412971-2.6103969l1.0394766,1.7086511C-6.7227578-3.9259968-10.2881432-2.9123182-14-2.9123182
						S-21.2772427-3.9259968-24.3807755-5.814064z"/>
					<path class="st0" d="M-7.340199-11.8526459l0.680397,1.8807077c-3.4114165,1.2341709-5.5172162,3.0360699-6.4038644,5.4005485
						c-0.3342056,0.8912463-1.6068869,0.8556895-1.89081-0.0528264c-0.7329912-2.3454738-2.6669874-4.1276627-5.8999338-5.3529863
						l0.7088203-1.8701801c2.8838234,1.0930023,4.9661093,2.6450577,6.2029133,4.6532879
						C-12.5764914-9.2071915-10.3624763-10.7592564-7.340199-11.8526459z"/>
				</g>
				<path class="st0" d="M-9.5564756,31.0876827C-9.8475389,32.7060661-10,34.3778038-10,36.0876808
					c0,14.3416443,10.725687,26,24,26s24-11.6583557,24-26c0-1.709877-0.152462-3.3816147-0.4435234-4.9999981h-2.0344238
					C35.8352127,32.7000809,36,34.3726311,36,36.0876808c0,13.2725945-9.8692131,24-22,24s-22-10.7274055-22-24
					c0-1.7150497,0.1647868-3.3875999,0.4779468-4.9999981H-9.5564756z"/>
				<path class="st0" d="M37.4302444,34.4566803c-0.4643936,0.2989235-1.0831871,0.1647835-1.3821106-0.2996101
					c-0.2989273-0.4643936-0.1647873-1.0831871,0.2996063-1.3821106c0.6894989-0.4438248,1.4245415-0.6872787,2.1522598-0.6872787
					c2.846611,0,4.5,2.4522171,4.5,6.5c0,4.2391281-3.3716431,9.5-6.5,9.5c-0.9608917,0-1.7527313-0.4115982-2.3127823-1.1606674
					c-0.3307076-0.4423218-0.2402267-1.0689888,0.202095-1.3996964c0.4423256-0.3307114,1.0689926-0.2402306,1.3997002,0.202095
					c0.1889,0.252655,0.3920822,0.3582687,0.7109871,0.3582687c1.7897797,0,4.5-4.2288361,4.5-7.5
					c0-3.0717201-0.9630051-4.5-2.5-4.5C38.182148,34.0876808,37.8141403,34.209568,37.4302444,34.4566803z M-7.7890134,45.7294121
					c0.3307095-0.4423256,0.9573746-0.5328064,1.3996983-0.202095c0.4423237,0.3307076,0.5328064,0.9573746,0.2020969,1.3996964
					C-6.7472672,47.6760826-7.5391088,48.0876808-8.5,48.0876808c-3.128356,0-6.5-5.2608719-6.5-9.5
					c0-4.0477829,1.653388-6.5,4.5-6.5c0.7277193,0,1.462759,0.243454,2.1522598,0.6872787
					c0.4643931,0.2989235,0.5985332,0.917717,0.2996082,1.3821106c-0.2989254,0.4643936-0.9177189,0.5985336-1.3821125,0.2996101
					C-9.8141413,34.209568-10.1821489,34.0876808-10.5,34.0876808c-1.536993,0-2.5,1.4282799-2.5,4.5
					c0,3.2711639,2.7102222,7.5,4.5,7.5C-8.181097,46.0876808-7.9779134,45.9820671-7.7890134,45.7294121z"/>
				<path class="st0" d="M38,26.8642941V23.434618c0.8380585-1.5951271,1.9346008-3.1360359,3.4609222-5.0037918
					c0.3108063-0.3803253,1.4181137-1.7131042,1.3459702-1.6258698c0.5194397-0.6281567,0.8942184-1.0939322,1.2399902-1.5465994
					c2.2108154-2.8942833,2.9375305-5.0331192,2.278862-7.7392998c-0.2880554-1.1835003-0.91465-1.9136887-2.3514786-2.9031315
					c-0.1932602-0.1330833-1.6389999-1.0840731-2.1053009-1.4118872c-0.9156113-0.6436958-1.6923523-1.2762585-2.4387741-2.0172348
					c-0.4615402-0.4581709-0.9002228-0.9484196-1.3194923-1.4794302c-0.2646675-0.3351994-1.2746773-1.7039385-1.3598061-1.8167381
					c-0.6066475-0.8038406-1.1401787-1.4538651-1.7232056-2.0772386c-2.4408798-2.6097956-5.3355675-4.2388663-9.2803345-4.7334847
					c-1.9340134-0.2424974-4.1345177,0.0896473-6.6123047,0.9412951c-2.3629227,0.8121662-4.8372459,2.0307841-7.8591499,3.7804818
					c-1.0851402,0.6283016-4.5814443,2.7370253-5.1898713,3.0910082c-1.8270092,1.062952-3.0155809,1.6428833-3.9708803,1.8715992
					C-1.6019385,1.6542301-3.4582369,1.9021339-9.5238447,2.5119591c-5.7668304,0.5797863-7.8382769,1.2477407-9.6306849,3.542161
					c-3.5279026,4.5159836-3.5454502,8.7789288-0.810215,12.5597963c2.22015,3.0688705,6.2233658,5.5533371,9.5655956,6.2503777H-10
					v2h-0.5l-0.195344-0.019268c-3.8437452-0.7655983-8.3451376-3.5413628-10.8898211-7.0588303
					c-3.2506065-4.4932547-3.2290249-9.7360315,0.8545513-14.9633188c2.2415333-2.8693333,4.7213421-3.6689682,11.0067015-4.3008862
					C-3.7492964-0.0786867-1.9498351-0.3189993,1.649471-1.1807356c0.7019138-0.1680498,1.77174-0.6900434,3.4307935-1.6552782
					c0.5895901-0.3430223,4.088284-2.4531884,5.1934857-3.0931063c3.1241417-1.8088956,5.7028084-3.0789003,8.2112007-3.9410677
					c2.7438087-0.9430828,5.2374001-1.3194666,7.5112267-1.0343609c4.4401588,0.5567331,7.7492523,2.4190245,10.4922028,5.3517928
					c0.637516,0.6816359,1.2132988,1.3831329,1.8589172,2.2386107c0.1026192,0.1359787,1.0923843,1.4772797,1.3330917,1.782135
					c0.368866,0.4671707,0.7538376,0.8974009,1.1588211,1.2994299c0.6589584,0.6541481,1.3505173,1.2173386,2.1799927,1.8004799
					c0.4347992,0.3056698,1.869545,1.2494259,2.0893784,1.4008112c1.803299,1.2418041,2.7343445,2.3267803,3.1604309,4.077364
					c0.8269119,3.3973923-0.0909195,6.0986748-2.6327591,9.4263296c-0.3643723,0.4770184-0.7536163,0.9607716-1.288063,1.6070786
					c0.0673904-0.0814972-1.0338669,1.2439976-1.3386078,1.6169071c-2.0452423,2.5027504-3.2427216,4.3382492-4.075058,6.5238037
					C38.7868347,26.6079998,38.414978,26.8642941,38,26.8642941z"/>
				<path class="st0" d="M24.3729324,18.3843002l-7.1356506-0.8919582c-2.3369179-1.4358006-4.3589668-3.3826895-6.0590897-5.834897
					c-0.3146744-0.4538727-0.201828-1.0769005,0.2520447-1.391571c0.4538727-0.3146725,1.0769005-0.201828,1.391571,0.2520447
					c2.7533607,3.9713573,6.3884239,6.4466753,10.9453812,7.4588385
					C24.0234032,18.0336666,24.2346382,18.1841583,24.3729324,18.3843002z M31.8116417,19.3141384
					c2.350502-1.4465313,4.316227-3.4513311,5.9065895-6.0229578c0.2904892-0.4697189,0.9067574-0.6150169,1.3764725-0.3245296
					c0.4697189,0.2904854,0.6150208,0.9067554,0.3245316,1.3764744c-1.3122444,2.121911-2.8677216,3.9028215-4.662487,5.3391504
					L31.8116417,19.3141384z M13.0755196,17.2032433l-7.4945073,0.9368134
					c-2.4165113-0.8025818-4.6845131-2.1002178-6.7973709-3.8899164c-0.4214211-0.3569641-0.4736729-0.9879684-0.1167088-1.4093895
					c0.3569641-0.4214191,0.9879684-0.4736729,1.4093895-0.1167088c3.6874027,3.1234169,7.8392658,4.5735655,12.5029163,4.3718138
					C12.7575836,17.0881405,12.9270363,17.1276283,13.0755196,17.2032433z M-9.5818949,20.0354195
					c-1.8468018-0.7636433-3.6076641-1.829483-5.279418-3.1961555c-0.4275856-0.3495541-0.4908428-0.9795523-0.1412878-1.4071379
					c0.349555-0.4275875,0.9795523-0.4908428,1.4071388-0.1412888c2.859354,2.3375463,5.9728951,3.6931696,9.3619137,4.0760393
					L-9.5818949,20.0354195z"/>
				<path class="st0" d="M37,22.4577007c0-0.934967-0.6477661-1.7451744-1.5598106-1.9509544
					C28.2918816,18.8938847,21.1455803,18.0876827,14,18.0876827S-0.29188,18.8938847-7.4401917,20.5067463
					c-0.9120421,0.20578-1.5598111,1.0159874-1.5598111,1.9509583v7.3571663
					C-1.335192,27.9969387,6.3319621,27.0876827,14,27.0876827s15.3351898,0.909256,23,2.7271881V22.4577007z M-7.8803811,18.555788
					C-0.5885013,16.9105358,6.7053885,16.0876827,14,16.0876827s14.588501,0.8228531,21.8803825,2.4681053
					C37.704464,18.9673519,39,20.5877628,39,22.4577007v8.629982c0,0.6505699-0.6113892,1.1279278-1.2425346,0.9701405
					C29.8361855,30.0775051,21.9176025,29.0876827,14,29.0876827s-15.8361874,0.9898224-23.7574654,2.9701405
					C-10.3886108,32.2156105-11,31.7382526-11,31.0876827l-0.0000029-8.6299782
					C-11.0000029,20.5877666-9.7044668,18.9673519-7.8803811,18.555788z"/>
			</g>
		</g>
		<g transform="translate(113.000000, 126.000000)">
			<g transform="translate(960.000000, 384.000000)">
				<path class="st0" d="M-15.4453001,1.2557383c-0.459528-0.3063526-1.0803976-0.1821785-1.3867502,0.2773495
					c-0.3063526,0.4595299-0.1821785,1.0803986,0.2773495,1.3867512C-14.3976564,4.3578682-12.2078953,5.0877886-10,5.0877886
					s4.397655-0.7299204,6.5547009-2.1679497c0.459528-0.3063526,0.5837021-0.9272213,0.2773495-1.3867512
					c-0.3063526-0.459528-0.9272215-0.5837021-1.3867514-0.2773495C-6.397656,2.484376-8.2078953,3.0877886-10,3.0877886
					S-13.6023436,2.484376-15.4453001,1.2557383z"/>
				<path class="st0" d="M-17-7.9123182c0,0.5522847-0.4477158,1-1,1s-1-0.4477153-1-1c0-1.1045694-0.8954315-2-2-2
					c-1.1045704,0-2,0.8954306-2,2c0,0.5522847-0.4477158,1-1,1s-1-0.4477153-1-1c0-2.2091389,1.7908611-4,4-4
					S-17-10.1214571-17-7.9123182z"/>
				<path class="st0" d="M4.9999995-7.9123182c0,0.5522847-0.4477158,1-0.9999998,1s-1-0.4477153-1-1c0-1.1045694-0.8954296-2-2-2
					s-2,0.8954306-2,2c0,0.5522847-0.4477158,1-1,1s-1-0.4477153-1-1c0-2.2091389,1.7908611-4,4-4
					S4.9999995-10.1214571,4.9999995-7.9123182z"/>
			</g>
		</g>
	</g>
</g>
</svg>
