<svg xmlns="http://www.w3.org/2000/svg" viewBox="0 0 64 80" x="0px" y="0px"><g><path d="M60.253,12.278l-.007,0-.016-.008c-.014-.007-.029-.007-.044-.013A2.87,2.87,0,0,0,59,12H54V8a2,2,0,0,0-2-2H48a2,2,0,0,0-2,2v4H18V8a2,2,0,0,0-2-2H12a2,2,0,0,0-2,2v4H5a3,3,0,0,0-3,3V31a3,3,0,0,0,3,3h5V54H8a2,2,0,0,0-2,2v4a2,2,0,0,0,2,2H20a2,2,0,0,0,2-2V56a2,2,0,0,0-2-2H18V34H46V54H44a2,2,0,0,0-2,2v4a2,2,0,0,0,2,2H56a2,2,0,0,0,2-2V56a2,2,0,0,0-2-2H54V34h5a3,3,0,0,0,3-3V15A3,3,0,0,0,60.253,12.278ZM31.414,32l18-18h8.172l-18,18ZM48,8l4,0v4H48ZM16.586,32H9.414l18-18h7.172ZM12,8l4,0v4H12ZM5,14h7.586L4,22.586V15A1,1,0,0,1,5,14ZM5,32a1,1,0,0,1-1-1V25.414L15.414,14h9.172l-18,18ZM20,60H8V56H20Zm-8-6V34h4V54Zm7.414-22,18-18h9.172l-18,18ZM59.876,14.538a1.009,1.009,0,0,1,.053.116.8.8,0,0,1,.032.081A.976.976,0,0,1,60,15v8.586L51.586,32H42.414ZM56,60H44V56H56Zm-4-6H48V34h4Zm7-22H54.414L60,26.414V31A1,1,0,0,1,59,32Z"/></g>

<!--

constructions by Komkrit Noenpoempisut from the Noun Project
https://thenounproject.com/search/?q=construction&i=2221143

<text x="0" y="79" fill="#000000" font-size="5px" font-weight="bold" font-family="'Helvetica Neue', Helvetica, Arial-Unicode, Arial, Sans-serif">Created by Komkrit Noenpoempisut</text><text x="0" y="84" fill="#000000" font-size="5px" font-weight="bold" font-family="'Helvetica Neue', Helvetica, Arial-Unicode, Arial, Sans-serif">from the Noun Project</text>

-->

</svg>

