<svg xmlns="http://www.w3.org/2000/svg" xmlns:xlink="http://www.w3.org/1999/xlink" version="1.1" x="0px" y="0px" viewBox="0 0 100 125" style="enable-background:new 0 0 100 100;" xml:space="preserve"><path fill="white" d="M68.601,70.61c-2.441,0-4.427,1.986-4.427,4.427s1.986,4.427,4.427,4.427s4.427-1.986,4.427-4.427  S71.042,70.61,68.601,70.61z M68.601,77.464c-1.338,0-2.427-1.089-2.427-2.427s1.089-2.427,2.427-2.427s2.427,1.089,2.427,2.427  S69.939,77.464,68.601,77.464z"/><path fill="white" d="M35.534,75.037c0-2.441-1.986-4.427-4.427-4.427s-4.427,1.986-4.427,4.427s1.986,4.427,4.427,4.427  S35.534,77.479,35.534,75.037z M28.68,75.037c0-1.338,1.089-2.427,2.427-2.427s2.427,1.089,2.427,2.427s-1.089,2.427-2.427,2.427  S28.68,76.375,28.68,75.037z"/><path fill="white" d="M16.461,76.037h4.33c0.393,4.079,3.161,7.466,6.9,8.776c-5.345,0.756-10.914,1.801-16.668,3.217  c-0.537,0.132-0.864,0.674-0.732,1.21c0.112,0.456,0.521,0.762,0.97,0.761c0.079,0,0.16-0.009,0.24-0.029  c43.885-10.796,77.117-0.131,77.448-0.021c0.525,0.171,1.09-0.112,1.263-0.636c0.173-0.524-0.111-1.09-0.635-1.263  c-0.143-0.047-6.379-2.046-16.917-3.477c3.412-1.458,5.887-4.694,6.257-8.537h3.949c4.036,0,7.319-3.283,7.319-7.319v-42.64  c0-4.036-3.283-7.319-7.319-7.319H80.03v-5.011c0-2.066-1.63-3.748-3.633-3.748H48.609c-2.003,0-3.633,1.681-3.633,3.748v5.011  H28.754c-1.681,0-3.316,0.567-4.604,1.598c-5.775,4.622-18.568,18.898-12.646,51.552C11.938,74.301,14.023,76.037,16.461,76.037z   M22.741,75.037c0-4.613,3.753-8.366,8.366-8.366c4.613,0,8.366,3.753,8.366,8.366c0,4.613-3.753,8.366-8.366,8.366  C26.494,83.403,22.741,79.65,22.741,75.037z M36.627,83.795c2.64-1.67,4.481-4.491,4.795-7.758h16.863  c0.3,3.113,1.982,5.825,4.424,7.519C55.202,83.027,46.394,82.942,36.627,83.795z M68.601,83.403c-4.613,0-8.366-3.753-8.366-8.366  c0-4.613,3.753-8.366,8.366-8.366c4.613,0,8.366,3.753,8.366,8.366C76.967,79.65,73.214,83.403,68.601,83.403z M82.865,74.037  h-3.949c-0.505-5.248-4.937-9.366-10.315-9.366s-9.81,4.118-10.315,9.366H41.422c-0.505-5.248-4.937-9.366-10.315-9.366  s-9.81,4.118-10.315,9.366h-4.33c-1.471,0-2.728-1.045-2.989-2.485c-0.838-4.618-1.284-8.841-1.433-12.719h76.146v9.885  C88.185,71.651,85.798,74.037,82.865,74.037z M46.977,13.748c0-0.963,0.732-1.748,1.633-1.748h27.787c0.9,0,1.633,0.784,1.633,1.748  v5.011H46.977V13.748z M25.4,21.918c0.934-0.748,2.125-1.16,3.354-1.16h54.111c2.933,0,5.319,2.386,5.319,5.319v30.755H11.989  C11.732,35.557,20.848,25.561,25.4,21.918z"/><path fill="white" d="M36.927,32.192c0.256,0,0.512-0.098,0.707-0.293c0.831-0.832,2.055-1.162,3.194-0.856c0.536,0.142,1.082-0.175,1.224-0.708  c0.142-0.534-0.175-1.082-0.708-1.224c-1.829-0.489-3.79,0.04-5.124,1.375c-0.391,0.391-0.391,1.024,0,1.414  C36.415,32.094,36.671,32.192,36.927,32.192z"/><path fill="white" d="M32.336,36.782c0.256,0,0.512-0.098,0.707-0.293l2.142-2.142c0.391-0.391,0.391-1.023,0-1.414s-1.023-0.391-1.414,0  l-2.142,2.142c-0.391,0.391-0.391,1.023,0,1.414C31.825,36.684,32.081,36.782,32.336,36.782z"/><path fill="white" d="M21.665,53.174c0.615,0.615,1.423,0.922,2.231,0.922c0.808,0,1.616-0.308,2.23-0.922l3.496-3.496l2.678,2.679c0,0,0,0,0,0  c0.476,0.477,1.109,0.739,1.782,0.739s1.307-0.263,1.782-0.739L47.103,41.12c3.705-3.705,3.705-9.733,0-13.438  s-9.733-3.705-13.438,0L22.428,38.918c-0.476,0.476-0.739,1.109-0.739,1.783s0.263,1.307,0.739,1.782l2.733,2.733l-3.496,3.496  C20.436,49.942,20.436,51.944,21.665,53.174z M35.079,29.096c1.417-1.417,3.301-2.197,5.305-2.197c2.004,0,3.888,0.78,5.305,2.197  s2.197,3.301,2.197,5.305c0,2.004-0.78,3.888-2.197,5.305l-7.551,7.55c-0.622-0.461-1.156-0.632-1.606-0.775  c-0.513-0.164-0.883-0.283-1.447-0.846c-0.563-0.564-0.682-0.935-0.846-1.447c-0.191-0.6-0.43-1.346-1.337-2.252  c-0.907-0.907-1.652-1.145-2.251-1.336c-0.513-0.164-0.883-0.282-1.446-0.845s-0.682-0.934-0.846-1.447  c-0.149-0.464-0.329-1.018-0.824-1.665L35.079,29.096z M23.689,40.701c0-0.139,0.054-0.27,0.153-0.368l2.253-2.253  c0.168,0.274,0.26,0.531,0.357,0.836c0.192,0.599,0.43,1.345,1.337,2.251c0.906,0.907,1.652,1.145,2.251,1.336  c0.513,0.164,0.883,0.282,1.446,0.845c0.563,0.564,0.682,0.935,0.846,1.447c0.191,0.6,0.43,1.346,1.337,2.252  c0.907,0.907,1.653,1.146,2.252,1.337c0.28,0.09,0.52,0.173,0.77,0.316l-2.242,2.242c-0.196,0.197-0.539,0.197-0.735,0h0  l-9.873-9.874C23.744,40.971,23.689,40.84,23.689,40.701z M23.079,50.126l3.496-3.496l1.634,1.634l-3.496,3.496  c-0.451,0.451-1.184,0.45-1.633,0C22.629,51.31,22.629,50.576,23.079,50.126z"/><path fill="white" d="M53.826,51.949h27.3c0.552,0,1-0.448,1-1V28.047c0-0.552-0.448-1-1-1h-27.3c-0.552,0-1,0.448-1,1v22.902  C52.826,51.501,53.273,51.949,53.826,51.949z M54.826,49.949v-3.546h25.203c0.034,0,0.064-0.016,0.097-0.02v3.566H54.826z   M80.125,29.047v15.376c-0.034-0.003-0.063-0.02-0.097-0.02H54.826V29.047H80.125z"/>

<!--
Ice Cream Van by Made by Made from the Noun Project

https://thenounproject.com/term/ice-cream-van/1277869/


<text x="0" y="115" fill="#000000" font-size="5px" font-weight="bold" font-family="'Helvetica Neue', Helvetica, Arial-Unicode, Arial, Sans-serif">Created by Made by Made</text><text x="0" y="120" fill="#000000" font-size="5px" font-weight="bold" font-family="'Helvetica Neue', Helvetica, Arial-Unicode, Arial, Sans-serif">from the Noun Project</text>

-->


</svg>
