<svg xmlns="http://www.w3.org/2000/svg" xmlns:xlink="http://www.w3.org/1999/xlink" xmlns:sketch="http://www.bohemiancoding.com/sketch/ns" viewBox="0 0 30 37.5" version="1.1" x="0px" y="0px"><g stroke="none" stroke-width="1" fill="none" fill-rule="evenodd" sketch:type="MSPage"><g sketch:type="MSArtboardGroup" transform="translate(-450.000000, -45.000000)" fill="white"><path d="M464.995578,59 L464.995578,58 L468.000001,58 C468.549843,58 468.995578,57.5566468 468.995578,56.9906311 L468.995578,55.0093689 C468.995578,54.4519098 468.550741,54 468.000001,54 L464.995578,54 L464.995578,53 L470.804653,53 C470.900483,53 471.059975,52.9356028 471.139413,52.8561649 L472.647205,51.3483734 C472.838642,51.1569366 472.839606,50.8440279 472.647205,50.6516266 L471.139413,49.1438351 C471.062122,49.0665436 470.910098,49 470.804653,49 L464.995578,49 L464.995578,47.495389 C464.995578,47.2157526 464.771721,47 464.495578,47 C464.227512,47 463.995578,47.2217932 463.995578,47.495389 L463.995578,49 L460.991156,49 C460.440415,49 459.995578,49.4519098 459.995578,50.0093689 L459.995578,51.9906311 C459.995578,52.5566468 460.441314,53 460.991156,53 L463.995578,53 L463.995578,54 L458.186504,54 C458.081059,54 457.929035,54.0665436 457.851743,54.1438351 L456.343952,55.6516266 C456.15155,55.8440279 456.152515,56.1569366 456.343952,56.3483734 L457.851743,57.8561649 C457.931181,57.9356028 458.090674,58 458.186504,58 L463.995578,58 L463.995578,59 L460.991156,59 C460.440415,59 459.995578,59.4519098 459.995578,60.0093689 L459.995578,61.9906311 C459.995578,62.5566468 460.441314,63 460.991156,63 L463.995578,63 L463.995578,72.5036068 C463.995578,72.773819 464.219436,73 464.495578,73 C464.763645,73 464.995578,72.7777572 464.995578,72.5036068 L464.995578,63 L470.804653,63 C470.900483,63 471.059975,62.9356028 471.139413,62.8561649 L472.647205,61.3483734 C472.838642,61.1569366 472.839606,60.8440279 472.647205,60.6516266 L471.139413,59.1438351 C471.062122,59.0665436 470.910098,59 470.804653,59 L464.995578,59 Z M458.395572,55 L457.396274,56 L458.395572,57 L467.995578,57 L467.995578,55 L458.395572,55 Z M470.595584,50 L471.594883,51 L470.595584,52 L460.995578,52 L460.995578,50 L470.595584,50 Z M470.595584,60 L471.594883,61 L470.595584,62 L460.995578,62 L460.995578,60 L470.595584,60 Z" sketch:type="MSShapeGroup"/></g></g>

<!--

direction sign by Xinh Studio from the Noun Project

https://thenounproject.com/term/direction-sign/261876/

<text x="0" y="45" fill="white" font-size="5px" font-weight="bold" font-family="'Helvetica Neue', Helvetica, Arial-Unicode, Arial, Sans-serif">Created by Pham Thi Dieu Linh</text><text x="0" y="50" fill="white" font-size="5px" font-weight="bold" font-family="'Helvetica Neue', Helvetica, Arial-Unicode, Arial, Sans-serif">from the Noun Project</text>

-->

</svg>
