<svg xmlns="http://www.w3.org/2000/svg" xmlns:xlink="http://www.w3.org/1999/xlink" version="1.1" x="0px" y="0px" viewBox="0 0 100 125" style="enable-background:new 0 0 100 100;" xml:space="preserve"><style type="text/css">
	.fireworks-st0{fill:none;stroke:white;stroke-width:2;stroke-linecap:round;stroke-linejoin:round;stroke-miterlimit:10;}
	.fireworks-st1{fill:none;stroke:white;stroke-width:2;stroke-miterlimit:10;}
	.fireworks-st2{fill:none;stroke:white;stroke-width:2;stroke-linecap:round;stroke-linejoin:round;}
	.fireworks-st3{fill:none;stroke:white;stroke-width:2;stroke-linecap:round;stroke-linejoin:round;stroke-dasharray:2.8472,3.7963;}
	.fireworks-st4{fill:none;stroke:white;stroke-width:2;stroke-linecap:round;stroke-linejoin:round;stroke-dasharray:3.1986,4.2648;}
</style><path d="M31.742,22.442l1.758,0.201c1.563,0.179,3.035,0.799,4.255,1.793l1.371,1.117c0.182,0.147,0.405,0.225,0.632,0.225  c0.127,0,0.255-0.024,0.376-0.073c0.339-0.138,0.575-0.449,0.617-0.812l0.203-1.756c0.182-1.562,0.804-3.033,1.801-4.252l1.12-1.371  c0.231-0.283,0.29-0.67,0.152-1.009s-0.449-0.576-0.813-0.617l-1.758-0.201c-1.563-0.179-3.035-0.799-4.255-1.793l-1.371-1.117  c-0.283-0.23-0.671-0.288-1.008-0.151c-0.339,0.138-0.575,0.449-0.617,0.812l-0.203,1.756c-0.182,1.562-0.804,3.033-1.801,4.252  l-1.12,1.371c-0.231,0.283-0.29,0.67-0.152,1.009S31.378,22.401,31.742,22.442z M35.981,15.48c1.493,1.203,3.283,1.958,5.187,2.187  c-1.204,1.491-1.962,3.281-2.193,5.184c-1.493-1.203-3.283-1.958-5.187-2.187C34.992,19.173,35.75,17.383,35.981,15.48z"/><path d="M50,44.411c-3.08,0-5.586,2.507-5.586,5.589S46.92,55.589,50,55.589s5.586-2.507,5.586-5.589S53.08,44.411,50,44.411z   M50,53.589c-1.978,0-3.586-1.61-3.586-3.589s1.608-3.589,3.586-3.589s3.586,1.61,3.586,3.589S51.978,53.589,50,53.589z"/><path d="M50,41.655c0.553,0,1-0.447,1-1v-1.5c0-0.553-0.447-1-1-1s-1,0.447-1,1v1.5C49,41.208,49.447,41.655,50,41.655z"/><path d="M50,20.963c0.553,0,1-0.447,1-1v-3.198c0-0.553-0.447-1-1-1s-1,0.447-1,1v3.198C49,20.516,49.447,20.963,50,20.963z"/><path d="M50,35.89c0.553,0,1-0.447,1-1v-3.198c0-0.553-0.447-1-1-1s-1,0.447-1,1v3.198C49,35.442,49.447,35.89,50,35.89z"/><path d="M50,28.427c0.553,0,1-0.447,1-1v-3.199c0-0.553-0.447-1-1-1s-1,0.447-1,1v3.199C49,27.979,49.447,28.427,50,28.427z"/><path d="M50,13.5c0.553,0,1-0.447,1-1V11c0-0.553-0.447-1-1-1s-1,0.447-1,1v1.5C49,13.053,49.447,13.5,50,13.5z"/><path d="M44.099,44.099c0.391-0.391,0.391-1.023,0-1.414l-1.061-1.061c-0.391-0.391-1.023-0.391-1.414,0s-0.391,1.023,0,1.414  l1.061,1.061c0.195,0.195,0.451,0.293,0.707,0.293S43.903,44.294,44.099,44.099z"/><path d="M28.054,29.468c0.195,0.195,0.451,0.293,0.707,0.293s0.512-0.098,0.707-0.293c0.391-0.391,0.391-1.023,0-1.414l-2.262-2.262  c-0.391-0.391-1.023-0.391-1.414,0s-0.391,1.023,0,1.414L28.054,29.468z"/><path d="M33.331,34.745c0.195,0.195,0.451,0.293,0.707,0.293s0.512-0.098,0.707-0.293c0.391-0.391,0.391-1.023,0-1.414l-2.262-2.262  c-0.391-0.391-1.023-0.391-1.414,0s-0.391,1.023,0,1.414L33.331,34.745z"/><path d="M37.761,36.347c-0.391-0.391-1.023-0.391-1.414,0s-0.391,1.023,0,1.414l2.262,2.262c0.195,0.195,0.451,0.293,0.707,0.293  s0.512-0.098,0.707-0.293c0.391-0.391,0.391-1.023,0-1.414L37.761,36.347z"/><path d="M22.776,24.19c0.195,0.195,0.451,0.293,0.707,0.293s0.512-0.098,0.707-0.293c0.391-0.391,0.391-1.023,0-1.414l-1.061-1.061  c-0.391-0.391-1.023-0.391-1.414,0s-0.391,1.023,0,1.414L22.776,24.19z"/><path d="M40.655,51c0.553,0,1-0.447,1-1s-0.447-1-1-1h-1.5c-0.553,0-1,0.447-1,1s0.447,1,1,1H40.655z"/><path d="M27.427,49h-3.199c-0.553,0-1,0.447-1,1s0.447,1,1,1h3.199c0.553,0,1-0.447,1-1S27.979,49,27.427,49z"/><path d="M16.765,51h3.198c0.553,0,1-0.447,1-1s-0.447-1-1-1h-3.198c-0.553,0-1,0.447-1,1S16.212,51,16.765,51z"/><path d="M34.89,51c0.553,0,1-0.447,1-1s-0.447-1-1-1h-3.198c-0.553,0-1,0.447-1,1s0.447,1,1,1H34.89z"/><path d="M11,51h1.5c0.553,0,1-0.447,1-1s-0.447-1-1-1H11c-0.553,0-1,0.447-1,1S10.447,51,11,51z"/><path d="M41.624,58.376c0.195,0.195,0.451,0.293,0.707,0.293s0.512-0.098,0.707-0.293l1.061-1.061c0.391-0.391,0.391-1.023,0-1.414  s-1.023-0.391-1.414,0l-1.061,1.061C41.233,57.353,41.233,57.985,41.624,58.376z"/><path d="M37.761,63.653l2.262-2.262c0.391-0.391,0.391-1.023,0-1.414s-1.023-0.391-1.414,0l-2.262,2.262  c-0.391,0.391-0.391,1.023,0,1.414c0.195,0.195,0.451,0.293,0.707,0.293S37.565,63.849,37.761,63.653z"/><path d="M32.483,68.931l2.262-2.262c0.391-0.391,0.391-1.023,0-1.414s-1.023-0.391-1.414,0l-2.262,2.262  c-0.391,0.391-0.391,1.023,0,1.414c0.195,0.195,0.451,0.293,0.707,0.293S32.288,69.126,32.483,68.931z"/><path d="M25.792,72.794c-0.391,0.391-0.391,1.023,0,1.414c0.195,0.195,0.451,0.293,0.707,0.293s0.512-0.098,0.707-0.293l2.262-2.262  c0.391-0.391,0.391-1.023,0-1.414s-1.023-0.391-1.414,0L25.792,72.794z"/><path d="M24.19,75.81c-0.391-0.391-1.023-0.391-1.414,0l-1.061,1.061c-0.391,0.391-0.391,1.023,0,1.414  c0.195,0.195,0.451,0.293,0.707,0.293s0.512-0.098,0.707-0.293l1.061-1.061C24.581,76.833,24.581,76.2,24.19,75.81z"/><path d="M51,59.345c0-0.553-0.447-1-1-1s-1,0.447-1,1v1.5c0,0.553,0.447,1,1,1s1-0.447,1-1V59.345z"/><path d="M51,72.573c0-0.553-0.447-1-1-1s-1,0.447-1,1v3.199c0,0.553,0.447,1,1,1s1-0.447,1-1V72.573z"/><path d="M51,80.037c0-0.553-0.447-1-1-1s-1,0.447-1,1v3.198c0,0.553,0.447,1,1,1s1-0.447,1-1V80.037z"/><path d="M51,65.11c0-0.553-0.447-1-1-1s-1,0.447-1,1v3.198c0,0.553,0.447,1,1,1s1-0.447,1-1V65.11z"/><path d="M50,86.5c-0.553,0-1,0.447-1,1V89c0,0.553,0.447,1,1,1s1-0.447,1-1v-1.5C51,86.947,50.553,86.5,50,86.5z"/><path d="M55.901,57.315l1.061,1.061c0.195,0.195,0.451,0.293,0.707,0.293s0.512-0.098,0.707-0.293c0.391-0.391,0.391-1.023,0-1.414  l-1.061-1.061c-0.391-0.391-1.023-0.391-1.414,0S55.511,56.925,55.901,57.315z"/><path d="M70.532,70.532c-0.391,0.391-0.391,1.023,0,1.414l2.262,2.262c0.195,0.195,0.451,0.293,0.707,0.293s0.512-0.098,0.707-0.293  c0.391-0.391,0.391-1.023,0-1.414l-2.262-2.262C71.556,70.142,70.923,70.142,70.532,70.532z"/><path d="M62.239,63.653c0.195,0.195,0.451,0.293,0.707,0.293s0.512-0.098,0.707-0.293c0.391-0.391,0.391-1.023,0-1.414l-2.262-2.262  c-0.391-0.391-1.023-0.391-1.414,0s-0.391,1.023,0,1.414L62.239,63.653z"/><path d="M68.224,69.224c0.256,0,0.512-0.098,0.707-0.293c0.391-0.391,0.391-1.023,0-1.414l-2.262-2.262  c-0.391-0.391-1.023-0.391-1.414,0s-0.391,1.023,0,1.414l2.262,2.262C67.712,69.126,67.968,69.224,68.224,69.224z"/><path d="M76.87,78.284c0.195,0.195,0.451,0.293,0.707,0.293s0.512-0.098,0.707-0.293c0.391-0.391,0.391-1.023,0-1.414l-1.061-1.061  c-0.391-0.391-1.023-0.391-1.414,0s-0.391,1.023,0,1.414L76.87,78.284z"/><path d="M59.345,51h1.5c0.553,0,1-0.447,1-1s-0.447-1-1-1h-1.5c-0.553,0-1,0.447-1,1S58.792,51,59.345,51z"/><path d="M83.235,51c0.553,0,1-0.447,1-1s-0.447-1-1-1h-3.198c-0.553,0-1,0.447-1,1s0.447,1,1,1H83.235z"/><path d="M75.772,51c0.553,0,1-0.447,1-1s-0.447-1-1-1h-3.199c-0.553,0-1,0.447-1,1s0.447,1,1,1H75.772z"/><path d="M68.309,51c0.553,0,1-0.447,1-1s-0.447-1-1-1H65.11c-0.553,0-1,0.447-1,1s0.447,1,1,1H68.309z"/><path d="M89,49h-1.5c-0.553,0-1,0.447-1,1s0.447,1,1,1H89c0.553,0,1-0.447,1-1S89.553,49,89,49z"/><path d="M56.608,44.392c0.256,0,0.512-0.098,0.707-0.293l1.061-1.061c0.391-0.391,0.391-1.023,0-1.414s-1.023-0.391-1.414,0  l-1.061,1.061c-0.391,0.391-0.391,1.023,0,1.414C56.097,44.294,56.353,44.392,56.608,44.392z"/><path d="M71.239,29.761c0.256,0,0.512-0.098,0.707-0.293l2.262-2.262c0.391-0.391,0.391-1.023,0-1.414s-1.023-0.391-1.414,0  l-2.262,2.262c-0.391,0.391-0.391,1.023,0,1.414C70.728,29.663,70.983,29.761,71.239,29.761z"/><path d="M61.392,40.022l2.262-2.262c0.391-0.391,0.391-1.023,0-1.414s-1.023-0.391-1.414,0l-2.262,2.262  c-0.391,0.391-0.391,1.023,0,1.414c0.195,0.195,0.451,0.293,0.707,0.293S61.196,40.218,61.392,40.022z"/><path d="M66.669,34.745l2.262-2.262c0.391-0.391,0.391-1.023,0-1.414s-1.023-0.391-1.414,0l-2.262,2.262  c-0.391,0.391-0.391,1.023,0,1.414c0.195,0.195,0.451,0.293,0.707,0.293S66.474,34.94,66.669,34.745z"/><path d="M76.517,24.483c0.256,0,0.512-0.098,0.707-0.293l1.061-1.061c0.391-0.391,0.391-1.023,0-1.414s-1.023-0.391-1.414,0  l-1.061,1.061c-0.391,0.391-0.391,1.023,0,1.414C76.005,24.386,76.261,24.483,76.517,24.483z"/><path d="M41.303,28.582c-0.512,0.208-0.759,0.791-0.551,1.303l4.559,11.225c0.158,0.389,0.532,0.624,0.927,0.624  c0.126,0,0.253-0.023,0.376-0.073c0.512-0.208,0.759-0.791,0.551-1.303l-4.559-11.225C42.396,28.62,41.812,28.376,41.303,28.582z"/><path d="M14.075,36.701c0.977,1.232,1.576,2.713,1.734,4.279l0.177,1.761c0.037,0.364,0.269,0.679,0.605,0.821  c0.126,0.053,0.258,0.079,0.39,0.079c0.222,0,0.442-0.074,0.622-0.217l1.386-1.101c1.232-0.979,2.711-1.582,4.276-1.741l1.76-0.18  c0.363-0.037,0.678-0.27,0.819-0.606c0.143-0.336,0.09-0.724-0.138-1.01l-1.098-1.386c-0.978-1.233-1.576-2.713-1.733-4.279  l-0.177-1.761c-0.037-0.364-0.269-0.679-0.605-0.821c-0.338-0.142-0.726-0.09-1.012,0.138l-1.386,1.101  c-1.233,0.979-2.712,1.582-4.277,1.741l-1.759,0.179c-0.363,0.037-0.678,0.27-0.819,0.605c-0.143,0.337-0.09,0.724,0.137,1.011  L14.075,36.701z M20.893,33.383c0.202,1.906,0.932,3.707,2.113,5.216c-1.905,0.205-3.705,0.938-5.213,2.121  c-0.203-1.907-0.934-3.708-2.114-5.216C17.583,35.299,19.384,34.566,20.893,33.383z"/><path d="M28.705,41.006c-0.215,0.509,0.023,1.095,0.532,1.31l11.161,4.714c0.127,0.054,0.259,0.079,0.389,0.079  c0.39,0,0.76-0.229,0.921-0.611c0.215-0.509-0.023-1.095-0.532-1.31l-11.161-4.714C29.508,40.258,28.92,40.497,28.705,41.006z"/><path d="M20.816,68.919c0.182,0.148,0.406,0.226,0.633,0.226c0.127,0,0.255-0.024,0.376-0.073c0.339-0.138,0.576-0.449,0.617-0.813  l0.201-1.758c0.179-1.563,0.799-3.035,1.793-4.255l1.117-1.371c0.23-0.283,0.288-0.67,0.151-1.008  c-0.138-0.339-0.449-0.575-0.812-0.617l-1.756-0.203c-1.562-0.182-3.033-0.804-4.252-1.801l-1.371-1.12  c-0.283-0.231-0.671-0.289-1.009-0.152c-0.339,0.138-0.576,0.449-0.617,0.813l-0.201,1.758c-0.179,1.563-0.799,3.035-1.793,4.255  l-1.117,1.371c-0.23,0.283-0.288,0.67-0.151,1.008c0.138,0.339,0.449,0.575,0.812,0.617l1.756,0.203  c1.562,0.182,3.033,0.804,4.252,1.801L20.816,68.919z M17.667,58.832c1.491,1.204,3.281,1.962,5.184,2.193  c-1.203,1.493-1.958,3.283-2.187,5.187c-1.491-1.204-3.281-1.962-5.184-2.193C16.684,62.525,17.438,60.735,17.667,58.832z"/><path d="M41.109,54.689c0.512-0.208,0.759-0.791,0.551-1.303c-0.209-0.513-0.795-0.757-1.303-0.551l-11.225,4.559  c-0.512,0.208-0.759,0.791-0.551,1.303c0.158,0.389,0.532,0.624,0.927,0.624c0.126,0,0.253-0.023,0.376-0.073L41.109,54.689z"/><path d="M43.562,83.408c0.143-0.337,0.09-0.726-0.138-1.012l-1.101-1.386c-0.979-1.232-1.582-2.711-1.741-4.276l-0.18-1.76  c-0.037-0.363-0.27-0.678-0.606-0.819c-0.336-0.146-0.723-0.09-1.01,0.138l-1.386,1.098c-1.233,0.978-2.713,1.576-4.279,1.733  l-1.761,0.177c-0.364,0.037-0.679,0.269-0.821,0.605s-0.09,0.726,0.138,1.012l1.101,1.386c0.979,1.233,1.582,2.712,1.741,4.277  l0.179,1.759c0.037,0.363,0.27,0.678,0.605,0.819c0.126,0.053,0.258,0.079,0.39,0.079c0.222,0,0.441-0.073,0.621-0.216l1.387-1.098  c1.232-0.977,2.713-1.576,4.279-1.734l1.761-0.177C43.105,83.977,43.42,83.745,43.562,83.408z M35.504,84.321  c-0.205-1.904-0.938-3.705-2.121-5.214c1.906-0.202,3.707-0.932,5.216-2.113c0.205,1.905,0.938,3.705,2.121,5.213  C38.812,82.41,37.012,83.141,35.504,84.321z"/><path d="M41.006,71.295c0.127,0.054,0.259,0.079,0.389,0.079c0.39,0,0.76-0.229,0.921-0.611l4.714-11.161  c0.215-0.509-0.023-1.095-0.532-1.31c-0.509-0.214-1.095,0.023-1.31,0.532l-4.714,11.161C40.259,70.494,40.497,71.08,41.006,71.295z  "/><path d="M59.249,75.106l-0.203,1.756c-0.182,1.562-0.804,3.033-1.801,4.252l-1.12,1.371c-0.231,0.283-0.29,0.67-0.152,1.009  s0.449,0.576,0.813,0.617l1.758,0.201c1.563,0.179,3.035,0.799,4.255,1.793l1.371,1.117c0.182,0.147,0.405,0.225,0.632,0.225  c0.127,0,0.255-0.024,0.376-0.073c0.339-0.138,0.575-0.449,0.617-0.812l0.203-1.756c0.182-1.562,0.804-3.033,1.801-4.252l1.12-1.371  c0.231-0.283,0.29-0.67,0.152-1.009s-0.449-0.576-0.813-0.617L66.5,77.356c-1.563-0.179-3.035-0.799-4.255-1.793l-1.371-1.117  c-0.283-0.229-0.671-0.287-1.008-0.151C59.527,74.433,59.291,74.744,59.249,75.106z M61.025,77.149  c1.493,1.203,3.283,1.958,5.187,2.187c-1.204,1.491-1.962,3.281-2.193,5.184c-1.493-1.203-3.283-1.958-5.187-2.187  C60.036,80.842,60.794,79.052,61.025,77.149z"/><path d="M53.387,58.34c-0.512,0.208-0.759,0.791-0.551,1.303l4.559,11.225c0.158,0.389,0.532,0.624,0.927,0.624  c0.126,0,0.253-0.023,0.376-0.073c0.512-0.208,0.759-0.791,0.551-1.303l-4.559-11.225C54.48,58.378,53.895,58.134,53.387,58.34z"/><path d="M87.159,65.696c0.143-0.337,0.09-0.724-0.137-1.011l-1.098-1.387c-0.977-1.232-1.576-2.713-1.734-4.279l-0.177-1.761  c-0.037-0.364-0.269-0.679-0.605-0.821c-0.338-0.143-0.726-0.09-1.012,0.138l-1.386,1.101c-1.232,0.979-2.711,1.582-4.276,1.741  l-1.76,0.18c-0.363,0.037-0.678,0.27-0.819,0.606c-0.143,0.336-0.09,0.724,0.138,1.01l1.098,1.386  c0.978,1.233,1.576,2.713,1.733,4.279l0.177,1.761c0.037,0.364,0.269,0.679,0.605,0.821c0.126,0.053,0.258,0.079,0.39,0.079  c0.222,0,0.442-0.074,0.622-0.217l1.386-1.101c1.233-0.979,2.712-1.582,4.277-1.741l1.759-0.179  C86.703,66.265,87.018,66.032,87.159,65.696z M79.107,66.617c-0.202-1.906-0.932-3.707-2.113-5.216  c1.905-0.205,3.705-0.938,5.213-2.121c0.203,1.907,0.934,3.708,2.114,5.216C82.417,64.701,80.616,65.434,79.107,66.617z"/><path d="M58.824,54.812l11.161,4.714c0.127,0.054,0.259,0.079,0.389,0.079c0.39,0,0.76-0.229,0.921-0.611  c0.215-0.509-0.023-1.095-0.532-1.31l-11.161-4.714c-0.508-0.215-1.095,0.022-1.31,0.532C58.077,54.012,58.315,54.598,58.824,54.812  z"/><path d="M78.175,30.929c-0.339,0.138-0.576,0.449-0.617,0.813L77.356,33.5c-0.179,1.563-0.799,3.035-1.793,4.255l-1.117,1.371  c-0.23,0.283-0.288,0.67-0.151,1.008c0.138,0.339,0.449,0.575,0.812,0.617l1.756,0.203c1.562,0.182,3.033,0.804,4.252,1.801  l1.371,1.12c0.182,0.148,0.406,0.226,0.633,0.226c0.127,0,0.255-0.024,0.376-0.073c0.339-0.138,0.576-0.449,0.617-0.813l0.201-1.758  c0.179-1.563,0.799-3.035,1.793-4.255l1.117-1.371c0.23-0.283,0.288-0.67,0.151-1.008c-0.138-0.339-0.449-0.575-0.812-0.617  l-1.756-0.203c-1.562-0.182-3.033-0.804-4.252-1.801l-1.371-1.12C78.9,30.849,78.512,30.792,78.175,30.929z M79.336,33.788  c1.491,1.204,3.281,1.962,5.184,2.193c-1.203,1.493-1.958,3.283-2.187,5.187c-1.491-1.204-3.281-1.962-5.184-2.193  C78.353,37.481,79.107,35.691,79.336,33.788z"/><path d="M58.34,46.613c0.158,0.389,0.532,0.624,0.927,0.624c0.126,0,0.253-0.023,0.376-0.073l11.225-4.559  c0.512-0.208,0.759-0.791,0.551-1.303c-0.209-0.513-0.795-0.756-1.303-0.551l-11.225,4.559  C58.379,45.519,58.132,46.102,58.34,46.613z"/><path d="M57.676,18.989c0.979,1.232,1.582,2.711,1.741,4.276l0.18,1.76c0.037,0.363,0.27,0.678,0.606,0.819  c0.125,0.054,0.257,0.079,0.389,0.079c0.222,0,0.441-0.074,0.621-0.217l1.386-1.098c1.233-0.978,2.713-1.576,4.279-1.733  l1.761-0.177c0.364-0.037,0.679-0.269,0.821-0.605s0.09-0.726-0.138-1.012l-1.101-1.386c-0.979-1.233-1.582-2.712-1.741-4.277  l-0.179-1.759c-0.037-0.363-0.27-0.678-0.605-0.819c-0.339-0.143-0.725-0.091-1.011,0.137l-1.387,1.098  c-1.232,0.977-2.713,1.576-4.279,1.734l-1.761,0.177c-0.364,0.037-0.679,0.269-0.821,0.605s-0.09,0.726,0.138,1.012L57.676,18.989z   M64.496,15.679c0.205,1.904,0.938,3.705,2.121,5.214c-1.906,0.202-3.707,0.932-5.216,2.113c-0.205-1.905-0.938-3.705-2.121-5.213  C61.188,17.59,62.988,16.859,64.496,15.679z"/><path d="M53.503,41.708c0.127,0.054,0.259,0.079,0.389,0.079c0.39,0,0.76-0.229,0.921-0.611l4.714-11.161  c0.215-0.509-0.023-1.095-0.532-1.31c-0.508-0.215-1.095,0.022-1.31,0.532l-4.714,11.161C52.756,40.907,52.994,41.493,53.503,41.708  z"/>

<!--

Fireworks by Made by Made from the Noun Project
https://thenounproject.com/term/fireworks/1641930/

<text x="0" y="115" fill="white" font-size="5px" font-weight="bold" font-family="'Helvetica Neue', Helvetica, Arial-Unicode, Arial, Sans-serif">Created by Made by Made</text><text x="0" y="120" fill="white" font-size="5px" font-weight="bold" font-family="'Helvetica Neue', Helvetica, Arial-Unicode, Arial, Sans-serif">from the Noun Project</text>

-->

</svg>