<?xml version="1.0" encoding="utf-8"?>
<!-- Generator: Adobe Illustrator 23.0.4, SVG Export Plug-In . SVG Version: 6.00 Build 0)  -->
<svg version="1.1" id="Layer_1" xmlns="http://www.w3.org/2000/svg" xmlns:xlink="http://www.w3.org/1999/xlink" x="0px" y="0px"
	 viewBox="0 0 80 114" style="enable-background:new 0 0 80 114;" xml:space="preserve">
<style type="text/css">
	.st0{fill:white;}
</style>
<title>016 girl avatar profile woman hat flower</title>
<desc>Created with Sketch.</desc>
<g>
	<g transform="translate(-832.000000, -640.000000)">
		<g transform="translate(64.000000, 64.000000)">
			<path class="st0" d="M808,687"/>
			<g transform="translate(793.000000, 592.000000)">
				<path class="st0" d="M31.1,46.9L33,45c0,1.7,0.4,3.6,1.1,5.5c2,4.7,6.1,9,11,11.6c-0.1-1.5,0.1-3.1,0.4-5.4c0-0.2,0-0.3,0.1-0.6
					c0.7-5,0.7-7.4-0.5-10.2c-1.6-3.7-3.8-6-6.1-6.9l1.5-1.5c2.5,1.3,4.8,3.9,6.4,7.6c1.4,3.3,1.4,6,0.6,11.3c0,0.3-0.1,0.5-0.1,0.6
					c-0.5,3.1-0.6,4.8-0.3,6.7c0.1,0.8-0.7,1.4-1.4,1.1c-6-2.6-11.2-7.8-13.6-13.4C31.7,49.8,31.3,48.3,31.1,46.9z"/>
				<path class="st0" d="M-0.3,47.7c-0.2,1.2-0.6,2.3-1,3.5C-3.7,56.8-8.9,62-14.9,64.6c-0.7,0.3-1.5-0.3-1.4-1.1
					c0.3-1.8,0.2-3.5-0.3-6.7c0-0.2,0-0.3-0.1-0.6c-0.8-5.4-0.8-8,0.6-11.3c1.4-3.4,3.5-5.9,5.8-7.2l1.5,1.5c-2,1-4,3.3-5.4,6.6
					c-1.2,2.9-1.2,5.2-0.5,10.2c0,0.3,0.1,0.5,0.1,0.6c0.3,2.3,0.5,4,0.4,5.4c4.9-2.6,9-7,11-11.6c0.6-1.5,1-3,1.1-4.5L-0.3,47.7z"
					/>
				<path class="st0" d="M45.3,88l-0.8-10c-0.3-3.3-2.3-6.2-5.4-7.5l-14.5-6.3c-2.2-1-3.6-3.1-3.6-5.5V53h2v5.7c0,1.6,0.9,3,2.4,3.7
					l14.5,6.3c3.7,1.6,6.2,5.1,6.6,9.2L47.3,88H45.3z M-17.3,88l0.8-10.1c0.3-4,2.9-7.6,6.6-9.2l14.5-6.3C6.1,61.8,7,60.3,7,58.7V53
					h2v5.7c0,2.4-1.4,4.5-3.6,5.5l-14.5,6.3c-3,1.3-5.1,4.2-5.4,7.5l-0.8,10H-17.3z"/>
				<path class="st0" d="M-9,28c0,0.3,0,0.7,0,1c0,14.3,10.7,26,24,26s24-11.7,24-26c0-0.3,0-0.7,0-1h-2c0,0.3,0,0.7,0,1
					c0,13.3-9.9,24-22,24S-7,42.3-7,29c0-0.3,0-0.7,0-1H-9z"/>
				<path class="st0" d="M43.5,28c0.4,1,0.5,2.1,0.5,3.5c0,4.2-3.4,9.5-6.5,9.5c-1,0-1.8-0.4-2.3-1.2c-0.3-0.4-0.2-1.1,0.2-1.4
					c0.4-0.3,1.1-0.2,1.4,0.2c0.2,0.3,0.4,0.4,0.7,0.4c1.8,0,4.5-4.2,4.5-7.5c0-1.6-0.3-2.8-0.7-3.5H43.5z M-13.5,28h2.2
					c-0.5,0.7-0.7,1.9-0.7,3.5c0,3.3,2.7,7.5,4.5,7.5c0.3,0,0.5-0.1,0.7-0.4c0.3-0.4,1-0.5,1.4-0.2s0.5,1,0.2,1.4
					C-5.7,40.6-6.5,41-7.5,41c-3.1,0-6.5-5.3-6.5-9.5C-14,30.1-13.8,29-13.5,28z"/>
				<g>
					<path class="st0" d="M32,15.7v2.1C27.1,16.6,21.5,16,15,16c-13.2,0-23.1,2.6-29.7,7.1c-4.7,3.1-7.3,7.1-7.3,9.4
						c0,1.4,2.6,3,7.9,4.2c1.2,0.3,2.6,0.5,4.1,0.8v2c-9.2-1.4-14-3.8-14-7c0-3,3-7.5,8.2-11C-8.8,16.8,1.4,14,15,14
						C21.4,14,27.1,14.6,32,15.7z M44,20.3c0.6,0.4,1.2,0.7,1.8,1.1c5.2,3.5,8.2,8,8.2,11.1c0,3.3-4.7,5.7-14,7.1v-2
						c8-1.2,12-3,12-5.1c0-2.4-2.6-6.3-7.3-9.5c-0.2-0.2-0.5-0.3-0.7-0.4V20.3z"/>
					<path class="st0" d="M41.4,3C39-7.3,28.9-13,15-13C-1-13-12-5.4-12,8v13h-2V8c0-14.7,12-23,29-23c14.9,0,26.1,6.4,28.5,18H41.4
						z"/>
					<path class="st0" d="M53.8,31.9l-1.5,1.3c-2.4-2.9-5.6-4.3-10-4.6c-3.4-0.2-6.1,0-13.9,1.2C22.2,30.6,20.1,31,15,31
						s-7.2-0.4-13.4-1.3c-7.8-1.1-10.5-1.4-13.9-1.2c-4.4,0.3-7.6,1.7-10,4.6l-1.5-1.3c2.8-3.3,6.5-4.9,11.4-5.3
						c3.6-0.2,6.3,0,14.3,1.2C8,28.6,9.9,29,15,29s7-0.4,13.1-1.2c7.9-1.2,10.7-1.4,14.3-1.2C47.2,26.9,51,28.5,53.8,31.9z"/>
					<path class="st0" d="M34,10.8v2.1C28.7,11.6,22.4,11,15,11c-11.9,0-21,1.6-27.6,4.9l-0.9-1.8C-6.6,10.7,2.9,9,15,9
						C22.3,9,28.6,9.6,34,10.8z"/>
				</g>
				<path class="st0" d="M31.3,66.3l2,0.2L32,77.1c-0.1,0.5-0.5,0.9-1,0.9c-5,0-10.1,3.2-15.2,9.6c-0.4,0.5-1.2,0.5-1.6,0
					C9.1,81.2,4,78-1,78c-0.5,0-0.9-0.4-1-0.9l-1.3-10.5l2-0.2l1.2,9.7C5,76.4,10,79.5,15,85.4c5-5.9,10-9.1,15.1-9.4L31.3,66.3z
					 M34.1,80.9L36,68.3l2,0.3l-2,13.5c-0.1,0.5-0.6,0.9-1.1,0.8c-6.3-0.6-12.6,3.2-19.1,11.6c-0.4,0.5-1.2,0.5-1.6,0
					C7.7,86.2,1.4,82.4-4.9,83c-0.5,0.1-1-0.3-1.1-0.8l-2-13.5l2-0.3L-4.1,81C2.3,80.7,8.7,84.5,15,92.4
					C21.3,84.5,27.7,80.7,34.1,80.9z"/>
				<g transform="translate(55.000000, 17.000000)">
					<path class="st0" d="M-3.5-9.2c1.1,1.9-0.1,4.1-3,5.8c2.8,1.7,4,3.9,3,5.8C-4.6,4.1-7.1,4.2-10,2.6c0,3.3-1.3,5.4-3.5,5.4
						S-17,5.9-17,2.6c-2.9,1.6-5.4,1.6-6.5-0.3s0.1-4.1,3-5.8c-2.8-1.7-4-3.9-3-5.8c1.1-1.9,3.6-1.9,6.5-0.3c0-3.3,1.3-5.4,3.5-5.4
						s3.5,2.1,3.5,5.4C-7.1-11.2-4.6-11.1-3.5-9.2z M-10.5-6.8c-0.7,0.6-1.7,0-1.6-0.9C-12-8.3-12-8.9-12-9.5c0-2.4-0.7-3.5-1.5-3.5
						S-15-11.9-15-9.5c0,0.6,0,1.2,0.1,1.8c0.1,0.9-0.9,1.5-1.6,0.9c-0.5-0.4-1-0.7-1.5-1C-20-9-21.3-9-21.7-8.2s0.2,1.9,2.3,3
						c0.5,0.3,1,0.5,1.6,0.8c0.8,0.3,0.8,1.5,0,1.9c-0.6,0.2-1.1,0.5-1.6,0.8c-2,1.2-2.7,2.3-2.3,3S-20,2-17.9,0.8
						c0.5-0.3,1-0.6,1.5-1c0.7-0.6,1.7,0,1.6,0.9C-15,1.3-15,1.9-15,2.5c0,2.4,0.7,3.5,1.5,3.5S-12,4.9-12,2.5c0-0.6,0-1.2-0.1-1.8
						c-0.1-0.9,0.9-1.5,1.6-0.9c0.5,0.4,1,0.7,1.5,1C-7,2-5.7,2-5.3,1.2c0.4-0.7-0.2-1.9-2.3-3c-0.5-0.3-1-0.5-1.6-0.8
						c-0.8-0.3-0.8-1.5,0-1.9C-8.6-4.7-8-4.9-7.6-5.2c2-1.2,2.7-2.3,2.3-3C-5.7-9-7-9-9.1-7.8C-9.5-7.5-10-7.2-10.5-6.8z"/>
					<path class="st0" d="M-13.5,1C-16,1-18-1-18-3.5S-16-8-13.5-8S-9-6-9-3.5S-11,1-13.5,1z M-13.5-1c1.4,0,2.5-1.1,2.5-2.5
						S-12.1-6-13.5-6S-16-4.9-16-3.5S-14.9-1-13.5-1z"/>
				</g>
			</g>
		</g>
		<g transform="translate(113.000000, 126.000000)">
			<g transform="translate(768.000000, 576.000000)">
				<path class="st0" d="M-14.4-1.8c-0.5-0.3-1.1-0.2-1.4,0.3s-0.2,1.1,0.3,1.4C-13.4,1.3-11.2,2-9,2s4.4-0.7,6.6-2.2
					C-2-0.5-1.9-1.1-2.2-1.6C-2.5-2-3.1-2.1-3.6-1.8C-5.4-0.6-7.2,0-9,0S-12.6-0.6-14.4-1.8z"/>
				<path class="st0" d="M-16-11c0,0.6-0.4,1-1,1s-1-0.4-1-1c0-1.1-0.9-2-2-2s-2,0.9-2,2c0,0.6-0.4,1-1,1s-1-0.4-1-1
					c0-2.2,1.8-4,4-4S-16-13.2-16-11z"/>
				<path class="st0" d="M6-11c0,0.6-0.4,1-1,1s-1-0.4-1-1c0-1.1-0.9-2-2-2s-2,0.9-2,2c0,0.6-0.4,1-1,1s-1-0.4-1-1c0-2.2,1.8-4,4-4
					S6-13.2,6-11z"/>
			</g>
		</g>
	</g>
</g>
</svg>
