<?xml version="1.0" encoding="utf-8"?>
<!-- Generator: Adobe Illustrator 23.0.4, SVG Export Plug-In . SVG Version: 6.00 Build 0)  -->
<svg version="1.1" id="Layer_1" xmlns="http://www.w3.org/2000/svg" xmlns:xlink="http://www.w3.org/1999/xlink" x="0px" y="0px"
	 viewBox="0 0 94 107" style="enable-background:new 0 0 94 107;" xml:space="preserve">
<style type="text/css">
	.st0{fill:white;}
</style>
<title>011 girl avatar profile woman hat flower</title>
<desc>Created with Sketch.</desc>
<g>
	<g transform="translate(-1792.000000, -640.000000)">
		<g transform="translate(64.000000, 64.000000)">
			<g transform="translate(1746.000000, 594.000000)">
				<path class="st0" d="M22,56.1790695c-3.5055313-0.2317581-6.5924149-0.6503601-9.2937984-1.2547073
					c-0.139782-0.0312729-0.2712154-0.0922089-0.3854046-0.178688c-3.3633251-2.5470886-5.4039421-5.8236618-6.1107159-9.7849655
					c-0.0437469,1.7495422,0.2936001,3.907486,1.0325184,6.4801178c0.2390747,0.8323669-0.6209621,1.5544434-1.3993893,1.1749115
					c-5.4836636-2.673645-8.3803368-6.7584419-9.3712769-12.5220108C-4.0732584,36.9227486-4.1217299,34.2668114-3.6756487,29
					h2.0078468c-0.4440231,5.1894722-0.403759,7.7619362,0.110815,10.754837
					c0.7567434,4.4014168,2.6975298,7.6219025,6.2982893,9.9524231c-1.0454273-4.8306236-0.569952-8.3284874,1.5504894-10.4555435
					c0.6572819-0.6593323,1.779768-0.1416397,1.7049751,0.7863388c-0.4481468,5.5604172,1.3288307,9.8484344,5.3602619,12.9818802
					c2.5127373,0.5482941,5.3847198,0.9341431,8.642971,1.154686V56.1790695z M36,56.1790771v-2.0044479
					c3.469265-0.2348175,6.5006104-0.6570511,9.126709-1.2632751c3.9332275-3.12323,5.6651077-7.376091,5.2220535-12.8732986
					c-0.074791-0.9279785,1.0476913-1.4456711,1.7049713-0.7863388c2.0809555,2.0874443,2.5773392,5.4955482,1.6075516,10.1859512
					c3.3885956-2.3386383,5.2172775-5.5312386,5.9255295-9.86063C60.0706253,36.6196098,60.1038895,34.0846367,59.6682663,29
					h2.007843c0.4372177,5.1559372,0.3962708,7.7713928-0.1155319,10.899929
					c-0.9353409,5.7175407-3.709259,9.795681-8.9821777,12.5047951c-0.7769318,0.3991776-1.6562805-0.3196793-1.4195709-1.1604691
					c0.700058-2.4865646,1.0192108-4.5790062,0.9766235-6.2835312c-0.6956635,3.8990631-2.6836472,7.1350708-5.9540443,9.6650314
					c-0.1127663,0.0872345-0.2428818,0.149353-0.3816185,0.1821747C42.9793434,55.475296,39.7260208,55.9327393,36,56.1790771z"/>
				<path class="st0" d="M59.3299332,84l-0.8300018-9.9600983c-0.2751389-3.3016663-2.3420258-6.1851959-5.3803787-7.506218
					l-14.5118408-6.309494c-2.1906586-0.9524612-3.6076431-3.1136627-3.6076431-5.5024261V49h2v5.7217636
					c0,1.5925064,0.9446564,3.0333099,2.4050941,3.6682816l14.511837,6.309494
					c3.7135544,1.6145859,6.2397385,5.1389008,6.5760193,9.1742706L61.3368683,84H59.3299332z M-3.336731,84l0.8438492-10.1261902
					c0.3362818-4.0353699,2.8624687-7.5596848,6.5760155-9.1742706l14.5118408-6.309494
					c1.4604378-0.6349716,2.4050941-2.0757751,2.4050941-3.6682816V49h2v5.7217636
					c0,2.3887634-1.4169846,4.5499649-3.6076431,5.5024261l-14.5118389,6.309494
					c-3.0383568,1.321022-5.105238,4.2045517-5.3803768,7.506218L-1.3297977,84H-3.336731z"/>
				<path class="st0" d="M5.0174351,26h2.0013046C7.4996357,38.8072739,17.175396,49,29,49s21.5003662-10.1927261,21.9812622-23
					h2.0013046C52.4977875,39.8796654,41.9643974,51,29,51S5.5022144,39.8796654,5.0174351,26z"/>
				<path class="st0" d="M57.9913406,28C57.9971008,28.163826,58,28.3305168,58,28.5c0,4.2391281-3.3716431,9.5-6.5,9.5
					c-0.9608917,0-1.7527313-0.4115982-2.3127823-1.1606674c-0.3307114-0.4423218-0.2402267-1.0689888,0.202095-1.3996964
					c0.4423218-0.3307114,1.0689926-0.2402306,1.399704,0.202095C50.9779129,35.8943863,51.1810989,36,51.5,36
					c1.7897797,0,4.5-4.2288361,4.5-7.5c0-0.1717949-0.0030136-0.3384476-0.0089722-0.5H57.9913406z M0.0086632,28h2.0003052
					C2.0030117,28.1615524,2,28.3282051,2,28.5C2,31.7711639,4.7102222,36,6.5,36
					c0.318903,0,0.5220871-0.1056137,0.7109871-0.3582687c0.3307095-0.4423256,0.9573746-0.5328064,1.3996983-0.202095
					c0.4423237,0.3307076,0.5328064,0.9573746,0.2020969,1.3996964C8.2527332,37.5884018,7.4608917,38,6.5,38
					C3.371645,38,0,32.7391281,0,28.5C0,28.3305168,0.0028992,28.163826,0.0086632,28z"/>
				<g transform="translate(19.000000, 76.000000)">
					<path class="st0" d="M32.104229,12h-2.002327c0.4228134-9.2570705,2.1374245-17.4119759,4.6925354-22.2528858
						l1.7687416,0.9335699C34.1714554-4.7879543,32.5223236,3.051569,32.104229,12z M-12.1042299,12
						c-0.4180918-8.948431-2.0672235-16.7879543-4.458951-21.3193169l1.7687416-0.9335699
						C-12.2393274-5.4119759-10.5247164,2.7429295-10.101902,12H-12.1042299z M20.8561668-16.4326591l1.7450104,0.9772062
						L10.8725052,5.4886036c-0.3818417,0.6818619-1.3631687,0.6818619-1.7450104,0l-11.728672-20.9440575l1.7450123-0.9772062
						L10,2.9533501L20.8561668-16.4326591z"/>
				</g>
				<g>
					<path class="st0" d="M54.9300308-1h-2.2599792C48.0769348-9.345253,39.1988373-15,29-15C14.0883121-15,2-2.9116879,2,12v3H0v-3
						C0-4.0162573,12.9837418-17,29-17C40.3422165-17,50.16362-10.4886103,54.9300308-1z"/>
					<path class="st0" d="M73.5729904,26.5957527l0.8540192,1.8084946
						c-8.5547943,4.0397644-15.0293655,2.9564705-25.1627045-2.2900047
						c-0.3891678-0.2014923-2.2323303-1.1715622-2.5507889-1.3397255C38.6583977,20.5224648,34.5382195,19,29,19
						s-9.6583977,1.5224648-17.7135143,5.7745171c-0.3184624,0.1681633-2.161623,1.1382332-2.5507927,1.3397255
						c-10.1333399,5.2464752-16.6079082,6.3297691-25.1626987,2.2900047l0.8540125-1.8084946
						c7.8685579,3.7157059,13.753911,2.7309952,23.3891373-2.2575836c0.3846283-0.1991386,2.2176895-1.1639023,2.5366955-1.3323555
						C18.6831894,18.6084785,23.0361366,17,29,17s10.3168106,1.6084785,18.6471558,6.0058136
						c0.3190079,0.1684532,2.1520691,1.1332169,2.5366974,1.3323555
						C59.8190842,29.3267479,65.7044373,30.3114586,73.5729904,26.5957527z"/>
					<path class="st0" d="M45,5.2344151v2.0316448C40.3563843,6.4232121,35.0226669,6,29,6
						C17.1421127,6,7.9549313,7.6405678,1.4472141,10.8944263L0.5527859,9.1055737C7.3784008,5.6927662,16.8578873,4,29,4
						C34.9785004,4,40.3114853,4.410387,45,5.2344151z"/>
					<path class="st0" d="M46,10.6073723v2.042429C40.8272095,11.5501881,35.1613617,11,29,11
						C9.3536682,11-5.2545481,16.5939674-14.9044943,27.757225c0.316534,0.5025063,1.414793,1.3593521,3.2186899,2.2847557
						C-9.5171852,31.1544838-6.520216,32.3016968-3,33.3587914v2.090519C-11.2702999,33.0511856-17,30.0800133-17,27.5
						c0-0.2361908,0.083601-0.464756,0.2359905-0.6452065C-6.7045584,14.9430828,8.5776558,9,29,9
						C35.1306152,9,40.798027,9.5355606,46,10.6073723z M57,13.9583931
						c7.0832214,2.9661331,13.0074692,7.2640305,17.7640076,12.8964005C74.9163971,27.035244,75,27.2638092,75,27.5
						c0,2.6715012-5.7121048,5.6592178-14,8.0436592v-2.0865707c3.5326462-1.0486679,6.5246353-2.1908531,8.682457-3.3080978
						c1.8355484-0.9503822,2.9325409-1.8327675,3.2329559-2.3791313C68.6034164,22.7778435,63.3006592,18.8986931,57,16.1346092
						V13.9583931z"/>
				</g>
				<g transform="translate(61.000000, 15.000000)">
					<path class="st0" d="M3.4592915-11.25C4.5432129-9.3725948,3.3431511-7.1604586,0.4996948-5.5
						c2.8434563,1.6604586,4.0435181,3.8725948,2.9595966,5.75c-1.0839195,1.8774052-3.5997162,1.9441891-6.459444,0.3119125
						C-3.0164242,3.8546467-4.332159,6-6.5,6s-3.4835758-2.1453533-3.4998474-5.4380875
						C-12.8595743,2.1941891-15.3753719,2.1274052-16.4592915,0.25c-1.0839214-1.8774052,0.1161404-4.0895414,2.9595966-5.75
						c-2.8434563-1.6604586-4.0435181-3.8725948-2.9595966-5.75c1.0839195-1.8774052,3.5997171-1.9441891,6.459444-0.3119135
						C-9.9835758-14.8546476-8.667841-17-6.5-17s3.4835758,2.1453524,3.4998474,5.4380865
						C-0.1404247-13.1941891,2.3753719-13.1274052,3.4592915-11.25z M-3.5209503-8.8059196
						C-4.2295246-8.2529621-5.2511024-8.8427706-5.1265144-9.732893C-5.0432673-10.327652-5-10.9275627-5-11.5
						c0-2.3659163-0.688406-3.5-1.5-3.5S-8-13.8659163-8-11.5c0,0.5724373,0.0432673,1.172348,0.1265144,1.767107
						c0.124588,0.8901224-0.8969898,1.4799309-1.6055641,0.9269733c-0.4734535-0.3694744-0.9713573-0.7068996-1.4671021-0.9931183
						c-2.0489445-1.1829586-3.3752928-1.1538229-3.7810898-0.4509621s0.2321453,1.8660803,2.2810898,3.0490379
						c0.4957447,0.2862186,1.0369158,0.5487032,1.5936165,0.7739887c0.8331623,0.3371649,0.8331623,1.5167818,0,1.8539467
						c-0.5567007,0.2252855-1.0978718,0.4877701-1.5936165,0.7739887C-14.4950962-2.6160803-15.1330385-1.4528608-14.7272415-0.75
						c0.405797,0.7028599,1.7321453,0.7319965,3.7810898-0.4509621c0.4957447-0.2862186,0.9936485-0.6236439,1.4671021-0.9931183
						c0.7085743-0.5529575,1.7301521,0.0368509,1.6055641,0.9269733C-7.9567327-0.672348-8-0.0724373-8,0.5
						C-8,2.8659153-7.311594,4-6.5,4S-5,2.8659153-5,0.5c0-0.5724373-0.0432673-1.172348-0.1265144-1.767107
						c-0.124588-0.8901224,0.8969898-1.4799309,1.6055641-0.9269733c0.4734535,0.3694744,0.9713573,0.7068996,1.467103,0.9931183
						C-0.0049038-0.0180035,1.3214436-0.0471401,1.7272415-0.75c0.4057961-0.7028608-0.2321453-1.8660803-2.2810898-3.0490379
						C-1.049593-4.0852566-1.590764-4.3477411-2.1474648-4.5730267c-0.8331623-0.3371649-0.8331623-1.5167818,0-1.8539467
						C-1.590764-6.6522589-1.049593-6.9147434-0.5538483-7.2009621C1.4950962-8.3839197,2.1330376-9.5471392,1.7272415-10.25
						c-0.405798-0.7028608-1.7321453-0.7319965-3.7810888,0.4509621C-2.549593-9.5128193-3.0474968-9.1753941-3.5209503-8.8059196z"
						/>
					<path class="st0" d="M-6.5-1C-8.985281-1-11-3.014719-11-5.5S-8.985281-10-6.5-10S-2-7.985281-2-5.5S-4.014719-1-6.5-1z
						 M-6.5-3C-5.1192884-3-4-4.1192884-4-5.5S-5.1192884-8-6.5-8S-9-6.8807116-9-5.5S-7.8807116-3-6.5-3z"/>
				</g>
			</g>
			<path class="st0" d="M1779.2299805,672.7207642c0.1776123-0.0862427,0.8166504-0.3959961,0.9494629-0.4604492
				c5.3048096-2.5740967,7.7078857-3.984314,9.6608887-5.9628296c2.4328613-2.4645996,3.2172852-5.2857666,2.1949463-9.0343628
				l1.9294434-0.5262451c1.2130127,4.4477539,0.2249756,8.0013428-2.7010498,10.9656372
				c-2.1711426,2.1994629-4.6943359,3.6802368-10.2111816,6.3571777c-0.1333008,0.0646973-0.7720947,0.3743896-0.9492188,0.4603271
				c-2.1256104,1.0316772-3.3575439,1.6540527-4.6176758,2.354126c-0.302002,0.1677856-0.6691895,0.1677856-0.9711914,0
				c-1.2601318-0.7000122-2.4920654-1.3223877-4.6175537-2.3540649c-0.177124-0.0859375-0.81604-0.3956909-0.9494629-0.4603882
				c-5.5167236-2.6768799-8.0401611-4.1577148-10.2111816-6.3571777c-2.9260254-2.9642944-3.9141846-6.5178833-2.7011719-10.9656372
				l1.9295654,0.5262451c-1.0223389,3.7485962-0.237915,6.5697632,2.1949463,9.0343628
				c1.9530029,1.9785156,4.3560791,3.3887939,9.6608887,5.9628296c0.1329346,0.0644531,0.7720947,0.3743286,0.949707,0.4605103
				c1.8883057,0.9165649,3.0874023,1.5176392,4.2298584,2.1381836
				C1776.1424561,674.2384644,1777.3415527,673.6373291,1779.2299805,672.7207642z"/>
		</g>
		<g transform="translate(113.000000, 126.000000)">
			<g transform="translate(1728.000000, 576.000000)">
				<path class="st0" d="M-7.4453001-3.8319435C-7.9048281-4.1382961-8.5256977-4.014122-8.8320503-3.554594
					c-0.3063526,0.4595299-0.1821785,1.0803986,0.2773504,1.3867512C-6.3976564-0.7298136-4.2078953,0.0001068-2,0.0001068
					s4.3976555-0.7299204,6.5547009-2.1679497c0.459528-0.3063526,0.5837021-0.9272213,0.2773495-1.3867512
					C4.5256977-4.014122,3.904829-4.1382961,3.4452991-3.8319435C1.6023445-2.6033058-0.2078953-1.9998932-2-1.9998932
					S-5.6023436-2.6033058-7.4453001-3.8319435z"/>
				<path class="st0" d="M-9-13c0,0.5522842-0.4477158,1-1,1s-1-0.4477158-1-1c0-1.1045694-0.8954306-2-2-2s-2,0.8954306-2,2
					c0,0.5522842-0.4477158,1-1,1s-1-0.4477158-1-1c0-2.2091389,1.7908611-4,4-4S-9-15.2091389-9-13z"/>
				<path class="st0" d="M13-13c0,0.5522842-0.4477158,1-1,1s-1-0.4477158-1-1c0-1.1045694-0.8954296-2-2-2s-2,0.8954306-2,2
					c0,0.5522842-0.4477158,1-1,1s-1-0.4477158-1-1c0-2.2091389,1.7908611-4,4-4S13-15.2091389,13-13z"/>
			</g>
		</g>
	</g>
</g>
</svg>
