<?xml version="1.0" encoding="utf-8"?>
<!-- Generator: Adobe Illustrator 23.0.4, SVG Export Plug-In . SVG Version: 6.00 Build 0)  -->
<svg version="1.1" id="Layer_1" xmlns="http://www.w3.org/2000/svg" xmlns:xlink="http://www.w3.org/1999/xlink" x="0px" y="0px"
	 viewBox="0 0 98.9 118.4" style="enable-background:new 0 0 98.9 118.4;" xml:space="preserve">
<path d="M86.9,69c-1.4,0-2.1-0.4-2.9-0.9c-0.9-0.5-1.9-1.1-3.9-1.1s-3,0.6-3.9,1.1c-0.8,0.5-1.5,0.9-2.9,0.9s-2.1-0.4-2.9-0.9
	c-0.9-0.5-1.9-1.1-3.9-1.1s-3,0.6-3.9,1.1c-0.8,0.5-1.5,0.9-2.9,0.9s-2.1-0.4-2.9-0.9c-0.9-0.5-1.9-1.1-3.9-1.1s-3,0.6-3.9,1.1
	c-0.8,0.5-1.5,0.9-2.9,0.9s-2.1-0.4-2.9-0.9c-0.9-0.5-1.9-1.1-3.9-1.1s-3,0.6-3.9,1.1c-0.8,0.5-1.5,0.9-2.9,0.9s-2.1-0.4-2.9-0.9
	c-0.9-0.5-1.9-1.1-3.9-1.1s-3,0.6-3.9,1.1C21,68.6,20.3,69,18.9,69s-2.1-0.4-2.9-0.9c-0.9-0.5-1.9-1.1-3.9-1.1c-0.6,0-1,0.4-1,1
	s0.4,1,1,1c1.4,0,2.1,0.4,2.9,0.9c0.9,0.5,1.9,1.1,3.9,1.1s3-0.6,3.9-1.1c0.8-0.5,1.5-0.9,2.9-0.9s2.1,0.4,2.9,0.9
	c0.9,0.5,1.9,1.1,3.9,1.1s3-0.6,3.9-1.1c0.8-0.5,1.5-0.9,2.9-0.9s2.1,0.4,2.9,0.9c0.9,0.5,1.9,1.1,3.9,1.1s3-0.6,3.9-1.1
	c0.8-0.5,1.5-0.9,2.9-0.9s2.1,0.4,2.9,0.9c0.9,0.5,1.9,1.1,3.9,1.1s3-0.6,3.9-1.1c0.8-0.5,1.5-0.9,2.9-0.9s2.1,0.4,2.9,0.9
	c0.9,0.5,1.9,1.1,3.9,1.1s3-0.6,3.9-1.1c0.8-0.5,1.5-0.9,2.9-0.9s2.1,0.4,2.9,0.9c0.9,0.5,1.9,1.1,3.9,1.1c0.6,0,1-0.4,1-1
	S87.5,69,86.9,69z"/>
<path d="M86.9,75.9c-1.4,0-2.1-0.4-2.9-0.9c-0.9-0.5-1.9-1.1-3.9-1.1s-3,0.6-3.9,1.1c-0.8,0.5-1.5,0.9-2.9,0.9s-2.1-0.4-2.9-0.9
	c-0.9-0.5-1.9-1.1-3.9-1.1s-3,0.6-3.9,1.1c-0.8,0.5-1.5,0.9-2.9,0.9s-2.1-0.4-2.9-0.9c-0.9-0.5-1.9-1.1-3.9-1.1s-3,0.6-3.9,1.1
	c-0.8,0.5-1.5,0.9-2.9,0.9S44,75.5,43.2,75c-0.9-0.5-1.9-1.1-3.9-1.1s-3,0.6-3.9,1.1c-0.8,0.5-1.5,0.9-2.9,0.9s-2.1-0.4-2.9-0.9
	c-0.9-0.5-1.9-1.1-3.9-1.1s-3,0.6-3.9,1.1c-0.8,0.5-1.5,0.9-2.9,0.9S16.8,75.5,16,75c-0.9-0.5-1.9-1.1-3.9-1.1c-0.6,0-1,0.4-1,1
	s0.4,1,1,1c1.4,0,2.1,0.4,2.9,0.9c0.9,0.5,1.9,1.1,3.9,1.1s3-0.6,3.9-1.1c0.8-0.5,1.5-0.9,2.9-0.9s2.1,0.4,2.9,0.9
	c0.9,0.5,1.9,1.1,3.9,1.1s3-0.6,3.9-1.1c0.8-0.5,1.5-0.9,2.9-0.9s2.1,0.4,2.9,0.9c0.9,0.5,1.9,1.1,3.9,1.1s3-0.6,3.9-1.1
	c0.8-0.5,1.5-0.9,2.9-0.9s2.1,0.4,2.9,0.9c0.9,0.5,1.9,1.1,3.9,1.1s3-0.6,3.9-1.1c0.8-0.5,1.5-0.9,2.9-0.9s2.1,0.4,2.9,0.9
	c0.9,0.5,1.9,1.1,3.9,1.1s3-0.6,3.9-1.1c0.8-0.5,1.5-0.9,2.9-0.9s2.1,0.4,2.9,0.9c0.9,0.5,1.9,1.1,3.9,1.1c0.6,0,1-0.4,1-1
	S87.5,75.9,86.9,75.9z"/>
<path d="M86.9,82.7c-1.4,0-2.1-0.4-2.9-0.9c-0.9-0.5-1.9-1.1-3.9-1.1s-3,0.6-3.9,1.1c-0.8,0.5-1.5,0.9-2.9,0.9s-2.1-0.4-2.9-0.9
	c-0.9-0.5-1.9-1.1-3.9-1.1s-3,0.6-3.9,1.1c-0.8,0.5-1.5,0.9-2.9,0.9s-2.1-0.4-2.9-0.9c-0.9-0.5-1.9-1.1-3.9-1.1s-3,0.6-3.9,1.1
	c-0.8,0.5-1.5,0.9-2.9,0.9s-2.1-0.4-2.9-0.9c-0.9-0.5-1.9-1.1-3.9-1.1s-3,0.6-3.9,1.1c-0.8,0.5-1.5,0.9-2.9,0.9s-2.1-0.4-2.9-0.9
	c-0.9-0.5-1.9-1.1-3.9-1.1s-3,0.6-3.9,1.1c-0.8,0.5-1.5,0.9-2.9,0.9s-2.1-0.4-2.9-0.9c-0.9-0.5-1.9-1.1-3.9-1.1c-0.6,0-1,0.4-1,1
	s0.4,1,1,1c1.4,0,2.1,0.4,2.9,0.9c0.9,0.5,1.9,1.1,3.9,1.1s3-0.6,3.9-1.1c0.8-0.5,1.5-0.9,2.9-0.9s2.1,0.4,2.9,0.9
	c0.9,0.5,1.9,1.1,3.9,1.1s3-0.6,3.9-1.1c0.8-0.5,1.5-0.9,2.9-0.9s2.1,0.4,2.9,0.9c0.9,0.5,1.9,1.1,3.9,1.1s3-0.6,3.9-1.1
	c0.8-0.5,1.5-0.9,2.9-0.9s2.1,0.4,2.9,0.9c0.9,0.5,1.9,1.1,3.9,1.1s3-0.6,3.9-1.1c0.8-0.5,1.5-0.9,2.9-0.9s2.1,0.4,2.9,0.9
	c0.9,0.5,1.9,1.1,3.9,1.1s3-0.6,3.9-1.1c0.8-0.5,1.5-0.9,2.9-0.9s2.1,0.4,2.9,0.9c0.9,0.5,1.9,1.1,3.9,1.1c0.6,0,1-0.4,1-1
	S87.5,82.7,86.9,82.7z"/>
<path d="M75.3,60.7H63.7v-6.5c0-0.6-0.4-1-1-1H50.6v-2.8c0-2.1,1.5-3.7,3.3-3.7s3.3,1.7,3.3,3.7c0,0.6,0.4,1,1,1s1-0.4,1-1
	c0-3.2-2.4-5.7-5.3-5.7c-1.3,0-2.4,0.5-3.3,1.3v-4.7c0-1.6,1.1-2.9,2.6-2.9c1.4,0,2.6,1.3,2.6,2.9c0,0.6,0.4,1,1,1s1-0.4,1-1
	c0-2.7-2-4.9-4.6-4.9c-0.9,0-1.8,0.3-2.6,0.8v-3.4c0-1.1,0.7-1.9,1.7-1.9s1.7,0.9,1.7,1.9c0,0.6,0.4,1,1,1s1-0.4,1-1
	c0-2.2-1.6-3.9-3.7-3.9c-1.1,0-2,0.5-2.7,1.2c-0.7-0.8-1.6-1.2-2.7-1.2c-2,0-3.7,1.8-3.7,3.9c0,0.6,0.4,1,1,1s1-0.4,1-1
	c0-1.1,0.7-1.9,1.7-1.9s1.7,0.9,1.7,1.9v3.4c-0.7-0.5-1.6-0.8-2.6-0.8c-2.5,0-4.6,2.2-4.6,4.9c0,0.6,0.4,1,1,1s1-0.4,1-1
	c0-1.6,1.1-2.9,2.6-2.9s2.6,1.3,2.6,2.9V46c-0.9-0.8-2.1-1.3-3.3-1.3c-2.9,0-5.3,2.6-5.3,5.7c0,0.6,0.4,1,1,1s1-0.4,1-1
	c0-2.1,1.5-3.7,3.3-3.7s3.3,1.7,3.3,3.7v2.8H36.4c-0.6,0-1,0.4-1,1v6.5h-12V50.4c5.4-0.8,9.4-8.3,9.4-17.7c0-10-4.6-17.8-10.4-17.8
	S12,22.7,12,32.7c0,9.4,4.1,16.9,9.4,17.7v10.3h-9.5c-0.6,0-1,0.4-1,1s0.4,1,1,1H87c0.6,0,1-0.4,1-1s-0.5-1-1.1-1h-9.6 M22.4,26.5
	c-0.6,0-1,0.4-1,1v13.8c-0.9-1.1-2.1-2.6-3.2-4c-0.3-0.4-1-0.5-1.4-0.2s-0.5,1-0.2,1.4c2.8,3.7,4.1,5.1,4.8,5.7v4.1
	c-4.1-1-7.4-7.8-7.4-15.7c0-8.6,3.9-15.8,8.4-15.8s8.4,7.2,8.4,15.8c0,7.9-3.3,14.7-7.4,15.7v-10l4.3-4.9c0.4-0.4,0.3-1-0.1-1.4
	c-0.4-0.4-1.1-0.3-1.4,0.1l-2.8,3.2v-7.7C23.4,26.9,23,26.5,22.4,26.5z M61.7,60.6H37.4v-5.4h24.4v5.4H61.7z"/>
<path d="M21.8,82.5"/>
<path d="M86.5,15.2c-1.1,0-2.1,0.2-3.1,0.5c4.1-2.6,9.2-1.5,9.5-1.5c0.4,0.1,0.8-0.1,1-0.4c0.2-0.3,0.3-0.7,0.1-1.1
	c-2.5-4.6-8.3-6.4-12.9-3.9c-1.8,1-3.2,2.4-4.1,4.2c-0.9-1.8-2.3-3.2-4.1-4.2c-2.2-1.2-4.8-1.4-7.3-0.7c-2.4,0.7-4.4,2.4-5.6,4.6
	c-0.2,0.3-0.1,0.8,0.1,1.1c0.2,0.3,0.6,0.5,1,0.4c0,0,2.7-0.6,5.8,0.1c1.4,0.3,2.6,0.8,3.7,1.4c-1-0.3-2-0.4-3-0.4
	c-5.8,0-10.4,4.7-10.4,10.4c0,0.4,0.2,0.7,0.6,0.9c0.4,0.2,0.8,0.1,1.1-0.1c0.2-0.2,4.1-3.4,9.1-3.5c-0.5,0.2-1,0.5-1.5,0.9
	c-1.8,1.3-2.9,3.2-3.2,5.4c-0.3,2.2,0.2,4.3,1.5,6.1c0.2,0.3,0.5,0.4,0.8,0.4c0.1,0,0.1,0,0.2,0c0.4-0.1,0.7-0.4,0.8-0.8
	c0.1-0.3,2-8.2,9.7-7.9v34.1h2V27c7.6-0.3,9.6,7.5,9.7,7.9c0.1,0.4,0.4,0.7,0.8,0.8c0.1,0,0.1,0,0.2,0c0.3,0,0.6-0.1,0.8-0.4
	c2.7-3.6,1.9-8.8-1.7-11.5c-0.5-0.4-1-0.6-1.5-0.9c4.9,0.2,8.7,3.3,8.9,3.5c0.3,0.3,0.7,0.3,1.1,0.1c0.4-0.2,0.6-0.5,0.6-0.9
	C97,19.9,92.3,15.2,86.5,15.2z M65.4,32.2c-0.3-0.9-0.3-1.8-0.2-2.7c0.2-1.6,1.1-3.1,2.4-4.1c1.1-0.8,2.4-1.2,3.7-1.2
	c1.1,0,2.2,0.3,3.2,0.9C69.2,25.6,66.6,29.6,65.4,32.2z M59.5,23.6c0.9-3.6,4.2-6.4,8.2-6.4c3.8,0,7.1,2.6,8.1,6.1
	C69.2,18.8,62.6,21.7,59.5,23.6z M76,18.5c-2.2-4.1-5.8-5.6-8.6-6.2c-1.2-0.3-2.4-0.3-3.4-0.3c-0.3,0-0.6,0-0.8,0
	c0.9-0.9,2-1.6,3.2-2c1.9-0.6,4-0.4,5.7,0.6c1.8,0.9,3.1,2.5,3.7,4.5C76.1,16.1,76.2,17.3,76,18.5z M78.2,18.5
	C78,17.3,78,16.1,78.4,15c0.6-1.9,1.9-3.5,3.7-4.5c1.1-0.6,2.3-0.9,3.5-0.9c2,0,4,0.8,5.4,2.3c-1.2-0.1-2.7,0-4.3,0.3
	C84,12.8,80.4,14.4,78.2,18.5z M86.8,25.4c2.2,1.6,3,4.4,2.2,6.8c-1.2-2.6-3.9-6.6-9.1-7.2C82,23.8,84.7,23.8,86.8,25.4z M85.9,20.9
	c-2.4,0-5,0.6-7.5,2.4c1-3.5,4.3-6.1,8.2-6.1c4,0,7.3,2.7,8.2,6.4C92.8,22.4,89.6,20.9,85.9,20.9z"/>
</svg>
