<?xml version="1.0" encoding="utf-8"?>
<!-- Generator: Adobe Illustrator 23.0.4, SVG Export Plug-In . SVG Version: 6.00 Build 0)  -->
<svg version="1.1" id="Layer_1" xmlns="http://www.w3.org/2000/svg" xmlns:xlink="http://www.w3.org/1999/xlink" x="0px" y="0px"
	 viewBox="0 0 68 110" style="enable-background:new 0 0 68 110;" xml:space="preserve">
<style type="text/css">
	.st0{fill:white;}
</style>


<g>
	<g transform="translate(-1408.000000, -448.000000)">
		<g transform="translate(64.000000, 64.000000)">
			<g transform="translate(1375.000000, 438.000000)">
				<path class="st0" d="M25.0628204,55h-2.0014c0.3414078-9.6679535,2.0862846-18.2383842,4.733017-23.2528877l1.7687416,0.9335709
					C27.0827599,37.3800888,25.4010277,45.6375656,25.0628204,55z M-19.0628204,55
					c-0.3382092-9.3624344-2.0199394-17.6199112-4.5003605-22.3193169l1.7687416-0.9335709
					C-19.1477032,36.7616158-17.4028282,45.3320465-17.0614204,55H-19.0628204z M13.8561668,25.5673409l1.7450104,0.9772072
					L3.8725052,47.4886017c-0.3818436,0.6818657-1.3631668,0.6818657-1.7450104,0L-9.6011772,26.544548l1.7450123-0.9772072
					L3,44.9533501L13.8561668,25.5673409z"/>
				<path class="st0" d="M33.329937,50l-0.8300095-9.9600983c-0.2751389-3.3016663-2.3420181-6.1851959-5.3803749-7.506218
					l-14.5118408-6.3094978c-2.1906586-0.9524612-3.6076431-3.1136589-3.6076431-5.5024185V15h2v5.7217674
					c0,1.5925064,0.9446564,3.0333061,2.4050941,3.6682816l14.5118408,6.309494
					c3.7135468,1.6145859,6.2397346,5.1388969,6.5760155,9.1742706L35.3368683,50H33.329937z M-29.336731,50l0.8438492-10.1261864
					c0.3362808-4.0353737,2.8624687-7.5596848,6.5760155-9.1742706l14.5118389-6.309494
					c1.4604416-0.6349754,2.4050961-2.0757751,2.4050961-3.6682816V15h2v5.7217674
					c0,2.3887596-1.4169827,4.5499573-3.6076431,5.5024185l-14.5118389,6.3094978
					c-3.0383587,1.321022-5.105238,4.2045517-5.3803768,7.506218L-27.3297977,50H-29.336731z"/>
				<path class="st0" d="M-17.3301125,4.8244762l1.6577921-1.1272984C-11.7825451,10.4885483-4.8668289,15,3,15
					c6.5722542,0,12.4806709-3.1488037,16.5154152-8.1452007L20.9628754,8.24436C16.5693283,13.6129761,10.1548843,17,3,17
					C-5.5749798,17-13.0864334,12.1350384-17.3301125,4.8244762z"/>
				<path class="st0" d="M-12.4995766-9.449873c-1.4240627,3.019434-2.1922617,5.2884121-2.6554775,7.9259062
					c-0.8426256,4.7978086-0.1772213,9.7142229,2.3570824,15.2675352c0.4342518,0.9515572-0.6992416,1.8468552-1.5243397,1.2040119
					C-22.2173748,8.7964554-27-1.1644468-27-12c0-0.6043797,0.0090485-1.2017689,0.0269985-1.7919006l1.9851665,0.5955505
					C-24.9959278-12.8011703-25-12.4023561-25-12c0,8.7221441,3.2767296,16.8278618,8.8368492,22.6028976
					c-1.3985863-4.3743782-1.6663933-8.4606819-0.9617538-12.4728241c0.4853935-2.7637749,1.270586-5.1194143,2.6881876-8.1610889
					L-12.4995766-9.449873z M32.9401703-14.1054134C32.9797974-13.4090958,33-12.707056,33-12
					c0,11.3009672-5.2050743,21.6350784-13.6676292,27.6867561c-0.7630043,0.5456352-1.7897034-0.1648941-1.5478821-1.0712147
					c2.5074577-9.3976097,2.1404076-15.5588827-0.5793877-19.4503479C15.9429512-6.6406841,14.3224792-7.91679,11.9426537-9
					h3.9901505c1.1348419,0.8471899,2.0801697,1.8298612,2.9115982,3.0194654
					c2.8070869,4.0163593,3.4111786,9.8852835,1.5693626,18.2572937C27.0151367,6.4705563,31-2.3841124,31-12
					c0-0.3967962-0.0073547-0.7934685-0.0219269-1.1897678L32.9401703-14.1054134z"/>
			</g>
			<path class="st0" d="M1349,416.7816162v2.115448c-1.2978516,0.6748657-2,1.4046326-2,2.1617737
				C1347,424.7738647,1361.5412598,429,1378,429s31-4.2261353,31-7.9411621c0-0.7571411-0.7021484-1.486908-2-2.1617737v-2.115448
				c2.5761719,1.1723022,4,2.6041565,4,4.2772217C1411,426.5393982,1395.6520996,431,1378,431s-33-4.4606018-33-9.9411621
				C1345,419.3857727,1346.4238281,417.9539185,1349,416.7816162z"/>
			<path class="st0" d="M1349,419c-0.5522461,0-1-0.4477234-1-1v-3c0-16.5685425,13.4315186-30,30-30s30,13.4314575,30,30v3
				c0,0.5522766-0.4477539,1-1,1H1349z M1406,417v-2c0-15.4639587-12.5360107-28-28-28s-28,12.5360413-28,28v2H1406z"/>
			<path class="st0" d="M1381.4462891,386.2718811l1.9956055,0.1330261l-1.4440918,21.6616211
				C1381.9627686,408.5918274,1381.5264893,409,1381,409h-6c-0.5264893,0-0.9627686-0.4081726-0.9978027-0.9334717
				l-1.4440918-21.6616211l1.9956055-0.1330261L1375.9355469,407h4.1289062L1381.4462891,386.2718811z M1361.9611816,390.5561218
				l1.8920898-0.6481323c1.7769775,5.187439,2.4892578,11.2355347,2.1455078,18.1417236
				C1365.97229,408.5820312,1365.532959,409,1365,409h-6c-0.5522461,0-1-0.4477234-1-1
				c0-4.9312744-0.4616699-9.3907471-1.3828125-13.3782043l1.9487305-0.4501343
				c0.8936768,3.8687439,1.3688965,8.1448059,1.4278564,12.8283386h4.0480957
				C1364.2655029,400.731842,1363.569458,395.2512512,1361.9611816,390.5561218z M1397.5010986,394.2399597l1.9493408,0.4472351
				c-0.9111328,3.9708252-1.3677979,8.4084778-1.3677979,13.3128052c0,0.5522766-0.4477539,1-1,1h-6
				c-0.532959,0-0.97229-0.4179688-0.9987793-0.9502869c-0.3427734-6.887085,0.364624-12.9207764,2.1307373-18.0986328
				l1.8929443,0.6456604c-1.5983887,4.6861267-2.2896729,10.1531677-2.0667725,16.4032593h4.0480957
				C1396.1474609,402.3440247,1396.6175537,398.0906982,1397.5010986,394.2399597z"/>
		</g>
		<g transform="translate(113.000000, 126.000000)">
			<g transform="translate(1344.000000, 384.000000)">
				<path class="st0" d="M-20.4453011-1.8319435c-0.4595261-0.3063526-1.0803967-0.1821785-1.3867493,0.2773495
					c-0.3063526,0.4595299-0.1821785,1.0803986,0.2773514,1.3867512C-19.3976555,1.2701864-17.2078953,2.0001068-15,2.0001068
					s4.3976555-0.7299204,6.5547009-2.1679497c0.459528-0.3063526,0.5837021-0.9272213,0.2773495-1.3867512
					C-8.4743023-2.014122-9.095171-2.1382961-9.5547009-1.8319435C-11.3976555-0.6033058-13.2078953,0.0001068-15,0.0001068
					S-18.6023445-0.6033058-20.4453011-1.8319435z"/>
				<path class="st0" d="M-22-11c0,0.5522842-0.4477158,1-1,1s-1-0.4477158-1-1c0-1.1045694-0.8954315-2-2-2s-2,0.8954306-2,2
					c0,0.5522842-0.4477158,1-1,1s-1-0.4477158-1-1c0-2.2091389,1.7908611-4,4-4S-22-13.2091389-22-11z"/>
				<path class="st0" d="M0-11c0,0.5522842-0.4477158,1-1,1s-1-0.4477158-1-1c0-1.1045694-0.8954296-2-2-2s-2,0.8954306-2,2
					c0,0.5522842-0.4477158,1-1,1s-1-0.4477158-1-1c0-2.2091389,1.7908611-4,4-4S0-13.2091389,0-11z"/>
			</g>
		</g>
	</g>
</g>
</svg>
