<?xml version="1.0" encoding="utf-8"?>
<!-- Generator: Adobe Illustrator 23.0.4, SVG Export Plug-In . SVG Version: 6.00 Build 0)  -->
<svg version="1.1" xmlns="http://www.w3.org/2000/svg" xmlns:xlink="http://www.w3.org/1999/xlink" x="0px" y="0px"
	 viewBox="0 0 100 100" style="enable-background:new 0 0 100 100;" xml:space="preserve">
<g id="Layer_3">
	<path d="M63.5,87.8h-1.7c-0.6,0-1,0.4-1,1s0.4,1,1,1h5.4c0.6,0,1-0.4,1-1s-0.4-1-1-1h-1.7"/>
</g>
<g id="Layer_4">
	<path d="M74.1,45.7c-1,0-2.1,0.2-3,0.4c1.1-0.7,2.3-1.2,3.7-1.4c3.1-0.6,5.8-0.1,5.8-0.1c0.4,0.1,0.8-0.1,1-0.4
		c0.2-0.3,0.3-0.7,0.1-1.1c-1.2-2.3-3.2-3.9-5.6-4.6c-2.4-0.7-5-0.5-7.3,0.7c-1.8,1-3.2,2.4-4.1,4.2c-0.9-1.8-2.3-3.2-4.1-4.2
		c-2.3-1.2-4.9-1.4-7.2-0.7c0.3,0.6,0.6,1.2,0.8,1.9c0.6-0.2,1.3-0.3,1.9-0.3c1.2,0,2.4,0.3,3.5,0.9c1.8,0.9,3.1,2.5,3.7,4.5
		c0.4,1.2,0.4,2.3,0.2,3.5c-2.2-4.1-5.8-5.6-8.6-6.2c0,0-0.1,0-0.1,0c0.1,0.7,0.2,1.4,0.3,2.1c1,0.3,2.1,0.7,3.1,1.3
		c-1-0.3-2-0.5-3-0.5c0,0.2,0,0.5,0,0.7c0,0.4,0,0.9-0.1,1.3c0,0,0,0,0,0c3.9,0,7.1,2.6,8.2,6.1c-2.6-1.8-5.2-2.4-7.5-2.4
		c-0.4,0-0.9,0-1.3,0.1c-0.2,0.7-0.5,1.4-0.8,2.1c0.5-0.1,1-0.1,1.5-0.2c-0.5,0.2-1,0.5-1.5,0.9c-0.2,0.2-0.4,0.3-0.6,0.5
		c-0.6,1.1-1.3,2.1-2.1,3c-1,2.6-0.7,5.6,1,8c0.2,0.3,0.5,0.4,0.8,0.4c0.1,0,0.1,0,0.2,0c0.4-0.1,0.7-0.4,0.8-0.8
		c0.1-0.3,2-8.2,9.7-7.9v31.1h2V57.5c7.7-0.3,9.6,7.5,9.7,7.9c0.1,0.4,0.4,0.7,0.8,0.8c0.1,0,0.1,0,0.2,0c0.3,0,0.6-0.1,0.8-0.4
		c1.3-1.8,1.9-3.9,1.5-6.1c-0.3-2.2-1.5-4.1-3.2-5.4c-0.5-0.4-1-0.7-1.5-0.9c5,0.1,8.9,3.3,9.1,3.5c0.3,0.3,0.7,0.3,1.1,0.1
		c0.4-0.2,0.6-0.5,0.6-0.9C84.6,50.3,79.9,45.7,74.1,45.7z M52.7,62.7c-0.7-2.4,0.1-5.2,2.2-6.8c2.1-1.5,4.8-1.6,6.9-0.3
		C56.6,56,53.9,60,52.7,62.7z M66,45.4c0.6-1.9,1.9-3.5,3.7-4.5c1.8-0.9,3.8-1.1,5.7-0.6c1.2,0.4,2.3,1.1,3.2,2c-0.3,0-0.5,0-0.8,0
		c-1,0-2.2,0.1-3.4,0.3c-2.8,0.6-6.3,2.1-8.6,6.2C65.6,47.8,65.7,46.6,66,45.4z M74.1,55.8c1.3,1,2.2,2.4,2.4,4.1
		c0.1,0.9,0.1,1.9-0.2,2.7c-1.2-2.6-3.9-6.6-9.1-7.2c1-0.6,2.1-0.9,3.2-0.9C71.7,54.6,73,55,74.1,55.8z M66,53.7
		c1-3.5,4.3-6.1,8.1-6.1c3.9,0,7.2,2.7,8.2,6.4C79.1,52.1,72.5,49.3,66,53.7z"/>
</g>
<g id="Layer_1">
	<path d="M51.1,59.4c3.2-3.3,5.1-7.7,5.1-12.6c0-1.2-0.1-2.3-0.3-3.5l-0.5-2.1C53,33.9,46,28.5,37.8,28.5
		c-10.1,0-18.4,8.2-18.4,18.3c0,9.7,7.7,17.7,17.4,18.2v22.8h-1.7c-0.6,0-1,0.4-1,1s0.4,1,1,1h5.4c0.6,0,1-0.4,1-1s-0.4-1-1-1h-1.7
		V65c4-0.2,7.8-1.7,10.7-4.1 M37.8,30.5c9,0,16.4,7.3,16.4,16.3c0,8.6-6.8,15.7-15.4,16.2v-7.3l5.5-5.5c0.4-0.4,0.4-1,0-1.4
		s-1-0.4-1.4,0l-4.1,4.1v-6.5c0-0.6-0.4-1-1-1s-1,0.4-1,1v6.5l-4.1-4.1c-0.4-0.4-1-0.4-1.4,0s-0.4,1,0,1.4l5.5,5.5V63
		c-8.6-0.5-15.4-7.6-15.4-16.2C21.4,37.8,28.7,30.5,37.8,30.5z"/>
	<path d="M89.8,19.6c-0.1-0.4-0.4-0.6-0.8-0.7l-6.9-1L79,11.7c-0.3-0.7-1.5-0.7-1.8,0l-3.1,6.2l-6.9,1c-0.4,0.1-0.7,0.3-0.8,0.7
		c-0.1,0.4,0,0.8,0.3,1l5,4.8l-1.2,6.8c-0.1,0.4,0.1,0.8,0.4,1c0.3,0.2,0.7,0.3,1.1,0.1l6.2-3.2l6.2,3.2c0.1,0.1,0.3,0.1,0.5,0.1
		c0.2,0,0.4-0.1,0.6-0.2c0.3-0.2,0.5-0.6,0.4-1l-1.2-6.8l5-4.8C89.9,20.3,90,19.9,89.8,19.6z M82.8,24.4c-0.2,0.2-0.3,0.6-0.3,0.9
		l0.9,5.4l-4.9-2.5C78.5,28,78.3,28,78.1,28s-0.3,0-0.5,0.1l-4.9,2.5l0.9-5.4c0.1-0.3-0.1-0.7-0.3-0.9l-3.9-3.8l5.4-0.8
		c0.3,0,0.6-0.2,0.8-0.5l2.4-4.9l2.4,4.9c0.1,0.3,0.4,0.5,0.8,0.5l5.4,0.8L82.8,24.4z"/>
	<path d="M28.5,16.1L23,15.3l-2.4-4.9c-0.3-0.7-1.5-0.7-1.8,0l-2.4,4.9l-5.5,0.8c-0.4,0.1-0.7,0.3-0.8,0.7c-0.1,0.4,0,0.8,0.3,1
		l4,3.8L13.3,27c-0.1,0.4,0.1,0.8,0.4,1c0.3,0.2,0.7,0.3,1.1,0.1l4.9-2.6l4.9,2.6c0.1,0.1,0.3,0.1,0.5,0.1c0.2,0,0.4-0.1,0.6-0.2
		c0.3-0.2,0.5-0.6,0.4-1l-0.9-5.4l4-3.8c0.3-0.3,0.4-0.7,0.3-1C29.2,16.4,28.8,16.1,28.5,16.1z M23.3,20.5c-0.2,0.2-0.3,0.6-0.3,0.9
		l0.7,3.9l-3.6-1.9c-0.3-0.2-0.6-0.2-0.9,0l-3.6,1.9l0.7-3.9c0.1-0.3-0.1-0.7-0.3-0.9l-2.9-2.8l4-0.6c0.3,0,0.6-0.2,0.8-0.5l1.8-3.6
		l1.8,3.6c0.1,0.3,0.4,0.5,0.8,0.5l4,0.6L23.3,20.5z"/>
	<path d="M56.2,14c-0.6,0-1,0.4-1,1v2.2h-2.2c-0.6,0-1,0.4-1,1s0.4,1,1,1h2.2v2.2c0,0.6,0.4,1,1,1s1-0.4,1-1v-2.2h2.2
		c0.6,0,1-0.4,1-1s-0.4-1-1-1h-2.2V15C57.2,14.4,56.7,14,56.2,14z"/>
	<path d="M60.7,26.7c-0.6,0-1,0.4-1,1v2.2h-2.2c-0.6,0-1,0.4-1,1s0.4,1,1,1h2.2v2.2c0,0.6,0.4,1,1,1s1-0.4,1-1v-2.2h2.2
		c0.6,0,1-0.4,1-1s-0.4-1-1-1h-2.2v-2.2C61.7,27.1,61.2,26.7,60.7,26.7z"/>
	<path d="M82,70.6c-0.6,0-1,0.4-1,1v2.2h-2.2c-0.6,0-1,0.4-1,1s0.4,1,1,1H81V78c0,0.6,0.4,1,1,1s1-0.4,1-1v-2.2h2.2c0.6,0,1-0.4,1-1
		s-0.4-1-1-1H83v-2.2C83,71.1,82.6,70.6,82,70.6z"/>
	<path d="M46,18.2c0-2.8-2.3-5.1-5.2-5.1c-2.9,0-5.2,2.3-5.2,5.1s2.3,5.1,5.2,5.1C43.6,23.3,46,21,46,18.2z M37.6,18.2
		c0-1.7,1.4-3.1,3.2-3.1c1.8,0,3.2,1.4,3.2,3.1s-1.4,3.1-3.2,3.1C39,21.3,37.6,19.9,37.6,18.2z"/>
	<path d="M19.5,63c-2.9,0-5.2,2.3-5.2,5.1s2.3,5.1,5.2,5.1s5.2-2.3,5.2-5.1S22.3,63,19.5,63z M19.5,71.3c-1.8,0-3.2-1.4-3.2-3.1
		s1.4-3.1,3.2-3.1s3.2,1.4,3.2,3.1S21.2,71.3,19.5,71.3z"/>
</g>
</svg>
