<?xml version="1.0" encoding="utf-8"?>
<!-- Generator: Adobe Illustrator 23.0.4, SVG Export Plug-In . SVG Version: 6.00 Build 0)  -->
<svg version="1.1" xmlns="http://www.w3.org/2000/svg" xmlns:xlink="http://www.w3.org/1999/xlink" x="0px" y="0px"
	 viewBox="0 0 100 125" style="enable-background:new 0 0 100 125;" xml:space="preserve">
<style type="text/css">
	.st0{display:none;}
	.st1{display:inline;}
</style>
<g id="Layer_4">
	<path d="M20.4,55.3c2.1-1.5,4.8-1.6,6.9-0.3c-5.3,0.5-8,4.5-9.1,7.2C17.4,59.7,18.2,56.9,20.4,55.3z M20.6,47.1
		c3.9,0,7.1,2.6,8.2,6.1c-2.6-1.8-5.2-2.4-7.5-2.4c-3.7,0-6.9,1.5-8.8,2.7C13.3,49.8,16.7,47.1,20.6,47.1z M29,48.4
		c-2.2-4.1-5.8-5.6-8.6-6.2c-1.6-0.3-3.1-0.4-4.3-0.3c1.4-1.5,3.4-2.3,5.4-2.3c1.2,0,2.4,0.3,3.5,0.9c1.8,0.9,3.1,2.5,3.7,4.5
		C29.1,46.1,29.2,47.3,29,48.4z M39.8,42.2c-2.8,0.6-6.3,2.1-8.6,6.2c-0.2-1.1-0.1-2.3,0.2-3.5c0.6-1.9,1.9-3.5,3.7-4.5
		c1.8-0.9,3.8-1.1,5.7-0.6c1.2,0.4,2.3,1.1,3.2,2c-0.3,0-0.5,0-0.8,0C42.2,41.8,41,41.9,39.8,42.2z M47.7,53.5
		c-3.2-1.9-9.8-4.7-16.3-0.3c1-3.5,4.3-6.1,8.1-6.1C43.5,47.1,46.8,49.8,47.7,53.5z M32.7,55c1-0.6,2.1-0.9,3.2-0.9
		c1.3,0,2.6,0.4,3.7,1.2c1.3,1,2.2,2.4,2.4,4.1c0.1,0.9,0.1,1.9-0.2,2.7C40.6,59.5,37.9,55.5,32.7,55z M47.8,77.6
		c3.1,0,5.8,2.5,6.7,6c-1.8-1.4-3.8-2.2-6-2.2c-0.1,0-0.2,0-0.2,0c-3,0-5.6,1.4-7.2,2.5C41.8,80.3,44.6,77.6,47.8,77.6z M54.7,77.8
		c-2.8-5.6-7.8-6.2-10.7-6.1c0.8-1.1,1.9-1.8,3-2.2c0.5-0.1,1-0.2,1.5-0.2c1,0,2,0.3,2.8,0.9C53.8,71.7,55,74.8,54.7,77.8z
		 M67.4,71.7c-0.2,0-0.4,0-0.6,0c-2.9,0-7.4,0.9-10.1,6.2c-0.3-3.1,1-6.1,3.3-7.7c1.3-0.9,2.9-1.1,4.3-0.6
		C65.6,69.9,66.6,70.6,67.4,71.7z M70.4,83.9c-1.7-1.2-4.4-2.6-7.4-2.5c-2.1,0.1-4.1,0.8-5.9,2.2c0.9-3.5,3.5-6,6.6-6
		C66.9,77.6,69.6,80.3,70.4,83.9z M31,91V57c7.7-0.3,9.6,7.5,9.7,7.9c0.1,0.4,0.4,0.7,0.8,0.8c0.1,0,0.1,0,0.2,0
		c0.3,0,0.6-0.1,0.8-0.4c1.3-1.8,1.9-3.9,1.5-6.1c-0.3-2.2-1.5-4.1-3.2-5.4c-0.5-0.4-1-0.7-1.5-0.9c5,0.1,8.9,3.3,9.1,3.5
		c0.3,0.3,0.7,0.3,1.1,0.1c0.4-0.2,0.6-0.5,0.6-0.9c0-5.8-4.7-10.4-10.4-10.4c-1,0-2.1,0.2-3,0.4c1.1-0.7,2.3-1.2,3.7-1.4
		c3.1-0.6,5.8-0.1,5.8-0.1c0.4,0.1,0.8-0.1,1-0.4c0.2-0.3,0.3-0.7,0.1-1.1c-1.2-2.3-3.2-3.9-5.6-4.6c-2.4-0.7-5-0.5-7.3,0.7
		c-1.8,1-3.2,2.4-4.1,4.2c-0.9-1.8-2.3-3.2-4.1-4.2c-4.6-2.5-10.4-0.7-12.9,3.9C13,43,13,43.4,13.2,43.7s0.6,0.5,1,0.4
		c0.3-0.1,5.3-1.1,9.5,1.5c-1-0.3-2-0.5-3.1-0.5c-5.8,0-10.5,4.7-10.5,10.5c0,0.4,0.2,0.7,0.6,0.9c0.4,0.2,0.8,0.1,1.1-0.1
		c0.2-0.2,4-3.3,8.9-3.5c-0.5,0.2-1,0.5-1.5,0.9c-3.6,2.7-4.4,7.9-1.7,11.5c0.2,0.3,0.5,0.4,0.8,0.4c0.1,0,0.1,0,0.2,0
		c0.4-0.1,0.7-0.4,0.8-0.8c0.1-0.3,2-8.2,9.7-7.9V91 M67,73.6c1.2,0,2,0.2,2.1,0.2c0.4,0.1,0.8,0,1-0.3c0.2-0.3,0.3-0.7,0.2-1.1
		c-0.7-1.7-1.9-3-3.2-3.9c0,0-0.9-0.6-2-1c-1.2-0.3,0,0,0,0c-2-0.6-4.1-0.3-6,0.9c-1.4,0.9-2.6,2.3-3.3,3.9c-0.7-1.6-1.8-3-3.3-3.9
		c-1.8-1.2-3.9-1.5-6-0.9c-2.3,0.7-4.2,2.5-5.2,4.9c-0.2,0.4-0.1,0.8,0.2,1.1s0.6,0.4,1,0.3c0.3-0.1,5.5-1.4,9.1,2.7
		c-1.1-0.6-2.4-1-3.8-1c-5,0-9,4.8-9,10.7c0,0.4,0.2,0.8,0.6,0.9c0.4,0.2,0.8,0.1,1.1-0.2c0,0,3.6-3.7,8-3.5
		c2.3,0.1,4.4,1.1,6.3,3.2l0,4.4l2,0l0-4.4c1.9-2.1,4-3.2,6.3-3.2c0.7,0,1.3,0.1,1.9,0.2h0l2,0.6c2.3,1,3.9,2.7,4,2.7
		c0.3,0.3,0.7,0.4,1.1,0.2c0.4-0.2,0.6-0.5,0.6-0.9c0-4.5-2.4-8.3-5.7-9.9c0,0-0.7-0.4-2-0.6c-0.7-0.1-0.8-0.1-1.3-0.1
		c-1.3,0-2.6,0.4-3.7,1c1.5-1.8,3.4-2.5,5-2.8h0"/>
	<path d="M54.7,91H53c-0.6,0-1,0.4-1,1s0.4,1,1,1h5.4c0.6,0,1-0.4,1-1s-0.4-1-1-1h-1.7"/>
	<path d="M29.1,91h-1.7c-0.6,0-1,0.4-1,1s0.4,1,1,1h5.4c0.6,0,1-0.4,1-1s-0.4-1-1-1h-1.7"/>
</g>
<g id="Layer_6">
</g>
<g id="Layer_5">
	<path d="M83.9,27.4c-0.1-0.4-0.4-0.6-0.8-0.7l-6.9-1l-3.1-6.2c-0.3-0.7-1.5-0.7-1.8,0l-3.1,6.2l-6.9,1c-0.4,0.1-0.7,0.3-0.8,0.7
		c-0.1,0.4,0,0.8,0.3,1l5,4.8l-1.2,6.8c-0.1,0.4,0.1,0.8,0.4,1c0.3,0.2,0.7,0.3,1.1,0.1l6.2-3.2l6.2,3.2c0.1,0.1,0.3,0.1,0.5,0.1
		c0.2,0,0.4-0.1,0.6-0.2c0.3-0.2,0.5-0.6,0.4-1l-1.2-6.8l5-4.8C83.9,28.2,84,27.8,83.9,27.4z M76.8,32.2c-0.2,0.2-0.3,0.6-0.3,0.9
		l0.9,5.4l-4.9-2.5c-0.1-0.1-0.3-0.1-0.5-0.1s-0.3,0-0.5,0.1l-4.9,2.5l0.9-5.4c0.1-0.3-0.1-0.7-0.3-0.9l-3.9-3.8l5.4-0.8
		c0.3,0,0.6-0.2,0.8-0.5l2.4-4.9l2.4,4.9c0.1,0.3,0.4,0.5,0.8,0.5l5.4,0.8L76.8,32.2z"/>
	<path d="M31.5,19.8l-4.9-0.7l-2.2-4.4c-0.3-0.6-1.3-0.6-1.6,0l-2.2,4.4l-4.9,0.7c-0.3,0-0.6,0.3-0.7,0.6c-0.1,0.3,0,0.7,0.2,0.9
		l3.5,3.4L18,29.5c-0.1,0.3,0.1,0.7,0.4,0.9c0.3,0.2,0.6,0.2,0.9,0.1l4.4-2.3l4.4,2.3c0.1,0.1,0.3,0.1,0.4,0.1
		c0.2,0,0.4-0.1,0.5-0.2c0.3-0.2,0.4-0.5,0.4-0.9l-0.8-4.8l3.5-3.4c0.2-0.2,0.3-0.6,0.2-0.9C32.1,20,31.8,19.8,31.5,19.8z
		 M26.9,23.7c-0.2,0.2-0.3,0.5-0.3,0.8l0.6,3.5l-3.2-1.7c-0.3-0.1-0.6-0.1-0.8,0L20.1,28l0.6-3.5c0.1-0.3,0-0.6-0.3-0.8l-2.6-2.5
		l3.5-0.5c0.3,0,0.5-0.2,0.7-0.5l1.6-3.2l1.6,3.2c0.1,0.3,0.4,0.4,0.7,0.5l3.5,0.5L26.9,23.7z"/>
	<path d="M61.3,47.8c-0.6,0-1,0.4-1,1V51H58c-0.6,0-1,0.4-1,1s0.4,1,1,1h2.2v2.2c0,0.6,0.4,1,1,1s1-0.4,1-1V53h2.2c0.6,0,1-0.4,1-1
		s-0.4-1-1-1h-2.2v-2.2C62.3,48.2,61.8,47.8,61.3,47.8z"/>
	<path d="M75.1,53c-0.6,0-1,0.4-1,1v2.2h-2.2c-0.6,0-1,0.4-1,1s0.4,1,1,1h2.2v2.2c0,0.6,0.4,1,1,1c0.6,0,1-0.4,1-1v-2.2h2.2
		c0.6,0,1-0.4,1-1s-0.4-1-1-1h-2.2V54C76.1,53.4,75.7,53,75.1,53z"/>
	<path d="M18.4,74.2c-0.6,0-1,0.4-1,1v2.2h-2.2c-0.6,0-1,0.4-1,1s0.4,1,1,1h2.2v2.2c0,0.6,0.4,1,1,1s1-0.4,1-1v-2.2h2.2
		c0.6,0,1-0.4,1-1s-0.4-1-1-1h-2.2v-2.2C19.4,74.7,19,74.2,18.4,74.2z"/>
	<path d="M51.9,23.8c0-2.8-2.3-5.1-5.2-5.1c-2.9,0-5.2,2.3-5.2,5.1s2.3,5.1,5.2,5.1C49.5,28.9,51.9,26.6,51.9,23.8z M43.5,23.8
		c0-1.7,1.4-3.1,3.2-3.1c1.8,0,3.2,1.4,3.2,3.1s-1.4,3.1-3.2,3.1C44.9,26.9,43.5,25.5,43.5,23.8z"/>
	<path d="M81.6,72.4c-2.9,0-5.2,2.3-5.2,5.1s2.3,5.1,5.2,5.1s5.2-2.3,5.2-5.1S84.5,72.4,81.6,72.4z M81.6,80.6
		c-1.8,0-3.2-1.4-3.2-3.1s1.4-3.1,3.2-3.1s3.2,1.4,3.2,3.1S83.4,80.6,81.6,80.6z"/>
</g>
<g id="Layer_1" class="st0">
	<path class="st1" d="M36.8,88h-1.7c-0.6,0-1,0.4-1,1s0.4,1,1,1h5.4c0.6,0,1-0.4,1-1s-0.4-1-1-1h-1.7 M65.4,68.8v-4.5l5.5-5.5
		c0.4-0.4,0.4-1,0-1.4c-0.4-0.4-1-0.4-1.4,0l-4.1,4.1V55c0-0.6-0.4-1-1-1s-1,0.4-1,1v6.5l-4.1-4.1c-0.4-0.4-1-0.4-1.4,0
		s-0.4,1,0,1.4l5.5,5.5v4.5l0,2V88h-1.7c-0.6,0-1,0.4-1,1s0.4,1,1,1h5.4c0.6,0,1-0.4,1-1s-0.4-1-1-1h-1.7V70.8L65.4,68.8z M54.2,47"
		/>
	<path class="st1" d="M89.8,19.8c-0.1-0.4-0.4-0.6-0.8-0.7l-6.9-1L79,11.9c-0.3-0.7-1.5-0.7-1.8,0l-3.1,6.2l-6.9,1
		c-0.4,0.1-0.7,0.3-0.8,0.7c-0.1,0.4,0,0.8,0.3,1l5,4.8l-1.2,6.8c-0.1,0.4,0.1,0.8,0.4,1c0.3,0.2,0.7,0.3,1.1,0.1l6.2-3.2l6.2,3.2
		c0.1,0.1,0.3,0.1,0.5,0.1c0.2,0,0.4-0.1,0.6-0.2c0.3-0.2,0.5-0.6,0.4-1l-1.2-6.8l5-4.8C89.9,20.6,90,20.2,89.8,19.8z M82.8,24.6
		c-0.2,0.2-0.3,0.6-0.3,0.9l0.9,5.4l-4.9-2.5c-0.1-0.1-0.3-0.1-0.5-0.1s-0.3,0-0.5,0.1l-4.9,2.5l0.9-5.4c0.1-0.3-0.1-0.7-0.3-0.9
		l-3.9-3.8L75,20c0.3,0,0.6-0.2,0.8-0.5l2.4-4.9l2.4,4.9c0.1,0.3,0.4,0.5,0.8,0.5l5.4,0.8L82.8,24.6z"/>
	<path class="st1" d="M26.5,15.6l-4.9-0.7l-2.2-4.4c-0.3-0.6-1.3-0.6-1.6,0l-2.2,4.4l-4.9,0.7c-0.3,0-0.6,0.3-0.7,0.6
		c-0.1,0.3,0,0.7,0.2,0.9l3.5,3.4L13,25.3c-0.1,0.3,0.1,0.7,0.4,0.9c0.3,0.2,0.6,0.2,0.9,0.1l4.4-2.3l4.4,2.3
		c0.1,0.1,0.3,0.1,0.4,0.1c0.2,0,0.4-0.1,0.5-0.2c0.3-0.2,0.4-0.5,0.4-0.9l-0.8-4.8l3.5-3.4c0.2-0.2,0.3-0.6,0.2-0.9
		C27.1,15.9,26.8,15.6,26.5,15.6z M21.8,19.6c-0.2,0.2-0.3,0.5-0.3,0.8l0.6,3.5L19,22.2c-0.3-0.1-0.6-0.1-0.8,0L15,23.9l0.6-3.5
		c0.1-0.3,0-0.6-0.3-0.8l-2.6-2.5l3.5-0.5c0.3,0,0.5-0.2,0.7-0.5l1.6-3.2l1.6,3.2c0.1,0.3,0.4,0.4,0.7,0.5l3.5,0.5L21.8,19.6z"/>
	<path class="st1" d="M56.2,14.2c-0.6,0-1,0.4-1,1v2.2h-2.2c-0.6,0-1,0.4-1,1s0.4,1,1,1h2.2v2.2c0,0.6,0.4,1,1,1s1-0.4,1-1v-2.2h2.2
		c0.6,0,1-0.4,1-1s-0.4-1-1-1h-2.2v-2.2C57.2,14.6,56.7,14.2,56.2,14.2z"/>
	<path class="st1" d="M60.7,26.9c-0.6,0-1,0.4-1,1v2.2h-2.2c-0.6,0-1,0.4-1,1s0.4,1,1,1h2.2v2.2c0,0.6,0.4,1,1,1s1-0.4,1-1v-2.2h2.2
		c0.6,0,1-0.4,1-1s-0.4-1-1-1h-2.2v-2.2C61.7,27.4,61.2,26.9,60.7,26.9z"/>
	<path class="st1" d="M82,70.9c-0.6,0-1,0.4-1,1v2.2h-2.2c-0.6,0-1,0.4-1,1s0.4,1,1,1H81v2.2c0,0.6,0.4,1,1,1s1-0.4,1-1v-2.2h2.2
		c0.6,0,1-0.4,1-1s-0.4-1-1-1H83v-2.2C83,71.3,82.6,70.9,82,70.9z"/>
	<path class="st1" d="M46,18.4c0-2.8-2.3-5.1-5.2-5.1c-2.9,0-5.2,2.3-5.2,5.1s2.3,5.1,5.2,5.1C43.6,23.5,46,21.2,46,18.4z
		 M37.6,18.4c0-1.7,1.4-3.1,3.2-3.1c1.8,0,3.2,1.4,3.2,3.1s-1.4,3.1-3.2,3.1C39,21.5,37.6,20.1,37.6,18.4z"/>
	<path class="st1" d="M19.5,67.2c-2.9,0-5.2,2.3-5.2,5.1s2.3,5.1,5.2,5.1s5.2-2.3,5.2-5.1S22.3,67.2,19.5,67.2z M19.5,75.5
		c-1.8,0-3.2-1.4-3.2-3.1s1.4-3.1,3.2-3.1s3.2,1.4,3.2,3.1S21.2,75.5,19.5,75.5z"/>
	<path class="st1" d="M-48.9,104h78"/>
</g>
<g id="Layer_3" class="st0">
	<path class="st1" d="M50.8,50.7c0.4-1.3,1-2.6,1.8-3.7l-2.1-0.6c-0.6,0.9-1,1.9-1.4,2.9 M48.1,54.9c0,0.2,0,0.3,0,0.5
		c0.2,8.8,7.4,15.8,16.2,15.8c9,0,16.2-7.3,16.2-16.2s-7.3-16.2-16.2-16.2c-3.6,0-7,1.2-9.7,3.2l1.8,1.3c2.3-1.5,5-2.4,7.9-2.4
		c7.8,0,14.1,6.3,14.1,14.1s-6.3,14.1-14.1,14.1c-7.1,0-13.1-5.3-14-12.2"/>
</g>
<g id="Layer_2" class="st0">
	<path class="st1" d="M49.2,38.9c-1.8,0-3.6,0.4-5.2,1.1c5.3-4.4,12.6-2.9,13-2.8c0.4,0.1,0.8-0.1,1-0.4c0.2-0.3,0.3-0.7,0.1-1.1
		c-1.4-2.7-3.8-4.6-6.7-5.5c-2.9-0.9-6-0.6-8.6,0.8c-2.3,1.2-4,3.1-5,5.4c-1-2.3-2.8-4.2-5-5.4c-2.7-1.4-5.7-1.7-8.6-0.8
		c-2.9,0.9-5.3,2.8-6.7,5.5c-0.2,0.3-0.1,0.8,0.1,1.1s0.6,0.5,1,0.4c0,0,3.3-0.7,7.1,0.1c2.3,0.5,4.2,1.4,5.8,2.7
		c-1.5-0.7-3.3-1.1-5.1-1.1c-6.8,0-12.4,5.6-12.4,12.4c0,0.4,0.2,0.7,0.6,0.9c0.4,0.2,0.8,0.1,1.1-0.1c0,0,2.9-2.5,7-3.6
		c1.8-0.5,3.5-0.7,5.2-0.6c-1,0.3-1.9,0.8-2.8,1.4c-4.3,3.2-5.2,9.3-2,13.6c0.2,0.3,0.5,0.4,0.8,0.4c0.1,0,0.1,0,0.2,0
		c0.4-0.1,0.7-0.4,0.8-0.8c0.1-0.4,2.5-10.3,12.2-9.7v36.9h2V52.8c9.6-0.6,12,9.3,12.1,9.7c0.1,0.4,0.4,0.7,0.8,0.8
		c0.1,0,0.1,0,0.2,0c0.3,0,0.6-0.1,0.8-0.4c1.6-2.1,2.2-4.7,1.8-7.2s-1.7-4.8-3.8-6.4c-0.9-0.7-1.8-1.1-2.8-1.4
		c1.6-0.1,3.2,0.2,5,0.6c4.1,1.2,7.1,3.6,7.1,3.7c0.3,0.3,0.7,0.3,1.1,0.1c0.4-0.2,0.6-0.5,0.6-0.9C61.7,44.5,56.1,38.9,49.2,38.9z
		 M23.6,59.8c-1.2-3.2-0.2-6.9,2.6-9c1.4-1,3-1.5,4.6-1.5c1.6,0,3.2,0.5,4.5,1.4C28.2,51.1,24.9,56.6,23.6,59.8z M16.1,49.2
		c1-4.8,5.2-8.3,10.2-8.3c4.9,0,9.1,3.4,10.1,8.1C28.2,43,19.8,46.9,16.1,49.2z M36.5,43.3c-3.6-7.1-10.5-8.3-14.7-8.3
		c-0.5,0-1,0-1.4,0c1.1-1.3,2.6-2.3,4.3-2.8c2.4-0.7,4.9-0.5,7.1,0.7c2.2,1.2,3.8,3.1,4.5,5.5C36.8,40,36.9,41.7,36.5,43.3z
		 M39.1,38.4c0.7-2.4,2.3-4.3,4.5-5.5c1.4-0.7,2.9-1.1,4.4-1.1c0.9,0,1.8,0.1,2.7,0.4c1.7,0.5,3.2,1.5,4.3,2.8
		c-4-0.3-12.1,0.3-16.2,8.3C38.6,41.7,38.6,40,39.1,38.4z M49.6,50.8c1.7,1.2,2.7,3,3,5.1c0.2,1.3,0,2.7-0.4,3.9
		c-1.3-3.2-4.7-8.7-11.7-9.1c1-0.7,2.1-1.2,3.4-1.4C45.9,49.1,48,49.6,49.6,50.8z M48.5,45.8c-3,0-6.3,0.8-9.5,3.2
		c1.1-4.6,5.2-8.1,10.2-8.1c5.1,0,9.3,3.6,10.3,8.4C57.2,47.9,53.2,45.8,48.5,45.8z"/>
</g>
</svg>
