<svg xmlns="http://www.w3.org/2000/svg" xmlns:xlink="http://www.w3.org/1999/xlink" version="1.1" x="0px" y="0px" viewBox="0 0 64 80" style="enable-background:new 0 0 64 64;" xml:space="preserve"><g><rect x="31" y="55" width="2" height="2"/><rect x="39" y="51" width="2" height="2"/><rect x="23" y="51" width="2" height="2"/><path d="M61,53V39h-3v-2.142c1.72-0.447,3-1.999,3-3.858c0-0.859-0.284-1.712-0.8-2.399L57,26.333l-3.2,4.268   C53.284,31.288,53,32.141,53,33c0,1.859,1.28,3.411,3,3.858V39h-3v14h-2V18c0-2.757-2.243-5-5-5H35v-2h4V5h-4V1h-6v4h-4v6h4v2H18   c-2.757,0-5,2.243-5,5v35h-2V39H8v-2.142c1.72-0.447,3-1.999,3-3.858c0-0.859-0.284-1.712-0.8-2.399L7,26.333l-3.2,4.268   C3.284,31.288,3,32.141,3,33c0,1.859,1.28,3.411,3,3.858V39H3v14H1v6h21v-0.011c0.058,0.003,0.116,0.014,0.175,0.014   c0.625,0,1.25-0.147,1.827-0.442c0.666,0.338,1.404,0.456,2.134,0.398c0.026,1.264,0.611,2.473,1.652,3.248   c0.713,0.531,1.55,0.797,2.388,0.797c0.624,0,1.25-0.147,1.825-0.441c1.347,0.688,2.967,0.571,4.213-0.355   c1.041-0.775,1.626-1.984,1.652-3.248c0.73,0.058,1.468-0.06,2.134-0.397c0.576,0.295,1.202,0.442,1.827,0.442   c0.058,0,0.116-0.011,0.175-0.014V59h21v-6H61z M55,33c0-0.436,0.138-0.851,0.4-1.2l1.6-2.133l1.6,2.133   c0.262,0.35,0.4,0.765,0.4,1.2c0,1.103-0.897,2-2,2S55,34.103,55,33z M5,33c0-0.436,0.138-0.851,0.4-1.2L7,29.667L8.6,31.8   C8.862,32.149,9,32.564,9,33c0,1.103-0.897,2-2,2S5,34.103,5,33z M55,41h4v12h-4V41z M27,9V7h4V3h2v4h4v2h-4v6h-2V9H27z M15,18   c0-1.654,1.346-3,3-3h11v2h6v-2h11c1.654,0,3,1.346,3,3v35h-2.36c0.399-0.91,0.479-1.952,0.163-2.945   c-0.472-1.489-1.71-2.553-3.195-2.805C42.919,45.881,41.542,45,40,45s-2.919,0.881-3.608,2.25c-1.22,0.207-2.268,0.969-2.866,2.059   C33.051,49.113,32.537,49,32,49s-1.051,0.113-1.525,0.309c-0.598-1.09-1.646-1.852-2.866-2.059C26.919,45.881,25.542,45,24,45   s-2.919,0.881-3.608,2.25c-1.484,0.252-2.723,1.315-3.195,2.804C16.881,51.048,16.961,52.09,17.36,53H15V18z M5,41h4v12H5V41z    M3,55h15.138c0.022,0.708,0.216,1.396,0.572,2H3V55z M24,56.138l-0.6,0.448c-0.728,0.544-1.7,0.551-2.419,0.017   c-0.735-0.548-1.035-1.521-0.746-2.422l0.219-0.683l-0.576-0.427c-0.746-0.553-1.058-1.521-0.775-2.413   c0.278-0.877,1.07-1.466,1.973-1.466c0.002,0,0.004,0,0.006,0l0.736,0.002l0.221-0.702C22.319,47.6,23.107,47,24,47   s1.681,0.6,1.961,1.492l0.221,0.702l0.736-0.002c0.002,0,0.004,0,0.006,0c0.863,0,1.612,0.547,1.92,1.361   c-0.17,0.216-0.327,0.445-0.454,0.697c-1.483,0.253-2.723,1.315-3.194,2.804c-0.305,0.962-0.242,1.971,0.123,2.86   c-0.254-0.065-0.501-0.163-0.72-0.327L24,56.138z M36.122,57.071l-0.576,0.427l0.219,0.683c0.289,0.901-0.011,1.874-0.746,2.422   c-0.72,0.534-1.692,0.528-2.419-0.017L32,60.137l-0.6,0.449c-0.728,0.545-1.7,0.551-2.419,0.017   c-0.735-0.548-1.035-1.521-0.746-2.422l0.219-0.683l-0.576-0.427c-0.746-0.553-1.058-1.521-0.775-2.413   c0.278-0.877,1.07-1.466,1.973-1.466c0.002,0,0.004,0,0.006,0l0.737,0.002l0.22-0.702C30.319,51.6,31.107,51,32,51   s1.681,0.6,1.961,1.492l0.22,0.702l0.737-0.002c0.002,0,0.004,0,0.006,0c0.902,0,1.694,0.589,1.973,1.466v0.001   C37.179,55.55,36.868,56.519,36.122,57.071z M40.6,56.586L40,56.138l-0.6,0.448c-0.219,0.164-0.466,0.262-0.72,0.327   c0.366-0.889,0.428-1.898,0.123-2.86c-0.472-1.488-1.711-2.552-3.194-2.804c-0.127-0.252-0.284-0.48-0.454-0.697   c0.308-0.814,1.057-1.361,1.92-1.361c0.002,0,0.004,0,0.006,0l0.736,0.002l0.221-0.702C38.319,47.6,39.107,47,40,47   s1.681,0.6,1.961,1.492l0.221,0.702l0.736-0.002c0.002,0,0.004,0,0.006,0c0.902,0,1.694,0.589,1.973,1.467   c0.282,0.891-0.029,1.859-0.775,2.412l-0.576,0.427l0.219,0.683c0.289,0.901-0.011,1.874-0.746,2.422   C42.299,57.137,41.326,57.13,40.6,56.586z M61,57H45.291c0.356-0.604,0.55-1.292,0.572-2H61V57z"/><path d="M39,19H25v16h14V19z M37,33H27V21h10V33z"/><rect x="19" y="37" width="26" height="2"/><rect x="19" y="41" width="26" height="2"/><rect x="17" y="17" width="2" height="2"/><rect x="45" y="17" width="2" height="2"/></g>

<!--

tomb by Eucalyp from the Noun Project
https://thenounproject.com/term/tomb/2471914/

<text x="0" y="79" fill="#000000" font-size="5px" font-weight="bold" font-family="'Helvetica Neue', Helvetica, Arial-Unicode, Arial, Sans-serif">Created by Eucalyp</text><text x="0" y="84" fill="#000000" font-size="5px" font-weight="bold" font-family="'Helvetica Neue', Helvetica, Arial-Unicode, Arial, Sans-serif">from the Noun Project</text>

-->

</svg>