<svg xmlns="http://www.w3.org/2000/svg" xmlns:xlink="http://www.w3.org/1999/xlink" version="1.1" x="0px" y="0px" viewBox="0 0 100 125" style="enable-background:new 0 0 100 100;" xml:space="preserve"><style type="text/css">
	.st0{fill:none;stroke:#000000;stroke-width:2;stroke-linecap:round;stroke-linejoin:round;stroke-miterlimit:10;}
</style><path d="M89.125,87.97H71.16V53.896c7.645-0.319,9.608,7.543,9.689,7.891c0.089,0.379,0.39,0.673,0.771,0.753  c0.068,0.014,0.137,0.021,0.205,0.021c0.312,0,0.61-0.146,0.802-0.402c2.705-3.637,1.947-8.796-1.689-11.502  c-0.476-0.354-0.978-0.645-1.497-0.882c4.865,0.185,8.659,3.323,8.903,3.529c0.298,0.251,0.716,0.307,1.067,0.145  c0.354-0.164,0.58-0.518,0.58-0.907c0-5.783-4.704-10.487-10.487-10.487c-1.07,0-2.103,0.163-3.076,0.462  c4.135-2.578,9.163-1.55,9.467-1.484c0.38,0.084,0.775-0.062,1.01-0.373s0.269-0.729,0.086-1.073  c-2.473-4.646-8.262-6.416-12.91-3.943c-1.787,0.951-3.187,2.414-4.064,4.195c-0.877-1.781-2.276-3.244-4.064-4.195  c-2.25-1.197-4.831-1.446-7.272-0.702c-2.438,0.745-4.44,2.395-5.638,4.646c-0.184,0.345-0.149,0.764,0.086,1.074  c0.236,0.311,0.632,0.457,1.012,0.372c0.027-0.006,2.7-0.579,5.78,0.058c1.38,0.285,2.597,0.775,3.671,1.438  c-0.954-0.288-1.963-0.447-3.009-0.447c-5.754,0-10.435,4.681-10.435,10.435c0,0.39,0.227,0.743,0.58,0.907  c0.352,0.161,0.77,0.105,1.067-0.146c0.246-0.208,4.147-3.438,9.107-3.516c-0.531,0.239-1.047,0.534-1.533,0.896  c-1.762,1.311-2.908,3.229-3.227,5.401c-0.319,2.173,0.227,4.34,1.538,6.101c0.19,0.257,0.489,0.402,0.801,0.402  c0.068,0,0.137-0.007,0.205-0.021c0.381-0.08,0.682-0.374,0.771-0.753c0.081-0.347,2.03-8.217,9.703-7.889V87.97H45.373l0.005-4.358  c1.922-2.068,4.043-3.157,6.314-3.216c4.31-0.134,7.92,3.495,7.955,3.532c0.284,0.29,0.716,0.382,1.093,0.228  c0.376-0.154,0.623-0.52,0.623-0.926c0-5.88-4.037-10.663-9-10.663c-1.343,0-2.613,0.36-3.759,0.987  c3.561-4.08,8.793-2.794,9.071-2.719c0.371,0.099,0.767-0.024,1.017-0.316s0.311-0.701,0.155-1.054  c-1.075-2.442-2.988-4.232-5.248-4.913c-2.014-0.605-4.128-0.295-5.954,0.879c-1.442,0.927-2.554,2.309-3.282,3.917  c-0.728-1.608-1.84-2.99-3.281-3.917c-1.827-1.175-3.942-1.484-5.954-0.879c-0.001,0-0.003,0.001-0.004,0.001V33.024  c9.616-0.57,12.035,9.291,12.136,9.723c0.089,0.379,0.39,0.673,0.771,0.753c0.068,0.014,0.137,0.021,0.205,0.021  c0.312,0,0.61-0.146,0.802-0.402c3.203-4.307,2.306-10.416-2.001-13.62c-0.875-0.651-1.826-1.124-2.811-1.441  c1.596-0.058,3.247,0.157,4.95,0.649c4.134,1.195,7.05,3.641,7.079,3.665c0.298,0.252,0.715,0.307,1.067,0.146  c0.354-0.164,0.58-0.518,0.58-0.907c0-6.879-5.597-12.476-12.477-12.476c-1.849,0-3.599,0.415-5.179,1.14  c5.256-4.374,12.551-2.878,12.954-2.791c0.383,0.082,0.775-0.062,1.011-0.373c0.234-0.311,0.269-0.729,0.086-1.073  c-1.422-2.673-3.8-4.633-6.696-5.518c-2.896-0.883-5.962-0.588-8.637,0.834c-2.314,1.231-4.018,3.16-5.011,5.387  c-1.022-2.3-2.761-4.187-5.018-5.387c-2.674-1.423-5.743-1.718-8.637-0.834c-2.896,0.885-5.274,2.845-6.696,5.518  c-0.184,0.345-0.149,0.764,0.086,1.074c0.236,0.311,0.633,0.457,1.012,0.372c0.033-0.009,3.312-0.711,7.08,0.069  c2.289,0.473,4.222,1.391,5.823,2.706c-1.549-0.696-3.26-1.092-5.066-1.092c-6.844,0-12.412,5.568-12.412,12.413  c0,0.39,0.227,0.744,0.581,0.908c0.353,0.162,0.771,0.105,1.067-0.146c0.028-0.024,2.877-2.425,6.975-3.625  c1.8-0.527,3.541-0.738,5.221-0.647c-0.971,0.318-1.91,0.788-2.774,1.43c-4.307,3.204-5.204,9.313-2.001,13.62  c0.191,0.257,0.49,0.402,0.802,0.402c0.068,0,0.137-0.007,0.205-0.021c0.381-0.08,0.682-0.374,0.771-0.753  c0.101-0.432,2.54-10.297,12.151-9.721v32.491c-1.369,0.914-2.507,2.272-3.245,3.948c-0.154,0.352-0.094,0.759,0.155,1.051  c0.248,0.293,0.646,0.421,1.014,0.319c0.106-0.027,0.918-0.226,2.076-0.246v2.753c-3.317,1.556-5.672,5.385-5.672,9.861  c0,0.407,0.247,0.773,0.624,0.927c0.376,0.15,0.81,0.062,1.093-0.229c0.024-0.024,1.608-1.649,3.955-2.68v6.75H11.125  c-0.553,0-1,0.447-1,1s0.447,1,1,1h78c0.553,0,1-0.447,1-1S89.678,87.97,89.125,87.97z M81.979,59.072  c-1.19-2.618-3.857-6.636-9.144-7.158c2.098-1.251,4.83-1.198,6.908,0.347C81.908,53.87,82.725,56.629,81.979,59.072z   M87.733,50.463c-1.929-1.163-5.146-2.674-8.843-2.674c-2.387,0-4.973,0.63-7.541,2.39c1.025-3.535,4.292-6.126,8.153-6.126  C83.467,44.053,86.804,46.783,87.733,50.463z M71.347,41.862c0.589-1.927,1.894-3.51,3.673-4.456  c1.126-0.599,2.337-0.883,3.531-0.883c2.018,0,3.988,0.811,5.422,2.282c-1.169-0.054-2.664-0.009-4.266,0.323  c-2.793,0.578-6.347,2.145-8.584,6.222C70.924,44.201,70.996,43.012,71.347,41.862z M56.881,38.787c-0.29,0-0.566,0.007-0.825,0.019  c0.876-0.903,1.971-1.576,3.208-1.954c1.927-0.589,3.97-0.393,5.749,0.555c1.779,0.946,3.083,2.529,3.672,4.456  c0.352,1.149,0.423,2.338,0.224,3.488c-2.236-4.077-5.79-5.644-8.583-6.222C59.078,38.871,57.894,38.787,56.881,38.787z   M60.582,44.079c3.831,0,7.073,2.568,8.098,6.073c-6.501-4.446-13.115-1.618-16.273,0.283  C53.334,46.786,56.648,44.079,60.582,44.079z M58.325,59.077c-0.268-0.872-0.341-1.8-0.204-2.729  c0.241-1.645,1.108-3.096,2.441-4.087c1.113-0.828,2.414-1.228,3.705-1.228c1.119,0,2.229,0.3,3.203,0.881  C62.183,52.438,59.515,56.459,58.325,59.077z M48.444,40.086c-1.339-3.175-4.664-8.687-11.716-9.07  c2.66-1.9,6.352-1.967,9.113,0.088C48.686,33.219,49.658,36.929,48.444,40.086z M55.695,29.535  c-2.24-1.413-6.298-3.461-11.005-3.461c-2.996,0-6.255,0.83-9.475,3.183c1.07-4.647,5.241-8.123,10.209-8.123  C50.492,21.134,54.73,24.749,55.695,29.535z M39.903,13.118c1.37-0.729,2.865-1.099,4.374-1.099c0.916,0,1.838,0.137,2.739,0.412  c1.709,0.521,3.199,1.499,4.338,2.821c-3.972-0.251-12.135,0.3-16.15,8.271C34.245,19.49,36.077,15.153,39.903,13.118z   M17.973,15.207c-0.519,0-0.998,0.019-1.429,0.046c1.139-1.322,2.629-2.3,4.338-2.821c2.386-0.729,4.913-0.485,7.113,0.687  c2.202,1.171,3.816,3.13,4.545,5.515c0.493,1.615,0.541,3.295,0.156,4.895C29.117,16.417,22.238,15.207,17.973,15.207z   M12.332,29.504c0.965-4.751,5.174-8.339,10.205-8.339c4.933,0,9.074,3.448,10.144,8.06C24.461,23.229,15.983,27.203,12.332,29.504z   M19.786,40.086c-1.214-3.157-0.241-6.867,2.603-8.982c1.384-1.029,3.002-1.525,4.606-1.525c1.597,0,3.18,0.491,4.507,1.438  C24.451,31.4,21.125,36.911,19.786,40.086z M59.106,80.904c-1.66-1.16-4.234-2.512-7.213-2.512c-0.079,0-0.159,0.001-0.238,0.003  c-2.129,0.052-4.126,0.793-5.964,2.207c0.9-3.496,3.551-6.036,6.671-6.036C55.571,74.566,58.283,77.253,59.106,80.904z   M48.727,67.111c0.887-0.569,1.862-0.86,2.845-0.86c0.485,0,0.973,0.071,1.45,0.215c1.161,0.35,2.209,1.108,3.024,2.161  c-2.842-0.104-7.834,0.565-10.652,6.146C45.125,71.711,46.366,68.628,48.727,67.111z M35.703,66.466  c1.445-0.434,2.971-0.206,4.296,0.646c2.359,1.517,3.602,4.6,3.332,7.661c-2.64-5.227-7.184-6.157-10.086-6.157  c-0.197,0-0.386,0.005-0.566,0.012C33.494,67.574,34.542,66.815,35.703,66.466z M35.123,70.746c1.628,0.292,3.473,1.056,5.008,2.82  c-1.136-0.618-2.394-0.973-3.723-0.973c-0.437,0-0.864,0.05-1.284,0.122V70.746z M36.407,74.593c3.096,0,5.726,2.517,6.624,5.983  c-1.825-1.401-3.808-2.135-5.921-2.187c-3.021-0.081-5.706,1.305-7.401,2.488C30.53,77.256,33.223,74.593,36.407,74.593z   M35.123,80.573c0.621-0.13,1.268-0.205,1.939-0.184c2.273,0.055,4.394,1.148,6.315,3.227l-0.005,4.353h-8.25V80.573z"/>

<!--
palm trees by Made by Made from the Noun Project
https://thenounproject.com/made.somewhere/collection/trees/?i=1227595

<text x="0" y="115" fill="#000000" font-size="5px" font-weight="bold" font-family="'Helvetica Neue', Helvetica, Arial-Unicode, Arial, Sans-serif">Created by Made by Made</text><text x="0" y="120" fill="#000000" font-size="5px" font-weight="bold" font-family="'Helvetica Neue', Helvetica, Arial-Unicode, Arial, Sans-serif">from the Noun Project</text>

-->

</svg>
