<svg xmlns="http://www.w3.org/2000/svg" xmlns:xlink="http://www.w3.org/1999/xlink" version="1.1" x="0px" y="0px" viewBox="0 0 100 125" style="enable-background:new 0 0 100 100;" xml:space="preserve"><path fill="white" d="M66.04,26.03h11.441c0.552,0,1-0.447,1-1s-0.448-1-1-1H66.04c-0.552,0-1,0.447-1,1S65.488,26.03,66.04,26.03z"/><path fill="white" d="M66.04,30.752h17.097c0.552,0,1-0.447,1-1s-0.448-1-1-1H66.04c-0.552,0-1,0.447-1,1S65.488,30.752,66.04,30.752z"/><path fill="white" d="M54.13,31.314c0.191,0.175,0.433,0.261,0.673,0.261c0.272,0,0.542-0.11,0.74-0.326l2.902-3.185  c0.348-0.382,0.348-0.966,0-1.348l-2.902-3.185c-0.372-0.406-1.005-0.438-1.413-0.065c-0.408,0.372-0.438,1.005-0.066,1.413  l2.288,2.511l-2.288,2.511C53.692,30.31,53.722,30.942,54.13,31.314z"/><path fill="white" d="M66.04,46.144h11.441c0.552,0,1-0.447,1-1s-0.448-1-1-1H66.04c-0.552,0-1,0.447-1,1S65.488,46.144,66.04,46.144z"/><path fill="white" d="M66.04,50.866h17.097c0.552,0,1-0.447,1-1s-0.448-1-1-1H66.04c-0.552,0-1,0.447-1,1S65.488,50.866,66.04,50.866z"/><path fill="white" d="M57.14,51.511c0.195,0.195,0.451,0.293,0.707,0.293s0.512-0.098,0.707-0.293c0.391-0.391,0.391-1.023,0-1.414l-2.477-2.478  l2.477-2.478c0.391-0.391,0.391-1.023,0-1.414s-1.023-0.391-1.414,0l-3.184,3.185c-0.391,0.391-0.391,1.023,0,1.414L57.14,51.511z"/><path fill="white" d="M89,18.516H48.429c-0.552,0-1,0.447-1,1v15.751c0,0.553,0.448,1,1,1h4.025v2.478h-4.025c-0.552,0-1,0.447-1,1v15.751  c0,0.553,0.448,1,1,1h4.025v3.038h-4.025c-0.552,0-1,0.447-1,1v15.751c0,0.553,0.448,1,1,1h4.025V89c0,0.553,0.448,1,1,1  s1-0.447,1-1V77.284h28.52V89c0,0.553,0.448,1,1,1s1-0.447,1-1V77.284H89c0.552,0,1-0.447,1-1V60.533c0-0.553-0.448-1-1-1h-4.026  v-3.038H89c0.552,0,1-0.447,1-1V39.744c0-0.553-0.448-1-1-1h-4.026v-2.478H89c0.552,0,1-0.447,1-1V19.516  C90,18.963,89.552,18.516,89,18.516z M88,75.284H49.429V61.533H88V75.284z M82.974,59.533h-28.52v-3.038h28.52V59.533z M88,54.495  H49.429V40.744H88V54.495z M82.974,38.744h-28.52v-2.478h28.52V38.744z M88,34.267H49.429V20.516H88V34.267z"/><path fill="white" d="M66.04,66.933h11.441c0.552,0,1-0.447,1-1s-0.448-1-1-1H66.04c-0.552,0-1,0.447-1,1S65.488,66.933,66.04,66.933z"/><path fill="white" d="M66.04,71.654h17.097c0.552,0,1-0.447,1-1s-0.448-1-1-1H66.04c-0.552,0-1,0.447-1,1S65.488,71.654,66.04,71.654z"/><path fill="white" d="M57.14,72.3c0.195,0.195,0.451,0.293,0.707,0.293s0.512-0.098,0.707-0.293c0.391-0.391,0.391-1.023,0-1.414l-2.477-2.478  l2.477-2.478c0.391-0.391,0.391-1.023,0-1.414s-1.023-0.391-1.414,0l-3.184,3.185c-0.391,0.391-0.391,1.023,0,1.414L57.14,72.3z"/><path fill="white" d="M26.689,45.055V89c0,0.553,0.448,1,1,1s1-0.447,1-1V45.055c9.286-0.52,16.686-8.159,16.686-17.502  C45.375,17.874,37.44,10,27.688,10S10,17.874,10,27.553C10,36.897,17.401,44.537,26.689,45.055z M27.688,12  c8.65,0,15.688,6.977,15.688,15.553c0,8.241-6.503,14.986-14.686,15.502v-6.087l5.429-5.43c0.391-0.391,0.391-1.023,0-1.414  s-1.023-0.391-1.414,0l-4.015,4.016v-6.444c0-0.553-0.448-1-1-1s-1,0.447-1,1v6.444l-4.015-4.016c-0.391-0.391-1.023-0.391-1.414,0  s-0.391,1.023,0,1.414l5.429,5.43v6.088C18.505,42.541,12,35.795,12,27.553C12,18.977,19.038,12,27.688,12z"/>

<!--

Park by Made by Made from the Noun Project
https://thenounproject.com/term/park/1685507/

<text x="0" y="115" fill="white" font-size="5px" font-weight="bold" font-family="'Helvetica Neue', Helvetica, Arial-Unicode, Arial, Sans-serif">Created by Made by Made</text><text x="0" y="120" fill="white" font-size="5px" font-weight="bold" font-family="'Helvetica Neue', Helvetica, Arial-Unicode, Arial, Sans-serif">from the Noun Project</text>

-->

</svg>
