<?xml version="1.0" encoding="utf-8"?>
<!-- Generator: Adobe Illustrator 23.0.4, SVG Export Plug-In . SVG Version: 6.00 Build 0)  -->
<svg version="1.1" xmlns="http://www.w3.org/2000/svg" xmlns:xlink="http://www.w3.org/1999/xlink" x="0px" y="0px"
	 viewBox="0 0 39.8 40.6" style="enable-background:new 0 0 39.8 40.6;" xml:space="preserve">
<style type="text/css">
	.st0{display:none;opacity:9.000000e-02;}
	.st1{display:inline;fill:#010101;}
	.st2{fill-rule:evenodd;clip-rule:evenodd;fill:#010101;}
	.st3{display:none;}
	.st4{display:inline;}
	.st5{display:inline;fill-rule:evenodd;clip-rule:evenodd;fill:#010101;}
</style>
<g id="Layer_3" class="st0">
	<path class="st1" d="M19.9,12c-4.8,0-8.7,3.9-8.7,8.6s3.9,8.6,8.7,8.6s8.7-3.9,8.7-8.6C28.6,15.8,24.7,12,19.9,12z M19.9,28
		c-4.1,0-7.5-3.3-7.5-7.4c0-4.1,3.4-7.4,7.5-7.4c4.1,0,7.5,3.3,7.5,7.4C27.4,24.6,24,28,19.9,28z"/>
	<path class="st1" d="M19.3,3.9v2.6v2.6c0,0.3,0.3,0.6,0.6,0.6s0.6-0.3,0.6-0.6V6.5V3.9c0-0.3-0.3-0.6-0.6-0.6
		C19.6,3.3,19.3,3.5,19.3,3.9z"/>
	<path class="st1" d="M19.9,31.5c-0.3,0-0.6,0.3-0.6,0.6v2.6v2.6c0,0.3,0.3,0.6,0.6,0.6c0.3,0,0.6-0.3,0.6-0.6v-2.6v-2.6
		C20.5,31.8,20.3,31.5,19.9,31.5z"/>
	<path class="st1" d="M14.2,7c-0.3,0.1-0.5,0.5-0.3,0.8l1,2.4c0.1,0.2,0.3,0.4,0.6,0.4c0.1,0,0.2,0,0.2,0C16,10.4,16.1,10,16,9.7
		l-1-2.4C14.9,7,14.5,6.8,14.2,7z"/>
	<path class="st1" d="M25,31c-0.1-0.3-0.5-0.5-0.8-0.3c-0.3,0.1-0.5,0.5-0.3,0.8l1,2.4c0.1,0.2,0.3,0.4,0.6,0.4c0.1,0,0.2,0,0.2,0
		c0.3-0.1,0.5-0.5,0.3-0.8L25,31z"/>
	<path class="st1" d="M6.9,14.6c-0.3-0.1-0.7,0-0.8,0.3c-0.1,0.3,0,0.7,0.3,0.8l2.4,1c0.1,0,0.2,0,0.2,0c0.2,0,0.5-0.1,0.6-0.4
		c0.1-0.3,0-0.7-0.3-0.8L6.9,14.6z"/>
	<path class="st1" d="M33.4,25.4l-2.4-1c-0.3-0.1-0.7,0-0.8,0.3c-0.1,0.3,0,0.7,0.3,0.8l2.4,1c0.1,0,0.2,0,0.2,0
		c0.2,0,0.5-0.1,0.6-0.4C33.9,25.9,33.7,25.5,33.4,25.4z"/>
	<path class="st1" d="M9.7,24.8c-0.1-0.3-0.5-0.5-0.8-0.3l-2.4,1c-0.3,0.1-0.5,0.5-0.3,0.8c0.1,0.2,0.3,0.4,0.6,0.4
		c0.1,0,0.2,0,0.2,0l2.4-1C9.6,25.4,9.8,25.1,9.7,24.8z"/>
	<path class="st1" d="M30.7,16.8c0.1,0,0.2,0,0.2,0l2.4-1c0.3-0.1,0.5-0.5,0.3-0.8c-0.1-0.3-0.5-0.5-0.8-0.3l-2.4,1
		c-0.3,0.1-0.5,0.5-0.3,0.8C30.2,16.6,30.5,16.8,30.7,16.8z"/>
	<path class="st1" d="M15.7,30.7c-0.3-0.1-0.7,0-0.8,0.3l-1,2.4c-0.1,0.3,0,0.7,0.3,0.8c0.1,0,0.2,0,0.2,0c0.2,0,0.5-0.1,0.6-0.4
		l1-2.4C16.1,31.1,16,30.8,15.7,30.7z"/>
	<path class="st1" d="M24.8,7.3l-1,2.4c-0.1,0.3,0,0.7,0.3,0.8c0.1,0,0.2,0,0.2,0c0.2,0,0.5-0.1,0.6-0.4l1-2.4
		c0.1-0.3,0-0.7-0.3-0.8C25.3,6.8,25,7,24.8,7.3z"/>
	<path class="st1" d="M11.6,13.1c0.2,0,0.3-0.1,0.4-0.2c0.2-0.2,0.2-0.6,0-0.9L8.3,8.3c-0.2-0.2-0.6-0.2-0.9,0S7.2,9,7.4,9.2
		l3.7,3.7C11.3,13,11.5,13.1,11.6,13.1z"/>
	<path class="st1" d="M28.6,28.3c-0.2-0.2-0.6-0.2-0.9,0s-0.2,0.6,0,0.9l3.7,3.7c0.1,0.1,0.3,0.2,0.4,0.2c0.2,0,0.3-0.1,0.4-0.2
		c0.2-0.2,0.2-0.6,0-0.9L28.6,28.3z"/>
	<path class="st1" d="M8.8,20.6c0-0.3-0.3-0.6-0.6-0.6H2.9c-0.3,0-0.6,0.3-0.6,0.6c0,0.3,0.3,0.6,0.6,0.6h5.3
		C8.5,21.2,8.8,20.9,8.8,20.6z"/>
	<path class="st1" d="M36.9,20h-5.3c-0.3,0-0.6,0.3-0.6,0.6c0,0.3,0.3,0.6,0.6,0.6h5.3c0.3,0,0.6-0.3,0.6-0.6
		C37.5,20.2,37.2,20,36.9,20z"/>
	<path class="st1" d="M11.2,28.3L7.4,32c-0.2,0.2-0.2,0.6,0,0.9C7.6,33,7.7,33,7.9,33C8,33,8.2,33,8.3,32.8l3.7-3.7
		c0.2-0.2,0.2-0.6,0-0.9C11.8,28.1,11.4,28.1,11.2,28.3z"/>
	<path class="st1" d="M32.4,8.3c-0.2-0.2-0.6-0.2-0.9,0L27.7,12c-0.2,0.2-0.2,0.6,0,0.9c0.1,0.1,0.3,0.2,0.4,0.2
		c0.2,0,0.3-0.1,0.4-0.2l3.7-3.7C32.6,9,32.6,8.6,32.4,8.3z"/>
</g>
<g id="Layer_1">
	<path class="st2" d="M18.2,24.8c2.4,0.5,3.3,0.1,4.3-0.5c0.5-0.5,0.5-0.3,0.9-0.8c0.5-0.7,0.9-1.5,0.8-2.7c0-0.3-0.1-0.6-0.2-0.9
		c-0.6-1.9-1.8-3.1-3.8-3.6c-0.2-0.1-0.8-0.1-1.1,0h-0.1v0.1c-0.1,0.1-0.2,0.1-0.2,0.1c-0.8,0.2-1.5,0.5-2.1,1
		c-0.6,0.5-1.1,1.3-1.1,2.4c0,0.8,0.2,1.5,0.6,1.9s0.8,0.9,1.4,1.1c1.5,0.4,2.9-0.5,3.1-1.8c0.1-0.4-0.1-0.8-0.2-1
		c-0.2-0.5-0.8-1-1.5-0.9c-0.4,0-0.9,0.3-1.1,0.7c-0.2,0.5,0.1,1.1,0.4,1.2c0.5,0.2,1.2-0.2,0.8-0.8c0,0.2,0.1,0.3,0,0.4
		s-0.2,0.2-0.3,0.2c-0.4,0.1-0.6-0.2-0.6-0.5c-0.1-0.4,0.2-0.8,0.5-0.8c0.6-0.2,1.3,0.4,1.4,0.8c0.2,0.7-0.4,1.4-0.8,1.6
		c-0.4,0.2-0.9,0.2-1.4,0.1c-0.6-0.2-1.1-0.9-1.1-1.7c-0.1-0.6,0.2-1.1,0.4-1.4c0.5-0.7,1.5-1.2,2.7-1.1c0.4,0.1,0.6,0.2,0.9,0.4
		c1.1,0.6,1.8,1.8,1.6,3.3c-0.2,1.4-1.1,2.3-2.2,2.8c-0.9,0.4-0.8,0.4-1.8,0.4"/>
</g>
<g id="Layer_11" class="st3">
	<g class="st4">
		<path class="st2" d="M20.1,4.8c0.2-0.2,0.1-0.6-0.1-0.7c-0.1,0-0.2,0-0.3,0c-0.1,0-0.2,0.1-0.2,0.2C19.2,4.6,19.7,5,20.1,4.8z"/>
		<path class="st2" d="M20.1,5.9c0.2-0.2,0.1-0.6-0.1-0.6c-0.1,0-0.2,0-0.3,0c-0.1,0-0.2,0.1-0.2,0.2C19.3,5.9,19.8,6.2,20.1,5.9z"
			/>
		<path class="st2" d="M20.1,7.1c0.2-0.2,0.1-0.6-0.1-0.6c-0.1,0-0.2,0-0.2,0c-0.1,0-0.2,0.1-0.2,0.2C19.4,7,19.9,7.4,20.1,7.1z"/>
		<path class="st2" d="M20.2,8.3c0.2-0.2,0.1-0.5-0.1-0.6c0,0-0.2,0-0.2,0c-0.1,0-0.2,0.1-0.2,0.2C19.4,8.2,19.9,8.6,20.2,8.3z"/>
		<path class="st2" d="M20.2,9.5C20.4,9.3,20.3,9,20.1,9c0,0-0.2,0-0.2,0c-0.1,0-0.2,0.1-0.2,0.1C19.6,9.4,20,9.7,20.2,9.5z"/>
	</g>
	<g class="st4">
		<path class="st2" d="M31.4,9.3c0.3,0,0.5-0.4,0.4-0.6c0-0.1-0.1-0.1-0.2-0.2c-0.1-0.1-0.2-0.1-0.3-0.1C30.9,8.6,31,9.3,31.4,9.3z"
			/>
		<path class="st2" d="M30.6,10.2c0.3,0,0.5-0.4,0.4-0.5c0-0.1-0.1-0.1-0.2-0.2c-0.1-0.1-0.2-0.1-0.3-0.1
			C30.1,9.6,30.2,10.2,30.6,10.2z"/>
		<path class="st2" d="M29.8,11c0.3,0,0.5-0.3,0.3-0.5c0-0.1-0.1-0.1-0.2-0.2c-0.1-0.1-0.2-0.1-0.3,0C29.4,10.4,29.4,11,29.8,11z"/>
		<path class="st2" d="M29,11.9c0.3,0,0.4-0.3,0.3-0.5c0,0-0.1-0.1-0.2-0.2c-0.1-0.1-0.2-0.1-0.3,0C28.6,11.3,28.7,11.9,29,11.9z"/>
		<path class="st2" d="M28.2,12.8c0.3,0,0.4-0.3,0.3-0.5c0,0-0.1-0.1-0.1-0.1c-0.1,0-0.2-0.1-0.2-0.1C27.8,12.3,27.9,12.8,28.2,12.8
			z"/>
	</g>
	<g class="st4">
		<path class="st2" d="M36.4,20.9c0.2,0.3,0.6,0.1,0.7-0.1c0-0.1,0-0.2,0-0.3c0-0.1-0.1-0.2-0.2-0.2C36.6,20,36.2,20.5,36.4,20.9z"
			/>
		<path class="st2" d="M35.3,20.9c0.2,0.3,0.6,0.1,0.7-0.1c0-0.1,0-0.2,0-0.3c0-0.1-0.1-0.2-0.2-0.2C35.4,20.1,35,20.5,35.3,20.9z"
			/>
		<path class="st2" d="M34.1,20.9c0.2,0.2,0.6,0.1,0.6-0.1c0-0.1,0-0.2,0-0.2c0-0.1-0.1-0.2-0.2-0.2C34.2,20.1,33.8,20.6,34.1,20.9z
			"/>
		<path class="st2" d="M32.9,20.8c0.2,0.2,0.5,0.1,0.6-0.1c0,0,0-0.2,0-0.2c0-0.1-0.1-0.2-0.2-0.2C33,20.1,32.6,20.6,32.9,20.8z"/>
		<path class="st2" d="M31.7,20.8c0.2,0.2,0.5,0.1,0.5-0.1c0,0,0-0.2,0-0.2c0-0.1-0.1-0.2-0.1-0.2C31.8,20.2,31.5,20.6,31.7,20.8z"
			/>
	</g>
	<g class="st4">
		<path class="st2" d="M31.4,32.1c0,0.3,0.4,0.5,0.6,0.4c0.1,0,0.1-0.1,0.2-0.2c0.1-0.1,0.1-0.2,0.1-0.3
			C32.1,31.6,31.4,31.6,31.4,32.1z"/>
		<path class="st2" d="M30.5,31.2c0,0.3,0.4,0.5,0.5,0.4c0.1,0,0.1-0.1,0.2-0.2c0.1-0.1,0.1-0.2,0.1-0.3
			C31.2,30.7,30.6,30.8,30.5,31.2z"/>
		<path class="st2" d="M29.7,30.4c0,0.3,0.3,0.5,0.5,0.4c0.1,0,0.1-0.1,0.2-0.2c0.1-0.1,0.1-0.2,0-0.3C30.3,29.9,29.7,30,29.7,30.4z
			"/>
		<path class="st2" d="M28.9,29.5c0,0.3,0.3,0.4,0.5,0.3c0,0,0.1-0.1,0.2-0.2c0.1-0.1,0.1-0.2,0-0.3C29.5,29.1,28.9,29.2,28.9,29.5z
			"/>
		<path class="st2" d="M28,28.7c0,0.3,0.3,0.4,0.4,0.3c0,0,0.1-0.1,0.1-0.1c0-0.1,0.1-0.2,0.1-0.2C28.6,28.3,28.1,28.4,28,28.7z"/>
	</g>
	<g class="st4">
		<path class="st2" d="M19.5,37c-0.3,0.2-0.1,0.6,0.1,0.7c0.1,0,0.2,0,0.3,0c0.1,0,0.2-0.1,0.2-0.2C20.4,37.2,19.9,36.8,19.5,37z"/>
		<path class="st2" d="M19.5,35.9c-0.3,0.2-0.1,0.6,0.1,0.7c0.1,0,0.2,0,0.3,0c0.1,0,0.2-0.1,0.2-0.2C20.3,36,19.9,35.6,19.5,35.9z"
			/>
		<path class="st2" d="M19.6,34.7c-0.2,0.2-0.1,0.6,0.1,0.6c0.1,0,0.2,0,0.2,0c0.1,0,0.2-0.1,0.2-0.2C20.3,34.8,19.8,34.4,19.6,34.7
			z"/>
		<path class="st2" d="M19.6,33.5c-0.2,0.2-0.1,0.5,0.1,0.6c0,0,0.2,0,0.2,0c0.1,0,0.2-0.1,0.2-0.2C20.3,33.6,19.9,33.3,19.6,33.5z"
			/>
		<path class="st2" d="M19.6,32.3c-0.2,0.2-0.1,0.5,0.1,0.5c0,0,0.2,0,0.2,0c0.1,0,0.2-0.1,0.2-0.1C20.2,32.4,19.8,32.1,19.6,32.3z"
			/>
	</g>
	<g class="st4">
		<path class="st2" d="M8.4,32c-0.3,0-0.5,0.4-0.4,0.6c0,0.1,0.1,0.1,0.2,0.2c0.1,0.1,0.2,0.1,0.3,0.1C8.9,32.7,8.8,32,8.4,32z"/>
		<path class="st2" d="M9.2,31.1c-0.3,0-0.5,0.4-0.4,0.5c0,0.1,0.1,0.1,0.2,0.2C9.1,31.9,9.2,32,9.3,32C9.7,31.8,9.6,31.2,9.2,31.1z
			"/>
		<path class="st2" d="M10,30.3c-0.3,0-0.5,0.3-0.4,0.5c0,0.1,0.1,0.1,0.2,0.2c0.1,0.1,0.2,0.1,0.3,0C10.5,30.9,10.4,30.3,10,30.3z"
			/>
		<path class="st2" d="M10.9,29.5c-0.3,0-0.4,0.3-0.3,0.5c0,0,0.1,0.1,0.2,0.2c0.1,0.1,0.2,0.1,0.3,0C11.3,30.1,11.3,29.5,10.9,29.5
			z"/>
		<path class="st2" d="M11.7,28.6c-0.3,0-0.4,0.3-0.3,0.4c0,0,0.1,0.1,0.1,0.1c0.1,0,0.2,0.1,0.2,0.1C12.1,29.2,12.1,28.7,11.7,28.6
			z"/>
	</g>
	<g class="st4">
		<path class="st2" d="M3.9,20.2c-0.2-0.3-0.6-0.1-0.7,0.1c0,0.1,0,0.2,0,0.3c0,0.1,0.1,0.2,0.1,0.3C3.7,21,4.2,20.5,3.9,20.2z"/>
		<path class="st2" d="M5.1,20.3c-0.2-0.3-0.6-0.1-0.7,0.1c0,0.1,0,0.2,0,0.3c0,0.1,0.1,0.2,0.1,0.3C4.9,21,5.3,20.6,5.1,20.3z"/>
		<path class="st2" d="M6.3,20.3c-0.2-0.2-0.6-0.1-0.6,0.1c0,0.1,0,0.2,0,0.2c0,0.1,0.1,0.2,0.1,0.2C6.1,21.1,6.5,20.6,6.3,20.3z"/>
		<path class="st2" d="M7.5,20.4c-0.2-0.2-0.5-0.1-0.6,0.1c0,0,0,0.2,0,0.2c0,0.1,0.1,0.2,0.1,0.2C7.3,21.1,7.7,20.7,7.5,20.4z"/>
		<path class="st2" d="M8.6,20.5c-0.1-0.2-0.5-0.1-0.5,0.1c0,0,0,0.2,0,0.2c0,0.1,0.1,0.2,0.1,0.2C8.5,21.1,8.9,20.7,8.6,20.5z"/>
	</g>
	<g class="st4">
		<path class="st2" d="M9.5,9.3c0-0.3-0.3-0.5-0.5-0.4C8.9,8.8,8.8,9,8.7,9C8.7,9.1,8.6,9.2,8.6,9.3C8.8,9.7,9.4,9.7,9.5,9.3z"/>
		<path class="st2" d="M10.3,10.1c0.1-0.3-0.3-0.5-0.5-0.4c-0.1,0-0.2,0.1-0.2,0.2c-0.1,0.1-0.1,0.2-0.1,0.3
			C9.6,10.6,10.2,10.6,10.3,10.1z"/>
		<path class="st2" d="M11.1,11c0-0.3-0.3-0.5-0.5-0.4c-0.1,0-0.2,0.1-0.2,0.2c-0.1,0.1-0.1,0.2,0,0.3C10.4,11.4,11,11.4,11.1,11z"
			/>
		<path class="st2" d="M11.9,11.9c0-0.3-0.3-0.5-0.5-0.4c0,0-0.2,0.1-0.2,0.2c-0.1,0.1-0.1,0.2,0,0.3C11.2,12.3,11.8,12.3,11.9,11.9
			z"/>
		<path class="st2" d="M12.7,12.8c0-0.3-0.3-0.4-0.4-0.3c0,0-0.1,0.1-0.2,0.1c0,0.1-0.1,0.2-0.1,0.2C12.1,13.1,12.6,13.1,12.7,12.8z
			"/>
	</g>
</g>
<g id="Layer_10" class="st3">
	<path class="st5" d="M-57,34.1c0.7,0.2,1.3-0.2,1.9,0c0,0.2,0.1,0,0.1,0c0.4-4.4,1-28.4,1.4-32.6c0.2-1.5,0.5-3,0.5-4.4
		c0-1.9-0.9-3.4-1.8-4.3c-2.1-2-5.7-1.8-7.7,0.1c-1,1-1.7,2.6-1.8,4.2c-0.1,1.4,0.2,2.9,0.2,4.3c0.2,4.5,0.4,28.4,0.7,32.8
		c0.4-0.3,1.1,0.1,1.6,0c0.2,0,0.5,0.2,0.5,0c-0.2-3-0.3-28.2-0.5-31.5C-62,1.4-62.2,0.1-62-1c0.2-1.5,1.1-2.8,2.2-3.2
		c1.6-0.6,2.9,0.3,3.5,1.3c0.9,1.5,0.5,3.4,0.3,5.5C-56.3,6.3-56.6,30.5-57,34.1z"/>
	<path class="st5" d="M-68.3,34.1c0.7,0.2,1.3-0.2,1.9,0c0.1,0.2,0.1,0,0.2,0c0.1-4.4-0.6-21.9-0.5-26.1c0.1-1.5,0.3-3,0.1-4.4
		c-0.2-1.9-1.1-3.4-2.1-4.2c-2.2-2-5.9-1.8-7.7,0.1c-0.9,1-1.5,2.6-1.5,4.2c0,1.4,0.4,2.9,0.5,4.3c0.5,4.5,1.9,21.9,2.6,26.3
		c0.4-0.3,1.1,0.1,1.6,0c0.1,0,0.5,0.2,0.5,0c-0.4-3-1.9-21.7-2.3-25c-0.2-1.3-0.5-2.6-0.4-3.7c0.1-1.5,0.9-2.8,2-3.2
		c1.5-0.6,2.9,0.3,3.6,1.3c1,1.5,0.8,3.4,0.7,5.5C-69.2,12.8-68.2,30.5-68.3,34.1z"/>
	<g class="st4">
		<path class="st2" d="M20.7,3.5c0.7-0.7,0.3-1.9-0.4-2.1c-0.2-0.1-0.7,0-0.8,0c-0.4,0.1-0.6,0.3-0.7,0.5
			C18.2,3.2,19.7,4.4,20.7,3.5z"/>
		<path class="st2" d="M20.6,7.2c0.7-0.6,0.2-1.8-0.4-2c-0.2-0.1-0.6,0-0.8,0c-0.3,0.1-0.6,0.3-0.7,0.5C18.2,6.9,19.7,8,20.6,7.2z"
			/>
		<path class="st2" d="M20.6,10.8c0.7-0.6,0.2-1.7-0.4-1.9c-0.2-0.1-0.6,0-0.8,0c-0.3,0.1-0.5,0.3-0.6,0.5
			C18.3,10.5,19.7,11.6,20.6,10.8z"/>
	</g>
	<g class="st4">
		<path class="st2" d="M33.7,8.5c1,0.1,1.6-1,1.3-1.7c-0.1-0.2-0.5-0.5-0.5-0.6C34.1,6,33.8,6,33.6,6C32.2,6.5,32.3,8.4,33.7,8.5z"
			/>
		<path class="st2" d="M30.8,10.9c0.9,0.1,1.5-1,1.2-1.6c-0.1-0.2-0.4-0.4-0.5-0.6c-0.3-0.2-0.6-0.2-0.8-0.2
			C29.5,8.9,29.6,10.8,30.8,10.9z"/>
		<path class="st2" d="M28.2,13.3c0.9,0.1,1.4-1,1.2-1.6c-0.1-0.2-0.4-0.4-0.5-0.6C28.5,11,28.2,11,28,11
			C26.9,11.4,27,13.2,28.2,13.3z"/>
	</g>
	<g class="st4">
		<path class="st2" d="M38.1,21.4c0.7,0.7,1.9,0.3,2.1-0.4c0.1-0.2,0-0.7,0-0.8c-0.1-0.4-0.3-0.6-0.5-0.7
			C38.3,18.9,37.2,20.5,38.1,21.4z"/>
		<path class="st2" d="M34.4,21.4c0.6,0.7,1.8,0.2,2-0.4c0.1-0.2,0-0.6,0-0.8c-0.1-0.3-0.3-0.6-0.5-0.7C34.6,19,33.6,20.5,34.4,21.4
			z"/>
		<path class="st2" d="M30.8,21.5c0.6,0.7,1.7,0.2,1.9-0.4c0.1-0.2,0-0.6,0-0.8c-0.1-0.3-0.3-0.5-0.5-0.6C31,19.2,30,20.6,30.8,21.5
			z"/>
	</g>
	<g class="st4">
		<path class="st2" d="M32.1,34.2c0,1,1.1,1.6,1.7,1.3c0.2-0.1,0.5-0.5,0.6-0.5c0.2-0.3,0.2-0.6,0.2-0.8
			C34.2,32.7,32.3,32.9,32.1,34.2z"/>
		<path class="st2" d="M29.7,31.4c-0.1,0.9,1.1,1.5,1.7,1.2c0.2-0.1,0.4-0.4,0.6-0.5c0.2-0.3,0.2-0.6,0.2-0.8
			C31.7,30,29.8,30.2,29.7,31.4z"/>
		<path class="st2" d="M27.2,28.8c-0.1,0.9,1,1.4,1.6,1.1c0.2-0.1,0.4-0.4,0.6-0.5c0.2-0.3,0.2-0.6,0.1-0.8
			C29.1,27.5,27.3,27.6,27.2,28.8z"/>
	</g>
	<g class="st4">
		<path class="st2" d="M19.3,37.7c-0.7,0.7-0.3,1.9,0.4,2.1c0.2,0.1,0.7,0,0.8,0c0.4-0.1,0.6-0.3,0.7-0.5
			C21.8,38,20.3,36.8,19.3,37.7z"/>
		<path class="st2" d="M19.5,34c-0.7,0.6-0.2,1.8,0.4,2c0.2,0.1,0.6,0,0.8,0c0.3-0.1,0.6-0.3,0.7-0.5C21.8,34.3,20.4,33.2,19.5,34z"
			/>
		<path class="st2" d="M19.5,30.4c-0.7,0.6-0.2,1.7,0.4,1.9c0.2,0.1,0.6,0,0.8,0c0.3-0.1,0.5-0.3,0.6-0.5
			C21.8,30.7,20.4,29.6,19.5,30.4z"/>
	</g>
	<g class="st4">
		<path class="st2" d="M6.4,32.4c-1-0.1-1.6,1-1.3,1.7c0.1,0.2,0.5,0.5,0.5,0.6c0.3,0.2,0.6,0.3,0.8,0.2C7.8,34.5,7.8,32.5,6.4,32.4
			z"/>
		<path class="st2" d="M9.3,30c-0.9-0.1-1.5,1-1.3,1.6c0.1,0.2,0.4,0.5,0.5,0.6c0.3,0.2,0.6,0.3,0.8,0.2C10.6,32.1,10.5,30.2,9.3,30
			z"/>
		<path class="st2" d="M12.1,27.7c-0.9-0.1-1.4,1-1.2,1.5c0.1,0.2,0.4,0.5,0.5,0.6c0.3,0.2,0.6,0.2,0.8,0.1
			C13.3,29.6,13.2,27.9,12.1,27.7z"/>
	</g>
	<g class="st4">
		<path class="st2" d="M2.3,19.4c-0.7-0.7-1.9-0.3-2.1,0.4c-0.1,0.2,0,0.7,0,0.8c0.1,0.4,0.3,0.6,0.5,0.7C2,21.9,3.2,20.4,2.3,19.4z
			"/>
		<path class="st2" d="M6,19.5c-0.6-0.7-1.8-0.2-2,0.4c-0.1,0.2,0,0.6,0,0.8c0.1,0.3,0.3,0.6,0.5,0.7C5.7,21.9,6.8,20.4,6,19.5z"/>
		<path class="st2" d="M9.6,19.4c-0.6-0.7-1.7-0.2-1.9,0.4c-0.1,0.2,0,0.6,0,0.8c0.1,0.3,0.3,0.5,0.5,0.6
			C9.3,21.7,10.4,20.3,9.6,19.4z"/>
	</g>
	<g class="st4">
		<path class="st2" d="M8.5,6.7c0.1-1-1-1.6-1.7-1.3C6.6,5.5,6.3,5.9,6.2,5.9C6,6.3,6,6.6,6,6.8C6.4,8.2,8.4,8.1,8.5,6.7z"/>
		<path class="st2" d="M10.9,9.5C11,8.6,9.8,8.1,9.3,8.3C9.1,8.4,8.8,8.7,8.7,8.8C8.5,9.1,8.4,9.5,8.5,9.7
			C8.9,10.9,10.8,10.7,10.9,9.5z"/>
		<path class="st2" d="M13.3,12.2c0.1-0.9-1-1.4-1.6-1.1c-0.2,0.1-0.4,0.4-0.6,0.5C11,11.9,11,12.2,11,12.4
			C11.4,13.5,13.2,13.4,13.3,12.2z"/>
	</g>
	<g class="st4">
		<path class="st2" d="M-49.3-35c0.8-0.7,0.3-1.9-0.4-2.1c-0.2-0.1-0.7,0-0.9,0c-0.4,0.1-0.6,0.3-0.7,0.6C-52-35.3-50.4-34-49.3-35z
			"/>
		<path class="st2" d="M-49.2-32.1c0.7-0.7,0.3-1.8-0.4-2.1c-0.2-0.1-0.7,0-0.8,0c-0.4,0.1-0.6,0.3-0.7,0.5
			C-51.7-32.4-50.2-31.2-49.2-32.1z"/>
		<path class="st2" d="M-49.1-29.2c0.7-0.6,0.2-1.8-0.4-2c-0.2-0.1-0.6,0-0.8,0c-0.3,0.1-0.6,0.3-0.7,0.5
			C-51.5-29.4-50.1-28.3-49.1-29.2z"/>
		<path class="st2" d="M-49-26.2c0.7-0.6,0.2-1.7-0.4-1.9c-0.2-0.1-0.6,0-0.8,0c-0.3,0.1-0.5,0.3-0.6,0.5
			C-51.3-26.5-49.9-25.4-49-26.2z"/>
		<path class="st2" d="M-48.9-23.3c0.6-0.6,0.2-1.6-0.4-1.8c-0.2-0.1-0.6,0-0.7,0c-0.3,0.1-0.5,0.3-0.6,0.5
			C-51.1-23.6-49.8-22.5-48.9-23.3z"/>
		<path class="st2" d="M-48.8-20.4c0.6-0.6,0.2-1.5-0.3-1.7c-0.2-0.1-0.5,0-0.7,0c-0.3,0.1-0.5,0.2-0.6,0.4
			C-50.9-20.7-49.6-19.7-48.8-20.4z"/>
		<path class="st2" d="M-48.7-17.5c0.6-0.5,0.2-1.5-0.3-1.6c-0.2-0.1-0.5,0-0.7,0c-0.3,0.1-0.5,0.2-0.6,0.4
			C-50.7-17.7-49.5-16.8-48.7-17.5z"/>
		<path class="st2" d="M-48.6-14.6c0.5-0.5,0.2-1.4-0.3-1.5c-0.2-0.1-0.5,0-0.6,0c-0.3,0.1-0.4,0.2-0.5,0.4
			C-50.5-14.8-49.3-13.9-48.6-14.6z"/>
		<path class="st2" d="M-48.5-11.6c0.5-0.5,0.2-1.3-0.3-1.4c-0.1,0-0.5,0-0.6,0c-0.3,0.1-0.4,0.2-0.5,0.4
			C-50.3-11.9-49.2-11-48.5-11.6z"/>
		<path class="st2" d="M-48.4-8.7c0.5-0.4,0.2-1.2-0.3-1.3c-0.1,0-0.4,0-0.5,0c-0.2,0.1-0.4,0.2-0.5,0.3C-50-8.9-49-8.1-48.4-8.7z"
			/>
	</g>
	<g class="st4">
		<g>
			<path class="st2" d="M-48.5,9c-0.1-2.1-0.3-4.1,0.7-5.5c0.7-1,2.1-1.9,3.6-1.3c1.1,0.4,1.9,1.7,2,3.2c0,1.1-0.3,2.4-0.4,3.7
				c-0.4,3.3-1.9,22-2.3,25c0,0.2,0.4,0,0.5,0c0.4,0.1,1.1-0.3,1.6,0c0.6-4.4,2.1-21.8,2.6-26.3c0.2-1.4,0.5-2.9,0.5-4.3
				c0-1.6-0.6-3.2-1.5-4.2c-1.8-1.9-5.5-2-7.7-0.1c-1,0.9-1.9,2.3-2.1,4.2c-0.1,1.4,0.1,2.9,0.1,4.4c0.1,4.2-0.6,21.7-0.5,26.1
				c0,0,0.1,0.2,0.1,0c0.7-0.2,1.3,0.2,1.9,0C-49.3,30.5-48.3,12.8-48.5,9z"/>
		</g>
		<g>
			<path class="st2" d="M-44.4,5c-0.1-0.2-0.4-0.4-0.7-0.6c-0.2,0-0.6-0.1-0.9,0c-0.7,0.2-1.2,1.4-0.4,2.1
				C-45.3,7.6-43.7,6.3-44.4,5z"/>
			<path class="st2" d="M-44.5,8c-0.1-0.2-0.3-0.4-0.7-0.5c-0.2,0-0.6-0.1-0.8,0c-0.7,0.2-1.1,1.4-0.4,2.1C-45.5,10.4-44,9.2-44.5,8
				z"/>
			<path class="st2" d="M-44.7,11c-0.1-0.2-0.3-0.4-0.7-0.5c-0.2,0-0.6-0.1-0.8,0c-0.6,0.2-1.1,1.3-0.4,2
				C-45.6,13.3-44.2,12.2-44.7,11z"/>
			<path class="st2" d="M-44.9,14c-0.1-0.2-0.3-0.4-0.6-0.5c-0.1,0-0.6-0.1-0.8,0c-0.6,0.2-1.1,1.3-0.4,1.9
				C-45.8,16.2-44.4,15.1-44.9,14z"/>
			<path class="st2" d="M-45.1,17c-0.1-0.2-0.3-0.4-0.6-0.5c-0.1,0-0.5-0.1-0.7,0c-0.6,0.2-1,1.2-0.4,1.8
				C-45.9,19.1-44.6,18-45.1,17z"/>
			<path class="st2" d="M-45.3,19.9c-0.1-0.2-0.3-0.4-0.6-0.4c-0.1,0-0.5-0.1-0.7,0c-0.6,0.2-0.9,1.1-0.3,1.7
				C-46.1,21.9-44.8,20.9-45.3,19.9z"/>
			<path class="st2" d="M-45.5,22.9c-0.1-0.2-0.3-0.3-0.6-0.4c-0.1,0-0.5-0.1-0.6,0c-0.5,0.2-0.9,1.1-0.3,1.6
				C-46.2,24.8-45,23.9-45.5,22.9z"/>
			<path class="st2" d="M-45.7,25.9c-0.1-0.2-0.3-0.3-0.5-0.4c-0.1,0-0.5-0.1-0.6,0c-0.5,0.2-0.9,1-0.3,1.5
				C-46.4,27.7-45.2,26.8-45.7,25.9z"/>
			<path class="st2" d="M-45.9,28.9c-0.1-0.2-0.2-0.3-0.5-0.4c-0.1,0-0.4,0-0.6,0c-0.5,0.1-0.8,1-0.3,1.4
				C-46.5,30.6-45.5,29.7-45.9,28.9z"/>
			<path class="st2" d="M-46,31.9c-0.1-0.2-0.2-0.3-0.5-0.3c-0.1,0-0.4,0-0.6,0c-0.4,0.1-0.7,0.9-0.3,1.3
				C-46.7,33.5-45.7,32.7-46,31.9z"/>
		</g>
	</g>
	<g class="st4">
		<path class="st2" d="M-71.3-38.8c-0.1-0.2-0.4-0.4-0.7-0.6c-0.2,0-0.6-0.1-0.9,0c-0.7,0.2-1.2,1.4-0.4,2.1
			C-72.2-36.2-70.6-37.5-71.3-38.8z"/>
		<path class="st2" d="M-71.4-35.8c-0.1-0.2-0.3-0.4-0.7-0.5c-0.2,0-0.6-0.1-0.8,0c-0.7,0.2-1.1,1.4-0.4,2.1
			C-72.4-33.4-70.9-34.6-71.4-35.8z"/>
		<path class="st2" d="M-71.6-32.8c-0.1-0.2-0.3-0.4-0.7-0.5c-0.2,0-0.6-0.1-0.8,0c-0.6,0.2-1.1,1.3-0.4,2
			C-72.5-30.5-71.1-31.6-71.6-32.8z"/>
		<path class="st2" d="M-71.8-29.8c-0.1-0.2-0.3-0.4-0.6-0.5c-0.1,0-0.6-0.1-0.8,0c-0.6,0.2-1.1,1.3-0.4,1.9
			C-72.7-27.6-71.3-28.7-71.8-29.8z"/>
		<path class="st2" d="M-72-26.8c-0.1-0.2-0.3-0.4-0.6-0.5c-0.1,0-0.5-0.1-0.7,0c-0.6,0.2-1,1.2-0.4,1.8
			C-72.8-24.7-71.5-25.8-72-26.8z"/>
		<path class="st2" d="M-72.2-23.9c-0.1-0.2-0.3-0.4-0.6-0.4c-0.1,0-0.5-0.1-0.7,0c-0.6,0.2-0.9,1.1-0.3,1.7
			C-73-21.9-71.7-22.9-72.2-23.9z"/>
		<path class="st2" d="M-72.4-20.9c-0.1-0.2-0.3-0.3-0.6-0.4c-0.1,0-0.5-0.1-0.6,0c-0.5,0.2-0.9,1.1-0.3,1.6
			C-73.1-19-71.9-19.9-72.4-20.9z"/>
		<path class="st2" d="M-72.6-17.9c-0.1-0.2-0.3-0.3-0.5-0.4c-0.1,0-0.5-0.1-0.6,0c-0.5,0.2-0.9,1-0.3,1.5
			C-73.3-16.1-72.1-17-72.6-17.9z"/>
		<path class="st2" d="M-72.8-14.9c-0.1-0.2-0.2-0.3-0.5-0.4c-0.1,0-0.4,0-0.6,0c-0.5,0.1-0.8,1-0.3,1.4
			C-73.4-13.2-72.4-14.1-72.8-14.9z"/>
		<path class="st2" d="M-72.9-11.9c-0.1-0.2-0.2-0.3-0.5-0.3c-0.1,0-0.4,0-0.6,0c-0.4,0.1-0.7,0.9-0.3,1.3
			C-73.6-10.3-72.6-11.1-72.9-11.9z"/>
	</g>
</g>
<g id="Layer_5" class="st3">
	<path class="st5" d="M29.6,12.1c0.5-0.6,0.5-0.5,0.8-0.8c0.5-0.4,1-1,1.3-1.3c0.4-0.4,0.4-0.5,0.6-0.7l0.3-0.4
		c-0.2-0.5-0.2-0.5-0.6-0.6c-0.4-0.1-0.8,0.4-1.4,1c-0.4,0.4-0.7,0.6-1.2,1.1c-0.6,0.6-1.1,1.1-1.6,1.7c-0.2,0.2-0.2,0.5-0.2,0.7
		c0.1,0.3,0.4,0.5,0.6,0.4c0.2,0,0.5-0.2,0.7-0.4C29.1,12.5,29.4,12.3,29.6,12.1z"/>
	<path class="st5" d="M20.5,7.8c0-0.8,0-0.6,0-1.2c0.1-0.6,0-1.4,0-1.8c0-0.5-0.1-0.7,0-1l-0.1-0.5c-0.5-0.2-0.5-0.2-0.9,0
		c-0.3,0.3-0.3,0.8-0.3,1.7c0,0.6,0,0.9-0.1,1.6c0,0.9,0,1.5,0,2.4c0,0.3,0.2,0.5,0.4,0.6c0.3,0.2,0.6,0.1,0.7-0.1
		c0.2-0.2,0.2-0.6,0.2-0.8C20.4,8.6,20.5,8.1,20.5,7.8z"/>
	<path class="st5" d="M28.7,30.3c0.6,0.5,0.4,0.5,0.8,0.8c0.4,0.5,1,1,1.3,1.3c0.4,0.4,0.5,0.4,0.7,0.7l0.4,0.3
		c0.5-0.2,0.5-0.2,0.6-0.6c0.1-0.4-0.4-0.8-0.9-1.4c-0.4-0.4-0.6-0.7-1.1-1.2c-0.6-0.6-1-1.1-1.7-1.7c-0.2-0.2-0.5-0.2-0.7-0.2
		c-0.3,0.1-0.5,0.4-0.5,0.6c0,0.2,0.2,0.5,0.4,0.7C28.3,29.8,28.5,30.1,28.7,30.3z"/>
	<path class="st5" d="M33.1,21.3c0.8,0,0.6,0,1.2,0c0.6,0.1,1.4,0,1.8,0c0.5,0,0.7-0.1,1,0l0.5-0.1c0.2-0.5,0.2-0.5,0.1-0.9
		C37.3,20,36.7,20,35.9,20c-0.6,0-0.9-0.1-1.6-0.1c-0.9,0-1.5-0.1-2.4,0c-0.3,0-0.5,0.2-0.7,0.4c-0.2,0.3-0.1,0.6,0.1,0.7
		c0.2,0.2,0.5,0.2,0.8,0.2C32.4,21.1,32.8,21.2,33.1,21.3z"/>
	<path class="st5" d="M10.2,29.6c-0.5,0.6-0.5,0.5-0.8,0.8c-0.5,0.4-1,1-1.3,1.3c-0.4,0.4-0.4,0.5-0.6,0.7l-0.3,0.4
		c0.2,0.5,0.2,0.5,0.6,0.6c0.4,0.1,0.8-0.4,1.4-1c0.4-0.4,0.7-0.6,1.2-1.1c0.6-0.6,1.1-1.1,1.7-1.7c0.2-0.2,0.2-0.5,0.2-0.7
		c-0.1-0.3-0.4-0.5-0.6-0.4c-0.2,0-0.5,0.2-0.7,0.4C10.8,29.2,10.4,29.4,10.2,29.6z"/>
	<path class="st5" d="M19.3,33.9c0,0.8,0,0.6,0,1.2c-0.1,0.6,0,1.4,0,1.8c0,0.5,0.1,0.7,0,1l0.1,0.5c0.5,0.2,0.5,0.2,0.9,0
		c0.3-0.3,0.3-0.8,0.3-1.7c0-0.6,0.1-0.9,0.1-1.6c0-0.9,0-1.5,0-2.4c0-0.3-0.2-0.5-0.4-0.6c-0.3-0.2-0.6-0.1-0.7,0.1
		c-0.2,0.2-0.2,0.5-0.2,0.8C19.4,33.2,19.3,33.6,19.3,33.9z"/>
	<path class="st5" d="M11.2,11.3c-0.6-0.5-0.4-0.5-0.8-0.8c-0.4-0.5-1-1-1.3-1.3C8.8,8.8,8.7,8.8,8.5,8.5L8.1,8.3
		C7.6,8.5,7.6,8.4,7.4,8.8c-0.1,0.4,0.4,0.8,0.9,1.4c0.4,0.4,0.6,0.7,1,1.2c0.6,0.6,1,1.1,1.7,1.7c0.2,0.2,0.5,0.2,0.7,0.2
		c0.3-0.1,0.5-0.4,0.5-0.6c0-0.2-0.2-0.5-0.4-0.7C11.7,11.9,11.4,11.5,11.2,11.3z"/>
	<path class="st5" d="M6.8,20.4c-0.8,0-0.6,0-1.2,0c-0.6-0.1-1.4,0-1.8,0c-0.5,0-0.7,0.1-1,0l-0.5,0.1c-0.2,0.5-0.2,0.5-0.1,0.9
		c0.3,0.4,0.8,0.3,1.6,0.3c0.6,0,0.9,0.1,1.6,0.1c0.9,0,1.5,0.1,2.4,0c0.3,0,0.5-0.2,0.7-0.4c0.2-0.3,0.1-0.6-0.1-0.7
		c-0.2-0.2-0.5-0.2-0.7-0.2C7.5,20.5,7.1,20.4,6.8,20.4z"/>
</g>
<g id="Layer_9">
	<path class="st2" d="M15.9,9.4c-0.3-0.7-0.1-0.2-0.3-0.7c-0.2-0.5-0.1-0.4-0.3-0.7c-0.2-0.5-0.3-0.4-0.3-0.7l-0.2-0.4
		c-0.5,0-0.5,0-0.8,0.3c-0.2,0.4-0.1,0.6,0.1,1c0.2,0.5,0.3,0.9,0.5,1.2c0.3,0.8,0,0.1,0.4,0.8c0.1,0.2,0.4,0.4,0.6,0.4
		c0.3,0.1,0.6-0.2,0.7-0.3c0.1-0.2,0-0.4-0.1-0.6C16,9.5,16,9.7,15.9,9.4z"/>
	<path class="st2" d="M9,15.5c-0.7-0.3-0.2-0.1-0.7-0.3C7.8,15,7.9,15,7.6,14.8c-0.5-0.2-0.4-0.1-0.7-0.3l-0.5-0.1
		C6,14.8,6,14.8,6,15.2c0.1,0.4,0.4,0.5,0.8,0.7c0.5,0.2,0.8,0.4,1.2,0.5c0.8,0.4,0,0,0.8,0.3c0.3,0.1,0.5,0,0.7-0.1
		c0.3-0.2,0.3-0.5,0.2-0.7c-0.1-0.2-0.3-0.3-0.5-0.4C9.1,15.5,9.2,15.6,9,15.5z"/>
	<path class="st2" d="M8.5,24.7C7.8,25,8.3,24.8,7.8,25c-0.5,0.2-0.4,0.1-0.7,0.3c-0.5,0.2-0.4,0.3-0.7,0.3L6,25.8
		c0,0.5,0,0.5,0.3,0.8c0.4,0.2,0.6,0.1,1-0.1c0.5-0.2,0.9-0.3,1.2-0.5c0.8-0.3,0.1,0,0.8-0.4c0.2-0.1,0.4-0.4,0.4-0.6
		c0.1-0.3-0.2-0.6-0.3-0.7c-0.2-0.1-0.4,0-0.6,0.1C8.6,24.7,8.8,24.6,8.5,24.7z"/>
	<path class="st2" d="M14.5,31.7c-0.3,0.7-0.1,0.2-0.3,0.7c-0.2,0.5-0.2,0.4-0.3,0.7c-0.2,0.5-0.1,0.4-0.3,0.7l-0.1,0.5
		c0.4,0.4,0.3,0.4,0.8,0.4c0.4-0.1,0.5-0.4,0.7-0.8c0.2-0.5,0.4-0.8,0.5-1.2c0.4-0.8,0,0,0.3-0.8c0.1-0.3,0-0.5-0.1-0.7
		c-0.2-0.3-0.5-0.3-0.7-0.2c-0.2,0.1-0.3,0.3-0.4,0.5C14.6,31.6,14.7,31.5,14.5,31.7z"/>
	<path class="st2" d="M24.3,32.2c0.3,0.7,0.1,0.2,0.3,0.7c0.2,0.5,0.2,0.4,0.3,0.7c0.2,0.5,0.3,0.4,0.4,0.7l0.3,0.4
		c0.5,0,0.5,0,0.8-0.3c0.2-0.4,0.1-0.7-0.1-1c-0.2-0.5-0.4-0.8-0.5-1.2c-0.3-0.8,0-0.1-0.4-0.8c-0.1-0.2-0.4-0.3-0.7-0.4
		c-0.3,0-0.6,0.2-0.6,0.4c-0.1,0.2,0,0.4,0.1,0.6C24.3,32.1,24.2,31.9,24.3,32.2z"/>
	<path class="st2" d="M31.2,25.9c0.7,0.3,0.2,0.1,0.7,0.3c0.5,0.2,0.4,0.2,0.7,0.3c0.5,0.2,0.5,0.1,0.7,0.2l0.5,0.1
		c0.4-0.4,0.4-0.3,0.4-0.8c-0.1-0.4-0.4-0.5-0.8-0.7c-0.5-0.2-0.8-0.4-1.2-0.5c-0.8-0.3,0,0-0.8-0.3c-0.3-0.1-0.5,0-0.7,0.2
		c-0.3,0.2-0.3,0.5-0.2,0.7c0.1,0.2,0.3,0.3,0.5,0.4C31,25.8,30.9,25.8,31.2,25.9z"/>
	<path class="st2" d="M31.4,16.6c0.7-0.3,0.2-0.1,0.7-0.3c0.5-0.2,0.4-0.2,0.7-0.3c0.5-0.2,0.4-0.3,0.7-0.4l0.4-0.3
		c0-0.5,0-0.5-0.3-0.8c-0.4-0.2-0.7-0.1-1,0.1c-0.5,0.2-0.8,0.4-1.2,0.5c-0.8,0.3-0.1,0-0.8,0.4c-0.2,0.1-0.3,0.4-0.4,0.7
		c0,0.3,0.2,0.6,0.4,0.6c0.2,0.1,0.4,0,0.6-0.1C31.3,16.7,31.1,16.7,31.4,16.6z"/>
	<path class="st2" d="M25.1,9.8c0.3-0.7,0.1-0.2,0.3-0.7c0.2-0.5,0.2-0.4,0.3-0.7C26,7.9,25.8,8,26,7.7l0.1-0.5
		c-0.4-0.4-0.3-0.4-0.8-0.4c-0.4,0.1-0.5,0.4-0.7,0.8c-0.2,0.5-0.4,0.8-0.5,1.2c-0.3,0.8,0,0-0.3,0.8c-0.1,0.3,0,0.5,0.2,0.7
		c0.2,0.3,0.5,0.3,0.7,0.2c0.2-0.1,0.3-0.3,0.4-0.5C25.1,9.9,25,10.1,25.1,9.8z"/>
</g>
<g id="Layer_7" class="st3">
	<path class="st5" d="M19.8,13.3c0.3,0.1,0.7-0.3,0.7-0.6c-0.1-0.1-0.2-0.2-0.4-0.3c-0.2-0.1-0.3-0.1-0.4,0
		C19.4,12.6,19.4,13.2,19.8,13.3z"/>
	<path class="st5" d="M14,15.4c0.1,0.2,0.7,0.3,0.8,0C15.2,14.3,13.6,14.7,14,15.4z"/>
	<path class="st5" d="M25.1,15.2c0.1,0.2,0.7,0.3,0.8,0C26.3,14.1,24.7,14.5,25.1,15.2z"/>
	<path class="st5" d="M14.1,26.2c0.1,0.2,0.7,0.3,0.8,0C15.2,25.1,13.7,25.5,14.1,26.2z"/>
	<path class="st5" d="M27.4,20.8c0.1,0.2,0.7,0.3,0.8,0C28.6,19.7,27,20.1,27.4,20.8z"/>
	<path class="st5" d="M11.8,20.9c0.1,0.2,0.7,0.3,0.8,0C12.9,19.8,11.4,20.2,11.8,20.9z"/>
	<path class="st5" d="M19.5,28.5c0.1,0.2,0.7,0.3,0.8,0C20.7,27.3,19.1,27.7,19.5,28.5z"/>
	<path class="st5" d="M25.2,26.3c0.1,0.2,0.7,0.3,0.8,0C26.3,25.3,24.7,25.6,25.2,26.3z"/>
	<path class="st5" d="M22.5,13.6c0.1,0.2,0.7,0.3,0.8,0C23.7,12.6,22.1,12.9,22.5,13.6z"/>
	<path class="st5" d="M16.6,13.8c0.1,0.2,0.7,0.3,0.8,0C17.8,12.7,16.2,13.1,16.6,13.8z"/>
	<path class="st5" d="M22.5,28c0.1,0.2,0.7,0.3,0.8,0C23.6,26.9,22.1,27.3,22.5,28z"/>
	<path class="st5" d="M16.5,27.9c0.1,0.2,0.7,0.3,0.8,0C17.6,26.8,16.1,27.2,16.5,27.9z"/>
	<path class="st5" d="M26.8,17.9c0.1,0.2,0.7,0.3,0.8,0C27.9,16.8,26.4,17.2,26.8,17.9z"/>
	<path class="st5" d="M12.4,23.7c0.1,0.2,0.7,0.3,0.8,0C13.5,22.5,12,22.9,12.4,23.7z"/>
	<path class="st5" d="M12.4,17.9c0.1,0.2,0.7,0.3,0.8,0C13.5,16.8,12,17.2,12.4,17.9z"/>
	<path class="st5" d="M26.9,23.7c0.1,0.2,0.7,0.3,0.8,0C28,22.5,26.5,22.9,26.9,23.7z"/>
</g>
<g id="Layer_8" class="st3">
	<path class="st5" d="M23.7,10.4c0.2,0.3,1,0.4,1.2,0C25.4,8.8,23.1,9.3,23.7,10.4z"/>
	<path class="st5" d="M15.1,10.6c0.2,0.3,1,0.4,1.2,0C16.7,9.1,14.5,9.6,15.1,10.6z"/>
	<path class="st5" d="M23.6,31.5c0.2,0.3,1,0.4,1.2,0C25.3,29.9,23,30.5,23.6,31.5z"/>
	<path class="st5" d="M14.8,31.3c0.2,0.3,1,0.4,1.2,0C16.5,29.8,14.2,30.3,14.8,31.3z"/>
	<path class="st5" d="M29.9,16.6c0.2,0.3,1,0.4,1.2,0C31.6,15.1,29.4,15.6,29.9,16.6z"/>
	<path class="st5" d="M8.8,25.1c0.2,0.3,1,0.4,1.2,0C10.4,23.5,8.2,24,8.8,25.1z"/>
	<path class="st5" d="M8.9,16.7c0.2,0.3,1,0.4,1.2,0C10.5,15,8.3,15.6,8.9,16.7z"/>
	<path class="st5" d="M30.1,25.2c0.2,0.3,1,0.4,1.2,0C31.8,23.5,29.6,24.1,30.1,25.2z"/>
</g>
<g id="Layer_6" class="st3">
	<path class="st5" d="M19.8,4.5c0.5,0.1,1.1-0.4,1-0.9c0-0.2-0.3-0.3-0.6-0.4c-0.3-0.1-0.4-0.1-0.6,0C19.3,3.4,19.3,4.4,19.8,4.5z"
		/>
	<path class="st5" d="M19.6,9.6c0.5,0.1,1.1-0.4,1-0.9c-0.1-0.2-0.3-0.3-0.6-0.4c-0.3-0.1-0.4-0.1-0.6,0C19.1,8.5,19.1,9.5,19.6,9.6
		z"/>
	<path class="st5" d="M7.7,9.6c0.5,0.1,1.1-0.4,1-0.9C8.6,8.5,8.4,8.4,8.1,8.3c-0.3,0-0.4-0.1-0.6,0C7.2,8.5,7.2,9.5,7.7,9.6z"/>
	<path class="st5" d="M11,12.8c0.2,0.3,1,0.4,1.2,0C12.7,11.2,10.3,11.8,11,12.8z"/>
	<path class="st5" d="M29.7,10.7c0.2,0.3,1,0.4,1.2,0C31.4,9.1,29,9.7,29.7,10.7z"/>
	<path class="st5" d="M33.7,20.9c0.2,0.3,1,0.4,1.2,0C35.4,19.3,33,19.9,33.7,20.9z"/>
	<path class="st5" d="M19.4,6.7c0.2,0.3,1,0.4,1.2,0C21.1,5.1,18.7,5.7,19.4,6.7z"/>
	<path class="st5" d="M27.7,12.6c0.2,0.3,1,0.4,1.2,0C29.5,10.9,27.1,11.5,27.7,12.6z"/>
	<path class="st5" d="M19.3,35.1c0.2,0.3,1,0.4,1.2,0C21.1,33.4,18.7,34,19.3,35.1z"/>
	<path class="st5" d="M11.1,29c0.2,0.3,1,0.4,1.2,0C12.8,27.4,10.5,28,11.1,29z"/>
	<path class="st5" d="M29.8,31.1c0.2,0.3,1,0.4,1.2,0C31.5,29.5,29.2,30.1,29.8,31.1z"/>
	<path class="st5" d="M31.3,32.7c0.2,0.3,1,0.4,1.2,0C33,31.1,30.7,31.7,31.3,32.7z"/>
	<path class="st5" d="M31.2,20.9c0.2,0.3,1,0.4,1.2,0C32.9,19.3,30.5,19.9,31.2,20.9z"/>
	<path class="st5" d="M7.5,32.7c0.2,0.3,1,0.4,1.2,0C9.2,31.1,6.9,31.6,7.5,32.7z"/>
	<path class="st5" d="M4.9,21c0.2,0.3,1,0.4,1.2,0C6.6,19.4,4.3,19.9,4.9,21z"/>
	<path class="st5" d="M2.4,21.1c0.2,0.3,1,0.4,1.2,0C4.1,19.5,1.8,20,2.4,21.1z"/>
	<path class="st5" d="M7.6,21.1c0.2,0.3,1,0.4,1.2,0C9.3,19.5,7,20,7.6,21.1z"/>
	<path class="st5" d="M9.3,11c0.2,0.3,1,0.4,1.2,0C11,9.4,8.7,9.9,9.3,11z"/>
	<path class="st5" d="M19.2,32.5c0.2,0.3,1,0.4,1.2,0C21,30.8,18.6,31.4,19.2,32.5z"/>
	<path class="st5" d="M19.4,37.6c0.2,0.3,1,0.4,1.2,0C21.1,35.9,18.8,36.5,19.4,37.6z"/>
	<path class="st5" d="M27.8,29.3c0.2,0.3,1,0.4,1.2,0C29.5,27.7,27.1,28.2,27.8,29.3z"/>
	<path class="st5" d="M9.3,30.9c0.2,0.3,1,0.4,1.2,0C11,29.3,8.6,29.8,9.3,30.9z"/>
	<path class="st5" d="M31.8,8.8c0.2,0.3,1,0.4,1.2,0C33.5,7.2,31.1,7.7,31.8,8.8z"/>
	<path class="st5" d="M36.3,21c0.2,0.3,1,0.4,1.2,0C38,19.4,35.7,20,36.3,21z"/>
</g>
<g id="Layer_4" class="st3">
	<path class="st5" d="M33.1,15.8c0.5,0.1,1.1-0.4,1-0.9c0-0.2-0.3-0.3-0.6-0.4c-0.3-0.1-0.4-0.1-0.6,0
		C32.6,14.7,32.6,15.7,33.1,15.8z"/>
	<path class="st5" d="M23.8,10.2c0.2,0.3,1,0.4,1.2,0C25.5,8.6,23.2,9.1,23.8,10.2z"/>
	<path class="st5" d="M14.9,10.4c0.2,0.3,1,0.4,1.2,0C16.6,8.8,14.3,9.4,14.9,10.4z"/>
	<path class="st5" d="M32.5,26.4c0.2,0.3,1,0.4,1.2,0C34.3,24.7,31.9,25.3,32.5,26.4z"/>
	<path class="st5" d="M23.7,31.7c0.2,0.3,1,0.4,1.2,0C25.4,30.1,23.1,30.7,23.7,31.7z"/>
	<path class="st5" d="M14.7,31.6c0.2,0.3,1,0.4,1.2,0C16.4,30,14.1,30.6,14.7,31.6z"/>
	<path class="st5" d="M24.9,34.1c0.2,0.3,1,0.4,1.2,0C26.6,32.5,24.3,33.1,24.9,34.1z"/>
	<path class="st5" d="M30.2,16.6c0.2,0.3,1,0.4,1.2,0C31.9,15,29.6,15.5,30.2,16.6z"/>
	<path class="st5" d="M6.1,15.4c0.2,0.3,1,0.4,1.2,0C7.8,13.8,5.5,14.3,6.1,15.4z"/>
	<path class="st5" d="M8.5,25.2c0.2,0.3,1,0.4,1.2,0C10.2,23.5,7.9,24.1,8.5,25.2z"/>
	<path class="st5" d="M13.8,7.9c0.2,0.3,1,0.4,1.2,0C15.5,6.3,13.2,6.8,13.8,7.9z"/>
	<path class="st5" d="M8.6,16.6c0.2,0.3,1,0.4,1.2,0C10.3,14.9,8,15.5,8.6,16.6z"/>
	<path class="st5" d="M6.2,26.4c0.2,0.3,1,0.4,1.2,0C8,24.8,5.6,25.4,6.2,26.4z"/>
	<path class="st5" d="M13.9,33.8c0.2,0.3,1,0.4,1.2,0C15.6,32.1,13.3,32.7,13.9,33.8z"/>
	<path class="st5" d="M24.9,7.8c0.2,0.3,1,0.4,1.2,0C26.6,6.2,24.3,6.7,24.9,7.8z"/>
	<path class="st5" d="M30.4,25.3c0.2,0.3,1,0.4,1.2,0C32.1,23.6,29.8,24.2,30.4,25.3z"/>
</g>
</svg>
