<?xml version="1.0" encoding="utf-8"?>
<!-- Generator: Adobe Illustrator 23.0.4, SVG Export Plug-In . SVG Version: 6.00 Build 0)  -->
<svg version="1.1" id="Layer_1" xmlns="http://www.w3.org/2000/svg" xmlns:xlink="http://www.w3.org/1999/xlink" x="0px" y="0px"
	 viewBox="0 0 84 116" style="enable-background:new 0 0 84 116;" xml:space="preserve">
<style type="text/css">
	.st0{fill:white;}
</style>
<title>019 girl avatar profile woman hat cap</title>
<desc>Created with Sketch.</desc>
<g>
	<g transform="translate(-256.000000, -640.000000)">
		<g transform="translate(64.000000, 64.000000)">
			<path class="st0" d="M234,691 M234,689"/>
			<g transform="translate(215.000000, 590.000000)">
				<path class="st0" d="M0.0457956,71.8626175c-7.7670307-0.9912338-14.8932934-2.6306915-21.3786163-4.9196243
					c-0.7159462-0.2526932-0.9002285-1.1796799-0.3353653-1.6869888
					c9.6115808-8.6322403,12.9089985-16.3125229,12.6806908-26.5851707l2.0094042,0.6698036
					c0.0675659,10.031456-3.2009888,17.8529587-12.1078711,26.2569733
					c6.0319405,1.9966736,12.6240959,3.440506,19.7766056,4.3304596L0.0457956,71.8626175z M37.9542046,71.8626175
					l-0.6448479-1.9345474c7.1525116-0.8899536,13.7446671-2.333786,19.7766037-4.3304596
					c-8.9068832-8.4040146-12.1754379-16.2255173-12.107872-26.2569733l2.009407-0.6698036
					C46.7591858,48.9434814,50.0566025,56.623764,59.66819,65.2560043c0.5648575,0.507309,0.3805771,1.4342957-0.3353729,1.6869888
					C52.847496,69.231926,45.7212372,70.8713837,37.9542046,71.8626175z"/>
				<path class="st0" d="M49.3299332,92l-0.8300018-9.9600983c-0.2751389-3.3016663-2.3420258-6.1851959-5.3803787-7.506218
					l-14.5118408-6.309494c-2.1906586-0.9524612-3.6076431-3.1136627-3.6076431-5.5024261V57h2v5.7217636
					c0,1.5925064,0.9446564,3.0333099,2.4050941,3.6682816l14.511837,6.309494
					c3.7135544,1.6145859,6.2397385,5.1389008,6.5760193,9.1742706L51.3368683,92H49.3299332z M-13.33673,92l0.8438482-10.1261902
					c0.3362818-4.0353699,2.8624678-7.5596848,6.5760155-9.1742706l14.5118389-6.309494
					c1.4604397-0.6349716,2.4050961-2.0757751,2.4050961-3.6682816V57h2v5.7217636
					c0,2.3887634-1.4169846,4.5499649-3.6076431,5.5024261l-14.5118389,6.309494
					c-3.0383577,1.321022-5.105237,4.2045517-5.3803768,7.506218L-11.3297977,92H-13.33673z"/>
				<path class="st0" d="M-5,33c0,14.3416443,10.725687,26,24,26s24-11.6583557,24-26h-2c0,13.2725945-9.8692131,24-22,24
					s-22-10.7274055-22-24H-5z"/>
				<path class="st0" d="M44.574234,29.1288338C46.7582397,29.6825142,48,31.9920921,48,35.5c0,4.2391281-3.3716431,9.5-6.5,9.5
					c-0.9608917,0-1.7527313-0.4115982-2.3127823-1.1606674c-0.3307076-0.4423218-0.2402267-1.0689888,0.202095-1.3996964
					c0.4423256-0.3307114,1.0689926-0.2402306,1.3997002,0.202095C40.9779129,42.8943863,41.1810951,43,41.5,43
					c1.7897797,0,4.5-4.2288361,4.5-7.5c0-2.5903587-0.6848373-4.0119972-1.8212128-4.3939476L44.574234,29.1288338z
					 M-6.5742331,29.1288338l0.395443,1.9772186C-7.3151646,31.4880028-8,32.9096413-8,35.5c0,3.2711639,2.7102222,7.5,4.5,7.5
					c0.318903,0,0.5220871-0.1056137,0.7109871-0.3582687c0.3307095-0.4423256,0.9573745-0.5328064,1.3996981-0.202095
					c0.4423237,0.3307076,0.5328064,0.9573746,0.2020969,1.3996964C-1.7472667,44.5884018-2.539108,45-3.4999998,45
					c-3.1283562,0-6.5-5.2608719-6.5-9.5C-10,31.9920921-8.7582426,29.6825142-6.5742331,29.1288338z"/>
				<path class="st0" d="M35.0862694,77.4548645c4.3671303-0.6533737,8.2042351-0.4344177,13.811161,0.4500351l-0.3116302,1.9755783
					c-5.4224396-0.8553543-9.0824165-1.064209-13.2036018-0.4476318
					c-5.4329758,0.8128433-10.6106758,3.1121674-15.7467232,7.3392715c-0.3691711,0.3038406-0.9017792,0.3038406-1.2709503,0
					c-5.1360474-4.2271042-10.3137493-6.5264282-15.7467232-7.3392715
					c-4.1211872-0.6165771-7.7811604-0.4077225-13.2036018,0.4476318l-0.3116322-1.9755783
					c5.6069298-0.8844528,9.4440308-1.1034088,13.8111629-0.4500351C8.4782429,78.287384,13.7878838,80.5812607,19,84.7144241
					C24.2121162,80.5812607,29.5217552,78.287384,35.0862694,77.4548645z M49.5456161,80.8413544l-0.1193542,1.9964371
					c-9.7180519-0.5809937-22.0743446,6.2009201-29.612812,16.7438431c-0.3988571,0.5578232-1.2280426,0.5578232-1.6268997,0
					c-7.5384674-10.542923-19.8947601-17.3248367-29.612812-16.7438431l-0.1193562-1.9964371
					C-1.4445742,80.2374649,11.0283356,86.8771744,19,97.3177109
					C26.9716644,86.8771744,39.4445724,80.2374649,49.5456161,80.8413544z"/>
				<g transform="translate(10.000000, 0.000000)">
					<path class="st0" d="M-18.9871216,23h2.0001259c0.1588039,5.9482193,1.7700119,8.9555702,4.7256012,10.0114098
						c2.4787807,0.8855095,4.9875622,0.6404076,11.8191261-0.7415581c1.2835083-0.2596397,2.039299-0.4080391,2.8560238-0.5566826
						C5.0160484,31.2395554,7.0712738,31,9,31s3.9839516,0.2395554,6.5862465,0.7131691
						c0.8167229,0.1486435,1.5725136,0.2970428,2.8560219,0.5566826c6.831562,1.3819656,9.3403473,1.6270676,11.8191261,0.7415581
						C33.2169838,31.9555702,34.8281898,28.9482193,34.9869957,23h2.0001259
						c-0.1773796,6.7416611-2.1874428,10.5139618-6.0528984,11.8948402
						c-2.9745598,1.0626183-5.6342888,0.8027687-12.888504-0.6646919c-1.2714882-0.2572136-2.0171509-0.4036217-2.8175888-0.5493011
						C12.733799,33.2268829,10.7873077,33,9,33c-1.7873058,0-3.733799,0.2268829-6.2281303,0.6808472
						c-0.8004361,0.1456795-1.5461007,0.2920876-2.8175888,0.5493011
						c-7.2542143,1.4674606-9.9139433,1.7273102-12.8885031,0.6646919C-16.7996788,33.5139618-18.8097401,29.7416611-18.9871216,23z
						"/>
					<path class="st0" d="M13-9c0,0.5522842-0.4477158,1-1,1s-1-0.4477158-1-1c0-1.1045694-0.8954315-2-2-2
						c-1.1045704,0-2,0.8954306-2,2c0,0.5522842-0.4477158,1-1,1S5-8.4477158,5-9c0-2.2091389,1.7908611-4,4-4S13-11.2091389,13-9z"
						/>
					<path class="st0" d="M9,20c-5.3902054,0-10.4258194,0.7208595-16.5206375,2.1166229
						c-1.2500544,0.286274-5.0449963,1.2050362-5.527317,1.3174591c-1.9205923,0.4476624-3.2138395,0.6949921-4.3049765,0.7984543
						C-20.3161888,24.5135078-22,23.5549164-22,21C-22,4.2861423-7.2552881-9,9-9S40,4.2861423,40,21
						c0,2.5549164-1.6838112,3.5135078-4.647068,3.2325363c-1.0911369-0.1034622-2.3843842-0.3507919-4.3049774-0.7984543
						c-0.4823227-0.1124229-4.2772636-1.0311852-5.527317-1.3174591C19.4258194,20.7208595,14.3902054,20,9,20z M9,18
						c5.5644569,0,10.7383232,0.7406521,16.9670944,2.1670914c1.2651176,0.2897224,5.0651627,1.2097206,5.5348625,1.3192024
						c1.8389626,0.4286385,3.061203,0.662384,4.0397644,0.7551727C37.4792099,22.4251747,38,22.1286888,38,21
						C38,5.4398499,24.1944885-7,9-7S-20,5.4398499-20,21c0,1.1286888,0.520792,1.4251747,2.4582787,1.2414665
						c0.9785614-0.0927887,2.2008009-0.3265343,4.0397654-0.7551727c0.469698-0.1094818,4.2697449-1.02948,5.5348606-1.3192024
						C-1.738325,18.7406521,3.4355433,18,9,18z"/>
				</g>
				<path class="st0" d="M19,12.316824c-1.2345848,0-2.4283752,0.5384178-3.9216881,1.622776
					c-0.0564728,0.0410061-1.6420021,1.2516842-2.0446091,1.5054226c-0.9624023,0.6065407-1.8004799,0.7587643-2.5189857,0.0402584
					c-0.718504-0.718504-0.5662804-1.5565834,0.0402603-2.5189838c0.2537384-0.402607,1.4644165-1.9881363,1.5054207-2.0446072
					C13.1447563,9.4283733,13.6831741,8.2345867,13.6831741,7s-0.5384178-2.4283733-1.622776-3.92169
					c-0.0410042-0.0564709-1.2516823-1.6420002-1.5054207-2.0446072C9.9484367,0.0713024,9.7962132-0.766777,10.5147171-1.485281
					c0.7185059-0.7185049,1.5565834-0.5662813,2.5189857,0.0402594c0.402607,0.2537374,1.9881363,1.4644156,2.0446091,1.5054216
					C16.5716248,1.1447582,17.7654152,1.6831751,19,1.6831751S21.4283752,1.1447582,22.9216881,0.0604
					c0.0564728-0.0410061,1.6420021-1.2516842,2.0446091-1.5054216c0.9624023-0.6065407,1.8004799-0.7587643,2.5189857-0.0402594
					c0.718502,0.718504,0.5662804,1.5565834-0.0402603,2.5189838c-0.2537384,0.402607-1.4644165,1.9881363-1.5054207,2.0446072
					C24.8552437,4.5716267,24.3168259,5.7654133,24.3168259,7s0.5384178,2.4283733,1.622776,3.92169
					c0.0410042,0.0564709,1.2516823,1.6420002,1.5054207,2.0446072c0.6065407,0.9624004,0.7587624,1.8004799,0.0402603,2.5189838
					c-0.7185059,0.7185059-1.5565834,0.5662823-2.5189857-0.0402584c-0.402607-0.2537384-1.9881363-1.4644165-2.0446091-1.5054226
					C21.4283752,12.8552418,20.2345848,12.316824,19,12.316824z M13.9031639,12.3212585
					C15.7075996,11.0109825,17.2466965,10.316824,19,10.316824s3.2924004,0.6941586,5.0968361,2.0044346
					c0.0627441,0.0455608,0.4755173,0.3595829,0.9092598,0.6848373c-0.3252563-0.4337425-0.6392784-0.8465157-0.6848373-0.9092598
					C23.0109825,10.2924004,22.3168259,8.7533016,22.3168259,7s0.6941566-3.2924004,2.0044327-5.0968351
					c0.0455589-0.0627451,0.359581-0.4755182,0.6848373-0.9092598c-0.4337425,0.3252544-0.8465157,0.6392756-0.9092598,0.6848373
					C22.2924004,2.9890175,20.7533035,3.683176,19,3.683176s-3.2924004-0.6941586-5.0968361-2.0044336
					c-0.0627441-0.0455618-0.4755173-0.3595829-0.9092598-0.6848373c0.3252563,0.4337416,0.6392784,0.8465147,0.6848373,0.9092598
					C14.9890175,3.7075996,15.6831741,5.2466984,15.6831741,7s-0.6941566,3.2924004-2.0044327,5.0968361
					c-0.0455589,0.0627441-0.359581,0.4755173-0.6848373,0.9092598
					C13.4276466,12.6808414,13.8404198,12.3668194,13.9031639,12.3212585z"/>
			</g>
		</g>
		<g transform="translate(113.000000, 126.000000)">
			<g transform="translate(192.000000, 576.000000)">
				<path class="st0" d="M-12.4453001,0.1680565c-0.459528-0.3063526-1.0803976-0.1821785-1.3867502,0.2773495
					c-0.3063526,0.4595299-0.1821785,1.0803986,0.2773504,1.3867512C-11.3976564,3.2701864-9.2078953,4.0001068-7,4.0001068
					s4.3976555-0.7299204,6.5547009-2.1679497C0.014229,1.5258045,0.1384031,0.9049358-0.1679495,0.445406
					c-0.3063526-0.459528-0.9272213-0.5837021-1.3867512-0.2773495C-3.3976552,1.3966942-5.2078953,2.0001068-7,2.0001068
					S-10.6023436,1.3966942-12.4453001,0.1680565z"/>
				<path class="st0" d="M-14-9c0,0.5522842-0.4477148,1-1,1c-0.5522842,0-1-0.4477158-1-1c0-1.1045694-0.8954296-2-2-2
					c-1.1045685,0-2,0.8954306-2,2c0,0.5522842-0.4477158,1-1,1s-1-0.4477158-1-1c0-2.2091389,1.7908611-4,4-4S-14-11.2091389-14-9z
					"/>
				<path class="st0" d="M8-9c0,0.5522842-0.4477158,1-1,1S6-8.4477158,6-9c0-1.1045694-0.8954296-2-2-2
					s-1.9999998,0.8954306-1.9999998,2c0,0.5522842-0.4477159,1-1.0000001,1s-1-0.4477158-1-1c0-2.2091389,1.7908611-4,3.9999998-4
					S8-11.2091389,8-9z"/>
			</g>
		</g>
	</g>
</g>
</svg>
