<?xml version="1.0" encoding="utf-8"?>
<!-- Generator: Adobe Illustrator 23.0.4, SVG Export Plug-In . SVG Version: 6.00 Build 0)  -->
<svg version="1.1" id="Layer_1" xmlns="http://www.w3.org/2000/svg" xmlns:xlink="http://www.w3.org/1999/xlink" x="0px" y="0px"
	 viewBox="0 0 92 92" style="enable-background:new 0 0 92 92;" xml:space="preserve">
<style type="text/css">
	.st0{fill:black;}
</style>
<path class="st0" d="M46,23.6690006c-12.3129997,0-22.3309994,10.0179996-22.3309994,22.3309994
	S33.6870003,68.3310013,46,68.3310013S68.3310013,58.3120003,68.3310013,46
	C68.3310013,33.6870003,58.3129997,23.6690006,46,23.6690006z M46,65.1460037
	c-10.5579987,0-19.1469994-8.5900002-19.1469994-19.1459999c0-10.5569992,8.5890007-19.1469994,19.1469994-19.1469994
	c10.5589981,0,19.1459961,8.5890007,19.1459961,19.1469994C65.1460037,56.5589981,56.5589981,65.1460037,46,65.1460037z"/>
<path class="st0" d="M44.4080009,2.592v6.7529993v6.7520008c0,0.8789997,0.7130013,1.5919991,1.5919991,1.5919991
	s1.5919991-0.7129993,1.5919991-1.5919991V9.3450003V2.592C47.5919991,1.7129998,46.8790016,1,46,1
	S44.4080009,1.7129998,44.4080009,2.592z"/>
<path class="st0" d="M46,74.3130035c-0.8790016,0-1.5919991,0.7129974-1.5919991,1.5920029v6.7519989v6.7529984
	C44.4080009,90.2870026,45.1209984,91,46,91s1.5919991-0.7129974,1.5919991-1.5920029v-6.7529984v-6.7529984
	C47.5919991,75.0230026,46.8790016,74.3130035,46,74.3130035z"/>
<path class="st0" d="M31.362999,10.6639996C30.5499992,11,30.1660004,11.9309998,30.5019989,12.7439995l2.5839996,6.237999
	c0.2540016,0.6119995,0.8470001,0.9820004,1.4720001,0.9820004c0.2019997,0,0.4080009-0.0389996,0.6080017-0.1219997
	c0.8120003-0.3360004,1.1969986-1.2670002,0.8610001-2.0799999l-2.5839996-6.2369995
	C33.1049995,10.7139997,32.1790009,10.3249998,31.362999,10.6639996z"/>
<path class="st0" d="M58.9140015,73.0179977c-0.3370018-0.8099976-1.2659988-1.1989975-2.0800018-0.8590012
	c-0.8129997,0.3359985-1.1969986,1.2669983-0.8610001,2.0800018l2.5839996,6.2360001
	c0.2560005,0.6119995,0.8479996,0.9820023,1.4729996,0.9820023c0.2030029,0,0.4079971-0.038002,0.6070023-0.1210022
	C61.4500046,81,61.8339996,80.0680008,61.4980011,79.2559967L58.9140015,73.0179977z"/>
<path class="st0" d="M12.7439995,30.5009995c-0.8149996-0.3390007-1.743,0.0499992-2.0799999,0.8610001
	c-0.3360004,0.8120003,0.0489998,1.743,0.8610001,2.0800018l6.2369995,2.5849991
	c0.2000008,0.0820007,0.4060001,0.1209984,0.6089993,0.1209984c0.6240005,0,1.2169991-0.3699989,1.4710007-0.9819984
	c0.3369999-0.8129997-0.0489998-1.7439995-0.8600006-2.0800018L12.7439995,30.5009995z"/>
<path class="st0" d="M80.4749985,58.5589981l-6.2360001-2.5859985c-0.8160019-0.3390007-1.7429962,0.0530014-2.0800018,0.8610001
	c-0.3379974,0.8129997,0.0490036,1.7439995,0.8590012,2.0800018l6.237999,2.5849991
	c0.1999969,0.0830002,0.4059982,0.1210022,0.6070023,0.1210022c0.625,0,1.2180023-0.3700027,1.4729996-0.9810028
	C81.6719971,59.8260002,81.2870026,58.8950005,80.4749985,58.5589981z"/>
<path class="st0" d="M19.8430004,56.8349991c-0.3349991-0.8120003-1.2670002-1.2010002-2.0790005-0.8619995L11.526,58.5569992
	c-0.8129997,0.3359985-1.198,1.2680016-0.8620005,2.0780029c0.2539997,0.612999,0.8470001,0.9830017,1.4720001,0.9830017
	c0.2019997,0,0.407999-0.038002,0.6070004-0.1210022l6.2390003-2.5830002
	C19.7929993,58.5779991,20.1800003,57.6459999,19.8430004,56.8349991z"/>
<path class="st0" d="M73.6279984,36.1479988c0.2030029,0,0.4089966-0.0390015,0.6080017-0.1209984l6.237999-2.5839996
	c0.8130035-0.3370018,1.1959991-1.2680016,0.8600006-2.0800018s-1.2669983-1.1990013-2.0800018-0.8610001l-6.2369995,2.5839996
	c-0.8130035,0.3359985-1.1969986,1.2669983-0.8600006,2.0800018C72.4110031,35.7779999,73.0039978,36.1479988,73.6279984,36.1479988
	z"/>
<path class="st0" d="M35.1660004,72.1549988c-0.8149986-0.3389969-1.7439995,0.0500031-2.0800018,0.8600006l-2.5849991,6.2389984
	c-0.3359985,0.8130035,0.0489998,1.7440033,0.8610001,2.0800018c0.1990013,0.0830002,0.4049988,0.1210022,0.6080017,0.1210022
	c0.6240005,0,1.2169991-0.3700027,1.4720001-0.9810028l2.5849991-6.2399979
	C36.362999,73.4229965,35.9780006,72.4909973,35.1660004,72.1549988z"/>
<path class="st0" d="M58.5569992,11.5249996l-2.5839996,6.2369995c-0.3359985,0.8129997,0.0509987,1.7439995,0.8610001,2.0799999
	c0.2000008,0.0830002,0.4059982,0.1219997,0.6069984,0.1219997c0.625,0,1.2190018-0.3700008,1.4729996-0.9820004l2.5840034-6.237999
	C61.8339996,11.9309998,61.4489975,11,60.637001,10.6639996C59.8199997,10.3249998,58.8950005,10.7139997,58.5569992,11.5249996z"/>
<path class="st0" d="M24.8540001,26.4459991c0.4069996,0,0.8150005-0.1550007,1.1259995-0.4659996
	c0.6219997-0.6219997,0.6219997-1.6299992,0-2.2520008l-9.5499992-9.5489998c-0.6210003-0.6219997-1.6289997-0.6219997-2.2509995,0
	s-0.6219997,1.6299992,0,2.2509995l9.5489998,9.5500011C24.0400009,26.2910004,24.4470005,26.4459991,24.8540001,26.4459991z"/>
<path class="st0" d="M68.2710037,66.0199966c-0.6230011-0.6210022-1.6309967-0.6210022-2.2519989,0
	s-0.6210022,1.6289978,0,2.2519989l9.5490036,9.5490036c0.3119965,0.3119965,0.7200012,0.4670029,1.125,0.4670029
	c0.4079971,0,0.8150024-0.1549988,1.1269989-0.4670029c0.6210022-0.6210022,0.6210022-1.6289978,0-2.25L68.2710037,66.0199966z"/>
<path class="st0" d="M17.6879997,46c0-0.8790016-0.7129993-1.5919991-1.5919991-1.5919991H2.592
	C1.7129998,44.4080009,1,45.1209984,1,46s0.7129998,1.5919991,1.592,1.5919991h13.5050001
	C16.9759998,47.5919991,17.6879997,46.8790016,17.6879997,46z"/>
<path class="st0" d="M89.4079971,44.4080009H75.9020004c-0.8789978,0-1.5920029,0.7130013-1.5920029,1.5919991
	s0.7129974,1.5919991,1.5920029,1.5919991h13.5059967C90.2870026,47.5919991,91,46.8790016,91,46
	S90.2870026,44.4080009,89.4079971,44.4080009z"/>
<path class="st0" d="M23.7290001,66.0199966l-9.5499992,9.5510025c-0.6219997,0.6210022-0.6219997,1.6289978,0,2.25
	c0.3110008,0.3119965,0.7189999,0.4670029,1.1259995,0.4670029c0.4060001,0,0.8139992-0.1549988,1.125-0.4670029l9.5509987-9.548996
	c0.6210003-0.6230011,0.6210003-1.6309967,0-2.2519989C25.3589993,65.3960037,24.3519993,65.3960037,23.7290001,66.0199966z"/>
<path class="st0" d="M77.8199997,14.1800003c-0.6220016-0.6219997-1.6309967-0.6219997-2.2519989,0l-9.5510025,9.5489998
	c-0.6210022,0.6219997-0.6210022,1.6299992,0,2.2520008c0.3130035,0.3110008,0.7190018,0.4659996,1.1269989,0.4659996
	c0.4059982,0,0.8130035-0.1550007,1.125-0.4659996l9.5510025-9.5500011
	C78.4410019,15.8099995,78.4410019,14.802,77.8199997,14.1800003z"/>
</svg>
