<?xml version="1.0" encoding="utf-8"?>
<!-- Generator: Adobe Illustrator 23.0.4, SVG Export Plug-In . SVG Version: 6.00 Build 0)  -->
<svg version="1.1" id="Layer_1" xmlns="http://www.w3.org/2000/svg" xmlns:xlink="http://www.w3.org/1999/xlink" x="0px" y="0px"
	 viewBox="0 0 82.1 81.9" style="enable-background:new 0 0 82.1 81.9;" xml:space="preserve">
<path d="M81.1,46.2c0-2.9-1-5.7-2.8-7.9c0.6-1.4,0.9-2.8,0.9-4.2c0-2.5-0.9-4.9-2.5-6.9c0.5-1.1,0.7-2.3,0.7-3.5
	c0-5.3-4.6-9.7-10.2-9.7C61.5,14,57,18.3,57,23.7c0,1.2,0.2,2.4,0.7,3.5c-1.6,2-2.5,4.4-2.5,6.9c0,1.5,0.3,2.9,0.9,4.2
	c-0.3,0.4-0.6,0.8-0.8,1.2c-2.5-2.6-6.1-4.2-10-4.2c-7.7,0-14,6.2-14,13.9c0,7.3,5.7,13.3,13,13.9V109H26V24
	c9.6-0.6,12,9.3,12.1,9.7c0.1,0.4,0.4,0.7,0.8,0.8c0.1,0,0.1,0,0.2,0c0.3,0,0.6-0.1,0.8-0.4c1.6-2.1,2.2-4.7,1.8-7.2
	S40,22,37.9,20.5c-0.9-0.7-1.8-1.1-2.8-1.4c1.6-0.1,3.2,0.2,5,0.6c4.1,1.2,7,3.6,7.1,3.7c0.3,0.3,0.7,0.3,1.1,0.1
	c0.4-0.2,0.6-0.5,0.6-0.9c0-6.9-5.6-12.5-12.5-12.5c-1.8,0-3.6,0.4-5.2,1.1c5.3-4.4,12.6-2.9,13-2.8c0.4,0.1,0.8-0.1,1-0.4
	c0.2-0.3,0.3-0.7,0.1-1.1c-1.4-2.7-3.8-4.6-6.7-5.5c-2.9-0.9-6-0.6-8.6,0.8c-2.3,1.2-4,3.1-5,5.4c-1-2.3-2.8-4.2-5-5.4
	c-2.7-1.4-5.7-1.7-8.6-0.8C8.3,2.4,5.9,4.3,4.5,7C4.3,7.4,4.3,7.8,4.6,8.1c0.2,0.3,0.6,0.5,1,0.4c0,0,3.3-0.7,7.1,0.1
	c2.3,0.5,4.2,1.4,5.8,2.7c-1.5-0.7-3.3-1.1-5.1-1.1C6.6,10.1,1,15.7,1,22.6c0,0.4,0.2,0.7,0.6,0.9c0.4,0.2,0.8,0.1,1.1-0.1
	c0,0,2.9-2.5,7-3.6c1.8-0.5,3.5-0.7,5.2-0.6c-1,0.3-1.9,0.8-2.8,1.4c-4.3,3.2-5.2,9.3-2,13.6c0.2,0.3,0.5,0.4,0.8,0.4
	c0.1,0,0.1,0,0.2,0c0.4-0.1,0.7-0.4,0.8-0.8c0.1-0.4,2.5-10.3,12.2-9.7V109H2c-0.6,0-1,0.4-1,1s0.4,1,1,1h78c0.6,0,1-0.4,1-1
	s-0.4-1-1-1H68.1l0.1-49.6C75.4,58.9,81.1,53.2,81.1,46.2z M39.8,27.2c0.2,1.3,0,2.7-0.4,3.9c-1.3-3.2-4.7-8.7-11.7-9.1
	c1-0.7,2.1-1.2,3.4-1.4c2-0.3,4.1,0.2,5.7,1.4S39.5,25.1,39.8,27.2z M46.6,20.5c-2.2-1.4-6.3-3.5-11-3.5c-3,0-6.3,0.8-9.5,3.2
	c1.1-4.6,5.2-8.1,10.2-8.1C41.4,12.1,45.6,15.7,46.6,20.5z M26.2,9.6c0.7-2.4,2.3-4.3,4.5-5.5C32.1,3.4,33.6,3,35.2,3
	c0.9,0,1.8,0.1,2.7,0.4c1.7,0.5,3.2,1.5,4.3,2.8c-4-0.3-12.1,0.3-16.2,8.3C25.7,12.9,25.7,11.2,26.2,9.6z M8.8,6.2c-0.5,0-1,0-1.4,0
	c1.1-1.3,2.6-2.3,4.3-2.8c2.4-0.7,4.9-0.5,7.1,0.7s3.8,3.1,4.5,5.5c0.5,1.6,0.5,3.3,0.2,4.9C20,7.4,13.1,6.2,8.8,6.2z M3.2,20.5
	c1-4.8,5.2-8.3,10.2-8.3c4.9,0,9.1,3.4,10.1,8.1C15.3,14.2,6.9,18.2,3.2,20.5z M10.7,31.1c-1.2-3.2-0.2-6.9,2.6-9
	c1.4-1,3-1.5,4.6-1.5c1.6,0,3.2,0.5,4.5,1.4C15.3,22.4,12,27.9,10.7,31.1z M58.1,38c-0.6-1.3-0.9-2.6-0.9-3.9c0-2.2,0.8-4.4,2.4-6
	c0.3-0.3,0.3-0.7,0.2-1.1c-0.5-1-0.8-2.1-0.8-3.2c0-4.2,3.7-7.7,8.2-7.7s8.2,3.4,8.2,7.7c0,1.1-0.3,2.2-0.8,3.2
	c-0.2,0.4-0.1,0.8,0.2,1.1c1.5,1.7,2.4,3.8,2.4,6c0,1.4-0.3,2.7-0.9,3.9c-0.2,0.4-0.1,0.8,0.1,1.1c1.8,2,2.7,4.5,2.7,7.1
	c0,5.9-4.8,10.7-10.9,11.1l0.1-29.2c0-0.6-0.4-1-1-1c0,0,0,0,0,0c-0.6,0-1,0.4-1,1l-0.1,29.2c-2.9-0.2-5.7-1.5-7.7-3.5
	c0.5-1.4,0.8-3,0.8-4.6c0-3-1-5.9-2.7-8.2c0.4-0.7,0.9-1.4,1.4-2C58.2,38.8,58.3,38.3,58.1,38z M33.3,49.2c0-6.6,5.4-11.9,12-11.9
	s12,5.3,12,11.9c0,1.5-0.3,3-0.8,4.3c-0.1,0.1-0.1,0.3-0.2,0.4c-1.7,4-5.5,6.8-10.1,7.2v-2.9l4.8-4.6c0.4-0.4,0.4-1,0-1.4
	c-0.4-0.4-1-0.4-1.4,0l-3.4,3.3v-8.6c0-0.6-0.4-1-1-1s-1,0.4-1,1v4.5L40.9,48c-0.4-0.4-1-0.4-1.4,0c-0.4,0.4-0.4,1,0,1.4l4.7,4.6
	v7.1C38.1,60.6,33.3,55.5,33.3,49.2z M46.2,109V63.1c4.9-0.3,9.2-3.2,11.4-7.3c2.3,2.1,5.3,3.3,8.5,3.5L66.1,109H46.2z"/>
</svg>
