<svg xmlns:dc="http://purl.org/dc/elements/1.1/" xmlns:cc="http://creativecommons.org/ns#" xmlns:rdf="http://www.w3.org/1999/02/22-rdf-syntax-ns#" xmlns:svg="http://www.w3.org/2000/svg" xmlns="http://www.w3.org/2000/svg" xmlns:sodipodi="http://sodipodi.sourceforge.net/DTD/sodipodi-0.dtd" xmlns:inkscape="http://www.inkscape.org/namespaces/inkscape" version="1.1" x="0px" y="0px" viewBox="0 0 100 125"><g transform="translate(0,-952.36218)"><path style="text-indent:0;text-transform:none;direction:ltr;block-progression:tb;baseline-shift:baseline;color:#000000;enable-background:accumulate;" d="m 81.361055,975.17465 c -3.3989,-0.001 -6.7194,1.48596 -8.7812,4.84375 -0.3703,0.41656 -0.7328,0.87556 -1.0933,1.3125 l -21.375,-0.0312 c -0.6307,0.0122 -0.7885,0.16242 -1.124,0.5 l -41.8436991,46 c -0.696,0.8582 -0.2198,1.7566 0.9063,1.75 17.5806991,0 35.1755991,0 52.7499991,0 4.9327,-0.1366 10.7085,-1.7308 15.3124,-5.3125 2.4596,-1.9133 4.5487,-4.4279 5.9688,-7.5313 0.4399,-1.0136 0.6861,-1.6853 1.0938,-2.875 l 9.9062,-27.5625 c 0.1163,-0.35306 0.1045,-0.49431 0.093,-0.75 -0.2377,-6.18533 -6.1001,-10.34171 -11.8126,-10.34375 z m -0.5624,1.96875 c 4.9097,-0.3136 10.2343,3.23601 10.4062,8.46875 l -7.3125,20.34375 c -0.532,-5.0142 -2.4977,-8.64243 -5.25,-10.93753 -2.5823,-2.1531 -5.7808,-3.1259 -8.9375,-3.125 -0.4509,0 -0.8963,0.023 -1.3438,0.062 -1.3317,0.1162 -2.6305,0.4045 -3.875,0.8438 l 9.4376,-11.31252 c 0.093,-0.0973 0.1813,-0.20393 0.25,-0.28125 1.5517,-2.6473 4.0275,-3.89659 6.625,-4.0625 z m -30.5,6.15625 19.5,0.0312 -10.8438,12.96872 c -0.3394,0.4094 -0.631,0.7696 -0.905,1.125 -1.7966,2.406 -2.7148,5.50853 -2.0626,9.03133 1.4261,6.8288 6.1188,9.6782 10.9688,9.5625 4.4125,-0.2293 8.4038,-3.6884 8.25,-8.8438 7e-4,-0.021 7e-4,-0.042 0,-0.062 -0.2419,-3.0946 -1.2896,-5.2336 -2.7812,-6.5 -1.4921,-1.26633 -3.3695,-1.58543 -5,-1.18753 -1.631,0.398 -3.0844,1.50113 -3.7813,3.06253 -0.6969,1.5614 -0.5496,3.5542 0.75,5.4688 0.2945,0.4336 0.957,0.5602 1.3906,0.2656 0.4337,-0.2945 0.5602,-0.957 0.2657,-1.3906 -0.9943,-1.4647 -0.9764,-2.6032 -0.5626,-3.5313 0.4143,-0.928 1.333,-1.6756 2.4063,-1.9375 1.0733,-0.2619 2.2256,-0.062 3.2187,0.7813 0.9892,0.8396 1.8761,2.3912 2.0938,5.0937 0.1155,4.1138 -2.9013,6.6008 -6.375,6.7813 -3.4712,0.1803 -7.3566,-1.9415 -8.875,-7.9375 -0.5448,-2.9802 0.1468,-5.4895 1.625,-7.46883 0.2793,-0.3092 0.5597,-0.6446 0.811,-0.9375 2.0174,-2.1112 5.0319,-3.4461 8.1563,-3.7187 3.1239,-0.2726 6.316,0.5117 8.8124,2.5937 2.4924,2.0782 4.338,5.44583 4.6563,10.59383 0.028,2.2748 -0.2618,4.3164 -0.7813,6.1562 -0.3106,0.8949 -0.6091,1.7191 -0.875,2.5 -0.9147,2.5879 -3.2051,5.083 -5.4687,6.8438 -4.1778,3.2498 -9.5673,4.773 -14.0937,4.9062 -16.8975,0 -33.8149,0 -50.718799,0 z" fill="#000000" fill-opacity="1" fill-rule="evenodd" stroke="none" marker="none" visibility="visible" display="inline" overflow="visible"/><path style="text-indent:0;text-transform:none;direction:ltr;block-progression:tb;baseline-shift:baseline;color:#000000;enable-background:accumulate;" d="m 52.147107,987.43646 a 1.0001,1.0001 0 0 0 -0.765141,0.35323 l -26.498409,30.39381 a 1.0002659,1.0002659 0 1 0 1.508138,1.3144 l 26.498373,-30.39383 a 1.0001,1.0001 0 0 0 -0.742961,-1.66761 z" fill="#000000" fill-opacity="1" fill-rule="evenodd" stroke="none" marker="none" visibility="visible" display="inline" overflow="visible"/><path style="text-indent:0;text-transform:none;direction:ltr;block-progression:tb;baseline-shift:baseline;color:#000000;enable-background:accumulate;" d="m 37.424667,1013.5108 a 1.0001,1.0001 0 0 0 -0.760713,0.361 l -3.796866,4.4391 a 1.0001,1.0001 0 1 0 1.519193,1.2999 l 3.796866,-4.4391 a 1.0001,1.0001 0 0 0 -0.75848,-1.6609 z" fill="#000000" fill-opacity="1" fill-rule="evenodd" stroke="none" marker="none" visibility="visible" display="inline" overflow="visible"/><path style="text-indent:0;text-transform:none;direction:ltr;block-progression:tb;baseline-shift:baseline;color:#000000;enable-background:accumulate;" d="m 49.411001,999.51357 a 1.0001,1.0001 0 0 0 -0.761811,0.3588 l -8.622425,10.03863 a 1.0001,1.0001 0 1 0 1.516996,1.3033 l 8.622425,-10.0386 a 1.0001,1.0001 0 0 0 -0.755185,-1.66213 z" fill="#000000" fill-opacity="1" fill-rule="evenodd" stroke="none" marker="none" visibility="visible" display="inline" overflow="visible"/></g>

<!--

Yoga Mat by Royyan Razka from the Noun Project
https://thenounproject.com/term/yoga-mat/1200644/

<text x="0" y="115" fill="#000000" font-size="5px" font-weight="bold" font-family="'Helvetica Neue', Helvetica, Arial-Unicode, Arial, Sans-serif">Created by Royyan Razka</text><text x="0" y="120" fill="#000000" font-size="5px" font-weight="bold" font-family="'Helvetica Neue', Helvetica, Arial-Unicode, Arial, Sans-serif">from the Noun Project</text>

-->

</svg>