<?xml version="1.0" encoding="utf-8"?>
<!-- Generator: Adobe Illustrator 23.0.1, SVG Export Plug-In . SVG Version: 6.00 Build 0)  -->
<svg version="1.1" id="Layer_1" xmlns="http://www.w3.org/2000/svg" xmlns:xlink="http://www.w3.org/1999/xlink" x="0px" y="0px"
	 viewBox="0 0 71.2831268 17.9929981" style="enable-background:new 0 0 71.2831268 17.9929981;" xml:space="preserve">
<style type="text/css">
	.st0{fill:#EB4997;}
	.st1{font-family:'Krungthep';}
	.st2{font-size:4.5355px;}
</style>
<text transform="matrix(1 0 0 1 0 7.3358879)" class="st0 st1 st2">Funktion-One </text>
<text transform="matrix(1 0 0 1 0 12.7782707)" class="st0 st1 st2">Sound by:</text>
<path class="st0" d="M56.545929,7.8426991c-0.0150146-0.0009995-0.029007-0.0009995-0.0440063-0.0009995
	c-0.2940063-0.0009995-0.5890045-0.0030003-0.8829956-0.0039997c-0.0250092,0-0.0500031,0.0039997-0.07901,0.0060005
	c-0.022995,0.1420002-0.04599,0.2770004-0.0679932,0.4109993c0.0149994,0.0100002,0.0179901,0.0130005,0.0209961,0.012001
	c0.3379974,0,0.6759949-0.0010014,1.0149994-0.0020008c0.0480042,0,0.0670013-0.0259991,0.0720062-0.0699997
	c0.0119934-0.0869999,0.0249939-0.1750011,0.0359955-0.262001C56.6249237,7.8626995,56.612915,7.8477001,56.545929,7.8426991"/>
<path class="st0" d="M62.1484222,8.2215996h1.1379852c0.0170135-0.112999,0.0360107-0.2289982,0.0559998-0.3579998h-1.1429901
	C62.1804199,7.9806004,62.1494141,8.0956001,62.1484222,8.2215996"/>
<path class="st0" d="M34.85112,17.9929981h36.4320068V0H34.85112V17.9929981z M63.3951111,4.9369984
	c0.0350037-0.0599995,0.0660095-0.1159992,0.0980072-0.1709995c0.0420074-0.0719986,0.0809937-0.1450005,0.1269989-0.2129974
	c0.0800018-0.118,0.1849976-0.2030029,0.3249969-0.2439995c0.0410004-0.012001,0.0670013-0.0030022,0.0910034,0.0299988
	c0.0820007,0.1090012,0.1130066,0.2329979,0.1029968,0.3660011c-0.0059967,0.1029968-0.022995,0.204998-0.0339966,0.3079967
	c-0.0050049,0.0470009-0.0070038,0.0930004-0.0099945,0.1459999c0.29599,0.1330013,0.5699921,0.2980003,0.8259888,0.5020008
	c0.076004-0.0480003,0.1490021-0.0970001,0.2250061-0.1410007c0.076004-0.0459995,0.1519928-0.0919991,0.2319946-0.1279984
	c0.1040039-0.0470009,0.2150116-0.0600014,0.3280029-0.0360012c0.048996,0.0109997,0.0700073,0.0319996,0.076004,0.0809994
	c0.0149994,0.1280003-0.0110016,0.2480011-0.0789948,0.3560009c-0.0600128,0.0949993-0.1260071,0.1849995-0.1900024,0.2770004
	C65.4891205,6.105999,65.4681244,6.1449986,65.4431152,6.184c0.2070007,0.2600002,0.3789978,0.5369987,0.5100098,0.8499985
	c-0.3000031,0.1190014-0.5950012,0.2360001-0.8890076,0.3540001c-0.5599976-1.0949993-1.4499969-1.6099987-2.6799927-1.5509987
	c-0.0450134-0.3129997-0.0900116-0.6260014-0.1350098-0.9470005C62.6391144,4.8429985,63.0161133,4.8619995,63.3951111,4.9369984
	 M59.2061157,3.5270004c0.0360107-0.0250015,0.0749969-0.0480003,0.1130066-0.0690002c0.25-0.1399994,0.5-0.2779999,0.75-0.4179993
	c0.0179901-0.0100021,0.0359955-0.019001,0.0549927-0.0279999c0.0550079-0.0270004,0.1029968-0.0139999,0.1430054,0.0299988
	c0.0249939,0.0250015,0.0460052,0.0540009,0.0630035,0.0849991c0.3040009,0.5390015,0.6100006,1.0769997,0.9059906,1.6210022
	c0.1430054,0.2629986,0.2200012,0.5529976,0.2910004,0.8419991c0.0350037,0.1399994,0.0619965,0.2819996,0.0950012,0.4229984
	c0.0130005,0.052,0.0039978,0.1000004-0.0279999,0.1420002c-0.0939941,0.1210003-0.2229919,0.1790009-0.3889923,0.1990013
	c-0.0270081-0.012001-0.0720062-0.0230007-0.1040039-0.0500011c-0.223999-0.1919994-0.447998-0.3839989-0.6670074-0.5809994
	c-0.1439972-0.132-0.2599945-0.2870007-0.3619995-0.4549999c-0.2259979-0.3730011-0.4589996-0.7440014-0.6839905-1.1169987
	c-0.0830078-0.1380005-0.1560059-0.2840004-0.230011-0.4280014C59.1101227,3.632,59.1231232,3.5859985,59.2061157,3.5270004
	 M40.5171204,9.7179985h-0.9730072c0.0470123-0.3069992,0.0940094-0.6079998,0.1399994-0.914999h-1.0899963
	c-0.04599,0.2999992-0.0930023,0.6019993-0.1399994,0.9139996c-0.322998,0.0109997-0.6470032,0.0030003-0.9759979,0.0020008
	c0.1260071-0.835001,0.2510071-1.6620007,0.3769989-2.4990005c0.3220062-0.0160007,0.6439972-0.0079994,0.9810028-0.0060005
	c-0.0480042,0.3070011-0.0950012,0.6050014-0.1419983,0.9020004c0.0690002,0.019001,0.9720001,0.0230007,1.0899963,0.0050011
	C39.8061218,7.973999,39.8301239,7.823,39.8521118,7.671999C39.874115,7.5229988,39.8941193,7.375,39.9161224,7.2209988h0.9779968
	C40.7681122,8.0529995,40.6431122,8.882,40.5171204,9.7179985 M42.2441254,9.7199993
	C41.927124,9.7360001,41.6131134,9.7319984,41.2851257,9.743c0.1159973-0.8439999,0.2309875-1.677,0.3479919-2.5220013h0.9819946
	C42.499115,8.0529995,42.3611145,8.8799992,42.2441254,9.7199993 M46.2921143,7.8439999h-0.1059875
	c-0.5920105,0.0059986-1.1850128,0.0109997-1.7779999,0.0179996C44.2341156,7.862999,44.2691193,7.868,44.2391205,8.0019989
	c-0.0650024,0.2870007-0.1260071,0.5750008-0.1880035,0.8630009c-0.0249939,0.1149998,0.0140076,0.1819992,0.125,0.2129993
	c0.0310059,0.0090008,0.0630035,0.0149994,0.0950012,0.0149994c0.2660065,0.0020008,0.5319977,0.0010014,0.7960052,0
	c0.0209961,0,0.0399933-0.0039997,0.0659943-0.007c0.0140076-0.0979996,0.029007-0.1919994,0.0449982-0.2919998
	c-0.0789948-0.0240002-0.1519928-0.0100002-0.223999-0.0129986c-0.072998-0.0030003-0.147995-0.0010014-0.220993-0.0010014
	H44.502121c0.0269928-0.2189999,0.0699921-0.4279995,0.1080017-0.6359997
	c0.0709991-0.0200005,1.5419922-0.0159988,1.6239929,0.0050011c-0.0759888,0.5199986-0.1519928,1.039999-0.2289886,1.5639992
	c-0.0270081,0.0020008-0.0460052,0.0060005-0.0670013,0.0060005c-0.7600098,0-1.5210114,0-2.2820129-0.0010014
	c-0.1159973,0-0.2289886-0.0129986-0.3399963-0.0509987c-0.1880035-0.066-0.2740021-0.177-0.2679901-0.3780003
	c0.0029907-0.1289997,0.0239868-0.2579994,0.0439911-0.3859997c0.0540009-0.3640003,0.1119995-0.7270012,0.1690063-1.0909996
	c0.0029907-0.0270004,0.0099945-0.052,0.0139923-0.0790005c0.0510101-0.2860012,0.2279968-0.4430008,0.5080109-0.4920006
	c0.094986-0.0160007,0.1919861-0.0270004,0.2889862-0.0270004c0.7430115-0.0019989,1.4860077-0.0009995,2.230011,0
	c0.022995,0,0.0449982,0.0030003,0.0839996,0.0050011C46.3531189,7.4329987,46.3231201,7.6350002,46.2921143,7.8439999
	 M49.7661133,9.7199993c-0.321991,0.0049992-0.6380005,0.0039997-0.9679871,0.0009995
	C48.8461151,9.4109993,48.8921204,9.1099987,48.9401245,8.802h-1.0930023
	c-0.0570068,0.3009987-0.1139984,0.6029987-0.1710052,0.9130001h-0.9440002c0.1260071-0.8310013,0.25-1.6580009,0.3769989-2.4970016
	h0.9790039c-0.0449982,0.3030014-0.0899963,0.6000004-0.1340027,0.8960018
	c0.0740051,0.0209999,0.9949951,0.0249996,1.0879974,0.0049992c0.0449982-0.2940006,0.0900116-0.5909996,0.1370087-0.8990002
	c0.3199921-0.0149994,0.6419983-0.007,0.970993-0.0079994C50.0221252,8.052,49.8951263,8.8799992,49.7661133,9.7199993
	 M53.8131256,7.8359985c-0.6860046,0.0100002-1.3690033-0.0079994-2.0570068,0.0220013
	c-0.0169983,0.0869999-0.0339966,0.1709995-0.0500031,0.2589989c0.0770111,0.026001,0.154007,0.0100002,0.2279968,0.0130005
	C52.0141144,8.1339989,52.0941162,8.132,52.174118,8.132c0.076004,0,0.1529999,0,0.2290039-0.0010014h0.2389984
	c-0.0359955,0.2259998-0.0700073,0.4400005-0.1060028,0.6640015h-0.9369965
	c-0.0189972,0.1009998-0.0370026,0.1959991-0.0559998,0.2999992h2.0879974
	c-0.0350037,0.2110004-0.0700073,0.4130001-0.1029968,0.6130009c-0.0670013,0.0189991-2.9309998,0.0209999-3.0319977,0.0019989
	c0.1259918-0.8290005,0.2509918-1.657999,0.3769989-2.4920006h3.0279999
	C53.8711243,7.4300003,53.8431244,7.6280003,53.8131256,7.8359985 M57.575119,8.0159988
	c-0.0149994,0.0810013-0.0350037,0.1620007-0.0410004,0.2440014C57.525116,8.3929996,57.4641113,8.4869995,57.3491211,8.552
	c-0.0070038,0.0049992-0.0140076,0.0100002-0.026001,0.0170002C57.3431244,8.5900002,57.3551178,8.6040001,57.3701172,8.618
	c0.0550079,0.0559998,0.0820007,0.1219997,0.0720062,0.1999989c-0.0250092,0.1970005-0.052002,0.3920002-0.0800018,0.5869999
	C57.3471222,9.507,57.328125,9.6079998,57.3101196,9.7080002c-0.072998,0.0199986-0.8470001,0.0209999-0.9600067,0.0009995
	c0.0180054-0.1119995,0.0380096-0.2250004,0.0540009-0.3379993c0.0160065-0.1070004,0.0330048-0.2160015,0.0420074-0.3240013
	c0.0079956-0.1029987-0.0059967-0.1159992-0.1110077-0.1229992c-0.1069946-0.0060005-0.2129974-0.0090008-0.3190002-0.0090008
	c-0.1859894,0-0.371994,0.0020008-0.5569916,0.0030003c-0.0270081,0.0009995-0.052002,0.0039997-0.0850067,0.0060005
	c-0.0379944,0.2619991-0.0769958,0.5209999-0.1159973,0.7889996c-0.322998,0.0179996-0.6450043,0.0049992-0.9750061,0.0100002
	C54.4101257,8.882,54.5351257,8.0529995,54.6621246,7.2169991c0.0279999-0.0019989,0.0569916-0.0049992,0.0849915-0.0049992
	c0.7440033,0.0009995,1.4869995,0.0019989,2.2299957,0.0039997c0.1270142,0,0.2550049,0.0089989,0.3740082,0.0559998
	C57.4051208,7.2939987,57.4581146,7.323,57.5041199,7.3589993c0.0579987,0.0470009,0.0910034,0.1119995,0.098999,0.1900005
	C57.6211243,7.7069988,57.6001129,7.8610001,57.575119,8.0159988 M58.7691193,9.7339993
	c-0.1080017-0.0060005-0.2030029-0.0559998-0.2850037-0.1289997c-0.0339966-0.0289993-0.0410004-0.0569992-0.0240021-0.1000004
	C58.5091248,9.382,58.5931244,9.2909985,58.7081146,9.2279987c0.0660095-0.0380001,0.1370087-0.0679989,0.2050018-0.1019993
	C58.9871216,9.0889988,59.0601196,9.052,59.1361237,9.0149994c-0.0390015-0.3500004-0.0490112-0.6930008-0.0039978-1.0400009
	c-0.0490112-0.0249996-0.0940094-0.0449982-0.1380005-0.0679989c-0.1000061-0.0510006-0.2020111-0.0970001-0.2990112-0.1529999
	c-0.1089935-0.0650005-0.1879883-0.1569996-0.2339935-0.2790012c-0.0180054-0.0459995-0.0110016-0.0769997,0.0269928-0.1079998
	c0.105011-0.0869999,0.2259979-0.125,0.3590088-0.125C58.9541168,7.243,59.0591125,7.2519989,59.1651154,7.2559986
	C59.2121124,7.2579994,59.2591248,7.257,59.3071136,7.257c0.1160126-0.3120003,0.2630005-0.5990009,0.45401-0.8640003
	c0.0159912-0.0240002,0.0349884-0.0459995,0.0569916-0.0750008c0.253006,0.2010002,0.5019989,0.3970013,0.7480011,0.592001
	c-0.6660004,1.0389996-0.6660004,2.0629997-0.0019989,3.0979996c-0.2449951,0.1919994-0.4949951,0.3869991-0.7509918,0.5900002
	c-0.2060089-0.2670002-0.355011-0.5550003-0.4830017-0.8630009h-0.1470032
	C59.0461121,9.7349987,58.9071198,9.7419987,58.7691193,9.7339993 M61.5841217,11.1989994
	c-0.0410004,0.2299995-0.0820007,0.4589996-0.1600037,0.6789989c-0.0339966,0.0950012-0.0709991,0.1880016-0.1179962,0.276001
	c-0.2109985,0.3990002-0.423996,0.7959995-0.6430054,1.191c-0.0839996,0.1520004-0.1799927,0.2980003-0.272995,0.4440002
	c-0.0610046,0.0979996-0.102005,0.1089993-0.2060089,0.0550003c-0.0979919-0.052-0.1940002-0.1110001-0.2910004-0.1669998
	c-0.1819916-0.1090012-0.3639984-0.2180004-0.54599-0.3270016c-0.026001-0.0149994-0.0500031-0.0319996-0.072998-0.0499992
	c-0.0340118-0.0300007-0.0490112-0.0690002-0.0350037-0.1119995c0.0139923-0.0419998,0.0279999-0.085001,0.0509949-0.1219997
	c0.2429962-0.4140015,0.4960022-0.8240013,0.7290039-1.243c0.2859955-0.5110016,0.6809998-0.9230003,1.1150055-1.3050003
	c0.0499878-0.0450001,0.1059875-0.0599995,0.17099-0.0450001c0.125,0.0279999,0.230011,0.0909996,0.3059998,0.1949997
	c0.0270081,0.0359993,0.0370026,0.0830002,0.0480042,0.1079998C61.6321259,10.9319992,61.6071167,11.0649986,61.5841217,11.1989994
	 M61.6101227,9.7159996c-0.0930023-0.0060005-0.1869965-0.0240002-0.2770081-0.052
	c-0.1940002-0.0610008-0.298996-0.2080002-0.2979889-0.4120007c0-0.1019993,0.0159912-0.2039986,0.0249939-0.3120003h0.9409943
	c0.0039978,0.0100002,0.0110016,0.0200005,0.0130005,0.0310001c0.0230103,0.085001,0.0780029,0.1140003,0.1650085,0.1140003
	c0.3119965-0.0039997,0.625-0.0019989,0.9369965-0.0019989c0.0149994,0,0.0289917-0.0020008,0.0559998-0.0050011
	c0.0099945-0.0879993,0.0220032-0.2269993,0.0350037-0.3269997c-0.0339966-0.0020008-0.0660095-0.0060005-0.0970001-0.0060005
	c-0.5149994-0.007-1.0319977-0.0139999-1.5480042-0.0209999c-0.0820007-0.0009995-0.1649933-0.0049992-0.246994-0.0159988
	c-0.1399994-0.019001-0.2000122-0.0799999-0.1829987-0.2189999c0.0329895-0.2840004,0.0579987-0.5180016,0.1309967-0.7970009
	c0.0780029-0.3040009,0.2579956-0.4230003,0.5589905-0.4689999c0.0559998-0.0090008,0.1119995-0.012001,0.1679993-0.012001
	c0.598999,0,1.1970062,0.0020008,1.7960052,0.0050011c0.072998,0.0009995,0.147995,0.0089989,0.2189941,0.0249996
	c0.0590057,0.0149994,0.1180115,0.0410004,0.1700134,0.073c0.1079865,0.0669994,0.1679993,0.1650009,0.1549988,0.2959995
	c-0.0200043,0.1940002-0.0370026,0.3880005-0.0640106,0.5799999c-0.0410004,0.2980003-0.0869904,0.5950012-0.1360016,0.8920002
	c-0.0159912,0.092001-0.0389862,0.1850014-0.071991,0.2720013c-0.052002,0.1479988-0.1569977,0.2509995-0.3079987,0.2939987
	c-0.1070099,0.0320015-0.2170105,0.0629997-0.3269958,0.0670013c-0.401001,0.0139999-0.802002,0.0199986-1.2020111,0.0229988
	C62.0161133,9.7390003,61.8131256,9.7290001,61.6101227,9.7159996 M65.4481201,10.8330002
	c0.0599976,0.0949993,0.1239929,0.1869984,0.1759949,0.2859993c0.0670013,0.1289997,0.0870056,0.2670002,0.0370026,0.4120007
	c-0.1210022,0.0450001-0.2389984,0.032999-0.352005-0.0200005c-0.0820007-0.0389996-0.1579895-0.0909996-0.2350006-0.1400013
	c-0.0699921-0.0429993-0.1380005-0.0899982-0.2109985-0.1389999c-0.2379913,0.177-0.4850006,0.3299999-0.7619934,0.4500008
	c0.0139923,0.1009998,0.0279999,0.1989994,0.0399933,0.2970009c0.0130005,0.1119995,0.0200043,0.223999-0.0089874,0.3339996
	c-0.0240021,0.0869999-0.0640106,0.164999-0.131012,0.2279987c-0.1309967-0.0179996-0.2359924-0.0809994-0.3139954-0.1829987
	c-0.0509949-0.0670013-0.0930023-0.1410007-0.1380005-0.2140007c-0.0480042-0.0779991-0.0930023-0.1569996-0.1410065-0.237999
	c-0.3859863,0.0719986-0.7659912,0.098999-1.1609955,0.0439987c0.0469971-0.3239994,0.0930023-0.6350002,0.1380005-0.9440002
	c1.2279968,0.0600014,2.1190033-0.4509983,2.6829987-1.546999c0.2910004,0.1170006,0.5859985,0.2350006,0.8880005,0.355999
	c-0.1429901,0.3400002-0.3349915,0.6410007-0.5709991,0.9210014C65.4061127,10.7699986,65.4281158,10.8009987,65.4481201,10.8330002
	 M68.5761261,8.9159985c-0.0020142,0.1380005-0.0400085,0.1820011-0.1790009,0.1830006
	c-0.3090057,0.0030003-0.6190033,0.0039997-0.928009,0c-0.2689972-0.0019989-0.5379944-0.0119991-0.8049927-0.0170002
	c-0.3209991-0.0049992-0.6330109-0.0679989-0.9400024-0.1529999c-0.1620026-0.0450001-0.3209991-0.1000004-0.4820099-0.1469994
	c-0.0759888-0.0219994-0.1209869-0.0690002-0.1419983-0.1429996c-0.0309906-0.1200008-0.026001-0.2399998,0.0230103-0.3550014
	c0.0189972-0.0479984,0.0509949-0.0869999,0.1019897-0.1029987c0.3130035-0.1049995,0.6240082-0.2140007,0.9390106-0.3120003
	c0.1579895-0.0499992,0.3239899-0.0610008,0.4899902-0.0639992c0.276001-0.0050011,0.5540009-0.0150013,0.8310089-0.0230007
	c0.3209991-0.0130005,0.6429901-0.019001,0.9629974,0.0049992c0.0899963,0.007,0.1230011,0.0320015,0.1349945,0.1210003
	c0.0080109,0.0550003,0.0080109,0.1119995,0.0070038,0.1669998C68.5861206,8.3549995,68.5811157,8.6359997,68.5761261,8.9159985"/>
</svg>
