<?xml version="1.0" encoding="utf-8"?>
<!-- Generator: Adobe Illustrator 23.0.1, SVG Export Plug-In . SVG Version: 6.00 Build 0)  -->
<svg version="1.1" id="Layer_1" xmlns="http://www.w3.org/2000/svg" xmlns:xlink="http://www.w3.org/1999/xlink" x="0px" y="0px"
	 viewBox="0 0 25.9599991 39.0600014" style="enable-background:new 0 0 25.9599991 39.0600014;" xml:space="preserve">
<style type="text/css">
	.st0{fill:#383739;}
</style>
<polygon class="st0" points="12.6987114,1.0027243 0.9977078,7.7577291 0.9977078,21.3927231 12.6987114,28.148735 "/>
<polygon class="st0" points="13.2573051,0.9997336 13.2573051,28.1507339 24.9622917,21.3927383 24.9622917,7.7577443 "/>
<path class="st0" d="M5.8167081,29.4832382c0.2319946,0.151001,0.4559937,0.298996,0.697998,0.4579926
	C5.844708,30.9572372,5.1807065,31.9662399,4.49371,33.0112381c0.7289886-0.2290039,1.4089966-0.2129974,2.04599,0.1599884
	c0.6220093,0.3640137,1.0169983,0.9080048,1.1999969,1.6410065c0.0390015-0.0769958,0.0640106-0.1230011,0.0860138-0.1710052
	c0.7869868-1.6669922,1.5739894-3.3349915,2.360992-5.0019989c0.0359955-0.0769958,0.0540009-0.1589966,0.177002-0.1609955
	c0.125-0.0019989,0.1439972,0.0789948,0.1799927,0.1560059c1.1420135,2.4549866,2.2850037,4.9099884,3.428009,7.3649902
	c0.0269928,0.0579987,0.0569916,0.1150055,0.1080017,0.2149963c0.0569916-0.3869934,0.1069946-0.7269897,0.1559906-1.0669861
	c0.1840057-1.2860107,0.3680115-2.5730133,0.552002-3.8590088c0.125-0.8779907,0.2490082-1.7559967,0.378006-2.6329956
	c0.0090027-0.0599976,0.0549927-0.1139984,0.0839996-0.1699982c0.048996,0.0429993,0.1149902,0.0759888,0.1419983,0.1299896
	c1.1060028,2.2280121,2.2089996,4.4589996,3.3119965,6.6890106c0.029007,0.0579987,0.0599976,0.1139984,0.1000061,0.1920013
	c0.0390015-0.0709991,0.0679932-0.1220093,0.0919952-0.1730042c1.0910034-2.223999,2.1809998-4.4490051,3.2709961-6.6730042
	c0.0160065-0.0350037,0.0250092-0.0780029,0.052002-0.1029968c0.0310059-0.029007,0.0780029-0.0559998,0.1179962-0.0559998
	c0.0220032,0.0009918,0.0590057,0.0559998,0.0650024,0.0910034c0.0810089,0.5439911,0.1569977,1.0889893,0.2350006,1.6349945
	c0.1699982,1.1880035,0.3410034,2.3760071,0.5120087,3.5650024c0.151001,1.0469971,0.3000031,2.0930023,0.4499969,3.1389923
	c0.0050049,0.0380096,0.0059967,0.076004,0.0099945,0.1230011h-0.8349915
	c-0.2779999-2.0119934-0.5559998-4.0279999-0.8410034-6.0899963c-0.0440063,0.0800018-0.0709991,0.1260071-0.0939941,0.173996
	c-0.9490051,1.9200134-1.8960114,3.8400116-2.8450012,5.7600098c-0.0380096,0.0769958-0.0540009,0.1699982-0.1880035,0.1719971
	c-0.1380005,0.0019989-0.1600037-0.0910034-0.2019958-0.1750031c-0.9580078-1.9329987-1.9170074-3.8659973-2.875-5.8000031
	c-0.0230103-0.0469971-0.0500031-0.0919952-0.0970001-0.1779938c-0.2830048,2.072998-0.5600128,4.1029968-0.8380127,6.1459961
	c-0.4049988,0-0.7949982,0.0050049-1.1859894-0.0059967c-0.0480042-0.0010071-0.1100006-0.0769958-0.1370087-0.1309967
	c-0.4069977-0.8430023-0.8109894-1.6869965-1.2089996-2.5339966c-0.0529938-0.1110077-0.1139984-0.1480103-0.2359924-0.1480103
	c-1.1190033,0.0050049-2.2380066,0.0059967-3.3580017,0c-0.125-0.0009918-0.1809998,0.0440063-0.2319946,0.1520081
	c-0.3900146,0.8389893-0.792007,1.6719971-1.1790004,2.5110016c-0.0600128,0.1279907-0.1300049,0.1609955-0.2620087,0.1589966
	c-0.5899963-0.0059967-1.1809998-0.0169983-1.7700043,0c-1.8889923,0.0599976-3.1009979-1.6790009-2.5869904-3.4450073
	c0.1490021-0.5090027,0.3909912-0.970993,0.6809998-1.4079895c0.8130035-1.2260132,1.6340027-2.4470062,2.451004-3.6690063
	C5.7786984,29.5202255,5.792706,29.5092392,5.8167081,29.4832382 M5.1516995,33.6182327
	c-0.9949951,0-1.7949982,0.7980042-1.798996,1.7969971c-0.0039978,0.9940033,0.7969971,1.8010101,1.7910004,1.8050079
	c1.0010071,0.0039978,1.8099976-0.8040009,1.8070068-1.8050079C6.9466977,34.4172287,6.1467099,33.6182327,5.1516995,33.6182327
	 M8.907711,34.3952255h2.9039917c-0.4839935-1.0289917-0.9589996-2.0389862-1.4490051-3.0799866
	C9.8677025,32.3632278,9.3897057,33.3742294,8.907711,34.3952255"/>
</svg>
