<?xml version="1.0" encoding="utf-8"?>
<!-- Generator: Adobe Illustrator 23.0.1, SVG Export Plug-In . SVG Version: 6.00 Build 0)  -->
<svg version="1.1" id="Layer_1" xmlns="http://www.w3.org/2000/svg" xmlns:xlink="http://www.w3.org/1999/xlink" x="0px" y="0px"
	 viewBox="0 0 30.2700005 38.5499992" style="enable-background:new 0 0 30.2700005 38.5499992;" xml:space="preserve">
<style type="text/css">
	.st0{fill:#383739;}
</style>
<path class="st0" d="M26.9294033,21.8573074c-0.2450104-0.135994-0.5070038-0.2699966-0.8010101-0.3799973
	c-2.0509949-0.7669983-4.6360016-1.8119965-6.9929962-3.1989975c-0.8399963-0.4930038-4.1690063-2.5670004-5.5220032-3.2949972
	c-1.2929993-0.6960068-2.7290039-1.2000046-4.3049927-1.2000046c-4.5879974,0-8.3079987,3.7190008-8.3079987,8.3069983
	c0,2.2750015,0.8929901,4.3280029,2.423996,5.8600006c1.4599917,1.4599991,3.6999972,2.1320038,5.4729919,2.1320038
	c4.3209991,0,7.8530121-4.038002,7.4790039-8.6700058l-0.5339966-0.6399994
	c-1.5670013,2.0230026-3.6269989,3.012001-5.9680023,3.0440063c-1.3329926,0-4.3789978-0.8340073-4.3789978-4.029007
	c0-1.5239944,0.8430023-2.8499985,2.0879974-3.5379944c0.0090027-0.0060043,0.0189972-0.0110016,0.0279999-0.0159988
	c0.5630035-0.3100042,1.2089996-0.4880056,1.897995-0.4930029H9.612402c2.2879944,0,3.8329926,1.0679998,5.3869934,2.6200018
	c0.8320007,0.8310013,1.5980072,1.798996,2.298996,2.8289948c0.6560059,0.965004,2.7400055,4.4220047,3.404007,5.5440063
	c0.7200012,1.2179947,1.6459961,2.659996,3.5890045,2.935997c0.0919952,0.012001,0.1759949,0.0220032,0.2609863,0.0289993
	c2.3930054,0.1989975,4.5240021-1.6050034,4.6080017-4.0039978C29.2183895,24.0283127,28.2804012,22.606308,26.9294033,21.8573074"
	/>
<path class="st0" d="M18.6510983,17.0624084c0.0219879,0.0160065,0.04599,0.0310059,0.0699921,0.0450058
	c4.5010071-1.5269995,8.4250031-4.8469992,9.9279938-9.4489965c0.2200012-0.6750031,0.4370117-1.3919983,0.4710083-2.1029968
	c0.1349945-2.8730011-2.5220032-5.1370087-5.3070068-4.4190063c-1.7259979,0.4470062-2.7050018,1.9420015-2.8769989,3.6580048
	c-0.1210022,1.2019958-0.0309906,2.4219971-0.1490021,3.6300049c-0.2679901,2.7299881-0.8649902,5.382988-2.3880005,7.6989889
	l-0.3609924,0.548996L18.6510983,17.0624084z"/>
<path class="st0" d="M1.3000848,35.4966125c0-1.1919937,0.8899994-1.9899979,1.9759979-1.9899979
	c0.9350131,0,1.7930148,0.4560013,1.9750063,1.3529968h0.0299988v-2.75h1.0789948v5.3170013H5.2510891l0.1670074-1.237999H5.3270931
	c-0.1829987,0.9110031-1.102005,1.3590012-2.0670016,1.3590012C2.1820886,37.5476151,1.3000848,36.7276154,1.3000848,35.4966125
	 M5.0690975,35.5126114c0-0.7289963-0.6390076-1.1779938-1.3600008-1.1779938c-0.7830048,0-1.352005,0.4489975-1.352005,1.1779938
	c0,0.7440033,0.5690002,1.2000046,1.352005,1.2000046C4.43009,36.712616,5.0690975,36.2566147,5.0690975,35.5126114"/>
<path class="st0" d="M11.511404,37.426712h-1.1850128l0.1529999-1.5649948h-0.0619965
	c-0.1589966,1.0100021-0.720993,1.685997-1.8679962,1.685997c-1.0709991-0.0149994-1.5800018-0.6149979-1.5800018-2.2699966
	v-1.6490021h1.0780029v1.5189972c0,1.1470032,0.3049927,1.5880051,1.0410004,1.5880051
	c0.8199921,0,1.3450012-0.8130035,1.3450012-2.0590057v-1.0479965h1.0780029V37.426712z"/>
<path class="st0" d="M13.1722927,36.1886139h-0.0910034l0.1670074,1.237999H12.140295v-5.3170013h1.0780029v2.75h0.0299988
	c0.1829987-0.8969955,1.0410004-1.3529968,1.9759979-1.3529968c1.0859985,0,1.9750061,0.7980042,1.9750061,1.9899979
	c0,1.2310028-0.881012,2.0510025-1.9600067,2.0510025C14.2742977,37.5476151,13.3552914,37.099617,13.1722927,36.1886139
	 M16.143301,35.5126114c0-0.7289963-0.5700073-1.1779938-1.3530121-1.1779938c-0.720993,0-1.3589935,0.4489975-1.3589935,1.1779938
	c0,0.7440033,0.6380005,1.2000046,1.3589935,1.2000046C15.5732937,36.712616,16.143301,36.2566147,16.143301,35.5126114"/>
<rect x="17.6635036" y="32.1089096" class="st0" width="1.0789948" height="5.3170013"/>
<path class="st0" d="M19.1528988,36.545517c0-1.125,2.1649933-1.2610016,3.3959961-1.3680038
	c-0.0079956-0.598999-0.3419952-0.8119965-1.102005-0.8119965c-0.5929871,0-1.3069916,0.1969986-1.8149872,0.4179993v-0.8670044
	c0.6369934-0.2350006,1.4499969-0.409996,2.118988-0.409996c1.3590088,0,1.8760071,0.7139969,1.8760071,1.7779999v2.1419983
	h-1.0639954l0.2049866-1.3600006h-0.0679932c-0.2279968,1.0410004-0.9720001,1.4810028-2.1340027,1.4810028
	C20.0038967,37.5475159,19.1528988,37.4265137,19.1528988,36.545517 M22.5329037,35.7255096
	c-0.881012,0.0750046-2.256012,0.1050034-2.256012,0.6520004c0,0.2590027,0.2810059,0.4100037,0.7220001,0.4100037
	C21.7589016,36.7875137,22.5248928,36.4315109,22.5329037,35.7255096"/>
<path class="st0" d="M25.2426052,36.1886139h-0.0910034l0.1669922,1.237999h-1.1089935v-5.3170013h1.0789948v2.75h0.0299988
	c0.1829987-0.8969955,1.0410004-1.3529968,1.9750061-1.3529968c1.0870056,0,1.9759979,0.7980042,1.9759979,1.9899979
	c0,1.2310028-0.8820038,2.0510025-1.9600067,2.0510025C26.344595,37.5476151,25.4256039,37.099617,25.2426052,36.1886139
	 M28.2126064,35.5126114c0-0.7289963-0.5690002-1.1779938-1.352005-1.1779938c-0.7210083,0-1.3590088,0.4489975-1.3590088,1.1779938
	c0,0.7440033,0.6380005,1.2000046,1.3590088,1.2000046C27.6436062,36.712616,28.2126064,36.2566147,28.2126064,35.5126114"/>
</svg>
