<?xml version="1.0" encoding="utf-8"?>
<!-- Generator: Adobe Illustrator 23.0.1, SVG Export Plug-In . SVG Version: 6.00 Build 0)  -->
<svg version="1.1" id="Layer_1" xmlns="http://www.w3.org/2000/svg" xmlns:xlink="http://www.w3.org/1999/xlink" x="0px" y="0px"
	 viewBox="0 0 49.5200005 35.3400002" style="enable-background:new 0 0 49.5200005 35.3400002;" xml:space="preserve">
<style type="text/css">
	.st0{clip-path:url(#SVGID_2_);}
	.st1{clip-path:url(#SVGID_4_);fill:#383739;}
</style>
<g>
	<defs>
		<rect id="SVGID_1_" x="1.0002515" y="1.0004977" width="47.5194969" height="33.3390045"/>
	</defs>
	<clipPath id="SVGID_2_">
		<use xlink:href="#SVGID_1_"  style="overflow:visible;"/>
	</clipPath>
	<g class="st0">
		<defs>
			<rect id="SVGID_3_" x="1.0002515" y="1.0004977" width="47.5194969" height="33.3390045"/>
		</defs>
		<clipPath id="SVGID_4_">
			<use xlink:href="#SVGID_3_"  style="overflow:visible;"/>
		</clipPath>
		<path class="st1" d="M39.941143,15.1284122c-0.1809998,0.7149963-0.1319962,1.4149933,0.1559982,2.0850067h-0.0009995
			c0,0,0.0439987,0.2049866,0.2200012,0.4949951c0.0029984,0.0059967,0.0059967,0.0099945,0.0090027,0.0149994
			c0.0209961,0.0359955,0.0429993,0.072998,0.0690002,0.1060028c0.0009995,0.0009918,0.0009995,0.0019989,0.0019989,0.0029907
			c0.1520004,0.2210083,0.3769989,0.4760132,0.7080002,0.7210083c0.0179977,0.0139923,0.034996,0.0269928,0.0540009,0.0399933
			c0.0130005,0.0090027,0.026001,0.0189972,0.0389938,0.0279999c0.0060043,0.0039978,0.0110016,0.0080109,0.015007,0.0110016
			c0.1639938,0.1119995,0.3359985,0.2100067,0.5029984,0.3200073c0.0839996,0.0549927,0.1619949,0.0509949,0.2409973,0
			c0.1699982-0.1110077,0.3390045-0.2230072,0.5080032-0.3350067c0.3450012-0.2319946,0.6920013-0.4570007,1.0309982-0.6959991
			c0.6210022-0.4389954,1.2350006-0.8889923,1.8570023-1.3280029c0.1839981-0.1279907,0.2789993-0.3040009,0.2969971-0.5119934
			c0.0189972-0.2319946-0.0350037-0.4580078-0.2170029-0.6230011c-0.0919952-0.0830078-0.1989975-0.1499939-0.3009949-0.2220001
			c-0.6040039-0.427002-1.2070007-0.8529968-1.8120041-1.2770081c-0.5069962-0.3569946-1.0179977-0.7099915-1.5299988-1.0659943
			c-0.1189957,0.0639954-0.2180023,0.1100006-0.310997,0.1660004c-0.2850037,0.1730042-0.526001,0.3919983-0.7519989,0.6360016
			C40.3431435,14.1094151,40.0781441,14.5804081,39.941143,15.1284122 M39.9201469,17.1964054
			c-0.3460007-1.0279999-0.3160019-2.0259857,0.2479935-2.9839935c0.2190018-0.3730011,0.4840012-0.701004,0.8180008-0.9700012
			c0.1340027-0.1080017,0.2890015-0.1880035,0.4340057-0.2830048c0.1089935-0.072998,0.2159958-0.1489868,0.3499985-0.2409973
			c0.3740005,0.2630005,0.7529984,0.5310059,1.1319962,0.7969971c0.2190018-0.1369934,0.4290009-0.2709961,0.6430054-0.4019928
			c0.1329956-0.0809937,0.2719955-0.154007,0.4039993-0.2380066c0.0779953-0.048996,0.1319962-0.0119934,0.1919937,0.0310059
			c0.2800064,0.2030029,0.5620041,0.4069977,0.8440018,0.6069946c0.4690018,0.3339996,0.9360046,0.6670074,1.4080048,0.9960022
			c0.5099945,0.355011,1.0249939,0.7050018,1.5389938,1.0540009c0.1940002,0.1320038,0.3889999,0.2620087,0.5880051,0.3950043
			c-0.0100021,0.0180054-0.0159988,0.0469971-0.0320053,0.0569916c-0.5919952,0.4029999-1.1869965,0.803009-1.7770004,1.2070007
			c-0.6349945,0.4380035-1.2669983,0.8790131-1.9009933,1.3200073c-0.2130051,0.1470032-0.427002,0.2940063-0.6399994,0.4440002
			c-0.0980072,0.0699921-0.1850052,0.076004-0.3030014,0.0209961c-0.3160019-0.1459961-0.628006-0.2939911-0.8880005-0.5780029
			c-0.3690033,0.2580109-0.7330017,0.5130005-1.1170044,0.7820129c-0.3099976-0.1970062-0.6329956-0.3760071-0.9290009-0.5920105
			c-0.3330002-0.2429962-0.5839996-0.5670013-0.7699966-0.9380035
			C40.0821419,17.5204105,39.9771461,17.3664188,39.9201469,17.1964054"/>
		<path class="st1" d="M39.6101494,16.0167027c-0.0280075,0.0450134-0.0470047,0.0890045-0.0780029,0.1200104
			c-0.2720032,0.2819977-0.5439987,0.5639954-0.8180008,0.845993c-0.086998,0.0890045-0.151001,0.0890045-0.2399979,0.003006
			c-0.2710037-0.2620087-0.5419998-0.5250092-0.8110046-0.7879944c-0.1259995-0.1240082-0.1269989-0.1590118-0.0029984-0.2900085
			c0.2529984-0.2689972,0.5070038-0.5370026,0.7630005-0.8029938c0.125-0.1330109,0.1589966-0.1380005,0.288002-0.0169983
			c0.2719955,0.2599945,0.5400009,0.5239868,0.8069992,0.7879944C39.5551491,15.912714,39.5761452,15.964716,39.6101494,16.0167027"
			/>
		<path class="st1" d="M35.705349,19.7931004c0.9779968-0.0919952,1.9609985-0.0469971,2.9449997,0.0180054
			c-0.1760025,0.0189972-0.3540039,0.0440063-0.5320053,0.0570068c-0.2969971,0.022995-0.5459976,0.2480011-0.5789948,0.5599976
			c-0.0230026,0.2189941-0.0190048,0.4409943-0.0200043,0.6620026c-0.0009995,0.3159943,0.0039978,0.6319885,0.0049973,0.946991
			c0,0.1660004-0.0539932,0.3099976-0.1939926,0.4060059c-0.6950073,0.4749908-1.390007,0.9499969-2.0860062,1.4230042
			l-0.0950012-0.1370087c0.1450043-0.098999,0.2730026-0.2019958,0.3580017-0.3499908
			c0.0740051-0.1330109,0.1340027-0.2910004,0.1430054-0.4420013c0.0249939-0.4560089,0.0249939-0.9140015,0.0289993-1.3710022
			c0.0049973-0.5610046,0.0019989-1.1210022,0.0029984-1.6800079C35.6823463,19.8631077,35.6923485,19.8401127,35.705349,19.7931004
			"/>
		<path class="st1" d="M35.0764503,15.9347019c0.4069977-0.0299988,0.5979996-0.2889862,0.6009979-0.7149963
			c0.0049973-0.6060028,0.0149994-1.2139893,0.0169983-1.8190002c0.0029984-0.67099,0.0019989-1.3410034-0.0009995-2.0119934
			c-0.0009995-0.4649963-0.012001-0.9300079-0.0110016-1.3939972c0.0009995-0.3079987,0.1210022-0.5500031,0.4140015-0.6850128
			c0.0550003-0.0249939,0.1080017-0.0569916,0.2050018-0.1059875c-0.0890045-0.0599976-0.1669998-0.1150055-0.2440033-0.1660004
			l0.1080017-0.1590118c0.3959961,0.2690125,0.7929993,0.5360107,1.1869965,0.8090057
			c0.3610001,0.2519989,0.7140045,0.5180054,1.0690002,0.779007c0.0300064,0.022995,0.0569992,0.0479889,0.0720062,0.1009979
			c-0.0470047-0.0110016-0.0960007-0.0209961-0.1430054-0.0330048c-0.4469986-0.125-0.8190002,0.2039948-0.8289948,0.5690002
			c-0.0100021,0.3610077-0.0340042,0.7230072-0.0340042,1.0839996c-0.0019989,0.8670044,0.0060043,1.7340088,0.012001,2.6009979
			c0.0009995,0.1650085,0.0139999,0.3300018,0.0139999,0.4950104c-0.0019989,0.4889984-0.3069992,0.7929993-0.8030014,0.7969971
			c-0.4499969,0.0039978-0.9000015,0.0029907-1.3499985,0.0110016c-0.0889969,0.0019989-0.1780014,0.0089874-0.2669983,0.0179901
			L35.0764503,15.9347019z"/>
		<path class="st1" d="M35.6135521,8.5019932c0.1839981,0.1260071,0.3669968,0.2520142,0.5519943,0.3770142l-0.1080017,0.1579895
			c-0.0759964-0.052002-0.147995-0.0979919-0.2229996-0.1389923c-0.0619965-0.0350037-0.159996-0.0559998-0.2229996-0.0330048
			c-0.5219955,0.197998-0.7309952,0.3509979-0.7429962,0.9309998c-0.0220032,1.2059937-0.0159988,2.4120026-0.0200043,3.6179962
			c-0.0019989,0.631012,0,1.2620087,0.0009995,1.8919983v0.6240082c0.0820007,0.0079956,0.1580048,0.0090027,0.227005,0.0050049
			l0.0159988,0.173996c-0.0749969,0.0070038-0.151001,0.0159912-0.2289963,0.0220032
			c-0.0480042,2.5909882-0.0070038,5.1649933,0.0079956,7.7819977c0.0960007-0.0660095,0.1900024-0.125,0.2779999-0.1840057
			l0.0950012,0.1370087c-0.3270035,0.223999-0.6539993,0.446991-0.9810028,0.6689911
			c-0.3379974,0.2310028-0.6790009,0.4570007-1.0199966,0.6849976c-0.0309982,0.0210114-0.0670013,0.0350037-0.1259995,0.0660095
			c-0.0299988-0.0930023-0.0770035-0.1710052-0.0780029-0.2490082c-0.0049973-0.5039978-0.0009995-1.0090027,0.0019989-1.5139923
			c0.0060043-1.1589966,0.012001-2.3190002,0.0180054-3.4790039c0.0059967-1.2779999,0.0119934-2.5579987,0.0159988-3.8370056
			c0.0049973-1.2539978,0.0049973-2.5089874,0.0110016-3.7639923c0.0049973-1.0019989,0.0159988-2.003006,0.0219955-3.0050049
			c0.0029984-0.4029999,0.0039978-0.8040009-0.0019989-1.2070007c-0.0039978-0.3280029,0.1800003-0.5410004,0.4420013-0.6750031
			c0.2589951-0.1319885,0.5400009-0.1159973,0.788002,0.053009C34.7655449,7.9020023,35.1855507,8.2080021,35.6135521,8.5019932"/>
		<path class="st1" d="M36.1516533,6.1319065c0.6529999,0.45401,1.2869949,0.9340057,1.9399948,1.3860016
			c0.5999985,0.4140015,1.2420044,0.7470093,1.9540024,0.928009c0.2719955,0.0709991,0.5419998,0.071991,0.8389969-0.053009
			c-0.0239944,0.1040039-0.0209961,0.1900024-0.0599976,0.2480011c-0.1640015,0.2369995-0.2900009,0.5070038-0.5449982,0.6720123
			c-0.0650024,0.0439911-0.1340027,0.0869904-0.1880035,0.1429901c-0.2460022,0.2610016-0.5699997,0.3710022-0.9029999,0.4290009
			c-0.1920013,0.0339966-0.4039993-0.0240021-0.6029968-0.0619965c-0.314003-0.0590057-0.5960007-0.2100067-0.8580017-0.3840027
			C37.1046486,9.025919,36.494648,8.5919132,35.8736458,8.174921c-0.4389954-0.2940063-0.885994-0.5730133-1.3309937-0.855011
			c-0.0790024-0.0500031-0.1700058-0.0820007-0.2570038-0.1199951c-0.4809952-0.2129974-0.7649994-0.1390076-1.0839996,0.2789917
			c-0.0179977,0.0220032-0.0390015,0.0430145-0.0790024,0.0900116c-0.1009979-0.5749969,0.1440048-0.9909973,0.4610062-1.3789978
			c0.0789948-0.0980072,0.1689987-0.1890106,0.2630005-0.2720032c0.473999-0.4210052,1.010994-0.4420013,1.5659943-0.2019958
			C35.669651,5.8279209,35.9206505,5.970911,36.1516533,6.1319065"/>
		<path class="st1" d="M30.6613503,26.9912968c-0.2900009,0.1960144-0.5780029,0.3940125-0.8730011,0.5930023l-0.105999-0.1559906
			c0.3669968-0.25,0.5919991-0.5640106,0.5959969-1.0140076c0.0139999-1.2939911,0.0139999-2.5869904,0.0209999-3.8799896
			c0.0060005-0.8530121,0.012001-1.70401,0.0200005-2.5570068c0.0020027-0.2200012,0.031002-0.25,0.243-0.2539978
			c0.5810013-0.0070038,1.1640015-0.0160065,1.7449989-0.0169983c0.137001-0.0010071,0.2740021,0.0269928,0.4160004,0.0769958
			c-0.0459976,0.0209961-0.090004,0.0460052-0.137001,0.0650024c-0.2919998,0.1149902-0.4309959,0.3379974-0.4339981,0.6419983
			c-0.0089989,0.7180023-0.0089989,1.4360046-0.0089989,2.1529999c-0.0019989,1.0099945-0.0060005,2.0200043,0.0029984,3.0310059
			c0.0009995,0.2269897-0.067997,0.371994-0.2700005,0.496994C31.46035,26.4273014,31.0653496,26.71731,30.6613503,26.9912968"/>
		<path class="st1" d="M29.4973488,27.7822971c-0.2090034-0.1439972-0.4290009-0.2939911-0.6490021-0.443985
			c-0.3269997-0.2200012-0.6529999-0.4420013-0.9799995-0.6600037c-0.1189995-0.0810089-0.1819992-0.1809998-0.1819992-0.3330078
			c0.007-1.2310028,0.0099983-2.4609985,0.0089989-3.6920013c-0.0009995-0.6779938-0.0139999-1.3549957-0.0159988-2.0329895
			c-0.0040016-1.5400085-0.0050011-3.07901-0.0060005-4.6180115c-0.0019989-1.7689972-0.0019989-3.5369873-0.0060005-5.3049927
			c-0.0029984-1.4049988-0.0159988-2.8110046-0.0169983-4.2149963c-0.0010033-0.6630096,0.0189972-1.3240051,0.0239983-1.9869995
			c0.0019989-0.2970123,0.1329994-0.5180054,0.3829994-0.6610107c0.2820015-0.1609955,0.5769997-0.1689911,0.8510017,0.0160065
			c0.4640007,0.3139954,0.9209976,0.6369934,1.3789978,0.9599915c0.1200027,0.0850067,0.2320023,0.1820068,0.3360023,0.2929993
			c-0.0650024-0.019989-0.1310005-0.0389862-0.1949997-0.0619965c-0.2870026-0.1009979-0.5220032,0.0010071-0.7330017,0.1920013
			c-0.1189995,0.1080017-0.1559982,0.2460022-0.1580009,0.404007c0,0.7269897-0.0060005,1.4530029-0.0099983,2.1779938
			c-0.0089989,2.0449982-0.019001,4.0899963-0.0250015,6.1340027c-0.0039978,1.3339996-0.0009995,2.6669922,0,3.9989929
			c0.0009995,0.8450012,0.0040016,1.6880035,0.0050011,2.5320129c0,1.3320007-0.0009995,2.6649933-0.0019989,3.9980011v2.7709961
			c0,0.0829926,0.0079994,0.1669922,0.0130005,0.2829895c0.0579987-0.0329895,0.112999-0.0659943,0.1649971-0.1039886
			l0.1049995,0.1559906C29.6913452,27.6503086,29.5953484,27.7163029,29.4973488,27.7822971"/>
		<path class="st1" d="M23.2897491,31.4376011c0.4649963,0.352005,0.9279976,0.7080059,1.4499969,0.9740124
			c0.5139999,0.2609863,1.0370026,0.4979858,1.6080017,0.6109924c0.6020012,0.1179962,1.2080002,0.1439972,1.7989998-0.0359955
			c0.25-0.076004,0.4760017-0.2330017,0.7109985-0.3570099c0.0860023-0.0449982,0.1680031-0.098999,0.2960014-0.1759949
			c-0.0769997,0.2579956-0.2190018,0.4029999-0.3759995,0.529007c-0.2639999,0.2099915-0.5299988,0.42099-0.8080025,0.6109924
			c-0.2129974,0.1470032-0.4399986,0.2750092-0.6729965,0.3860016c-0.4150009,0.1999969-0.8640022,0.2940063-1.3180008,0.3410034
			c-0.6780014,0.0690002-1.3290024-0.0550079-1.9510002-0.3379974c-0.6790009-0.3079987-1.295002-0.7070007-1.8640022-1.1880035
			c-0.4639969-0.3899994-0.9469986-0.7600098-1.4160004-1.1439953c-0.1829987-0.1500092-0.3459969-0.3220062-0.5279999-0.4710083
			c-0.2929993-0.2389984-0.598999-0.4599915-0.8899994-0.6999969c-0.218998-0.1809998-0.4209976-0.3809967-0.6349983-0.5659943
			c-0.5299988-0.4589996-1.0639992-0.9150085-1.5950012-1.3730011c-0.1969986-0.1690063-0.3880005-0.3450012-0.586998-0.5100098
			c-0.5550003-0.4619904-1.1809998-0.7979889-1.8829994-0.9509888c-0.5790024-0.1260071-1.1730003-0.1460114-1.7390022,0.1049957
			c-0.0929985,0.0419922-0.1930008,0.0639954-0.3429985,0.1119995c0.2700005-0.2879944,0.5249977-0.5099945,0.8040009-0.7030029
			c0.7179985-0.496994,1.442997-0.9839935,2.1659966-1.4759979l0.1040001,0.1519928
			c-0.2459984,0.1670074-0.4889984,0.3370056-0.7339973,0.5050049c-0.0110016,0.0079956-0.0149994,0.0250092-0.0340004,0.0590057
			c0.0769997-0.0090027,0.1389999-0.0250092,0.2010002-0.0220032c0.2509995,0.0099945,0.5029984,0.0099945,0.75,0.0429993
			c0.223999,0.0299988,0.4449997,0.0899963,0.6649971,0.1490021c0.5230026,0.1459961,0.9360008,0.4889984,1.3490028,0.8110046
			c0.4409981,0.3439941,0.8449974,0.7339935,1.2649994,1.1029968c0.3969994,0.3479919,0.7959976,0.6949921,1.1949997,1.0410004
			c0.5299988,0.4579926,1.0550003,0.9250031,1.5960007,1.3710022
			C22.3357468,30.7106113,22.8117485,31.0766087,23.2897491,31.4376011"/>
		<path class="st1" d="M24.580349,31.1729069c-0.1110001-0.0759888-0.2200012-0.1519928-0.3300018-0.2289886l0.1489983-0.2140045
			c0.019001,0.0149994,0.0419998,0.0270081,0.0690002,0.0359955c0.1360016,0.0440063,0.2580032,0.0010071,0.3740005-0.0919952
			c0.156002-0.125,0.1920013-0.3040009,0.2050018-0.4790039c0.0200005-0.2829895,0.0099983-0.5670013,0.0089989-0.8519897
			c-0.0029984-1.0490112-0.0130005-2.098999-0.0130005-3.1490021c0-1.0960083,0.0100021-2.1930084,0.012001-3.2910004
			c0.0019989-1.5550079,0-3.1100006,0-4.6650085c0.0009995-1.2389984,0.0019989-2.4779968,0.0039978-3.7169952
			c0.0020027-1.5090027,0.0050011-3.0160065,0.007-4.5240021c0.0030022-1.223999,0.0050011-2.4490051,0.0090027-3.6719971
			c0.0050011-1.3029938,0.0169983-2.6049957,0.0099983-3.9089966c-0.0009995-0.2750092,0.0540009-0.5610048-0.0960007-0.8290101
			c-0.1079979-0.1899872-0.2360001-0.2879944-0.4269981-0.2529907c-0.0590019,0.0110016-0.1090012,0.0309906-0.1520004,0.0619965
			l-0.1090012-0.1609955c0.0410004-0.029007,0.0839996-0.0579987,0.1259995-0.0859985
			c0.1040001-0.0709991,0.2320023-0.1040039,0.3370018-0.149002c0.5,0.3450012,0.993,0.6839904,1.4840012,1.0240021
			c0.1310005,0.0889893,0.2549973,0.1869965,0.3919983,0.2659912c0.1459999,0.0850067,0.1970024,0.1920013,0.1949997,0.3639984
			c-0.0130005,0.8610077-0.0099983,1.7210083-0.0119972,2.5820007c-0.0020027,1.1679993-0.0040016,2.3359985-0.0040016,3.5039978
			c-0.0009995,1.4680023,0.0050011,2.9370117,0.0019989,4.4060059c-0.0029984,1.6179962-0.019001,3.2359924-0.0200005,4.8540039
			c-0.0009995,1.4850006,0.012001,2.9680023,0.0139999,4.4519958c0.0030022,2.1790009,0.0020027,4.3580017,0.0040016,6.5370026
			c0,0.1649933,0.0079994,0.3309937,0.0139999,0.496994c0.0029984,0.0830078-0.0180016,0.1439972-0.0960007,0.1970062
			c-0.5470009,0.3730011-1.0890007,0.7529907-1.6310005,1.1329956c-0.1209984,0.0850067-0.2350006,0.1820068-0.355999,0.2680054
			C24.6933479,31.121912,24.6283455,31.147913,24.580349,31.1729069"/>
		<path class="st1" d="M24.41045,1.3955935c-0.0930023,0.0650024-0.144001,0.1760101-0.1470032,0.3300018
			c-0.0179977,1.0420076-0.0369987,2.0830078-0.0449982,3.1240082c-0.007,0.9619904-0.0040016,1.9250031-0.0030022,2.8860016
			c0,1.2229919,0.0020027,2.446991,0.0030022,3.6699982c0.0009995,0.5839996,0.0039978,1.1669922,0.0039978,1.7509918
			c0.0010033,0.9150085,0,1.8300018,0,2.7460022h0.0010033v0.5910034c0.0009995,1.1349945,0.0009995,2.2689972,0.0059967,3.4049988
			c0.0040016,0.9860077,0.0170021,1.9730072,0.0200005,2.9589996c0.0020027,1.0339966-0.0079994,2.0670013-0.0060005,3.1009979
			c0.0020027,1.223999,0.0100021,2.4490051,0.019001,3.6719971c0.0019989,0.2750092,0.007,0.5510101,0.038002,0.8230133
			c0.0099983,0.0909882,0.0169983,0.2109985,0.098999,0.2759857l-0.1490021,0.2150116
			c-0.6279984-0.4349976-1.2479973-0.8619995-1.882-1.3010101v-1.1499939c0-1.1840057-0.0009995-2.3690033-0.0009995-3.5529938
			c0-1.2230072,0.0009995-2.4470062,0.0009995-3.6710052c-0.0009995-0.9869995-0.0059967-1.973999-0.0059967-2.9600067
			c0.0009995-1.673996,0.0039978-3.3479919,0.0059967-5.0209961c0-1.8309937,0.0010033-3.6629944,0.0020027-5.4960022
			c0-1.0009918-0.0030022-2.0029907,0-3.0049896c0.0029984-0.6560059,0.0249977-1.3100128,0.0209999-1.9640045
			c-0.0019989-0.2089996,0.0849991-0.3350067,0.2469978-0.4409943c0.2439995-0.1600037,0.4830017-0.3250122,0.7240028-0.4910127
			c0.3139992-0.2179871,0.6229973-0.4420013,0.9389992-0.6569977L24.41045,1.3955935z"/>
		<path class="st1" d="M21.5490494,3.2315006c0.0059967,0.1100006,0.0169983,0.2220001,0.0169983,0.3310089
			c-0.0130005,7.6340027-0.026001,15.2680054-0.0390015,22.9160004c-0.5709991,0.3840027-1.1549988,0.7769928-1.7469978,1.1759949
			l-0.0800018-0.1199951c0.0079994-0.1600037,0.0180016-0.2750092,0.0170021-0.3870087
			c-0.0009995-0.6949921-0.0079994-1.3899994-0.0090027-2.0829926c-0.0009995-1.0890045,0.0030022-2.1790009,0.0030022-3.2669983
			c0.0009995-1.3570099,0.0019989-2.7140045,0.0019989-4.0709991c0.0009995-1.0510101-0.0009995-2.1000061,0.0019989-3.1490021
			c0.0020027-1.0420074,0.012001-2.0830078,0.0160027-3.1260071c0.0019989-0.5130005,0-1.0249939,0.0019989-1.5369873
			c0.0019989-0.5600128,0.007-1.1210022,0.0099983-1.6809998c0.0050011-1.1820068,0.0110016-2.3640137,0.0100021-3.5470123
			c-0.0009995-0.197998,0.0540009-0.3379974,0.2249985-0.4539948c0.4970016-0.3339996,0.9850006-0.6820068,1.4760017-1.022995
			c0.0169983-0.0120087,0.0429993-0.0100098,0.0579987-0.0140076c0.0159988,0.0079956,0.0229988,0.0100098,0.0279999,0.0149994
			C21.5450478,3.2155094,21.5480461,3.2245121,21.5490494,3.2315006"/>
		<path class="st1" d="M16.2126503,6.8536015c0.2709999-0.1989899,0.5389977-0.4009857,0.8119965-0.595993
			c0.1920013-0.1360016,0.3930016-0.2599945,0.5870018-0.3919983c0.2010002-0.1370087,0.4020004-0.2290039,0.6609993-0.1690063
			c0.2779999,0.0630035,0.4400024,0.2410126,0.5340004,0.4840088c0.0569992,0.151001,0.0859985,0.3209991,0.0870018,0.4850006
			c0.0089989,0.9859924,0.0079994,1.9720001,0.0079994,2.9589996c0.0009995,2.7789917-0.0009995,5.5579987,0.0019989,8.3369904
			c0.0019989,1.8090057,0.0110016,3.6170044,0.0169983,5.4240112c0.0020027,0.7739868,0.0090027,1.5469971,0.012001,2.3209991
			c0.0009995,0.368988,0.0030022,0.7389984-0.0060005,1.1080017c-0.0039978,0.144989,0.057003,0.2339935,0.1739998,0.3099976
			c0.189003,0.1210022,0.3710022,0.2529907,0.5990028,0.4099884l0.079998,0.1200104
			c-0.0480003,0.0329895-0.0970001,0.0650024-0.1459999,0.0979919c-0.8660011-0.5970001-1.7140007-1.1809998-2.5849991-1.7819977
			c0-0.2290039-0.0009995-0.477005,0-0.7249908c0.0009995-0.4179993,0.0029984-0.8370056,0.0039978-1.2550049
			c0.0040016-2.0749969,0.0090027-4.1520081,0.0110016-6.227005c0.0009995-1.8540039-0.0029984-3.7099915-0.0019989-5.5659943
			c0-1.4210052,0.0029984-2.8410034,0.0039978-4.2620087c0-0.1029968-0.0049973-0.2059937-0.0109978-0.3089905
			c-0.0300026-0.4929962-0.3290024-0.7620087-0.8120003-0.727005C16.2326469,6.8836155,16.2226486,6.8686161,16.2126503,6.8536015"
			/>
		<path class="st1" d="M13.6765518,8.596796c0.4519997-0.3139954,0.9139977-0.6159973,1.3579979-0.9409943
			c0.3990021-0.2919922,1.1660004-0.0240021,1.1720009,0.6529999c0.012001,1.3730011-0.0009995,2.7470093-0.0019989,4.1199951
			c-0.0010033,1.0250092,0,2.053009,0,3.07901c0,1.4689941,0,2.9369965,0.0019989,4.4049988
			c0.0019989,1.0500031,0.0089989,2.0999908,0.0130005,3.1490021c0.0009995,0.4029999,0,0.8049927,0.0029984,1.2070007
			c0,0.0699921,0.0089989,0.1399994,0.0180016,0.2099915c0.0329971,0.2519989-0.0540009,0.4140015-0.2610016,0.5500031
			c-0.1199989,0.0789948-0.2399979,0.1589966-0.3579979,0.2409973l-0.1040001-0.1519928
			c0.0309982-0.0210114,0.0569992-0.0469971,0.1119995-0.0940094c-0.1259995-0.1039886-0.2310028-0.2050018-0.3500023-0.2879944
			c-0.5099983-0.3580017-1.0229988-0.7109985-1.5359993-1.0659943l0.0940018-0.1350098
			c0.0289993,0.0200043,0.0629997,0.0390015,0.1019974,0.0540009c0.026001,0.0120087,0.045002,0.0449982,0.0699997,0.0630035
			c0.1260033,0.0879974,0.2530022,0.173996,0.4000015,0.276001c0.0139999-0.0610046,0.0250015-0.0899963,0.0250015-0.1170044
			c-0.0020027-0.3399963-0.007-0.6790009-0.0090027-1.0179901l-0.0200005-3.6680145
			c-0.0079994-1.5699921-0.0169983-3.1399994-0.0239983-4.7099915c-0.0040016-0.8200073-0.0050011-1.6399994-0.0050011-2.4609985
			c0.0009995-0.4810028,0.0079994-0.9609985,0.007-1.4430084c-0.0009995-0.3929901-0.0049973-0.7879944-0.0159988-1.1829987
			c-0.0079994-0.269989-0.1399994-0.4579926-0.3959999-0.5609894c-0.1020012-0.0410004-0.1739998-0.0250092-0.2579994,0.0379944
			c-0.137001,0.1040039-0.2789993,0.201004-0.4190025,0.298996l-0.0979996-0.147995
			c0.0060005-0.003006,0.0110016-0.0059967,0.0170021-0.0099945C13.372551,8.8368015,13.5185509,8.7067966,13.6765518,8.596796"/>
		<path class="st1" d="M13.1540489,9.2031956c-0.0540009,0.0380096-0.1030006,0.0870056-0.1710014,0.1440125
			c0.0750008,0.0449982,0.1279984,0.0769958,0.1800003,0.1089935c0.2329979,0.1360016,0.3349991,0.3560028,0.3479996,0.6080017
			c0.0209999,0.3710022,0.0229988,0.7420044,0.0250015,1.1119995c0.007,1.1909943,0.0099983,2.3820038,0.0149994,3.5749969
			c0.0099983,2.2160034,0.0179977,4.4329987,0.0289993,6.651001c0.0019989,0.5050049,0.0039978,1.0099945,0.0209999,1.5149994
			c0.0089989,0.2330017,0.0270004,0.473999,0.2360001,0.6179962l-0.0940018,0.1350098
			c-0.0960007-0.0670013-0.1919975-0.1320038-0.2889977-0.1990051c-0.4790001-0.3320007-0.9550018-0.6679993-1.4379997-0.9920044
			c-0.1640015-0.1079865-0.2280006-0.243988-0.2290001-0.4319916c-0.0060005-0.8679962-0.0160027-1.7350006-0.0209999-2.6029968
			c-0.007-0.9940033-0.0080032-1.9880066-0.0150032-2.9820099c-0.0099983-1.6019897-0.0239983-3.2029877-0.0359993-4.8059998
			c-0.0009995-0.1399994-0.0079994-0.2829895-0.0099983-0.4259949c-0.0050011-0.4049988-0.3790016-0.6880035-0.7779999-0.5879974
			c-0.0359993,0.0090027-0.0720024,0.0149994-0.1090012,0.0220032c-0.0089989-0.0190125-0.0179977-0.0370026-0.0279999-0.0559998
			c0.0760002-0.0630035,0.1490021-0.1330109,0.2290001-0.1890106c0.4020004-0.2779999,0.8059998-0.5540009,1.2109985-0.8259888
			c0.3200035-0.2150116,0.6470032-0.4200134,0.9660034-0.6370087l0.0979996,0.1470032
			C13.2470474,9.1372013,13.2000465,9.169199,13.1540489,9.2031956"/>
		<path class="st1" d="M7.5769501,19.0167027C8.22295,18.7367039,8.6939468,18.261713,9.0419464,17.662714
			c0.3500023-0.6029968,0.4840012-1.2460022,0.3959999-1.9490051c-0.0879974-0.6900024-0.3169975-1.3049927-0.7629967-1.8419952
			c-0.2450027-0.2920074-0.5270004-0.5400085-0.8540001-0.7360077c-0.1879997-0.1129913-0.3440018-0.1409912-0.5360031-0.0159912
			l-0.0519981-0.0770111c0.1150017-0.0759888,0.2280006-0.1529999,0.3419991-0.2289886
			c1.2770004,0.625,1.9599991,1.6579895,2.1060028,3.0859985c0.0489998-0.0299988,0.0979996-0.0480042,0.132-0.0810089
			c0.2219963-0.2129974,0.4389992-0.4290009,0.6599998-0.6419983c0.2089996-0.2009888,0.2290001-0.2030029,0.4339981,0.0130005
			c0.2610016,0.2720032,0.5130005,0.552002,0.7980003,0.8590088c-0.1150017,0.125-0.2109985,0.2389984-0.3160019,0.3409882
			c-0.1969986,0.1920013-0.3999977,0.3790131-0.6019974,0.5660095c-0.1150017,0.1080017-0.1609993,0.1069946-0.2730026-0.0140076
			c-0.1819992-0.1959991-0.3569984-0.3969879-0.5409966-0.5899963c-0.0830002-0.0879974-0.1550026-0.1940002-0.3030014-0.2649994
			c-0.0170021,0.7279968-0.2410011,1.3619995-0.6329994,1.9409943c-0.3899994,0.5780029-0.9340019,0.9630127-1.5510025,1.2660065
			c-0.343998-0.2389984-0.697998-0.4860077-1.0669975-0.7440033l0.0649986-0.0950012
			c0.3120003,0.2150116,0.6240005,0.4309998,0.9379997,0.6470032C7.4949493,19.0617161,7.5349464,19.0357151,7.5769501,19.0167027"
			/>
		<path class="st1" d="M5.0549507,13.2354069c0.4019966-0.2789917,0.3729973-0.2709961,0.8079987-0.0049896
			c0.093998,0.0569916,0.1879997,0.1149902,0.2789993,0.1759949c0.0849991,0.0559998,0.1660004,0.1150055,0.2709999,0.1889954
			c0.2670021-0.1799927,0.545002-0.3669891,0.8199997-0.5519867l0.0510025,0.0759888
			c-0.0110016,0.0090027-0.0240021,0.0169983-0.0370026,0.026001c-0.6279984,0.4609985-1.276001,0.8939972-1.9129982,1.3430023
			c-0.3400002,0.2400055-0.6739998,0.4909973-1.0060005,0.7440033c-0.0970001,0.0749969-0.177002,0.1730042-0.2700005,0.2539978
			c-0.1059992,0.0919952-0.2299998,0.1649933-0.3230021,0.2680054c-0.1959991,0.2180023-0.1839981,0.5469971,0.0300026,0.7480011
			c0.2689974,0.2509918,0.543999,0.4949951,0.8629992,0.6839905c0.0610008,0.0360107,0.1209984,0.0740051,0.1790009,0.1139984
			c0.5589981,0.3840027,1.1170006,0.7700043,1.6769981,1.1549988l-0.0649986,0.0940094
			c-0.3440018,0.1880035-0.6920013,0.3779907-1.0509987,0.576004c-1.4860003-0.9940033-2.9120028-2.0559998-4.368-3.0850067
			c0.0089989-0.1679993,0.1669998-0.1840057,0.2599983-0.2460022c0.2740021-0.1840057,0.5680008-0.3329926,0.8429985-0.5159912
			c0.5770035-0.3850098,1.1450005-0.779007,1.7150002-1.1730042C4.2329483,13.8174076,4.6409492,13.5224094,5.0549507,13.2354069"/>
	</g>
</g>
</svg>
