<?xml version="1.0" encoding="utf-8"?>
<!-- Generator: Adobe Illustrator 23.0.4, SVG Export Plug-In . SVG Version: 6.00 Build 0)  -->
<svg version="1.1" id="Layer_1" xmlns="http://www.w3.org/2000/svg" xmlns:xlink="http://www.w3.org/1999/xlink" x="0px" y="0px"
	 viewBox="0 0 234 278" style="enable-background:new 0 0 234 278;" xml:space="preserve">
<style type="text/css">
	.st0{fill:#FF40B4;}
</style>
<polygon class="st0" points="97.2,3.4 97.2,5.8 93,5.8 93,8.2 91.3,8.2 91.3,10.5 90.1,10.5 90.1,12.9 88.7,12.9 88.7,15.2 
	87.2,15.2 87.2,17.6 85.9,17.6 85.9,19.9 84.6,19.9 84.6,22.2 83.1,22.2 83.1,24.3 81.9,24.3 81.9,33.1 80.6,33.1 80.6,23.4 
	79.4,23.4 79.4,33.1 77.2,33.1 77.2,35.9 74.2,35.9 74.2,41.9 72.6,41.9 72.6,44.7 74.2,44.7 74.2,58.9 71.8,58.9 71.8,83.7 
	65.9,83.7 65.9,81.7 62.7,81.7 62.7,83.7 61.1,83.7 61.1,190.5 17.3,190.5 13.9,192.2 13.9,187.4 5.4,187.4 5.4,196.6 4,197.2 
	4,274.1 131.6,274.1 192.4,274.1 230,274.1 230,214.2 192.4,214.2 192.4,197.2 191,196.6 191,187.4 182.5,187.4 182.5,192.2 
	179.1,190.5 135.3,190.5 135.3,83.7 133.7,83.7 133.7,81.7 130.5,81.7 130.5,83.7 124.6,83.7 124.6,58.9 122.2,58.9 122.2,44.7 
	123.8,44.7 123.8,41.9 122.2,41.9 122.2,35.9 119.2,35.9 119.2,33.1 117,33.1 117,23.4 115.8,23.4 115.8,33.1 114.5,33.1 
	114.5,24.3 113.4,24.3 113.4,22.2 111.8,22.2 111.8,19.9 110.5,19.9 110.5,17.6 109.2,17.6 109.2,15.2 107.7,15.2 107.7,12.9 
	106.3,12.9 106.3,10.5 105.1,10.5 105.1,8.2 103.4,8.2 103.4,5.8 99.2,5.8 99.2,3.4 "/>
</svg>
