<?xml version="1.0" encoding="utf-8"?>
<!-- Generator: Adobe Illustrator 23.0.4, SVG Export Plug-In . SVG Version: 6.00 Build 0)  -->
<svg version="1.1" id="Layer_1" xmlns="http://www.w3.org/2000/svg" xmlns:xlink="http://www.w3.org/1999/xlink" x="0px" y="0px"
	 viewBox="0 0 124.3 124.3" style="enable-background:new 0 0 124.3 124.3;" xml:space="preserve">
<style type="text/css">
	.flower-st0{fill:hsla(31, 90%, 68%, 1);}
	.flower-st1{fill:hsla(338, 80%, 55%, 1);}
</style>
<circle class="flower-st0" cx="62.2" cy="62.2" r="13.8"/>
<path class="flower-st1" d="M62.2,45.1l11.5-31.6c0,0-1.1-11.4-11.5-11.3V2C51.7,1.9,50.6,13.3,50.6,13.3l11.5,31.6v0.5L62.2,45.1v0.2V45.1
	z"/>
<path class="flower-st1" d="M62.2,79.2l11.5,31.6c0,0-1.1,11.4-11.5,11.3v0.2C51.7,122.4,50.6,111,50.6,111l11.5-31.6v-0.5L62.2,79.2V79
	V79.2z"/>
<path class="flower-st1" d="M45.1,62.1L13.5,50.6c0,0-11.4,1.1-11.3,11.5H2C1.9,72.6,13.3,73.7,13.3,73.7l31.6-11.5h0.5L45.1,62.1h0.2H45.1
	z"/>
<path class="flower-st1" d="M79.2,62.1l31.6-11.5c0,0,11.4,1.1,11.3,11.5h0.2c0.1,10.5-11.3,11.6-11.3,11.6L79.4,62.2h-0.5L79.2,62.1H79
	H79.2z"/>
<path class="flower-st1" d="M50.1,50.1L35.9,19.6c0,0-8.8-7.2-16.1,0.1l-0.1-0.1c-7.5,7.3-0.2,16.2-0.2,16.2L49.9,50l0.3,0.3L50.1,50.1
	l0.1,0.1L50.1,50.1z"/>
<path class="flower-st1" d="M74.2,74.2l30.5,14.3c0,0,7.2,8.8-0.1,16.1l0.1,0.1c-7.3,7.5-16.2,0.2-16.2,0.2L74.3,74.4L73.9,74L74.2,74.2
	l-0.1-0.1L74.2,74.2z"/>
<path class="flower-st1" d="M50.1,74.2L19.6,88.4c0,0-7.2,8.8,0.1,16.1l-0.1,0.1c7.3,7.5,16.2,0.2,16.2,0.2L50,74.4l0.3-0.3L50.1,74.2
	l0.1-0.1L50.1,74.2z"/>
<path class="flower-st1" d="M74.2,50.1l14.3-30.5c0,0,8.8-7.2,16.1,0.1l0.1-0.1c7.5,7.3,0.2,16.2,0.2,16.2L74.4,50L74,50.4L74.2,50.1
	l-0.1,0.1L74.2,50.1z"/>
</svg>
