<?xml version="1.0" encoding="utf-8"?>
<!-- Generator: Adobe Illustrator 23.0.4, SVG Export Plug-In . SVG Version: 6.00 Build 0)  -->
<svg version="1.1" id="Layer_1" xmlns="http://www.w3.org/2000/svg" xmlns:xlink="http://www.w3.org/1999/xlink" x="0px" y="0px"
	 viewBox="0 0 154 64" style="enable-background:new 0 0 154 64;" xml:space="preserve">
<style type="text/css">
	.fountain-st0{fill-rule:evenodd;clip-rule:evenodd;fill:#010101;}
</style>
<g>
	<path class="fountain-st0" d="M78.2,61.9c0.7,0.2,1.3-0.2,1.9,0c0,0.2,0.1,0,0.1,0c0.4-4.4,1-28.4,1.4-32.6c0.2-1.5,0.5-3,0.5-4.4
		c0-1.9-0.9-3.4-1.8-4.3c-2.1-2-5.7-1.8-7.7,0.1c-1,1-1.7,2.6-1.8,4.2c-0.1,1.4,0.2,2.9,0.2,4.3c0.2,4.5,0.4,28.4,0.7,32.8
		c0.4-0.3,1.1,0.1,1.6,0c0.2,0,0.5,0.2,0.5,0c-0.2-3-0.3-28.2-0.5-31.5c-0.1-1.3-0.3-2.6-0.1-3.7c0.2-1.5,1.1-2.8,2.2-3.2
		c1.6-0.6,2.9,0.3,3.5,1.3c0.9,1.5,0.5,3.4,0.3,5.5C78.9,34.1,78.6,58.3,78.2,61.9z"/>
	<path class="fountain-st0" d="M66.9,61.9c0.7,0.2,1.3-0.2,1.9,0c0.1,0.2,0.1,0,0.2,0c0.1-4.4-0.6-21.9-0.5-26.1c0.1-1.5,0.3-3,0.1-4.4
		c-0.2-1.9-1.1-3.4-2.1-4.2c-2.2-2-5.9-1.8-7.7,0.1c-0.9,1-1.5,2.6-1.5,4.2c0,1.4,0.4,2.9,0.5,4.3c0.5,4.5,1.9,21.9,2.6,26.3
		c0.4-0.3,1.1,0.1,1.6,0c0.1,0,0.5,0.2,0.5,0c-0.4-3-1.9-21.7-2.3-25c-0.2-1.3-0.5-2.6-0.4-3.7c0.1-1.5,0.9-2.8,2-3.2
		c1.5-0.6,2.9,0.3,3.6,1.3c1,1.5,0.8,3.4,0.7,5.5C66,40.6,67,58.3,66.9,61.9z"/>
	<g>
		<path class="fountain-st0" d="M77.4,27.9c0.8-0.7,0.3-1.9-0.4-2.1c-0.2-0.1-0.7,0-0.9,0c-0.4,0.1-0.6,0.3-0.7,0.6
			C74.8,27.6,76.4,28.8,77.4,27.9z"/>
		<path class="fountain-st0" d="M77.3,31.5c0.7-0.7,0.3-1.9-0.4-2.1c-0.2-0.1-0.7,0-0.8,0c-0.4,0.1-0.6,0.3-0.7,0.5
			C74.8,31.2,76.3,32.4,77.3,31.5z"/>
		<path class="fountain-st0" d="M77.2,35.2c0.7-0.6,0.2-1.8-0.4-2c-0.2-0.1-0.6,0-0.8,0c-0.3,0.1-0.6,0.3-0.7,0.5
			C74.8,34.9,76.3,36,77.2,35.2z"/>
		<path class="fountain-st0" d="M77.2,38.8c0.7-0.6,0.2-1.7-0.4-1.9c-0.2-0.1-0.6,0-0.8,0c-0.3,0.1-0.5,0.3-0.6,0.5
			C74.9,38.5,76.3,39.6,77.2,38.8z"/>
		<path class="fountain-st0" d="M77.1,42.5c0.7-0.6,0.2-1.6-0.4-1.8c-0.2-0.1-0.6,0-0.7,0c-0.3,0.1-0.5,0.3-0.6,0.5
			C74.9,42.2,76.2,43.2,77.1,42.5z"/>
		<path class="fountain-st0" d="M77,46.1c0.6-0.6,0.2-1.5-0.3-1.7c-0.2,0-0.5,0-0.7,0c-0.3,0.1-0.5,0.2-0.6,0.4C74.9,45.8,76.2,46.8,77,46.1z
			"/>
		<path class="fountain-st0" d="M76.9,49.7c0.6-0.5,0.2-1.4-0.3-1.6c-0.2,0-0.5,0-0.6,0c-0.3,0.1-0.5,0.2-0.6,0.4
			C75,49.5,76.2,50.5,76.9,49.7z"/>
		<path class="fountain-st0" d="M76.9,53.4c0.5-0.5,0.2-1.4-0.3-1.5c-0.2,0-0.5,0-0.6,0c-0.3,0.1-0.4,0.2-0.5,0.4
			C75,53.2,76.1,54.1,76.9,53.4z"/>
		<path class="fountain-st0" d="M76.8,57c0.5-0.5,0.2-1.3-0.3-1.4c-0.1,0-0.5,0-0.6,0c-0.3,0.1-0.4,0.2-0.5,0.4C75,56.8,76.1,57.7,76.8,57z"
			/>
		<path class="fountain-st0" d="M76.7,60.7c0.5-0.4,0.2-1.2-0.3-1.3c-0.1,0-0.4,0-0.5,0c-0.2,0.1-0.4,0.2-0.5,0.3
			C75.1,60.5,76.1,61.3,76.7,60.7z"/>
	</g>
	<g>
		<path class="fountain-st0" d="M64.1,34.4c0.8-0.7,0.3-1.9-0.4-2.1c-0.2-0.1-0.7,0-0.9,0c-0.4,0.1-0.6,0.3-0.7,0.6
			C61.4,34.1,63,35.4,64.1,34.4z"/>
		<path class="fountain-st0" d="M64.2,37.3c0.7-0.7,0.3-1.8-0.4-2.1c-0.2-0.1-0.7,0-0.8,0c-0.4,0.1-0.6,0.3-0.7,0.5
			C61.7,37,63.2,38.2,64.2,37.3z"/>
		<path class="fountain-st0" d="M64.3,40.2c0.7-0.6,0.2-1.8-0.4-2c-0.2-0.1-0.6,0-0.8,0c-0.3,0.1-0.6,0.3-0.7,0.5
			C61.9,40,63.3,41.1,64.3,40.2z"/>
		<path class="fountain-st0" d="M64.4,43.2c0.7-0.6,0.2-1.7-0.4-1.9c-0.2-0.1-0.6,0-0.8,0c-0.3,0.1-0.5,0.3-0.6,0.5
			C62.1,42.9,63.5,44,64.4,43.2z"/>
		<path class="fountain-st0" d="M64.5,46.1c0.6-0.6,0.2-1.6-0.4-1.8c-0.2-0.1-0.6,0-0.7,0c-0.3,0.1-0.5,0.3-0.6,0.5
			C62.3,45.8,63.6,46.9,64.5,46.1z"/>
		<path class="fountain-st0" d="M64.6,49c0.6-0.6,0.2-1.5-0.3-1.7c-0.2-0.1-0.5,0-0.7,0c-0.3,0.1-0.5,0.2-0.6,0.4
			C62.5,48.7,63.8,49.7,64.6,49z"/>
		<path class="fountain-st0" d="M64.7,51.9c0.6-0.5,0.2-1.5-0.3-1.6c-0.2-0.1-0.5,0-0.7,0c-0.3,0.1-0.5,0.2-0.6,0.4
			C62.7,51.7,63.9,52.6,64.7,51.9z"/>
		<path class="fountain-st0" d="M64.8,54.8c0.5-0.5,0.2-1.4-0.3-1.5c-0.2-0.1-0.5,0-0.6,0c-0.3,0.1-0.4,0.2-0.5,0.4
			C62.9,54.6,64.1,55.5,64.8,54.8z"/>
		<path class="fountain-st0" d="M64.9,57.8c0.5-0.5,0.2-1.3-0.3-1.4c-0.1,0-0.5,0-0.6,0c-0.3,0.1-0.4,0.2-0.5,0.4
			C63.1,57.5,64.2,58.4,64.9,57.8z"/>
		<path class="fountain-st0" d="M65,60.7c0.5-0.4,0.2-1.2-0.3-1.3c-0.1,0-0.4,0-0.5,0c-0.2,0.1-0.4,0.2-0.5,0.3C63.4,60.5,64.4,61.3,65,60.7z
			"/>
	</g>
	<g>
		<g>
			<path class="fountain-st0" d="M86.7,36.8c-0.1-2.1-0.3-4.1,0.7-5.5c0.7-1,2.1-1.9,3.6-1.3c1.1,0.4,1.9,1.7,2,3.2c0,1.1-0.3,2.4-0.4,3.7
				c-0.4,3.3-1.9,22-2.3,25c0,0.2,0.4,0,0.5,0c0.4,0.1,1.1-0.3,1.6,0c0.6-4.4,2.1-21.8,2.6-26.3c0.2-1.4,0.5-2.9,0.5-4.3
				c0-1.6-0.6-3.2-1.5-4.2c-1.8-1.9-5.5-2-7.7-0.1c-1,0.9-1.9,2.3-2.1,4.2c-0.1,1.4,0.1,2.9,0.1,4.4c0.1,4.2-0.6,21.7-0.5,26.1
				c0,0,0.1,0.2,0.1,0c0.7-0.2,1.3,0.2,1.9,0C85.9,58.3,86.9,40.6,86.7,36.8z"/>
		</g>
		<g>
			<path class="fountain-st0" d="M90.8,32.8c-0.1-0.2-0.4-0.4-0.7-0.6c-0.2,0-0.6-0.1-0.9,0c-0.7,0.2-1.2,1.4-0.4,2.1
				C89.9,35.4,91.5,34.1,90.8,32.8z"/>
			<path class="fountain-st0" d="M90.7,35.8c-0.1-0.2-0.3-0.4-0.7-0.5c-0.2,0-0.6-0.1-0.8,0c-0.7,0.2-1.1,1.4-0.4,2.1
				C89.7,38.2,91.2,37,90.7,35.8z"/>
			<path class="fountain-st0" d="M90.5,38.8c-0.1-0.2-0.3-0.4-0.7-0.5c-0.2,0-0.6-0.1-0.8,0c-0.6,0.2-1.1,1.3-0.4,2
				C89.6,41.1,91,40,90.5,38.8z"/>
			<path class="fountain-st0" d="M90.3,41.8c-0.1-0.2-0.3-0.4-0.6-0.5c-0.1,0-0.6-0.1-0.8,0c-0.6,0.2-1.1,1.3-0.4,1.9
				C89.4,44,90.8,42.9,90.3,41.8z"/>
			<path class="fountain-st0" d="M90.1,44.8c-0.1-0.2-0.3-0.4-0.6-0.5c-0.1,0-0.5-0.1-0.7,0c-0.6,0.2-1,1.2-0.4,1.8
				C89.3,46.9,90.6,45.8,90.1,44.8z"/>
			<path class="fountain-st0" d="M89.9,47.7c-0.1-0.2-0.3-0.4-0.6-0.4c-0.1,0-0.5-0.1-0.7,0c-0.6,0.2-0.9,1.1-0.3,1.7
				C89.1,49.7,90.4,48.7,89.9,47.7z"/>
			<path class="fountain-st0" d="M89.7,50.7c-0.1-0.2-0.3-0.3-0.6-0.4c-0.1,0-0.5-0.1-0.6,0c-0.5,0.2-0.9,1.1-0.3,1.6
				C89,52.6,90.2,51.7,89.7,50.7z"/>
			<path class="fountain-st0" d="M89.5,53.7c-0.1-0.2-0.3-0.3-0.5-0.4c-0.1,0-0.5-0.1-0.6,0c-0.5,0.2-0.9,1-0.3,1.5
				C88.8,55.5,90,54.6,89.5,53.7z"/>
			<path class="fountain-st0" d="M89.3,56.7c-0.1-0.2-0.2-0.3-0.5-0.4c-0.1,0-0.4,0-0.6,0c-0.5,0.1-0.8,1-0.3,1.4
				C88.7,58.4,89.7,57.5,89.3,56.7z"/>
			<path class="fountain-st0" d="M89.2,59.7c-0.1-0.2-0.2-0.3-0.5-0.3c-0.1,0-0.4,0-0.6,0c-0.4,0.1-0.7,0.9-0.3,1.3
				C88.5,61.3,89.5,60.5,89.2,59.7z"/>
		</g>
	</g>
</g>
<g>
	<path class="fountain-st0" d="M7.9,32.5c0.2,0.4,1.1,0.3,1.2,0C9.7,31.5,7.4,30.9,7.9,32.5z"/>
	<path class="fountain-st0" d="M5.2,34.1c0.2,0.4,1.1,0.3,1.2,0C7.1,33,4.8,32.5,5.2,34.1z"/>
	<path class="fountain-st0" d="M6.2,45.6c0.4-0.2,0.8-0.4,1-0.6s0.3-0.4,0.5-0.7c1.1-1.5,2.6-2.8,4.2-3.8c0.9-0.6,2-1.1,3.2-1.4
		s2.5-0.5,4-0.6c6-0.4,10.5,1.4,14.4,3.8c3.8,2.4,6.9,5.4,9.6,8.8c2.4,3,4.5,6.2,6.3,9.7c0.1,0.2,0.3,0.5,0.4,0.7
		c0.1,0.2,0.3,0.5,0.7,0.5c0-1.1-0.3-2.1-0.7-3.1c-0.2-0.5-0.3-0.9-0.6-1.3c-0.2-0.4-0.4-0.9-0.7-1.3c-2.7-5-5.8-9.4-9.6-13.4
		c-3.7-4-7.8-7.4-13.7-9.2c-1.8-0.6-4.4-1-6.8-0.9c-1.3,0.1-2.4,0.2-3.5,0.4c-4.3,0.9-7.6,2.8-10.4,5.1c-0.7,0.6-1.4,1.2-2,2
		c-0.8,1-1.5,2.8-0.9,4.5c0.2,0.4,0.3,1,0.7,1.2C3,46.4,4.2,46.4,5,46.1C5.4,46,5.8,45.8,6.2,45.6z"/>
	<path class="fountain-st0" d="M11.7,31.2c0.2,0.4,1.1,0.3,1.2,0C13.5,30.2,11.2,29.6,11.7,31.2z"/>
	<path class="fountain-st0" d="M27.7,31.9c0.2,0.4,1.1,0.3,1.2,0C29.5,30.8,27.2,30.3,27.7,31.9z"/>
	<path class="fountain-st0" d="M24.8,31.3c0.2,0.4,1,0.3,1.2,0C26.7,30.2,24.4,29.6,24.8,31.3z"/>
	<path class="fountain-st0" d="M21.6,30.9c0.2,0.4,1.1,0.3,1.2,0C23.4,29.8,21.1,29.2,21.6,30.9z"/>
	<path class="fountain-st0" d="M18.1,30.6c0.2,0.4,1.1,0.3,1.2,0C20,29.5,17.6,29,18.1,30.6z"/>
	<path class="fountain-st0" d="M14.9,30.9c0.2,0.4,1.1,0.3,1.2,0C16.8,29.8,14.4,29.2,14.9,30.9z"/>
	<path class="fountain-st0" d="M43.6,60.2c0,0.1,0.2,0.3,0.2,0.1c0-2.9-1.1-4.5-2.8-5.7c-1.8-1.3-4.1-1.5-7-1.1c-2.3,0.3-4.2,1.4-6.1,2.3
		c-1.9,1-3.8,2.1-5.9,2.6c-2.5,0.6-5.2,0.3-7.2-0.7c-1.9-0.9-3.3-2.5-3.7-4.8c-0.4-2.6,0.9-4.6,2.7-5.6c0.4-0.2,1-0.5,1.6-0.6
		c2-0.3,3.7,0.6,4.5,1.8c0.4,0.5,0.7,1.4,0.7,2.4c-0.1,1.3-0.9,2.4-1.9,2.9c-0.7,0.3-1.6,0.2-2.3-0.1c-0.8-0.4-1.8-1.5-1.4-2.7
		c0.2-0.7,1.4-1.6,2.4-1.3c0.5,0.1,0.9,0.7,0.8,1.4c-0.1,0.5-0.5,1-1.1,0.9c-0.2,0-0.4-0.2-0.5-0.3c-0.1-0.2,0-0.4,0-0.7
		c-0.6,0.9,0.5,1.6,1.4,1.3c0.6-0.3,0.9-1.3,0.6-2.1c-0.2-0.7-1.1-1.2-1.8-1.2c-1.2,0-2.3,0.8-2.6,1.6c-0.2,0.4-0.3,1-0.3,1.7
		c0.2,2.1,2.8,3.7,5.2,3c1-0.3,1.9-1,2.4-1.8s1-2,1-3.3c0-1.9-0.8-3.2-1.9-4.1c-0.9-0.8-2.1-1.4-3.5-1.7c-0.2,0-0.3,0-0.4-0.1
		c0,0,0,0,0-0.1h-0.1c-0.5-0.1-1.4,0-1.8,0C11.3,45,9.3,47,8.3,50.3c-0.1,0.5-0.3,1-0.3,1.5c-0.3,2,0,3.4,0.7,4.8
		c0.4,0.8,0.8,1.5,1.3,2.1c2,2.5,5.2,4.3,9.7,4.1c2.1-0.1,4.1-0.5,5.8-1.1c3.3-1.2,5.9-3.5,9.1-4.7c1.9-0.7,4.1-0.7,5.7,0.1
		C41.7,57.9,42.7,59.1,43.6,60.2z"/>
</g>
<g>
	<path class="fountain-st0" d="M149.5,38.1c-2.3-1.9-4.6-3.2-7.8-4.3c-1.9-0.6-4.5-1.1-7.1-1c-2.4,0.1-4.4,0.5-6.4,1.1
		c-3.8,1.3-6.8,3.2-9.5,5.6c-1.4,1.2-2.7,2.4-3.8,3.7c-3.6,4-6.7,8.3-9.4,13.2c-0.4,0.8-0.9,1.7-1.2,2.6c-0.3,1-0.6,2-0.7,3.1
		c0.3,0.1,0.5-0.3,0.6-0.4c0.2-0.2,0.3-0.5,0.4-0.7c1.9-3.5,3.9-6.7,6.3-9.7c2.7-3.4,5.8-6.4,9.6-8.8c3.9-2.4,8.4-4.2,14.4-3.9
		c1.4,0.1,2.8,0.3,4,0.6c1.2,0.3,2.2,0.8,3.2,1.4c1.6,1,3.2,2.3,4.2,3.8c0.2,0.2,0.3,0.5,0.5,0.7s0.6,0.4,1,0.6s0.8,0.4,1.2,0.5
		c0.8,0.2,2.1,0.3,2.8-0.1c0.3-0.2,0.6-0.9,0.7-1.3c0.6-1.8-0.3-3.6-1-4.6C151,39.4,150.2,38.7,149.5,38.1z"/>
	<g>
		<path class="fountain-st0" d="M117.2,2.7c0.5,0.1,1.1-0.4,1-0.9c0-0.2-0.3-0.3-0.6-0.4c-0.3-0.1-0.4-0.1-0.6,0
			C116.7,1.6,116.7,2.6,117.2,2.7z"/>
		<path class="fountain-st0" d="M114.6,2.5c0.5,0.1,1.1-0.4,1-0.9c-0.1-0.2-0.3-0.3-0.6-0.4c-0.3-0.1-0.4-0.1-0.6,0
			C114.1,1.4,114.1,2.4,114.6,2.5z"/>
		<path class="fountain-st0" d="M111.8,3c0.5,0.1,1.1-0.4,1-0.9c-0.1-0.2-0.3-0.3-0.6-0.4c-0.3,0-0.4-0.1-0.6,0C111.3,1.9,111.3,2.9,111.8,3z
			"/>
		<path class="fountain-st0" d="M119.4,3.1c0.2,0.3,1,0.4,1.2,0C121.1,1.5,118.8,2,119.4,3.1z"/>
		<path class="fountain-st0" d="M109,3.7c0.2,0.3,1,0.4,1.2,0C110.7,2.1,108.3,2.7,109,3.7z"/>
		<path class="fountain-st0" d="M121.5,4c0.2,0.3,1,0.4,1.2,0C123.2,2.4,120.9,3,121.5,4z"/>
		<path class="fountain-st0" d="M123.7,5.9c0.2,0.3,1,0.4,1.2,0C125.5,4.2,123.1,4.8,123.7,5.9z"/>
		<path class="fountain-st0" d="M127.9,13c0.2,0.3,1,0.4,1.2,0C129.6,11.4,127.3,12,127.9,13z"/>
		<path class="fountain-st0" d="M128.2,15.9c0.2,0.3,1,0.4,1.2,0C129.9,14.3,127.6,14.9,128.2,15.9z"/>
		<path class="fountain-st0" d="M128.6,18.7c0.2,0.3,1,0.4,1.2,0C130.3,17.1,128,17.7,128.6,18.7z"/>
		<path class="fountain-st0" d="M143.2,31.2c0.2,0.3,1,0.4,1.2,0C144.9,29.6,142.6,30.2,143.2,31.2z"/>
		<path class="fountain-st0" d="M146.4,32.5c0.2,0.3,1,0.4,1.2,0C148.1,30.9,145.7,31.5,146.4,32.5z"/>
		<path class="fountain-st0" d="M149,34.1c0.2,0.3,1,0.4,1.2,0C150.7,32.5,148.4,33,149,34.1z"/>
		<path class="fountain-st0" d="M128.2,22c0.2,0.3,1,0.4,1.2,0C129.9,20.4,127.6,20.9,128.2,22z"/>
		<path class="fountain-st0" d="M127.5,24.7c0.2,0.3,1,0.4,1.2,0C129.2,23,126.9,23.6,127.5,24.7z"/>
		<path class="fountain-st0" d="M126.2,27.4c0.2,0.3,1,0.4,1.2,0C127.9,25.8,125.6,26.3,126.2,27.4z"/>
		<path class="fountain-st0" d="M125.1,30c0.2,0.3,1,0.4,1.2,0C126.8,28.3,124.5,28.9,125.1,30z"/>
		<path class="fountain-st0" d="M123.4,32.5c0.2,0.3,1,0.4,1.2,0C125.2,30.9,122.8,31.5,123.4,32.5z"/>
		<path class="fountain-st0" d="M121.5,35.4c0.2,0.3,1,0.4,1.2,0C123.2,33.7,120.9,34.3,121.5,35.4z"/>
		<path class="fountain-st0" d="M127.2,31.9c0.2,0.3,1,0.4,1.2,0C128.9,30.3,126.6,30.8,127.2,31.9z"/>
		<path class="fountain-st0" d="M130,31.3c0.2,0.3,1,0.4,1.2,0C131.8,29.6,129.4,30.2,130,31.3z"/>
		<path class="fountain-st0" d="M133.3,30.9c0.2,0.3,1,0.4,1.2,0C135,29.2,132.7,29.8,133.3,30.9z"/>
		<path class="fountain-st0" d="M136.8,30.6c0.2,0.3,1,0.4,1.2,0C138.5,29,136.1,29.5,136.8,30.6z"/>
		<path class="fountain-st0" d="M140,30.9c0.2,0.3,1,0.4,1.2,0C141.7,29.2,139.4,29.8,140,30.9z"/>
		<path class="fountain-st0" d="M125.2,7.7c0.2,0.3,1,0.4,1.2,0C126.9,6.1,124.5,6.6,125.2,7.7z"/>
		<path class="fountain-st0" d="M126.9,10.3c0.2,0.3,1,0.4,1.2,0C128.6,8.7,126.3,9.3,126.9,10.3z"/>
		<path class="fountain-st0" d="M125.1,11.9c-1.2-2.3-2.9-4-5.1-5.2c-1.1-0.6-2.5-1.1-4-1.2c-3.3-0.3-5.9,0.9-7.5,2.8c-1,1.2-1.7,2.6-1.5,4.8
			c0.1,1.4,0.7,2.7,1.5,3.6c0.8,0.9,2,1.5,3.7,1c0.6-0.2,0.9-1.4,0.6-2.2c-0.2-0.6-0.9-0.9-1.2-1.4c-0.3-0.5-0.8-1.6-0.7-2.6
			c0.1-1.1,0.9-1.8,1.8-2.1c1-0.3,2.3-0.2,3.4,0.1c1,0.3,1.9,0.7,2.6,1.3s1.3,1.3,1.7,2.1c1,1.7,1.5,3.7,1.5,6.2
			c0,2.6-0.5,4.6-1.2,6.6c-1.3,3.9-3.2,7.2-5.4,10.2c-2.1,3-4.6,5.7-7.1,8.3c0.5-0.5,1.2-0.7,1.7-1.1c1.4-1.1,2.6-2.5,4-3.8
			c3.4-3.4,6.9-6.7,9.5-11c1.3-2.2,2.4-4.7,2.7-7.5C126.8,17.3,126.2,14.1,125.1,11.9z"/>
	</g>
	<path class="fountain-st0" d="M112.5,57.2c1.6-0.8,3.8-0.8,5.7-0.1c3.2,1.2,5.8,3.5,9.1,4.7c1.7,0.6,3.7,1,5.8,1.1c4.5,0.2,7.6-1.6,9.7-4.1
		c0.5-0.6,0.9-1.3,1.3-2.1c0.6-1.3,1-2.8,0.8-4.8c0-0.5-0.2-1-0.3-1.5c-1-3.3-3-5.3-6.5-6.1c-0.4-0.1-1.3-0.1-1.8,0h-0.1v0.1
		c-0.1,0.1-0.3,0.1-0.4,0.1c-1.4,0.3-2.6,0.9-3.5,1.7c-1,0.9-1.9,2.2-1.9,4.1c0,1.3,0.4,2.5,1,3.3s1.4,1.6,2.4,1.8
		c2.5,0.7,5-0.9,5.2-3c0.1-0.7-0.1-1.3-0.3-1.7c-0.4-0.8-1.4-1.7-2.6-1.6c-0.7,0-1.5,0.5-1.8,1.2c-0.3,0.8,0.1,1.8,0.6,2.1
		c0.9,0.4,2-0.3,1.4-1.3c0,0.3,0.1,0.5,0,0.7s-0.3,0.3-0.5,0.3c-0.6,0.1-1.1-0.4-1.1-0.9c-0.1-0.7,0.3-1.3,0.8-1.4
		c1-0.3,2.2,0.6,2.4,1.3c0.4,1.2-0.6,2.3-1.4,2.7c-0.6,0.3-1.6,0.4-2.3,0.1c-1-0.4-1.8-1.6-1.9-2.9c-0.1-1,0.3-1.9,0.6-2.4
		c0.8-1.2,2.5-2.1,4.5-1.8c0.6,0.1,1.1,0.3,1.5,0.6c1.8,1,3.1,3,2.7,5.6c-0.4,2.3-1.8,3.9-3.7,4.8c-2,1-4.7,1.2-7.2,0.7
		c-2.1-0.5-4-1.6-5.9-2.6c-1.9-0.9-3.8-2-6.2-2.3c-2.9-0.4-5.3-0.1-7,1.1s-2.7,2.9-2.7,5.7c0,0.1,0.1-0.1,0.2-0.1
		C110,59.1,111.1,57.9,112.5,57.2z"/>
	<path class="fountain-st0" d="M107.8,35.1c-0.7-1.5-1.2-3.9-0.7-6.1c0.3-1.3,0.9-2.4,1.5-3.3c0.7-1,1.5-1.8,2.5-2.5l0,0
		c-1.2,0-2.2,0.5-3.1,1c-1.9,1.2-3,2.6-3.6,5c-0.3,1.2-0.4,2.7-0.2,4.1c0.3,1.9,1,3.5,2,4.8c0.3,0.5,0.8,0.9,1.3,1
		c0.7,0.1,1.3-0.4,1.4-0.8c0.2-0.5,0-1.3-0.2-1.7C108.4,36.1,108,35.7,107.8,35.1z"/>
</g>
</svg>
