<?xml version="1.0" encoding="utf-8"?>
<!-- Generator: Adobe Illustrator 23.0.4, SVG Export Plug-In . SVG Version: 6.00 Build 0)  -->
<svg version="1.1" xmlns="http://www.w3.org/2000/svg" xmlns:xlink="http://www.w3.org/1999/xlink" x="0px" y="0px"
	 viewBox="0 0 309.8 596.1" style="enable-background:new 0 0 309.8 596.1;" xml:space="preserve">
<style type="text/css">
	.heart-st0{fill:#FDEC0A;}
	.heart-st1{fill:#EA0D80;}
	.heart-st2{fill:#E9234C;}
	.heart-st3{fill:#65BC47;}
</style>
<g id="Layer_1">
</g>
<g id="Layer_2">
	<path class="heart-st0" d="M218,414.2l-9.8-2.7c-1.1-0.3-28.2-7.7-61.1-19.6c-44.9-16.3-77.7-32.8-97.5-48.9
		c-17.6-14.3-28.8-34-30.8-54.2c-1.8-18.3,4-36,16.8-51.4C42.5,229.2,51,222.6,61,218c15.3-7.1,33.8-9.3,50.7-6
		c5,1,9.6,2.4,13.9,4.2c1.4-4.4,3.3-8.9,5.7-13.3c8.3-15.1,21.9-27.9,37.2-35c9.9-4.6,20.5-7,31.3-6.9c19.9,0.1,37.3,7.1,50.1,20.2
		c14.2,14.5,22.1,35.8,21.7,58.4c-0.4,25.5-8.9,61.2-25.2,106.1c-12,33-23.7,58.3-24.2,59.4L218,414.2z M208.6,410l8.5,2.3l3.7-8
		c0.5-1.1,12.2-26.3,24.2-59.3c16.3-44.7,24.7-80.3,25.1-105.6c0.4-22.2-7.4-43.1-21.3-57.3c-12.5-12.8-29.5-19.6-49-19.7
		c-0.1,0-0.2,0-0.3,0c-10.5,0-20.6,2.3-30.2,6.8c-15,7-28.3,19.5-36.5,34.3c-2.5,4.6-4.5,9.3-5.9,13.9l-0.3,0.9l-0.8-0.4
		c-4.4-1.9-9.2-3.4-14.4-4.4c-16.6-3.3-34.7-1.1-49.7,5.9c-9.7,4.5-18.1,10.9-24.8,19.1c-12.5,15-18.1,32.4-16.4,50.2
		c1.9,19.7,12.9,39.1,30.2,53.1c19.7,16,52.3,32.4,97.1,48.6C180.5,402.4,207.5,409.7,208.6,410L208.6,410z"/>
	<g>
		<path class="heart-st1" d="M300.5,606.3c-0.5,0-0.9-0.3-1.1-0.7L16.3-1.7c-0.3-0.6,0-1.3,0.6-1.6c0.6-0.3,1.3,0,1.6,0.6l283.2,607.3
			c0.3,0.6,0,1.3-0.6,1.6C300.9,606.2,300.7,606.3,300.5,606.3z"/>
		<path class="heart-st1" d="M311.5,601.2c-0.5,0-0.9-0.3-1.1-0.7L27.2-6.8c-0.3-0.6,0-1.3,0.6-1.6c0.6-0.3,1.3,0,1.6,0.6l283.2,607.3
			c0.3,0.6,0,1.3-0.6,1.6C311.8,601.1,311.7,601.2,311.5,601.2z"/>
	</g>
	<path class="heart-st2" d="M214.9,407.6l-5.2-1.4c-0.3-0.1-27.8-7.6-60.6-19.5c-44.3-16.1-76.6-32.3-95.9-48
		c-16.4-13.3-26.9-31.7-28.7-50.4c-1.6-16.8,3.7-33.1,15.5-47.2c6.4-7.7,14.3-13.7,23.4-18c14.3-6.6,31.5-8.7,47.3-5.6
		c7,1.4,13.5,3.8,18.8,6.9c1-6.1,3.4-12.6,6.8-18.9c7.8-14.1,20.4-26,34.7-32.6c9.2-4.3,18.9-6.4,28.9-6.4
		c18.4,0.1,34.4,6.5,46.2,18.5c13.1,13.4,20.5,33.2,20.1,54.4c-0.4,24.9-8.8,60-24.9,104.3c-12,32.9-23.9,58.7-24,59L214.9,407.6z
		 M95.8,217.7c-11,0-22.1,2.3-31.8,6.8c-9,4.2-16.7,10.1-22.9,17.6c-11.5,13.8-16.7,29.7-15.1,46.1c1.8,18.2,12,36.2,28.1,49.3
		c19.2,15.6,51.3,31.6,95.4,47.7c32.8,11.9,60.2,19.4,60.5,19.5h0l3.9,1.1l1.7-3.7c0.1-0.3,12-26,24-58.8
		c16.1-44.1,24.4-79,24.8-103.8c0.3-20.7-6.8-40.1-19.7-53.2c-11.5-11.7-27-17.9-45-18c-9.7,0-19.2,2.1-28.2,6.2
		c-14,6.5-26.3,18.1-33.9,31.9c-3.6,6.5-5.9,13.2-6.8,19.5l-0.2,1.2l-1.1-0.7c-5.4-3.4-12.1-5.9-19.3-7.3
		C105.6,218.1,100.7,217.7,95.8,217.7z"/>
	<path class="heart-st1" d="M306,603.7c-0.5,0-0.9-0.3-1.1-0.7L21.7-4.3c-0.3-0.6,0-1.3,0.6-1.6c0.6-0.3,1.3,0,1.6,0.6L307.1,602
		c0.3,0.6,0,1.3-0.6,1.6C306.4,603.7,306.2,603.7,306,603.7z"/>
	<path class="heart-st3" d="M211.8,400.9l-0.7-0.2c-1.1-0.3-109.5-29.9-154.4-66.4c-15.3-12.4-25-29.4-26.7-46.6
		c-1.5-15.2,3.4-30.1,14.2-43.1c14.2-17.1,37-25.5,60.8-22.4c13.1,1.7,23.9,6.7,29.7,13.6c-1.5-8.9,1.6-20.4,8.7-31.5
		c12.9-20.2,33.8-32.2,56-32.2c0.1,0,0.2,0,0.3,0c16.9,0.1,31.5,5.9,42.2,16.8c12.1,12.3,18.8,30.7,18.5,50.4
		c-0.9,57.8-47.9,160-48.4,161L211.8,400.9z M96,223.3c-16.7,0-36.7,5.8-50.5,22.4c-10.5,12.6-15.3,27.1-13.9,41.9
		c1.6,16.8,11.1,33.3,26.1,45.5c42.8,34.8,144,63.4,153.2,65.9c3.9-8.6,47.1-104.6,48-159.7c0.3-19.2-6.3-37.2-18.1-49.2
		c-10.4-10.6-24.6-16.3-41-16.3c-25.6-0.1-45.1,16.2-54.9,31.5c-8.4,13.1-11,26.7-7,35.4l-1.5,0.7c-4.1-8.8-16.2-15.5-31.6-17.5
		C102,223.5,99.1,223.3,96,223.3z"/>
</g>
</svg>
