<?xml version="1.0" encoding="utf-8"?>
<!-- Generator: Adobe Illustrator 23.0.4, SVG Export Plug-In . SVG Version: 6.00 Build 0)  -->
<svg version="1.1" xmlns="http://www.w3.org/2000/svg" xmlns:xlink="http://www.w3.org/1999/xlink" x="0px" y="0px"
	 viewBox="0 0 288 432" style="enable-background:new 0 0 288 432;" xml:space="preserve">
<style type="text/css">
	.st0{fill:none;stroke:#FDEC0A;stroke-width:1.6113;stroke-miterlimit:10;}
	.st1{fill:none;stroke:#EA0D80;stroke-width:2.4169;stroke-linecap:round;stroke-linejoin:round;}
	.st2{fill:none;stroke:#E9234C;stroke-width:1.6113;stroke-miterlimit:10;}
	.st3{fill:none;stroke:#65BC47;stroke-width:1.6113;stroke-miterlimit:10;}
</style>
<g id="Layer_1">
</g>
<g id="Layer_2">
	<path class="st0" d="M208.4,283.6c-1.1-0.3-28.1-7.6-61-19.6c-44.8-16.3-77.5-32.7-97.3-48.8c-17.4-14.2-28.5-33.7-30.5-53.7
		c-1.8-18.1,4-35.6,16.6-50.8C43,102.5,51.5,96,61.3,91.4c15.2-7.1,33.5-9.2,50.2-5.9c5.3,1,10.2,2.6,14.6,4.5
		c1.3-4.6,3.3-9.3,5.9-14.1c8.2-15,21.7-27.6,36.8-34.7c9.8-4.6,20.2-6.9,30.9-6.8c19.7,0.1,36.9,7,49.6,19.9
		c14,14.3,21.9,35.4,21.5,57.8c-0.4,25.4-8.9,61.1-25.2,105.9c-12,32.9-23.7,58.3-24.2,59.3l-4,8.6L208.4,283.6z"/>
	<g>
		<line class="st1" x1="17.4" y1="-129.5" x2="300.5" y2="477.8"/>
		<line class="st1" x1="28.3" y1="-134.6" x2="311.5" y2="472.7"/>
	</g>
	<path class="st2" d="M209.8,278.1c-0.3-0.1-27.8-7.6-60.5-19.5c-44.2-16.1-76.4-32.2-95.7-47.8C37.4,197.6,27,179.4,25.2,161
		c-1.6-16.5,3.7-32.7,15.3-46.7c6.3-7.6,14.1-13.6,23.2-17.8C77.8,90,94.8,88,110.5,91c7.5,1.5,14.2,4,19.6,7.4
		c0.9-6.3,3.2-13.1,6.9-19.8c7.7-13.9,20.2-25.7,34.3-32.3c9.1-4.2,18.7-6.4,28.5-6.3c18.2,0.1,34,6.4,45.6,18.3
		c13,13.2,20.2,32.9,19.9,53.8c-0.4,24.8-8.8,59.8-24.8,104c-11.9,32.7-23.9,58.6-24,58.9l-2,4.3L209.8,278.1z"/>
	<line class="st1" x1="22.8" y1="-132" x2="306" y2="475.3"/>
	<path class="st3" d="M211.3,272.7c0,0,47.4-102.3,48.3-160.7c0.5-32.3-18.6-66.2-59.9-66.4c-43.9-0.2-72.4,47-62.6,68
		c-9.8-21.1-64.3-29.6-92.3,4.2c-26.4,31.7-12.7,68.2,12.3,88.5C102.5,243.2,211.3,272.7,211.3,272.7z"/>
</g>
</svg>
