<?xml version="1.0" encoding="utf-8"?>
<!-- Generator: Adobe Illustrator 23.0.4, SVG Export Plug-In . SVG Version: 6.00 Build 0)  -->
<svg version="1.1" id="Layer_1" xmlns="http://www.w3.org/2000/svg" xmlns:xlink="http://www.w3.org/1999/xlink" x="0px" y="0px"
	 viewBox="0 0 154.9 131.4" style="enable-background:new 0 0 154.9 131.4;" xml:space="preserve">
<style type="text/css">
	.splash-pad-st0{display:none;fill:none;stroke:#939598;stroke-miterlimit:10;}
	.splash-pad-st1{fill-rule:evenodd;clip-rule:evenodd;}
	.splash-pad-st2{display:none;}
	.splash-pad-st3{display:inline;}
</style>
<g id="Layer_3">
</g>
<g id="artwork">
	<path class="splash-pad-st0" d="M404.4-1033.6c0,100-198.5,276.7-198.5,276.7S7.4-933.6,7.4-1033.6c0-53.3,46.8-96.5,104.5-96.5
		c41.4,0,77,40.3,94,72.5c16.9-32.2,52.6-72.5,94-72.5C357.6-1130,404.4-1086.9,404.4-1033.6z"/>
	<g>
		<g>
			<path class="splash-pad-st1" d="M78.5,87.1c0.7,0.2,1.3-0.2,1.9,0c0,0.2,0.1,0,0.1,0c0.4-4.4,1-28.4,1.4-32.6c0.2-1.5,0.5-3,0.5-4.4
				c0-1.9-0.9-3.4-1.8-4.3c-2.1-2-5.7-1.8-7.7,0.1c-1,1-1.7,2.6-1.8,4.2c-0.1,1.4,0.2,2.9,0.2,4.3c0.2,4.5,0.4,28.4,0.7,32.8
				c0.4-0.3,1.1,0.1,1.6,0c0.2,0,0.5,0.2,0.5,0c-0.2-3-0.3-28.2-0.5-31.5c-0.1-1.3-0.3-2.6-0.1-3.7c0.2-1.5,1.1-2.8,2.2-3.2
				c1.6-0.6,2.9,0.3,3.5,1.3c0.9,1.5,0.5,3.4,0.3,5.5C79.2,59.3,78.9,83.5,78.5,87.1z"/>
			<path class="splash-pad-st1" d="M67.2,87.1c0.7,0.2,1.3-0.2,1.9,0c0.1,0.2,0.1,0,0.2,0c0.1-4.4-0.6-21.9-0.5-26.1c0.1-1.5,0.3-3,0.1-4.4
				c-0.2-1.9-1.1-3.4-2.1-4.2c-2.2-2-5.9-1.8-7.7,0.1c-0.9,1-1.5,2.6-1.5,4.2c0,1.4,0.4,2.9,0.5,4.3c0.5,4.5,1.9,21.9,2.6,26.3
				c0.4-0.3,1.1,0.1,1.6,0c0.1,0,0.5,0.2,0.5,0c-0.4-3-1.9-21.7-2.3-25c-0.2-1.3-0.5-2.6-0.4-3.7c0.1-1.5,0.9-2.8,2-3.2
				c1.5-0.6,2.9,0.3,3.6,1.3c1,1.5,0.8,3.4,0.7,5.5C66.3,65.8,67.3,83.5,67.2,87.1z"/>
			<g>
				<path class="splash-pad-st1" d="M77.7,53.1c0.8-0.7,0.3-1.9-0.4-2.1c-0.2-0.1-0.7,0-0.9,0c-0.4,0.1-0.6,0.3-0.7,0.6
					C75.1,52.8,76.7,54,77.7,53.1z"/>
				<path class="splash-pad-st1" d="M77.6,56.7c0.7-0.7,0.3-1.9-0.4-2.1c-0.2-0.1-0.7,0-0.8,0c-0.4,0.1-0.6,0.3-0.7,0.5
					C75.1,56.4,76.6,57.6,77.6,56.7z"/>
				<path class="splash-pad-st1" d="M77.5,60.4c0.7-0.6,0.2-1.8-0.4-2c-0.2-0.1-0.6,0-0.8,0c-0.3,0.1-0.6,0.3-0.7,0.5
					C75.1,60.1,76.6,61.2,77.5,60.4z"/>
				<path class="splash-pad-st1" d="M77.5,64c0.7-0.6,0.2-1.7-0.4-1.9c-0.2-0.1-0.6,0-0.8,0c-0.3,0.1-0.5,0.3-0.6,0.5
					C75.2,63.7,76.6,64.8,77.5,64z"/>
				<path class="splash-pad-st1" d="M77.4,67.7c0.7-0.6,0.2-1.6-0.4-1.8c-0.2-0.1-0.6,0-0.7,0c-0.3,0.1-0.5,0.3-0.6,0.5
					C75.2,67.4,76.5,68.4,77.4,67.7z"/>
				<path class="splash-pad-st1" d="M77.3,71.3c0.6-0.6,0.2-1.5-0.3-1.7c-0.2,0-0.5,0-0.7,0c-0.3,0.1-0.5,0.2-0.6,0.4
					C75.2,71,76.5,72,77.3,71.3z"/>
				<path class="splash-pad-st1" d="M77.2,74.9c0.6-0.5,0.2-1.4-0.3-1.6c-0.2,0-0.5,0-0.6,0c-0.3,0.1-0.5,0.2-0.6,0.4
					C75.3,74.7,76.5,75.7,77.2,74.9z"/>
				<path class="splash-pad-st1" d="M77.2,78.6c0.5-0.5,0.2-1.4-0.3-1.5c-0.2,0-0.5,0-0.6,0c-0.3,0.1-0.4,0.2-0.5,0.4
					C75.3,78.4,76.4,79.3,77.2,78.6z"/>
				<path class="splash-pad-st1" d="M77.1,82.2c0.5-0.5,0.2-1.3-0.3-1.4c-0.1,0-0.5,0-0.6,0c-0.3,0.1-0.4,0.2-0.5,0.4
					C75.3,82,76.4,82.9,77.1,82.2z"/>
				<path class="splash-pad-st1" d="M77,85.9c0.5-0.4,0.2-1.2-0.3-1.3c-0.1,0-0.4,0-0.5,0c-0.2,0.1-0.4,0.2-0.5,0.3
					C75.4,85.7,76.4,86.5,77,85.9z"/>
			</g>
			<g>
				<path class="splash-pad-st1" d="M64.4,59.6c0.8-0.7,0.3-1.9-0.4-2.1c-0.2-0.1-0.7,0-0.9,0c-0.4,0.1-0.6,0.3-0.7,0.6
					C61.7,59.3,63.3,60.6,64.4,59.6z"/>
				<path class="splash-pad-st1" d="M64.5,62.5c0.7-0.7,0.3-1.8-0.4-2.1c-0.2-0.1-0.7,0-0.8,0c-0.4,0.1-0.6,0.3-0.7,0.5
					C62,62.2,63.5,63.4,64.5,62.5z"/>
				<path class="splash-pad-st1" d="M64.6,65.4c0.7-0.6,0.2-1.8-0.4-2c-0.2-0.1-0.6,0-0.8,0c-0.3,0.1-0.6,0.3-0.7,0.5
					C62.2,65.2,63.6,66.3,64.6,65.4z"/>
				<path class="splash-pad-st1" d="M64.7,68.4c0.7-0.6,0.2-1.7-0.4-1.9c-0.2-0.1-0.6,0-0.8,0c-0.3,0.1-0.5,0.3-0.6,0.5
					C62.4,68.1,63.8,69.2,64.7,68.4z"/>
				<path class="splash-pad-st1" d="M64.8,71.3c0.6-0.6,0.2-1.6-0.4-1.8c-0.2-0.1-0.6,0-0.7,0c-0.3,0.1-0.5,0.3-0.6,0.5
					C62.6,71,63.9,72.1,64.8,71.3z"/>
				<path class="splash-pad-st1" d="M64.9,74.2c0.6-0.6,0.2-1.5-0.3-1.7c-0.2-0.1-0.5,0-0.7,0c-0.3,0.1-0.5,0.2-0.6,0.4
					C62.8,73.9,64.1,74.9,64.9,74.2z"/>
				<path class="splash-pad-st1" d="M65,77.1c0.6-0.5,0.2-1.5-0.3-1.6c-0.2-0.1-0.5,0-0.7,0c-0.3,0.1-0.5,0.2-0.6,0.4
					C63,76.9,64.2,77.8,65,77.1z"/>
				<path class="splash-pad-st1" d="M65.1,80c0.5-0.5,0.2-1.4-0.3-1.5c-0.2-0.1-0.5,0-0.6,0c-0.3,0.1-0.4,0.2-0.5,0.4
					C63.2,79.8,64.4,80.7,65.1,80z"/>
				<path class="splash-pad-st1" d="M65.2,83c0.5-0.5,0.2-1.3-0.3-1.4c-0.1,0-0.5,0-0.6,0c-0.3,0.1-0.4,0.2-0.5,0.4
					C63.4,82.7,64.5,83.6,65.2,83z"/>
				<path class="splash-pad-st1" d="M65.3,85.9c0.5-0.4,0.2-1.2-0.3-1.3c-0.1,0-0.4,0-0.5,0c-0.2,0.1-0.4,0.2-0.5,0.3
					C63.7,85.7,64.7,86.5,65.3,85.9z"/>
			</g>
			<g>
				<g>
					<path class="splash-pad-st1" d="M87,62c-0.1-2.1-0.3-4.1,0.7-5.5c0.7-1,2.1-1.9,3.6-1.3c1.1,0.4,1.9,1.7,2,3.2c0,1.1-0.3,2.4-0.4,3.7
						c-0.4,3.3-1.9,22-2.3,25c0,0.2,0.4,0,0.5,0c0.4,0.1,1.1-0.3,1.6,0c0.6-4.4,2.1-21.8,2.6-26.3c0.2-1.4,0.5-2.9,0.5-4.3
						c0-1.6-0.6-3.2-1.5-4.2c-1.8-1.9-5.5-2-7.7-0.1c-1,0.9-1.9,2.3-2.1,4.2c-0.1,1.4,0.1,2.9,0.1,4.4c0.1,4.2-0.6,21.7-0.5,26.1
						c0,0,0.1,0.2,0.1,0c0.7-0.2,1.3,0.2,1.9,0C86.2,83.5,87.2,65.8,87,62z"/>
				</g>
				<g>
					<path class="splash-pad-st1" d="M91.1,58c-0.1-0.2-0.4-0.4-0.7-0.6c-0.2,0-0.6-0.1-0.9,0c-0.7,0.2-1.2,1.4-0.4,2.1
						C90.2,60.6,91.8,59.3,91.1,58z"/>
					<path class="splash-pad-st1" d="M91,61c-0.1-0.2-0.3-0.4-0.7-0.5c-0.2,0-0.6-0.1-0.8,0c-0.7,0.2-1.1,1.4-0.4,2.1C90,63.4,91.5,62.2,91,61z
						"/>
					<path class="splash-pad-st1" d="M90.8,64c-0.1-0.2-0.3-0.4-0.7-0.5c-0.2,0-0.6-0.1-0.8,0c-0.6,0.2-1.1,1.3-0.4,2
						C89.9,66.3,91.3,65.2,90.8,64z"/>
					<path class="splash-pad-st1" d="M90.6,67c-0.1-0.2-0.3-0.4-0.6-0.5c-0.1,0-0.6-0.1-0.8,0c-0.6,0.2-1.1,1.3-0.4,1.9
						C89.7,69.2,91.1,68.1,90.6,67z"/>
					<path class="splash-pad-st1" d="M90.4,70c-0.1-0.2-0.3-0.4-0.6-0.5c-0.1,0-0.5-0.1-0.7,0c-0.6,0.2-1,1.2-0.4,1.8
						C89.6,72.1,90.9,71,90.4,70z"/>
					<path class="splash-pad-st1" d="M90.2,72.9c-0.1-0.2-0.3-0.4-0.6-0.4c-0.1,0-0.5-0.1-0.7,0c-0.6,0.2-0.9,1.1-0.3,1.7
						C89.4,74.9,90.7,73.9,90.2,72.9z"/>
					<path class="splash-pad-st1" d="M90,75.9c-0.1-0.2-0.3-0.3-0.6-0.4c-0.1,0-0.5-0.1-0.6,0c-0.5,0.2-0.9,1.1-0.3,1.6
						C89.3,77.8,90.5,76.9,90,75.9z"/>
					<path class="splash-pad-st1" d="M89.8,78.9c-0.1-0.2-0.3-0.3-0.5-0.4c-0.1,0-0.5-0.1-0.6,0c-0.5,0.2-0.9,1-0.3,1.5
						C89.1,80.7,90.3,79.8,89.8,78.9z"/>
					<path class="splash-pad-st1" d="M89.6,81.9c-0.1-0.2-0.2-0.3-0.5-0.4c-0.1,0-0.4,0-0.6,0c-0.5,0.1-0.8,1-0.3,1.4
						C89,83.6,90,82.7,89.6,81.9z"/>
					<path class="splash-pad-st1" d="M89.5,84.9c-0.1-0.2-0.2-0.3-0.5-0.3c-0.1,0-0.4,0-0.6,0c-0.4,0.1-0.7,0.9-0.3,1.3
						C88.8,86.5,89.8,85.7,89.5,84.9z"/>
				</g>
			</g>
		</g>
		<g>
			<path class="splash-pad-st1" d="M56.8,16.6c0.3,2.8,1.5,5.4,2.8,7.5c2.6,4.3,6.1,7.6,9.5,11c1.3,1.3,2.5,2.6,3.9,3.8
				c0.5,0.4,1.3,0.7,1.8,1.1c-2.6-2.7-5-5.3-7.1-8.3s-4.1-6.3-5.4-10.2c-0.7-2-1.2-4-1.2-6.6s0.5-4.5,1.5-6.2c0.5-0.8,1-1.6,1.8-2.1
				c0.7-0.5,1.6-1,2.6-1.3c1-0.2,2.4-0.3,3.3,0s1.7,1,1.8,2.1c0.1,1.1-0.3,2.1-0.7,2.6c-0.3,0.5-1,0.9-1.2,1.4c-0.3,0.7,0,2,0.6,2.2
				c1.7,0.5,2.9-0.1,3.7-1c0.8-0.9,1.4-2.2,1.5-3.6c0.2-2.2-0.6-3.6-1.5-4.8C73,2.3,70.4,1.1,67,1.4c-1.5,0.1-2.9,0.6-4,1.2
				c-2.1,1.2-3.9,2.9-5.1,5.2C57,10.1,56.4,13.4,56.8,16.6z"/>
			<path class="splash-pad-st1" d="M96.9,16.6c-0.3,2.8-1.5,5.4-2.7,7.5c-2.6,4.3-6.1,7.6-9.5,11c-1.3,1.3-2.5,2.6-4,3.8
				c-0.5,0.4-1.3,0.7-1.8,1.1c2.6-2.7,5-5.3,7.1-8.3s4.1-6.3,5.4-10.2c0.7-2,1.2-4,1.2-6.6s-0.5-4.5-1.6-6.2c-0.5-0.8-1-1.6-1.7-2.1
				s-1.6-1-2.6-1.3c-1.1-0.3-2.4-0.4-3.4-0.1c-0.9,0.3-1.7,1-1.8,2.1c-0.1,1.1,0.3,2.1,0.7,2.6c0.3,0.5,1,0.9,1.2,1.4
				c0.3,0.7,0,2-0.6,2.2c-1.7,0.5-2.9-0.1-3.7-1c-0.8-0.9-1.4-2.2-1.5-3.6c-0.2-2.2,0.6-3.6,1.5-4.8c1.5-1.9,4.1-3.1,7.5-2.8
				c1.5,0.1,2.9,0.6,4,1.2c2.1,1.2,3.9,2.9,5.1,5.2C96.7,10.1,97.3,13.4,96.9,16.6z"/>
		</g>
		<g>
			<path class="splash-pad-st1" d="M24,103c0.8,0,1.2-0.8,0.9-1.4c-0.2-0.4-0.6-0.6-1.1-0.5C22.7,101.2,22.8,102.9,24,103z"/>
			<path class="splash-pad-st1" d="M27.6,103c0.8,0,1.2-0.8,0.9-1.4c-0.2-0.4-0.6-0.6-1.1-0.5C26.3,101.2,26.5,102.9,27.6,103z"/>
			<path class="splash-pad-st1" d="M31.3,103c0.8,0,1.2-0.8,0.9-1.4c-0.2-0.4-0.6-0.6-1.1-0.5C30,101.2,30.1,102.9,31.3,103z"/>
			<path class="splash-pad-st1" d="M34.9,103c0.8,0,1.2-0.8,0.9-1.4c-0.2-0.4-0.6-0.6-1.1-0.5C33.6,101.2,33.7,102.9,34.9,103z"/>
			<path class="splash-pad-st1" d="M38.5,103c0.8,0,1.2-0.8,0.9-1.4c-0.2-0.4-0.6-0.6-1.1-0.5C37.2,101.2,37.4,102.9,38.5,103z"/>
			<path class="splash-pad-st1" d="M42.2,103c0.8,0,1.2-0.8,0.9-1.4c-0.2-0.4-0.6-0.6-1.1-0.5C40.9,101.2,41,102.9,42.2,103z"/>
			<path class="splash-pad-st1" d="M45.8,103c0.8,0,1.2-0.8,0.9-1.4c-0.2-0.4-0.6-0.6-1.1-0.5C44.5,101.2,44.7,102.9,45.8,103z"/>
			<path class="splash-pad-st1" d="M49.4,103c0.8,0,1.2-0.8,0.9-1.4c-0.2-0.4-0.6-0.6-1.1-0.5C48.1,101.2,48.3,102.9,49.4,103z"/>
			<path class="splash-pad-st1" d="M53.1,103c0.8,0,1.2-0.8,0.9-1.4c-0.2-0.4-0.6-0.6-1.1-0.5C51.8,101.2,51.9,102.9,53.1,103z"/>
			<path class="splash-pad-st1" d="M56.7,103c0.8,0,1.2-0.8,0.9-1.4c-0.2-0.4-0.6-0.6-1.1-0.5C55.4,101.2,55.6,102.9,56.7,103z"/>
			<path class="splash-pad-st1" d="M60.3,103c0.8,0,1.2-0.8,0.9-1.4c-0.2-0.4-0.6-0.6-1.1-0.5C59.1,101.2,59.2,102.9,60.3,103z"/>
			<path class="splash-pad-st1" d="M64,103c0.8,0,1.2-0.8,0.9-1.4c-0.2-0.4-0.6-0.6-1.1-0.5C62.7,101.2,62.8,102.9,64,103z"/>
			<path class="splash-pad-st1" d="M67.6,103c0.8,0,1.2-0.8,0.9-1.4c-0.2-0.4-0.6-0.6-1.1-0.5C66.3,101.2,66.5,102.9,67.6,103z"/>
			<path class="splash-pad-st1" d="M71.3,103c0.8,0,1.2-0.8,0.9-1.4c-0.2-0.4-0.6-0.6-1.1-0.5C70,101.2,70.1,102.9,71.3,103z"/>
			<path class="splash-pad-st1" d="M74.9,103c0.8,0,1.2-0.8,0.9-1.4c-0.2-0.4-0.6-0.6-1.1-0.5C73.6,101.2,73.8,102.9,74.9,103z"/>
			<path class="splash-pad-st1" d="M78.5,103c0.8,0,1.2-0.8,0.9-1.4c-0.2-0.4-0.6-0.6-1.1-0.5C77.2,101.2,77.4,102.9,78.5,103z"/>
			<path class="splash-pad-st1" d="M82.2,103c0.8,0,1.2-0.8,0.9-1.4c-0.2-0.4-0.6-0.6-1.1-0.5C80.9,101.2,81,102.9,82.2,103z"/>
			<path class="splash-pad-st1" d="M85.8,103c0.8,0,1.2-0.8,0.9-1.4c-0.2-0.4-0.6-0.6-1.1-0.5C84.5,101.2,84.7,102.9,85.8,103z"/>
			<path class="splash-pad-st1" d="M89.4,103c0.8,0,1.2-0.8,0.9-1.4c-0.2-0.4-0.6-0.6-1.1-0.5C88.1,101.2,88.3,102.9,89.4,103z"/>
			<path class="splash-pad-st1" d="M93.1,103c0.8,0,1.2-0.8,0.9-1.4c-0.2-0.4-0.6-0.6-1.1-0.5C91.8,101.2,91.9,102.9,93.1,103z"/>
			<path class="splash-pad-st1" d="M96.7,103c0.8,0,1.2-0.8,0.9-1.4c-0.2-0.4-0.6-0.6-1.1-0.5C95.4,101.2,95.6,102.9,96.7,103z"/>
			<path class="splash-pad-st1" d="M100.4,103c0.8,0,1.2-0.8,0.9-1.4c-0.2-0.4-0.6-0.6-1.1-0.5C99.1,101.2,99.2,102.9,100.4,103z"/>
			<path class="splash-pad-st1" d="M104,103c0.8,0,1.2-0.8,0.9-1.4c-0.2-0.4-0.6-0.6-1.1-0.5C102.7,101.2,102.8,102.9,104,103z"/>
			<path class="splash-pad-st1" d="M107.6,103c0.8,0,1.2-0.8,0.9-1.4c-0.2-0.4-0.6-0.6-1.1-0.5C106.3,101.2,106.5,102.9,107.6,103z"/>
			<path class="splash-pad-st1" d="M111.3,103c0.8,0,1.2-0.8,0.9-1.4c-0.2-0.4-0.6-0.6-1.1-0.5C110,101.2,110.1,102.9,111.3,103z"/>
			<path class="splash-pad-st1" d="M114.9,103c0.8,0,1.2-0.8,0.9-1.4c-0.2-0.4-0.6-0.6-1.1-0.5C113.6,101.2,113.8,102.9,114.9,103z"/>
			<path class="splash-pad-st1" d="M118.5,103c0.8,0,1.2-0.8,0.9-1.4c-0.2-0.4-0.6-0.6-1.1-0.5C117.3,101.2,117.4,102.9,118.5,103z"/>
			<path class="splash-pad-st1" d="M122.2,103c0.8,0,1.2-0.8,0.9-1.4c-0.2-0.4-0.6-0.6-1.1-0.5C120.9,101.2,121,102.9,122.2,103z"/>
			<path class="splash-pad-st1" d="M125.8,103c0.8,0,1.2-0.8,0.9-1.4c-0.2-0.4-0.6-0.6-1.1-0.5C124.5,101.2,124.7,102.9,125.8,103z"/>
			<path class="splash-pad-st1" d="M129.5,103c0.8,0,1.2-0.8,0.9-1.4c-0.2-0.4-0.6-0.6-1.1-0.5C128.2,101.2,128.3,102.9,129.5,103z"/>
		</g>
		<g>
			<path class="splash-pad-st1" d="M8.2,57.7c0.2,0.4,1.1,0.3,1.2,0C10,56.7,7.7,56.1,8.2,57.7z"/>
			<path class="splash-pad-st1" d="M5.5,59.3c0.2,0.4,1.1,0.3,1.2,0C7.4,58.2,5.1,57.7,5.5,59.3z"/>
			<path class="splash-pad-st1" d="M6.5,70.8c0.4-0.2,0.8-0.4,1-0.6s0.3-0.4,0.5-0.7c1.1-1.5,2.6-2.8,4.2-3.8c0.9-0.6,2-1.1,3.2-1.4
				s2.5-0.5,4-0.6c6-0.4,10.5,1.4,14.4,3.8c3.8,2.4,6.9,5.4,9.6,8.8c2.4,3,4.5,6.2,6.3,9.7c0.1,0.2,0.3,0.5,0.4,0.7
				c0.1,0.2,0.3,0.5,0.7,0.5c0-1.1-0.3-2.1-0.7-3.1c-0.2-0.5-0.3-0.9-0.6-1.3c-0.2-0.4-0.4-0.9-0.7-1.3c-2.7-5-5.8-9.4-9.6-13.4
				c-3.7-4-7.8-7.4-13.7-9.2c-1.8-0.6-4.4-1-6.8-0.9c-1.3,0.1-2.4,0.2-3.5,0.4c-4.3,0.9-7.6,2.8-10.4,5.1c-0.7,0.6-1.4,1.2-2,2
				c-0.8,1-1.5,2.8-0.9,4.5c0.2,0.4,0.3,1,0.7,1.2c0.7,0.4,1.9,0.4,2.7,0.1C5.7,71.2,6.1,71,6.5,70.8z"/>
			<path class="splash-pad-st1" d="M12,56.4c0.2,0.4,1.1,0.3,1.2,0C13.8,55.4,11.5,54.8,12,56.4z"/>
			<path class="splash-pad-st1" d="M28,57.1c0.2,0.4,1.1,0.3,1.2,0C29.8,56,27.5,55.5,28,57.1z"/>
			<path class="splash-pad-st1" d="M25.1,56.5c0.2,0.4,1,0.3,1.2,0C27,55.4,24.7,54.8,25.1,56.5z"/>
			<path class="splash-pad-st1" d="M21.9,56.1c0.2,0.4,1.1,0.3,1.2,0C23.7,55,21.4,54.4,21.9,56.1z"/>
			<path class="splash-pad-st1" d="M18.4,55.8c0.2,0.4,1.1,0.3,1.2,0C20.3,54.7,17.9,54.2,18.4,55.8z"/>
			<path class="splash-pad-st1" d="M15.2,56.1c0.2,0.4,1.1,0.3,1.2,0C17.1,55,14.7,54.4,15.2,56.1z"/>
			<path class="splash-pad-st1" d="M43.9,85.4c0,0.1,0.2,0.3,0.2,0.1c0-2.9-1.1-4.5-2.8-5.7c-1.8-1.3-4.1-1.5-7-1.1C32,79,30.1,80.1,28.2,81
				c-1.9,1-3.8,2.1-5.9,2.6c-2.5,0.6-5.2,0.3-7.2-0.7c-1.9-0.9-3.3-2.5-3.7-4.8c-0.4-2.6,0.9-4.6,2.7-5.6c0.4-0.2,1-0.5,1.6-0.6
				c2-0.3,3.7,0.6,4.5,1.8c0.4,0.5,0.7,1.4,0.7,2.4C20.8,77.4,20,78.5,19,79c-0.7,0.3-1.6,0.2-2.3-0.1c-0.8-0.4-1.8-1.5-1.4-2.7
				c0.2-0.7,1.4-1.6,2.4-1.3c0.5,0.1,0.9,0.7,0.8,1.4c-0.1,0.5-0.5,1-1.1,0.9c-0.2,0-0.4-0.2-0.5-0.3c-0.1-0.2,0-0.4,0-0.7
				c-0.6,0.9,0.5,1.6,1.4,1.3c0.6-0.3,0.9-1.3,0.6-2.1c-0.2-0.7-1.1-1.2-1.8-1.2c-1.2,0-2.3,0.8-2.6,1.6c-0.2,0.4-0.3,1-0.3,1.7
				c0.2,2.1,2.8,3.7,5.2,3c1-0.3,1.9-1,2.4-1.8s1-2,1-3.3c0-1.9-0.8-3.2-1.9-4.1c-0.9-0.8-2.1-1.4-3.5-1.7c-0.2,0-0.3,0-0.4-0.1
				c0,0,0,0,0-0.1h-0.1c-0.5-0.1-1.4,0-1.8,0c-3.5,0.8-5.5,2.8-6.5,6.1c-0.1,0.5-0.3,1-0.3,1.5c-0.3,2,0,3.4,0.7,4.8
				c0.4,0.8,0.8,1.5,1.3,2.1c2,2.5,5.2,4.3,9.7,4.1c2.1-0.1,4.1-0.5,5.8-1.1c3.3-1.2,5.9-3.5,9.1-4.7c1.9-0.7,4.1-0.7,5.7,0.1
				C42,83.1,43,84.3,43.9,85.4z"/>
		</g>
		<g>
			<path class="splash-pad-st1" d="M149.8,63.3c-2.3-1.9-4.6-3.2-7.8-4.3c-1.9-0.6-4.5-1.1-7.1-1c-2.4,0.1-4.4,0.5-6.4,1.1
				c-3.8,1.3-6.8,3.2-9.5,5.6c-1.4,1.2-2.7,2.4-3.8,3.7c-3.6,4-6.7,8.3-9.4,13.2c-0.4,0.8-0.9,1.7-1.2,2.6c-0.3,1-0.6,2-0.7,3.1
				c0.3,0.1,0.5-0.3,0.6-0.4c0.2-0.2,0.3-0.5,0.4-0.7c1.9-3.5,3.9-6.7,6.3-9.7c2.7-3.4,5.8-6.4,9.6-8.8c3.9-2.4,8.4-4.2,14.4-3.9
				c1.4,0.1,2.8,0.3,4,0.6c1.2,0.3,2.2,0.8,3.2,1.4c1.6,1,3.2,2.3,4.2,3.8c0.2,0.2,0.3,0.5,0.5,0.7s0.6,0.4,1,0.6s0.8,0.4,1.2,0.5
				c0.8,0.2,2.1,0.3,2.8-0.1c0.3-0.2,0.6-0.9,0.7-1.3c0.6-1.8-0.3-3.6-1-4.6C151.3,64.6,150.5,63.9,149.8,63.3z"/>
			<g>
				<path class="splash-pad-st1" d="M117.5,27.9c0.5,0.1,1.1-0.4,1-0.9c0-0.2-0.3-0.3-0.6-0.4c-0.3-0.1-0.4-0.1-0.6,0
					C117,26.8,117,27.8,117.5,27.9z"/>
				<path class="splash-pad-st1" d="M114.9,27.7c0.5,0.1,1.1-0.4,1-0.9c-0.1-0.2-0.3-0.3-0.6-0.4c-0.3-0.1-0.4-0.1-0.6,0
					C114.4,26.6,114.4,27.6,114.9,27.7z"/>
				<path class="splash-pad-st1" d="M112.1,28.2c0.5,0.1,1.1-0.4,1-0.9c-0.1-0.2-0.3-0.3-0.6-0.4c-0.3,0-0.4-0.1-0.6,0
					C111.6,27.1,111.6,28.1,112.1,28.2z"/>
				<path class="splash-pad-st1" d="M119.7,28.3c0.2,0.3,1,0.4,1.2,0C121.4,26.7,119.1,27.2,119.7,28.3z"/>
				<path class="splash-pad-st1" d="M109.3,28.9c0.2,0.3,1,0.4,1.2,0C111,27.3,108.6,27.9,109.3,28.9z"/>
				<path class="splash-pad-st1" d="M121.8,29.2c0.2,0.3,1,0.4,1.2,0C123.5,27.6,121.2,28.2,121.8,29.2z"/>
				<path class="splash-pad-st1" d="M124,31.1c0.2,0.3,1,0.4,1.2,0C125.8,29.4,123.4,30,124,31.1z"/>
				<path class="splash-pad-st1" d="M128.2,38.2c0.2,0.3,1,0.4,1.2,0C129.9,36.6,127.6,37.2,128.2,38.2z"/>
				<path class="splash-pad-st1" d="M128.5,41.1c0.2,0.3,1,0.4,1.2,0C130.2,39.5,127.9,40.1,128.5,41.1z"/>
				<path class="splash-pad-st1" d="M128.9,43.9c0.2,0.3,1,0.4,1.2,0C130.6,42.3,128.3,42.9,128.9,43.9z"/>
				<path class="splash-pad-st1" d="M143.5,56.4c0.2,0.3,1,0.4,1.2,0C145.2,54.8,142.9,55.4,143.5,56.4z"/>
				<path class="splash-pad-st1" d="M146.7,57.7c0.2,0.3,1,0.4,1.2,0C148.4,56.1,146,56.7,146.7,57.7z"/>
				<path class="splash-pad-st1" d="M149.3,59.3c0.2,0.3,1,0.4,1.2,0C151,57.7,148.7,58.2,149.3,59.3z"/>
				<path class="splash-pad-st1" d="M128.5,47.2c0.2,0.3,1,0.4,1.2,0C130.2,45.6,127.9,46.1,128.5,47.2z"/>
				<path class="splash-pad-st1" d="M127.8,49.9c0.2,0.3,1,0.4,1.2,0C129.5,48.2,127.2,48.8,127.8,49.9z"/>
				<path class="splash-pad-st1" d="M126.5,52.6c0.2,0.3,1,0.4,1.2,0C128.2,51,125.9,51.5,126.5,52.6z"/>
				<path class="splash-pad-st1" d="M125.4,55.2c0.2,0.3,1,0.4,1.2,0C127.1,53.5,124.8,54.1,125.4,55.2z"/>
				<path class="splash-pad-st1" d="M123.7,57.7c0.2,0.3,1,0.4,1.2,0C125.5,56.1,123.1,56.7,123.7,57.7z"/>
				<path class="splash-pad-st1" d="M121.8,60.6c0.2,0.3,1,0.4,1.2,0C123.5,58.9,121.2,59.5,121.8,60.6z"/>
				<path class="splash-pad-st1" d="M127.5,57.1c0.2,0.3,1,0.4,1.2,0C129.2,55.5,126.9,56,127.5,57.1z"/>
				<path class="splash-pad-st1" d="M130.3,56.5c0.2,0.3,1,0.4,1.2,0C132.1,54.8,129.7,55.4,130.3,56.5z"/>
				<path class="splash-pad-st1" d="M133.6,56.1c0.2,0.3,1,0.4,1.2,0C135.3,54.4,133,55,133.6,56.1z"/>
				<path class="splash-pad-st1" d="M137.1,55.8c0.2,0.3,1,0.4,1.2,0C138.8,54.2,136.4,54.7,137.1,55.8z"/>
				<path class="splash-pad-st1" d="M140.3,56.1c0.2,0.3,1,0.4,1.2,0C142,54.4,139.7,55,140.3,56.1z"/>
				<path class="splash-pad-st1" d="M125.5,32.9c0.2,0.3,1,0.4,1.2,0C127.2,31.3,124.8,31.8,125.5,32.9z"/>
				<path class="splash-pad-st1" d="M127.2,35.5c0.2,0.3,1,0.4,1.2,0C128.9,33.9,126.6,34.5,127.2,35.5z"/>
				<path class="splash-pad-st1" d="M125.4,37.1c-1.2-2.3-2.9-4-5.1-5.2c-1.1-0.6-2.5-1.1-4-1.2c-3.3-0.3-5.9,0.9-7.5,2.8
					c-1,1.2-1.7,2.6-1.5,4.8c0.1,1.4,0.7,2.7,1.5,3.6c0.8,0.9,2,1.5,3.7,1c0.6-0.2,0.9-1.4,0.6-2.2c-0.2-0.6-0.9-0.9-1.2-1.4
					c-0.3-0.5-0.8-1.6-0.7-2.6c0.1-1.1,0.9-1.8,1.8-2.1c1-0.3,2.3-0.2,3.4,0.1c1,0.3,1.9,0.7,2.6,1.3s1.3,1.3,1.7,2.1
					c1,1.7,1.5,3.7,1.5,6.2c0,2.6-0.5,4.6-1.2,6.6c-1.3,3.9-3.2,7.2-5.4,10.2c-2.1,3-4.6,5.7-7.1,8.3c0.5-0.5,1.2-0.7,1.7-1.1
					c1.4-1.1,2.6-2.5,4-3.8c3.4-3.4,6.9-6.7,9.5-11c1.3-2.2,2.4-4.7,2.7-7.5C127.1,42.5,126.5,39.3,125.4,37.1z"/>
			</g>
			<path class="splash-pad-st1" d="M112.8,82.4c1.6-0.8,3.8-0.8,5.7-0.1c3.2,1.2,5.8,3.5,9.1,4.7c1.7,0.6,3.7,1,5.8,1.1
				c4.5,0.2,7.6-1.6,9.7-4.1c0.5-0.6,0.9-1.3,1.3-2.1c0.6-1.3,1-2.8,0.8-4.8c0-0.5-0.2-1-0.3-1.5c-1-3.3-3-5.3-6.5-6.1
				c-0.4-0.1-1.3-0.1-1.8,0h-0.1v0.1c-0.1,0.1-0.3,0.1-0.4,0.1c-1.4,0.3-2.6,0.9-3.5,1.7c-1,0.9-1.9,2.2-1.9,4.1
				c0,1.3,0.4,2.5,1,3.3s1.4,1.6,2.4,1.8c2.5,0.7,5-0.9,5.2-3c0.1-0.7-0.1-1.3-0.3-1.7c-0.4-0.8-1.4-1.7-2.6-1.6
				c-0.7,0-1.5,0.5-1.8,1.2c-0.3,0.8,0.1,1.8,0.6,2.1c0.9,0.4,2-0.3,1.4-1.3c0,0.3,0.1,0.5,0,0.7s-0.3,0.3-0.5,0.3
				c-0.6,0.1-1.1-0.4-1.1-0.9c-0.1-0.7,0.3-1.3,0.8-1.4c1-0.3,2.2,0.6,2.4,1.3c0.4,1.2-0.6,2.3-1.4,2.7c-0.6,0.3-1.6,0.4-2.3,0.1
				c-1-0.4-1.8-1.6-1.9-2.9c-0.1-1,0.3-1.9,0.6-2.4c0.8-1.2,2.5-2.1,4.5-1.8c0.6,0.1,1.1,0.3,1.5,0.6c1.8,1,3.1,3,2.7,5.6
				c-0.4,2.3-1.8,3.9-3.7,4.8c-2,1-4.7,1.2-7.2,0.7c-2.1-0.5-4-1.6-5.9-2.6c-1.9-0.9-3.8-2-6.2-2.3c-2.9-0.4-5.3-0.1-7,1.1
				s-2.7,2.9-2.7,5.7c0,0.1,0.1-0.1,0.2-0.1C110.3,84.3,111.4,83.1,112.8,82.4z"/>
			<path class="splash-pad-st1" d="M108.1,60.3c-0.7-1.5-1.2-3.9-0.7-6.1c0.3-1.3,0.9-2.4,1.5-3.3c0.7-1,1.5-1.8,2.5-2.5l0,0
				c-1.2,0-2.2,0.5-3.1,1c-1.9,1.2-3,2.6-3.6,5c-0.3,1.2-0.4,2.7-0.2,4.1c0.3,1.9,1,3.5,2,4.8c0.3,0.5,0.8,0.9,1.3,1
				c0.7,0.1,1.3-0.4,1.4-0.8c0.2-0.5,0-1.3-0.2-1.7C108.7,61.3,108.3,60.9,108.1,60.3z"/>
		</g>
		<g class="splash-pad-st2">
			<path class="splash-pad-st3" d="M29.1,9.7V2.4h20.1v7.3l-3.4,1v27.7l3.4,1v7.3H29.1v-7.3l3.4-1V10.7L29.1,9.7z"/>
		</g>
		<path d="M100,130.1c1.8-7.7,7.2-14,14.5-16.9l27.2-10.8l0.1-2.9l-14-7.9H25.6l-14,7.9l0.1,2.9l27.2,10.8
			c7.3,2.9,12.7,9.2,14.5,16.9H100z M119.2,93.7l11.6,7.1v2.6l-21.6,9.3c-6.5,2.8-11.4,8.5-13.2,15.4l-0.1,0.3H57.5l-0.1-0.3
			c-1.7-6.9-6.6-12.6-13.2-15.4l-21.6-9.3v-2.6l11.6-7.1C34.2,93.7,119.2,93.7,119.2,93.7z"/>
	</g>
</g>
</svg>
