<?xml version="1.0" encoding="utf-8"?>
<!-- Generator: Adobe Illustrator 23.0.4, SVG Export Plug-In . SVG Version: 6.00 Build 0)  -->
<svg version="1.1" id="Layer_1" xmlns="http://www.w3.org/2000/svg" xmlns:xlink="http://www.w3.org/1999/xlink" x="0px" y="0px"
	 viewBox="0 0 51 35" style="enable-background:new 0 0 51 35;" xml:space="preserve">
<style type="text/css">
	.swirl-st0{fill-rule:evenodd;clip-rule:evenodd;fill:#010101;}
</style>
<g>
	<path class="swirl-st0" d="M7.5,3.8c0.2,0.4,1.1,0.3,1.2,0C9.3,2.8,7,2.2,7.5,3.8z"/>
	<path class="swirl-st0" d="M4.8,5.4C5,5.8,5.9,5.7,6,5.4C6.7,4.3,4.4,3.8,4.8,5.4z"/>
	<path class="swirl-st0" d="M5.8,16.9c0.4-0.2,0.8-0.4,1-0.6s0.3-0.4,0.5-0.7c1.1-1.5,2.6-2.8,4.2-3.8c0.9-0.6,2-1.1,3.2-1.4
		s2.5-0.5,4-0.6c6-0.4,10.5,1.4,14.4,3.8c3.8,2.4,6.9,5.4,9.6,8.8c2.4,3,4.5,6.2,6.3,9.7c0.1,0.2,0.3,0.5,0.4,0.7
		c0.1,0.2,0.3,0.5,0.7,0.5c0-1.1-0.3-2.1-0.7-3.1c-0.2-0.5-0.3-0.9-0.6-1.3c-0.2-0.4-0.4-0.9-0.7-1.3c-2.7-5-5.8-9.4-9.6-13.4
		c-3.7-4-7.8-7.4-13.7-9.2C23,4.4,20.4,4,18,4.1c-1.3,0.1-2.4,0.2-3.5,0.4C10.2,5.4,6.9,7.3,4.1,9.6c-0.7,0.6-1.4,1.2-2,2
		c-0.8,1-1.5,2.8-0.9,4.5c0.2,0.4,0.3,1,0.7,1.2c0.7,0.4,1.9,0.4,2.7,0.1C5,17.3,5.4,17.1,5.8,16.9z"/>
	<path class="swirl-st0" d="M11.3,2.5c0.2,0.4,1.1,0.3,1.2,0C13.1,1.5,10.8,0.9,11.3,2.5z"/>
	<path class="swirl-st0" d="M27.3,3.2c0.2,0.4,1.1,0.3,1.2,0C29.1,2.1,26.8,1.6,27.3,3.2z"/>
	<path class="swirl-st0" d="M24.4,2.6c0.2,0.4,1,0.3,1.2,0C26.3,1.5,24,0.9,24.4,2.6z"/>
	<path class="swirl-st0" d="M21.2,2.2c0.2,0.4,1.1,0.3,1.2,0C23,1.1,20.7,0.5,21.2,2.2z"/>
	<path class="swirl-st0" d="M17.7,1.9c0.2,0.4,1.1,0.3,1.2,0C19.6,0.8,17.2,0.3,17.7,1.9z"/>
	<path class="swirl-st0" d="M14.5,2.2c0.2,0.4,1.1,0.3,1.2,0C16.4,1.1,14,0.5,14.5,2.2z"/>
	<path class="swirl-st0" d="M43.2,31.5c0,0.1,0.2,0.3,0.2,0.1c0-2.9-1.1-4.5-2.8-5.7c-1.8-1.3-4.1-1.5-7-1.1c-2.3,0.3-4.2,1.4-6.1,2.3
		c-1.9,1-3.8,2.1-5.9,2.6c-2.5,0.6-5.2,0.3-7.2-0.7c-1.9-0.9-3.3-2.5-3.7-4.8c-0.4-2.6,0.9-4.6,2.7-5.6c0.4-0.2,1-0.5,1.6-0.6
		c2-0.3,3.7,0.6,4.5,1.8c0.4,0.5,0.7,1.4,0.7,2.4c-0.1,1.3-0.9,2.4-1.9,2.9c-0.7,0.3-1.6,0.2-2.3-0.1c-0.8-0.4-1.8-1.5-1.4-2.7
		c0.2-0.7,1.4-1.6,2.4-1.3c0.5,0.1,0.9,0.7,0.8,1.4c-0.1,0.5-0.5,1-1.1,0.9c-0.2,0-0.4-0.2-0.5-0.3c-0.1-0.2,0-0.4,0-0.7
		c-0.6,0.9,0.5,1.6,1.4,1.3c0.6-0.3,0.9-1.3,0.6-2.1c-0.2-0.7-1.1-1.2-1.8-1.2c-1.2,0-2.3,0.8-2.6,1.6c-0.2,0.4-0.3,1-0.3,1.7
		c0.2,2.1,2.8,3.7,5.2,3c1-0.3,1.9-1,2.4-1.8s1-2,1-3.3c0-1.9-0.8-3.2-1.9-4.1c-0.9-0.8-2.1-1.4-3.5-1.7c-0.2,0-0.3,0-0.4-0.1
		c0,0,0,0,0-0.1h-0.1c-0.5-0.1-1.4,0-1.8,0c-3.5,0.8-5.5,2.8-6.5,6.1c-0.1,0.5-0.3,1-0.3,1.5c-0.3,2,0,3.4,0.7,4.8
		c0.4,0.8,0.8,1.5,1.3,2.1c2,2.5,5.2,4.3,9.7,4.1c2.1-0.1,4.1-0.5,5.8-1.1c3.3-1.2,5.9-3.5,9.1-4.7c1.9-0.7,4.1-0.7,5.7,0.1
		C41.3,29.2,42.3,30.4,43.2,31.5z"/>
</g>
</svg>
