<?xml version="1.0" encoding="utf-8"?>
<!-- Generator: Adobe Illustrator 23.0.4, SVG Export Plug-In . SVG Version: 6.00 Build 0)  -->
<svg version="1.1" id="Layer_1" xmlns="http://www.w3.org/2000/svg" xmlns:xlink="http://www.w3.org/1999/xlink" x="0px" y="0px"
	 viewBox="0 0 51 64" style="enable-background:new 0 0 51 64;" xml:space="preserve">
<style type="text/css">
	.swirl-st0{fill-rule:evenodd;clip-rule:evenodd;fill:#010101;}
</style>
<g>
	<path class="swirl-st0" d="M46.9,38.1c-2.3-1.9-4.6-3.2-7.8-4.3c-1.9-0.6-4.5-1.1-7.1-1c-2.4,0.1-4.4,0.5-6.4,1.1
		c-3.8,1.3-6.8,3.2-9.5,5.6c-1.4,1.2-2.7,2.4-3.8,3.7c-3.6,4-6.7,8.3-9.4,13.2C2.5,57.2,2,58.1,1.7,59c-0.3,1-0.6,2-0.7,3.1
		c0.3,0.1,0.5-0.3,0.6-0.4C1.8,61.5,1.9,61.2,2,61c1.9-3.5,3.9-6.7,6.3-9.7c2.7-3.4,5.8-6.4,9.6-8.8c3.9-2.4,8.4-4.2,14.4-3.9
		c1.4,0.1,2.8,0.3,4,0.6c1.2,0.3,2.2,0.8,3.2,1.4c1.6,1,3.2,2.3,4.2,3.8c0.2,0.2,0.3,0.5,0.5,0.7s0.6,0.4,1,0.6s0.8,0.4,1.2,0.5
		c0.8,0.2,2.1,0.3,2.8-0.1c0.3-0.2,0.6-0.9,0.7-1.3c0.6-1.8-0.3-3.6-1-4.6C48.4,39.4,47.6,38.7,46.9,38.1z"/>
	<g>
		<path class="swirl-st0" d="M14.6,2.7c0.5,0.1,1.1-0.4,1-0.9c0-0.2-0.3-0.3-0.6-0.4c-0.3-0.1-0.4-0.1-0.6,0C14.1,1.6,14.1,2.6,14.6,2.7z"
			/>
		<path class="swirl-st0" d="M12,2.5c0.5,0.1,1.1-0.4,1-0.9c-0.1-0.2-0.3-0.3-0.6-0.4c-0.3-0.1-0.4-0.1-0.6,0C11.5,1.4,11.5,2.4,12,2.5z"
			/>
		<path class="swirl-st0" d="M9.2,3c0.5,0.1,1.1-0.4,1-0.9c-0.1-0.2-0.3-0.3-0.6-0.4c-0.3,0-0.4-0.1-0.6,0C8.7,1.9,8.7,2.9,9.2,3z"/>
		<path class="swirl-st0" d="M16.8,3.1c0.2,0.3,1,0.4,1.2,0C18.5,1.5,16.2,2,16.8,3.1z"/>
		<path class="swirl-st0" d="M6.4,3.7c0.2,0.3,1,0.4,1.2,0C8.1,2.1,5.7,2.7,6.4,3.7z"/>
		<path class="swirl-st0" d="M18.9,4c0.2,0.3,1,0.4,1.2,0C20.6,2.4,18.3,3,18.9,4z"/>
		<path class="swirl-st0" d="M21.1,5.9c0.2,0.3,1,0.4,1.2,0C22.9,4.2,20.5,4.8,21.1,5.9z"/>
		<path class="swirl-st0" d="M25.3,13c0.2,0.3,1,0.4,1.2,0C27,11.4,24.7,12,25.3,13z"/>
		<path class="swirl-st0" d="M25.6,15.9c0.2,0.3,1,0.4,1.2,0C27.3,14.3,25,14.9,25.6,15.9z"/>
		<path class="swirl-st0" d="M26,18.7c0.2,0.3,1,0.4,1.2,0C27.7,17.1,25.4,17.7,26,18.7z"/>
		<path class="swirl-st0" d="M40.6,31.2c0.2,0.3,1,0.4,1.2,0C42.3,29.6,40,30.2,40.6,31.2z"/>
		<path class="swirl-st0" d="M43.8,32.5c0.2,0.3,1,0.4,1.2,0C45.5,30.9,43.1,31.5,43.8,32.5z"/>
		<path class="swirl-st0" d="M46.4,34.1c0.2,0.3,1,0.4,1.2,0C48.1,32.5,45.8,33,46.4,34.1z"/>
		<path class="swirl-st0" d="M25.6,22c0.2,0.3,1,0.4,1.2,0C27.3,20.4,25,20.9,25.6,22z"/>
		<path class="swirl-st0" d="M24.9,24.7c0.2,0.3,1,0.4,1.2,0C26.6,23,24.3,23.6,24.9,24.7z"/>
		<path class="swirl-st0" d="M23.6,27.4c0.2,0.3,1,0.4,1.2,0C25.3,25.8,23,26.3,23.6,27.4z"/>
		<path class="swirl-st0" d="M22.5,30c0.2,0.3,1,0.4,1.2,0C24.2,28.3,21.9,28.9,22.5,30z"/>
		<path class="swirl-st0" d="M20.8,32.5c0.2,0.3,1,0.4,1.2,0C22.6,30.9,20.2,31.5,20.8,32.5z"/>
		<path class="swirl-st0" d="M18.9,35.4c0.2,0.3,1,0.4,1.2,0C20.6,33.7,18.3,34.3,18.9,35.4z"/>
		<path class="swirl-st0" d="M24.6,31.9c0.2,0.3,1,0.4,1.2,0C26.3,30.3,24,30.8,24.6,31.9z"/>
		<path class="swirl-st0" d="M27.4,31.3c0.2,0.3,1,0.4,1.2,0C29.2,29.6,26.8,30.2,27.4,31.3z"/>
		<path class="swirl-st0" d="M30.7,30.9c0.2,0.3,1,0.4,1.2,0C32.4,29.2,30.1,29.8,30.7,30.9z"/>
		<path class="swirl-st0" d="M34.2,30.6c0.2,0.3,1,0.4,1.2,0C35.9,29,33.5,29.5,34.2,30.6z"/>
		<path class="swirl-st0" d="M37.4,30.9c0.2,0.3,1,0.4,1.2,0C39.1,29.2,36.8,29.8,37.4,30.9z"/>
		<path class="swirl-st0" d="M22.6,7.7c0.2,0.3,1,0.4,1.2,0C24.3,6.1,21.9,6.6,22.6,7.7z"/>
		<path class="swirl-st0" d="M24.3,10.3c0.2,0.3,1,0.4,1.2,0C26,8.7,23.7,9.3,24.3,10.3z"/>
		<path class="swirl-st0" d="M22.5,11.9c-1.2-2.3-2.9-4-5.1-5.2c-1.1-0.6-2.5-1.1-4-1.2c-3.3-0.3-5.9,0.9-7.5,2.8c-1,1.2-1.7,2.6-1.5,4.8
			c0.1,1.4,0.7,2.7,1.5,3.6c0.8,0.9,2,1.5,3.7,1c0.6-0.2,0.9-1.4,0.6-2.2C10,14.9,9.3,14.6,9,14.1c-0.3-0.5-0.8-1.6-0.7-2.6
			c0.1-1.1,0.9-1.8,1.8-2.1c1-0.3,2.3-0.2,3.4,0.1c1,0.3,1.9,0.7,2.6,1.3s1.3,1.3,1.7,2.1c1,1.7,1.5,3.7,1.5,6.2
			c0,2.6-0.5,4.6-1.2,6.6c-1.3,3.9-3.2,7.2-5.4,10.2c-2.1,3-4.6,5.7-7.1,8.3c0.5-0.5,1.2-0.7,1.7-1.1c1.4-1.1,2.6-2.5,4-3.8
			c3.4-3.4,6.9-6.7,9.5-11c1.3-2.2,2.4-4.7,2.7-7.5C24.2,17.3,23.6,14.1,22.5,11.9z"/>
	</g>
	<path class="swirl-st0" d="M9.9,57.2c1.6-0.8,3.8-0.8,5.7-0.1c3.2,1.2,5.8,3.5,9.1,4.7c1.7,0.6,3.7,1,5.8,1.1c4.5,0.2,7.6-1.6,9.7-4.1
		c0.5-0.6,0.9-1.3,1.3-2.1c0.6-1.3,1-2.8,0.8-4.8c0-0.5-0.2-1-0.3-1.5c-1-3.3-3-5.3-6.5-6.1c-0.4-0.1-1.3-0.1-1.8,0h-0.1v0.1
		c-0.1,0.1-0.3,0.1-0.4,0.1c-1.4,0.3-2.6,0.9-3.5,1.7c-1,0.9-1.9,2.2-1.9,4.1c0,1.3,0.4,2.5,1,3.3s1.4,1.6,2.4,1.8
		c2.5,0.7,5-0.9,5.2-3c0.1-0.7-0.1-1.3-0.3-1.7c-0.4-0.8-1.4-1.7-2.6-1.6c-0.7,0-1.5,0.5-1.8,1.2c-0.3,0.8,0.1,1.8,0.6,2.1
		c0.9,0.4,2-0.3,1.4-1.3c0,0.3,0.1,0.5,0,0.7s-0.3,0.3-0.5,0.3c-0.6,0.1-1.1-0.4-1.1-0.9c-0.1-0.7,0.3-1.3,0.8-1.4
		c1-0.3,2.2,0.6,2.4,1.3c0.4,1.2-0.6,2.3-1.4,2.7c-0.6,0.3-1.6,0.4-2.3,0.1c-1-0.4-1.8-1.6-1.9-2.9c-0.1-1,0.3-1.9,0.6-2.4
		c0.8-1.2,2.5-2.1,4.5-1.8c0.6,0.1,1.1,0.3,1.5,0.6c1.8,1,3.1,3,2.7,5.6c-0.4,2.3-1.8,3.9-3.7,4.8c-2,1-4.7,1.2-7.2,0.7
		c-2.1-0.5-4-1.6-5.9-2.6c-1.9-0.9-3.8-2-6.2-2.3c-2.9-0.4-5.3-0.1-7,1.1s-2.7,2.9-2.7,5.7c0,0.1,0.1-0.1,0.2-0.1
		C7.4,59.1,8.5,57.9,9.9,57.2z"/>
	<path class="swirl-st0" d="M5.2,35.1C4.5,33.6,4,31.2,4.5,29c0.3-1.3,0.9-2.4,1.5-3.3c0.7-1,1.5-1.8,2.5-2.5l0,0c-1.2,0-2.2,0.5-3.1,1
		c-1.9,1.2-3,2.6-3.6,5c-0.3,1.2-0.4,2.7-0.2,4.1c0.3,1.9,1,3.5,2,4.8c0.3,0.5,0.8,0.9,1.3,1c0.7,0.1,1.3-0.4,1.4-0.8
		c0.2-0.5,0-1.3-0.2-1.7C5.8,36.1,5.4,35.7,5.2,35.1z"/>
</g>
</svg>
