<?xml version="1.0" encoding="utf-8"?>
<!-- Generator: Adobe Illustrator 23.0.1, SVG Export Plug-In . SVG Version: 6.00 Build 0)  -->
<svg version="1.1" id="Layer_1" xmlns="http://www.w3.org/2000/svg" xmlns:xlink="http://www.w3.org/1999/xlink" x="0px" y="0px"
	 viewBox="0 0 330 405.7" style="enable-background:new 0 0 330 405.7;" xml:space="preserve">
<style type="text/css">
	.st0{fill:#FFFFFF;}
</style>
<g>
	<path class="st0" d="M67.6,51.1v14h-8.1v14.7H44.7V65.1H10.5v-4.7L43.9,10h15.7v41.1H67.6z M44.6,31.2L32.2,51.1h12.6V31.2H44.6z"
		/>
	<path class="st0" d="M65.4,10h48.9v14H97.7v55.9H81.9V24H65.4V10z"/>
	<path class="st0" d="M135.8,79.8H120V10h15.8v27.8h22.4V10h15.8v69.8h-15.8v-28h-22.4V79.8z"/>
	<path class="st0" d="M49.6,87.7c19.3,0,35,15.7,35,36.1c0,20.4-15,36.2-35,36.2c-20.6,0-35.1-15.8-35.1-36.2
		C14.5,103.4,30.5,87.7,49.6,87.7z M49.6,144.7c12.6,0,17.9-10.4,17.9-20.8S61.9,103,49.6,103c-12.2,0-18,10.4-18,20.8
		S36.6,144.7,49.6,144.7z"/>
	<path class="st0" d="M131.8,102.9h-24.4v13.9h22.5v14h-22.5v28H91.6V89h40.2V102.9z"/>
	<path class="st0" d="M47.9,218.1c0,13.7-7.8,21-21.7,21c-9.9,0-16.3-6.7-16.3-6.7l5.1-13.3c0,0,5,4.7,9,4.7c4.6,0,8-2.8,8-9.8v-46
		h15.8V218.1z"/>
	<path class="st0" d="M110.6,213c0,17.3-9.4,26.1-27.1,26.1s-27.1-8.8-27.1-26.1v-45h15.8v40.4c0,11.7,3.5,15.1,11.3,15.1
		s11.3-3.4,11.3-15.1V168h15.8V213z"/>
	<path class="st0" d="M135.7,223.8h23.9v14h-39.8V168h15.8V223.8z"/>
	<path class="st0" d="M171.6,168l14.5,22.3l14.5-22.3h19L194,206.5v31.3h-15.8v-31.3L152.5,168H171.6z"/>
	<path class="st0" d="M39.2,246.9c12,0,21.4,4.5,21.4,17.8c0,6.4-2.8,11.9-8.7,15c8.7,1.5,14.8,6.3,14.8,17.6
		c0,11.5-8.3,19.5-22.8,19.5H17.7v-69.8H39.2z M34.8,274.3c6.8,0,10.5-2.1,10.5-8c0-5-3.6-7.1-10.5-7.1h-1.3v15.1H34.8z M38.5,304.5
		c7.5,0,11.6-2.3,11.6-7.8c0-6.4-4.1-8.7-11.6-8.7h-5v16.5H38.5z"/>
	<path class="st0" d="M89.6,302.8h23.9v14H73.8v-69.8h15.8V302.8z"/>
	<path class="st0" d="M151.2,245.7c19.3,0,35,15.7,35,36.1c0,20.4-15,36.2-35,36.2c-20.6,0-35.1-15.8-35.1-36.2
		C116.2,261.4,132.1,245.7,151.2,245.7z M151.2,302.6c12.6,0,17.9-10.4,17.9-20.8s-5.6-20.8-17.9-20.8c-12.2,0-18,10.4-18,20.8
		S138.3,302.6,151.2,302.6z"/>
	<path class="st0" d="M243.9,298l6.7,13.5c0,0-7.8,6.4-22.8,6.4c-19.6,0-37.7-16.1-37.7-36.1c0-20.1,18-36.3,37.7-36.3
		c15.1,0,22.8,6.4,22.8,6.4l-6.7,13.5c0,0-5.6-4.3-13.7-4.3c-15.9,0-22.9,11.2-22.9,20.5c0,9.4,7,20.6,22.9,20.6
		C238.3,302.4,243.9,298,243.9,298z"/>
	<path class="st0" d="M298.1,316.8l-25.6-29.6v29.6h-15.8v-69.8h15.8v28.5l23.9-28.5h19.2l-28,33.1l32.4,36.7H298.1z"/>
	<path class="st0" d="M43,325.9c13.6,0,23.8,7,23.8,21.5c0,14.4-10.2,22.4-23.8,22.4h-9.5v25.9H17.7v-69.8H43z M38,357.1
		c6.2,0,12.1-2.1,12.1-9.2c0-7.2-5.9-9.3-12.1-9.3h-4.5v18.5H38z"/>
	<path class="st0" d="M131.8,395.7h-17l-5.1-14H83.1l-5.1,14H61L89,325.9h14.7L131.8,395.7z M96.5,347.5h-0.2l-7.8,20.3h15.7
		L96.5,347.5z"/>
	<path class="st0" d="M159.3,325.9c12.9,0,22.7,7,22.7,20.7c0,10.5-5.7,17.5-14.2,20.2l23.9,28.9h-20.1l-21.2-27.6v27.6h-15.8v-69.8
		H159.3z M152.2,356.9c6,0,13.1-0.4,13.1-9.1s-7.2-9.1-13.1-9.1h-1.9v18.3H152.2z"/>
	<path class="st0" d="M187.1,325.9h48.9v14h-16.5v55.9h-15.8v-55.9h-16.5V325.9z"/>
	<path class="st0" d="M256,325.9l14.5,22.3l14.5-22.3h19l-25.6,38.5v31.3h-15.8v-31.3L237,325.9H256z"/>
</g>
</svg>
